<svg xmlns="http://www.w3.org/2000/svg" width="20" height="20" fill="none"><path d="M12.3375 6.45337H6.16861v6.83353h6.16889V6.45337Z"/><path d="m11.7706 8.45625 2.8011-1.60237v6.06232l-2.8011-1.6024V8.45625Z" clip-rule="evenodd"/><path fill="#fff" d="M1.67363 6.45337c-.41348 0-.8403.33383-.8403.74777v5.36796c0 .4139.42682.6943.8403.6943H6.1686V6.45337H1.67363ZM18.8265 9.28407 14.585 6.84046 7.22233 2.59418c-.4535-.26706-1.05372.06677-1.05372.58754v3.28485h4.89509c.4135 0 .7069.33383.7069.74777v1.24184l2.8011-1.60237v6.06229l-2.8011-1.6024v1.2819c0 .414-.2934.6944-.7069.6944H6.16861v3.2982c0 .5208.60022.8412 1.05372.5875l7.36267-4.2329 4.2415-2.4436c.4535-.3071.4535-.96142 0-1.21513Z"/></svg>