<svg width="691" height="83" viewBox="0 0 691 83" fill="none" xmlns="http://www.w3.org/2000/svg">
<path d="M9.09318 48.0718C11.2388 49.7922 13.4865 51.1079 15.9386 52.2211C18.3907 53.2332 20.7406 53.8404 22.8862 53.8404C25.2361 53.8404 26.973 53.4356 27.9947 52.7271C29.0164 52.0187 29.6295 51.0067 29.6295 49.691C29.6295 48.9826 29.4251 48.3754 29.1186 47.8694C28.8121 47.3633 28.1991 46.9585 27.4839 46.5537C26.7687 46.1489 25.9513 45.7441 24.9296 45.3393C23.9079 44.9345 22.8862 44.5296 21.558 44.0236L14.2017 40.9875C12.6692 40.3803 11.1366 39.5707 9.60403 38.5586C8.17365 37.5466 6.84543 36.4333 5.82372 35.0165C4.69985 33.7008 3.88248 32.0816 3.26946 30.3611C2.65644 28.6407 2.34992 26.7178 2.34992 24.5925C2.34992 22.0624 2.86078 19.7347 3.98465 17.5082C5.10853 15.2818 6.64109 13.3589 8.58233 11.7396C10.5236 10.1204 12.8735 8.80472 15.5299 7.79269C18.1864 6.78065 21.1493 6.37584 24.4188 6.37584C27.7904 6.37584 31.2642 6.98306 34.738 8.29871C38.2118 9.61436 41.3791 11.5372 44.0355 14.2697L36.1684 23.9853C34.125 22.5684 32.2859 21.5564 30.3447 20.848C28.5056 20.1395 26.4622 19.7347 24.3166 19.7347C22.3754 19.7347 20.8428 20.0383 19.7189 20.7468C18.595 21.4552 18.0842 22.366 18.0842 23.6817C18.0842 25.0985 18.9016 26.1106 20.4341 26.9202C21.9667 27.6286 24.1123 28.5395 26.8709 29.5515L34.0228 32.3852C37.7009 33.802 40.5617 35.8261 42.6051 38.4574C44.6485 41.0887 45.5681 44.4284 45.5681 48.4766C45.5681 50.9055 45.0572 53.3344 44.0355 55.5609C43.0138 57.8885 41.4813 59.8114 39.54 61.5319C37.5988 63.2523 35.1467 64.568 32.2859 65.6812C29.4251 66.7945 26.1557 67.1993 22.4775 67.1993C18.6972 67.1993 14.8147 66.4909 10.8301 65.1752C6.84543 63.8596 3.26946 61.7343 0 58.7994L9.09318 48.0718ZM49.5527 43.5176C49.5527 39.7731 50.2679 36.4333 51.5961 33.4984C52.9244 30.5635 54.7634 28.0334 57.0112 26.0094C59.2589 23.9853 61.8132 22.4672 64.7762 21.4552C67.7391 20.4432 70.8042 19.8359 73.9715 19.8359C76.7301 19.8359 79.1822 20.2407 81.5321 21.1516C83.7799 22.0624 85.7211 23.2769 87.3559 24.8961L80.3061 34.4093C79.2844 33.5996 78.3648 32.9924 77.5475 32.6888C76.7301 32.3852 75.9128 32.284 74.9932 32.284C72.0303 32.284 69.7825 33.296 68.1478 35.3201C66.513 37.3442 65.6957 40.0767 65.6957 43.5176C65.6957 46.9585 66.5131 49.691 68.25 51.7151C69.8847 53.7392 72.0303 54.7512 74.4824 54.7512C75.9128 54.7512 77.241 54.4476 78.467 53.8404C79.6931 53.2332 80.7148 52.6259 81.8386 51.8163L88.071 61.5319C85.7211 63.5559 83.269 64.9728 80.5104 65.7824C77.7518 66.6933 75.1976 67.0981 72.8476 67.0981C69.6803 67.0981 66.6152 66.5921 63.8566 65.4788C61.098 64.4668 58.6459 62.8475 56.6025 60.9247C54.5591 58.9006 52.9244 56.4717 51.6983 53.4356C50.1658 50.6019 49.5527 47.2621 49.5527 43.5176ZM92.9752 20.9492H105.747L106.87 28.7419H107.279C109.016 25.7057 110.957 23.4793 113.307 22.0624C115.657 20.6456 117.905 19.9371 120.153 19.9371C121.583 19.9371 122.707 20.0383 123.524 20.1395C124.342 20.2407 125.159 20.5444 125.772 20.848L123.218 34.2069C122.4 34.0045 121.583 33.9033 120.766 33.7008C120.05 33.5996 119.131 33.4984 118.109 33.4984C116.474 33.4984 114.738 34.0045 113.001 35.1177C111.162 36.2309 109.731 38.1538 108.71 40.9875V66.086H93.0774V20.9492H92.9752ZM125.874 43.5176C125.874 39.8743 126.487 36.5345 127.713 33.5996C128.939 30.6647 130.574 28.2358 132.617 26.1106C134.661 24.0865 137.011 22.4672 139.565 21.4552C142.119 20.4432 144.878 19.8359 147.637 19.8359C151.008 19.8359 153.869 20.4432 156.423 21.5564C158.875 22.6696 161.021 24.2889 162.656 26.2118C164.29 28.2358 165.516 30.4623 166.334 33.1948C167.151 35.8261 167.56 38.6598 167.56 41.6959C167.56 43.1128 167.458 44.3272 167.355 45.4405C167.253 46.5537 167.049 47.3633 166.947 47.8694H140.995C141.711 50.8043 143.039 52.7271 144.878 53.8404C146.717 54.9536 148.965 55.4596 151.519 55.4596C153.052 55.4596 154.584 55.2572 156.117 54.7512C157.649 54.3464 159.182 53.638 160.816 52.7271L165.925 61.9367C163.473 63.6572 160.714 64.9728 157.649 65.8836C154.686 66.7945 151.826 67.1993 149.271 67.1993C145.9 67.1993 142.834 66.6933 139.974 65.58C137.113 64.568 134.661 62.9487 132.515 61.0259C130.472 59.0018 128.735 56.5729 127.509 53.5368C126.487 50.6019 125.874 47.2621 125.874 43.5176ZM154.278 38.4574C154.278 36.5345 153.869 34.9153 152.949 33.5996C152.03 32.284 150.395 31.5756 148.045 31.5756C146.308 31.5756 144.776 32.0816 143.447 33.0936C142.119 34.1057 141.2 35.9273 140.791 38.4574H154.278ZM171.749 43.5176C171.749 39.8743 172.362 36.5345 173.588 33.5996C174.814 30.6647 176.449 28.2358 178.492 26.1106C180.535 24.0865 182.885 22.4672 185.44 21.4552C187.994 20.4432 190.752 19.8359 193.511 19.8359C196.883 19.8359 199.743 20.4432 202.298 21.5564C204.75 22.6696 206.895 24.2889 208.53 26.2118C210.165 28.2358 211.391 30.4623 212.208 33.1948C213.026 35.8261 213.434 38.6598 213.434 41.6959C213.434 43.1128 213.332 44.3272 213.23 45.4405C213.128 46.5537 212.924 47.3633 212.821 47.8694H186.87C187.585 50.8043 188.913 52.7271 190.752 53.8404C192.592 54.9536 194.839 55.4596 197.394 55.4596C198.926 55.4596 200.459 55.2572 201.991 54.7512C203.524 54.3464 205.056 53.638 206.691 52.7271L211.8 61.9367C209.348 63.6572 206.589 64.9728 203.524 65.8836C200.561 66.7945 197.7 67.1993 195.146 67.1993C191.774 67.1993 188.709 66.6933 185.848 65.58C182.988 64.568 180.535 62.9487 178.39 61.0259C176.346 59.0018 174.61 56.5729 173.383 53.5368C172.362 50.6019 171.749 47.2621 171.749 43.5176ZM200.152 38.4574C200.152 36.5345 199.743 34.9153 198.824 33.5996C197.904 32.284 196.27 31.5756 193.92 31.5756C192.183 31.5756 190.65 32.0816 189.322 33.0936C187.994 34.1057 187.074 35.9273 186.666 38.4574H200.152ZM220.075 20.9492H232.847L233.971 26.313H234.379C236.218 24.5925 238.262 23.0745 240.612 21.7588C242.962 20.4432 245.618 19.8359 248.785 19.8359C253.792 19.8359 257.368 21.4552 259.615 24.7949C261.863 28.1346 262.987 32.5876 262.987 38.1538V65.8836H247.355V40.2791C247.355 37.3442 246.946 35.4213 246.231 34.5105C245.516 33.5996 244.392 33.0936 242.757 33.0936C241.327 33.0936 240.101 33.3972 239.079 34.0045C238.057 34.6117 237.036 35.4213 235.81 36.5345V66.086H220.075V20.9492ZM268.811 43.5176C268.811 39.7731 269.526 36.4333 270.854 33.4984C272.182 30.5635 274.022 28.0334 276.269 26.0094C278.517 23.9853 281.071 22.4672 284.034 21.4552C286.997 20.4432 290.062 19.8359 293.23 19.8359C295.988 19.8359 298.44 20.2407 300.79 21.1516C303.038 22.0624 304.979 23.2769 306.614 24.8961L299.564 34.4093C298.542 33.5996 297.623 32.9924 296.806 32.6888C295.988 32.3852 295.171 32.284 294.251 32.284C291.288 32.284 289.041 33.296 287.406 35.3201C285.771 37.3442 284.954 40.0767 284.954 43.5176C284.954 46.9585 285.771 49.691 287.508 51.7151C289.143 53.7392 291.288 54.7512 293.74 54.7512C295.171 54.7512 296.499 54.4476 297.725 53.8404C298.951 53.2332 299.973 52.6259 301.097 51.8163L307.329 61.5319C304.979 63.5559 302.527 64.9728 299.768 65.7824C297.01 66.6933 294.456 67.0981 292.106 67.0981C288.938 67.0981 285.873 66.5921 283.115 65.4788C280.356 64.4668 277.904 62.8475 275.861 60.9247C273.817 58.9006 272.182 56.4717 270.956 53.4356C269.322 50.6019 268.811 47.2621 268.811 43.5176ZM309.781 53.2332C309.781 48.5778 311.722 44.8333 315.605 42.202C319.487 39.5707 325.822 37.749 334.507 36.8382C334.098 33.7008 332.054 32.1828 328.172 32.1828C326.537 32.1828 324.8 32.4864 322.961 33.0936C321.122 33.7008 319.079 34.7129 316.729 35.9273L311.314 25.807C314.481 23.8841 317.751 22.366 321.02 21.354C324.289 20.342 327.763 19.8359 331.339 19.8359C337.265 19.8359 341.863 21.4552 345.234 24.7949C348.606 28.1346 350.241 33.4984 350.241 40.8863V65.9848H337.469L336.346 61.6331H335.937C334.098 63.2523 332.157 64.568 330.113 65.58C328.07 66.5921 325.822 67.0981 323.37 67.0981C321.224 67.0981 319.385 66.6933 317.648 65.9848C315.911 65.2764 314.481 64.2644 313.357 62.9487C312.131 61.7343 311.314 60.2162 310.701 58.4958C310.088 56.8765 309.781 55.0548 309.781 53.2332ZM324.698 52.0187C324.698 54.144 326.129 55.2572 328.887 55.2572C330.113 55.2572 331.237 54.9536 332.054 54.4476C332.872 53.8404 333.689 53.132 334.609 52.2211V46.0477C330.828 46.5537 328.274 47.3633 326.844 48.4766C325.413 49.4886 324.698 50.7031 324.698 52.0187ZM361.888 51.2091C365.975 54.2452 369.755 55.7633 373.025 55.7633C374.66 55.7633 375.783 55.5609 376.499 55.0548C377.214 54.65 377.52 53.9416 377.52 53.0308C377.52 52.4235 377.316 51.9175 376.805 51.4115C376.294 51.0067 375.681 50.5007 374.864 50.1971C374.047 49.7922 373.127 49.3874 372.105 49.0838C371.084 48.679 369.96 48.2742 368.836 47.8694C367.508 47.3633 366.179 46.6549 364.749 45.9465C363.421 45.2381 362.195 44.3272 361.071 43.214C359.947 42.1008 359.13 40.8863 358.414 39.4695C357.699 38.0526 357.393 36.4333 357.393 34.5105C357.393 32.284 357.801 30.2599 358.721 28.4383C359.64 26.6166 360.867 25.0985 362.399 23.8841C363.932 22.6696 365.873 21.6576 368.121 20.9492C370.368 20.2407 372.82 19.9371 375.477 19.9371C379.257 19.9371 382.424 20.5444 385.183 21.7588C387.84 22.9732 390.189 24.3901 392.233 25.9082L385.285 35.1177C383.651 33.9033 382.016 32.9924 380.483 32.284C378.951 31.5756 377.418 31.272 375.988 31.272C373.331 31.272 372.003 32.0816 372.003 33.8021C372.003 34.4093 372.207 34.9153 372.718 35.3201C373.127 35.7249 373.842 36.1297 374.557 36.5345C375.375 36.9394 376.294 37.243 377.316 37.5466C378.338 37.8502 379.462 38.255 380.585 38.6598C381.914 39.1658 383.242 39.7731 384.672 40.4815C386.103 41.1899 387.329 42.1008 388.453 43.1128C389.576 44.1248 390.496 45.4405 391.211 46.8573C391.926 48.2742 392.233 50.0959 392.233 52.1199C392.233 54.2452 391.824 56.1681 391.007 57.9897C390.189 59.8114 388.963 61.4307 387.227 62.7463C385.592 64.062 383.548 65.1752 381.096 65.8836C378.644 66.5921 375.886 66.9969 372.718 66.9969C369.755 66.9969 366.69 66.3897 363.523 65.2764C360.253 64.1632 357.495 62.6451 355.145 60.7222L361.888 51.2091ZM399.896 32.9924H393.868V21.4552L400.815 20.9492L402.654 9.20954H415.63V20.9492H426.051V32.9924H415.63V48.3754C415.63 50.9055 416.141 52.6259 417.265 53.5368C418.389 54.4476 419.615 54.9536 421.045 54.9536C421.76 54.9536 422.475 54.8524 423.191 54.7512C423.906 54.65 424.519 54.4476 425.03 54.2452L427.38 65.3776C426.154 65.7824 424.723 66.086 422.986 66.4909C421.249 66.8957 419.206 66.9969 416.652 66.9969C413.689 66.9969 411.134 66.5921 409.091 65.6812C407.048 64.7704 405.311 63.556 403.88 61.9367C402.552 60.3174 401.53 58.3946 400.917 56.1681C400.304 53.9416 399.998 51.4115 399.998 48.679L399.896 32.9924ZM440.151 15.383C437.597 15.383 435.553 14.6745 433.918 13.2577C432.284 11.8408 431.466 9.91797 431.466 7.69148C431.466 5.3638 432.284 3.54213 433.918 2.12528C435.553 0.708426 437.699 0 440.151 0C442.705 0 444.749 0.708426 446.383 2.12528C448.018 3.54213 448.835 5.465 448.835 7.69148C448.835 10.0192 448.018 11.8408 446.383 13.2577C444.749 14.6745 442.705 15.383 440.151 15.383ZM432.386 20.9492H448.018V65.9848H432.386V20.9492ZM484.289 15.1806C483.573 14.8769 482.756 14.6745 482.041 14.4721C481.223 14.3709 480.508 14.2697 479.793 14.2697C478.363 14.2697 477.137 14.6745 476.319 15.4842C475.502 16.2938 475.093 17.7107 475.093 19.8359V20.9492H482.756V32.9924H475.093V65.9848H459.461V32.9924H453.433V21.4552L459.461 21.0504V20.4432C459.461 18.0143 459.768 15.7878 460.381 13.5613C460.994 11.3348 462.015 9.41195 463.446 7.79269C464.876 6.07222 466.715 4.75658 468.963 3.74454C471.211 2.7325 474.072 2.22648 477.443 2.22648C479.589 2.22648 481.428 2.42889 483.063 2.7325C484.697 3.13732 486.025 3.44093 487.047 3.84574L484.289 15.1806ZM490.01 70.3366C490.419 70.4378 490.93 70.539 491.441 70.7414C491.951 70.8426 492.462 70.9438 492.973 70.9438C495.119 70.9438 496.651 70.539 497.775 69.7294C498.797 68.9197 499.614 67.8065 500.125 66.3896L500.636 64.3656L483.369 20.9492H499.001L504.416 38.255C505.131 40.3803 505.642 42.4044 506.153 44.5296C506.664 46.5537 507.175 48.7802 507.686 51.1079H508.094C508.605 48.9826 509.014 46.8573 509.525 44.7321C509.933 42.6068 510.444 40.4815 511.057 38.3562L515.655 21.0504H530.572L515.246 65.3776C514.02 68.4137 512.794 71.045 511.568 73.2715C510.342 75.498 508.912 77.3197 507.277 78.7365C505.642 80.1534 503.803 81.2666 501.658 81.975C499.614 82.6835 497.162 82.9871 494.301 82.9871C492.769 82.9871 491.441 82.8859 490.419 82.7847C489.397 82.6835 488.375 82.3798 487.354 82.0762L490.01 70.3366Z" fill="#2C2C2C"/>
<path d="M654.402 73.9801H574.301C554.275 73.9801 538.132 57.9899 538.132 38.154C538.132 18.3181 554.275 2.32788 574.301 2.32788H654.402C674.428 2.32788 690.571 18.3181 690.571 38.154C690.571 57.8887 674.428 73.9801 654.402 73.9801Z" fill="url(#paint0_linear_198_38701)"/>
<path d="M564.901 25.5032H574.096C579.409 25.5032 583.803 26.8188 583.803 31.7778C583.803 34.0043 582.577 36.4332 580.533 37.2428V37.4452C582.985 38.1536 584.926 39.9753 584.926 43.4162C584.926 48.6788 580.329 50.9053 574.812 50.9053H564.799V25.5032H564.901ZM573.994 35.3199C576.242 35.3199 577.264 34.3079 577.264 32.7898C577.264 31.2718 576.242 30.5634 573.994 30.5634H571.746V35.3199H573.994ZM574.403 45.6427C577.059 45.6427 578.388 44.7319 578.388 42.809C578.388 40.8861 577.162 40.2789 574.403 40.2789H571.644V45.6427H574.403Z" fill="white"/>
<path d="M592.896 25.5032H609.447V31.1706H599.741V35.1175H608.119V40.7849H599.741V45.3391H609.856V51.0065H592.896V25.5032Z" fill="white"/>
<path d="M623.649 31.0698H616.906V25.4023H637.238V31.0698H630.393V50.8045H623.649V31.0698Z" fill="white"/>
<path d="M647.966 25.5032H656.139L663.904 50.9053H656.752L653.79 38.4573C653.177 36.0284 652.563 32.9923 651.848 30.4622H651.644C651.133 32.9923 650.418 36.1296 649.805 38.4573L646.842 50.8041H639.894L647.966 25.5032ZM645.718 40.2789H658.285V45.4403H645.718V40.2789Z" fill="white"/>
<defs>
<linearGradient id="paint0_linear_198_38701" x1="501.112" y1="-25.9196" x2="681.776" y2="65.4654" gradientUnits="userSpaceOnUse">
<stop stop-color="#00FFFF"/>
<stop offset="1" stop-color="#7B61FF"/>
</linearGradient>
</defs>
</svg>
