<svg width="150" height="32" viewBox="0 0 150 32" fill="none" xmlns="http://www.w3.org/2000/svg">
<path d="M19.5819 29.3686C19.6052 29.4551 19.6945 29.5066 19.7811 29.4824C20.8542 29.1824 21.8876 28.7556 22.8592 28.2113C22.9376 28.1674 22.9643 28.068 22.9193 27.9904L20.702 24.1616C20.6571 24.084 20.5576 24.0575 20.4789 24.101C19.8679 24.4385 19.2204 24.7059 18.5489 24.898C18.4625 24.9227 18.4109 25.0116 18.4342 25.0981L19.5819 29.3686Z" fill="white"/>
<path d="M25.7852 25.798C25.8488 25.8614 25.9519 25.8615 26.0147 25.7973C26.7936 25.0026 27.4745 24.1179 28.043 23.1621C28.0889 23.085 28.0621 22.9857 27.9842 22.9409L24.1438 20.7303C24.0659 20.6855 23.9665 20.7122 23.9202 20.789C23.5603 21.3859 23.1336 21.9403 22.6484 22.4413C22.586 22.5058 22.5859 22.6085 22.6495 22.6719L25.7852 25.798Z" fill="white"/>
<path d="M29.3666 19.6136C29.4535 19.6369 29.5428 19.5855 29.5651 19.4986C29.841 18.4221 29.987 17.3165 30 16.2054C30.001 16.1158 29.9281 16.0431 29.8381 16.0431H25.4036C25.3137 16.0431 25.2409 16.1158 25.2393 16.2054C25.227 16.9017 25.1356 17.5945 24.9667 18.2703C24.9449 18.3572 24.9963 18.4462 25.0832 18.4694L29.3666 19.6136Z" fill="white"/>
<path d="M29.3666 12.4726C29.4535 12.4494 29.5051 12.3603 29.4808 12.274C29.1799 11.2041 28.7518 10.1739 28.2058 9.20522C28.1618 9.12708 28.0621 9.10053 27.9842 9.14534L24.1438 11.3559C24.0659 11.4007 24.0394 11.4999 24.083 11.5783C24.4215 12.1875 24.6897 12.833 24.8824 13.5024C24.9072 13.5886 24.9963 13.64 25.0832 13.6168L29.3666 12.4726Z" fill="white"/>
<path d="M14.7795 8.87703C14.7795 9.00197 14.9152 9.08005 15.0237 9.01758L22.5937 4.66034C22.7022 4.59787 22.7022 4.4417 22.5937 4.37923L15.0237 0.0219863C14.9152 -0.0404831 14.7795 0.0376034 14.7795 0.162542V1.98974C14.7795 2.07389 14.715 2.14398 14.631 2.15221C13.2621 2.28635 11.9181 2.6211 10.6427 3.14775C8.94411 3.8492 7.40071 4.87733 6.10064 6.17343C4.80058 7.46953 3.76931 9.00823 3.06572 10.7017C2.36213 12.3951 2 14.2101 2 16.0431C2 17.8761 2.36213 19.6911 3.06572 21.3845C3.76931 23.078 4.80058 24.6167 6.10064 25.9128C7.40071 27.2089 8.94411 28.237 10.6427 28.9385C12.2912 29.6192 14.0545 29.9793 15.8377 30C15.9276 30.001 16.0005 29.9283 16.0005 29.8386V25.4176C16.0005 25.3279 15.9276 25.2554 15.8377 25.2538C14.6797 25.2335 13.5353 24.9963 12.4644 24.554C11.3433 24.0911 10.3246 23.4125 9.46658 22.5571C8.60854 21.7017 7.92791 20.6861 7.46354 19.5684C6.99917 18.4508 6.76016 17.2529 6.76016 16.0431C6.76016 14.8333 6.99917 13.6354 7.46354 12.5178C7.9279 11.4001 8.60854 10.3845 9.46658 9.52912C10.3246 8.67369 11.3433 7.99513 12.4644 7.53217C13.1499 7.24909 13.8654 7.05002 14.5954 6.93806C14.6928 6.92313 14.7795 6.99893 14.7795 7.09708V8.87703Z" fill="white"/>
<path d="M41.568 14C41.472 14 41.3973 13.9733 41.344 13.92C41.2907 13.856 41.264 13.776 41.264 13.68V2.4C41.264 2.304 41.28 2.23467 41.312 2.192C41.3547 2.14933 41.424 2.128 41.52 2.128H44.224C44.3307 2.128 44.4053 2.144 44.448 2.176C44.5013 2.208 44.5387 2.26667 44.56 2.352L47.376 9.904C47.408 9.98933 47.4453 10.032 47.488 10.032C47.5307 10.032 47.568 9.984 47.6 9.888L50.336 2.432C50.3893 2.22933 50.496 2.128 50.656 2.128H53.456C53.6053 2.128 53.68 2.21333 53.68 2.384V13.664C53.68 13.7813 53.6533 13.8667 53.6 13.92C53.5467 13.9733 53.456 14 53.328 14H51.616C51.5093 14 51.4293 13.9787 51.376 13.936C51.3333 13.8933 51.312 13.8187 51.312 13.712V5.344C51.312 5.28 51.296 5.248 51.264 5.248C51.2533 5.248 51.2267 5.28533 51.184 5.36L48.144 13.76C48.1013 13.92 47.9947 14 47.824 14H46.688C46.5173 14 46.4 13.92 46.336 13.76L43.328 5.456C43.3173 5.38133 43.2907 5.344 43.248 5.344C43.216 5.344 43.2 5.38667 43.2 5.472V13.744C43.2 13.84 43.1787 13.9093 43.136 13.952C43.104 13.984 43.0347 14 42.928 14H41.568ZM55.7375 14C55.5988 14 55.5295 13.9253 55.5295 13.776C55.5295 13.744 55.5402 13.6853 55.5615 13.6L59.5935 2.416C59.6362 2.30933 59.6842 2.23467 59.7375 2.192C59.7908 2.14933 59.8708 2.128 59.9775 2.128H61.9775C62.2122 2.128 62.3615 2.23467 62.4255 2.448L66.4255 13.616C66.4468 13.68 66.4575 13.728 66.4575 13.76C66.4575 13.824 66.4362 13.8827 66.3935 13.936C66.3615 13.9787 66.3135 14 66.2495 14H64.3135C64.1642 14 64.0682 13.9307 64.0255 13.792L63.0975 11.2C63.0762 11.1467 63.0548 11.1093 63.0335 11.088C63.0122 11.056 62.9695 11.04 62.9055 11.04H58.7295C58.6335 11.04 58.5695 11.088 58.5375 11.184L57.5775 13.808C57.5455 13.936 57.4495 14 57.2895 14H55.7375ZM62.3295 9.232C62.4255 9.232 62.4735 9.18933 62.4735 9.104C62.4735 9.05067 62.4682 9.008 62.4575 8.976L60.9215 4.704C60.8895 4.62933 60.8522 4.592 60.8095 4.592C60.7668 4.592 60.7295 4.63467 60.6975 4.72L59.1455 8.976C59.1242 9.04 59.1135 9.088 59.1135 9.12C59.1135 9.19467 59.1668 9.232 59.2735 9.232H62.3295ZM77.7513 13.472C77.8473 13.632 77.8953 13.7493 77.8953 13.824C77.8953 13.9413 77.7939 14 77.5913 14H75.7193C75.5166 14 75.3779 13.9307 75.3033 13.792L72.7753 9.84C72.6899 9.712 72.6259 9.648 72.5833 9.648C72.5193 9.648 72.4499 9.71733 72.3753 9.856L69.8793 13.792C69.8153 13.9307 69.6659 14 69.4313 14H67.9113C67.7086 14 67.6073 13.9467 67.6073 13.84C67.6073 13.744 67.6606 13.6213 67.7673 13.472L71.2393 8.208C71.3033 8.112 71.3353 8.03733 71.3353 7.984C71.3353 7.92 71.2979 7.83467 71.2233 7.728L67.7833 2.496C67.7513 2.44267 67.7353 2.384 67.7353 2.32C67.7353 2.26667 67.7513 2.224 67.7833 2.192C67.8259 2.14933 67.8793 2.128 67.9433 2.128H69.9273C70.0446 2.128 70.1299 2.144 70.1833 2.176C70.2473 2.208 70.3006 2.26667 70.3433 2.352L72.6153 5.952C72.6579 6.02667 72.7059 6.064 72.7593 6.064C72.8233 6.064 72.8819 6.02133 72.9353 5.936L75.2073 2.352C75.2499 2.26667 75.2979 2.208 75.3513 2.176C75.4153 2.144 75.5006 2.128 75.6073 2.128H77.2873C77.4259 2.128 77.4953 2.176 77.4953 2.272C77.4953 2.32533 77.4686 2.38933 77.4153 2.464L74.0873 7.504C74.0339 7.58933 74.0073 7.65867 74.0073 7.712C74.0073 7.75467 74.0339 7.82933 74.0873 7.936L77.7513 13.472ZM81.8768 2.128C82.0261 2.128 82.1008 2.21333 82.1008 2.384V13.648C82.1008 13.776 82.0688 13.8667 82.0048 13.92C81.9514 13.9733 81.8554 14 81.7168 14H80.0528C79.9248 14 79.8394 13.9787 79.7968 13.936C79.7541 13.8933 79.7328 13.8187 79.7328 13.712V2.4C79.7328 2.21867 79.8128 2.128 79.9728 2.128H81.8768ZM50.496 29.616C50.5173 29.648 50.528 29.696 50.528 29.76C50.528 29.824 50.5067 29.8827 50.464 29.936C50.4213 29.9787 50.3627 30 50.288 30H48.336C48.2507 30 48.1813 29.984 48.128 29.952C48.0853 29.9093 48.048 29.84 48.016 29.744L46.176 25.072C46.144 24.9973 46.096 24.944 46.032 24.912C45.968 24.88 45.872 24.864 45.744 24.864H43.824C43.696 24.864 43.632 24.9227 43.632 25.04V29.664C43.632 29.7813 43.6 29.8667 43.536 29.92C43.4827 29.9733 43.392 30 43.264 30H41.568C41.4507 30 41.3707 29.9787 41.328 29.936C41.2853 29.8827 41.264 29.808 41.264 29.712V18.4C41.264 18.2187 41.344 18.128 41.504 18.128H46.32C47.696 18.128 48.7627 18.4053 49.52 18.96C50.2773 19.5147 50.656 20.304 50.656 21.328C50.656 22.128 50.4427 22.7947 50.016 23.328C49.5893 23.8613 49.056 24.24 48.416 24.464C48.3307 24.496 48.3093 24.5653 48.352 24.672L50.496 29.616ZM45.984 23.232C47.4667 23.232 48.208 22.656 48.208 21.504C48.208 20.928 48.0267 20.4907 47.664 20.192C47.312 19.8933 46.816 19.744 46.176 19.744H43.92C43.8133 19.744 43.7387 19.76 43.696 19.792C43.6533 19.824 43.632 19.8827 43.632 19.968V22.992C43.632 23.0773 43.648 23.1413 43.68 23.184C43.712 23.216 43.7653 23.232 43.84 23.232H45.984ZM52.6703 18.4C52.6703 18.2187 52.7503 18.128 52.9103 18.128H60.6703C60.8089 18.128 60.8783 18.208 60.8783 18.368V19.584C60.8783 19.7867 60.7823 19.888 60.5903 19.888H55.3103C55.1289 19.888 55.0383 19.9627 55.0383 20.112V22.912C55.0383 23.072 55.1129 23.152 55.2623 23.152H58.9103C59.0703 23.152 59.1503 23.232 59.1503 23.392V24.688C59.1503 24.816 59.0756 24.88 58.9263 24.88H55.2463C55.1076 24.88 55.0383 24.944 55.0383 25.072V28.048C55.0383 28.1227 55.0489 28.176 55.0703 28.208C55.1023 28.2293 55.1503 28.24 55.2143 28.24H60.8142C60.9103 28.24 60.9743 28.256 61.0063 28.288C61.0489 28.32 61.0703 28.3787 61.0703 28.464V29.76C61.0703 29.824 61.0489 29.8827 61.0063 29.936C60.9636 29.9787 60.8943 30 60.7983 30H52.9743C52.8676 30 52.7876 29.9787 52.7343 29.936C52.6916 29.8933 52.6703 29.8187 52.6703 29.712V18.4ZM62.9828 18.4C62.9828 18.2187 63.0628 18.128 63.2228 18.128H70.8548C70.9934 18.128 71.0628 18.208 71.0628 18.368L71.0468 19.584C71.0468 19.7867 70.9561 19.888 70.7748 19.888H65.6228C65.4414 19.888 65.3508 19.9627 65.3508 20.112V23.088C65.3508 23.248 65.4254 23.328 65.5748 23.328H69.3188C69.4681 23.328 69.5428 23.4027 69.5428 23.552V24.832C69.5428 24.896 69.5268 24.944 69.4948 24.976C69.4628 25.008 69.4041 25.024 69.3188 25.024H65.5588C65.4201 25.024 65.3508 25.0933 65.3508 25.232V29.696C65.3508 29.8027 65.3188 29.8827 65.2548 29.936C65.2014 29.9787 65.1161 30 64.9988 30H63.2868C63.1694 30 63.0894 29.9787 63.0468 29.936C63.0041 29.8933 62.9828 29.8187 62.9828 29.712V18.4ZM82.1523 29.616C82.1736 29.648 82.1843 29.696 82.1843 29.76C82.1843 29.824 82.1629 29.8827 82.1203 29.936C82.0776 29.9787 82.0189 30 81.9443 30H79.9923C79.9069 30 79.8376 29.984 79.7843 29.952C79.7416 29.9093 79.7043 29.84 79.6723 29.744L77.8323 25.072C77.8003 24.9973 77.7523 24.944 77.6883 24.912C77.6243 24.88 77.5283 24.864 77.4003 24.864H75.4803C75.3523 24.864 75.2883 24.9227 75.2883 25.04V29.664C75.2883 29.7813 75.2563 29.8667 75.1923 29.92C75.1389 29.9733 75.0483 30 74.9203 30H73.2243C73.1069 30 73.0269 29.9787 72.9843 29.936C72.9416 29.8827 72.9203 29.808 72.9203 29.712V18.4C72.9203 18.2187 73.0003 18.128 73.1603 18.128H77.9763C79.3523 18.128 80.4189 18.4053 81.1763 18.96C81.9336 19.5147 82.3123 20.304 82.3123 21.328C82.3123 22.128 82.0989 22.7947 81.6723 23.328C81.2456 23.8613 80.7123 24.24 80.0723 24.464C79.9869 24.496 79.9656 24.5653 80.0083 24.672L82.1523 29.616ZM77.6403 23.232C79.1229 23.232 79.8643 22.656 79.8643 21.504C79.8643 20.928 79.6829 20.4907 79.3203 20.192C78.9683 19.8933 78.4723 19.744 77.8323 19.744H75.5763C75.4696 19.744 75.3949 19.76 75.3523 19.792C75.3096 19.824 75.2883 19.8827 75.2883 19.968V22.992C75.2883 23.0773 75.3043 23.1413 75.3363 23.184C75.3683 23.216 75.4216 23.232 75.4963 23.232H77.6403ZM84.3265 18.4C84.3265 18.2187 84.4065 18.128 84.5665 18.128H92.3265C92.4652 18.128 92.5345 18.208 92.5345 18.368V19.584C92.5345 19.7867 92.4385 19.888 92.2465 19.888H86.9665C86.7852 19.888 86.6945 19.9627 86.6945 20.112V22.912C86.6945 23.072 86.7692 23.152 86.9185 23.152H90.5665C90.7265 23.152 90.8065 23.232 90.8065 23.392V24.688C90.8065 24.816 90.7318 24.88 90.5825 24.88H86.9025C86.7638 24.88 86.6945 24.944 86.6945 25.072V28.048C86.6945 28.1227 86.7052 28.176 86.7265 28.208C86.7585 28.2293 86.8065 28.24 86.8705 28.24H92.4705C92.5665 28.24 92.6305 28.256 92.6625 28.288C92.7052 28.32 92.7265 28.3787 92.7265 28.464V29.76C92.7265 29.824 92.7052 29.8827 92.6625 29.936C92.6198 29.9787 92.5505 30 92.4545 30H84.6305C84.5238 30 84.4438 29.9787 84.3905 29.936C84.3478 29.8933 84.3265 29.8187 84.3265 29.712V18.4ZM101.327 20.72C101.039 20.3893 100.703 20.1333 100.319 19.952C99.935 19.76 99.4443 19.664 98.847 19.664C98.143 19.664 97.599 19.8027 97.215 20.08C96.8417 20.3467 96.655 20.7147 96.655 21.184C96.655 21.8347 97.1297 22.3093 98.079 22.608L100.543 23.344C102.388 23.8987 103.311 24.992 103.311 26.624C103.311 27.3387 103.124 27.9627 102.751 28.496C102.378 29.0293 101.844 29.44 101.151 29.728C100.468 30.016 99.6577 30.16 98.719 30.16C97.6737 30.16 96.7403 29.984 95.919 29.632C95.0977 29.2693 94.4737 28.7627 94.047 28.112C94.0043 28.0053 93.983 27.9413 93.983 27.92C93.983 27.8347 94.0363 27.7547 94.143 27.68L95.151 26.976C95.2683 26.912 95.359 26.88 95.423 26.88C95.5083 26.88 95.5777 26.9173 95.631 26.992C96.047 27.536 96.463 27.92 96.879 28.144C97.3057 28.368 97.871 28.48 98.575 28.48C99.343 28.48 99.9457 28.352 100.383 28.096C100.82 27.84 101.039 27.4507 101.039 26.928C101.039 26.5867 100.927 26.2987 100.703 26.064C100.49 25.8293 100.106 25.6213 99.551 25.44L97.135 24.704C96.2497 24.4373 95.5723 24.016 95.103 23.44C94.6337 22.8533 94.399 22.1973 94.399 21.472C94.399 20.7893 94.5803 20.1867 94.943 19.664C95.3057 19.1307 95.8177 18.7147 96.479 18.416C97.151 18.1173 97.9243 17.968 98.799 17.968C99.6417 17.968 100.415 18.1173 101.119 18.416C101.834 18.704 102.399 19.104 102.815 19.616C102.879 19.7013 102.911 19.7707 102.911 19.824C102.911 19.8773 102.879 19.9307 102.815 19.984L101.679 20.832C101.636 20.864 101.594 20.88 101.551 20.88C101.498 20.88 101.423 20.8267 101.327 20.72ZM107.84 24.768C107.712 24.768 107.648 24.8267 107.648 24.944V29.68C107.648 29.8933 107.525 30 107.28 30H105.584C105.466 30 105.386 29.9787 105.344 29.936C105.301 29.8827 105.28 29.808 105.28 29.712V18.4C105.28 18.2187 105.36 18.128 105.52 18.128H107.424C107.573 18.128 107.648 18.2133 107.648 18.384V22.688C107.648 22.8587 107.722 22.944 107.872 22.944H112.096C112.245 22.944 112.32 22.864 112.32 22.704V18.384C112.32 18.2133 112.394 18.128 112.544 18.128H114.448C114.608 18.128 114.688 18.2187 114.688 18.4V29.712C114.688 29.904 114.586 30 114.384 30H112.688C112.56 30 112.464 29.9787 112.4 29.936C112.346 29.8827 112.32 29.7973 112.32 29.68V24.944C112.32 24.8267 112.256 24.768 112.128 24.768H107.84ZM117.217 18.4C117.217 18.2187 117.297 18.128 117.457 18.128H125.217C125.356 18.128 125.425 18.208 125.425 18.368V19.584C125.425 19.7867 125.329 19.888 125.137 19.888H119.857C119.676 19.888 119.585 19.9627 119.585 20.112V22.912C119.585 23.072 119.66 23.152 119.809 23.152H123.457C123.617 23.152 123.697 23.232 123.697 23.392V24.688C123.697 24.816 123.622 24.88 123.473 24.88H119.793C119.654 24.88 119.585 24.944 119.585 25.072V28.048C119.585 28.1227 119.596 28.176 119.617 28.208C119.649 28.2293 119.697 28.24 119.761 28.24H125.361C125.457 28.24 125.521 28.256 125.553 28.288C125.596 28.32 125.617 28.3787 125.617 28.464V29.76C125.617 29.824 125.596 29.8827 125.553 29.936C125.51 29.9787 125.441 30 125.345 30H117.521C117.414 30 117.334 29.9787 117.281 29.936C117.238 29.8933 117.217 29.8187 117.217 29.712V18.4ZM136.762 29.616C136.783 29.648 136.794 29.696 136.794 29.76C136.794 29.824 136.772 29.8827 136.73 29.936C136.687 29.9787 136.628 30 136.554 30H134.602C134.516 30 134.447 29.984 134.394 29.952C134.351 29.9093 134.314 29.84 134.282 29.744L132.442 25.072C132.41 24.9973 132.362 24.944 132.298 24.912C132.234 24.88 132.138 24.864 132.01 24.864H130.09C129.962 24.864 129.898 24.9227 129.898 25.04V29.664C129.898 29.7813 129.866 29.8667 129.802 29.92C129.748 29.9733 129.658 30 129.53 30H127.834C127.716 30 127.636 29.9787 127.594 29.936C127.551 29.8827 127.53 29.808 127.53 29.712V18.4C127.53 18.2187 127.61 18.128 127.77 18.128H132.586C133.962 18.128 135.028 18.4053 135.786 18.96C136.543 19.5147 136.922 20.304 136.922 21.328C136.922 22.128 136.708 22.7947 136.282 23.328C135.855 23.8613 135.322 24.24 134.682 24.464C134.596 24.496 134.575 24.5653 134.618 24.672L136.762 29.616ZM132.25 23.232C133.732 23.232 134.474 22.656 134.474 21.504C134.474 20.928 134.292 20.4907 133.93 20.192C133.578 19.8933 133.082 19.744 132.442 19.744H130.186C130.079 19.744 130.004 19.76 129.962 19.792C129.919 19.824 129.898 19.8827 129.898 19.968V22.992C129.898 23.0773 129.914 23.1413 129.946 23.184C129.978 23.216 130.031 23.232 130.106 23.232H132.25Z" fill="white"/>
</svg>
