<svg width="72" height="72" viewBox="0 0 72 72" fill="none" xmlns="http://www.w3.org/2000/svg">
<g filter="url(#filter0_i)">
<path d="M29.8179 23.4389C29.574 22.9434 28.9726 22.7365 28.4944 23.0128C25.8637 24.5331 23.7492 26.8215 22.4424 29.5819C20.9926 32.6444 20.6224 36.1076 21.3921 39.4074C22.1618 42.7072 24.0261 45.6491 26.6812 47.7542C29.3364 49.8592 32.626 51.0032 36.0144 51C39.4027 50.9967 42.6902 49.8464 45.3413 47.7363C47.9924 45.6262 49.851 42.6806 50.6144 39.3794C51.3777 36.0781 51.0009 32.6157 49.5452 29.5559C48.2332 26.798 46.1143 24.5137 43.4807 22.9985C43.002 22.723 42.401 22.9311 42.158 23.4271L41.5675 24.6328C41.3245 25.1288 41.5324 25.7242 42.0058 26.0087C43.9635 27.1855 45.5392 28.916 46.5268 30.9919C47.6581 33.3698 47.9509 36.0607 47.3577 38.6263C46.7644 41.1919 45.32 43.4811 43.2597 45.1209C41.1993 46.7608 38.6445 47.6548 36.0112 47.6574C33.3779 47.6599 30.8213 46.7708 28.7578 45.1349C26.6944 43.4989 25.2456 41.2125 24.6474 38.6481C24.0492 36.0836 24.3369 33.3922 25.4636 31.0121C26.4472 28.9344 28.0196 27.2007 29.9751 26.0203C30.4479 25.7348 30.6546 25.1391 30.4107 24.6435L29.8179 23.4389Z" fill="white"/>
<rect x="34.3334" y="20" width="3.33333" height="16.6667" rx="1" fill="white"/>
</g>
<defs>
<filter id="filter0_i" x="21" y="20" width="30" height="32" filterUnits="userSpaceOnUse" color-interpolation-filters="sRGB">
<feFlood flood-opacity="0" result="BackgroundImageFix"/>
<feBlend mode="normal" in="SourceGraphic" in2="BackgroundImageFix" result="shape"/>
<feColorMatrix in="SourceAlpha" type="matrix" values="0 0 0 0 0 0 0 0 0 0 0 0 0 0 0 0 0 0 127 0" result="hardAlpha"/>
<feOffset dy="1"/>
<feGaussianBlur stdDeviation="1"/>
<feComposite in2="hardAlpha" operator="arithmetic" k2="-1" k3="1"/>
<feColorMatrix type="matrix" values="0 0 0 0 0.0224931 0 0 0 0 0.126762 0 0 0 0 0.329167 0 0 0 0.15 0"/>
<feBlend mode="normal" in2="shape" result="effect1_innerShadow"/>
</filter>
</defs>
</svg>
