<svg width="73" height="82" viewBox="0 0 73 82" fill="none" xmlns="http://www.w3.org/2000/svg">
<g filter="url(#filter0_dd)">
<path d="M16.625 27.875C16.625 38.8125 21.9375 53.3438 36 56C50.0625 53.3438 55.375 38.8125 55.375 27.875C51.9375 19.75 43.1875 16 36 16C28.8125 16 20.0625 19.75 16.625 27.875Z" fill="url(#paint0_linear)"/>
<path d="M16.1645 27.6802L16.125 27.7736V27.875C16.125 33.4151 17.4687 39.8721 20.6063 45.2934C23.7498 50.725 28.7055 55.131 35.9072 56.4913L36 56.5088L36.0928 56.4913C43.2945 55.131 48.2502 50.725 51.3937 45.2934C54.5313 39.8721 55.875 33.4151 55.875 27.875V27.7736L55.8355 27.6802C52.2968 19.3161 43.3222 15.5 36 15.5C28.6778 15.5 19.7032 19.3161 16.1645 27.6802Z" stroke="url(#paint1_linear)"/>
</g>
<mask id="mask0" style="mask-type:alpha" maskUnits="userSpaceOnUse" x="16" y="16" width="40" height="40">
<path d="M16.625 27.875C16.625 38.8125 21.9375 53.3438 36 56C50.0625 53.3438 55.375 38.8125 55.375 27.875C51.9375 19.75 43.1875 16 36 16C28.8125 16 20.0625 19.75 16.625 27.875Z" fill="url(#paint2_linear)"/>
</mask>
<g mask="url(#mask0)">
<path d="M51 44.75C51 54.415 42.9551 62.25 33.0312 62.25C23.1074 62.25 15.0625 54.415 15.0625 44.75C15.0625 35.085 23.1074 27.25 33.0312 27.25C42.9551 27.25 51 35.085 51 44.75Z" fill="url(#paint3_linear)"/>
<path d="M23.5897 29.2482C24.2898 28.8659 23.4418 29.9264 23.178 30.1055C20.7709 31.7401 18.612 34.0649 17.1786 36.5922C17.0052 36.8979 16.8539 37.2102 16.714 37.5322C16.6845 37.6002 17.3905 35.5331 17.9833 34.6765C19.2813 32.8012 20.9583 31.0891 22.8173 29.7608C23.0666 29.5827 23.3203 29.3953 23.5897 29.2482Z" fill="#D1F9FF"/>
<path d="M25.6457 21.4866C29.0562 10.8665 40.1485 4.9315 50.4212 8.23039C60.6938 11.5293 66.2567 22.8129 62.8463 33.433C59.4358 44.0531 48.3434 49.9881 38.0708 46.6892C27.7981 43.3903 22.2352 32.1067 25.6457 21.4866Z" fill="url(#paint4_linear)"/>
<path d="M39.7893 47.3806C39.023 47.1589 40.3718 47.0032 40.6853 47.0618C43.5454 47.5965 46.7153 47.4663 49.5128 46.6816C49.8512 46.5866 50.1785 46.4714 50.5046 46.3413C50.5735 46.3139 49.5128 47.0937 47.5924 47.4749C45.3553 47.9188 42.9538 47.9268 40.6986 47.5606C40.3962 47.5115 40.0841 47.4659 39.7893 47.3806Z" fill="#D1F9FF"/>
</g>
<path d="M49.35 34.125C49.35 41.498 43.373 47.475 36 47.475C28.627 47.475 22.65 41.498 22.65 34.125C22.65 26.752 28.627 20.775 36 20.775C43.373 20.775 49.35 26.752 49.35 34.125Z" fill="url(#paint5_radial)" stroke="#D1F9FF" stroke-width="0.8"/>
<g filter="url(#filter1_di)">
<path d="M29.8326 31.457C29.1983 31.2008 28.6697 30.839 28.2468 30.3718C27.839 29.9045 27.5068 29.3543 27.25 28.7213C27.401 28.3143 27.6427 27.9751 27.9749 27.7038C28.3072 27.4174 28.6772 27.1762 29.085 26.9803C29.5079 26.7843 29.9534 26.6261 30.4216 26.5055C30.8898 26.3849 31.3429 26.2794 31.7809 26.189C31.8715 26.2191 31.9168 26.2191 31.9168 26.189C31.9168 26.1588 31.9546 26.1739 32.0301 26.2342C32.5738 26.0684 33.2006 25.9101 33.9104 25.7594C34.6203 25.5936 35.3754 25.5333 36.1759 25.5785C36.2816 25.5182 36.41 25.488 36.561 25.488C36.7121 25.473 36.8706 25.4654 37.0368 25.4654C37.2029 25.4654 37.3615 25.4654 37.5125 25.4654C37.6636 25.4504 37.7919 25.4202 37.8977 25.375C37.9883 25.4805 38.1242 25.5483 38.3054 25.5785C38.4867 25.5936 38.6755 25.6689 38.8718 25.8046C38.9322 25.8197 38.9322 25.797 38.8718 25.7368C38.8114 25.6614 38.8189 25.6086 38.8945 25.5785C39.0908 25.5785 39.2645 25.6237 39.4155 25.7141C39.5665 25.8046 39.7025 25.9101 39.8233 26.0307C39.9592 26.1362 40.08 26.2342 40.1858 26.3246C40.3066 26.4151 40.435 26.4603 40.5709 26.4603C40.7068 26.6261 40.8654 26.7843 41.0466 26.9351C41.243 27.0707 41.4242 27.2139 41.5904 27.3647C41.7716 27.5154 41.9151 27.6812 42.0208 27.8621C42.1416 28.043 42.202 28.2464 42.202 28.4725C42.1869 28.563 42.2171 28.6157 42.2926 28.6308C42.3682 28.6459 42.421 28.6911 42.4512 28.7665C42.4663 29.3242 42.3757 29.8065 42.1794 30.2135C41.9981 30.6205 41.764 30.9973 41.4771 31.344C41.1901 31.6756 40.8805 31.9921 40.5482 32.2936C40.2311 32.5951 39.9366 32.9191 39.6647 33.2658C39.8459 33.4919 40.0498 33.703 40.2764 33.8989C40.518 34.0798 40.7597 34.2607 41.0013 34.4415C41.243 34.6224 41.4695 34.8184 41.681 35.0294C41.9075 35.2253 42.0963 35.4514 42.2473 35.7077C42.2926 35.7981 42.3908 35.8584 42.5418 35.8886C42.5872 36.0694 42.6476 36.2579 42.7231 36.4538C42.8137 36.6347 42.8968 36.8156 42.9723 36.9964C43.0478 37.1623 43.0931 37.313 43.1082 37.4486C43.1233 37.5843 43.0856 37.6974 42.9949 37.7878C43.1007 37.8481 43.1611 37.9461 43.1762 38.0817C43.1913 38.2023 43.1913 38.3003 43.1762 38.3756C42.8439 38.7826 42.6174 39.069 42.4965 39.2348C42.3757 39.4006 42.2851 39.5212 42.2247 39.5966C42.1643 39.6719 42.1039 39.7398 42.0434 39.8001C41.983 39.8604 41.8471 39.9809 41.6357 40.1618C40.8352 40.6442 39.997 41.0813 39.121 41.4732C38.2601 41.85 37.3615 42.1063 36.4251 42.2419C36.3496 42.3474 36.2363 42.4303 36.0853 42.4906C35.9494 42.566 35.7908 42.6263 35.6095 42.6715C35.4283 42.7167 35.232 42.7544 35.0205 42.7846C34.8242 42.8147 34.6429 42.8449 34.4768 42.875C34.4013 42.8449 34.356 42.7921 34.3409 42.7167C34.3409 42.6564 34.3031 42.6112 34.2276 42.5811C34.2125 42.7619 34.1294 42.8524 33.9784 42.8524C33.8425 42.8675 33.6688 42.8373 33.4574 42.7619C33.2459 42.6866 33.0269 42.5811 32.8004 42.4454C32.5738 42.3098 32.3775 42.1816 32.2114 42.061C32.1358 42.1967 32.0377 42.3399 31.9168 42.4906C31.8111 42.6414 31.6979 42.7469 31.577 42.8072C31.3656 42.777 31.207 42.7544 31.1013 42.7393C31.0107 42.7243 30.92 42.7619 30.8294 42.8524C30.7086 42.7921 30.618 42.7243 30.5576 42.6489C30.4972 42.5886 30.4367 42.5208 30.3763 42.4454C30.3159 42.3851 30.248 42.3324 30.1724 42.2871C30.0969 42.2269 29.9837 42.1741 29.8326 42.1289C29.8628 42.0535 29.8402 41.9405 29.7647 41.7897C29.6891 41.6239 29.5834 41.5259 29.4475 41.4958C29.523 41.3752 29.4928 41.2245 29.3569 41.0436C29.2209 40.8477 29.1152 40.6291 29.0397 40.3879C29.0548 40.2824 29.0624 40.1769 29.0624 40.0714C29.0775 39.9508 29.0926 39.8453 29.1077 39.7548C29.1379 39.6493 29.1756 39.5589 29.2209 39.4835C29.2663 39.4082 29.3418 39.3554 29.4475 39.3253C29.4324 39.1293 29.372 38.9409 29.2663 38.76C29.4022 38.6545 29.4928 38.5264 29.5381 38.3756C29.5834 38.2098 29.6212 38.044 29.6514 37.8782C29.6967 37.7124 29.7496 37.5542 29.81 37.4034C29.8704 37.2376 29.9686 37.102 30.1045 36.9964C30.0743 36.9512 30.0441 36.9135 30.0139 36.8834C29.9837 36.8533 29.9686 36.8005 29.9686 36.7251C30.1951 36.3483 30.3537 36.0318 30.4443 35.7755C30.5349 35.5042 30.6029 35.248 30.6482 35.0068C30.7086 34.7505 30.769 34.4792 30.8294 34.1928C30.8898 33.9064 31.0107 33.5447 31.1919 33.1076C31.1768 32.8362 31.207 32.5951 31.2825 32.384C31.358 32.173 31.4335 31.9695 31.5091 31.7736C31.5997 31.5626 31.6676 31.344 31.713 31.1179C31.7583 30.8918 31.7507 30.628 31.6903 30.3266C31.4335 30.3567 31.2448 30.4471 31.1239 30.5979C31.0182 30.7486 30.9502 30.9521 30.92 31.2083C30.7841 31.3289 30.6104 31.3892 30.399 31.3892C30.1875 31.3741 29.9988 31.3967 29.8326 31.457ZM39.8006 35.8207C39.2267 35.5042 38.6981 35.3158 38.2148 35.2555C37.7466 35.1952 37.2935 35.2027 36.8555 35.2781C36.4327 35.3384 36.0249 35.4288 35.6322 35.5494C35.2395 35.67 34.8468 35.7604 34.4542 35.8207C34.2578 36.3332 34.0539 36.8985 33.8425 37.5165C33.631 38.1345 33.4271 38.7374 33.2308 39.3253C33.7745 39.2499 34.2729 39.1368 34.726 38.9861C35.1791 38.8354 35.6171 38.6696 36.04 38.4887C36.4629 38.2927 36.8782 38.1043 37.286 37.9234C37.6938 37.7275 38.1166 37.5466 38.5546 37.3808C38.5999 37.1999 38.6981 37.0567 38.8491 36.9512C39.0002 36.8457 39.1512 36.7477 39.3022 36.6573C39.4533 36.5518 39.5816 36.4387 39.6874 36.3182C39.7931 36.1976 39.8308 36.0318 39.8006 35.8207ZM38.2148 28.7439C37.2784 28.7137 36.3571 28.7966 35.451 28.9926C34.5448 29.1885 33.7821 29.4749 33.1628 29.8517C33.4649 30.108 33.7745 30.3341 34.0917 30.53C34.424 30.726 34.6732 30.9898 34.8393 31.3214C35.5642 31.035 36.1986 30.6732 36.7423 30.2361C37.286 29.7839 37.7768 29.2865 38.2148 28.7439Z" fill="white"/>
</g>
<defs>
<filter id="filter0_dd" x="-0.375" y="-9" width="72.75" height="90.0177" filterUnits="userSpaceOnUse" color-interpolation-filters="sRGB">
<feFlood flood-opacity="0" result="BackgroundImageFix"/>
<feColorMatrix in="SourceAlpha" type="matrix" values="0 0 0 0 0 0 0 0 0 0 0 0 0 0 0 0 0 0 127 0" result="hardAlpha"/>
<feOffset dy="8"/>
<feGaussianBlur stdDeviation="8"/>
<feComposite in2="hardAlpha" operator="out"/>
<feColorMatrix type="matrix" values="0 0 0 0 0.00928128 0 0 0 0 0.0496031 0 0 0 0 0.4125 0 0 0 0.75 0"/>
<feBlend mode="normal" in2="BackgroundImageFix" result="effect1_dropShadow"/>
<feColorMatrix in="SourceAlpha" type="matrix" values="0 0 0 0 0 0 0 0 0 0 0 0 0 0 0 0 0 0 127 0" result="hardAlpha"/>
<feOffset dy="-8"/>
<feGaussianBlur stdDeviation="8"/>
<feComposite in2="hardAlpha" operator="out"/>
<feColorMatrix type="matrix" values="0 0 0 0 0.249326 0 0 0 0 0.393139 0 0 0 0 0.929167 0 0 0 0.85 0"/>
<feBlend mode="normal" in2="effect1_dropShadow" result="effect2_dropShadow"/>
<feBlend mode="normal" in="SourceGraphic" in2="effect2_dropShadow" result="shape"/>
</filter>
<filter id="filter1_di" x="25.75" y="24.375" width="18.9375" height="21" filterUnits="userSpaceOnUse" color-interpolation-filters="sRGB">
<feFlood flood-opacity="0" result="BackgroundImageFix"/>
<feColorMatrix in="SourceAlpha" type="matrix" values="0 0 0 0 0 0 0 0 0 0 0 0 0 0 0 0 0 0 127 0" result="hardAlpha"/>
<feOffset dy="1"/>
<feGaussianBlur stdDeviation="0.75"/>
<feComposite in2="hardAlpha" operator="out"/>
<feColorMatrix type="matrix" values="0 0 0 0 0 0 0 0 0 0 0 0 0 0 0 0 0 0 0.15 0"/>
<feBlend mode="normal" in2="BackgroundImageFix" result="effect1_dropShadow"/>
<feBlend mode="normal" in="SourceGraphic" in2="effect1_dropShadow" result="shape"/>
<feColorMatrix in="SourceAlpha" type="matrix" values="0 0 0 0 0 0 0 0 0 0 0 0 0 0 0 0 0 0 127 0" result="hardAlpha"/>
<feOffset dy="-1"/>
<feGaussianBlur stdDeviation="1.5"/>
<feComposite in2="hardAlpha" operator="arithmetic" k2="-1" k3="1"/>
<feColorMatrix type="matrix" values="0 0 0 0 0.0627451 0 0 0 0 0.176471 0 0 0 0 0.643137 0 0 0 0.4 0"/>
<feBlend mode="normal" in2="shape" result="effect2_innerShadow"/>
</filter>
<linearGradient id="paint0_linear" x1="21.9375" y1="25.6875" x2="50.0625" y2="51.9375" gradientUnits="userSpaceOnUse">
<stop stop-color="#37EDFF"/>
<stop offset="1" stop-color="#062EB6"/>
</linearGradient>
<linearGradient id="paint1_linear" x1="36" y1="16" x2="36" y2="56" gradientUnits="userSpaceOnUse">
<stop stop-color="#37EDFF"/>
<stop offset="1" stop-color="#0B42BD"/>
</linearGradient>
<linearGradient id="paint2_linear" x1="18.2603" y1="16" x2="50.0625" y2="51.9375" gradientUnits="userSpaceOnUse">
<stop stop-color="#37EDFF"/>
<stop offset="1" stop-color="#00AF70"/>
</linearGradient>
<linearGradient id="paint3_linear" x1="20.1964" y1="31.4687" x2="46.5444" y2="53.2277" gradientUnits="userSpaceOnUse">
<stop stop-color="#0731B7"/>
<stop offset="1" stop-color="#37EDFF"/>
</linearGradient>
<linearGradient id="paint4_linear" x1="52.8453" y1="46.3201" x2="24.0491" y2="24.2586" gradientUnits="userSpaceOnUse">
<stop stop-color="#021EAF"/>
<stop offset="1" stop-color="#37EDFF"/>
</linearGradient>
<radialGradient id="paint5_radial" cx="0" cy="0" r="1" gradientUnits="userSpaceOnUse" gradientTransform="translate(36 34.125) rotate(52.7447) scale(13.9378)">
<stop offset="0.400091" stop-color="#091586"/>
<stop offset="1" stop-color="#1437B3"/>
</radialGradient>
</defs>
</svg>
