<svg xmlns="http://www.w3.org/2000/svg" width="14.823" height="18" viewBox="0 0 14.823 18"><defs><style>.a{fill:#fff;}</style></defs><path class="a" d="M19.824,19.412v1.059a.529.529,0,0,1-.529.529H5.529A.529.529,0,0,1,5,20.471V19.412a.529.529,0,0,1,.529-.529H19.294A.529.529,0,0,1,19.824,19.412Zm-7.782-2.806a.508.508,0,0,0,.741,0l6.131-6.131a.529.529,0,0,0,0-.752L18.7,9.512a.519.519,0,0,0-.381-.159H15.588V3.529A.529.529,0,0,0,15.059,3H9.765a.529.529,0,0,0-.529.529V9.353H6.5a.519.519,0,0,0-.381.159l-.212.212a.529.529,0,0,0,0,.752Z" transform="translate(-5 -3)"/></svg>