
<svg width="125" height="126" viewBox="0 0 125 126" fill="none" xmlns="http://www.w3.org/2000/svg">
<circle cx="62.5" cy="63" r="62.5" fill="url(#paint0_linear_20_97)"/>
<path d="M27.0232 71.6797L27.0232 54.9289C27.0232 53.2632 27.6848 51.6654 28.8627 50.4874C30.0406 49.3095 31.6385 48.6479 33.3042 48.6479L41.6796 48.6479L55.97 34.8598C56.6908 34.0492 57.8387 33.7703 58.8516 34.1595C59.8645 34.548 60.5305 35.5236 60.5239 36.6081L60.5239 90.0001C60.5305 91.0846 59.8645 92.0603 58.8516 92.4488C57.8387 92.838 56.6907 92.559 55.97 91.7484L41.6796 77.9604L33.3042 77.9604C31.6385 77.9604 30.0407 77.2987 28.8627 76.1208C27.6848 74.9429 27.0232 73.3454 27.0232 71.6797Z" fill="white"/>
<circle cx="81.103" cy="45.8911" r="11.9052" fill="white"/>
<circle cx="71.3486" cy="67.0035" r="4.10008" fill="white"/>
<circle cx="79.5539" cy="85.7017" r="6.92058" fill="white"/>
<circle cx="92.4645" cy="69.0237" r="6.12023" fill="white"/>
<defs>
<linearGradient id="paint0_linear_20_97" x1="62.5" y1="0.5" x2="62.5" y2="125.5" gradientUnits="userSpaceOnUse">
<stop stop-color="#EB008B"/>
<stop offset="1" stop-color="#00A4E3"/>
</linearGradient>
</defs>
</svg>
