<svg width="24" height="24" viewBox="0 0 24 24" fill="none" xmlns="http://www.w3.org/2000/svg">
  <g clip-path="url(#clip0)">
    <path fill-rule="evenodd" clip-rule="evenodd" d="M19.5477 5.98959C20.0465 4.43904 18.5818 2.97438 17.0313 3.47319L13.2223 4.69855C11.7982 5.15668 11.3627 6.95886 12.4205 8.01667L12.9948 8.59094L5.51804 16.0677C5.35282 16.0235 5.17916 16 5 16C3.89543 16 3 16.8954 3 18C3 19.1045 3.89543 20 5 20C6.10457 20 7 19.1045 7 18C7 17.8208 6.97644 17.6472 6.93226 17.4819L14.409 10.0052L15.0042 10.6003C16.062 11.6581 17.8642 11.2227 18.3223 9.79857L19.5477 5.98959ZM17.6438 5.3771L16.4184 9.18608L13.8348 6.60246L17.6438 5.3771Z" fill="#2C465C"/>
  </g>
  <defs>
    <clipPath id="clip0">
      <rect width="24" height="24" fill="white"/>
    </clipPath>
  </defs>
</svg>
