<svg width="24" height="24" viewBox="0 0 24 24" fill="none" xmlns="http://www.w3.org/2000/svg">
  <g clip-path="url(#clip0)">
    <path fill-rule="evenodd" clip-rule="evenodd" d="M19.5477 5.98962C20.0465 4.43907 18.5818 2.97441 17.0313 3.47322L13.2223 4.69858C11.7982 5.15671 11.3627 6.9589 12.4205 8.0167L12.9948 8.59097L5.51804 16.0678C5.35282 16.0236 5.17916 16 5 16C3.89543 16 3 16.8954 3 18C3 19.1046 3.89543 20 5 20C6.10457 20 7 19.1046 7 18C7 17.8209 6.97644 17.6472 6.93226 17.482L14.409 10.0052L15.0042 10.6003C16.062 11.6581 17.8642 11.2227 18.3223 9.7986L19.5477 5.98962ZM17.6438 5.37713L16.4184 9.18611L13.8348 6.60249L17.6438 5.37713Z" fill="#BFCFD8"/>
  </g>
  <defs>
    <clipPath id="clip0">
    <rect width="24" height="24" fill="white"/>
    </clipPath>
  </defs>
</svg>

