<svg width="24" height="24" viewBox="0 0 24 24" fill="none" xmlns="http://www.w3.org/2000/svg">
  <path fill-rule="evenodd" clip-rule="evenodd" d="M18 8C19.1046 8 20 7.10457 20 6C20 4.89543 19.1046 4 18 4C17.2462 4 16.5899 4.41698 16.249 5.03285C15.2463 5.07943 13.9154 5.18569 12.5737 5.42596C11.2194 5.6685 9.77161 6.0614 8.63708 6.72262C7.49259 7.38966 6.5 8.44174 6.5 10C6.5 10.7502 6.70243 11.4068 7.11038 11.9467C7.50851 12.4735 8.04634 12.8151 8.59632 13.0467C9.62489 13.4797 10.9362 13.6175 12.056 13.7351H12.056L12.1453 13.7445C13.3815 13.8747 14.4024 13.9913 15.1276 14.2967C15.4682 14.4401 15.6726 14.5985 15.794 14.7592C15.9056 14.9068 16 15.1252 16 15.5C16 16.0683 15.6588 16.5807 14.6929 17.0435C13.7235 17.508 12.3594 17.7905 10.8964 17.9429C9.45248 18.0933 7.99737 18.1091 6.89583 18.0862L6.77813 18.0835C6.44576 17.44 5.77426 17 5 17C3.89543 17 3 17.8954 3 19C3 20.1046 3.89543 21 5 21C5.70599 21 6.32654 20.6342 6.68246 20.0818C6.73869 20.0832 6.79594 20.0845 6.85417 20.0857C8.00263 20.1097 9.54752 20.0942 11.1036 19.9321C12.6406 19.772 14.2765 19.4608 15.5571 18.8471C16.8412 18.2319 18 17.1817 18 15.5C18 14.7499 17.7976 14.0932 17.3896 13.5534C16.9915 13.0265 16.4537 12.685 15.9037 12.4534C14.8751 12.0203 13.5638 11.8825 12.444 11.7649L12.3547 11.7555C11.1185 11.6254 10.0976 11.5087 9.37243 11.2034C9.03179 11.06 8.82743 10.9015 8.70602 10.7409C8.59445 10.5932 8.5 10.3749 8.5 10C8.5 9.43868 8.81991 8.93096 9.64417 8.45057C10.4784 7.96436 11.6556 7.62221 12.9263 7.39464C14.1298 7.17911 15.3437 7.07873 16.2872 7.03328C16.6375 7.61268 17.2735 8 18 8Z" fill="#BFCFD8"/>
</svg>