<svg width="24" height="24" viewBox="0 0 24 24" fill="none" xmlns="http://www.w3.org/2000/svg">
  <path fill-rule="evenodd" clip-rule="evenodd" d="M19.2137 5.58976C19.6917 5.2243 20 4.64816 20 4C20 2.89543 19.1046 2 18 2C16.8954 2 16 2.89543 16 4C16 4.82816 16.5034 5.53876 17.2208 5.84254C17.2423 6.79779 17.1212 8.05916 16.5769 9.36538C15.5818 11.7536 13.0482 14.5721 6.56199 15.7508C6.19548 15.2931 5.63197 15 5 15C3.89543 15 3 15.8954 3 17C3 18.1046 3.89543 19 5 19C5.84757 19 6.572 18.4728 6.86322 17.7284C13.8981 16.461 17.1043 13.2996 18.4231 10.1346C19.1167 8.46983 19.2525 6.88317 19.2183 5.7206C19.217 5.67641 19.2155 5.63279 19.2137 5.58976Z" fill="#2C465C"/>
</svg>
