<svg width="24" height="24" viewBox="0 0 24 24" fill="none" xmlns="http://www.w3.org/2000/svg">
  <path d="M11.2346 4.31703C11.7247 4.11404 12.2753 4.11404 12.7654 4.31703L17.5986 6.31901C18.0887 6.522 18.478 6.91135 18.681 7.40141L20.683 12.2346C20.886 12.7247 20.886 13.2753 20.683 13.7654L18.681 18.5986C18.478 19.0887 18.0886 19.478 17.5986 19.681L12.3675 21.8478C12.1249 21.9483 11.8648 22 11.6022 22H5C3.89543 22 3 21.1046 3 20V13.3978C3 13.1352 3.05173 12.8751 3.15224 12.6325L5.31901 7.40141C5.522 6.91135 5.91135 6.522 6.40141 6.31901L11.2346 4.31703Z" stroke="#BFCFD8" stroke-width="2"/>
</svg>
