<svg width="24" height="24" viewBox="0 0 24 24" fill="none" xmlns="http://www.w3.org/2000/svg">
  <g clip-path="url(#clip0)">
    <path d="M8.58279 10.3328L14.9468 16.6967" stroke="#2C465C" stroke-width="2" stroke-linecap="round" stroke-linejoin="round"/>
    <path d="M20.25 21.2344H6.75652L3.27949 17.7573C3.1402 17.6181 3.02971 17.4527 2.95433 17.2707C2.87895 17.0887 2.84015 16.8937 2.84015 16.6967C2.84015 16.4997 2.87895 16.3047 2.95433 16.1227C3.02971 15.9407 3.1402 15.7753 3.27949 15.636L13.8861 5.02943C14.1674 4.74812 14.5489 4.59009 14.9467 4.59009C15.3446 4.59009 15.7261 4.74812 16.0074 5.02943L20.2501 9.27207C20.3893 9.41136 20.4998 9.57672 20.5752 9.7587C20.6506 9.94069 20.6894 10.1357 20.6894 10.3327C20.6894 10.5297 20.6506 10.7248 20.5752 10.9068C20.4998 11.0887 20.3893 11.2541 20.2501 11.3934L10.4091 21.2344" stroke="#2C465C" stroke-width="2" stroke-linecap="round" stroke-linejoin="round"/>
  </g>
  <defs>
    <clipPath id="clip0">
      <rect width="24" height="24" fill="white"/>
    </clipPath>
  </defs>
</svg>
