<svg width="24" height="24" viewBox="0 0 24 24" fill="none" xmlns="http://www.w3.org/2000/svg">
  <path d="M16.8561 10.8561L17.3143 11.3143C17.4536 11.4536 17.5641 11.619 17.6395 11.8009C17.7149 11.9829 17.7537 12.178 17.7537 12.375C17.7537 12.572 17.7149 12.767 17.6395 12.949C17.5641 13.131 17.4536 13.2963 17.3143 13.4356L16.6553 14.0946C16.5147 14.2353 16.3239 14.3143 16.125 14.3143C15.9261 14.3143 15.7353 14.2353 15.5946 14.0946L9.90531 8.4053C9.76466 8.26465 9.68564 8.07388 9.68564 7.87497C9.68564 7.67606 9.76466 7.48529 9.90531 7.34464L10.5643 6.68563C10.7036 6.54634 10.869 6.43586 11.051 6.36047C11.2329 6.28509 11.428 6.24629 11.625 6.24629C11.822 6.24629 12.017 6.28509 12.199 6.36047C12.381 6.43586 12.5464 6.54634 12.6856 6.68563L13.1438 7.14382L15.7302 4.55743C16.7416 3.54603 18.3895 3.48408 19.4283 4.46737C19.6833 4.70845 19.8874 4.99821 20.0285 5.31952C20.1696 5.64084 20.2448 5.98718 20.2497 6.33808C20.2547 6.68897 20.1892 7.0373 20.0572 7.36245C19.9251 7.6876 19.7293 7.98298 19.4811 8.23113L16.8561 10.8561Z" stroke="#2C465C" stroke-width="2" stroke-linecap="round" stroke-linejoin="round"/>
  <path d="M14.8713 13.3713L9.6213 18.6213C9.24903 18.9939 8.78519 19.2619 8.27647 19.3982C7.76774 19.5346 7.23207 19.5346 6.72334 19.3982L4.52938 20.356C4.39122 20.4163 4.23808 20.4336 4.08995 20.4056C3.94183 20.3776 3.80558 20.3056 3.69898 20.199V20.199C3.62244 20.1224 3.57075 20.0246 3.55064 19.9183C3.53053 19.8119 3.54293 19.702 3.58624 19.6028L4.60174 17.2766C4.46534 16.7679 4.46533 16.2322 4.60172 15.7235C4.7381 15.2148 5.00607 14.7509 5.37866 14.3787L10.6287 9.12866" stroke="#2C465C" stroke-width="2" stroke-linecap="round" stroke-linejoin="round"/>
</svg>
