<svg width="24" height="24" viewBox="0 0 24 24" fill="none" xmlns="http://www.w3.org/2000/svg">
  <path fill-rule="evenodd" clip-rule="evenodd" d="M18 6C19.1046 6 20 5.10457 20 4C20 2.89543 19.1046 2 18 2C16.8954 2 16 2.89543 16 4C16 4.17916 16.0236 4.35282 16.0677 4.51804L5.51804 15.0677C5.35282 15.0236 5.17916 15 5 15C3.89543 15 3 15.8954 3 17C3 18.1046 3.89543 19 5 19C6.10457 19 7 18.1046 7 17C7 16.8208 6.97644 16.6472 6.93226 16.482L17.482 5.93226C17.6472 5.97644 17.8208 6 18 6Z" fill="#BFCFD8"/>
</svg>
