<svg width="24" height="24" viewBox="0 0 24 24" fill="none" xmlns="http://www.w3.org/2000/svg">
<g clip-path="url(#clip0)">
  <path d="M20.9029 12.5767L11.8873 21.5923C11.606 21.8736 11.2244 22.0316 10.8266 22.0316C10.4288 22.0316 10.0473 21.8736 9.76596 21.5923L1.81062 13.6369C1.67133 13.4976 1.56084 13.3323 1.48546 13.1503C1.41008 12.9683 1.37128 12.7733 1.37128 12.5763C1.37128 12.3793 1.41008 12.1842 1.48546 12.0022C1.56084 11.8203 1.67133 11.6549 1.81062 11.5156L10.8262 2.5L20.9029 12.5767Z" stroke="#BFCFD8" stroke-width="2" stroke-linecap="round" stroke-linejoin="round"/>
  <path d="M11.625 13.7505C12.6605 13.7505 13.5 12.9111 13.5 11.8755C13.5 10.84 12.6605 10.0005 11.625 10.0005C10.5895 10.0005 9.75 10.84 9.75 11.8755C9.75 12.9111 10.5895 13.7505 11.625 13.7505Z" stroke="#BFCFD8" stroke-width="2" stroke-linecap="round" stroke-linejoin="round"/>
  <path d="M19.5 20.125C19.5 18.2505 21.375 16.375 21.375 16.375C21.375 16.375 23.25 18.2505 23.25 20.125C23.25 20.6223 23.0525 21.0992 22.7008 21.4508C22.3492 21.8025 21.8723 22 21.375 22C20.8777 22 20.4008 21.8025 20.0492 21.4508C19.6975 21.0992 19.5 20.6223 19.5 20.125V20.125Z" stroke="#BFCFD8" stroke-width="2" stroke-linecap="round" stroke-linejoin="round"/>
  <path d="M10.2991 10.5497L3.54913 3.79974" stroke="#BFCFD8" stroke-width="2" stroke-linecap="round" stroke-linejoin="round"/>
</g>
<defs>
  <clipPath id="clip0">
    <rect width="24" height="24" fill="white"/>
  </clipPath>
</defs>
</svg>
