<svg width="24" height="24" viewBox="0 0 24 24" fill="none" xmlns="http://www.w3.org/2000/svg">
  <g clip-path="url(#clip0)">
    <path d="M12 11.125L12 21.25" stroke="#000" stroke-width="2" stroke-linecap="round" stroke-linejoin="round"/>
    <path d="M12 4.75L12 7.375" stroke="#000" stroke-width="2" stroke-linecap="round" stroke-linejoin="round"/>
    <path d="M12 11.125C13.0355 11.125 13.875 10.2855 13.875 9.25C13.875 8.21447 13.0355 7.375 12 7.375C10.9645 7.375 10.125 8.21447 10.125 9.25C10.125 10.2855 10.9645 11.125 12 11.125Z" stroke="#000" stroke-width="2" stroke-linecap="round" stroke-linejoin="round"/>
    <path d="M18.75 18.625L18.7501 21.25" stroke="#000" stroke-width="2" stroke-linecap="round" stroke-linejoin="round"/>
    <path d="M18.7501 4.75L18.75 14.875" stroke="#000" stroke-width="2" stroke-linecap="round" stroke-linejoin="round"/>
    <path d="M18.75 18.625C19.7855 18.625 20.625 17.7855 20.625 16.75C20.625 15.7145 19.7855 14.875 18.75 14.875C17.7145 14.875 16.875 15.7145 16.875 16.75C16.875 17.7855 17.7145 18.625 18.75 18.625Z" stroke="#000" stroke-width="2" stroke-linecap="round" stroke-linejoin="round"/>
    <path d="M5.25007 15.625L5.25 21.25" stroke="#000" stroke-width="2" stroke-linecap="round" stroke-linejoin="round"/>
    <path d="M5.25 4.75L5.25007 11.875" stroke="#000" stroke-width="2" stroke-linecap="round" stroke-linejoin="round"/>
    <path d="M5.25 15.625C6.28553 15.625 7.125 14.7855 7.125 13.75C7.125 12.7145 6.28553 11.875 5.25 11.875C4.21447 11.875 3.375 12.7145 3.375 13.75C3.375 14.7855 4.21447 15.625 5.25 15.625Z" stroke="#000" stroke-width="2" stroke-linecap="round" stroke-linejoin="round"/>
  </g>
  <defs>
    <clipPath id="clip0">
      <rect width="24" height="24" fill="white"/>
    </clipPath>
  </defs>
</svg>