<svg width="14" height="14" viewBox="0 0 14 14" fill="none" xmlns="http://www.w3.org/2000/svg">
<path d="M7 7H13C13.5523 7 14 7.44772 14 8V12C14 13.1046 13.1046 14 12 14H8C7.44772 14 7 13.5523 7 13V7Z" fill="#2C465C"/>
<path opacity="0.2" d="M6 9V13C6 13.5523 5.55228 14 5 14H2C0.895431 14 0 13.1046 0 12V9C0 8.44772 0.447715 8 1 8H5C5.55228 8 6 8.44772 6 9Z" fill="#90A1AA"/>
<path opacity="0.2" d="M8 5V1C8 0.447715 8.44772 0 9 0L12 0C13.1046 0 14 0.89543 14 2V5C14 5.55228 13.5523 6 13 6H9C8.44772 6 8 5.55228 8 5Z" fill="#90A1AA"/>
<path d="M7 7V1C7 0.447715 6.55228 0 6 0L2 0C0.895431 0 0 0.89543 0 2V6C0 6.55228 0.447715 7 1 7H7Z" fill="#2C465C"/>
</svg>

