<svg width="125" height="36" viewBox="0 0 125 36" fill="none" xmlns="http://www.w3.org/2000/svg">
<path d="M123.923 31.8482C123.923 33.7667 122.337 35.3207 120.375 35.3207H4.2456C2.28434 35.3207 0.692383 33.7667 0.692383 31.8482V4.15622C0.692383 2.23865 2.28434 0.679199 4.2456 0.679199H120.374C122.337 0.679199 123.922 2.23865 123.922 4.15622L123.923 31.8482Z" fill="black"/>
<path d="M120 0.721126C122.137 0.721126 123.876 2.4165 123.876 4.5V31.5C123.876 33.5835 122.137 35.2789 120 35.2789H4.61538C2.47846 35.2789 0.739615 33.5835 0.739615 31.5V4.5C0.739615 2.4165 2.47846 0.721126 4.61538 0.721126H120ZM120 1.90258e-06H4.61538C2.07808 1.90258e-06 0 2.02613 0 4.5V31.5C0 33.9739 2.07808 36 4.61538 36H120C122.537 36 124.615 33.9739 124.615 31.5V4.5C124.615 2.02613 122.537 1.90258e-06 120 1.90258e-06Z" fill="#434343"/>
<path d="M27.8102 17.8055C27.7834 14.9048 30.2462 13.4936 30.3588 13.4279C28.964 11.4452 26.8022 11.1743 26.0425 11.1527C24.2268 10.9664 22.4656 12.212 21.5406 12.212C20.5972 12.212 19.1729 11.1707 17.6379 11.2013C15.6625 11.231 13.8145 12.3461 12.8009 14.0777C10.7092 17.6084 12.2692 22.7969 14.2732 25.6508C15.2757 27.0485 16.4471 28.6091 17.9803 28.5542C19.4803 28.4939 20.0406 27.6218 21.8508 27.6218C23.6443 27.6218 24.1705 28.5542 25.7342 28.5191C27.344 28.4939 28.3576 27.1151 29.3249 25.7048C30.4834 24.1028 30.9486 22.5251 30.9671 22.4441C30.9292 22.4315 27.8406 21.2822 27.8102 17.8055Z" fill="white"/>
<path d="M24.8563 9.27531C25.6631 8.29161 26.2151 6.95331 26.0619 5.59521C24.8942 5.64561 23.4339 6.38271 22.5929 7.34481C21.8489 8.19261 21.1843 9.58221 21.356 10.889C22.6677 10.9844 24.0145 10.2437 24.8563 9.27531Z" fill="white"/>
<path d="M45.2761 9.00783C45.2761 10.0671 44.9502 10.8645 44.2994 11.4C43.6967 11.8941 42.84 12.1416 41.7305 12.1416C41.1804 12.1416 40.7096 12.1182 40.3154 12.0714V6.28353C40.8296 6.20253 41.3834 6.16113 41.9816 6.16113C43.0385 6.16113 43.8351 6.38523 44.3724 6.83343C44.9742 7.34013 45.2761 8.06463 45.2761 9.00783ZM44.256 9.03393C44.256 8.34723 44.0696 7.82073 43.6967 7.45353C43.3237 7.08723 42.7791 6.90363 42.0619 6.90363C41.7573 6.90363 41.4979 6.92343 41.2828 6.96483V11.3649C41.4019 11.3829 41.6197 11.391 41.9364 11.391C42.6767 11.391 43.2481 11.1903 43.6505 10.7889C44.053 10.3875 44.256 9.80253 44.256 9.03393Z" fill="white"/>
<path d="M50.6847 9.93334C50.6847 10.5858 50.4936 11.1204 50.1115 11.5398C49.7109 11.9709 49.1801 12.186 48.5173 12.186C47.8785 12.186 47.3699 11.9799 46.9905 11.5659C46.6121 11.1528 46.4229 10.6317 46.4229 10.0035C46.4229 9.34654 46.6176 8.80744 47.009 8.38894C47.4004 7.97044 47.9265 7.76074 48.5893 7.76074C49.2281 7.76074 49.7413 7.96684 50.1299 8.37994C50.4992 8.78134 50.6847 9.29974 50.6847 9.93334ZM49.6813 9.96394C49.6813 9.57244 49.5945 9.23674 49.4219 8.95684C49.2189 8.61844 48.9299 8.44924 48.5542 8.44924C48.1656 8.44924 47.8702 8.61844 47.6672 8.95684C47.4936 9.23674 47.4078 9.57784 47.4078 9.98104C47.4078 10.3725 47.4945 10.7082 47.6672 10.9881C47.8767 11.3265 48.1684 11.4957 48.545 11.4957C48.9142 11.4957 49.2041 11.3238 49.4127 10.9791C49.5918 10.6938 49.6813 10.3554 49.6813 9.96394Z" fill="white"/>
<path d="M57.9364 7.84717L56.5749 12.0898H55.6888L55.1248 10.2475C54.9817 9.78757 54.8654 9.33037 54.7749 8.87677H54.7574C54.6734 9.34297 54.5571 9.79927 54.4075 10.2475L53.8084 12.0898H52.9121L51.6318 7.84717H52.626L53.118 9.86407C53.2371 10.3411 53.3349 10.7956 53.4134 11.2258H53.4309C53.5029 10.8712 53.622 10.4194 53.79 9.87307L54.4075 7.84807H55.1958L55.7875 9.82987C55.9306 10.3132 56.0469 10.7785 56.1364 11.2267H56.1632C56.2288 10.7902 56.3275 10.3249 56.4586 9.82987L56.9866 7.84807H57.9364V7.84717Z" fill="white"/>
<path d="M62.9509 12.0895H61.9835V9.65951C61.9835 8.91071 61.6918 8.53631 61.1066 8.53631C60.8195 8.53631 60.5878 8.63891 60.4078 8.84501C60.2296 9.05111 60.1392 9.29411 60.1392 9.57221V12.0886H59.1718V9.05921C59.1718 8.68661 59.1598 8.28251 59.1367 7.84511H59.9869L60.0321 8.50841H60.0589C60.1715 8.30231 60.3395 8.13221 60.5601 7.99631C60.8223 7.83791 61.1158 7.75781 61.437 7.75781C61.8432 7.75781 62.181 7.88561 62.4496 8.14211C62.7838 8.45621 62.9509 8.92511 62.9509 9.54791V12.0895V12.0895Z" fill="white"/>
<path d="M65.6188 12.0897H64.6523V5.90039H65.6188V12.0897Z" fill="white"/>
<path d="M71.3146 9.93334C71.3146 10.5858 71.1235 11.1204 70.7414 11.5398C70.3407 11.9709 69.809 12.186 69.1472 12.186C68.5075 12.186 67.9989 11.9799 67.6204 11.5659C67.242 11.1528 67.0527 10.6317 67.0527 10.0035C67.0527 9.34654 67.2475 8.80744 67.6389 8.38894C68.0303 7.97044 68.5564 7.76074 69.2183 7.76074C69.858 7.76074 70.3703 7.96684 70.7598 8.37994C71.129 8.78134 71.3146 9.29974 71.3146 9.93334ZM70.3103 9.96394C70.3103 9.57244 70.2235 9.23674 70.0509 8.95684C69.8487 8.61844 69.5589 8.44924 69.1841 8.44924C68.7946 8.44924 68.4992 8.61844 68.297 8.95684C68.1235 9.23674 68.0377 9.57784 68.0377 9.98104C68.0377 10.3725 68.1244 10.7082 68.297 10.9881C68.5066 11.3265 68.7983 11.4957 69.1749 11.4957C69.5441 11.4957 69.833 11.3238 70.0417 10.9791C70.2217 10.6938 70.3103 10.3554 70.3103 9.96394Z" fill="white"/>
<path d="M75.9961 12.0897H75.1275L75.0555 11.601H75.0287C74.7315 11.9907 74.3078 12.186 73.7577 12.186C73.3469 12.186 73.0146 12.0573 72.7644 11.8017C72.5374 11.5695 72.4238 11.2806 72.4238 10.9377C72.4238 10.4193 72.6454 10.0242 73.0912 9.75064C73.5361 9.47704 74.162 9.34294 74.9678 9.34924V9.27004C74.9678 8.71114 74.6669 8.43214 74.0641 8.43214C73.6349 8.43214 73.2564 8.53744 72.9297 8.74624L72.7331 8.12704C73.1374 7.88314 73.6368 7.76074 74.2257 7.76074C75.3629 7.76074 75.9334 8.34574 75.9334 9.51574V11.0781C75.9334 11.502 75.9546 11.8395 75.9961 12.0897ZM74.9918 10.6317V9.97744C73.9247 9.95944 73.3912 10.2447 73.3912 10.8324C73.3912 11.0538 73.4521 11.2194 73.5768 11.3301C73.7014 11.4408 73.8601 11.4957 74.0494 11.4957C74.2617 11.4957 74.4601 11.43 74.6411 11.2995C74.8229 11.1681 74.9346 11.0016 74.9761 10.7973C74.9863 10.7514 74.9918 10.6956 74.9918 10.6317Z" fill="white"/>
<path d="M81.4927 12.0897H80.6342L80.589 11.4084H80.5622C80.2881 11.9268 79.821 12.186 79.1647 12.186C78.6404 12.186 78.2038 11.9853 77.8576 11.5839C77.5115 11.1825 77.3389 10.6614 77.3389 10.0215C77.3389 9.33479 77.5263 8.77859 77.9029 8.35379C78.2675 7.95779 78.7142 7.75979 79.2459 7.75979C79.8302 7.75979 80.2392 7.95149 80.4718 8.33579H80.4902V5.90039H81.4586V10.9467C81.4586 11.3598 81.4696 11.7405 81.4927 12.0897ZM80.4902 10.3005V9.59309C80.4902 9.47069 80.481 9.37169 80.4635 9.29609C80.409 9.06929 80.2918 8.87849 80.1136 8.72459C79.9336 8.57069 79.7167 8.49329 79.4666 8.49329C79.1056 8.49329 78.8232 8.63279 78.6155 8.91269C78.4096 9.19259 78.3053 9.54989 78.3053 9.98639C78.3053 10.4058 78.4041 10.746 78.6026 11.0079C78.8121 11.2869 79.0946 11.4264 79.4481 11.4264C79.7656 11.4264 80.0195 11.3103 80.2124 11.0772C80.3989 10.8621 80.4902 10.6029 80.4902 10.3005Z" fill="white"/>
<path d="M89.7667 9.93334C89.7667 10.5858 89.5756 11.1204 89.1935 11.5398C88.7929 11.9709 88.263 12.186 87.5993 12.186C86.9615 12.186 86.4529 11.9799 86.0726 11.5659C85.6941 11.1528 85.5049 10.6317 85.5049 10.0035C85.5049 9.34654 85.6997 8.80744 86.091 8.38894C86.4824 7.97044 87.0086 7.76074 87.6723 7.76074C88.3101 7.76074 88.8243 7.96684 89.212 8.37994C89.5812 8.78134 89.7667 9.29974 89.7667 9.93334ZM88.7643 9.96394C88.7643 9.57244 88.6775 9.23674 88.5049 8.95684C88.3009 8.61844 88.0129 8.44924 87.6363 8.44924C87.2486 8.44924 86.9532 8.61844 86.7492 8.95684C86.5757 9.23674 86.4898 9.57784 86.4898 9.98104C86.4898 10.3725 86.5766 10.7082 86.7492 10.9881C86.9587 11.3265 87.2504 11.4957 87.627 11.4957C87.9963 11.4957 88.287 11.3238 88.4957 10.9791C88.6738 10.6938 88.7643 10.3554 88.7643 9.96394Z" fill="white"/>
<path d="M94.9675 12.0895H94.0011V9.65951C94.0011 8.91071 93.7094 8.53631 93.1232 8.53631C92.8361 8.53631 92.6044 8.63891 92.4254 8.84501C92.2463 9.05111 92.1568 9.29411 92.1568 9.57221V12.0886H91.1885V9.05921C91.1885 8.68661 91.1774 8.28251 91.1543 7.84511H92.0035L92.0488 8.50841H92.0755C92.1891 8.30231 92.3571 8.13221 92.5768 7.99631C92.8398 7.83791 93.1325 7.75781 93.4546 7.75781C93.8598 7.75781 94.1977 7.88561 94.4663 8.14211C94.8014 8.45621 94.9675 8.92511 94.9675 9.54791V12.0895V12.0895Z" fill="white"/>
<path d="M101.478 8.55363H100.413V10.6146C100.413 11.1384 100.602 11.4003 100.977 11.4003C101.151 11.4003 101.295 11.3859 101.408 11.3562L101.433 12.0717C101.242 12.1419 100.991 12.177 100.682 12.177C100.3 12.177 100.002 12.0636 99.7872 11.8368C99.5712 11.61 99.4641 11.2284 99.4641 10.6929V8.55363H98.8281V7.84713H99.4641V7.06953L100.412 6.79053V7.84623H101.477V8.55363H101.478Z" fill="white"/>
<path d="M106.599 12.0897H105.631V9.67769C105.631 8.91719 105.339 8.53649 104.755 8.53649C104.306 8.53649 104 8.75699 103.832 9.19799C103.803 9.29069 103.787 9.40409 103.787 9.53729V12.0888H102.82V5.90039H103.787V8.45729H103.805C104.11 7.99199 104.546 7.75979 105.112 7.75979C105.513 7.75979 105.844 7.88759 106.107 8.14409C106.435 8.46359 106.599 8.93879 106.599 9.56699V12.0897V12.0897Z" fill="white"/>
<path d="M111.883 9.76754C111.883 9.93674 111.87 10.0789 111.847 10.195H108.946C108.959 10.6144 109.097 10.9339 109.366 11.1553C109.612 11.3533 109.928 11.4523 110.316 11.4523C110.745 11.4523 111.136 11.3857 111.489 11.2516L111.64 11.9068C111.228 12.0814 110.742 12.1687 110.18 12.1687C109.506 12.1687 108.976 11.9752 108.592 11.5882C108.206 11.2012 108.015 10.6819 108.015 10.0303C108.015 9.39044 108.193 8.85764 108.552 8.43284C108.927 7.97924 109.433 7.75244 110.073 7.75244C110.699 7.75244 111.174 7.97924 111.496 8.43284C111.755 8.79284 111.883 9.23834 111.883 9.76754ZM110.96 9.52364C110.968 9.24374 110.904 9.00254 110.773 8.79914C110.605 8.53724 110.349 8.40584 110.003 8.40584C109.687 8.40584 109.43 8.53364 109.233 8.79014C109.072 8.99444 108.977 9.23834 108.946 9.52364H110.96Z" fill="white"/>
<path d="M49.5192 28.3532H47.4229L46.2746 24.8351H42.2832L41.1894 28.3532H39.1484L43.1029 16.376H45.5454L49.5192 28.3532ZM45.9284 23.3591L44.89 20.2316C44.7801 19.9121 44.5743 19.1597 44.2706 17.9753H44.2337C44.1127 18.4847 43.918 19.2371 43.6503 20.2316L42.6303 23.3591H45.9284V23.3591Z" fill="white"/>
<path d="M59.6884 23.9293C59.6884 25.3981 59.2813 26.5591 58.4671 27.4114C57.7379 28.1701 56.8324 28.549 55.7514 28.549C54.5847 28.549 53.7465 28.1404 53.236 27.3232H53.1991V31.8727H51.2311V22.5604C51.2311 21.637 51.2062 20.6893 51.1582 19.7173H52.889L52.9988 21.0862H53.0357C53.692 20.0548 54.688 19.54 56.0247 19.54C57.0696 19.54 57.9419 19.9423 58.6397 20.7478C59.3394 21.5542 59.6884 22.6144 59.6884 23.9293ZM57.6834 23.9995C57.6834 23.1589 57.4896 22.4659 57.1 21.9205C56.6745 21.3517 56.1031 21.0673 55.3868 21.0673C54.9013 21.0673 54.46 21.2257 54.0659 21.538C53.6708 21.853 53.4124 22.2643 53.2914 22.7737C53.2305 23.0113 53.2 23.2057 53.2 23.3587V24.7987C53.2 25.4269 53.3976 25.957 53.7927 26.3899C54.1877 26.8228 54.701 27.0388 55.3324 27.0388C56.0736 27.0388 56.6505 26.7598 57.0631 26.2036C57.4767 25.6465 57.6834 24.9121 57.6834 23.9995Z" fill="white"/>
<path d="M69.8769 23.9293C69.8769 25.3981 69.4698 26.5591 68.6547 27.4114C67.9264 28.1701 67.0209 28.549 65.94 28.549C64.7732 28.549 63.935 28.1404 63.4255 27.3232H63.3886V31.8727H61.4206V22.5604C61.4206 21.637 61.3957 20.6893 61.3477 19.7173H63.0784L63.1883 21.0862H63.2252C63.8806 20.0548 64.8766 19.54 66.2141 19.54C67.2581 19.54 68.1304 19.9423 68.8301 20.7478C69.527 21.5542 69.8769 22.6144 69.8769 23.9293ZM67.872 23.9995C67.872 23.1589 67.6772 22.4659 67.2877 21.9205C66.8621 21.3517 66.2926 21.0673 65.5754 21.0673C65.0889 21.0673 64.6486 21.2257 64.2535 21.538C63.8584 21.853 63.6009 22.2643 63.48 22.7737C63.42 23.0113 63.3886 23.2057 63.3886 23.3587V24.7987C63.3886 25.4269 63.5861 25.957 63.9793 26.3899C64.3744 26.8219 64.8877 27.0388 65.5209 27.0388C66.2621 27.0388 66.839 26.7598 67.2517 26.2036C67.6652 25.6465 67.872 24.9121 67.872 23.9995Z" fill="white"/>
<path d="M81.2674 24.9946C81.2674 26.0134 80.9046 26.8423 80.1763 27.4822C79.376 28.1815 78.2619 28.5307 76.8302 28.5307C75.5083 28.5307 74.4486 28.2823 73.6465 27.7846L74.1025 26.1853C74.9665 26.6947 75.9145 26.9503 76.9474 26.9503C77.6886 26.9503 78.2656 26.7865 78.68 26.4607C79.0926 26.1349 79.2985 25.6975 79.2985 25.1521C79.2985 24.6661 79.1286 24.2566 78.788 23.9245C78.4493 23.5924 77.8834 23.2837 77.0933 22.9984C74.9425 22.2163 73.868 21.0706 73.868 19.564C73.868 18.5794 74.2446 17.7721 74.9988 17.1439C75.7502 16.5148 76.7526 16.2007 78.0062 16.2007C79.124 16.2007 80.0526 16.3906 80.7939 16.7695L80.3019 18.3337C79.6096 17.9665 78.8268 17.7829 77.9508 17.7829C77.2585 17.7829 76.7176 17.9494 76.3299 18.2806C76.0022 18.5767 75.8379 18.9376 75.8379 19.3651C75.8379 19.8385 76.0253 20.23 76.4019 20.5378C76.7296 20.8222 77.325 21.13 78.1889 21.4621C79.2459 21.877 80.0222 22.3621 80.5216 22.9183C81.0191 23.4727 81.2674 24.1666 81.2674 24.9946Z" fill="white"/>
<path d="M87.7743 21.1568H85.6051V25.3499C85.6051 26.4164 85.9873 26.9492 86.7534 26.9492C87.1051 26.9492 87.3968 26.9195 87.6276 26.8601L87.682 28.3172C87.2943 28.4585 86.7839 28.5296 86.1516 28.5296C85.3743 28.5296 84.767 28.2983 84.3285 27.8366C83.8919 27.374 83.6722 26.5982 83.6722 25.5083V21.155H82.3799V19.715H83.6722V18.1337L85.6051 17.5649V19.715H87.7743V21.1568Z" fill="white"/>
<path d="M97.5617 23.964C97.5617 25.2915 97.1722 26.3814 96.395 27.2337C95.5799 28.1112 94.4981 28.5486 93.1494 28.5486C91.8497 28.5486 90.815 28.1283 90.0433 27.2877C89.2716 26.4471 88.8857 25.386 88.8857 24.1071C88.8857 22.7688 89.2827 21.6726 90.0793 20.8203C90.874 19.9671 91.9467 19.5405 93.2953 19.5405C94.595 19.5405 95.6408 19.9608 96.43 20.8023C97.1851 21.6186 97.5617 22.6725 97.5617 23.964ZM95.5199 24.0261C95.5199 23.2296 95.3454 22.5465 94.9919 21.9768C94.5793 21.2874 93.9894 20.9436 93.2251 20.9436C92.434 20.9436 91.8331 21.2883 91.4205 21.9768C91.067 22.5474 90.8925 23.2413 90.8925 24.0621C90.8925 24.8586 91.067 25.5417 91.4205 26.1105C91.8461 26.7999 92.4405 27.1437 93.2076 27.1437C93.959 27.1437 94.5488 26.7927 94.9744 26.0925C95.3371 25.512 95.5199 24.8217 95.5199 24.0261Z" fill="white"/>
<path d="M103.959 21.4048C103.764 21.3697 103.556 21.3517 103.339 21.3517C102.646 21.3517 102.111 21.6064 101.734 22.1167C101.407 22.5667 101.242 23.1355 101.242 23.8222V28.3537H99.2751L99.2936 22.4371C99.2936 21.4417 99.2686 20.5354 99.2197 19.7182H100.934L101.006 21.3706H101.06C101.268 20.8027 101.596 20.3455 102.044 20.0026C102.483 19.6939 102.956 19.54 103.467 19.54C103.649 19.54 103.813 19.5526 103.959 19.5751V21.4048Z" fill="white"/>
<path d="M112.76 23.6265C112.76 23.9703 112.737 24.2601 112.688 24.4968H106.784C106.807 25.35 107.092 26.0025 107.64 26.4525C108.138 26.8548 108.781 27.0564 109.571 27.0564C110.446 27.0564 111.243 26.9205 111.96 26.6478L112.269 27.9798C111.43 28.3362 110.441 28.5135 109.299 28.5135C107.926 28.5135 106.847 28.1193 106.063 27.3318C105.28 26.5443 104.888 25.4868 104.888 24.1602C104.888 22.8579 105.252 21.7734 105.982 20.9085C106.747 19.9851 107.78 19.5234 109.079 19.5234C110.356 19.5234 111.322 19.9851 111.979 20.9085C112.498 21.642 112.76 22.5492 112.76 23.6265ZM110.883 23.1288C110.896 22.56 110.768 22.0686 110.501 21.6537C110.16 21.12 109.637 20.8536 108.933 20.8536C108.289 20.8536 107.766 21.1137 107.366 21.6357C107.038 22.0506 106.844 22.5483 106.784 23.1279H110.883V23.1288Z" fill="white"/>
</svg>
