<svg width="112" height="64" viewBox="0 0 112 64" fill="none" xmlns="http://www.w3.org/2000/svg">
<path opacity="0.3" fill-rule="evenodd" clip-rule="evenodd" d="M1.33362 56.5709C-1.08271 59.7231 1.33633 64 5.30815 64H106.692C110.664 64 113.083 59.7231 110.666 56.5709C98.0657 40.1325 78.2658 29.5386 56 29.5386C33.7342 29.5386 13.9343 40.1325 1.33362 56.5709Z" fill="#CF9F02"/>
<mask id="mask0_3805_19560" style="mask-type:alpha" maskUnits="userSpaceOnUse" x="8" y="0" width="86" height="64">
<rect x="8.64856" width="85.3352" height="63.7673" rx="5.15555" fill="#D9D9D9"/>
</mask>
<g mask="url(#mask0_3805_19560)">
<path d="M48.2 46.8861C48.0373 46.9031 47.8749 46.9197 47.7126 46.9378C46.261 47.2351 43.3282 49.136 33.5134 35.5163C32.5177 34.1342 30.7399 33.646 29.2185 34.2225C28.9356 34.3295 28.667 34.4711 28.4187 34.644C26.718 35.826 26.3814 38.2347 27.5958 39.9126C38.4642 54.9325 43.3691 55.2237 47.8718 54.3467C50.1675 53.8994 51.8709 51.9835 51.5034 49.6701V49.6685L51.341 49.1163C51.0433 48.4229 50.1675 46.9 48.2 46.8861Z" fill="white"/>
<path d="M45.3637 54.9438C41.2814 54.9438 36.2638 52.4426 27.3344 40.1017C27.0122 39.6532 26.782 39.1454 26.6572 38.6074C26.5323 38.0695 26.5153 37.5122 26.6071 36.9676C26.7891 35.9009 27.366 34.9831 28.2344 34.3796C28.5063 34.1914 28.7975 34.0368 29.1044 33.9215C30.7974 33.2813 32.7179 33.8605 33.7757 35.329C42.8162 47.8747 45.8616 47.083 47.3251 46.7019C47.4404 46.6719 47.5484 46.6445 47.6486 46.6233L47.6787 46.6186L48.1843 46.5654H48.2028C50.372 46.5793 51.3284 48.2646 51.638 48.9896L51.6519 49.0262L51.8262 49.6436C52.1876 52.0057 50.5178 54.1614 47.934 54.665C47.1002 54.8243 46.2534 54.9438 45.3637 54.9438ZM30.5167 34.3067C29.8317 34.3059 29.1631 34.5163 28.602 34.9091C27.8777 35.4127 27.3949 36.1817 27.2434 37.0752C27.1654 37.5353 27.1794 38.0063 27.2847 38.4609C27.3899 38.9155 27.5843 39.3448 27.8565 39.7238C32.7707 46.5157 36.8361 50.7967 40.2841 52.8124C43.4614 54.6693 45.7447 54.4329 47.811 54.0306C50.0488 53.5953 51.4969 51.7523 51.1888 49.7392L51.0384 49.2263C50.7711 48.612 49.9759 47.2314 48.2178 47.2102L47.7655 47.2573C47.6787 47.2754 47.5877 47.2997 47.4905 47.3255C46.7073 47.5288 45.3957 47.87 43.1455 46.4625C40.5602 44.8451 37.2325 41.2259 33.2551 35.7054C32.9416 35.2724 32.53 34.9198 32.0539 34.6766C31.5778 34.4335 31.0509 34.3067 30.5163 34.3067H30.5167Z" fill="#172B4D"/>
<path d="M41.8693 53.9495C41.8693 53.9495 45.1044 52.3522 45.792 47.1685L41.8693 53.9495Z" fill="white"/>
<path d="M42.0097 54.2375L41.7243 53.6594L41.867 53.9494L41.7228 53.661C41.7532 53.6459 44.8152 52.059 45.4696 47.1274L46.1086 47.2123C45.4072 52.5036 42.1477 54.1692 42.0097 54.2375Z" fill="#172B4D"/>
<path d="M36.5763 50.7802C36.5763 50.7802 40.3625 47.8436 41.477 44.6196L36.5763 50.7802Z" fill="white"/>
<path d="M36.7751 51.0352L36.379 50.5253C36.4153 50.4968 40.1027 47.6084 41.1717 44.5151L41.7818 44.7261C40.6496 48.0013 36.9332 50.9125 36.7751 51.0352Z" fill="#172B4D"/>
<path d="M32.3732 45.6085C32.3732 45.6085 36.1243 43.8824 37.3147 40.4189L32.3732 45.6085Z" fill="white"/>
<path d="M32.5084 45.9011L32.2384 45.3157C32.2747 45.2991 35.88 43.6015 37.0095 40.314L37.62 40.5234C36.3994 44.0763 32.6661 45.8286 32.5084 45.9011Z" fill="#172B4D"/>
<path d="M24.3723 35.248C24.3723 35.248 22.7526 38.3092 25.9268 40.8259C25.9268 40.8259 28.0247 42.3823 30.1306 41.2431L32.9057 38.7978C32.9057 38.7978 36.4266 37.094 33.9003 33.0132C33.9003 33.0132 31.9859 30.1795 28.892 31.3522L27.9202 32.5901" fill="white"/>
<path d="M28.4752 41.9882C26.975 41.9882 25.8035 41.1371 25.7352 41.0874C23.9863 39.6991 23.6296 38.1503 23.637 37.0929C23.6462 35.9476 24.0696 35.1331 24.0881 35.0995L24.6589 35.4015L24.3735 35.2515L24.6589 35.4015C24.598 35.5168 23.2104 38.2641 26.1282 40.5776C26.139 40.5853 28.0625 41.9716 29.946 40.9809L32.7261 38.531L32.7654 38.5113C32.7777 38.5051 33.9994 37.8939 34.3777 36.5816C34.6616 35.5943 34.4097 34.452 33.6265 33.1868C33.561 33.0911 31.8514 30.6412 29.0903 31.6257L28.1748 32.7923L27.6676 32.395L28.6954 31.0858L28.779 31.0538C32.0732 29.8055 34.1487 32.8058 34.1683 32.8362C35.0611 34.2774 35.3372 35.597 34.9955 36.7682C34.5721 38.2232 33.3392 38.9378 33.0905 39.0697L30.3181 41.5135L30.2865 41.5316C29.7304 41.8328 29.1076 41.9898 28.4752 41.9882Z" fill="#172B4D"/>
<path d="M27.9525 32.6504L28.836 31.2475C30.362 30.5495 32.4795 31.1518 33.7336 32.8278C35.1412 34.7074 35.0271 37.1786 33.4787 38.3363C33.2874 38.479 33.0761 38.5985 32.8501 38.6926L30.5957 40.7072C30.4847 40.8235 30.3643 40.9306 30.2359 41.0273C29.5556 41.534 28.6995 41.7253 27.7948 41.5734C27.681 41.5546 27.568 41.5309 27.4562 41.5024C26.4632 41.2459 25.5477 40.6116 24.8767 39.7153C23.7853 38.2557 23.5771 36.3915 24.3576 35.073L27.8284 32.2713" fill="white"/>
<path d="M28.3845 41.9455C28.1736 41.9455 27.958 41.9273 27.7405 41.8911C27.6176 41.8704 27.4957 41.8445 27.3749 41.8136C26.3094 41.539 25.3299 40.861 24.6165 39.9066C23.4476 38.3455 23.2305 36.3371 24.0777 34.9083L24.1078 34.8582L27.6241 32.0199L27.8169 32.2578L28.6136 30.9929L28.7019 30.9532C30.4157 30.1703 32.6883 30.8926 33.9929 32.6342C34.7179 33.6037 35.0885 34.7517 35.0372 35.867C34.984 37.0062 34.4996 37.9741 33.672 38.5931C33.4717 38.7418 33.2553 38.8674 33.0268 38.9676L30.821 40.9397C30.7007 41.065 30.5703 41.1802 30.4311 41.2841C29.8465 41.7195 29.1377 41.9455 28.3845 41.9455ZM24.606 35.2858C23.9242 36.4902 24.1336 38.1847 25.1344 39.5213C25.761 40.3586 26.6145 40.9521 27.5357 41.19C27.6422 41.2174 27.7471 41.2386 27.847 41.2552C28.6714 41.3932 29.4304 41.2251 30.0408 40.7685C30.1531 40.6848 30.2607 40.5892 30.3598 40.4847L30.3779 40.4665L32.6732 38.4153L32.7233 38.3941C32.9222 38.3108 33.1103 38.2038 33.2837 38.0756C33.9531 37.575 34.3461 36.7802 34.3905 35.8365C34.436 34.8686 34.1093 33.869 33.4734 33.0194C32.3713 31.5451 30.4886 30.905 29.054 31.5008L28.2237 32.8208L27.9048 32.6203L24.606 35.2858Z" fill="#172B4D"/>
<path d="M33.477 38.3348C32.7968 38.843 31.9406 39.0324 31.0359 38.8824C30.9233 38.8642 30.8111 38.84 30.6973 38.811C29.7043 38.5546 28.7888 37.9206 28.1178 37.024C26.9686 35.4887 26.7773 33.7198 27.6107 32.4337L33.477 38.3348ZM30.3225 33.2316L28.9408 31.082L30.3225 33.2316Z" fill="white"/>
<path d="M31.6272 39.2545C31.4162 39.2545 31.2007 39.2364 30.9832 39.1997C30.8603 39.1787 30.7384 39.1529 30.6176 39.1222C29.5517 38.8477 28.5725 38.1697 27.8591 37.2156C26.6251 35.5666 26.4261 33.6674 27.34 32.2563L27.8819 32.6072C27.1183 33.7842 27.308 35.4027 28.3766 36.8288C29.0037 37.6661 29.8555 38.2592 30.7784 38.4975C30.8879 38.5249 30.9893 38.5461 31.0896 38.5627C31.9141 38.7007 32.673 38.5322 33.2835 38.0756L33.6707 38.5931C33.0891 39.0285 32.3799 39.2545 31.6268 39.2545H31.6272ZM30.0511 33.4063L28.6697 31.2567L29.2135 30.9077L30.5948 33.0573L30.0511 33.4063Z" fill="#172B4D"/>
<path d="M29.5371 34.0992L27.4103 32.2666L29.5371 34.0992Z" fill="white"/>
<path d="M27.6248 32.0229L27.2032 32.5112L29.3293 34.3433L29.7504 33.8551L27.6248 32.0233V32.0229Z" fill="#172B4D"/>
<path d="M29.8834 33.1764C30.3917 32.9049 31.4468 33.316 32.0206 33.9913C32.7402 34.8362 32.8829 35.8963 32.3395 36.3576C31.7958 36.8188 30.7727 36.508 30.0531 35.663C29.6493 35.1879 29.4276 34.6465 29.4064 34.1806C29.4064 34.1806 29.4461 33.8077 29.5433 33.6604" fill="white"/>
<path d="M31.7064 36.8962C31.0855 36.8962 30.3675 36.5322 29.806 35.872C29.3717 35.3626 29.1076 34.7509 29.0817 34.1975L29.0802 34.1732L29.0833 34.149C29.0937 34.0425 29.1411 33.6831 29.2699 33.486L29.8102 33.8377C29.7832 33.8832 29.745 34.0471 29.7285 34.1929C29.7543 34.6009 29.9606 35.0606 30.2977 35.4551C30.8896 36.1512 31.7295 36.4531 32.1287 36.1134C32.367 35.9117 32.3577 35.5565 32.3319 35.3626C32.2806 34.9815 32.077 34.5585 31.7735 34.2002C31.271 33.6087 30.3659 33.2828 30.0335 33.4617L29.7285 32.8929C30.4284 32.5181 31.6443 33.0537 32.2652 33.7834C32.6524 34.2384 32.9042 34.7694 32.9728 35.2758C33.0488 35.8357 32.8969 36.3074 32.5475 36.6047C32.3153 36.8022 32.0238 36.8962 31.7068 36.8962H31.7064Z" fill="#172B4D"/>
<path d="M89.2398 47.5957H62.1136C60.708 47.5957 59.4735 48.8988 59.3582 50.5054L57.7551 72.6689C57.6383 74.2754 58.6841 75.5785 60.0902 75.5785H87.2163C88.622 75.5785 89.856 74.2754 89.9717 72.6689L91.5748 50.5038C91.6901 48.8972 90.6458 47.5957 89.2398 47.5957Z" fill="#F7F8F9"/>
<path d="M87.2182 75.9016H60.092C59.3859 75.9016 58.7273 75.6101 58.2352 75.0825C57.6598 74.4636 57.3683 73.5758 57.4354 72.646L59.0385 50.481C59.1657 48.7121 60.5475 47.2725 62.1155 47.2725H89.2416C89.9478 47.2725 90.6064 47.564 91.0985 48.0919C91.6739 48.7109 91.9654 49.5983 91.8983 50.528L90.2952 72.6931C90.1679 74.462 88.7862 75.9016 87.2182 75.9016ZM62.1155 47.9172C60.8784 47.9172 59.7855 49.0884 59.6821 50.528L58.079 72.6931C58.0243 73.4455 58.2533 74.1554 58.7076 74.644C59.0747 75.0382 59.5668 75.2568 60.0905 75.2568H87.2167C88.4538 75.2568 89.5467 74.0856 89.65 72.646L91.2531 50.481C91.3079 49.7286 91.0788 49.0186 90.6245 48.53C90.2574 48.1359 89.7653 47.9172 89.2401 47.9172H62.1155Z" fill="#172B4D"/>
<path d="M89.2406 47.5957C87.8349 47.5957 86.6005 48.8988 86.4852 50.5054L84.8821 72.6704C84.7652 74.277 85.8111 75.5801 87.2171 75.5801C88.6228 75.5801 89.8568 74.277 89.9725 72.6704L91.5756 50.5054C91.6909 48.8972 90.6466 47.5957 89.2406 47.5957Z" fill="#F7F8F9"/>
<path d="M87.2173 75.9016C86.5112 75.9016 85.8522 75.6101 85.3605 75.0825C84.7851 74.4636 84.4936 73.5758 84.5603 72.646L86.1634 50.481C86.291 48.7121 87.6728 47.2725 89.2408 47.2725C89.9469 47.2725 90.6055 47.564 91.0976 48.0919C91.673 48.7109 91.9645 49.5983 91.8974 50.528L90.2943 72.6931C90.1671 74.462 88.7853 75.9016 87.2173 75.9016ZM89.2408 47.9172C88.0036 47.9172 86.9119 49.0884 86.8074 50.528L85.2043 72.6931C85.1495 73.4455 85.3786 74.1554 85.8325 74.644C86.2 75.0397 86.6917 75.2568 87.2173 75.2568C88.4545 75.2568 89.5474 74.0856 89.6507 72.646L91.2538 50.481C91.3086 49.7286 91.0791 49.0186 90.6252 48.53C90.2565 48.1359 89.7645 47.9172 89.2408 47.9172Z" fill="#172B4D"/>
<path d="M85.0916 44.3704L78.688 33.6025L47.0472 40.9737C47.0235 40.9794 47.002 40.9919 46.9852 41.0097C46.9685 41.0275 46.9574 41.0498 46.9532 41.0738C46.949 41.0979 46.9519 41.1226 46.9615 41.145C46.9711 41.1675 46.9871 41.1866 47.0075 41.2L50.0999 42.8429L84.7715 44.8756C84.8324 44.8792 84.8932 44.8665 84.9476 44.8386C85.0019 44.8108 85.0478 44.7689 85.0805 44.7174C85.1132 44.6658 85.1314 44.6064 85.1334 44.5454C85.1353 44.4844 85.1209 44.4239 85.0916 44.3704Z" fill="#F7F8F9"/>
<path d="M84.7947 45.1988C84.7808 45.1988 84.7689 45.1988 84.755 45.1972L50.014 43.1599L46.8337 41.47C46.7604 41.4225 46.7027 41.3544 46.6679 41.2743C46.633 41.1942 46.6226 41.1056 46.6378 41.0196C46.6682 40.8434 46.8001 40.7022 46.9748 40.6613L78.8482 33.2358L85.3774 44.2173C85.4943 44.4298 85.4854 44.6874 85.3562 44.8907C85.2332 45.0835 85.0207 45.1988 84.7947 45.1988ZM50.1918 42.5244L84.7916 44.5524C84.7963 44.5524 84.802 44.554 84.8082 44.5436C84.8128 44.5359 84.8128 44.5312 84.8098 44.5266L78.5308 33.9686L47.635 41.1665L50.1918 42.5244Z" fill="#172B4D"/>
<path d="M70.0124 49.8828L70.0899 43.7253C70.0899 43.7253 65.7646 41.8033 60.9083 43.3979V49.8828H70.0124Z" fill="white"/>
<path d="M70.3327 50.2057H60.5861V43.1639L60.8078 43.091C65.7251 41.4771 70.0411 43.3505 70.2216 43.4308L70.416 43.5171L70.3327 50.2057ZM61.2312 49.5609H69.6948L69.7646 43.9421C68.8966 43.6112 65.25 42.4007 61.2312 43.634V49.5609Z" fill="#172B4D"/>
<path d="M83.7432 0.896085C83.7432 0.896085 81.24 5.44741 80.5613 6.05865L78.8248 5.78716C78.7349 5.75515 78.6713 5.87354 78.7473 5.931L80.3126 6.54417C80.3126 6.54417 78.7762 8.67406 78.3038 8.89387L76.8025 8.46311C76.7616 8.45077 76.7296 8.50091 76.7585 8.53253L77.6663 9.55679L75.9552 11.2089L73.508 11.0932C73.4714 11.0907 73.4349 11.099 73.403 11.1171C73.3712 11.1352 73.3454 11.1624 73.3289 11.1951C73.3123 11.2278 73.3059 11.2647 73.3102 11.3011C73.3146 11.3375 73.3296 11.3718 73.3533 11.3998L74.759 12.3118L72.1448 14.8011L70.8378 14.7086C70.7133 14.6993 70.6693 14.8705 70.7831 14.9241L71.6515 15.326C71.6515 15.326 69.3635 18.2433 66.9332 17.4196L66.0054 17.1601C66.0054 17.1601 64.7151 15.7494 65.9036 12.5864L67.1639 12.726C67.1639 12.726 65.6699 11.2725 67.8198 8.67251L69.0704 9.45961C69.0704 9.45961 67.6312 7.42998 71.451 4.62368C71.4704 4.60959 71.4925 4.59954 71.5159 4.59412C71.5393 4.58869 71.5635 4.58801 71.5871 4.59211C71.6108 4.59621 71.6334 4.605 71.6536 4.61798C71.6738 4.63095 71.6912 4.64784 71.7047 4.66764L72.2905 5.57621C72.2905 5.57621 71.2173 2.78804 76.8661 0.893386C76.9062 0.880254 76.9486 0.87616 76.9905 0.881398C77.0323 0.886636 77.0724 0.901075 77.108 0.923678C77.1436 0.946281 77.1737 0.976487 77.1963 1.01212C77.2188 1.04776 77.2331 1.08794 77.2383 1.12978L77.3536 2.17949C77.3536 2.17949 77.551 0.85675 78.0747 0.623052C78.5984 0.389354 80.2898 0.187665 83.7432 0.896085Z" fill="white"/>
<path d="M81.4924 0.524627C82.1407 0.601755 82.8861 0.721304 83.7411 0.895998C83.7411 0.895998 82.1014 4.78248 80.5588 6.05856L78.8223 5.78553C78.816 5.78255 78.8092 5.78097 78.8022 5.7809C78.7236 5.77164 78.675 5.87654 78.7432 5.92937L80.3085 6.54254C80.3085 6.54254 78.7722 8.67243 78.2998 8.89224L76.7985 8.46148C76.7954 8.46148 76.7938 8.45994 76.7907 8.45994C76.782 8.45879 76.7732 8.46037 76.7654 8.46446C76.7576 8.46855 76.7513 8.47495 76.7474 8.48278C76.7434 8.49061 76.7419 8.49948 76.7432 8.50817C76.7445 8.51685 76.7484 8.52493 76.7545 8.53128L77.6623 9.55516L75.9512 11.2072L73.504 11.0915C73.4674 11.089 73.4309 11.0973 73.399 11.1155C73.3671 11.1336 73.3413 11.1607 73.3248 11.1935C73.3083 11.2262 73.3018 11.2631 73.3062 11.2995C73.3105 11.3359 73.3255 11.3702 73.3493 11.3981L74.755 12.3102L72.1407 14.7995L70.8338 14.7069C70.7092 14.6977 70.6653 14.8689 70.779 14.9225L71.6475 15.3243C71.6475 15.3243 69.6981 17.8094 67.4876 17.5452C67.2978 17.5217 67.1107 17.4795 66.9292 17.4191L66.0014 17.16C66.0014 17.16 64.711 15.7493 65.8999 12.5863L67.1598 12.7255C67.1598 12.7255 65.6659 11.2724 67.8158 8.67243L69.0664 9.45952C69.0664 9.45952 67.6272 7.4299 71.447 4.62359C71.484 4.59717 71.5294 4.58524 71.5746 4.59004C71.6247 4.59621 71.6718 4.62167 71.7007 4.66717L72.2865 5.57612C72.2865 5.57612 71.2133 2.78795 76.8621 0.892914C76.9023 0.879506 76.9449 0.87521 76.987 0.880337C77.029 0.885464 77.0694 0.899887 77.1052 0.922557C77.1409 0.945227 77.1712 0.975577 77.1938 1.01141C77.2164 1.04723 77.2307 1.08764 77.2358 1.1297L77.3511 2.17941C77.3511 2.17941 77.5485 0.856663 78.0722 0.622965C78.4667 0.447113 79.5218 0.289387 81.4924 0.524241V0.524627Z" fill="white"/>
<path d="M67.8244 17.8885C67.4889 17.8899 67.1555 17.8361 66.8375 17.7292L65.9178 17.4712C65.8597 17.4547 65.8072 17.4227 65.7659 17.3787C65.7084 17.315 64.3571 15.7844 65.6004 12.4729C65.626 12.406 65.6728 12.3494 65.7337 12.3118C65.7946 12.2741 65.8662 12.2576 65.9375 12.2647L66.5464 12.3333C66.2394 11.6052 66.0786 10.2686 67.5695 8.46806C67.6195 8.40784 67.6898 8.36788 67.7671 8.3556C67.8444 8.34333 67.9236 8.35959 67.9898 8.40134L68.4896 8.71525C68.3847 7.7793 68.7399 6.21515 71.257 4.366C71.3594 4.29008 71.4871 4.2564 71.6137 4.27191C71.7459 4.28733 71.8643 4.35366 71.9461 4.45547C71.996 4.23054 72.0703 4.01173 72.1678 3.80297C72.7887 2.48331 74.3343 1.40159 76.7604 0.586734C76.8452 0.558197 76.9347 0.548941 77.023 0.559739C77.1088 0.569402 77.1915 0.597283 77.2655 0.641513C77.3396 0.685742 77.4034 0.745298 77.4526 0.816189C77.5787 0.599074 77.7395 0.417052 77.9412 0.327584C78.2358 0.197237 79.1741 -0.077338 81.5319 0.203408C82.2303 0.286706 82.9969 0.413967 83.806 0.579406C83.8528 0.588987 83.8968 0.60883 83.935 0.637503C83.9731 0.666176 84.0044 0.702962 84.0266 0.745208C84.0489 0.787454 84.0614 0.834105 84.0634 0.881792C84.0654 0.92948 84.0568 0.977014 84.0382 1.02096C83.9699 1.18293 82.3502 4.99537 80.7637 6.3077C80.7133 6.34967 80.6513 6.37512 80.5859 6.38059C80.6177 6.43452 80.6331 6.49656 80.6302 6.55911C80.6272 6.62165 80.6061 6.68197 80.5693 6.73268C80.1972 7.24828 78.9435 8.94856 78.4348 9.18535C78.364 9.21851 78.2836 9.22494 78.2085 9.20347L77.6331 9.03842L77.9034 9.34307C77.9582 9.40546 77.9871 9.48648 77.984 9.56947C77.9809 9.65246 77.9461 9.73111 77.8868 9.78926L76.1758 11.4413C76.1439 11.4716 76.1062 11.4951 76.065 11.5105C76.0237 11.5259 75.9798 11.5328 75.9359 11.5308L74.005 11.4398L74.9309 12.0402C74.9718 12.0669 75.0062 12.1024 75.0314 12.1441C75.0567 12.1859 75.0721 12.2329 75.0767 12.2815C75.0812 12.33 75.0747 12.379 75.0576 12.4247C75.0405 12.4705 75.0133 12.5117 74.978 12.5454L72.3637 15.0351C72.331 15.0659 72.2922 15.0896 72.2499 15.1047C72.2075 15.1198 72.1626 15.1261 72.1177 15.123L71.8825 15.1065C71.9348 15.1627 71.9653 15.2358 71.9686 15.3125C71.972 15.3893 71.9478 15.4647 71.9006 15.5253C71.8246 15.6267 70.0229 17.8885 67.8244 17.8885ZM66.1924 16.8781L67.02 17.1102L67.0365 17.1149C67.1973 17.1693 67.3632 17.2074 67.5302 17.2267C69.0831 17.4118 70.5389 16.0667 71.1251 15.4385L70.6484 15.2187C70.5553 15.1768 70.4801 15.1031 70.4364 15.0108C70.3927 14.9185 70.3834 14.8136 70.4101 14.715C70.4344 14.6158 70.4933 14.5284 70.5762 14.4686C70.6591 14.4088 70.7606 14.3805 70.8625 14.3888L72.0267 14.4705L74.2418 12.3619L73.1774 11.6716C73.1515 11.6547 73.128 11.6344 73.1076 11.611C73.0426 11.535 73.0015 11.4414 72.9897 11.3421C72.9778 11.2428 72.9956 11.1422 73.0409 11.053C73.1335 10.8694 73.3232 10.7599 73.5311 10.7753L75.831 10.8833L77.2201 9.54206L76.5174 8.74842C76.4679 8.69335 76.4364 8.62434 76.4275 8.55079C76.4185 8.47723 76.4324 8.40269 76.4673 8.33732C76.5071 8.26195 76.5719 8.20274 76.6505 8.16982C76.7292 8.1369 76.8168 8.13232 76.8985 8.15685L78.2524 8.54519C78.5424 8.30995 79.2077 7.49547 79.8042 6.69296L78.6292 6.23327C78.6013 6.22255 78.5752 6.20773 78.5517 6.18931C78.4803 6.13593 78.4287 6.0603 78.405 5.97435C78.3813 5.88839 78.3869 5.797 78.421 5.71459C78.4575 5.62351 78.5258 5.54874 78.6132 5.50408C78.7006 5.45942 78.8012 5.4479 78.8964 5.47163L80.4644 5.71767C81.6275 4.66333 82.8569 2.0888 83.2881 1.13473C82.6819 1.01703 82.0719 0.920435 81.459 0.845113C79.6616 0.631083 78.5852 0.751017 78.2085 0.917613C77.9944 1.01325 77.7561 1.68388 77.6744 2.22686C77.6618 2.30389 77.6222 2.3739 77.5626 2.42426C77.503 2.47461 77.4273 2.50199 77.3493 2.50144C77.271 2.50012 77.1959 2.47029 77.138 2.41754C77.0801 2.36479 77.0435 2.29274 77.035 2.21491L76.9258 1.21494C74.1747 2.14665 73.1454 3.27349 72.769 4.05479C72.3834 4.85423 72.5886 5.44001 72.5959 5.46431C72.6231 5.53879 72.622 5.62068 72.5928 5.6944C72.5636 5.76812 72.5082 5.82851 72.4374 5.86409C72.3665 5.89967 72.285 5.90795 72.2084 5.88735C72.1319 5.86675 72.0655 5.81871 72.0221 5.75238L71.5211 4.97724C68.1842 7.4893 69.2894 9.20501 69.338 9.2779C69.3795 9.33944 69.3987 9.41331 69.3924 9.48725C69.386 9.56119 69.3546 9.63075 69.3033 9.68436C69.2522 9.73776 69.1843 9.7719 69.1109 9.78103C69.0376 9.79017 68.9633 9.77373 68.9007 9.7345L67.8942 9.10051C66.229 11.2774 67.3431 12.4471 67.3933 12.4968C67.4402 12.5445 67.4713 12.6054 67.4825 12.6713C67.4936 12.7373 67.4843 12.8051 67.4557 12.8655C67.427 12.9257 67.3803 12.9755 67.3221 13.0079C67.2638 13.0403 67.1969 13.0537 67.1306 13.0464L66.1241 12.9342C65.2815 15.3567 65.9891 16.5931 66.1924 16.8781Z" fill="#172B4D"/>
<path d="M65.7215 21.3109C65.6708 21.3108 65.6208 21.2988 65.5756 21.2758C65.5303 21.2528 65.4911 21.2195 65.4612 21.1786C65.4312 21.1377 65.4112 21.0903 65.4029 21.0403C65.3946 20.9902 65.3982 20.939 65.4134 20.8906C67.2806 15.0608 70.4795 9.95458 74.6648 6.12247C77.8059 3.24791 80.4837 2.02042 80.7784 1.89162C80.8558 1.85702 80.9437 1.85399 81.0233 1.88315C81.1029 1.91232 81.1681 1.97138 81.2049 2.0478C81.2238 2.08695 81.2345 2.12954 81.2363 2.17298C81.2382 2.21641 81.2311 2.25976 81.2157 2.30038C81.2002 2.341 81.1766 2.37803 81.1462 2.4092C81.1159 2.44037 81.0796 2.46502 81.0394 2.48164C80.6083 2.67292 70.4429 7.30099 66.0281 21.0876C66.0071 21.1524 65.9662 21.2089 65.9111 21.249C65.856 21.289 65.7896 21.3106 65.7215 21.3105V21.3109Z" fill="#172B4D"/>
<path d="M76.6889 17.3179L86.4641 21.708C86.6962 21.8218 86.8374 22.0647 86.8192 22.3223L85.289 44.2263C85.2822 44.3247 85.2525 44.4202 85.2023 44.5052C85.1521 44.5901 85.0827 44.6621 84.9996 44.7154C84.9166 44.7688 84.8223 44.802 84.7242 44.8124C84.626 44.8228 84.5268 44.8102 84.4345 44.7754L75.0978 41.376" fill="white"/>
<path d="M84.6563 45.1398C84.5425 45.1398 84.4288 45.1197 84.3177 45.0773L74.9845 41.6794L75.2058 41.074L84.5425 44.4738C84.5882 44.4917 84.6376 44.4984 84.6864 44.4934C84.7353 44.4884 84.7822 44.4717 84.8233 44.4449C84.8642 44.4189 84.8985 44.3837 84.9233 44.342C84.9481 44.3003 84.9627 44.2534 84.966 44.205L86.4966 22.301C86.5011 22.239 86.4869 22.177 86.4557 22.1231C86.4246 22.0693 86.3779 22.0261 86.3219 21.9991L76.554 17.6124L76.8182 17.0239L86.5937 21.4141C86.7677 21.4965 86.9128 21.6294 87.01 21.7956C87.1072 21.9617 87.1521 22.1533 87.1386 22.3454L85.6084 44.2493C85.5987 44.398 85.554 44.5422 85.478 44.6703C85.402 44.7985 85.2969 44.9068 85.1711 44.9867C85.0181 45.0868 84.8392 45.1402 84.6563 45.1402V45.1398Z" fill="#172B4D"/>
<path d="M76.3146 17.2192L48.6254 17.2755C48.3096 17.2755 48.0485 17.5197 48.0273 17.8336L46.4469 40.4479C46.4411 40.5296 46.4522 40.6116 46.4793 40.6889C46.5064 40.7662 46.5491 40.8371 46.6048 40.8972C46.6604 40.9574 46.7277 41.0054 46.8027 41.0385C46.8776 41.0716 46.9585 41.089 47.0404 41.0896L74.7084 41.3383C74.8614 41.34 75.0092 41.283 75.1215 41.1792C75.2339 41.0754 75.3023 40.9325 75.3127 40.7799L76.9158 17.8625C76.9215 17.7801 76.9102 17.6974 76.8826 17.6195C76.8549 17.5417 76.8116 17.4704 76.7552 17.41C76.6988 17.3497 76.6305 17.3016 76.5547 17.2688C76.4789 17.236 76.3972 17.2191 76.3146 17.2192Z" fill="white"/>
<path d="M74.711 41.6618H74.7018L47.0353 41.4127C46.9093 41.411 46.785 41.384 46.6697 41.3332C46.5544 41.2823 46.4505 41.2088 46.3643 41.1169C46.2791 41.0244 46.2136 40.9155 46.1719 40.7969C46.1301 40.6783 46.1129 40.5525 46.1213 40.427L47.7017 17.8131C47.7188 17.5804 47.823 17.3627 47.9936 17.2035C48.1642 17.0443 48.3885 16.9553 48.6218 16.9543L76.311 16.8979H76.3126C76.4392 16.8979 76.5646 16.9239 76.6807 16.9744C76.7969 17.0249 76.9015 17.0987 76.9879 17.1913C77.0744 17.2839 77.1409 17.3932 77.1832 17.5126C77.2256 17.632 77.243 17.7588 77.2342 17.8852L75.6327 40.8045C75.6159 41.0375 75.5115 41.2554 75.3405 41.4145C75.1695 41.5736 74.9446 41.6619 74.711 41.6618ZM76.3126 17.5427L48.6234 17.599C48.5531 17.5993 48.4855 17.626 48.434 17.6738C48.3825 17.7216 48.3508 17.787 48.3453 17.857L46.765 40.471C46.7623 40.5088 46.7674 40.5468 46.78 40.5826C46.7925 40.6184 46.8123 40.6513 46.8381 40.6792C46.8639 40.707 46.8951 40.7293 46.9298 40.7446C46.9645 40.76 47.002 40.768 47.0399 40.7683L74.7079 41.017H74.711C74.7815 41.0168 74.8493 40.9899 74.9008 40.9418C74.9523 40.8937 74.9837 40.8278 74.9887 40.7575L76.5906 17.8389C76.5934 17.8008 76.5882 17.7626 76.5755 17.7266C76.5627 17.6906 76.5427 17.6577 76.5165 17.6299C76.4904 17.602 76.4588 17.5799 76.4237 17.5649C76.3886 17.5499 76.3507 17.5424 76.3126 17.5427Z" fill="#172B4D"/>
<path d="M83.1343 73.4854L76.9175 62.3369L45.3341 70.1149L53.0098 72.8664L83.1343 73.4854Z" fill="#F7F8F9"/>
<path d="M83.6905 73.8187L52.9513 73.1874L44.2189 70.0564L77.0787 61.9634L83.6905 73.8187ZM53.0712 72.5442L82.579 73.1496L76.7571 62.7065L46.4521 70.1702L53.0712 72.5442Z" fill="#172B4D"/>
<path d="M74.9629 42.8096L84.723 46.4658C84.9324 46.5445 85.0674 46.7508 85.0539 46.9737L83.4978 73.1162C83.4931 73.1961 83.4697 73.2737 83.4294 73.3429C83.3892 73.412 83.3333 73.4708 83.2662 73.5143C83.1991 73.5579 83.1227 73.5851 83.0432 73.5937C82.9636 73.6023 82.8832 73.5921 82.8083 73.564L73.5021 70.0778" fill="white"/>
<path d="M82.9896 73.9211C82.8908 73.9211 82.7921 73.903 82.6949 73.8667L73.3887 70.3805L73.6151 69.7766L82.9213 73.2628C82.9984 73.2917 83.0594 73.2643 83.0898 73.2447C83.1147 73.229 83.1353 73.2076 83.1501 73.1822C83.1649 73.1568 83.1733 73.1282 83.1747 73.0989L84.7307 46.9548C84.7333 46.9148 84.7228 46.875 84.701 46.8414C84.6791 46.8077 84.6469 46.7821 84.6093 46.7682L74.8491 43.1123L75.0755 42.5088L84.8356 46.1647C85.0028 46.2265 85.1456 46.3407 85.2427 46.4902C85.3397 46.6398 85.3859 46.8166 85.3744 46.9946L83.8183 73.1382C83.8115 73.2687 83.7737 73.3957 83.708 73.5087C83.6422 73.6216 83.5505 73.7173 83.4404 73.7877C83.3039 73.8756 83.1473 73.9211 82.9896 73.9211Z" fill="#172B4D"/>
<path d="M74.6658 42.728L46.9068 42.7843C46.65 42.7843 46.4391 42.9829 46.4209 43.2394L44.6613 69.3044C44.657 69.3707 44.6663 69.4371 44.6886 69.4997C44.7109 69.5623 44.7457 69.6196 44.7909 69.6683C44.836 69.717 44.8907 69.756 44.9514 69.7828C45.0121 69.8097 45.0777 69.8239 45.1441 69.8246L73.0369 70.0749C73.1616 70.0764 73.2822 70.0298 73.3734 69.9448C73.4647 69.8598 73.5197 69.7429 73.5271 69.6183L75.1517 43.2467C75.1565 43.1802 75.1474 43.1133 75.1251 43.0504C75.1028 42.9875 75.0677 42.9299 75.0221 42.8812C74.9765 42.8325 74.9213 42.7938 74.86 42.7674C74.7987 42.7411 74.7326 42.7277 74.6658 42.728Z" fill="white"/>
<path d="M73.0438 70.3963H73.036L45.1432 70.146C45.0329 70.1447 44.924 70.121 44.8231 70.0765C44.7221 70.032 44.6313 69.9675 44.5559 69.8869C44.4807 69.8059 44.423 69.7105 44.3862 69.6063C44.3493 69.5022 44.3343 69.3916 44.3419 69.2814L46.1012 43.2164C46.1156 43.012 46.2066 42.8206 46.3562 42.6805C46.5057 42.5404 46.7026 42.462 46.9075 42.4609L74.6681 42.4046H74.6696C74.7802 42.4046 74.8895 42.4273 74.991 42.4712C75.0924 42.5151 75.1838 42.5793 75.2595 42.6599C75.3351 42.7405 75.3935 42.8357 75.4309 42.9397C75.4684 43.0437 75.4841 43.1543 75.4771 43.2646L73.8528 69.6362C73.8402 69.8422 73.7495 70.0355 73.5991 70.1768C73.4487 70.3181 73.2501 70.3966 73.0438 70.3963ZM74.6696 43.0494L46.9102 43.1053C46.8686 43.1057 46.8287 43.1217 46.7984 43.1501C46.768 43.1785 46.7494 43.2173 46.7463 43.2588L44.9871 69.3238C44.9854 69.3463 44.9884 69.3688 44.996 69.39C45.0036 69.4112 45.0155 69.4306 45.031 69.4469C45.0464 69.4633 45.065 69.4765 45.0856 69.4855C45.1062 69.4946 45.1284 69.4994 45.151 69.4997L73.0438 69.75H73.0453C73.0872 69.7499 73.1274 69.7338 73.1578 69.7051C73.1883 69.6763 73.2067 69.6371 73.2092 69.5953L74.8335 43.2237C74.8348 43.2014 74.8316 43.179 74.8241 43.1579C74.8165 43.1368 74.8048 43.1175 74.7895 43.1011C74.7741 43.0848 74.7555 43.0719 74.7349 43.063C74.7143 43.0541 74.6921 43.0495 74.6696 43.0494ZM56.0618 30.7221L55.4182 30.6677C55.535 29.2933 54.5104 28.0796 53.1348 27.9643C52.8071 27.9359 52.4771 27.9726 52.1636 28.0723C51.8502 28.172 51.5595 28.3327 51.3084 28.5451C51.0563 28.7561 50.8486 29.0151 50.6974 29.307C50.5463 29.599 50.4547 29.9181 50.428 30.2458L49.7844 30.1914C49.9313 28.4634 51.4542 27.1769 53.188 27.3211C54.9199 27.468 56.2076 28.9928 56.0618 30.7224V30.7221ZM73.5613 30.572H72.9161C72.9161 29.193 71.7928 28.0704 70.4126 28.0704C69.0327 28.0704 67.9094 29.193 67.9094 30.572H67.2642C67.2642 28.8367 68.676 27.4256 70.4126 27.4256C72.1495 27.4241 73.5613 28.8367 73.5613 30.572Z" fill="#172B4D"/>
<path d="M70.785 48.5078C70.5622 48.5081 70.3418 48.4621 70.1377 48.3727C69.9337 48.2833 69.7505 48.1524 69.5997 47.9884C69.4489 47.8243 69.3339 47.6307 69.262 47.4199C69.1901 47.209 69.1628 46.9855 69.1819 46.7635C69.2191 46.3394 69.4232 45.9474 69.7494 45.6738C70.0756 45.4001 70.4972 45.2673 70.9213 45.3045C71.3455 45.3417 71.7375 45.5458 72.0111 45.872C72.2847 46.1982 72.4176 46.6198 72.3804 47.0439C72.3625 47.254 72.3031 47.4585 72.2057 47.6455C72.1082 47.8325 71.9747 47.9983 71.8127 48.1333C71.5253 48.3759 71.1611 48.5086 70.785 48.5078ZM69.8271 46.821C69.8104 47.0101 69.8502 47.1999 69.9415 47.3664C70.0327 47.5328 70.1713 47.6685 70.3396 47.7562C70.508 47.8439 70.6986 47.8797 70.8873 47.859C71.076 47.8383 71.2543 47.7622 71.3997 47.6401C71.5458 47.5185 71.6524 47.3563 71.706 47.174C71.7597 46.9917 71.7579 46.7976 71.7009 46.6163C71.644 46.435 71.5344 46.2747 71.3861 46.1559C71.2379 46.037 71.0576 45.9649 70.8683 45.9487C70.6146 45.9264 70.3624 46.0058 70.1672 46.1694C69.9719 46.3329 69.8496 46.5673 69.8271 46.821ZM70.5617 52.51C70.3392 52.5099 70.119 52.4636 69.9153 52.3739C69.7116 52.2843 69.5287 52.1533 69.3783 51.9893C69.2279 51.8253 69.1132 51.6318 69.0415 51.4211C68.9697 51.2104 68.9426 50.9871 68.9617 50.7653C68.9997 50.3416 69.2042 49.9502 69.5303 49.677C69.8564 49.4037 70.2775 49.2709 70.7013 49.3076C70.9114 49.3258 71.1159 49.3853 71.3029 49.4826C71.49 49.58 71.656 49.7133 71.7915 49.8749C71.9274 50.036 72.0299 50.2225 72.0932 50.4235C72.1565 50.6246 72.1793 50.8362 72.1602 51.0461C72.1243 51.4455 71.9405 51.8171 71.6447 52.0879C71.349 52.3587 70.9627 52.5093 70.5617 52.51ZM70.5602 49.9462C70.3203 49.9464 70.0892 50.0363 69.9122 50.1982C69.7353 50.3601 69.6253 50.5824 69.6038 50.8213C69.5925 50.9466 69.6061 51.073 69.6439 51.1931C69.6817 51.3131 69.7429 51.4245 69.824 51.5208C69.9048 51.6175 70.004 51.6974 70.1158 51.7557C70.2276 51.814 70.3497 51.8496 70.4753 51.8605C70.6007 51.8719 70.7271 51.8583 70.8473 51.8205C70.9674 51.7828 71.0789 51.7217 71.1753 51.6407C71.3262 51.5144 71.4346 51.3446 71.4858 51.1545C71.5369 50.9644 71.5283 50.7631 71.4612 50.5781C71.394 50.393 71.2715 50.2331 71.1103 50.1201C70.9491 50.007 70.7571 49.9463 70.5602 49.9462ZM71.0538 67.6178C71.0368 67.6178 71.0202 67.6178 71.0021 67.6163L67.9749 67.4539C67.851 67.4478 67.7296 67.417 67.6177 67.3634C67.5059 67.3097 67.4059 67.2343 67.3235 67.1415C67.2531 67.0618 67.1995 66.9687 67.1658 66.8678C67.1322 66.7669 67.1192 66.6602 67.1276 66.5542L67.8777 54.9005C67.917 54.4621 68.3104 54.1435 68.7793 54.1694L71.8066 54.3317C71.9305 54.3377 72.0519 54.3685 72.1638 54.4221C72.2757 54.4757 72.3757 54.5512 72.4579 54.6441C72.6021 54.8111 72.6719 55.0205 72.6538 55.2314L71.9037 66.8851C71.8659 67.3081 71.4969 67.6178 71.0538 67.6178ZM68.7296 54.8142C68.62 54.8142 68.5275 54.8732 68.5213 54.9522L67.7712 66.6043C67.7696 66.6253 67.7722 66.6463 67.7791 66.6661C67.7859 66.686 67.7968 66.7042 67.811 66.7196C67.8621 66.7749 67.9331 66.8076 68.0084 66.8107L71.0353 66.973C71.1521 66.9792 71.2524 66.9182 71.2601 66.8365L72.0102 55.1828C72.0119 55.1619 72.0093 55.1409 72.0025 55.121C71.9956 55.1011 71.9847 55.0829 71.9705 55.0675C71.9194 55.0123 71.8485 54.9796 71.7734 54.9765L68.7461 54.8142H68.7296Z" fill="#172B4D"/>
<path d="M67.669 60.5442L67.6324 61.1879L71.82 61.4277L71.857 60.7837L67.669 60.5442ZM67.9417 57.3789L67.9046 58.0225L72.0927 58.2624L72.1297 57.6188L67.9417 57.3789ZM67.5059 63.686L67.4689 64.3297L71.6569 64.5695L71.6939 63.9259L67.5059 63.686Z" fill="#172B4D"/>
<path d="M70.033 54.4434L69.1842 67.1915L69.8278 67.2343L70.677 54.4862L70.033 54.4434ZM64.0483 49.415H64.0421L48.6147 49.2662C48.4684 49.2602 48.3302 49.1977 48.2291 49.092C48.128 48.9862 48.0718 48.8453 48.0724 48.699C48.073 48.5526 48.1303 48.4122 48.2323 48.3073C48.3343 48.2023 48.473 48.141 48.6193 48.1362H48.6255L64.0529 48.2847C64.3657 48.2878 64.6159 48.5427 64.6129 48.8551C64.6111 49.0038 64.551 49.146 64.4453 49.2507C64.3397 49.3555 64.1971 49.4145 64.0483 49.415Z" fill="#172B4D"/>
<path d="M44.4845 67.5106V66.8662L62.7325 66.8538C63.7706 66.8326 64.7181 65.9483 64.8396 64.8847L66.3425 47.6139C66.4003 47.0994 66.2603 46.6336 65.9491 46.2923C65.6502 45.9649 65.2253 45.7886 64.744 45.7994L46.5261 45.6887L46.5292 45.0439L64.7394 45.1546C65.3969 45.1423 65.9992 45.3914 66.4261 45.8584C66.8646 46.3393 67.0621 46.9856 66.9845 47.679L65.4817 64.9499C65.3251 66.332 64.0957 67.4712 62.7398 67.5001L44.4845 67.5106Z" fill="#172B4D"/>
<path d="M68.2734 76.4285C67.3705 76.3691 66.5243 75.967 65.9079 75.3044C65.6226 74.9994 65.3584 74.7082 65.1035 74.4259L65.058 74.3758C63.0145 72.1155 61.9883 70.981 58.1778 71.3844C54.4687 71.7758 51.4812 73.1109 51.4523 73.1244C50.59 73.5186 49.6065 73.5543 48.718 73.2234C47.8294 72.8925 47.1087 72.2223 46.7143 71.3601C46.3842 70.6401 46.3023 69.8309 46.4817 69.0593C46.6611 68.2878 47.0915 67.5977 47.7054 67.0972C47.9389 66.908 48.195 66.7486 48.4678 66.6225C48.6271 66.5496 52.4148 64.8324 57.2469 64.2909C64.1166 63.5219 67.2075 66.2191 71.1379 70.4226C71.46 70.7647 71.7107 71.1673 71.8757 71.6072C72.0407 72.0471 72.1166 72.5153 72.099 72.9848C72.0701 73.9156 71.6764 74.7977 71.003 75.4409L70.9648 75.4756C70.6216 75.7965 70.2184 76.0463 69.7784 76.2108C69.3384 76.3754 68.8702 76.4513 68.4007 76.4343C68.3583 76.4343 68.3158 76.4316 68.2734 76.4285Z" fill="white"/>
<path d="M45.8064 78.3307L37.2884 63.03C37.2592 62.9777 37.2406 62.92 37.2336 62.8605C37.2267 62.8009 37.2316 62.7405 37.2481 62.6829C37.2646 62.6252 37.2923 62.5714 37.3297 62.5245C37.3671 62.4775 37.4133 62.4385 37.4658 62.4095L42.8856 59.3969C42.938 59.3676 42.9956 59.3489 43.0552 59.3419C43.1148 59.335 43.1752 59.3399 43.2329 59.3564C43.2907 59.3729 43.3445 59.4006 43.3915 59.438C43.4384 59.4754 43.4775 59.5217 43.5065 59.5743L52.0248 74.8749C52.1478 75.0947 52.0688 75.3724 51.8474 75.495L46.4277 78.508C46.3217 78.5664 46.1969 78.5804 46.0805 78.5472C45.9642 78.514 45.8657 78.4362 45.8064 78.3307Z" fill="white"/>
<path d="M46.2193 78.8763C46.1448 78.8763 46.0708 78.8655 45.9964 78.8443C45.8942 78.8157 45.7988 78.767 45.7156 78.7011C45.6325 78.6352 45.5632 78.5535 45.512 78.4606L37.0226 63.2101C36.9707 63.1175 36.9377 63.0155 36.9254 62.91C36.9132 62.8046 36.9219 62.6978 36.9512 62.5957C36.9801 62.4937 37.0289 62.3984 37.0948 62.3153C37.1607 62.2322 37.2425 62.163 37.3353 62.1118L42.7049 59.1277C42.7976 59.0758 42.8997 59.0429 43.0052 59.0307C43.1107 59.0185 43.2176 59.0274 43.3197 59.0567C43.5279 59.1157 43.6991 59.2522 43.804 59.4404L52.2934 74.6909C52.3973 74.8781 52.4227 75.0989 52.3641 75.3047C52.3054 75.5106 52.1676 75.6848 51.9807 75.7892L46.6111 78.7745C46.4912 78.841 46.3564 78.876 46.2193 78.8763ZM43.0979 59.671C43.0705 59.6711 43.0435 59.6778 43.0192 59.6907L37.6496 62.6759C37.612 62.6969 37.5842 62.7318 37.5721 62.7731C37.5661 62.7935 37.5642 62.8149 37.5665 62.836C37.5688 62.8571 37.5753 62.8776 37.5856 62.8961L46.075 78.1467C46.096 78.1841 46.1309 78.2118 46.1721 78.2237C46.2133 78.2356 46.2575 78.2308 46.2952 78.2103L51.6649 75.2262C51.7022 75.2053 51.7298 75.1704 51.7415 75.1292C51.7532 75.088 51.7481 75.0439 51.7273 75.0064L43.2379 59.7559C43.2169 59.7183 43.182 59.6905 43.1407 59.6784C43.1315 59.6757 43.1164 59.671 43.0979 59.671Z" fill="#172B4D"/>
<path d="M58.8928 63.7737H48.029C47.8371 63.7735 47.6531 63.6972 47.5173 63.5615C47.3815 63.4258 47.3051 63.2418 47.3048 63.0498V62.9588C47.3052 62.7669 47.3817 62.583 47.5174 62.4474C47.6532 62.3118 47.8372 62.2356 48.029 62.2354H58.8928C59.0847 62.2356 59.2687 62.3118 59.4045 62.4474C59.5402 62.583 59.6167 62.7669 59.6171 62.9588V63.0498C59.6171 63.1449 59.5983 63.2391 59.5619 63.3269C59.5255 63.4148 59.4722 63.4946 59.4049 63.5618C59.3377 63.629 59.2578 63.6823 59.17 63.7187C59.0821 63.755 58.9879 63.7737 58.8928 63.7737Z" fill="#F7F8F9"/>
<path d="M58.8467 64.0964H48.0739C47.7842 64.0962 47.5064 63.9811 47.3014 63.7763C47.0965 63.5716 46.9811 63.2939 46.9806 63.0042C46.9811 62.7145 47.0965 62.4369 47.3014 62.2321C47.5064 62.0274 47.7842 61.9123 48.0739 61.9121H58.8467C59.1363 61.9123 59.4141 62.0274 59.619 62.2322C59.8239 62.4369 59.9392 62.7146 59.9396 63.0042C59.9392 63.2939 59.8239 63.5716 59.619 63.7763C59.4141 63.9811 59.1363 64.0962 58.8467 64.0964ZM48.0739 62.5569C47.8278 62.5569 47.6262 62.757 47.6262 63.0042C47.6262 63.2499 47.8263 63.452 48.0739 63.452H58.8467C59.0923 63.452 59.2944 63.2514 59.2944 63.0042C59.2944 62.7586 59.0939 62.5569 58.8467 62.5569H48.0739Z" fill="#172B4D"/>
<path d="M20.3734 63.7659L48.4135 63.6413C49.6764 63.6216 49.3999 62.5507 49.1042 61.2947L45.1556 44.905C45.0492 44.119 44.07 44.2933 42.8082 44.3134L13.9988 45.3311C12.7354 45.3508 12.8739 46.3719 13.1696 47.6295L17.5663 62.4489C17.8625 63.7049 19.1104 63.7871 20.3734 63.7659Z" fill="#F1F2F4"/>
<path d="M20.0293 64.0914C19.0035 64.0914 17.599 63.9592 17.2558 62.5304L12.858 47.7017C12.6498 46.8171 12.4967 45.9799 12.9047 45.455C13.131 45.165 13.497 45.015 13.9949 45.0057L42.7986 43.988C42.9914 43.9849 43.1719 43.9788 43.345 43.973C44.3696 43.9363 45.3368 43.9016 45.4749 44.8422L49.4358 61.2863C49.656 62.2207 49.8472 63.0278 49.4435 63.5438C49.2325 63.8138 48.8878 63.9549 48.4188 63.9622L20.3772 64.0868C20.2692 64.0899 20.1523 64.0914 20.0293 64.0914ZM13.4831 47.5452L17.8829 62.3726C18.1015 63.3024 18.926 63.4663 20.371 63.442H20.3741L48.4142 63.3175C48.6737 63.3132 48.8515 63.2569 48.9348 63.1478C49.1473 62.8747 48.9742 62.142 48.8072 61.4336L48.7906 61.3653L44.839 44.9618L44.8374 44.9452C44.7935 44.6158 44.4668 44.5781 43.3678 44.6174C43.1919 44.6236 43.0064 44.6313 42.8151 44.6344L14.0118 45.6521C13.5637 45.6598 13.4515 45.804 13.4149 45.8522C13.1812 46.1495 13.3269 46.8807 13.4831 47.5452Z" fill="#172B4D"/>
<path d="M42.2396 61.7825C42.1681 61.7824 42.0987 61.7587 42.0421 61.715C41.9856 61.6714 41.945 61.6102 41.9268 61.5411L41.2485 58.935C41.2377 58.894 41.235 58.8513 41.2408 58.8094C41.2465 58.7674 41.2605 58.727 41.2819 58.6905C41.3034 58.6539 41.3318 58.622 41.3657 58.5965C41.3995 58.571 41.4381 58.5525 41.4791 58.542C41.5618 58.5206 41.6497 58.5329 41.7234 58.5761C41.7971 58.6193 41.8507 58.69 41.8725 58.7726L42.5508 61.3788C42.5635 61.4264 42.565 61.4763 42.5553 61.5246C42.5456 61.5729 42.5249 61.6184 42.4948 61.6574C42.4647 61.6965 42.426 61.728 42.3818 61.7497C42.3375 61.7714 42.2889 61.7827 42.2396 61.7825ZM41.3183 61.7976C41.2468 61.7975 41.1774 61.7738 41.1208 61.7302C41.0642 61.6865 41.0237 61.6253 41.0055 61.5562L40.3268 58.9485C40.3162 58.9075 40.3137 58.8648 40.3195 58.8229C40.3253 58.781 40.3394 58.7406 40.3608 58.7041C40.3822 58.6676 40.4106 58.6357 40.4444 58.6101C40.4782 58.5846 40.5167 58.566 40.5576 58.5553C40.5986 58.5447 40.6413 58.5422 40.6832 58.548C40.7251 58.5538 40.7655 58.5679 40.802 58.5893C40.8385 58.6107 40.8704 58.6391 40.896 58.6729C40.9215 58.7067 40.9401 58.7452 40.9508 58.7861L41.6295 61.3938C41.6421 61.4414 41.6436 61.4913 41.6338 61.5396C41.6241 61.5879 41.6034 61.6333 41.5733 61.6723C41.5432 61.7113 41.5046 61.7429 41.4604 61.7646C41.4162 61.7863 41.3676 61.7976 41.3183 61.7976ZM40.3966 61.8126C40.3253 61.8122 40.2561 61.7884 40.1996 61.7449C40.1431 61.7013 40.1024 61.6405 40.0839 61.5716L39.4051 58.9654C39.3944 58.9245 39.3919 58.8818 39.3977 58.8398C39.4035 58.7979 39.4175 58.7575 39.439 58.721C39.4605 58.6845 39.4889 58.6525 39.5228 58.6271C39.5566 58.6016 39.5951 58.583 39.6361 58.5725C39.6771 58.5617 39.7198 58.5591 39.7617 58.5649C39.8037 58.5706 39.8441 58.5846 39.8806 58.6061C39.9171 58.6275 39.949 58.6559 39.9745 58.6897C40 58.7236 40.0186 58.7621 40.0291 58.8031L40.7078 61.4092C40.7203 61.4568 40.7218 61.5067 40.712 61.5549C40.7022 61.6031 40.6815 61.6485 40.6514 61.6875C40.6214 61.7264 40.5828 61.758 40.5386 61.7797C40.4944 61.8014 40.4458 61.8126 40.3966 61.8126Z" fill="#172B4D"/>
<path d="M48.7074 63.649L48.8123 63.6247C49.0062 63.5788 49.174 63.4579 49.2787 63.2884C49.3835 63.1189 49.4167 62.9148 49.3711 62.7208L45.143 44.8533C45.0968 44.6594 44.9757 44.4918 44.8061 44.3871C44.6365 44.2824 44.4323 44.2493 44.2383 44.2949L44.1334 44.3192C43.9394 44.3651 43.7716 44.4862 43.6669 44.6557C43.5622 44.8253 43.5291 45.0296 43.575 45.2235L47.8027 63.0906C47.8487 63.2846 47.9698 63.4524 48.1395 63.5571C48.3091 63.6618 48.5134 63.6949 48.7074 63.649Z" fill="#F7F8F9"/>
<path d="M48.5689 63.9825C48.3613 63.9823 48.1579 63.924 47.9816 63.8143C47.8559 63.7373 47.7467 63.636 47.6605 63.5165C47.5742 63.3969 47.5126 63.2614 47.4791 63.1178L43.2722 45.3433C43.2041 45.0538 43.2535 44.7491 43.4098 44.496C43.566 44.2429 43.8162 44.0621 44.1055 43.9932C44.2497 43.958 44.3993 43.9515 44.5459 43.9742C44.6925 43.997 44.8332 44.0484 44.9599 44.1256C45.0866 44.2028 45.1968 44.3043 45.2842 44.4242C45.3716 44.5441 45.4344 44.68 45.4692 44.8242L49.6757 62.5992C49.7097 62.7426 49.715 62.8914 49.6913 63.037C49.6677 63.1825 49.6154 63.3219 49.5376 63.4472C49.4605 63.5728 49.3591 63.6819 49.2395 63.7681C49.1199 63.8543 48.9844 63.9159 48.8408 63.9493L48.8284 63.9524C48.7436 63.972 48.6557 63.9825 48.5689 63.9825ZM44.3774 44.6044C44.3412 44.6044 44.3045 44.6091 44.2683 44.6179C43.9995 44.6819 43.8398 44.938 43.9008 45.1945L48.1077 62.9694C48.1362 63.0936 48.2122 63.1985 48.3217 63.2652C48.4293 63.3319 48.5585 63.3531 48.6831 63.3226L48.6966 63.3195C48.8196 63.291 48.9256 63.215 48.9927 63.1059C49.0594 62.9979 49.0807 62.8691 49.0502 62.7461L44.8421 44.9716C44.817 44.8671 44.7576 44.7741 44.6733 44.7076C44.589 44.641 44.4848 44.6047 44.3774 44.6044Z" fill="#172B4D"/>
<path d="M37.1903 46.2865C37.1048 46.2877 37.0224 46.255 36.9611 46.1954C36.8998 46.1359 36.8647 46.0544 36.8634 45.9689C36.8622 45.8835 36.895 45.801 36.9545 45.7397C37.0141 45.6785 37.0956 45.6433 37.181 45.6421L43.5768 45.4358C43.7561 45.4234 43.905 45.5692 43.9096 45.7482C43.9111 45.7905 43.9041 45.8328 43.8891 45.8725C43.8742 45.9121 43.8515 45.9485 43.8224 45.9793C43.7933 46.0102 43.7584 46.035 43.7197 46.0523C43.681 46.0696 43.6393 46.0791 43.5969 46.0802L37.2007 46.2865H37.1903Z" fill="#172B4D"/>
<path d="M82.1553 69.3821L71.1774 66.8789C70.7146 66.7462 70.2824 66.5235 69.9057 66.2236C69.529 65.9238 69.2151 65.5526 68.9819 65.1313C68.7487 64.7101 68.6009 64.247 68.5467 63.7686C68.4926 63.2902 68.5333 62.8057 68.6665 62.3431C69.2268 60.3983 71.258 59.2741 73.2058 59.8341C73.2058 59.8341 79.3452 61.2571 79.1115 60.9366L76.9616 55.7336C76.0507 53.3654 76.6079 51.6543 78.2658 50.4908C78.7786 50.1289 79.3763 49.9057 80.0008 49.8429C81.5645 49.6836 83.0388 50.6123 83.6686 52.0503L87.7162 61.2768L87.7648 61.3647C87.7648 61.3647 89.7138 65.0568 87.7922 67.4281C87.7721 67.4524 87.754 67.4751 87.7344 67.4979C86.3831 69.1303 84.2212 69.8538 82.1553 69.3821Z" fill="white"/>
<path d="M83.4281 69.8486C82.983 69.8486 82.5322 69.7985 82.0829 69.6971L71.0869 67.1893C70.6522 67.0642 70.2416 66.8669 69.8725 66.6054C69.2008 66.126 68.6941 65.4503 68.4222 64.6712C68.1504 63.892 68.1266 63.0478 68.3542 62.2546C68.9616 60.1444 71.1721 58.9204 73.2854 59.5224C75.3925 60.011 77.6998 60.4965 78.6323 60.6284L76.6616 55.8572C75.728 53.4331 76.2062 51.5415 78.0781 50.2277C78.6367 49.8345 79.287 49.5916 79.9666 49.5223C81.6533 49.3496 83.258 50.3156 83.9622 51.9206L88.0036 61.1336L88.0445 61.2095C88.0673 61.2535 88.5594 62.1925 88.8112 63.4424C89.1544 65.1353 88.8871 66.5842 88.0384 67.6293L87.9794 67.7022C87.4268 68.3744 86.7319 68.9156 85.9449 69.2868C85.1578 69.658 84.2982 69.8498 83.4281 69.8486ZM71.2585 66.5661L82.2287 69.0673C84.1947 69.5166 86.2093 68.8352 87.4842 67.2911L87.5405 67.2228C89.3044 65.0474 87.4981 61.5477 87.48 61.5126L87.4221 61.4035L83.3748 52.1771C82.7825 50.8285 81.4405 50.0198 80.0348 50.1609C79.4657 50.2199 78.9211 50.4235 78.4529 50.7525C76.8317 51.8905 76.443 53.4817 77.2644 55.6162L79.4032 60.7938C79.4312 60.8475 79.4445 60.9077 79.4415 60.9682C79.4386 61.0288 79.4196 61.0874 79.3866 61.1382C79.2392 61.3611 79.1787 61.4521 76.0435 60.7907C74.5969 60.4857 73.1485 60.1506 73.135 60.1475L73.118 60.1428C71.3449 59.633 69.4884 60.6604 68.9782 62.432C68.7874 63.0968 68.8072 63.8045 69.0351 64.4576C69.2629 65.1107 69.6875 65.6771 70.2504 66.079C70.5567 66.2968 70.8975 66.4615 71.2585 66.5661Z" fill="#172B4D"/>
<path d="M64.0542 62.4022C64.0542 62.4022 63.4835 65.8001 67.2681 67.1853C67.2681 67.1853 69.737 67.9998 71.3686 66.266L73.2239 63.0894C73.2239 63.0894 76.0159 60.3799 72.3524 57.3156C72.3524 57.3156 69.6564 55.2374 67.1027 57.311L66.5717 58.7842" fill="white"/>
<path d="M68.6349 67.7035C67.8243 67.7035 67.2173 67.5091 67.1656 67.4925C65.0781 66.7282 64.2567 65.375 63.9332 64.3735C63.5826 63.289 63.7284 62.3863 63.7346 62.3485L64.3705 62.4545L64.0516 62.4017L64.3705 62.4545C64.3493 62.5837 63.9 65.6098 67.3765 66.8828C67.3885 66.8875 69.6387 67.5959 71.1064 66.0711L72.9664 62.8884L72.998 62.8583C73.0072 62.849 73.9698 61.8888 73.9166 60.534C73.8757 59.5132 73.2807 58.5133 72.145 57.5638C72.0539 57.494 69.6734 55.7147 67.375 57.5075L66.8756 58.8943L66.2682 58.6756L66.8301 57.1177L66.8999 57.0617C69.6217 54.8512 72.5213 57.039 72.5503 57.0617C73.8452 58.1446 74.5193 59.3038 74.5633 60.519C74.6196 62.0253 73.6782 63.0858 73.4823 63.2891L71.629 66.4625L71.6031 66.4899C70.6815 67.4651 69.5323 67.7035 68.6349 67.7035Z" fill="#172B4D"/>
<path d="M66.6202 58.8299L67.0166 57.228C68.2402 56.0915 70.4279 55.9989 72.1371 57.1898C74.0545 58.5264 74.7197 60.8958 73.6203 62.4719C73.4818 62.6685 73.3204 62.8478 73.1394 63.006L71.6392 65.6137C71.5694 65.761 71.4888 65.9006 71.3994 66.0279C70.9165 66.7197 70.1669 67.1671 69.2649 67.3067C69.1526 67.3237 69.0389 67.3371 68.9216 67.3449C67.9047 67.4131 66.8403 67.1004 65.9264 66.4617C64.4386 65.4255 63.6585 63.7283 63.9832 62.2401L66.2345 58.5596" fill="white"/>
<path d="M68.6474 67.6783C67.6486 67.6783 66.6267 67.3459 65.7416 66.7285C64.1489 65.6197 63.3156 63.7887 63.668 62.1729L63.68 62.1201L65.9603 58.3929L66.3398 58.6246L66.7269 57.0578L66.7983 56.9926C68.1723 55.7169 70.5467 55.6895 72.3229 56.9274C73.3109 57.6162 74.0217 58.5853 74.3221 59.6562C74.6286 60.7503 74.474 61.8166 73.8863 62.66C73.7439 62.863 73.5789 63.0493 73.3946 63.2153L71.928 65.7667C71.8533 65.9228 71.766 66.0725 71.667 66.2144C71.1371 66.973 70.3022 67.4751 69.3169 67.6282C69.1969 67.6463 69.077 67.6602 68.9478 67.669C68.8464 67.6752 68.7477 67.6783 68.6474 67.6783ZM64.2874 62.3626C64.0186 63.7143 64.7474 65.2495 66.1107 66.1994C66.9637 66.794 67.9536 67.0867 68.8992 67.0246C69.0087 67.0169 69.1133 67.0046 69.2151 66.9895C70.0365 66.8623 70.6998 66.4662 71.134 65.8442C71.215 65.728 71.2861 65.6052 71.3465 65.4771L71.3588 65.4543L72.8844 62.7996L72.9257 62.7649C73.0896 62.6222 73.2338 62.4629 73.3537 62.2897C73.8288 61.6087 73.9519 60.7348 73.6981 59.8309C73.4386 58.9038 72.8177 58.0604 71.9508 57.4569C70.4495 56.4099 68.4712 56.3933 67.3038 57.4037L66.9317 58.9085L66.4689 58.7947L64.2874 62.3626Z" fill="#172B4D"/>
<path d="M73.62 62.4727C73.1371 63.1646 72.3871 63.6123 71.4854 63.7515C71.3717 63.7698 71.2572 63.7825 71.1422 63.7897C70.1249 63.8579 69.0609 63.5452 68.147 62.9066C66.5801 61.816 65.8135 60.155 66.1976 58.6788L73.62 62.4727ZM69.1685 58.6591L67.066 57.0391L69.1685 58.6591Z" fill="white"/>
<path d="M70.8684 64.1223C69.8696 64.1223 68.848 63.7903 67.9626 63.1729C66.2824 62.0017 65.4671 60.2069 65.8859 58.6003L66.5114 58.7627C66.1609 60.1055 66.8759 61.6299 68.3332 62.6449C69.1862 63.2411 70.1777 63.5323 71.1221 63.4702C71.2274 63.4631 71.3322 63.4514 71.4364 63.4351C72.2574 63.3078 72.9211 62.9118 73.3554 62.2898L73.8848 62.6584C73.3554 63.417 72.5216 63.9191 71.5363 64.0722C71.4195 64.0907 71.298 64.1042 71.1676 64.1134C71.0674 64.1192 70.9671 64.1223 70.8684 64.1223ZM68.9722 58.9146L66.8697 57.2946L67.2646 56.7832L69.3671 58.4033L68.9722 58.9146Z" fill="#172B4D"/>
<path d="M68.62 59.8384L65.9923 58.6367L68.62 59.8384Z" fill="white"/>
<path d="M66.1279 58.3452L65.8595 58.9314L68.4865 60.1319L68.7549 59.5457L66.1279 58.3452Z" fill="#172B4D"/>
<path d="M70.9086 61.7561C70.4135 61.7561 69.8732 61.5937 69.3827 61.2948C68.8119 60.9474 68.3715 60.453 68.1745 59.937C68.1591 59.9023 68.0603 59.652 68.1305 59.3879L68.7545 59.5518C68.7437 59.5942 68.7649 59.6748 68.7726 59.6929C68.9257 60.0905 69.2674 60.468 69.7182 60.7426C70.1177 60.9852 70.567 61.119 70.948 61.1097C71.1423 61.1051 71.4913 61.0581 71.6525 60.7943C71.8134 60.5301 71.695 60.1981 71.6097 60.0234C71.4428 59.6806 71.118 59.3439 70.7189 59.1013C70.0113 58.6706 69.2172 58.6293 68.9789 58.8796L68.5115 58.4353C69.0518 57.868 70.2284 58.0485 71.0544 58.5506C71.5627 58.8599 71.9668 59.2833 72.1897 59.7415C72.4358 60.2467 72.4419 60.7395 72.2036 61.1309C71.9668 61.5208 71.5249 61.7437 70.963 61.7576C70.9449 61.7561 70.9268 61.7561 70.9086 61.7561ZM78.8605 59.5383L78.3017 59.2151C80.6063 55.2496 85.3917 55.5816 85.4387 55.5862L85.387 56.2295C85.3446 56.2264 80.9588 55.929 78.8605 59.5383Z" fill="#172B4D"/>
<path d="M77.6505 60.77C78.8313 61.5162 81.2925 65.594 78.5826 68.801L77.6505 60.77Z" fill="white"/>
<path d="M78.8256 69.0103L78.3324 68.5946C79.2811 67.472 79.6455 66.1492 79.4164 64.6657C79.1492 62.9345 78.1168 61.451 77.4747 61.0445L77.8191 60.5C78.5372 60.9535 79.7442 62.5601 80.0539 64.567C80.3107 66.219 79.8854 67.7558 78.8256 69.0103Z" fill="#172B4D"/>
<path d="M82.5197 61.7524C82.5197 61.7524 86.511 65.0929 83.4139 69.4359L82.5197 61.7524Z" fill="white"/>
<path d="M83.6754 69.6227L83.1502 69.2479C86.0332 65.2067 82.4657 62.1286 82.3107 61.9998L82.7252 61.5054C82.7692 61.5401 86.909 65.0899 83.6754 69.6227Z" fill="#172B4D"/>
<path d="M74.2468 59.6777L74.1115 60.3079L85.0759 62.6634L85.2113 62.0332L74.2468 59.6777Z" fill="#172B4D"/>
<path d="M24.3723 35.248C24.3723 35.248 22.7526 38.3092 25.9268 40.8259C25.9268 40.8259 28.0247 42.3823 30.1306 41.2431L32.9057 38.7978C32.9057 38.7978 36.4266 37.094 33.9003 33.0132C33.9003 33.0132 31.9859 30.1795 28.892 31.3522L27.9202 32.5901" fill="white"/>
<path d="M28.4752 41.9882C26.975 41.9882 25.8035 41.1371 25.7352 41.0874C23.9863 39.6991 23.6296 38.1503 23.637 37.0929C23.6462 35.9476 24.0696 35.1331 24.0881 35.0995L24.6589 35.4015L24.3735 35.2515L24.6589 35.4015C24.598 35.5168 23.2104 38.2641 26.1282 40.5776C26.139 40.5853 28.0625 41.9716 29.946 40.9809L32.7261 38.531L32.7654 38.5113C32.7777 38.5051 33.9994 37.8939 34.3777 36.5816C34.6616 35.5943 34.4097 34.452 33.6265 33.1868C33.561 33.0911 31.8514 30.6412 29.0903 31.6257L28.1748 32.7923L27.6676 32.395L28.6954 31.0858L28.779 31.0538C32.0732 29.8055 34.1487 32.8058 34.1683 32.8362C35.0611 34.2774 35.3372 35.597 34.9955 36.7682C34.5721 38.2232 33.3392 38.9378 33.0905 39.0697L30.3181 41.5135L30.2865 41.5316C29.7304 41.8328 29.1076 41.9898 28.4752 41.9882Z" fill="#172B4D"/>
<path d="M27.9525 32.6504L28.836 31.2475C30.362 30.5495 32.4795 31.1518 33.7336 32.8278C35.1412 34.7074 35.0271 37.1786 33.4787 38.3363C33.2874 38.479 33.0761 38.5985 32.8501 38.6926L30.5957 40.7072C30.4847 40.8235 30.3643 40.9306 30.2359 41.0273C29.5556 41.534 28.6995 41.7253 27.7948 41.5734C27.681 41.5546 27.568 41.5309 27.4562 41.5024C26.4632 41.2459 25.5477 40.6116 24.8767 39.7153C23.7853 38.2557 23.5771 36.3915 24.3576 35.073L27.8284 32.2713" fill="white"/>
<path d="M28.3845 41.9455C28.1736 41.9455 27.958 41.9273 27.7405 41.8911C27.6176 41.8704 27.4957 41.8445 27.3749 41.8136C26.3094 41.539 25.3299 40.861 24.6165 39.9066C23.4476 38.3455 23.2305 36.3371 24.0777 34.9083L24.1078 34.8582L27.6241 32.0199L27.8169 32.2578L28.6136 30.9929L28.7019 30.9532C30.4157 30.1703 32.6883 30.8926 33.9929 32.6342C34.7179 33.6037 35.0885 34.7517 35.0372 35.867C34.984 37.0062 34.4996 37.9741 33.672 38.5931C33.4717 38.7418 33.2553 38.8674 33.0268 38.9676L30.821 40.9397C30.7007 41.065 30.5703 41.1802 30.4311 41.2841C29.8465 41.7195 29.1377 41.9455 28.3845 41.9455ZM24.606 35.2858C23.9242 36.4902 24.1336 38.1847 25.1344 39.5213C25.761 40.3586 26.6145 40.9521 27.5357 41.19C27.6422 41.2174 27.7471 41.2386 27.847 41.2552C28.6714 41.3932 29.4304 41.2251 30.0408 40.7685C30.1531 40.6848 30.2607 40.5892 30.3598 40.4847L30.3779 40.4665L32.6732 38.4153L32.7233 38.3941C32.9222 38.3108 33.1103 38.2038 33.2837 38.0756C33.9531 37.575 34.3461 36.7802 34.3905 35.8365C34.436 34.8686 34.1093 33.869 33.4734 33.0194C32.3713 31.5451 30.4886 30.905 29.054 31.5008L28.2237 32.8208L27.9048 32.6203L24.606 35.2858Z" fill="#172B4D"/>
<path d="M33.477 38.3348C32.7968 38.843 31.9406 39.0324 31.0359 38.8824C30.9233 38.8642 30.8111 38.84 30.6973 38.811C29.7043 38.5546 28.7888 37.9206 28.1178 37.024C26.9686 35.4887 26.7773 33.7198 27.6107 32.4337L33.477 38.3348ZM30.3225 33.2316L28.9408 31.082L30.3225 33.2316Z" fill="white"/>
<path d="M31.6272 39.2545C31.4162 39.2545 31.2007 39.2364 30.9832 39.1997C30.8603 39.1787 30.7384 39.1529 30.6176 39.1222C29.5517 38.8477 28.5725 38.1697 27.8591 37.2156C26.6251 35.5666 26.4261 33.6674 27.34 32.2563L27.8819 32.6072C27.1183 33.7842 27.308 35.4027 28.3766 36.8288C29.0037 37.6661 29.8555 38.2592 30.7784 38.4975C30.8879 38.5249 30.9893 38.5461 31.0896 38.5627C31.9141 38.7007 32.673 38.5322 33.2835 38.0756L33.6707 38.5931C33.0891 39.0285 32.3799 39.2545 31.6268 39.2545H31.6272ZM30.0511 33.4063L28.6697 31.2567L29.2135 30.9077L30.5948 33.0573L30.0511 33.4063Z" fill="#172B4D"/>
<path d="M29.5371 34.0992L27.4103 32.2666L29.5371 34.0992Z" fill="white"/>
<path d="M27.6248 32.0229L27.2032 32.5112L29.3293 34.3433L29.7504 33.8551L27.6248 32.0233V32.0229Z" fill="#172B4D"/>
<path d="M29.8834 33.1764C30.3917 32.9049 31.4468 33.316 32.0206 33.9913C32.7402 34.8362 32.8829 35.8963 32.3395 36.3576C31.7958 36.8188 30.7727 36.508 30.0531 35.663C29.6493 35.1879 29.4276 34.6465 29.4064 34.1806C29.4064 34.1806 29.4461 33.8077 29.5433 33.6604" fill="white"/>
<path d="M31.7064 36.8962C31.0855 36.8962 30.3675 36.5322 29.806 35.872C29.3717 35.3626 29.1076 34.7509 29.0817 34.1975L29.0802 34.1732L29.0833 34.149C29.0937 34.0425 29.1411 33.6831 29.2699 33.486L29.8102 33.8377C29.7832 33.8832 29.745 34.0471 29.7285 34.1929C29.7543 34.6009 29.9606 35.0606 30.2977 35.4551C30.8896 36.1512 31.7295 36.4531 32.1287 36.1134C32.367 35.9117 32.3577 35.5565 32.3319 35.3626C32.2806 34.9815 32.077 34.5585 31.7735 34.2002C31.271 33.6087 30.3659 33.2828 30.0335 33.4617L29.7285 32.8929C30.4284 32.5181 31.6443 33.0537 32.2652 33.7834C32.6524 34.2384 32.9042 34.7694 32.9728 35.2758C33.0488 35.8357 32.8969 36.3074 32.5475 36.6047C32.3153 36.8022 32.0238 36.8962 31.7068 36.8962H31.7064Z" fill="#172B4D"/>
</g>
</svg>
