<svg width="96" height="64" viewBox="0 0 96 64" fill="none" xmlns="http://www.w3.org/2000/svg">
<path d="M47.0957 1.85205C69.7761 1.85205 88.1628 20.2219 88.1631 42.8823C88.1631 49.8317 86.4308 56.3765 83.3789 62.1128H10.8125C7.76069 56.3766 6.0293 49.8316 6.0293 42.8823C6.02956 20.222 24.4155 1.85221 47.0957 1.85205Z" fill="#172B4D" fill-opacity="0.08"/>
<mask id="mask0_3551_130438" style="mask-type:alpha" maskUnits="userSpaceOnUse" x="16" y="-1" width="50" height="63">
<rect x="16.6274" y="-0.000488281" width="49.28" height="61.9432" fill="#C4C4C4"/>
</mask>
<g mask="url(#mask0_3551_130438)">
<path d="M31.729 69.7562L54.6041 70.1491L61.403 46.2337L38.7495 43.9424L31.729 69.7562Z" fill="white" stroke="#434343" stroke-width="1.06862" stroke-miterlimit="10" stroke-linecap="round" stroke-linejoin="round"/>
<path d="M33.0532 65.3576L48.4925 65.914L52.9242 49.9892L37.5225 48.4429" stroke="#434343" stroke-width="1.06862" stroke-miterlimit="10" stroke-linecap="round" stroke-linejoin="round"/>
<path d="M54.309 66.1785L50.2749 66.0362L52.3659 59.0312L56.3687 59.2993L54.309 66.1785Z" stroke="#434343" stroke-width="1.06862" stroke-miterlimit="10" stroke-linecap="round" stroke-linejoin="round"/>
<path d="M31.8363 69.8847L17.1567 62.1595L24.2622 37.0601L38.8823 43.9533L31.8363 69.8847Z" fill="white" stroke="#434343" stroke-width="1.06862" stroke-miterlimit="10" stroke-linecap="round" stroke-linejoin="round"/>
<path d="M57.3887 52.2822C57.584 51.4731 57.1549 50.6756 56.4302 50.5009C55.7056 50.3263 54.9597 50.8406 54.7644 51.6497C54.569 52.4588 54.9981 53.2563 55.7228 53.431C56.4475 53.6057 57.1933 53.0913 57.3887 52.2822Z" fill="white" stroke="#434343" stroke-width="1.06862" stroke-miterlimit="10" stroke-linecap="round" stroke-linejoin="round"/>
<path d="M56.0898 56.6968C56.2852 55.8876 55.8561 55.0901 55.1314 54.9155C54.4067 54.7408 53.6609 55.2551 53.4655 56.0643C53.2702 56.8734 53.6993 57.6709 54.424 57.8455C55.1486 58.0202 55.8945 57.5059 56.0898 56.6968Z" fill="white" stroke="#434343" stroke-width="1.06862" stroke-miterlimit="10" stroke-linecap="round" stroke-linejoin="round"/>
<path d="M24.5747 37.0601L39.0674 43.9994L61.6672 46.3251L45.4023 39.3926L24.5747 37.0601Z" fill="white" stroke="#434343" stroke-width="1.06862" stroke-miterlimit="10" stroke-linecap="round" stroke-linejoin="round"/>
<path d="M39.147 41.2236C40.0621 42.3434 43.8353 42.7629 44.9865 41.8731C45.1115 40.7516 45.5057 37.4445 45.5057 37.4445L39.6662 36.7949C39.6662 36.7949 39.2859 39.9599 39.147 41.2236Z" fill="white" stroke="#434343" stroke-width="1.06862" stroke-miterlimit="10" stroke-linecap="round" stroke-linejoin="round"/>
<path d="M40.4712 41.0307L62.3367 40.4026L64.5813 18.4933L42.5262 17.7358L40.4712 41.0307Z" fill="white" stroke="#434343" stroke-width="1.06862" stroke-miterlimit="10" stroke-linecap="round" stroke-linejoin="round"/>
<path d="M40.2745 41.0307L24.5747 36.7472L26.9429 14.0298L42.3261 17.7045L40.2745 41.0307Z" fill="white" stroke="#434343" stroke-width="1.06862" stroke-miterlimit="10" stroke-linecap="round" stroke-linejoin="round"/>
<path d="M26.6948 14.0298L42.2519 17.7628L64.5822 18.5299L47.9445 14.2297L26.6948 14.0298Z" fill="white" stroke="#434343" stroke-width="1.06862" stroke-miterlimit="10" stroke-linecap="round" stroke-linejoin="round"/>
<path d="M54.2487 59.2959L52.394 65.9138" stroke="#434343" stroke-width="1.06862" stroke-miterlimit="10" stroke-linecap="round" stroke-linejoin="round"/>
<path d="M51.3354 62.4727L55.0447 62.7374" stroke="#434343" stroke-width="1.06862" stroke-miterlimit="10" stroke-linecap="round" stroke-linejoin="round"/>
<path d="M51.8647 60.8843L55.574 61.149" stroke="#434343" stroke-width="1.06862" stroke-miterlimit="10" stroke-linecap="round" stroke-linejoin="round"/>
<path d="M49.3154 54.0008L39.1009 53.2187C38.9539 53.2074 38.8521 53.0697 38.8905 52.9305L39.343 51.261C39.3731 51.1525 39.4783 51.0797 39.5935 51.091L49.7947 52.0059C49.9416 52.0188 50.0401 52.1581 50.0017 52.2957L49.5626 53.8308C49.5325 53.9393 49.429 54.0105 49.3154 54.0008Z" fill="#434343"/>
<path d="M46.5628 14.5071C47.9582 15.8844 50.0267 14.6706 50.9986 13.8463L50.8332 12.7387C50.8754 13.0152 51.4052 12.9258 51.7865 13.0489C52.1679 13.172 53.7876 11.7694 54.5486 11.0513L53.6678 9.70938C54.0913 9.75995 55.0986 10.1763 55.5744 10.3314C56.0013 10.4697 57.0491 9.31828 57.7054 8.65408L56.4316 7.71173L58.1002 8.25624C58.6722 8.44336 59.5479 7.32232 59.914 6.73904L58.7954 5.31961C59.3775 5.42245 60.5889 5.6416 60.7796 5.70397C60.9703 5.76634 63.2565 4.38401 64.0343 2.002C60.7745 0.675298 59.5597 0.827018 59.0856 1.19957L58.1424 2.47234L57.7392 1.28724C56.9765 1.03774 54.5739 2.36276 53.4687 3.0573L53.2443 5.35501L52.286 4.25252C51.7798 4.50875 50.182 5.85063 49.4446 6.48786L50.1702 8.30512C49.8243 8.01686 49.038 7.40829 48.6567 7.28523C48.2754 7.16048 47.5549 8.50742 47.1635 9.43291L47.6443 10.3803L46.5358 10.5455C44.9667 12.9326 46.0296 13.9828 46.5628 14.5071Z" fill="white" stroke="#434343" stroke-width="0.935045" stroke-linecap="round" stroke-linejoin="round"/>
<path d="M48.5323 12.5146C52.2341 8.45193 56.788 5.54396 60.1322 3.64915C60.257 3.26816 59.9179 3.2277 59.734 3.25636L54.4427 6.53688C51.1256 8.61713 47.2635 12.3646 46.2478 14.6691L45.5425 16.0194C45.7028 16.3346 46.2849 16.4374 46.4958 16.3296C46.9615 14.9017 48.1392 12.9142 48.5323 12.5146Z" fill="#434343"/>
<path d="M48.9596 30.3904C49.2064 29.0404 48.5995 27.7988 47.604 27.6171C46.6085 27.4354 45.6015 28.3825 45.3546 29.7324C45.1078 31.0824 45.7147 32.3241 46.7102 32.5057C47.7057 32.6874 48.7128 31.7404 48.9596 30.3904Z" fill="white" stroke="#434343" stroke-width="1.06862" stroke-miterlimit="10" stroke-linecap="round" stroke-linejoin="round"/>
<path d="M60.2667 30.302C60.5136 28.9521 59.9067 27.7104 58.9112 27.5287C57.9157 27.347 56.9086 28.2941 56.6618 29.644C56.4149 30.994 57.0218 32.2357 58.0173 32.4174C59.0128 32.5991 60.0199 31.652 60.2667 30.302Z" fill="white" stroke="#434343" stroke-width="1.06862" stroke-miterlimit="10" stroke-linecap="round" stroke-linejoin="round"/>
</g>
<path d="M95.0044 62.2231H0.996094" stroke="#434343" stroke-width="1.06862" stroke-miterlimit="10" stroke-linecap="round" stroke-linejoin="round"/>
<path d="M36.3381 62.0093C35.9734 62.0093 35.6777 61.7139 35.6777 61.3496V60.5323C35.6777 60.168 35.9734 59.8726 36.3381 59.8726H56.7176V62.011H36.3381V62.0093Z" fill="#F4F4F4"/>
<path d="M56.3885 60.1994V61.6814H36.3375C36.1551 61.6814 36.0057 61.532 36.0057 61.3499V60.5326C36.0057 60.3504 36.1551 60.2011 36.3375 60.2011H56.3885V60.1994ZM57.0455 59.543H36.3375C35.7905 59.543 35.3486 59.9861 35.3486 60.5309V61.3482C35.3486 61.8947 35.7921 62.3362 36.3375 62.3362H57.0455V59.543Z" fill="#434343"/>
<path d="M56.585 62.3332H83.1817C83.8748 62.3332 84.4382 61.7719 84.4382 61.0777V60.0815H56.585V62.3332Z" fill="#434343"/>
<path d="M57.6558 61.0826H84.6171C85.6503 61.0826 86.58 60.4524 86.9611 59.4923L94.0439 41.6252C94.3658 40.8112 93.7811 39.9249 92.9056 39.902L65.9902 39.1782C64.9209 39.1487 63.9485 39.7986 63.5674 40.798L56.478 59.3741C56.1643 60.1996 56.7737 61.0826 57.6558 61.0826Z" fill="#178733" stroke="#434343" stroke-width="1.06862"/>
<path d="M77.7819 53.0757C79.1833 51.5214 79.2533 49.302 77.9382 48.1184C76.6232 46.9349 74.4211 47.2354 73.0198 48.7897C71.6184 50.344 71.5485 52.5635 72.8635 53.747C74.1785 54.9306 76.3806 54.63 77.7819 53.0757Z" fill="#0C6124"/>
<path d="M28.9371 44.9452C27.2394 45.0987 26.3361 46.3601 26.2792 47.7368C26.1357 51.2175 26.8184 54.6716 26.8184 54.6716C28.3792 60.7018 32.6199 61.2567 35.8532 61.0509L41.9036 60.7826L42.3281 55.7262L35.498 55.8185C33.7716 55.841 32.3439 54.4775 32.2935 52.7526C32.2388 50.8822 32.1464 48.6553 31.9912 47.55C31.7483 45.9875 30.7371 44.7826 28.9371 44.9452Z" fill="white" stroke="#434343" stroke-width="1.06862" stroke-miterlimit="10" stroke-linecap="round" stroke-linejoin="round"/>
<path d="M45.5747 55.0236C47.91 54.9153 49.8324 55.4732 49.8702 56.2693L50.0519 60.1754C50.0897 60.9716 48.2267 61.706 45.8914 61.8143C43.5561 61.9227 41.6338 61.3648 41.596 60.5686L41.4143 56.6625C41.3779 55.8646 43.2411 55.1317 45.5747 55.0236Z" fill="white" stroke="#434343" stroke-width="1.06862" stroke-miterlimit="10" stroke-linecap="round" stroke-linejoin="round"/>
<path d="M49.86 55.9269C49.8141 54.9401 47.8838 54.2279 45.5485 54.3364C43.2132 54.4448 41.3573 55.3327 41.4032 56.3196C41.4491 57.3064 43.3795 58.0185 45.7147 57.9101C48.05 57.8017 49.9059 56.9138 49.86 55.9269Z" fill="white" stroke="#434343" stroke-width="1.06862" stroke-miterlimit="10" stroke-linecap="round" stroke-linejoin="round"/>
<path d="M45.2959 55.469C45.3056 55.4679 45.3151 55.4651 45.325 55.4655L49.6232 55.2655L49.6838 56.5544L45.5554 56.7457L45.3855 56.7528C45.3757 56.754 45.3673 56.7517 45.3574 56.7513C44.2303 56.7743 43.8365 56.5162 43.8209 56.1801C43.8037 55.8442 44.171 55.5509 45.2959 55.469Z" fill="#434343"/>
<path d="M32.2159 50.2351C32.2159 50.2351 27.8298 49.2611 26.5907 51.9292L32.2159 50.2351Z" fill="white"/>
<path d="M32.2159 50.2351C32.2159 50.2351 27.8298 49.2611 26.5907 51.9292" stroke="#434343" stroke-width="1.06862" stroke-miterlimit="10" stroke-linecap="round" stroke-linejoin="round"/>
<path d="M32.9493 54.8383C31.2725 55.4127 28.9362 58.23 29.787 59.5623" stroke="#434343" stroke-width="1.06862" stroke-miterlimit="10" stroke-linecap="round" stroke-linejoin="round"/>
<path d="M37.5586 55.9661C37.5586 55.9661 36.2584 58.3151 37.0046 60.8461" stroke="#434343" stroke-width="1.06862" stroke-miterlimit="10" stroke-linecap="round" stroke-linejoin="round"/>
</svg>
