<svg width="96" height="64" viewBox="0 0 96 64" fill="none" xmlns="http://www.w3.org/2000/svg">
<path fill-rule="evenodd" clip-rule="evenodd" d="M83.3824 62.1129C86.4337 56.3771 88.1625 49.8319 88.1625 42.8833C88.1625 20.2226 69.7763 1.85254 47.0958 1.85254C24.4152 1.85254 6.02905 20.2226 6.02905 42.8833C6.02905 49.8319 7.75785 56.3771 10.8091 62.1129H83.3824Z" fill="#172B4D" fill-opacity="0.08"/>
<mask id="mask0_3805_19260" style="mask-type:alpha" maskUnits="userSpaceOnUse" x="16" y="0" width="50" height="62">
<rect x="16.6267" width="49.28" height="61.9432" fill="#C4C4C4"/>
</mask>
<g mask="url(#mask0_3805_19260)">
<path d="M31.7281 69.7567L54.6032 70.1496L61.4022 46.2342L38.7487 43.9429L31.7281 69.7567Z" fill="white" stroke="#2C3E5D" stroke-width="1.06862" stroke-miterlimit="10" stroke-linecap="round" stroke-linejoin="round"/>
<path d="M33.0525 65.3581L48.4918 65.9145L52.9235 49.9896L37.5218 48.4434" stroke="#2C3E5D" stroke-width="1.06862" stroke-miterlimit="10" stroke-linecap="round" stroke-linejoin="round"/>
<path d="M54.3082 66.179L50.2742 66.0367L52.3652 59.0317L56.3679 59.2997L54.3082 66.179Z" stroke="#2C3E5D" stroke-width="1.06862" stroke-miterlimit="10" stroke-linecap="round" stroke-linejoin="round"/>
<path d="M31.8356 69.8852L17.156 62.16L24.2615 37.0605L38.8816 43.9538L31.8356 69.8852Z" fill="white" stroke="#2C3E5D" stroke-width="1.06862" stroke-miterlimit="10" stroke-linecap="round" stroke-linejoin="round"/>
<path d="M57.3879 52.2827C57.5833 51.4736 57.1542 50.6761 56.4295 50.5014C55.7048 50.3267 54.959 50.8411 54.7636 51.6502C54.5683 52.4593 54.9974 53.2568 55.7221 53.4315C56.4467 53.6061 57.1926 53.0918 57.3879 52.2827Z" fill="white" stroke="#2C3E5D" stroke-width="1.06862" stroke-miterlimit="10" stroke-linecap="round" stroke-linejoin="round"/>
<path d="M56.089 56.6973C56.2843 55.8881 55.8552 55.0906 55.1305 54.916C54.4059 54.7413 53.66 55.2556 53.4647 56.0647C53.2693 56.8739 53.6984 57.6714 54.4231 57.846C55.1478 58.0207 55.8936 57.5064 56.089 56.6973Z" fill="white" stroke="#2C3E5D" stroke-width="1.06862" stroke-miterlimit="10" stroke-linecap="round" stroke-linejoin="round"/>
<path d="M24.574 37.0605L39.0666 43.9999L61.6665 46.3256L45.4016 39.3931L24.574 37.0605Z" fill="white" stroke="#2C3E5D" stroke-width="1.06862" stroke-miterlimit="10" stroke-linecap="round" stroke-linejoin="round"/>
<path d="M39.1462 41.224C40.0613 42.3439 43.8345 42.7634 44.9858 41.8736C45.1108 40.7521 45.505 37.445 45.505 37.445L39.6654 36.7954C39.6654 36.7954 39.2852 39.9604 39.1462 41.224Z" fill="white" stroke="#2C3E5D" stroke-width="1.06862" stroke-miterlimit="10" stroke-linecap="round" stroke-linejoin="round"/>
<path d="M40.4705 41.0312L62.336 40.4031L64.5806 18.4938L42.5255 17.7363L40.4705 41.0312Z" fill="white" stroke="#2C3E5D" stroke-width="1.06862" stroke-miterlimit="10" stroke-linecap="round" stroke-linejoin="round"/>
<path d="M40.2737 41.0312L24.574 36.7477L26.9422 14.0303L42.3254 17.7049L40.2737 41.0312Z" fill="white" stroke="#2C3E5D" stroke-width="1.06862" stroke-miterlimit="10" stroke-linecap="round" stroke-linejoin="round"/>
<path d="M26.6941 14.0303L42.2511 17.7633L64.5814 18.5304L47.9438 14.2302L26.6941 14.0303Z" fill="white" stroke="#2C3E5D" stroke-width="1.06862" stroke-miterlimit="10" stroke-linecap="round" stroke-linejoin="round"/>
<path d="M54.2479 59.2964L52.3933 65.9143" stroke="#2C3E5D" stroke-width="1.06862" stroke-miterlimit="10" stroke-linecap="round" stroke-linejoin="round"/>
<path d="M51.3347 62.4731L55.044 62.7379" stroke="#2C3E5D" stroke-width="1.06862" stroke-miterlimit="10" stroke-linecap="round" stroke-linejoin="round"/>
<path d="M51.864 60.8848L55.5733 61.1495" stroke="#2C3E5D" stroke-width="1.06862" stroke-miterlimit="10" stroke-linecap="round" stroke-linejoin="round"/>
<path d="M49.3147 54.0013L39.1001 53.2192C38.9532 53.2079 38.8513 53.0702 38.8897 52.931L39.3423 51.2615C39.3723 51.153 39.4775 51.0802 39.5928 51.0915L49.7939 52.0064C49.9409 52.0193 50.0394 52.1586 50.001 52.2962L49.5618 53.8313C49.5318 53.9398 49.4282 54.011 49.3147 54.0013Z" fill="#2C3E5D"/>
<path d="M46.5621 14.5076C47.9574 15.8849 50.026 14.6711 50.9979 13.8468L50.8325 12.7392C50.8747 13.0157 51.4045 12.9263 51.7858 13.0494C52.1671 13.1725 53.7869 11.7699 54.5478 11.0517L53.6671 9.70986C54.0906 9.76044 55.0979 10.1768 55.5737 10.3319C56.0006 10.4701 57.0484 9.31876 57.7047 8.65457L56.4308 7.71222L58.0995 8.25672C58.6715 8.44385 59.5472 7.3228 59.9133 6.73953L58.7947 5.3201C59.3768 5.42293 60.5882 5.64209 60.7789 5.70446C60.9695 5.76683 63.2558 4.3845 64.0336 2.00249C60.7738 0.675787 59.559 0.827507 59.0849 1.20006L58.1417 2.47282L57.7384 1.28772C56.9758 1.03823 54.5732 2.36325 53.468 3.05779L53.2436 5.3555L52.2852 4.253C51.7791 4.50924 50.1812 5.85112 49.4439 6.48835L50.1694 8.30561C49.8235 8.01734 49.0373 7.40878 48.656 7.28572C48.2746 7.16097 47.5542 8.50791 47.1627 9.4334L47.6436 10.3808L46.5351 10.546C44.9659 12.9331 46.0289 13.9833 46.5621 14.5076Z" fill="white" stroke="#2C3E5D" stroke-width="0.935045" stroke-linecap="round" stroke-linejoin="round"/>
<path d="M48.5316 12.5151C52.2334 8.45241 56.7873 5.54445 60.1314 3.64963C60.2563 3.26865 59.9171 3.22819 59.7332 3.25685L54.442 6.53737C51.1249 8.61762 47.2627 12.3651 46.247 14.6696L45.5417 16.0199C45.702 16.3351 46.2841 16.4379 46.495 16.33C46.9607 14.9022 48.1384 12.9147 48.5316 12.5151Z" fill="#2C3E5D"/>
<path d="M48.9591 30.3909C49.2059 29.0409 48.599 27.7993 47.6035 27.6176C46.6081 27.4359 45.601 28.3829 45.3541 29.7329C45.1073 31.0829 45.7142 32.3245 46.7097 32.5062C47.7052 32.6879 48.7123 31.7409 48.9591 30.3909Z" fill="white" stroke="#2C3E5D" stroke-width="1.06862" stroke-miterlimit="10" stroke-linecap="round" stroke-linejoin="round"/>
<path d="M60.2663 30.3025C60.5131 28.9525 59.9062 27.7109 58.9107 27.5292C57.9152 27.3475 56.9081 28.2946 56.6613 29.6445C56.4144 30.9945 57.0214 32.2362 58.0168 32.4179C59.0123 32.5995 60.0194 31.6525 60.2663 30.3025Z" fill="white" stroke="#2C3E5D" stroke-width="1.06862" stroke-miterlimit="10" stroke-linecap="round" stroke-linejoin="round"/>
</g>
<path d="M95.0039 62.2236H0.995605" stroke="#2C3E5D" stroke-width="1.06862" stroke-miterlimit="10" stroke-linecap="round" stroke-linejoin="round"/>
<path d="M36.3374 62.0098C35.9728 62.0098 35.6771 61.7144 35.6771 61.3501V60.5328C35.6771 60.1685 35.9728 59.873 36.3374 59.873H56.717V62.0115H36.3374V62.0098Z" fill="#F7F8F9"/>
<path d="M56.3879 60.1999V61.6819H36.3369C36.1545 61.6819 36.0051 61.5325 36.0051 61.3504V60.5331C36.0051 60.3509 36.1545 60.2016 36.3369 60.2016H56.3879V60.1999ZM57.0449 59.5435H36.3369C35.7899 59.5435 35.348 59.9866 35.348 60.5314V61.3487C35.348 61.8952 35.7915 62.3367 36.3369 62.3367H57.0449V59.5435Z" fill="#2C3E5D"/>
<path d="M56.5844 62.3337H83.181C83.8742 62.3337 84.4376 61.7724 84.4376 61.0782V60.082H56.5844V62.3337Z" fill="#2C3E5D"/>
<path d="M57.6551 61.0831H84.6165C85.6497 61.0831 86.5794 60.4529 86.9605 59.4928L94.0433 41.6256C94.3652 40.8116 93.7805 39.9254 92.905 39.9024L65.9896 39.1787C64.9203 39.1492 63.9479 39.7991 63.5668 40.7985L56.4774 59.3746C56.1637 60.2001 56.7731 61.0831 57.6551 61.0831Z" fill="#008847" stroke="#2C3E5D" stroke-width="1.06862"/>
<path d="M77.7812 53.0762C79.1826 51.5219 79.2525 49.3024 77.9375 48.1189C76.6225 46.9353 74.4204 47.2359 73.0191 48.7902C71.6177 50.3445 71.5477 52.564 72.8628 53.7475C74.1778 54.9311 76.3799 54.6305 77.7812 53.0762Z" fill="#115735"/>
<path d="M28.9366 44.9456C27.2389 45.0992 26.3356 46.3605 26.2787 47.7373C26.1353 51.218 26.8179 54.6721 26.8179 54.6721C28.3787 60.7023 32.6194 61.2572 35.8527 61.0514L41.9031 60.7831L42.3276 55.7267L35.4975 55.819C33.7711 55.8415 32.3435 54.478 32.293 52.7531C32.2384 50.8827 32.1459 48.6558 31.9907 47.5505C31.7479 45.988 30.7366 44.7831 28.9366 44.9456Z" fill="white" stroke="#2C3E5D" stroke-width="1.06862" stroke-miterlimit="10" stroke-linecap="round" stroke-linejoin="round"/>
<path d="M45.5745 55.0241C47.9098 54.9157 49.8321 55.4736 49.8699 56.2698L50.0516 60.1759C50.0894 60.972 48.2265 61.7065 45.8912 61.8148C43.5559 61.9232 41.6335 61.3653 41.5957 60.5691L41.414 56.663C41.3776 55.8651 43.2408 55.1322 45.5745 55.0241Z" fill="white" stroke="#2C3E5D" stroke-width="1.06862" stroke-miterlimit="10" stroke-linecap="round" stroke-linejoin="round"/>
<path d="M49.8595 55.9274C49.8136 54.9405 47.8833 54.2284 45.548 54.3369C43.2127 54.4453 41.3568 55.3332 41.4027 56.3201C41.4486 57.3069 43.379 58.019 45.7142 57.9106C48.0495 57.8022 49.9054 56.9143 49.8595 55.9274Z" fill="white" stroke="#2C3E5D" stroke-width="1.06862" stroke-miterlimit="10" stroke-linecap="round" stroke-linejoin="round"/>
<path d="M45.2953 55.4695C45.305 55.4684 45.3145 55.4656 45.3244 55.466L49.6226 55.266L49.6832 56.5549L45.5548 56.7461L45.3848 56.7533C45.3751 56.7545 45.3667 56.7522 45.3567 56.7518C44.2297 56.7748 43.8359 56.5167 43.8203 56.1806C43.8031 55.8446 44.1703 55.5514 45.2953 55.4695Z" fill="#2C3E5D"/>
<path d="M32.2155 50.2356C32.2155 50.2356 27.8294 49.2616 26.5903 51.9297L32.2155 50.2356Z" fill="white"/>
<path d="M32.2155 50.2356C32.2155 50.2356 27.8294 49.2616 26.5903 51.9297" stroke="#2C3E5D" stroke-width="1.06862" stroke-miterlimit="10" stroke-linecap="round" stroke-linejoin="round"/>
<path d="M32.9488 54.8388C31.272 55.4132 28.9357 58.2305 29.7865 59.5628" stroke="#2C3E5D" stroke-width="1.06862" stroke-miterlimit="10" stroke-linecap="round" stroke-linejoin="round"/>
<path d="M37.5583 55.9666C37.5583 55.9666 36.258 58.3155 37.0043 60.8466" stroke="#2C3E5D" stroke-width="1.06862" stroke-miterlimit="10" stroke-linecap="round" stroke-linejoin="round"/>
</svg>
