<svg width="100" height="100" viewBox="0 0 100 100" fill="none" xmlns="http://www.w3.org/2000/svg">
<path opacity="0.5" d="M50.9519 2.20168C27.0299 2.2019 7.63745 21.5779 7.63745 45.479C7.63749 52.8085 9.4636 59.7111 12.6824 65.7612H89.2224C92.4412 59.7111 94.2673 52.8085 94.2673 45.479C94.2673 21.5777 74.8741 2.20168 50.9519 2.20168Z" fill="#E2B203"/>
<mask id="mask0_3551_110620" style="mask-type:alpha" maskUnits="userSpaceOnUse" x="31" y="0" width="53" height="66">
<rect width="51.978" height="65.3345" transform="matrix(-1 0 0 1 83.0894 0.247849)" fill="#C4C4C4"/>
</mask>
<g mask="url(#mask0_3551_110620)">
<path d="M67.1614 73.8217L43.0339 74.2361L35.8628 49.0113L59.7565 46.5946L67.1614 73.8217Z" fill="white" stroke="#101214" stroke-width="0.615023" stroke-miterlimit="10" stroke-linecap="round" stroke-linejoin="round"/>
<path d="M65.7635 69.1816L49.479 69.7686L44.8047 52.9718L61.0496 51.3409" stroke="#101214" stroke-width="0.615023" stroke-miterlimit="10" stroke-linecap="round" stroke-linejoin="round"/>
<path d="M43.3447 70.0478L47.5996 69.8976L45.3941 62.5092L41.1722 62.7919L43.3447 70.0478Z" stroke="#101214" stroke-width="0.615023" stroke-miterlimit="10" stroke-linecap="round" stroke-linejoin="round"/>
<path d="M67.0478 73.9564L82.531 65.8083L75.0365 39.3347L59.616 46.6054L67.0478 73.9564Z" fill="white" stroke="#101214" stroke-width="0.615023" stroke-miterlimit="10" stroke-linecap="round" stroke-linejoin="round"/>
<path d="M40.0966 55.3908C39.8906 54.5374 40.3432 53.6962 41.1075 53.512C41.8719 53.3277 42.6585 53.8702 42.8646 54.7236C43.0706 55.5771 42.618 56.4182 41.8537 56.6025C41.0893 56.7867 40.3027 56.2442 40.0966 55.3908Z" fill="white" stroke="#101214" stroke-width="0.615023" stroke-miterlimit="10" stroke-linecap="round" stroke-linejoin="round"/>
<path d="M41.466 60.047C41.26 59.1936 41.7126 58.3524 42.4769 58.1682C43.2413 57.984 44.0279 58.5264 44.234 59.3799C44.44 60.2333 43.9874 61.0745 43.2231 61.2587C42.4587 61.4429 41.6721 60.9004 41.466 60.047Z" fill="white" stroke="#101214" stroke-width="0.615023" stroke-miterlimit="10" stroke-linecap="round" stroke-linejoin="round"/>
<path d="M74.7065 39.3347L59.4204 46.654L35.5833 49.107L52.7387 41.7949L74.7065 39.3347Z" fill="white" stroke="#101214" stroke-width="0.615023" stroke-miterlimit="10" stroke-linecap="round" stroke-linejoin="round"/>
<path d="M59.337 43.7265C58.3719 44.9077 54.3921 45.3502 53.1778 44.4117C53.0459 43.2287 52.6302 39.7406 52.6302 39.7406L58.7894 39.0555C58.7894 39.0555 59.1905 42.3937 59.337 43.7265Z" fill="white" stroke="#101214" stroke-width="0.615023" stroke-miterlimit="10" stroke-linecap="round" stroke-linejoin="round"/>
<path d="M57.9391 43.5233L34.8765 42.8608L32.509 19.752L55.7715 18.9531L57.9391 43.5233Z" fill="white" stroke="#101214" stroke-width="0.615023" stroke-miterlimit="10" stroke-linecap="round" stroke-linejoin="round"/>
<path d="M58.1473 43.5237L74.7065 39.0058L72.2087 15.0446L55.9833 18.9205L58.1473 43.5237Z" fill="white" stroke="#101214" stroke-width="0.615023" stroke-miterlimit="10" stroke-linecap="round" stroke-linejoin="round"/>
<path d="M72.4708 15.0446L56.0621 18.982L32.5092 19.7911L50.0577 15.2555L72.4708 15.0446Z" fill="white" stroke="#101214" stroke-width="0.615023" stroke-miterlimit="10" stroke-linecap="round" stroke-linejoin="round"/>
<path d="M43.4077 62.7885L45.3639 69.7687" stroke="#101214" stroke-width="0.615023" stroke-miterlimit="10" stroke-linecap="round" stroke-linejoin="round"/>
<path d="M45.9224 64.4642L42.01 64.7434" stroke="#101214" stroke-width="0.615023" stroke-miterlimit="10" stroke-linecap="round" stroke-linejoin="round"/>
<path d="M48.612 57.2025L59.3858 56.3776C59.5408 56.3657 59.6482 56.2205 59.6077 56.0736L59.1304 54.3128C59.0987 54.1983 58.9878 54.1215 58.8662 54.1334L48.1066 55.0984C47.9516 55.1121 47.8476 55.2589 47.8882 55.4041L48.3514 57.0232C48.3831 57.1376 48.4923 57.2128 48.612 57.2025Z" fill="#101214"/>
<path d="M51.5137 15.5468C50.042 16.9995 47.8602 15.7193 46.8351 14.8498L47.0095 13.6817C46.965 13.9733 46.4062 13.879 46.004 14.0088C45.6018 14.1386 43.8934 12.6593 43.0908 11.9018L44.0197 10.4865C43.573 10.5398 42.5106 10.979 42.0087 11.1426C41.5585 11.2884 40.4534 10.0739 39.7611 9.37339L41.1047 8.37945L39.3446 8.95376C38.7414 9.15113 37.8177 7.96871 37.4315 7.3535L38.6114 5.85637C37.9975 5.96483 36.7197 6.19598 36.5186 6.26177C36.3175 6.32755 33.9061 4.86954 33.0857 2.35712C36.5239 0.957784 37.8053 1.11781 38.3053 1.51076L39.3002 2.85321L39.7255 1.60322C40.5299 1.34007 43.0641 2.73763 44.2297 3.4702L44.4664 5.89371L45.4772 4.73085C46.0111 5.00111 47.6964 6.41646 48.4741 7.08857L47.7089 9.00533C48.0737 8.70128 48.903 8.05939 49.3052 7.9296C49.7074 7.79802 50.4673 9.2187 50.8802 10.1949L50.373 11.1941L51.5422 11.3684C53.1973 13.8861 52.0761 14.9939 51.5137 15.5468Z" fill="white" stroke="#101214" stroke-width="0.615023" stroke-linecap="round" stroke-linejoin="round"/>
<path d="M49.4363 13.4458C45.5318 9.1606 40.7286 6.09343 37.2014 4.09488C37.0697 3.69304 37.4274 3.65036 37.6214 3.68059L43.2023 7.14071C46.7011 9.33485 50.7746 13.2875 51.846 15.7181L52.5898 17.1424C52.4208 17.4749 51.8068 17.5833 51.5844 17.4695C51.0932 15.9635 49.851 13.8672 49.4363 13.4458Z" fill="#101214"/>
<path d="M48.9866 32.3003C48.7263 30.8765 49.3664 29.5668 50.4164 29.3752C51.4664 29.1836 52.5287 30.1825 52.789 31.6064C53.0493 33.0302 52.4092 34.3399 51.3592 34.5315C50.3092 34.7231 49.247 33.7242 48.9866 32.3003Z" fill="white" stroke="#101214" stroke-width="0.615023" stroke-miterlimit="10" stroke-linecap="round" stroke-linejoin="round"/>
<path d="M37.06 32.2072C36.7997 30.7834 37.4398 29.4737 38.4898 29.2821C39.5398 29.0904 40.602 30.0894 40.8624 31.5132C41.1227 32.9371 40.4826 34.2468 39.4326 34.4384C38.3826 34.63 37.3203 33.6311 37.06 32.2072Z" fill="white" stroke="#101214" stroke-width="0.615023" stroke-miterlimit="10" stroke-linecap="round" stroke-linejoin="round"/>
</g>
<path d="M0.422457 65.8775H99.5775" stroke="#101214" stroke-width="0.615023" stroke-miterlimit="10" stroke-linecap="round" stroke-linejoin="round"/>
<path d="M62.2995 65.6517C62.6841 65.6517 62.996 65.3402 62.996 64.9559V64.0938C62.996 63.7096 62.6841 63.398 62.2995 63.398H40.8042V65.6535H62.2995V65.6517Z" fill="#B3B9C4"/>
<path d="M41.151 63.742V65.3051H62.2998C62.4921 65.3051 62.6498 65.1476 62.6498 64.9554V64.0934C62.6498 63.9013 62.4921 63.7438 62.2998 63.7438H41.151V63.742ZM40.458 63.0496H62.2998C62.8767 63.0496 63.3428 63.517 63.3428 64.0917V64.9537C63.3428 65.5301 62.875 65.9958 62.2998 65.9958H40.458V63.0496Z" fill="#101214"/>
<path d="M40.9453 65.9922H12.8925C12.1614 65.9922 11.5671 65.4002 11.5671 64.668V63.6173H40.9453V65.9922Z" fill="#101214"/>
<path d="M39.8147 64.6735H11.3773C10.2876 64.6735 9.30697 64.0088 8.90503 62.9962L1.43444 44.1509C1.09487 43.2923 1.71164 42.3576 2.63507 42.3333L31.024 41.57C32.1519 41.5388 33.1775 42.2243 33.5794 43.2785L41.057 62.8716C41.3879 63.7423 40.7451 64.6735 39.8147 64.6735Z" fill="#F7F8F9" stroke="#101214" stroke-width="0.615023"/>
<path d="M23.3119 51.9749C21.9378 50.4511 19.8675 50.236 18.6895 51.2962C17.5117 52.3563 17.5103 54.436 18.8841 55.96C20.2581 57.484 22.3284 57.6989 23.5064 56.6388C24.6844 55.5786 24.6859 53.499 23.3119 51.9749Z" stroke="black" stroke-width="0.8"/>
<path d="M70.1082 47.6541C71.8988 47.816 72.8515 49.1464 72.9116 50.5986C73.0629 54.2698 72.3428 57.913 72.3428 57.913C70.6967 64.2733 66.2238 64.8587 62.8134 64.6416L56.4318 64.3586L55.984 59.0253L63.188 59.1227C65.009 59.1465 66.5148 57.7083 66.568 55.8889C66.6257 53.9161 66.7231 51.5673 66.8869 50.4015C67.143 48.7535 68.2096 47.4826 70.1082 47.6541Z" fill="white" stroke="#101214" stroke-width="0.615023" stroke-miterlimit="10" stroke-linecap="round" stroke-linejoin="round"/>
<path d="M52.5577 58.2843C50.0946 58.17 48.067 58.7585 48.0271 59.5982L47.8354 63.7182C47.7956 64.5579 49.7605 65.3326 52.2237 65.4468C54.6868 65.5611 56.7144 64.9727 56.7543 64.1329L56.946 60.013C56.9843 59.1713 55.0192 58.3984 52.5577 58.2843Z" fill="white" stroke="#101214" stroke-width="0.615023" stroke-miterlimit="10" stroke-linecap="round" stroke-linejoin="round"/>
<path d="M48.039 59.2369C48.0874 58.196 50.1234 57.4449 52.5865 57.5592C55.0496 57.6736 57.0072 58.6101 56.9588 59.651C56.9103 60.6919 54.8743 61.443 52.4112 61.3286C49.9481 61.2143 47.9905 60.2777 48.039 59.2369Z" fill="white" stroke="#101214" stroke-width="0.615023" stroke-miterlimit="10" stroke-linecap="round" stroke-linejoin="round"/>
<path d="M52.8533 58.7544C52.8431 58.7532 52.833 58.7503 52.8226 58.7508L48.2891 58.5397L48.2252 59.8992L52.5796 60.101L52.7588 60.1085C52.7691 60.1098 52.778 60.1074 52.7885 60.1069C53.9772 60.1312 54.3926 59.8589 54.409 59.5044C54.4272 59.1501 54.0398 58.8408 52.8533 58.7544Z" fill="#101214"/>
<path d="M66.6495 53.2335C66.6495 53.2335 71.2758 52.2062 72.5827 55.0204L66.6495 53.2335Z" fill="white"/>
<path d="M66.6495 53.2335C66.6495 53.2335 71.2758 52.2062 72.5827 55.0204" stroke="#101214" stroke-width="0.615023" stroke-miterlimit="10" stroke-linecap="round" stroke-linejoin="round"/>
<path d="M65.8774 58.0886C67.646 58.6945 70.1102 61.666 69.2129 63.0712" stroke="#101214" stroke-width="0.615023" stroke-miterlimit="10" stroke-linecap="round" stroke-linejoin="round"/>
<path d="M61.0147 59.2793C61.0147 59.2793 62.3862 61.7569 61.5991 64.4265" stroke="#101214" stroke-width="0.615023" stroke-miterlimit="10" stroke-linecap="round" stroke-linejoin="round"/>
<path fill-rule="evenodd" clip-rule="evenodd" d="M36.3031 94.8238L36.3162 94.811L27.1287 79.3824L27.1156 79.3953C26.8925 79.0096 26.4856 78.7524 26 78.7524C25.5144 78.7524 25.1206 79.0096 24.8844 79.3953L24.8713 79.3824L15.6838 94.811L15.6969 94.8238C15.5787 95.0167 15.5 95.2224 15.5 95.4667C15.5 96.1738 16.0906 96.7524 16.8125 96.7524H35.1875C35.9094 96.7524 36.5 96.1738 36.5 95.4667C36.5 95.2224 36.4212 95.0167 36.3031 94.8238ZM27.3123 92.8952C27.3123 93.6053 26.7366 94.181 26.0265 94.181H25.973C25.2629 94.181 24.6873 93.6053 24.6873 92.8952C24.6873 92.1852 25.2629 91.6095 25.973 91.6095H26.0265C26.7366 91.6095 27.3123 92.1852 27.3123 92.8952ZM25.9998 90.311C26.7246 90.311 27.3123 89.7234 27.3123 88.9985V85.195C27.3123 84.4701 26.7246 83.8825 25.9998 83.8825C25.2749 83.8825 24.6873 84.4701 24.6873 85.195V88.9985C24.6873 89.7234 25.2749 90.311 25.9998 90.311Z" fill="#F2B518"/>
<path opacity="0.5" d="M45.85 89.4024C45.6917 89.5607 45.5104 89.5961 45.3063 89.5086C45.1021 89.4211 45 89.2649 45 89.0399V86.4649C45 86.2399 45.1021 86.0836 45.3063 85.9961C45.5104 85.9086 45.6917 85.9441 45.85 86.1024L47.15 87.4024C47.2 87.4524 47.2375 87.5066 47.2625 87.5649C47.2875 87.6232 47.3 87.6857 47.3 87.7524C47.3 87.8191 47.2875 87.8816 47.2625 87.9399C47.2375 87.9982 47.2 88.0524 47.15 88.1024L45.85 89.4024Z" fill="#434343"/>
<path opacity="0.8" d="M49.85 89.4024C49.6917 89.5607 49.5104 89.5961 49.3063 89.5086C49.1021 89.4211 49 89.2649 49 89.0399V86.4649C49 86.2399 49.1021 86.0836 49.3063 85.9961C49.5104 85.9086 49.6917 85.9441 49.85 86.1024L51.15 87.4024C51.2 87.4524 51.2375 87.5066 51.2625 87.5649C51.2875 87.6232 51.3 87.6857 51.3 87.7524C51.3 87.8191 51.2875 87.8816 51.2625 87.9399C51.2375 87.9982 51.2 88.0524 51.15 88.1024L49.85 89.4024Z" fill="#434343"/>
<path d="M53.85 89.4024C53.6917 89.5607 53.5104 89.5961 53.3063 89.5086C53.1021 89.4211 53 89.2649 53 89.0399V86.4649C53 86.2399 53.1021 86.0836 53.3063 85.9961C53.5104 85.9086 53.6917 85.9441 53.85 86.1024L55.15 87.4024C55.2 87.4524 55.2375 87.5066 55.2625 87.5649C55.2875 87.6232 55.3 87.6857 55.3 87.7524C55.3 87.8191 55.2875 87.8816 55.2625 87.9399C55.2375 87.9982 55.2 88.0524 55.15 88.1024L53.85 89.4024Z" fill="#434343"/>
<path d="M70 92.7524C70.2833 92.7524 70.5208 92.6566 70.7125 92.4649C70.9042 92.2732 71 92.0357 71 91.7524V86.7524C71 86.4691 70.9042 86.2316 70.7125 86.0399C70.5208 85.8482 70.2833 85.7524 70 85.7524C69.7167 85.7524 69.4792 85.8482 69.2875 86.0399C69.0958 86.2316 69 86.4691 69 86.7524V91.7524C69 92.0357 69.0958 92.2732 69.2875 92.4649C69.4792 92.6566 69.7167 92.7524 70 92.7524ZM74 92.7524C74.2833 92.7524 74.5208 92.6566 74.7125 92.4649C74.9042 92.2732 75 92.0357 75 91.7524V83.7524C75 83.4691 74.9042 83.2316 74.7125 83.0399C74.5208 82.8482 74.2833 82.7524 74 82.7524C73.7167 82.7524 73.4792 82.8482 73.2875 83.0399C73.0958 83.2316 73 83.4691 73 83.7524V91.7524C73 92.0357 73.0958 92.2732 73.2875 92.4649C73.4792 92.6566 73.7167 92.7524 74 92.7524ZM78 92.7524C78.2833 92.7524 78.5208 92.6566 78.7125 92.4649C78.9042 92.2732 79 92.0357 79 91.7524V89.7524C79 89.4691 78.9042 89.2316 78.7125 89.0399C78.5208 88.8482 78.2833 88.7524 78 88.7524C77.7167 88.7524 77.4792 88.8482 77.2875 89.0399C77.0958 89.2316 77 89.4691 77 89.7524V91.7524C77 92.0357 77.0958 92.2732 77.2875 92.4649C77.4792 92.6566 77.7167 92.7524 78 92.7524ZM67 96.7524C66.45 96.7524 65.9792 96.5566 65.5875 96.1649C65.1958 95.7732 65 95.3024 65 94.7524V80.7524C65 80.2024 65.1958 79.7316 65.5875 79.3399C65.9792 78.9482 66.45 78.7524 67 78.7524H81C81.55 78.7524 82.0208 78.9482 82.4125 79.3399C82.8042 79.7316 83 80.2024 83 80.7524V94.7524C83 95.3024 82.8042 95.7732 82.4125 96.1649C82.0208 96.5566 81.55 96.7524 81 96.7524H67ZM67 94.7524H81V80.7524H67V94.7524Z" fill="#758195"/>
</svg>
