<svg width="376" height="295" viewBox="0 0 376 295" fill="none" xmlns="http://www.w3.org/2000/svg">
<g filter="url(#filter0_ddd_13421_33764)">
<path d="M20 16C20 11.5817 23.5817 8 28 8H348C352.418 8 356 11.5817 356 16V251C356 255.418 352.418 259 348 259H28C23.5817 259 20 255.418 20 251V16Z" fill="white"/>
</g>
<path d="M39.8027 37H38.8008V29.3125H36.1055V28.4336H42.4863V29.3125H39.8027V37ZM44.6074 27.8828V30.6074C44.6074 30.7637 44.6035 30.9219 44.5957 31.082C44.5879 31.2383 44.5742 31.3828 44.5547 31.5156H44.6191C44.752 31.2891 44.9199 31.0996 45.123 30.9473C45.3301 30.791 45.5645 30.6738 45.8262 30.5957C46.0879 30.5137 46.3652 30.4727 46.6582 30.4727C47.1738 30.4727 47.6035 30.5547 47.9473 30.7188C48.2949 30.8828 48.5547 31.1367 48.7266 31.4805C48.9023 31.8242 48.9902 32.2695 48.9902 32.8164V37H48.0293V32.8809C48.0293 32.3457 47.9062 31.9453 47.6602 31.6797C47.418 31.4141 47.0449 31.2812 46.541 31.2812C46.0645 31.2812 45.6836 31.373 45.3984 31.5566C45.1172 31.7363 44.9141 32.002 44.7891 32.3535C44.668 32.7051 44.6074 33.1348 44.6074 33.6426V37H43.6348V27.8828H44.6074ZM53.4668 30.4609C54.0137 30.4609 54.4824 30.582 54.873 30.8242C55.2637 31.0664 55.5625 31.4062 55.7695 31.8438C55.9766 32.2773 56.0801 32.7852 56.0801 33.3672V33.9707H51.6445C51.6562 34.7246 51.8438 35.2988 52.207 35.6934C52.5703 36.0879 53.082 36.2852 53.7422 36.2852C54.1484 36.2852 54.5078 36.248 54.8203 36.1738C55.1328 36.0996 55.457 35.9902 55.793 35.8457V36.7012C55.4688 36.8457 55.1465 36.9512 54.8262 37.0176C54.5098 37.084 54.1348 37.1172 53.7012 37.1172C53.084 37.1172 52.5449 36.9922 52.084 36.7422C51.627 36.4883 51.2715 36.1172 51.0176 35.6289C50.7637 35.1406 50.6367 34.543 50.6367 33.8359C50.6367 33.1445 50.752 32.5469 50.9824 32.043C51.2168 31.5352 51.5449 31.1445 51.9668 30.8711C52.3926 30.5977 52.8926 30.4609 53.4668 30.4609ZM53.4551 31.2578C52.9355 31.2578 52.5215 31.4277 52.2129 31.7676C51.9043 32.1074 51.7207 32.582 51.6621 33.1914H55.0605C55.0566 32.8086 54.9961 32.4727 54.8789 32.1836C54.7656 31.8906 54.5918 31.6641 54.3574 31.5039C54.123 31.3398 53.8223 31.2578 53.4551 31.2578ZM63.709 31.3398H62.1094V37H61.1367V31.3398H60V30.8711L61.1367 30.5488V30.1211C61.1367 29.582 61.2168 29.1445 61.377 28.8086C61.5371 28.4688 61.7695 28.2188 62.0742 28.0586C62.3789 27.8984 62.75 27.8184 63.1875 27.8184C63.4336 27.8184 63.6582 27.8398 63.8613 27.8828C64.0684 27.9258 64.25 27.9746 64.4062 28.0293L64.1543 28.7969C64.0215 28.7539 63.8711 28.7148 63.7031 28.6797C63.5391 28.6406 63.3711 28.6211 63.1992 28.6211C62.8281 28.6211 62.5527 28.7422 62.373 28.9844C62.1973 29.2227 62.1094 29.5977 62.1094 30.1094V30.5781H63.709V31.3398ZM65.8652 30.5781V37H64.8926V30.5781H65.8652ZM65.3906 28.1758C65.5508 28.1758 65.6875 28.2285 65.8008 28.334C65.918 28.4355 65.9766 28.5957 65.9766 28.8145C65.9766 29.0293 65.918 29.1895 65.8008 29.2949C65.6875 29.4004 65.5508 29.4531 65.3906 29.4531C65.2227 29.4531 65.082 29.4004 64.9688 29.2949C64.8594 29.1895 64.8047 29.0293 64.8047 28.8145C64.8047 28.5957 64.8594 28.4355 64.9688 28.334C65.082 28.2285 65.2227 28.1758 65.3906 28.1758ZM70.8457 30.4609C70.9746 30.4609 71.1094 30.4688 71.25 30.4844C71.3906 30.4961 71.5156 30.5137 71.625 30.5371L71.502 31.4395C71.3965 31.4121 71.2793 31.3906 71.1504 31.375C71.0215 31.3594 70.9004 31.3516 70.7871 31.3516C70.5293 31.3516 70.2852 31.4043 70.0547 31.5098C69.8281 31.6113 69.6289 31.7598 69.457 31.9551C69.2852 32.1465 69.1504 32.3789 69.0527 32.6523C68.9551 32.9219 68.9062 33.2227 68.9062 33.5547V37H67.9277V30.5781H68.7363L68.8418 31.7617H68.8828C69.0156 31.5234 69.1758 31.3066 69.3633 31.1113C69.5508 30.9121 69.7676 30.7539 70.0137 30.6367C70.2637 30.5195 70.541 30.4609 70.8457 30.4609ZM76.9922 35.2422C76.9922 35.6523 76.8887 35.998 76.6816 36.2793C76.4785 36.5566 76.1855 36.7656 75.8027 36.9062C75.4238 37.0469 74.9707 37.1172 74.4434 37.1172C73.9941 37.1172 73.6055 37.082 73.2773 37.0117C72.9492 36.9414 72.6621 36.8418 72.416 36.7129V35.8164C72.6777 35.9453 72.9902 36.0625 73.3535 36.168C73.7168 36.2734 74.0879 36.3262 74.4668 36.3262C75.0215 36.3262 75.4238 36.2363 75.6738 36.0566C75.9238 35.877 76.0488 35.6328 76.0488 35.3242C76.0488 35.1484 75.998 34.9941 75.8965 34.8613C75.7988 34.7246 75.6328 34.5938 75.3984 34.4688C75.1641 34.3398 74.8398 34.1992 74.4258 34.0469C74.0156 33.8906 73.6602 33.7363 73.3594 33.584C73.0625 33.4277 72.832 33.2383 72.668 33.0156C72.5078 32.793 72.4277 32.5039 72.4277 32.1484C72.4277 31.6055 72.6465 31.1895 73.084 30.9004C73.5254 30.6074 74.1035 30.4609 74.8184 30.4609C75.2051 30.4609 75.5664 30.5 75.9023 30.5781C76.2422 30.6523 76.5586 30.7539 76.8516 30.8828L76.5234 31.6621C76.2578 31.5488 75.9746 31.4531 75.6738 31.375C75.373 31.2969 75.0664 31.2578 74.7539 31.2578C74.3047 31.2578 73.959 31.332 73.7168 31.4805C73.4785 31.6289 73.3594 31.832 73.3594 32.0898C73.3594 32.2891 73.4141 32.4531 73.5234 32.582C73.6367 32.7109 73.8164 32.832 74.0625 32.9453C74.3086 33.0586 74.6328 33.1914 75.0352 33.3438C75.4375 33.4922 75.7852 33.6465 76.0781 33.8066C76.3711 33.9629 76.5957 34.1543 76.752 34.3809C76.9121 34.6035 76.9922 34.8906 76.9922 35.2422ZM80.6309 36.3203C80.791 36.3203 80.9551 36.3066 81.123 36.2793C81.291 36.252 81.4277 36.2188 81.5332 36.1797V36.9355C81.4199 36.9863 81.2617 37.0293 81.0586 37.0645C80.8594 37.0996 80.6641 37.1172 80.4727 37.1172C80.1328 37.1172 79.8242 37.0586 79.5469 36.9414C79.2695 36.8203 79.0469 36.6172 78.8789 36.332C78.7148 36.0469 78.6328 35.6523 78.6328 35.1484V31.3398H77.7188V30.8652L78.6387 30.4844L79.0254 29.0898H79.6113V30.5781H81.4922V31.3398H79.6113V35.1191C79.6113 35.5215 79.7031 35.8223 79.8867 36.0215C80.0742 36.2207 80.3223 36.3203 80.6309 36.3203ZM91.1777 36.9883L90.0352 33.25C89.9844 33.0898 89.9355 32.9336 89.8887 32.7812C89.8457 32.625 89.8047 32.4766 89.7656 32.3359C89.7305 32.1914 89.6973 32.0586 89.666 31.9375C89.6387 31.8125 89.6152 31.7051 89.5957 31.6152H89.5547C89.5391 31.7051 89.5176 31.8125 89.4902 31.9375C89.4629 32.0586 89.4297 32.1914 89.3906 32.3359C89.3555 32.4805 89.3164 32.6328 89.2734 32.793C89.2305 32.9492 89.1816 33.1074 89.127 33.2676L87.9316 36.9883H86.8359L85.0664 30.5664H86.0742L87 34.1113C87.0625 34.3457 87.1211 34.5781 87.1758 34.8086C87.2344 35.0352 87.2832 35.25 87.3223 35.4531C87.3652 35.6523 87.3965 35.8262 87.416 35.9746H87.4629C87.4863 35.877 87.5117 35.7598 87.5391 35.623C87.5703 35.4863 87.6035 35.3418 87.6387 35.1895C87.6777 35.0332 87.7188 34.8789 87.7617 34.7266C87.8047 34.5703 87.8477 34.4238 87.8906 34.2871L89.0742 30.5664H90.123L91.2656 34.2812C91.3242 34.4688 91.3809 34.6641 91.4355 34.8672C91.4941 35.0703 91.5469 35.2676 91.5938 35.459C91.6406 35.6465 91.6738 35.8145 91.6934 35.9629H91.7402C91.7559 35.8301 91.7852 35.666 91.8281 35.4707C91.8711 35.2754 91.9199 35.0605 91.9746 34.8262C92.0332 34.5918 92.0938 34.3535 92.1562 34.1113L93.0938 30.5664H94.084L92.3086 36.9883H91.1777ZM100.793 33.7773C100.793 34.3047 100.725 34.7754 100.588 35.1895C100.451 35.6035 100.254 35.9531 99.9961 36.2383C99.7383 36.5234 99.4258 36.7422 99.0586 36.8945C98.6953 37.043 98.2832 37.1172 97.8223 37.1172C97.3926 37.1172 96.998 37.043 96.6387 36.8945C96.2832 36.7422 95.9746 36.5234 95.7129 36.2383C95.4551 35.9531 95.2539 35.6035 95.1094 35.1895C94.9688 34.7754 94.8984 34.3047 94.8984 33.7773C94.8984 33.0742 95.0176 32.4766 95.2559 31.9844C95.4941 31.4883 95.834 31.1113 96.2754 30.8535C96.7207 30.5918 97.25 30.4609 97.8633 30.4609C98.4492 30.4609 98.9609 30.5918 99.3984 30.8535C99.8398 31.1152 100.182 31.4941 100.424 31.9902C100.67 32.4824 100.793 33.0781 100.793 33.7773ZM95.9062 33.7773C95.9062 34.293 95.9746 34.7402 96.1113 35.1191C96.248 35.498 96.459 35.791 96.7441 35.998C97.0293 36.2051 97.3965 36.3086 97.8457 36.3086C98.291 36.3086 98.6562 36.2051 98.9414 35.998C99.2305 35.791 99.4434 35.498 99.5801 35.1191C99.7168 34.7402 99.7852 34.293 99.7852 33.7773C99.7852 33.2656 99.7168 32.8242 99.5801 32.4531C99.4434 32.0781 99.2324 31.7891 98.9473 31.5859C98.6621 31.3828 98.293 31.2812 97.8398 31.2812C97.1719 31.2812 96.6816 31.502 96.3691 31.9434C96.0605 32.3848 95.9062 32.9961 95.9062 33.7773ZM105.393 30.4609C105.521 30.4609 105.656 30.4688 105.797 30.4844C105.938 30.4961 106.062 30.5137 106.172 30.5371L106.049 31.4395C105.943 31.4121 105.826 31.3906 105.697 31.375C105.568 31.3594 105.447 31.3516 105.334 31.3516C105.076 31.3516 104.832 31.4043 104.602 31.5098C104.375 31.6113 104.176 31.7598 104.004 31.9551C103.832 32.1465 103.697 32.3789 103.6 32.6523C103.502 32.9219 103.453 33.2227 103.453 33.5547V37H102.475V30.5781H103.283L103.389 31.7617H103.43C103.562 31.5234 103.723 31.3066 103.91 31.1113C104.098 30.9121 104.314 30.7539 104.561 30.6367C104.811 30.5195 105.088 30.4609 105.393 30.4609ZM109.67 37.1172C108.857 37.1172 108.213 36.8398 107.736 36.2852C107.264 35.7305 107.027 34.9062 107.027 33.8125C107.027 32.707 107.27 31.873 107.754 31.3105C108.238 30.7441 108.883 30.4609 109.688 30.4609C110.027 30.4609 110.324 30.5059 110.578 30.5957C110.832 30.6855 111.051 30.8066 111.234 30.959C111.418 31.1074 111.572 31.2773 111.697 31.4688H111.768C111.752 31.3477 111.736 31.1816 111.721 30.9707C111.705 30.7598 111.697 30.5879 111.697 30.4551V27.8828H112.67V37H111.885L111.738 36.0859H111.697C111.576 36.2773 111.422 36.4512 111.234 36.6074C111.051 36.7637 110.83 36.8887 110.572 36.9824C110.318 37.0723 110.018 37.1172 109.67 37.1172ZM109.822 36.3086C110.51 36.3086 110.996 36.1133 111.281 35.7227C111.566 35.332 111.709 34.752 111.709 33.9824V33.8066C111.709 32.9902 111.572 32.3633 111.299 31.9258C111.029 31.4883 110.537 31.2695 109.822 31.2695C109.225 31.2695 108.777 31.5 108.48 31.9609C108.184 32.418 108.035 33.043 108.035 33.8359C108.035 34.625 108.182 35.2344 108.475 35.6641C108.771 36.0938 109.221 36.3086 109.822 36.3086ZM123.387 33.7773C123.387 34.3047 123.318 34.7754 123.182 35.1895C123.045 35.6035 122.848 35.9531 122.59 36.2383C122.332 36.5234 122.02 36.7422 121.652 36.8945C121.289 37.043 120.877 37.1172 120.416 37.1172C119.986 37.1172 119.592 37.043 119.232 36.8945C118.877 36.7422 118.568 36.5234 118.307 36.2383C118.049 35.9531 117.848 35.6035 117.703 35.1895C117.562 34.7754 117.492 34.3047 117.492 33.7773C117.492 33.0742 117.611 32.4766 117.85 31.9844C118.088 31.4883 118.428 31.1113 118.869 30.8535C119.314 30.5918 119.844 30.4609 120.457 30.4609C121.043 30.4609 121.555 30.5918 121.992 30.8535C122.434 31.1152 122.775 31.4941 123.018 31.9902C123.264 32.4824 123.387 33.0781 123.387 33.7773ZM118.5 33.7773C118.5 34.293 118.568 34.7402 118.705 35.1191C118.842 35.498 119.053 35.791 119.338 35.998C119.623 36.2051 119.99 36.3086 120.439 36.3086C120.885 36.3086 121.25 36.2051 121.535 35.998C121.824 35.791 122.037 35.498 122.174 35.1191C122.311 34.7402 122.379 34.293 122.379 33.7773C122.379 33.2656 122.311 32.8242 122.174 32.4531C122.037 32.0781 121.826 31.7891 121.541 31.5859C121.256 31.3828 120.887 31.2812 120.434 31.2812C119.766 31.2812 119.275 31.502 118.963 31.9434C118.654 32.3848 118.5 32.9961 118.5 33.7773ZM127.928 31.3398H126.328V37H125.355V31.3398H124.219V30.8711L125.355 30.5488V30.1211C125.355 29.582 125.436 29.1445 125.596 28.8086C125.756 28.4688 125.988 28.2188 126.293 28.0586C126.598 27.8984 126.969 27.8184 127.406 27.8184C127.652 27.8184 127.877 27.8398 128.08 27.8828C128.287 27.9258 128.469 27.9746 128.625 28.0293L128.373 28.7969C128.24 28.7539 128.09 28.7148 127.922 28.6797C127.758 28.6406 127.59 28.6211 127.418 28.6211C127.047 28.6211 126.771 28.7422 126.592 28.9844C126.416 29.2227 126.328 29.5977 126.328 30.1094V30.5781H127.928V31.3398ZM134.701 30.4609C135.248 30.4609 135.717 30.582 136.107 30.8242C136.498 31.0664 136.797 31.4062 137.004 31.8438C137.211 32.2773 137.314 32.7852 137.314 33.3672V33.9707H132.879C132.891 34.7246 133.078 35.2988 133.441 35.6934C133.805 36.0879 134.316 36.2852 134.977 36.2852C135.383 36.2852 135.742 36.248 136.055 36.1738C136.367 36.0996 136.691 35.9902 137.027 35.8457V36.7012C136.703 36.8457 136.381 36.9512 136.061 37.0176C135.744 37.084 135.369 37.1172 134.936 37.1172C134.318 37.1172 133.779 36.9922 133.318 36.7422C132.861 36.4883 132.506 36.1172 132.252 35.6289C131.998 35.1406 131.871 34.543 131.871 33.8359C131.871 33.1445 131.986 32.5469 132.217 32.043C132.451 31.5352 132.779 31.1445 133.201 30.8711C133.627 30.5977 134.127 30.4609 134.701 30.4609ZM134.689 31.2578C134.17 31.2578 133.756 31.4277 133.447 31.7676C133.139 32.1074 132.955 32.582 132.896 33.1914H136.295C136.291 32.8086 136.23 32.4727 136.113 32.1836C136 31.8906 135.826 31.6641 135.592 31.5039C135.357 31.3398 135.057 31.2578 134.689 31.2578ZM141.369 30.4727C142.135 30.4727 142.703 30.6445 143.074 30.9883C143.445 31.332 143.631 31.8809 143.631 32.6348V37H142.922L142.734 36.0508H142.688C142.508 36.2852 142.32 36.4824 142.125 36.6426C141.93 36.7988 141.703 36.918 141.445 37C141.191 37.0781 140.879 37.1172 140.508 37.1172C140.117 37.1172 139.77 37.0488 139.465 36.9121C139.164 36.7754 138.926 36.5684 138.75 36.291C138.578 36.0137 138.492 35.6621 138.492 35.2363C138.492 34.5957 138.746 34.1035 139.254 33.7598C139.762 33.416 140.535 33.2285 141.574 33.1973L142.682 33.1504V32.7578C142.682 32.2031 142.562 31.8145 142.324 31.5918C142.086 31.3691 141.75 31.2578 141.316 31.2578C140.98 31.2578 140.66 31.3066 140.355 31.4043C140.051 31.502 139.762 31.6172 139.488 31.75L139.189 31.0117C139.479 30.8633 139.811 30.7363 140.186 30.6309C140.561 30.5254 140.955 30.4727 141.369 30.4727ZM142.67 33.8359L141.691 33.877C140.891 33.9082 140.326 34.0391 139.998 34.2695C139.67 34.5 139.506 34.8262 139.506 35.248C139.506 35.6152 139.617 35.8867 139.84 36.0625C140.062 36.2383 140.357 36.3262 140.725 36.3262C141.295 36.3262 141.762 36.168 142.125 35.8516C142.488 35.5352 142.67 35.0605 142.67 34.4277V33.8359ZM148.207 37.1172C147.629 37.1172 147.119 36.998 146.678 36.7598C146.236 36.5215 145.893 36.1582 145.646 35.6699C145.4 35.1816 145.277 34.5664 145.277 33.8242C145.277 33.0469 145.406 32.4121 145.664 31.9199C145.926 31.4238 146.285 31.0566 146.742 30.8184C147.199 30.5801 147.719 30.4609 148.301 30.4609C148.621 30.4609 148.93 30.4941 149.227 30.5605C149.527 30.623 149.773 30.7031 149.965 30.8008L149.672 31.6152C149.477 31.5371 149.25 31.4668 148.992 31.4043C148.738 31.3418 148.5 31.3105 148.277 31.3105C147.832 31.3105 147.461 31.4062 147.164 31.5977C146.871 31.7891 146.65 32.0703 146.502 32.4414C146.357 32.8125 146.285 33.2695 146.285 33.8125C146.285 34.332 146.355 34.7754 146.496 35.1426C146.641 35.5098 146.854 35.791 147.135 35.9863C147.42 36.1777 147.775 36.2734 148.201 36.2734C148.541 36.2734 148.848 36.2383 149.121 36.168C149.395 36.0938 149.643 36.0078 149.865 35.9102V36.7773C149.65 36.8867 149.41 36.9707 149.145 37.0293C148.883 37.0879 148.57 37.1172 148.207 37.1172ZM152.361 27.8828V30.6074C152.361 30.7637 152.357 30.9219 152.35 31.082C152.342 31.2383 152.328 31.3828 152.309 31.5156H152.373C152.506 31.2891 152.674 31.0996 152.877 30.9473C153.084 30.791 153.318 30.6738 153.58 30.5957C153.842 30.5137 154.119 30.4727 154.412 30.4727C154.928 30.4727 155.357 30.5547 155.701 30.7188C156.049 30.8828 156.309 31.1367 156.48 31.4805C156.656 31.8242 156.744 32.2695 156.744 32.8164V37H155.783V32.8809C155.783 32.3457 155.66 31.9453 155.414 31.6797C155.172 31.4141 154.799 31.2812 154.295 31.2812C153.818 31.2812 153.438 31.373 153.152 31.5566C152.871 31.7363 152.668 32.002 152.543 32.3535C152.422 32.7051 152.361 33.1348 152.361 33.6426V37H151.389V27.8828H152.361ZM164.906 30.4609C165.668 30.4609 166.244 30.6484 166.635 31.0234C167.025 31.3945 167.221 31.9922 167.221 32.8164V37H166.26V32.8809C166.26 32.3457 166.137 31.9453 165.891 31.6797C165.648 31.4141 165.275 31.2812 164.771 31.2812C164.061 31.2812 163.561 31.4824 163.271 31.8848C162.982 32.2871 162.838 32.8711 162.838 33.6367V37H161.865V30.5781H162.65L162.797 31.5039H162.85C162.986 31.2773 163.16 31.0879 163.371 30.9355C163.582 30.7793 163.818 30.6621 164.08 30.584C164.342 30.502 164.617 30.4609 164.906 30.4609ZM171.697 30.4609C172.244 30.4609 172.713 30.582 173.104 30.8242C173.494 31.0664 173.793 31.4062 174 31.8438C174.207 32.2773 174.311 32.7852 174.311 33.3672V33.9707H169.875C169.887 34.7246 170.074 35.2988 170.438 35.6934C170.801 36.0879 171.312 36.2852 171.973 36.2852C172.379 36.2852 172.738 36.248 173.051 36.1738C173.363 36.0996 173.688 35.9902 174.023 35.8457V36.7012C173.699 36.8457 173.377 36.9512 173.057 37.0176C172.74 37.084 172.365 37.1172 171.932 37.1172C171.314 37.1172 170.775 36.9922 170.314 36.7422C169.857 36.4883 169.502 36.1172 169.248 35.6289C168.994 35.1406 168.867 34.543 168.867 33.8359C168.867 33.1445 168.982 32.5469 169.213 32.043C169.447 31.5352 169.775 31.1445 170.197 30.8711C170.623 30.5977 171.123 30.4609 171.697 30.4609ZM171.686 31.2578C171.166 31.2578 170.752 31.4277 170.443 31.7676C170.135 32.1074 169.951 32.582 169.893 33.1914H173.291C173.287 32.8086 173.227 32.4727 173.109 32.1836C172.996 31.8906 172.822 31.6641 172.588 31.5039C172.354 31.3398 172.053 31.2578 171.686 31.2578ZM181.189 36.9883L180.047 33.25C179.996 33.0898 179.947 32.9336 179.9 32.7812C179.857 32.625 179.816 32.4766 179.777 32.3359C179.742 32.1914 179.709 32.0586 179.678 31.9375C179.65 31.8125 179.627 31.7051 179.607 31.6152H179.566C179.551 31.7051 179.529 31.8125 179.502 31.9375C179.475 32.0586 179.441 32.1914 179.402 32.3359C179.367 32.4805 179.328 32.6328 179.285 32.793C179.242 32.9492 179.193 33.1074 179.139 33.2676L177.943 36.9883H176.848L175.078 30.5664H176.086L177.012 34.1113C177.074 34.3457 177.133 34.5781 177.188 34.8086C177.246 35.0352 177.295 35.25 177.334 35.4531C177.377 35.6523 177.408 35.8262 177.428 35.9746H177.475C177.498 35.877 177.523 35.7598 177.551 35.623C177.582 35.4863 177.615 35.3418 177.65 35.1895C177.689 35.0332 177.73 34.8789 177.773 34.7266C177.816 34.5703 177.859 34.4238 177.902 34.2871L179.086 30.5664H180.135L181.277 34.2812C181.336 34.4688 181.393 34.6641 181.447 34.8672C181.506 35.0703 181.559 35.2676 181.605 35.459C181.652 35.6465 181.686 35.8145 181.705 35.9629H181.752C181.768 35.8301 181.797 35.666 181.84 35.4707C181.883 35.2754 181.932 35.0605 181.986 34.8262C182.045 34.5918 182.105 34.3535 182.168 34.1113L183.105 30.5664H184.096L182.32 36.9883H181.189ZM192.539 35.2422C192.539 35.6523 192.436 35.998 192.229 36.2793C192.025 36.5566 191.732 36.7656 191.35 36.9062C190.971 37.0469 190.518 37.1172 189.99 37.1172C189.541 37.1172 189.152 37.082 188.824 37.0117C188.496 36.9414 188.209 36.8418 187.963 36.7129V35.8164C188.225 35.9453 188.537 36.0625 188.9 36.168C189.264 36.2734 189.635 36.3262 190.014 36.3262C190.568 36.3262 190.971 36.2363 191.221 36.0566C191.471 35.877 191.596 35.6328 191.596 35.3242C191.596 35.1484 191.545 34.9941 191.443 34.8613C191.346 34.7246 191.18 34.5938 190.945 34.4688C190.711 34.3398 190.387 34.1992 189.973 34.0469C189.562 33.8906 189.207 33.7363 188.906 33.584C188.609 33.4277 188.379 33.2383 188.215 33.0156C188.055 32.793 187.975 32.5039 187.975 32.1484C187.975 31.6055 188.193 31.1895 188.631 30.9004C189.072 30.6074 189.65 30.4609 190.365 30.4609C190.752 30.4609 191.113 30.5 191.449 30.5781C191.789 30.6523 192.105 30.7539 192.398 30.8828L192.07 31.6621C191.805 31.5488 191.521 31.4531 191.221 31.375C190.92 31.2969 190.613 31.2578 190.301 31.2578C189.852 31.2578 189.506 31.332 189.264 31.4805C189.025 31.6289 188.906 31.832 188.906 32.0898C188.906 32.2891 188.961 32.4531 189.07 32.582C189.184 32.7109 189.363 32.832 189.609 32.9453C189.855 33.0586 190.18 33.1914 190.582 33.3438C190.984 33.4922 191.332 33.6465 191.625 33.8066C191.918 33.9629 192.143 34.1543 192.299 34.3809C192.459 34.6035 192.539 34.8906 192.539 35.2422ZM196.576 30.4609C197.123 30.4609 197.592 30.582 197.982 30.8242C198.373 31.0664 198.672 31.4062 198.879 31.8438C199.086 32.2773 199.189 32.7852 199.189 33.3672V33.9707H194.754C194.766 34.7246 194.953 35.2988 195.316 35.6934C195.68 36.0879 196.191 36.2852 196.852 36.2852C197.258 36.2852 197.617 36.248 197.93 36.1738C198.242 36.0996 198.566 35.9902 198.902 35.8457V36.7012C198.578 36.8457 198.256 36.9512 197.936 37.0176C197.619 37.084 197.244 37.1172 196.811 37.1172C196.193 37.1172 195.654 36.9922 195.193 36.7422C194.736 36.4883 194.381 36.1172 194.127 35.6289C193.873 35.1406 193.746 34.543 193.746 33.8359C193.746 33.1445 193.861 32.5469 194.092 32.043C194.326 31.5352 194.654 31.1445 195.076 30.8711C195.502 30.5977 196.002 30.4609 196.576 30.4609ZM196.564 31.2578C196.045 31.2578 195.631 31.4277 195.322 31.7676C195.014 32.1074 194.83 32.582 194.771 33.1914H198.17C198.166 32.8086 198.105 32.4727 197.988 32.1836C197.875 31.8906 197.701 31.6641 197.467 31.5039C197.232 31.3398 196.932 31.2578 196.564 31.2578ZM203.883 30.4609C204.645 30.4609 205.221 30.6484 205.611 31.0234C206.002 31.3945 206.197 31.9922 206.197 32.8164V37H205.236V32.8809C205.236 32.3457 205.113 31.9453 204.867 31.6797C204.625 31.4141 204.252 31.2812 203.748 31.2812C203.037 31.2812 202.537 31.4824 202.248 31.8848C201.959 32.2871 201.814 32.8711 201.814 33.6367V37H200.842V30.5781H201.627L201.773 31.5039H201.826C201.963 31.2773 202.137 31.0879 202.348 30.9355C202.559 30.7793 202.795 30.6621 203.057 30.584C203.318 30.502 203.594 30.4609 203.883 30.4609ZM210.275 36.3203C210.436 36.3203 210.6 36.3066 210.768 36.2793C210.936 36.252 211.072 36.2188 211.178 36.1797V36.9355C211.064 36.9863 210.906 37.0293 210.703 37.0645C210.504 37.0996 210.309 37.1172 210.117 37.1172C209.777 37.1172 209.469 37.0586 209.191 36.9414C208.914 36.8203 208.691 36.6172 208.523 36.332C208.359 36.0469 208.277 35.6523 208.277 35.1484V31.3398H207.363V30.8652L208.283 30.4844L208.67 29.0898H209.256V30.5781H211.137V31.3398H209.256V35.1191C209.256 35.5215 209.348 35.8223 209.531 36.0215C209.719 36.2207 209.967 36.3203 210.275 36.3203ZM214.951 30.4609C215.498 30.4609 215.967 30.582 216.357 30.8242C216.748 31.0664 217.047 31.4062 217.254 31.8438C217.461 32.2773 217.564 32.7852 217.564 33.3672V33.9707H213.129C213.141 34.7246 213.328 35.2988 213.691 35.6934C214.055 36.0879 214.566 36.2852 215.227 36.2852C215.633 36.2852 215.992 36.248 216.305 36.1738C216.617 36.0996 216.941 35.9902 217.277 35.8457V36.7012C216.953 36.8457 216.631 36.9512 216.311 37.0176C215.994 37.084 215.619 37.1172 215.186 37.1172C214.568 37.1172 214.029 36.9922 213.568 36.7422C213.111 36.4883 212.756 36.1172 212.502 35.6289C212.248 35.1406 212.121 34.543 212.121 33.8359C212.121 33.1445 212.236 32.5469 212.467 32.043C212.701 31.5352 213.029 31.1445 213.451 30.8711C213.877 30.5977 214.377 30.4609 214.951 30.4609ZM214.939 31.2578C214.42 31.2578 214.006 31.4277 213.697 31.7676C213.389 32.1074 213.205 32.582 213.146 33.1914H216.545C216.541 32.8086 216.48 32.4727 216.363 32.1836C216.25 31.8906 216.076 31.6641 215.842 31.5039C215.607 31.3398 215.307 31.2578 214.939 31.2578ZM222.258 30.4609C223.02 30.4609 223.596 30.6484 223.986 31.0234C224.377 31.3945 224.572 31.9922 224.572 32.8164V37H223.611V32.8809C223.611 32.3457 223.488 31.9453 223.242 31.6797C223 31.4141 222.627 31.2812 222.123 31.2812C221.412 31.2812 220.912 31.4824 220.623 31.8848C220.334 32.2871 220.189 32.8711 220.189 33.6367V37H219.217V30.5781H220.002L220.148 31.5039H220.201C220.338 31.2773 220.512 31.0879 220.723 30.9355C220.934 30.7793 221.17 30.6621 221.432 30.584C221.693 30.502 221.969 30.4609 222.258 30.4609ZM229.148 37.1172C228.57 37.1172 228.061 36.998 227.619 36.7598C227.178 36.5215 226.834 36.1582 226.588 35.6699C226.342 35.1816 226.219 34.5664 226.219 33.8242C226.219 33.0469 226.348 32.4121 226.605 31.9199C226.867 31.4238 227.227 31.0566 227.684 30.8184C228.141 30.5801 228.66 30.4609 229.242 30.4609C229.562 30.4609 229.871 30.4941 230.168 30.5605C230.469 30.623 230.715 30.7031 230.906 30.8008L230.613 31.6152C230.418 31.5371 230.191 31.4668 229.934 31.4043C229.68 31.3418 229.441 31.3105 229.219 31.3105C228.773 31.3105 228.402 31.4062 228.105 31.5977C227.812 31.7891 227.592 32.0703 227.443 32.4414C227.299 32.8125 227.227 33.2695 227.227 33.8125C227.227 34.332 227.297 34.7754 227.438 35.1426C227.582 35.5098 227.795 35.791 228.076 35.9863C228.361 36.1777 228.717 36.2734 229.143 36.2734C229.482 36.2734 229.789 36.2383 230.062 36.168C230.336 36.0938 230.584 36.0078 230.807 35.9102V36.7773C230.592 36.8867 230.352 36.9707 230.086 37.0293C229.824 37.0879 229.512 37.1172 229.148 37.1172ZM234.803 30.4609C235.35 30.4609 235.818 30.582 236.209 30.8242C236.6 31.0664 236.898 31.4062 237.105 31.8438C237.312 32.2773 237.416 32.7852 237.416 33.3672V33.9707H232.98C232.992 34.7246 233.18 35.2988 233.543 35.6934C233.906 36.0879 234.418 36.2852 235.078 36.2852C235.484 36.2852 235.844 36.248 236.156 36.1738C236.469 36.0996 236.793 35.9902 237.129 35.8457V36.7012C236.805 36.8457 236.482 36.9512 236.162 37.0176C235.846 37.084 235.471 37.1172 235.037 37.1172C234.42 37.1172 233.881 36.9922 233.42 36.7422C232.963 36.4883 232.607 36.1172 232.354 35.6289C232.1 35.1406 231.973 34.543 231.973 33.8359C231.973 33.1445 232.088 32.5469 232.318 32.043C232.553 31.5352 232.881 31.1445 233.303 30.8711C233.729 30.5977 234.229 30.4609 234.803 30.4609ZM234.791 31.2578C234.271 31.2578 233.857 31.4277 233.549 31.7676C233.24 32.1074 233.057 32.582 232.998 33.1914H236.396C236.393 32.8086 236.332 32.4727 236.215 32.1836C236.102 31.8906 235.928 31.6641 235.693 31.5039C235.459 31.3398 235.158 31.2578 234.791 31.2578ZM246.34 35.2422C246.34 35.6523 246.236 35.998 246.029 36.2793C245.826 36.5566 245.533 36.7656 245.15 36.9062C244.771 37.0469 244.318 37.1172 243.791 37.1172C243.342 37.1172 242.953 37.082 242.625 37.0117C242.297 36.9414 242.01 36.8418 241.764 36.7129V35.8164C242.025 35.9453 242.338 36.0625 242.701 36.168C243.064 36.2734 243.436 36.3262 243.814 36.3262C244.369 36.3262 244.771 36.2363 245.021 36.0566C245.271 35.877 245.396 35.6328 245.396 35.3242C245.396 35.1484 245.346 34.9941 245.244 34.8613C245.146 34.7246 244.98 34.5938 244.746 34.4688C244.512 34.3398 244.188 34.1992 243.773 34.0469C243.363 33.8906 243.008 33.7363 242.707 33.584C242.41 33.4277 242.18 33.2383 242.016 33.0156C241.855 32.793 241.775 32.5039 241.775 32.1484C241.775 31.6055 241.994 31.1895 242.432 30.9004C242.873 30.6074 243.451 30.4609 244.166 30.4609C244.553 30.4609 244.914 30.5 245.25 30.5781C245.59 30.6523 245.906 30.7539 246.199 30.8828L245.871 31.6621C245.605 31.5488 245.322 31.4531 245.021 31.375C244.721 31.2969 244.414 31.2578 244.102 31.2578C243.652 31.2578 243.307 31.332 243.064 31.4805C242.826 31.6289 242.707 31.832 242.707 32.0898C242.707 32.2891 242.762 32.4531 242.871 32.582C242.984 32.7109 243.164 32.832 243.41 32.9453C243.656 33.0586 243.98 33.1914 244.383 33.3438C244.785 33.4922 245.133 33.6465 245.426 33.8066C245.719 33.9629 245.943 34.1543 246.1 34.3809C246.26 34.6035 246.34 34.8906 246.34 35.2422ZM248.877 27.8828V30.6074C248.877 30.7637 248.873 30.9219 248.865 31.082C248.857 31.2383 248.844 31.3828 248.824 31.5156H248.889C249.021 31.2891 249.189 31.0996 249.393 30.9473C249.6 30.791 249.834 30.6738 250.096 30.5957C250.357 30.5137 250.635 30.4727 250.928 30.4727C251.443 30.4727 251.873 30.5547 252.217 30.7188C252.564 30.8828 252.824 31.1367 252.996 31.4805C253.172 31.8242 253.26 32.2695 253.26 32.8164V37H252.299V32.8809C252.299 32.3457 252.176 31.9453 251.93 31.6797C251.688 31.4141 251.314 31.2812 250.811 31.2812C250.334 31.2812 249.953 31.373 249.668 31.5566C249.387 31.7363 249.184 32.002 249.059 32.3535C248.938 32.7051 248.877 33.1348 248.877 33.6426V37H247.904V27.8828H248.877ZM260.801 33.7773C260.801 34.3047 260.732 34.7754 260.596 35.1895C260.459 35.6035 260.262 35.9531 260.004 36.2383C259.746 36.5234 259.434 36.7422 259.066 36.8945C258.703 37.043 258.291 37.1172 257.83 37.1172C257.4 37.1172 257.006 37.043 256.646 36.8945C256.291 36.7422 255.982 36.5234 255.721 36.2383C255.463 35.9531 255.262 35.6035 255.117 35.1895C254.977 34.7754 254.906 34.3047 254.906 33.7773C254.906 33.0742 255.025 32.4766 255.264 31.9844C255.502 31.4883 255.842 31.1113 256.283 30.8535C256.729 30.5918 257.258 30.4609 257.871 30.4609C258.457 30.4609 258.969 30.5918 259.406 30.8535C259.848 31.1152 260.189 31.4941 260.432 31.9902C260.678 32.4824 260.801 33.0781 260.801 33.7773ZM255.914 33.7773C255.914 34.293 255.982 34.7402 256.119 35.1191C256.256 35.498 256.467 35.791 256.752 35.998C257.037 36.2051 257.404 36.3086 257.854 36.3086C258.299 36.3086 258.664 36.2051 258.949 35.998C259.238 35.791 259.451 35.498 259.588 35.1191C259.725 34.7402 259.793 34.293 259.793 33.7773C259.793 33.2656 259.725 32.8242 259.588 32.4531C259.451 32.0781 259.24 31.7891 258.955 31.5859C258.67 31.3828 258.301 31.2812 257.848 31.2812C257.18 31.2812 256.689 31.502 256.377 31.9434C256.068 32.3848 255.914 32.9961 255.914 33.7773ZM267.785 30.5781V37H266.988L266.848 36.0977H266.795C266.662 36.3203 266.49 36.5078 266.279 36.6602C266.068 36.8125 265.83 36.9258 265.564 37C265.303 37.0781 265.023 37.1172 264.727 37.1172C264.219 37.1172 263.793 37.0352 263.449 36.8711C263.105 36.707 262.846 36.4531 262.67 36.1094C262.498 35.7656 262.412 35.3242 262.412 34.7852V30.5781H263.396V34.7148C263.396 35.25 263.518 35.6504 263.76 35.916C264.002 36.1777 264.371 36.3086 264.867 36.3086C265.344 36.3086 265.723 36.2188 266.004 36.0391C266.289 35.8594 266.494 35.5957 266.619 35.248C266.744 34.8965 266.807 34.4668 266.807 33.959V30.5781H267.785ZM270.82 37H269.842V27.8828H270.82V37ZM275.162 37.1172C274.35 37.1172 273.705 36.8398 273.229 36.2852C272.756 35.7305 272.52 34.9062 272.52 33.8125C272.52 32.707 272.762 31.873 273.246 31.3105C273.73 30.7441 274.375 30.4609 275.18 30.4609C275.52 30.4609 275.816 30.5059 276.07 30.5957C276.324 30.6855 276.543 30.8066 276.727 30.959C276.91 31.1074 277.064 31.2773 277.189 31.4688H277.26C277.244 31.3477 277.229 31.1816 277.213 30.9707C277.197 30.7598 277.189 30.5879 277.189 30.4551V27.8828H278.162V37H277.377L277.23 36.0859H277.189C277.068 36.2773 276.914 36.4512 276.727 36.6074C276.543 36.7637 276.322 36.8887 276.064 36.9824C275.811 37.0723 275.51 37.1172 275.162 37.1172ZM275.314 36.3086C276.002 36.3086 276.488 36.1133 276.773 35.7227C277.059 35.332 277.201 34.752 277.201 33.9824V33.8066C277.201 32.9902 277.064 32.3633 276.791 31.9258C276.521 31.4883 276.029 31.2695 275.314 31.2695C274.717 31.2695 274.27 31.5 273.973 31.9609C273.676 32.418 273.527 33.043 273.527 33.8359C273.527 34.625 273.674 35.2344 273.967 35.6641C274.264 36.0938 274.713 36.3086 275.314 36.3086ZM284.314 27.8828V30.1621C284.314 30.4238 284.307 30.6777 284.291 30.9238C284.279 31.1699 284.27 31.3613 284.262 31.498H284.314C284.49 31.209 284.744 30.9648 285.076 30.7656C285.408 30.5664 285.832 30.4668 286.348 30.4668C287.152 30.4668 287.793 30.7461 288.27 31.3047C288.75 31.8594 288.99 32.6855 288.99 33.7832C288.99 34.5059 288.881 35.1152 288.662 35.6113C288.443 36.1074 288.135 36.4824 287.736 36.7363C287.338 36.9902 286.867 37.1172 286.324 37.1172C285.816 37.1172 285.398 37.0234 285.07 36.8359C284.746 36.6445 284.496 36.4121 284.32 36.1387H284.244L284.045 37H283.342V27.8828H284.314ZM286.189 31.2812C285.725 31.2812 285.355 31.373 285.082 31.5566C284.809 31.7363 284.611 32.0098 284.49 32.377C284.373 32.7402 284.314 33.2012 284.314 33.7598V33.8125C284.314 34.6211 284.449 35.2402 284.719 35.6699C284.988 36.0957 285.479 36.3086 286.189 36.3086C286.787 36.3086 287.234 36.0898 287.531 35.6523C287.832 35.2148 287.982 34.5898 287.982 33.7773C287.982 32.9492 287.834 32.3262 287.537 31.9082C287.244 31.4902 286.795 31.2812 286.189 31.2812ZM293.162 30.4609C293.709 30.4609 294.178 30.582 294.568 30.8242C294.959 31.0664 295.258 31.4062 295.465 31.8438C295.672 32.2773 295.775 32.7852 295.775 33.3672V33.9707H291.34C291.352 34.7246 291.539 35.2988 291.902 35.6934C292.266 36.0879 292.777 36.2852 293.438 36.2852C293.844 36.2852 294.203 36.248 294.516 36.1738C294.828 36.0996 295.152 35.9902 295.488 35.8457V36.7012C295.164 36.8457 294.842 36.9512 294.521 37.0176C294.205 37.084 293.83 37.1172 293.396 37.1172C292.779 37.1172 292.24 36.9922 291.779 36.7422C291.322 36.4883 290.967 36.1172 290.713 35.6289C290.459 35.1406 290.332 34.543 290.332 33.8359C290.332 33.1445 290.447 32.5469 290.678 32.043C290.912 31.5352 291.24 31.1445 291.662 30.8711C292.088 30.5977 292.588 30.4609 293.162 30.4609ZM293.15 31.2578C292.631 31.2578 292.217 31.4277 291.908 31.7676C291.6 32.1074 291.416 32.582 291.357 33.1914H294.756C294.752 32.8086 294.691 32.4727 294.574 32.1836C294.461 31.8906 294.287 31.6641 294.053 31.5039C293.818 31.3398 293.518 31.2578 293.15 31.2578ZM39.5977 53.1172C39.0195 53.1172 38.5098 52.998 38.0684 52.7598C37.627 52.5215 37.2832 52.1582 37.0371 51.6699C36.791 51.1816 36.668 50.5664 36.668 49.8242C36.668 49.0469 36.7969 48.4121 37.0547 47.9199C37.3164 47.4238 37.6758 47.0566 38.1328 46.8184C38.5898 46.5801 39.1094 46.4609 39.6914 46.4609C40.0117 46.4609 40.3203 46.4941 40.6172 46.5605C40.918 46.623 41.1641 46.7031 41.3555 46.8008L41.0625 47.6152C40.8672 47.5371 40.6406 47.4668 40.3828 47.4043C40.1289 47.3418 39.8906 47.3105 39.668 47.3105C39.2227 47.3105 38.8516 47.4062 38.5547 47.5977C38.2617 47.7891 38.041 48.0703 37.8926 48.4414C37.748 48.8125 37.6758 49.2695 37.6758 49.8125C37.6758 50.332 37.7461 50.7754 37.8867 51.1426C38.0312 51.5098 38.2441 51.791 38.5254 51.9863C38.8105 52.1777 39.166 52.2734 39.5918 52.2734C39.9316 52.2734 40.2383 52.2383 40.5117 52.168C40.7852 52.0938 41.0332 52.0078 41.2559 51.9102V52.7773C41.041 52.8867 40.8008 52.9707 40.5352 53.0293C40.2734 53.0879 39.9609 53.1172 39.5977 53.1172ZM45.1816 46.4727C45.9473 46.4727 46.5156 46.6445 46.8867 46.9883C47.2578 47.332 47.4434 47.8809 47.4434 48.6348V53H46.7344L46.5469 52.0508H46.5C46.3203 52.2852 46.1328 52.4824 45.9375 52.6426C45.7422 52.7988 45.5156 52.918 45.2578 53C45.0039 53.0781 44.6914 53.1172 44.3203 53.1172C43.9297 53.1172 43.582 53.0488 43.2773 52.9121C42.9766 52.7754 42.7383 52.5684 42.5625 52.291C42.3906 52.0137 42.3047 51.6621 42.3047 51.2363C42.3047 50.5957 42.5586 50.1035 43.0664 49.7598C43.5742 49.416 44.3477 49.2285 45.3867 49.1973L46.4941 49.1504V48.7578C46.4941 48.2031 46.375 47.8145 46.1367 47.5918C45.8984 47.3691 45.5625 47.2578 45.1289 47.2578C44.793 47.2578 44.4727 47.3066 44.168 47.4043C43.8633 47.502 43.5742 47.6172 43.3008 47.75L43.002 47.0117C43.291 46.8633 43.623 46.7363 43.998 46.6309C44.373 46.5254 44.7676 46.4727 45.1816 46.4727ZM46.4824 49.8359L45.5039 49.877C44.7031 49.9082 44.1387 50.0391 43.8105 50.2695C43.4824 50.5 43.3184 50.8262 43.3184 51.248C43.3184 51.6152 43.4297 51.8867 43.6523 52.0625C43.875 52.2383 44.1699 52.3262 44.5371 52.3262C45.1074 52.3262 45.5742 52.168 45.9375 51.8516C46.3008 51.5352 46.4824 51.0605 46.4824 50.4277V49.8359ZM52.4648 46.4609C53.2656 46.4609 53.9043 46.7363 54.3809 47.2871C54.8574 47.8379 55.0957 48.666 55.0957 49.7715C55.0957 50.502 54.9863 51.1152 54.7676 51.6113C54.5488 52.1074 54.2402 52.4824 53.8418 52.7363C53.4473 52.9902 52.9805 53.1172 52.4414 53.1172C52.1016 53.1172 51.8027 53.0723 51.5449 52.9824C51.2871 52.8926 51.0664 52.7715 50.8828 52.6191C50.6992 52.4668 50.5469 52.3008 50.4258 52.1211H50.3555C50.3672 52.2734 50.3809 52.457 50.3965 52.6719C50.416 52.8867 50.4258 53.0742 50.4258 53.2344V55.8711H49.4473V46.5781H50.25L50.3789 47.5273H50.4258C50.5508 47.332 50.7031 47.1543 50.8828 46.9941C51.0625 46.8301 51.2812 46.7012 51.5391 46.6074C51.8008 46.5098 52.1094 46.4609 52.4648 46.4609ZM52.2949 47.2812C51.8496 47.2812 51.4902 47.3672 51.2168 47.5391C50.9473 47.7109 50.75 47.9688 50.625 48.3125C50.5 48.6523 50.4336 49.0801 50.4258 49.5957V49.7832C50.4258 50.3262 50.4844 50.7852 50.6016 51.1602C50.7227 51.5352 50.9199 51.8203 51.1934 52.0156C51.4707 52.2109 51.8418 52.3086 52.3066 52.3086C52.7051 52.3086 53.0371 52.2012 53.3027 51.9863C53.5684 51.7715 53.7656 51.4727 53.8945 51.0898C54.0273 50.7031 54.0938 50.2598 54.0938 49.7598C54.0938 49.002 53.9453 48.4004 53.6484 47.9551C53.3555 47.5059 52.9043 47.2812 52.2949 47.2812ZM57.7676 46.5781V53H56.7949V46.5781H57.7676ZM57.293 44.1758C57.4531 44.1758 57.5898 44.2285 57.7031 44.334C57.8203 44.4355 57.8789 44.5957 57.8789 44.8145C57.8789 45.0293 57.8203 45.1895 57.7031 45.2949C57.5898 45.4004 57.4531 45.4531 57.293 45.4531C57.125 45.4531 56.9844 45.4004 56.8711 45.2949C56.7617 45.1895 56.707 45.0293 56.707 44.8145C56.707 44.5957 56.7617 44.4355 56.8711 44.334C56.9844 44.2285 57.125 44.1758 57.293 44.1758ZM61.9043 52.3203C62.0645 52.3203 62.2285 52.3066 62.3965 52.2793C62.5645 52.252 62.7012 52.2188 62.8066 52.1797V52.9355C62.6934 52.9863 62.5352 53.0293 62.332 53.0645C62.1328 53.0996 61.9375 53.1172 61.7461 53.1172C61.4062 53.1172 61.0977 53.0586 60.8203 52.9414C60.543 52.8203 60.3203 52.6172 60.1523 52.332C59.9883 52.0469 59.9062 51.6523 59.9062 51.1484V47.3398H58.9922V46.8652L59.9121 46.4844L60.2988 45.0898H60.8848V46.5781H62.7656V47.3398H60.8848V51.1191C60.8848 51.5215 60.9766 51.8223 61.1602 52.0215C61.3477 52.2207 61.5957 52.3203 61.9043 52.3203ZM66.5098 46.4727C67.2754 46.4727 67.8438 46.6445 68.2148 46.9883C68.5859 47.332 68.7715 47.8809 68.7715 48.6348V53H68.0625L67.875 52.0508H67.8281C67.6484 52.2852 67.4609 52.4824 67.2656 52.6426C67.0703 52.7988 66.8438 52.918 66.5859 53C66.332 53.0781 66.0195 53.1172 65.6484 53.1172C65.2578 53.1172 64.9102 53.0488 64.6055 52.9121C64.3047 52.7754 64.0664 52.5684 63.8906 52.291C63.7188 52.0137 63.6328 51.6621 63.6328 51.2363C63.6328 50.5957 63.8867 50.1035 64.3945 49.7598C64.9023 49.416 65.6758 49.2285 66.7148 49.1973L67.8223 49.1504V48.7578C67.8223 48.2031 67.7031 47.8145 67.4648 47.5918C67.2266 47.3691 66.8906 47.2578 66.457 47.2578C66.1211 47.2578 65.8008 47.3066 65.4961 47.4043C65.1914 47.502 64.9023 47.6172 64.6289 47.75L64.3301 47.0117C64.6191 46.8633 64.9512 46.7363 65.3262 46.6309C65.7012 46.5254 66.0957 46.4727 66.5098 46.4727ZM67.8105 49.8359L66.832 49.877C66.0312 49.9082 65.4668 50.0391 65.1387 50.2695C64.8105 50.5 64.6465 50.8262 64.6465 51.248C64.6465 51.6152 64.7578 51.8867 64.9805 52.0625C65.2031 52.2383 65.498 52.3262 65.8652 52.3262C66.4355 52.3262 66.9023 52.168 67.2656 51.8516C67.6289 51.5352 67.8105 51.0605 67.8105 50.4277V49.8359ZM71.7539 53H70.7754V43.8828H71.7539V53ZM74.7832 46.5781V53H73.8105V46.5781H74.7832ZM74.3086 44.1758C74.4688 44.1758 74.6055 44.2285 74.7188 44.334C74.8359 44.4355 74.8945 44.5957 74.8945 44.8145C74.8945 45.0293 74.8359 45.1895 74.7188 45.2949C74.6055 45.4004 74.4688 45.4531 74.3086 45.4531C74.1406 45.4531 74 45.4004 73.8867 45.2949C73.7773 45.1895 73.7227 45.0293 73.7227 44.8145C73.7227 44.5957 73.7773 44.4355 73.8867 44.334C74 44.2285 74.1406 44.1758 74.3086 44.1758ZM80.9707 53H76.2891V52.3555L79.8105 47.3398H76.5117V46.5781H80.8945V47.2988L77.4199 52.2441H80.9707V53ZM84.9434 46.4609C85.4902 46.4609 85.959 46.582 86.3496 46.8242C86.7402 47.0664 87.0391 47.4062 87.2461 47.8438C87.4531 48.2773 87.5566 48.7852 87.5566 49.3672V49.9707H83.1211C83.1328 50.7246 83.3203 51.2988 83.6836 51.6934C84.0469 52.0879 84.5586 52.2852 85.2188 52.2852C85.625 52.2852 85.9844 52.248 86.2969 52.1738C86.6094 52.0996 86.9336 51.9902 87.2695 51.8457V52.7012C86.9453 52.8457 86.623 52.9512 86.3027 53.0176C85.9863 53.084 85.6113 53.1172 85.1777 53.1172C84.5605 53.1172 84.0215 52.9922 83.5605 52.7422C83.1035 52.4883 82.748 52.1172 82.4941 51.6289C82.2402 51.1406 82.1133 50.543 82.1133 49.8359C82.1133 49.1445 82.2285 48.5469 82.459 48.043C82.6934 47.5352 83.0215 47.1445 83.4434 46.8711C83.8691 46.5977 84.3691 46.4609 84.9434 46.4609ZM84.9316 47.2578C84.4121 47.2578 83.998 47.4277 83.6895 47.7676C83.3809 48.1074 83.1973 48.582 83.1387 49.1914H86.5371C86.5332 48.8086 86.4727 48.4727 86.3555 48.1836C86.2422 47.8906 86.0684 47.6641 85.834 47.5039C85.5996 47.3398 85.2988 47.2578 84.9316 47.2578ZM91.4941 53.1172C90.6816 53.1172 90.0371 52.8398 89.5605 52.2852C89.0879 51.7305 88.8516 50.9062 88.8516 49.8125C88.8516 48.707 89.0938 47.873 89.5781 47.3105C90.0625 46.7441 90.707 46.4609 91.5117 46.4609C91.8516 46.4609 92.1484 46.5059 92.4023 46.5957C92.6562 46.6855 92.875 46.8066 93.0586 46.959C93.2422 47.1074 93.3965 47.2773 93.5215 47.4688H93.5918C93.5762 47.3477 93.5605 47.1816 93.5449 46.9707C93.5293 46.7598 93.5215 46.5879 93.5215 46.4551V43.8828H94.4941V53H93.709L93.5625 52.0859H93.5215C93.4004 52.2773 93.2461 52.4512 93.0586 52.6074C92.875 52.7637 92.6543 52.8887 92.3965 52.9824C92.1426 53.0723 91.8418 53.1172 91.4941 53.1172ZM91.6465 52.3086C92.334 52.3086 92.8203 52.1133 93.1055 51.7227C93.3906 51.332 93.5332 50.752 93.5332 49.9824V49.8066C93.5332 48.9902 93.3965 48.3633 93.123 47.9258C92.8535 47.4883 92.3613 47.2695 91.6465 47.2695C91.0488 47.2695 90.6016 47.5 90.3047 47.9609C90.0078 48.418 89.8594 49.043 89.8594 49.8359C89.8594 50.625 90.0059 51.2344 90.2988 51.6641C90.5957 52.0938 91.0449 52.3086 91.6465 52.3086ZM96.4102 52.3906C96.4102 52.1172 96.4766 51.9238 96.6094 51.8105C96.7422 51.6934 96.9043 51.6348 97.0957 51.6348C97.2949 51.6348 97.4629 51.6934 97.5996 51.8105C97.7363 51.9238 97.8047 52.1172 97.8047 52.3906C97.8047 52.6602 97.7363 52.8574 97.5996 52.9824C97.4629 53.1035 97.2949 53.1641 97.0957 53.1641C96.9043 53.1641 96.7422 53.1035 96.6094 52.9824C96.4766 52.8574 96.4102 52.6602 96.4102 52.3906Z" fill="#172B4D"/>
<rect x="35" y="72" width="305" height="171" rx="8" fill="white"/>
<g filter="url(#filter1_d_13421_33764)">
<rect x="75" y="112" width="249" height="60" rx="4" fill="white"/>
</g>
<rect x="83" y="120" width="233" height="44" rx="4" fill="#E5FAF0"/>
<path d="M93.0957 155H91.6836V147.629H89.1758V146.434H95.5977V147.629H93.0957V155ZM98.1465 145.883V148.174C98.1465 148.412 98.1387 148.645 98.123 148.871C98.1113 149.098 98.0977 149.273 98.082 149.398H98.1582C98.2949 149.172 98.4629 148.986 98.6621 148.842C98.8613 148.693 99.084 148.582 99.3301 148.508C99.5801 148.434 99.8457 148.396 100.127 148.396C100.623 148.396 101.045 148.48 101.393 148.648C101.74 148.812 102.006 149.068 102.189 149.416C102.377 149.764 102.471 150.215 102.471 150.77V155H101.094V151.027C101.094 150.523 100.99 150.146 100.783 149.896C100.576 149.643 100.256 149.516 99.8223 149.516C99.4043 149.516 99.0723 149.604 98.8262 149.779C98.584 149.951 98.4102 150.207 98.3047 150.547C98.1992 150.883 98.1465 151.293 98.1465 151.777V155H96.7695V145.883H98.1465ZM106.982 148.391C107.561 148.391 108.057 148.51 108.471 148.748C108.885 148.986 109.203 149.324 109.426 149.762C109.648 150.199 109.76 150.723 109.76 151.332V152.07H105.43C105.445 152.699 105.613 153.184 105.934 153.523C106.258 153.863 106.711 154.033 107.293 154.033C107.707 154.033 108.078 153.994 108.406 153.916C108.738 153.834 109.08 153.715 109.432 153.559V154.678C109.107 154.83 108.777 154.941 108.441 155.012C108.105 155.082 107.703 155.117 107.234 155.117C106.598 155.117 106.037 154.994 105.553 154.748C105.072 154.498 104.695 154.127 104.422 153.635C104.152 153.143 104.018 152.531 104.018 151.801C104.018 151.074 104.141 150.457 104.387 149.949C104.633 149.441 104.979 149.055 105.424 148.789C105.869 148.523 106.389 148.391 106.982 148.391ZM106.982 149.428C106.549 149.428 106.197 149.568 105.928 149.85C105.662 150.131 105.506 150.543 105.459 151.086H108.412C108.408 150.762 108.354 150.475 108.248 150.225C108.146 149.975 107.99 149.779 107.779 149.639C107.572 149.498 107.307 149.428 106.982 149.428Z" fill="#178733"/>
<path d="M92.9795 130.755C92.6377 130.755 92.3317 130.817 92.0615 130.94C91.7946 131.064 91.5684 131.243 91.3828 131.478C91.1973 131.709 91.0557 131.99 90.958 132.322C90.8604 132.651 90.8115 133.022 90.8115 133.436C90.8115 133.989 90.8896 134.466 91.0459 134.866C91.2021 135.263 91.4398 135.569 91.7588 135.784C92.0778 135.996 92.4814 136.102 92.9697 136.102C93.2725 136.102 93.5671 136.072 93.8535 136.014C94.14 135.955 94.4362 135.875 94.7422 135.774V136.771C94.4525 136.884 94.1595 136.967 93.8633 137.02C93.5671 137.072 93.2253 137.098 92.8379 137.098C92.1087 137.098 91.5033 136.946 91.0215 136.644C90.543 136.341 90.1849 135.914 89.9473 135.364C89.7129 134.814 89.5957 134.17 89.5957 133.431C89.5957 132.89 89.6706 132.396 89.8203 131.946C89.9701 131.497 90.1882 131.11 90.4746 130.784C90.7611 130.455 91.1143 130.203 91.5342 130.027C91.9574 129.848 92.4408 129.759 92.9844 129.759C93.3424 129.759 93.694 129.799 94.0391 129.881C94.3874 129.959 94.7096 130.071 95.0059 130.218L94.5957 131.185C94.3483 131.067 94.0895 130.966 93.8193 130.882C93.5492 130.797 93.2692 130.755 92.9795 130.755ZM98.2773 131.492C98.9609 131.492 99.4769 131.644 99.8252 131.946C100.177 132.249 100.353 132.721 100.353 133.362V137H99.5371L99.3174 136.233H99.2783C99.1253 136.429 98.9674 136.59 98.8047 136.717C98.6419 136.844 98.4531 136.938 98.2383 137C98.0267 137.065 97.7679 137.098 97.4619 137.098C97.1396 137.098 96.8516 137.039 96.5977 136.922C96.3438 136.801 96.1436 136.619 95.9971 136.375C95.8506 136.131 95.7773 135.822 95.7773 135.447C95.7773 134.891 95.984 134.472 96.3975 134.192C96.8141 133.912 97.4424 133.758 98.2822 133.729L99.2197 133.694V133.411C99.2197 133.037 99.1318 132.77 98.9561 132.61C98.7835 132.451 98.5394 132.371 98.2236 132.371C97.9535 132.371 97.6914 132.41 97.4375 132.488C97.1836 132.566 96.9362 132.662 96.6953 132.776L96.3242 131.966C96.5879 131.826 96.8874 131.712 97.2227 131.624C97.5612 131.536 97.9128 131.492 98.2773 131.492ZM99.2148 134.417L98.5166 134.441C97.9437 134.461 97.5417 134.559 97.3105 134.734C97.0794 134.91 96.9639 135.151 96.9639 135.457C96.9639 135.724 97.0436 135.919 97.2031 136.043C97.3626 136.163 97.5726 136.224 97.833 136.224C98.2301 136.224 98.5589 136.111 98.8193 135.887C99.083 135.659 99.2148 135.325 99.2148 134.886V134.417ZM104.732 131.492C105.374 131.492 105.888 131.727 106.275 132.195C106.666 132.664 106.861 133.361 106.861 134.285C106.861 134.897 106.77 135.413 106.588 135.833C106.409 136.25 106.157 136.565 105.831 136.78C105.509 136.992 105.133 137.098 104.703 137.098C104.43 137.098 104.192 137.062 103.99 136.99C103.788 136.919 103.616 136.826 103.473 136.712C103.329 136.595 103.209 136.468 103.111 136.331H103.043C103.059 136.461 103.074 136.606 103.087 136.766C103.103 136.922 103.111 137.065 103.111 137.195V139.397H101.959V131.595H102.896L103.058 132.342H103.111C103.212 132.189 103.334 132.047 103.478 131.917C103.624 131.787 103.8 131.684 104.005 131.609C104.213 131.531 104.456 131.492 104.732 131.492ZM104.425 132.43C104.109 132.43 103.855 132.493 103.663 132.62C103.474 132.744 103.336 132.931 103.248 133.182C103.163 133.432 103.118 133.746 103.111 134.124V134.285C103.111 134.686 103.152 135.026 103.233 135.306C103.318 135.582 103.456 135.794 103.648 135.94C103.844 136.084 104.107 136.155 104.439 136.155C104.719 136.155 104.951 136.079 105.133 135.926C105.318 135.773 105.457 135.555 105.548 135.271C105.639 134.988 105.685 134.655 105.685 134.271C105.685 133.688 105.58 133.235 105.372 132.913C105.167 132.591 104.851 132.43 104.425 132.43ZM109.337 131.595V137H108.189V131.595H109.337ZM108.771 129.524C108.946 129.524 109.098 129.572 109.225 129.666C109.355 129.76 109.42 129.923 109.42 130.154C109.42 130.382 109.355 130.545 109.225 130.643C109.098 130.737 108.946 130.784 108.771 130.784C108.588 130.784 108.434 130.737 108.307 130.643C108.183 130.545 108.121 130.382 108.121 130.154C108.121 129.923 108.183 129.76 108.307 129.666C108.434 129.572 108.588 129.524 108.771 129.524ZM112.994 136.17C113.144 136.17 113.292 136.157 113.438 136.131C113.585 136.102 113.718 136.067 113.839 136.028V136.897C113.712 136.953 113.548 137 113.346 137.039C113.144 137.078 112.934 137.098 112.716 137.098C112.41 137.098 112.135 137.047 111.891 136.946C111.646 136.842 111.453 136.665 111.31 136.414C111.166 136.163 111.095 135.817 111.095 135.374V132.469H110.357V131.956L111.148 131.551L111.524 130.394H112.247V131.595H113.795V132.469H112.247V135.359C112.247 135.633 112.315 135.836 112.452 135.97C112.589 136.103 112.77 136.17 112.994 136.17ZM117.057 131.492C117.74 131.492 118.256 131.644 118.604 131.946C118.956 132.249 119.132 132.721 119.132 133.362V137H118.316L118.097 136.233H118.058C117.905 136.429 117.747 136.59 117.584 136.717C117.421 136.844 117.232 136.938 117.018 137C116.806 137.065 116.547 137.098 116.241 137.098C115.919 137.098 115.631 137.039 115.377 136.922C115.123 136.801 114.923 136.619 114.776 136.375C114.63 136.131 114.557 135.822 114.557 135.447C114.557 134.891 114.763 134.472 115.177 134.192C115.593 133.912 116.222 133.758 117.062 133.729L117.999 133.694V133.411C117.999 133.037 117.911 132.77 117.735 132.61C117.563 132.451 117.319 132.371 117.003 132.371C116.733 132.371 116.471 132.41 116.217 132.488C115.963 132.566 115.715 132.662 115.475 132.776L115.104 131.966C115.367 131.826 115.667 131.712 116.002 131.624C116.34 131.536 116.692 131.492 117.057 131.492ZM117.994 134.417L117.296 134.441C116.723 134.461 116.321 134.559 116.09 134.734C115.859 134.91 115.743 135.151 115.743 135.457C115.743 135.724 115.823 135.919 115.982 136.043C116.142 136.163 116.352 136.224 116.612 136.224C117.009 136.224 117.338 136.111 117.599 135.887C117.862 135.659 117.994 135.325 117.994 134.886V134.417ZM121.891 137H120.738V129.402H121.891V137ZM124.679 131.595V137H123.531V131.595H124.679ZM124.112 129.524C124.288 129.524 124.439 129.572 124.566 129.666C124.697 129.76 124.762 129.923 124.762 130.154C124.762 130.382 124.697 130.545 124.566 130.643C124.439 130.737 124.288 130.784 124.112 130.784C123.93 130.784 123.775 130.737 123.648 130.643C123.525 130.545 123.463 130.382 123.463 130.154C123.463 129.923 123.525 129.76 123.648 129.666C123.775 129.572 123.93 129.524 124.112 129.524ZM129.942 137H125.836V136.292L128.565 132.479H126.002V131.595H129.864V132.376L127.188 136.116H129.942V137ZM133.263 131.492C133.744 131.492 134.158 131.591 134.503 131.79C134.848 131.989 135.113 132.27 135.299 132.635C135.484 132.999 135.577 133.436 135.577 133.943V134.559H131.969C131.982 135.083 132.122 135.486 132.389 135.77C132.659 136.053 133.036 136.194 133.521 136.194C133.867 136.194 134.176 136.162 134.449 136.097C134.726 136.028 135.011 135.929 135.304 135.799V136.731C135.034 136.858 134.758 136.951 134.479 137.01C134.199 137.068 133.863 137.098 133.473 137.098C132.942 137.098 132.475 136.995 132.071 136.79C131.671 136.582 131.357 136.272 131.129 135.862C130.904 135.452 130.792 134.943 130.792 134.334C130.792 133.729 130.895 133.214 131.1 132.791C131.305 132.368 131.593 132.046 131.964 131.824C132.335 131.603 132.768 131.492 133.263 131.492ZM133.263 132.356C132.901 132.356 132.608 132.474 132.384 132.708C132.162 132.942 132.032 133.286 131.993 133.738H134.454C134.451 133.468 134.405 133.229 134.317 133.021C134.233 132.812 134.103 132.649 133.927 132.532C133.754 132.415 133.533 132.356 133.263 132.356ZM141.48 136.17C141.63 136.17 141.778 136.157 141.925 136.131C142.071 136.102 142.205 136.067 142.325 136.028V136.897C142.198 136.953 142.034 137 141.832 137.039C141.63 137.078 141.42 137.098 141.202 137.098C140.896 137.098 140.621 137.047 140.377 136.946C140.133 136.842 139.939 136.665 139.796 136.414C139.653 136.163 139.581 135.817 139.581 135.374V132.469H138.844V131.956L139.635 131.551L140.011 130.394H140.733V131.595H142.281V132.469H140.733V135.359C140.733 135.633 140.802 135.836 140.938 135.97C141.075 136.103 141.256 136.17 141.48 136.17ZM144.571 129.402V131.312C144.571 131.51 144.565 131.704 144.552 131.893C144.542 132.081 144.531 132.228 144.518 132.332H144.581C144.695 132.143 144.835 131.989 145.001 131.868C145.167 131.744 145.353 131.652 145.558 131.59C145.766 131.528 145.987 131.497 146.222 131.497C146.635 131.497 146.987 131.567 147.276 131.707C147.566 131.844 147.787 132.057 147.94 132.347C148.097 132.636 148.175 133.012 148.175 133.475V137H147.027V133.689C147.027 133.27 146.941 132.955 146.769 132.747C146.596 132.535 146.329 132.43 145.968 132.43C145.619 132.43 145.343 132.503 145.138 132.649C144.936 132.793 144.791 133.006 144.703 133.289C144.615 133.569 144.571 133.911 144.571 134.314V137H143.424V129.402H144.571ZM151.935 131.492C152.416 131.492 152.83 131.591 153.175 131.79C153.52 131.989 153.785 132.27 153.971 132.635C154.156 132.999 154.249 133.436 154.249 133.943V134.559H150.641C150.654 135.083 150.794 135.486 151.061 135.77C151.331 136.053 151.708 136.194 152.193 136.194C152.538 136.194 152.848 136.162 153.121 136.097C153.398 136.028 153.683 135.929 153.976 135.799V136.731C153.705 136.858 153.43 136.951 153.15 137.01C152.87 137.068 152.535 137.098 152.145 137.098C151.614 137.098 151.147 136.995 150.743 136.79C150.343 136.582 150.029 136.272 149.801 135.862C149.576 135.452 149.464 134.943 149.464 134.334C149.464 133.729 149.566 133.214 149.771 132.791C149.977 132.368 150.265 132.046 150.636 131.824C151.007 131.603 151.44 131.492 151.935 131.492ZM151.935 132.356C151.573 132.356 151.28 132.474 151.056 132.708C150.834 132.942 150.704 133.286 150.665 133.738H153.126C153.123 133.468 153.077 133.229 152.989 133.021C152.905 132.812 152.774 132.649 152.599 132.532C152.426 132.415 152.205 132.356 151.935 132.356ZM160.841 132.469H159.527V137H158.38V132.469H157.496V131.917L158.38 131.58V131.204C158.38 130.745 158.451 130.381 158.595 130.11C158.741 129.84 158.95 129.646 159.22 129.529C159.493 129.409 159.819 129.349 160.196 129.349C160.444 129.349 160.67 129.37 160.875 129.412C161.08 129.451 161.253 129.497 161.393 129.549L161.095 130.418C160.984 130.382 160.86 130.35 160.724 130.32C160.587 130.288 160.44 130.271 160.284 130.271C160.024 130.271 159.832 130.353 159.708 130.516C159.588 130.678 159.527 130.916 159.527 131.229V131.595H160.841V132.469ZM162.906 131.595V137H161.759V131.595H162.906ZM162.34 129.524C162.516 129.524 162.667 129.572 162.794 129.666C162.924 129.76 162.989 129.923 162.989 130.154C162.989 130.382 162.924 130.545 162.794 130.643C162.667 130.737 162.516 130.784 162.34 130.784C162.158 130.784 162.003 130.737 161.876 130.643C161.752 130.545 161.69 130.382 161.69 130.154C161.69 129.923 161.752 129.76 161.876 129.666C162.003 129.572 162.158 129.524 162.34 129.524ZM167.286 131.492C167.377 131.492 167.477 131.497 167.584 131.507C167.691 131.517 167.784 131.53 167.862 131.546L167.755 132.62C167.687 132.601 167.602 132.586 167.501 132.576C167.403 132.566 167.315 132.562 167.237 132.562C167.032 132.562 166.837 132.596 166.651 132.664C166.466 132.729 166.301 132.83 166.158 132.967C166.015 133.1 165.903 133.268 165.821 133.47C165.74 133.672 165.699 133.906 165.699 134.173V137H164.547V131.595H165.445L165.602 132.547H165.655C165.763 132.355 165.896 132.179 166.056 132.02C166.215 131.86 166.397 131.733 166.603 131.639C166.811 131.541 167.039 131.492 167.286 131.492ZM172.496 135.457C172.496 135.812 172.41 136.111 172.237 136.355C172.065 136.6 171.812 136.785 171.48 136.912C171.152 137.036 170.748 137.098 170.27 137.098C169.892 137.098 169.566 137.07 169.293 137.015C169.023 136.963 168.767 136.881 168.526 136.771V135.779C168.784 135.9 169.072 136.004 169.391 136.092C169.713 136.18 170.017 136.224 170.304 136.224C170.681 136.224 170.953 136.165 171.119 136.048C171.285 135.927 171.368 135.768 171.368 135.569C171.368 135.452 171.334 135.348 171.266 135.257C171.201 135.162 171.077 135.066 170.895 134.969C170.715 134.868 170.452 134.747 170.104 134.607C169.762 134.471 169.474 134.334 169.239 134.197C169.005 134.061 168.827 133.896 168.707 133.704C168.587 133.509 168.526 133.26 168.526 132.957C168.526 132.479 168.715 132.116 169.093 131.868C169.474 131.618 169.977 131.492 170.602 131.492C170.934 131.492 171.246 131.526 171.539 131.595C171.835 131.66 172.125 131.756 172.408 131.883L172.047 132.747C171.803 132.64 171.557 132.552 171.31 132.483C171.065 132.412 170.816 132.376 170.562 132.376C170.266 132.376 170.04 132.422 169.884 132.513C169.731 132.604 169.654 132.734 169.654 132.903C169.654 133.03 169.692 133.138 169.767 133.226C169.841 133.313 169.97 133.401 170.152 133.489C170.338 133.577 170.595 133.686 170.924 133.816C171.246 133.94 171.524 134.07 171.759 134.207C171.996 134.34 172.179 134.505 172.306 134.7C172.433 134.896 172.496 135.148 172.496 135.457ZM175.748 136.17C175.898 136.17 176.046 136.157 176.192 136.131C176.339 136.102 176.472 136.067 176.593 136.028V136.897C176.466 136.953 176.301 137 176.1 137.039C175.898 137.078 175.688 137.098 175.47 137.098C175.164 137.098 174.889 137.047 174.645 136.946C174.4 136.842 174.207 136.665 174.063 136.414C173.92 136.163 173.849 135.817 173.849 135.374V132.469H173.111V131.956L173.902 131.551L174.278 130.394H175.001V131.595H176.549V132.469H175.001V135.359C175.001 135.633 175.069 135.836 175.206 135.97C175.343 136.103 175.523 136.17 175.748 136.17ZM184.708 136.995L184.024 134.48C183.992 134.357 183.953 134.207 183.907 134.031C183.862 133.855 183.816 133.675 183.771 133.489C183.725 133.3 183.683 133.126 183.644 132.967C183.608 132.807 183.58 132.684 183.561 132.596H183.521C183.505 132.684 183.479 132.807 183.443 132.967C183.408 133.126 183.367 133.3 183.321 133.489C183.276 133.678 183.23 133.862 183.185 134.041C183.142 134.22 183.103 134.373 183.067 134.5L182.35 136.995H181.09L179.576 131.59H180.738L181.441 134.275C181.487 134.458 181.531 134.655 181.573 134.866C181.619 135.078 181.658 135.28 181.69 135.472C181.723 135.664 181.747 135.822 181.764 135.945H181.803C181.816 135.857 181.834 135.747 181.856 135.613C181.879 135.477 181.905 135.335 181.935 135.188C181.964 135.039 181.993 134.899 182.022 134.769C182.052 134.635 182.079 134.528 182.105 134.446L182.936 131.59H184.19L184.986 134.446C185.022 134.57 185.061 134.726 185.104 134.915C185.146 135.101 185.183 135.288 185.216 135.477C185.252 135.662 185.274 135.817 185.284 135.94H185.323C185.336 135.83 185.359 135.68 185.392 135.491C185.427 135.299 185.468 135.096 185.514 134.881C185.559 134.663 185.606 134.461 185.655 134.275L186.373 131.59H187.516L185.992 136.995H184.708ZM193.229 134.285C193.229 134.734 193.17 135.133 193.053 135.481C192.936 135.83 192.765 136.124 192.54 136.365C192.315 136.603 192.045 136.785 191.729 136.912C191.414 137.036 191.057 137.098 190.66 137.098C190.289 137.098 189.949 137.036 189.64 136.912C189.33 136.785 189.062 136.603 188.834 136.365C188.609 136.124 188.435 135.83 188.312 135.481C188.188 135.133 188.126 134.734 188.126 134.285C188.126 133.689 188.229 133.185 188.434 132.771C188.642 132.355 188.938 132.037 189.322 131.819C189.706 131.601 190.164 131.492 190.694 131.492C191.192 131.492 191.632 131.601 192.013 131.819C192.394 132.037 192.691 132.355 192.906 132.771C193.121 133.188 193.229 133.693 193.229 134.285ZM189.308 134.285C189.308 134.679 189.355 135.016 189.449 135.296C189.547 135.576 189.697 135.791 189.898 135.94C190.1 136.087 190.361 136.16 190.68 136.16C190.999 136.16 191.259 136.087 191.461 135.94C191.663 135.791 191.811 135.576 191.905 135.296C192 135.016 192.047 134.679 192.047 134.285C192.047 133.891 192 133.558 191.905 133.284C191.811 133.007 191.663 132.798 191.461 132.654C191.259 132.508 190.997 132.435 190.675 132.435C190.2 132.435 189.853 132.594 189.635 132.913C189.417 133.232 189.308 133.689 189.308 134.285ZM197.286 131.492C197.377 131.492 197.477 131.497 197.584 131.507C197.691 131.517 197.784 131.53 197.862 131.546L197.755 132.62C197.687 132.601 197.602 132.586 197.501 132.576C197.403 132.566 197.315 132.562 197.237 132.562C197.032 132.562 196.837 132.596 196.651 132.664C196.466 132.729 196.301 132.83 196.158 132.967C196.015 133.1 195.903 133.268 195.821 133.47C195.74 133.672 195.699 133.906 195.699 134.173V137H194.547V131.595H195.445L195.602 132.547H195.655C195.763 132.355 195.896 132.179 196.056 132.02C196.215 131.86 196.397 131.733 196.603 131.639C196.811 131.541 197.039 131.492 197.286 131.492ZM200.68 137.098C200.035 137.098 199.518 136.863 199.127 136.395C198.74 135.923 198.546 135.228 198.546 134.31C198.546 133.382 198.743 132.68 199.137 132.205C199.534 131.73 200.056 131.492 200.704 131.492C200.978 131.492 201.217 131.53 201.422 131.604C201.627 131.676 201.803 131.774 201.949 131.897C202.099 132.021 202.226 132.16 202.33 132.312H202.384C202.368 132.212 202.348 132.067 202.325 131.878C202.306 131.686 202.296 131.508 202.296 131.346V129.402H203.448V137H202.55L202.345 136.263H202.296C202.198 136.419 202.075 136.561 201.925 136.688C201.778 136.811 201.603 136.91 201.397 136.985C201.196 137.06 200.956 137.098 200.68 137.098ZM201.002 136.165C201.493 136.165 201.84 136.023 202.042 135.74C202.244 135.457 202.348 135.032 202.354 134.466V134.314C202.354 133.709 202.257 133.245 202.062 132.923C201.866 132.597 201.51 132.435 200.992 132.435C200.579 132.435 200.263 132.602 200.045 132.938C199.83 133.27 199.723 133.733 199.723 134.329C199.723 134.925 199.83 135.381 200.045 135.696C200.263 136.009 200.582 136.165 201.002 136.165Z" fill="#2C3E5D"/>
<rect x="51" y="88" width="16" height="16" rx="2" fill="#FFEDEB"/>
<path d="M62.8225 92.1835C62.5859 91.9469 62.2036 91.9469 61.967 92.1835L59 95.1445L56.033 92.1775C55.7964 91.9408 55.4141 91.9408 55.1775 92.1775C54.9408 92.4141 54.9408 92.7964 55.1775 93.033L58.1445 96L55.1775 98.967C54.9408 99.2036 54.9408 99.5859 55.1775 99.8225C55.4141 100.059 55.7964 100.059 56.033 99.8225L59 96.8555L61.967 99.8225C62.2036 100.059 62.5859 100.059 62.8225 99.8225C63.0592 99.5859 63.0592 99.2036 62.8225 98.967L59.8555 96L62.8225 93.033C63.0531 92.8024 63.0531 92.4141 62.8225 92.1835Z" fill="#DE350B"/>
<rect x="74" y="91" width="20" height="13" fill="#FFEDEB"/>
<rect x="74" y="103" width="20" height="1" fill="#DE350B"/>
<path d="M78.0996 100.32C78.2598 100.32 78.4238 100.307 78.5918 100.279C78.7598 100.252 78.8965 100.219 79.002 100.18V100.936C78.8887 100.986 78.7305 101.029 78.5273 101.064C78.3281 101.1 78.1328 101.117 77.9414 101.117C77.6016 101.117 77.293 101.059 77.0156 100.941C76.7383 100.82 76.5156 100.617 76.3477 100.332C76.1836 100.047 76.1016 99.6523 76.1016 99.1484V95.3398H75.1875V94.8652L76.1074 94.4844L76.4941 93.0898H77.0801V94.5781H78.9609V95.3398H77.0801V99.1191C77.0801 99.5215 77.1719 99.8223 77.3555 100.021C77.543 100.221 77.791 100.32 78.0996 100.32ZM81.2754 91.8828V94.6074C81.2754 94.7637 81.2715 94.9219 81.2637 95.082C81.2559 95.2383 81.2422 95.3828 81.2227 95.5156H81.2871C81.4199 95.2891 81.5879 95.0996 81.791 94.9473C81.998 94.791 82.2324 94.6738 82.4941 94.5957C82.7559 94.5137 83.0332 94.4727 83.3262 94.4727C83.8418 94.4727 84.2715 94.5547 84.6152 94.7188C84.9629 94.8828 85.2227 95.1367 85.3945 95.4805C85.5703 95.8242 85.6582 96.2695 85.6582 96.8164V101H84.6973V96.8809C84.6973 96.3457 84.5742 95.9453 84.3281 95.6797C84.0859 95.4141 83.7129 95.2812 83.209 95.2812C82.7324 95.2812 82.3516 95.373 82.0664 95.5566C81.7852 95.7363 81.582 96.002 81.457 96.3535C81.3359 96.7051 81.2754 97.1348 81.2754 97.6426V101H80.3027V91.8828H81.2754ZM90.1348 94.4609C90.6816 94.4609 91.1504 94.582 91.541 94.8242C91.9316 95.0664 92.2305 95.4062 92.4375 95.8438C92.6445 96.2773 92.748 96.7852 92.748 97.3672V97.9707H88.3125C88.3242 98.7246 88.5117 99.2988 88.875 99.6934C89.2383 100.088 89.75 100.285 90.4102 100.285C90.8164 100.285 91.1758 100.248 91.4883 100.174C91.8008 100.1 92.125 99.9902 92.4609 99.8457V100.701C92.1367 100.846 91.8145 100.951 91.4941 101.018C91.1777 101.084 90.8027 101.117 90.3691 101.117C89.752 101.117 89.2129 100.992 88.752 100.742C88.2949 100.488 87.9395 100.117 87.6855 99.6289C87.4316 99.1406 87.3047 98.543 87.3047 97.8359C87.3047 97.1445 87.4199 96.5469 87.6504 96.043C87.8848 95.5352 88.2129 95.1445 88.6348 94.8711C89.0605 94.5977 89.5605 94.4609 90.1348 94.4609ZM90.123 95.2578C89.6035 95.2578 89.1895 95.4277 88.8809 95.7676C88.5723 96.1074 88.3887 96.582 88.3301 97.1914H91.7285C91.7246 96.8086 91.6641 96.4727 91.5469 96.1836C91.4336 95.8906 91.2598 95.6641 91.0254 95.5039C90.791 95.3398 90.4902 95.2578 90.123 95.2578ZM98.4902 91.8828V94.6074C98.4902 94.7637 98.4863 94.9219 98.4785 95.082C98.4707 95.2383 98.457 95.3828 98.4375 95.5156H98.502C98.6348 95.2891 98.8027 95.0996 99.0059 94.9473C99.2129 94.791 99.4473 94.6738 99.709 94.5957C99.9707 94.5137 100.248 94.4727 100.541 94.4727C101.057 94.4727 101.486 94.5547 101.83 94.7188C102.178 94.8828 102.438 95.1367 102.609 95.4805C102.785 95.8242 102.873 96.2695 102.873 96.8164V101H101.912V96.8809C101.912 96.3457 101.789 95.9453 101.543 95.6797C101.301 95.4141 100.928 95.2812 100.424 95.2812C99.9473 95.2812 99.5664 95.373 99.2812 95.5566C99 95.7363 98.7969 96.002 98.6719 96.3535C98.5508 96.7051 98.4902 97.1348 98.4902 97.6426V101H97.5176V91.8828H98.4902ZM107.279 94.4727C108.045 94.4727 108.613 94.6445 108.984 94.9883C109.355 95.332 109.541 95.8809 109.541 96.6348V101H108.832L108.645 100.051H108.598C108.418 100.285 108.23 100.482 108.035 100.643C107.84 100.799 107.613 100.918 107.355 101C107.102 101.078 106.789 101.117 106.418 101.117C106.027 101.117 105.68 101.049 105.375 100.912C105.074 100.775 104.836 100.568 104.66 100.291C104.488 100.014 104.402 99.6621 104.402 99.2363C104.402 98.5957 104.656 98.1035 105.164 97.7598C105.672 97.416 106.445 97.2285 107.484 97.1973L108.592 97.1504V96.7578C108.592 96.2031 108.473 95.8145 108.234 95.5918C107.996 95.3691 107.66 95.2578 107.227 95.2578C106.891 95.2578 106.57 95.3066 106.266 95.4043C105.961 95.502 105.672 95.6172 105.398 95.75L105.1 95.0117C105.389 94.8633 105.721 94.7363 106.096 94.6309C106.471 94.5254 106.865 94.4727 107.279 94.4727ZM108.58 97.8359L107.602 97.877C106.801 97.9082 106.236 98.0391 105.908 98.2695C105.58 98.5 105.416 98.8262 105.416 99.248C105.416 99.6152 105.527 99.8867 105.75 100.062C105.973 100.238 106.268 100.326 106.635 100.326C107.205 100.326 107.672 100.168 108.035 99.8516C108.398 99.5352 108.58 99.0605 108.58 98.4277V97.8359ZM113.619 100.32C113.779 100.32 113.943 100.307 114.111 100.279C114.279 100.252 114.416 100.219 114.521 100.18V100.936C114.408 100.986 114.25 101.029 114.047 101.064C113.848 101.1 113.652 101.117 113.461 101.117C113.121 101.117 112.812 101.059 112.535 100.941C112.258 100.82 112.035 100.617 111.867 100.332C111.703 100.047 111.621 99.6523 111.621 99.1484V95.3398H110.707V94.8652L111.627 94.4844L112.014 93.0898H112.6V94.5781H114.48V95.3398H112.6V99.1191C112.6 99.5215 112.691 99.8223 112.875 100.021C113.062 100.221 113.311 100.32 113.619 100.32ZM124.166 100.988L123.023 97.25C122.973 97.0898 122.924 96.9336 122.877 96.7812C122.834 96.625 122.793 96.4766 122.754 96.3359C122.719 96.1914 122.686 96.0586 122.654 95.9375C122.627 95.8125 122.604 95.7051 122.584 95.6152H122.543C122.527 95.7051 122.506 95.8125 122.479 95.9375C122.451 96.0586 122.418 96.1914 122.379 96.3359C122.344 96.4805 122.305 96.6328 122.262 96.793C122.219 96.9492 122.17 97.1074 122.115 97.2676L120.92 100.988H119.824L118.055 94.5664H119.062L119.988 98.1113C120.051 98.3457 120.109 98.5781 120.164 98.8086C120.223 99.0352 120.271 99.25 120.311 99.4531C120.354 99.6523 120.385 99.8262 120.404 99.9746H120.451C120.475 99.877 120.5 99.7598 120.527 99.623C120.559 99.4863 120.592 99.3418 120.627 99.1895C120.666 99.0332 120.707 98.8789 120.75 98.7266C120.793 98.5703 120.836 98.4238 120.879 98.2871L122.062 94.5664H123.111L124.254 98.2812C124.312 98.4688 124.369 98.6641 124.424 98.8672C124.482 99.0703 124.535 99.2676 124.582 99.459C124.629 99.6465 124.662 99.8145 124.682 99.9629H124.729C124.744 99.8301 124.773 99.666 124.816 99.4707C124.859 99.2754 124.908 99.0605 124.963 98.8262C125.021 98.5918 125.082 98.3535 125.145 98.1113L126.082 94.5664H127.072L125.297 100.988H124.166ZM130.646 94.4727C131.412 94.4727 131.98 94.6445 132.352 94.9883C132.723 95.332 132.908 95.8809 132.908 96.6348V101H132.199L132.012 100.051H131.965C131.785 100.285 131.598 100.482 131.402 100.643C131.207 100.799 130.98 100.918 130.723 101C130.469 101.078 130.156 101.117 129.785 101.117C129.395 101.117 129.047 101.049 128.742 100.912C128.441 100.775 128.203 100.568 128.027 100.291C127.855 100.014 127.77 99.6621 127.77 99.2363C127.77 98.5957 128.023 98.1035 128.531 97.7598C129.039 97.416 129.812 97.2285 130.852 97.1973L131.959 97.1504V96.7578C131.959 96.2031 131.84 95.8145 131.602 95.5918C131.363 95.3691 131.027 95.2578 130.594 95.2578C130.258 95.2578 129.938 95.3066 129.633 95.4043C129.328 95.502 129.039 95.6172 128.766 95.75L128.467 95.0117C128.756 94.8633 129.088 94.7363 129.463 94.6309C129.838 94.5254 130.232 94.4727 130.646 94.4727ZM131.947 97.8359L130.969 97.877C130.168 97.9082 129.604 98.0391 129.275 98.2695C128.947 98.5 128.783 98.8262 128.783 99.248C128.783 99.6152 128.895 99.8867 129.117 100.062C129.34 100.238 129.635 100.326 130.002 100.326C130.572 100.326 131.039 100.168 131.402 99.8516C131.766 99.5352 131.947 99.0605 131.947 98.4277V97.8359ZM139.066 99.2422C139.066 99.6523 138.963 99.998 138.756 100.279C138.553 100.557 138.26 100.766 137.877 100.906C137.498 101.047 137.045 101.117 136.518 101.117C136.068 101.117 135.68 101.082 135.352 101.012C135.023 100.941 134.736 100.842 134.49 100.713V99.8164C134.752 99.9453 135.064 100.062 135.428 100.168C135.791 100.273 136.162 100.326 136.541 100.326C137.096 100.326 137.498 100.236 137.748 100.057C137.998 99.877 138.123 99.6328 138.123 99.3242C138.123 99.1484 138.072 98.9941 137.971 98.8613C137.873 98.7246 137.707 98.5938 137.473 98.4688C137.238 98.3398 136.914 98.1992 136.5 98.0469C136.09 97.8906 135.734 97.7363 135.434 97.584C135.137 97.4277 134.906 97.2383 134.742 97.0156C134.582 96.793 134.502 96.5039 134.502 96.1484C134.502 95.6055 134.721 95.1895 135.158 94.9004C135.6 94.6074 136.178 94.4609 136.893 94.4609C137.279 94.4609 137.641 94.5 137.977 94.5781C138.316 94.6523 138.633 94.7539 138.926 94.8828L138.598 95.6621C138.332 95.5488 138.049 95.4531 137.748 95.375C137.447 95.2969 137.141 95.2578 136.828 95.2578C136.379 95.2578 136.033 95.332 135.791 95.4805C135.553 95.6289 135.434 95.832 135.434 96.0898C135.434 96.2891 135.488 96.4531 135.598 96.582C135.711 96.7109 135.891 96.832 136.137 96.9453C136.383 97.0586 136.707 97.1914 137.109 97.3438C137.512 97.4922 137.859 97.6465 138.152 97.8066C138.445 97.9629 138.67 98.1543 138.826 98.3809C138.986 98.6035 139.066 98.8906 139.066 99.2422ZM149.285 97.7773C149.285 98.3047 149.217 98.7754 149.08 99.1895C148.943 99.6035 148.746 99.9531 148.488 100.238C148.23 100.523 147.918 100.742 147.551 100.895C147.188 101.043 146.775 101.117 146.314 101.117C145.885 101.117 145.49 101.043 145.131 100.895C144.775 100.742 144.467 100.523 144.205 100.238C143.947 99.9531 143.746 99.6035 143.602 99.1895C143.461 98.7754 143.391 98.3047 143.391 97.7773C143.391 97.0742 143.51 96.4766 143.748 95.9844C143.986 95.4883 144.326 95.1113 144.768 94.8535C145.213 94.5918 145.742 94.4609 146.355 94.4609C146.941 94.4609 147.453 94.5918 147.891 94.8535C148.332 95.1152 148.674 95.4941 148.916 95.9902C149.162 96.4824 149.285 97.0781 149.285 97.7773ZM144.398 97.7773C144.398 98.293 144.467 98.7402 144.604 99.1191C144.74 99.498 144.951 99.791 145.236 99.998C145.521 100.205 145.889 100.309 146.338 100.309C146.783 100.309 147.148 100.205 147.434 99.998C147.723 99.791 147.936 99.498 148.072 99.1191C148.209 98.7402 148.277 98.293 148.277 97.7773C148.277 97.2656 148.209 96.8242 148.072 96.4531C147.936 96.0781 147.725 95.7891 147.439 95.5859C147.154 95.3828 146.785 95.2812 146.332 95.2812C145.664 95.2812 145.174 95.502 144.861 95.9434C144.553 96.3848 144.398 96.9961 144.398 97.7773ZM154.008 94.4609C154.77 94.4609 155.346 94.6484 155.736 95.0234C156.127 95.3945 156.322 95.9922 156.322 96.8164V101H155.361V96.8809C155.361 96.3457 155.238 95.9453 154.992 95.6797C154.75 95.4141 154.377 95.2812 153.873 95.2812C153.162 95.2812 152.662 95.4824 152.373 95.8848C152.084 96.2871 151.939 96.8711 151.939 97.6367V101H150.967V94.5781H151.752L151.898 95.5039H151.951C152.088 95.2773 152.262 95.0879 152.473 94.9355C152.684 94.7793 152.92 94.6621 153.182 94.584C153.443 94.502 153.719 94.4609 154.008 94.4609ZM163.518 100.32C163.678 100.32 163.842 100.307 164.01 100.279C164.178 100.252 164.314 100.219 164.42 100.18V100.936C164.307 100.986 164.148 101.029 163.945 101.064C163.746 101.1 163.551 101.117 163.359 101.117C163.02 101.117 162.711 101.059 162.434 100.941C162.156 100.82 161.934 100.617 161.766 100.332C161.602 100.047 161.52 99.6523 161.52 99.1484V95.3398H160.605V94.8652L161.525 94.4844L161.912 93.0898H162.498V94.5781H164.379V95.3398H162.498V99.1191C162.498 99.5215 162.59 99.8223 162.773 100.021C162.961 100.221 163.209 100.32 163.518 100.32ZM166.693 91.8828V94.6074C166.693 94.7637 166.689 94.9219 166.682 95.082C166.674 95.2383 166.66 95.3828 166.641 95.5156H166.705C166.838 95.2891 167.006 95.0996 167.209 94.9473C167.416 94.791 167.65 94.6738 167.912 94.5957C168.174 94.5137 168.451 94.4727 168.744 94.4727C169.26 94.4727 169.689 94.5547 170.033 94.7188C170.381 94.8828 170.641 95.1367 170.812 95.4805C170.988 95.8242 171.076 96.2695 171.076 96.8164V101H170.115V96.8809C170.115 96.3457 169.992 95.9453 169.746 95.6797C169.504 95.4141 169.131 95.2812 168.627 95.2812C168.15 95.2812 167.77 95.373 167.484 95.5566C167.203 95.7363 167 96.002 166.875 96.3535C166.754 96.7051 166.693 97.1348 166.693 97.6426V101H165.721V91.8828H166.693ZM175.553 94.4609C176.1 94.4609 176.568 94.582 176.959 94.8242C177.35 95.0664 177.648 95.4062 177.855 95.8438C178.062 96.2773 178.166 96.7852 178.166 97.3672V97.9707H173.73C173.742 98.7246 173.93 99.2988 174.293 99.6934C174.656 100.088 175.168 100.285 175.828 100.285C176.234 100.285 176.594 100.248 176.906 100.174C177.219 100.1 177.543 99.9902 177.879 99.8457V100.701C177.555 100.846 177.232 100.951 176.912 101.018C176.596 101.084 176.221 101.117 175.787 101.117C175.17 101.117 174.631 100.992 174.17 100.742C173.713 100.488 173.357 100.117 173.104 99.6289C172.85 99.1406 172.723 98.543 172.723 97.8359C172.723 97.1445 172.838 96.5469 173.068 96.043C173.303 95.5352 173.631 95.1445 174.053 94.8711C174.479 94.5977 174.979 94.4609 175.553 94.4609ZM175.541 95.2578C175.021 95.2578 174.607 95.4277 174.299 95.7676C173.99 96.1074 173.807 96.582 173.748 97.1914H177.146C177.143 96.8086 177.082 96.4727 176.965 96.1836C176.852 95.8906 176.678 95.6641 176.443 95.5039C176.209 95.3398 175.908 95.2578 175.541 95.2578ZM185.508 101.117C184.93 101.117 184.42 100.998 183.979 100.76C183.537 100.521 183.193 100.158 182.947 99.6699C182.701 99.1816 182.578 98.5664 182.578 97.8242C182.578 97.0469 182.707 96.4121 182.965 95.9199C183.227 95.4238 183.586 95.0566 184.043 94.8184C184.5 94.5801 185.02 94.4609 185.602 94.4609C185.922 94.4609 186.23 94.4941 186.527 94.5605C186.828 94.623 187.074 94.7031 187.266 94.8008L186.973 95.6152C186.777 95.5371 186.551 95.4668 186.293 95.4043C186.039 95.3418 185.801 95.3105 185.578 95.3105C185.133 95.3105 184.762 95.4062 184.465 95.5977C184.172 95.7891 183.951 96.0703 183.803 96.4414C183.658 96.8125 183.586 97.2695 183.586 97.8125C183.586 98.332 183.656 98.7754 183.797 99.1426C183.941 99.5098 184.154 99.791 184.436 99.9863C184.721 100.178 185.076 100.273 185.502 100.273C185.842 100.273 186.148 100.238 186.422 100.168C186.695 100.094 186.943 100.008 187.166 99.9102V100.777C186.951 100.887 186.711 100.971 186.445 101.029C186.184 101.088 185.871 101.117 185.508 101.117ZM194.227 97.7773C194.227 98.3047 194.158 98.7754 194.021 99.1895C193.885 99.6035 193.688 99.9531 193.43 100.238C193.172 100.523 192.859 100.742 192.492 100.895C192.129 101.043 191.717 101.117 191.256 101.117C190.826 101.117 190.432 101.043 190.072 100.895C189.717 100.742 189.408 100.523 189.146 100.238C188.889 99.9531 188.688 99.6035 188.543 99.1895C188.402 98.7754 188.332 98.3047 188.332 97.7773C188.332 97.0742 188.451 96.4766 188.689 95.9844C188.928 95.4883 189.268 95.1113 189.709 94.8535C190.154 94.5918 190.684 94.4609 191.297 94.4609C191.883 94.4609 192.395 94.5918 192.832 94.8535C193.273 95.1152 193.615 95.4941 193.857 95.9902C194.104 96.4824 194.227 97.0781 194.227 97.7773ZM189.34 97.7773C189.34 98.293 189.408 98.7402 189.545 99.1191C189.682 99.498 189.893 99.791 190.178 99.998C190.463 100.205 190.83 100.309 191.279 100.309C191.725 100.309 192.09 100.205 192.375 99.998C192.664 99.791 192.877 99.498 193.014 99.1191C193.15 98.7402 193.219 98.293 193.219 97.7773C193.219 97.2656 193.15 96.8242 193.014 96.4531C192.877 96.0781 192.666 95.7891 192.381 95.5859C192.096 95.3828 191.727 95.2812 191.273 95.2812C190.605 95.2812 190.115 95.502 189.803 95.9434C189.494 96.3848 189.34 96.9961 189.34 97.7773ZM198.311 94.4727C199.076 94.4727 199.645 94.6445 200.016 94.9883C200.387 95.332 200.572 95.8809 200.572 96.6348V101H199.863L199.676 100.051H199.629C199.449 100.285 199.262 100.482 199.066 100.643C198.871 100.799 198.645 100.918 198.387 101C198.133 101.078 197.82 101.117 197.449 101.117C197.059 101.117 196.711 101.049 196.406 100.912C196.105 100.775 195.867 100.568 195.691 100.291C195.52 100.014 195.434 99.6621 195.434 99.2363C195.434 98.5957 195.688 98.1035 196.195 97.7598C196.703 97.416 197.477 97.2285 198.516 97.1973L199.623 97.1504V96.7578C199.623 96.2031 199.504 95.8145 199.266 95.5918C199.027 95.3691 198.691 95.2578 198.258 95.2578C197.922 95.2578 197.602 95.3066 197.297 95.4043C196.992 95.502 196.703 95.6172 196.43 95.75L196.131 95.0117C196.42 94.8633 196.752 94.7363 197.127 94.6309C197.502 94.5254 197.896 94.4727 198.311 94.4727ZM199.611 97.8359L198.633 97.877C197.832 97.9082 197.268 98.0391 196.939 98.2695C196.611 98.5 196.447 98.8262 196.447 99.248C196.447 99.6152 196.559 99.8867 196.781 100.062C197.004 100.238 197.299 100.326 197.666 100.326C198.236 100.326 198.703 100.168 199.066 99.8516C199.43 99.5352 199.611 99.0605 199.611 98.4277V97.8359ZM204.65 100.32C204.811 100.32 204.975 100.307 205.143 100.279C205.311 100.252 205.447 100.219 205.553 100.18V100.936C205.439 100.986 205.281 101.029 205.078 101.064C204.879 101.1 204.684 101.117 204.492 101.117C204.152 101.117 203.844 101.059 203.566 100.941C203.289 100.82 203.066 100.617 202.898 100.332C202.734 100.047 202.652 99.6523 202.652 99.1484V95.3398H201.738V94.8652L202.658 94.4844L203.045 93.0898H203.631V94.5781H205.512V95.3398H203.631V99.1191C203.631 99.5215 203.723 99.8223 203.906 100.021C204.094 100.221 204.342 100.32 204.65 100.32ZM212.889 94.4609C213.018 94.4609 213.152 94.4688 213.293 94.4844C213.434 94.4961 213.559 94.5137 213.668 94.5371L213.545 95.4395C213.439 95.4121 213.322 95.3906 213.193 95.375C213.064 95.3594 212.943 95.3516 212.83 95.3516C212.572 95.3516 212.328 95.4043 212.098 95.5098C211.871 95.6113 211.672 95.7598 211.5 95.9551C211.328 96.1465 211.193 96.3789 211.096 96.6523C210.998 96.9219 210.949 97.2227 210.949 97.5547V101H209.971V94.5781H210.779L210.885 95.7617H210.926C211.059 95.5234 211.219 95.3066 211.406 95.1113C211.594 94.9121 211.811 94.7539 212.057 94.6367C212.307 94.5195 212.584 94.4609 212.889 94.4609ZM217.283 94.4727C218.049 94.4727 218.617 94.6445 218.988 94.9883C219.359 95.332 219.545 95.8809 219.545 96.6348V101H218.836L218.648 100.051H218.602C218.422 100.285 218.234 100.482 218.039 100.643C217.844 100.799 217.617 100.918 217.359 101C217.105 101.078 216.793 101.117 216.422 101.117C216.031 101.117 215.684 101.049 215.379 100.912C215.078 100.775 214.84 100.568 214.664 100.291C214.492 100.014 214.406 99.6621 214.406 99.2363C214.406 98.5957 214.66 98.1035 215.168 97.7598C215.676 97.416 216.449 97.2285 217.488 97.1973L218.596 97.1504V96.7578C218.596 96.2031 218.477 95.8145 218.238 95.5918C218 95.3691 217.664 95.2578 217.23 95.2578C216.895 95.2578 216.574 95.3066 216.27 95.4043C215.965 95.502 215.676 95.6172 215.402 95.75L215.104 95.0117C215.393 94.8633 215.725 94.7363 216.1 94.6309C216.475 94.5254 216.869 94.4727 217.283 94.4727ZM218.584 97.8359L217.605 97.877C216.805 97.9082 216.24 98.0391 215.912 98.2695C215.584 98.5 215.42 98.8262 215.42 99.248C215.42 99.6152 215.531 99.8867 215.754 100.062C215.977 100.238 216.271 100.326 216.639 100.326C217.209 100.326 217.676 100.168 218.039 99.8516C218.402 99.5352 218.584 99.0605 218.584 98.4277V97.8359ZM224.121 101.117C223.543 101.117 223.033 100.998 222.592 100.76C222.15 100.521 221.807 100.158 221.561 99.6699C221.314 99.1816 221.191 98.5664 221.191 97.8242C221.191 97.0469 221.32 96.4121 221.578 95.9199C221.84 95.4238 222.199 95.0566 222.656 94.8184C223.113 94.5801 223.633 94.4609 224.215 94.4609C224.535 94.4609 224.844 94.4941 225.141 94.5605C225.441 94.623 225.688 94.7031 225.879 94.8008L225.586 95.6152C225.391 95.5371 225.164 95.4668 224.906 95.4043C224.652 95.3418 224.414 95.3105 224.191 95.3105C223.746 95.3105 223.375 95.4062 223.078 95.5977C222.785 95.7891 222.564 96.0703 222.416 96.4414C222.271 96.8125 222.199 97.2695 222.199 97.8125C222.199 98.332 222.27 98.7754 222.41 99.1426C222.555 99.5098 222.768 99.791 223.049 99.9863C223.334 100.178 223.689 100.273 224.115 100.273C224.455 100.273 224.762 100.238 225.035 100.168C225.309 100.094 225.557 100.008 225.779 99.9102V100.777C225.564 100.887 225.324 100.971 225.059 101.029C224.797 101.088 224.484 101.117 224.121 101.117ZM228.27 91.8828V96.6172C228.27 96.7734 228.264 96.9648 228.252 97.1914C228.24 97.4141 228.23 97.6113 228.223 97.7832H228.264C228.346 97.6816 228.465 97.5312 228.621 97.332C228.781 97.1328 228.916 96.9727 229.025 96.8516L231.158 94.5781H232.301L229.717 97.3203L232.488 101H231.316L229.049 97.959L228.27 98.6738V101H227.303V91.8828H228.27ZM233.461 100.391C233.461 100.117 233.527 99.9238 233.66 99.8105C233.793 99.6934 233.955 99.6348 234.146 99.6348C234.346 99.6348 234.514 99.6934 234.65 99.8105C234.787 99.9238 234.855 100.117 234.855 100.391C234.855 100.66 234.787 100.857 234.65 100.982C234.514 101.104 234.346 101.164 234.146 101.164C233.955 101.164 233.793 101.104 233.66 100.982C233.527 100.857 233.461 100.66 233.461 100.391Z" fill="#2C3E5D"/>
<defs>
<filter id="filter0_ddd_13421_33764" x="0" y="0" width="376" height="295" filterUnits="userSpaceOnUse" color-interpolation-filters="sRGB">
<feFlood flood-opacity="0" result="BackgroundImageFix"/>
<feColorMatrix in="SourceAlpha" type="matrix" values="0 0 0 0 0 0 0 0 0 0 0 0 0 0 0 0 0 0 127 0" result="hardAlpha"/>
<feOffset dx="2" dy="8"/>
<feGaussianBlur stdDeviation="8"/>
<feColorMatrix type="matrix" values="0 0 0 0 0 0 0 0 0 0 0 0 0 0 0 0 0 0 0.08 0"/>
<feBlend mode="normal" in2="BackgroundImageFix" result="effect1_dropShadow_13421_33764"/>
<feColorMatrix in="SourceAlpha" type="matrix" values="0 0 0 0 0 0 0 0 0 0 0 0 0 0 0 0 0 0 127 0" result="hardAlpha"/>
<feOffset dy="16"/>
<feGaussianBlur stdDeviation="10"/>
<feColorMatrix type="matrix" values="0 0 0 0 0 0 0 0 0 0 0 0 0 0 0 0 0 0 0.04 0"/>
<feBlend mode="normal" in2="effect1_dropShadow_13421_33764" result="effect2_dropShadow_13421_33764"/>
<feColorMatrix in="SourceAlpha" type="matrix" values="0 0 0 0 0 0 0 0 0 0 0 0 0 0 0 0 0 0 127 0" result="hardAlpha"/>
<feOffset/>
<feGaussianBlur stdDeviation="1"/>
<feColorMatrix type="matrix" values="0 0 0 0 0 0 0 0 0 0 0 0 0 0 0 0 0 0 0.12 0"/>
<feBlend mode="normal" in2="effect2_dropShadow_13421_33764" result="effect3_dropShadow_13421_33764"/>
<feBlend mode="normal" in="SourceGraphic" in2="effect3_dropShadow_13421_33764" result="shape"/>
</filter>
<filter id="filter1_d_13421_33764" x="63" y="100" width="273" height="84" filterUnits="userSpaceOnUse" color-interpolation-filters="sRGB">
<feFlood flood-opacity="0" result="BackgroundImageFix"/>
<feColorMatrix in="SourceAlpha" type="matrix" values="0 0 0 0 0 0 0 0 0 0 0 0 0 0 0 0 0 0 127 0" result="hardAlpha"/>
<feMorphology radius="4" operator="dilate" in="SourceAlpha" result="effect1_dropShadow_13421_33764"/>
<feOffset/>
<feGaussianBlur stdDeviation="4"/>
<feComposite in2="hardAlpha" operator="out"/>
<feColorMatrix type="matrix" values="0 0 0 0 0 0 0 0 0 0 0 0 0 0 0 0 0 0 0.05 0"/>
<feBlend mode="normal" in2="BackgroundImageFix" result="effect1_dropShadow_13421_33764"/>
<feBlend mode="normal" in="SourceGraphic" in2="effect1_dropShadow_13421_33764" result="shape"/>
</filter>
</defs>
</svg>
