<svg width="20" height="8" viewBox="0 0 20 8" fill="none" xmlns="http://www.w3.org/2000/svg">
<path opacity="0.5" fill-rule="evenodd" clip-rule="evenodd" d="M1.6 3.2C2.48366 3.2 3.2 2.48366 3.2 1.6C3.2 0.716344 2.48366 0 1.6 0C0.716344 0 0 0.716344 0 1.6C0 2.48366 0.716344 3.2 1.6 3.2ZM7.20156 3.20001C8.08522 3.20001 8.80156 2.48366 8.80156 1.60001C8.80156 0.716352 8.08522 7.62939e-06 7.20156 7.62939e-06C6.31791 7.62939e-06 5.60156 0.716352 5.60156 1.60001C5.60156 2.48366 6.31791 3.20001 7.20156 3.20001ZM14.3992 1.60001C14.3992 2.48366 13.6829 3.20001 12.7992 3.20001C11.9156 3.20001 11.1992 2.48366 11.1992 1.60001C11.1992 0.716352 11.9156 7.62939e-06 12.7992 7.62939e-06C13.6829 7.62939e-06 14.3992 0.716352 14.3992 1.60001ZM18.4008 3.20001C19.2844 3.20001 20.0008 2.48366 20.0008 1.60001C20.0008 0.716352 19.2844 7.62939e-06 18.4008 7.62939e-06C17.5171 7.62939e-06 16.8008 0.716352 16.8008 1.60001C16.8008 2.48366 17.5171 3.20001 18.4008 3.20001ZM3.2 6.39981C3.2 7.28347 2.48366 7.99981 1.6 7.99981C0.716344 7.99981 0 7.28347 0 6.39981C0 5.51616 0.716344 4.79981 1.6 4.79981C2.48366 4.79981 3.2 5.51616 3.2 6.39981ZM7.20156 7.99981C8.08522 7.99981 8.80156 7.28347 8.80156 6.39981C8.80156 5.51616 8.08522 4.79981 7.20156 4.79981C6.31791 4.79981 5.60156 5.51616 5.60156 6.39981C5.60156 7.28347 6.31791 7.99981 7.20156 7.99981ZM14.3992 6.39981C14.3992 7.28347 13.6829 7.99981 12.7992 7.99981C11.9156 7.99981 11.1992 7.28347 11.1992 6.39981C11.1992 5.51616 11.9156 4.79981 12.7992 4.79981C13.6829 4.79981 14.3992 5.51616 14.3992 6.39981ZM18.4008 7.99981C19.2844 7.99981 20.0008 7.28347 20.0008 6.39981C20.0008 5.51616 19.2844 4.79981 18.4008 4.79981C17.5171 4.79981 16.8008 5.51616 16.8008 6.39981C16.8008 7.28347 17.5171 7.99981 18.4008 7.99981Z" fill="#758195"/>
</svg>
