<svg width="220" height="55" viewBox="0 0 220 55" fill="none" xmlns="http://www.w3.org/2000/svg">
<g filter="url(#filter0_b_3955_26741)">
<path d="M0 8C0 3.58172 3.58172 0 8 0H212C216.418 0 220 3.58172 220 8V37C220 41.4183 216.418 45 212 45H8C3.58173 45 0 41.4183 0 37V8Z" fill="url(#paint0_linear_3955_26741)"/>
<path d="M1.5 8C1.5 4.41015 4.41015 1.5 8 1.5H212C215.59 1.5 218.5 4.41015 218.5 8V37C218.5 40.5899 215.59 43.5 212 43.5H8C4.41015 43.5 1.5 40.5898 1.5 37V8Z" stroke="#178733" stroke-width="3"/>
<path d="M9.58984 30V15.7227H13.4473V26.8848H18.9453V30H9.58984ZM21.2305 30V15.7227H25.1074V30H21.2305ZM34.4238 30L31.5039 19.7168H31.416C31.4421 19.9837 31.4681 20.3451 31.4941 20.8008C31.5267 21.2565 31.556 21.748 31.582 22.2754C31.6081 22.8027 31.6211 23.3105 31.6211 23.7988V30H28.2031V15.7227H33.3398L36.3184 25.8594H36.3965L39.3164 15.7227H44.4629V30H40.918V23.7402C40.918 23.291 40.9245 22.8092 40.9375 22.2949C40.957 21.7741 40.9766 21.2858 40.9961 20.8301C41.0221 20.3678 41.0449 20.0033 41.0645 19.7363H40.9766L38.0957 30H34.4238ZM47.5391 30V15.7227H51.416V30H47.5391ZM60.8105 30H56.9531V18.877H53.4668V15.7227L64.2871 15.7227V18.877H60.8105V30ZM74.8047 30L66.3281 30V15.7227H74.8047V18.8184H70.1855V21.0645H74.4629V24.1602H70.1855V26.8555L74.8047 26.8555V30ZM89.4238 22.5586C89.4238 24.2187 89.1146 25.599 88.4961 26.6992C87.8776 27.7995 87.0052 28.6263 85.8789 29.1797C84.7591 29.7266 83.4408 30 81.9238 30H77.3047V15.7227H82.2461C83.7825 15.7227 85.0846 15.9863 86.1523 16.5137C87.22 17.041 88.0306 17.8125 88.584 18.8281C89.1439 19.8437 89.4238 21.0872 89.4238 22.5586ZM85.4199 22.6953C85.4199 21.8294 85.3027 21.1133 85.0684 20.5469C84.8405 19.974 84.4954 19.5475 84.0332 19.2676C83.571 18.9811 82.9883 18.8379 82.2852 18.8379H81.1621V26.8359H82.0215C83.1934 26.8359 84.0527 26.4974 84.5996 25.8203C85.1465 25.1367 85.4199 24.0951 85.4199 22.6953ZM103.486 30H99.6289V18.877H96.1426V15.7227H106.963V18.877L103.486 18.877V30ZM109.004 30V15.7227H112.881V30H109.004ZM122.197 30L119.277 19.7168H119.189C119.215 19.9837 119.242 20.3451 119.268 20.8008C119.3 21.2565 119.329 21.748 119.355 22.2754C119.382 22.8027 119.395 23.3105 119.395 23.7988V30H115.977V15.7227H121.113L124.092 25.8594H124.17L127.09 15.7227H132.236V30H128.691V23.7402C128.691 23.291 128.698 22.8092 128.711 22.2949C128.73 21.7741 128.75 21.2858 128.77 20.8301C128.796 20.3678 128.818 20.0033 128.838 19.7363H128.75L125.869 30H122.197ZM143.789 30H135.312V15.7227H143.789V18.8184H139.17V21.0645H143.447V24.1602H139.17V26.8555H143.789V30ZM164.844 22.8418C164.844 23.9421 164.71 24.9447 164.443 25.8496C164.183 26.748 163.773 27.5228 163.213 28.1738C162.653 28.8249 161.934 29.3262 161.055 29.6777C160.176 30.0228 159.124 30.1953 157.9 30.1953C156.702 30.1953 155.664 30.0228 154.785 29.6777C153.913 29.3262 153.193 28.8281 152.627 28.1836C152.061 27.5326 151.641 26.7546 151.367 25.8496C151.094 24.9447 150.957 23.9355 150.957 22.8223C150.957 21.3379 151.201 20.0488 151.689 18.9551C152.184 17.8548 152.946 17.0052 153.975 16.4062C155.003 15.8008 156.318 15.498 157.92 15.498C159.548 15.498 160.869 15.8008 161.885 16.4062C162.907 17.0117 163.656 17.8646 164.131 18.9648C164.606 20.0651 164.844 21.3574 164.844 22.8418ZM155.02 22.8418C155.02 23.7012 155.117 24.4401 155.312 25.0586C155.508 25.6771 155.817 26.1523 156.24 26.4844C156.663 26.8164 157.217 26.9824 157.9 26.9824C158.61 26.9824 159.173 26.8164 159.59 26.4844C160.013 26.1523 160.316 25.6771 160.498 25.0586C160.687 24.4401 160.781 23.7012 160.781 22.8418C160.781 21.5527 160.566 20.5339 160.137 19.7852C159.707 19.0365 158.968 18.6621 157.92 18.6621C157.223 18.6621 156.66 18.8314 156.23 19.1699C155.807 19.5085 155.498 19.9902 155.303 20.6152C155.114 21.2402 155.02 21.9824 155.02 22.8418ZM171.221 30H167.422V15.7227H175.859V18.8184H171.221V21.543H175.498V24.6387H171.221V30ZM182.002 30H178.203V15.7227L186.641 15.7227V18.8184H182.002V21.543H186.279V24.6387H182.002V30ZM197.461 30H188.984V15.7227H197.461V18.8184H192.842V21.0645H197.119V24.1602H192.842V26.8555H197.461V30ZM204.639 15.7227C205.934 15.7227 207.012 15.8822 207.871 16.2012C208.73 16.5137 209.375 16.9824 209.805 17.6074C210.241 18.2324 210.459 19.0104 210.459 19.9414C210.459 20.5208 210.361 21.0482 210.166 21.5234C209.971 21.9987 209.691 22.4251 209.326 22.8027C208.968 23.1738 208.538 23.4993 208.037 23.7793L212.197 30H207.822L204.795 24.8047H203.818V30L199.961 30V15.7227H204.639ZM204.58 18.6426H203.818V21.9043H204.541C205.133 21.9043 205.618 21.7741 205.996 21.5137C206.374 21.2533 206.562 20.7878 206.562 20.1172C206.562 19.6549 206.406 19.2936 206.094 19.0332C205.781 18.7728 205.277 18.6426 204.58 18.6426Z" fill="#2C3E5D"/>
</g>
<path d="M110 55L175.818 43H44.1821L110 55Z" fill="url(#paint1_linear_3955_26741)"/>
<defs>
<filter id="filter0_b_3955_26741" x="-20" y="-20" width="260" height="85" filterUnits="userSpaceOnUse" color-interpolation-filters="sRGB">
<feFlood flood-opacity="0" result="BackgroundImageFix"/>
<feGaussianBlur in="BackgroundImageFix" stdDeviation="10"/>
<feComposite in2="SourceAlpha" operator="in" result="effect1_backgroundBlur_3955_26741"/>
<feBlend mode="normal" in="SourceGraphic" in2="effect1_backgroundBlur_3955_26741" result="shape"/>
</filter>
<linearGradient id="paint0_linear_3955_26741" x1="209.058" y1="5.00683" x2="9.014" y2="47.0201" gradientUnits="userSpaceOnUse">
<stop stop-color="white"/>
<stop offset="1" stop-color="white"/>
</linearGradient>
<linearGradient id="paint1_linear_3955_26741" x1="110" y1="55" x2="110" y2="39" gradientUnits="userSpaceOnUse">
<stop stop-color="#024112"/>
<stop offset="1" stop-color="#178733"/>
</linearGradient>
</defs>
</svg>
