<svg width="128" height="40" viewBox="0 0 128 40" fill="none" xmlns="http://www.w3.org/2000/svg">
<path d="M20 35.3623C28.4838 35.3623 35.3623 28.4844 35.3623 20.0013C35.3648 11.5156 28.4863 4.6377 20 4.6377C11.5162 4.6377 4.6377 11.5156 4.6377 19.9988C4.6377 28.4844 11.5162 35.3623 20 35.3623Z" fill="#499557"/>
<path fill-rule="evenodd" clip-rule="evenodd" d="M23.2724 8.37295C22.2324 9.48076 20.4914 12.3947 19.8257 14.7761C19.5342 14.5827 19.2026 14.0627 19.4212 13.0529C19.4262 13.0378 19.4413 13.0252 19.4564 13.0303L19.8608 13.0654C19.891 13.0679 19.906 13.0303 19.8834 13.0102L19.5217 12.6635C19.5141 12.656 19.5091 12.6484 19.5091 12.6409C19.5242 12.2691 19.5945 11.5331 19.7578 11.3422C19.7679 11.3296 19.7855 11.3296 19.798 11.3371L20.3281 11.6913C20.3557 11.7114 20.3909 11.6763 20.3708 11.6486L19.9689 11.0533C19.9588 11.0458 19.9588 11.0357 19.9638 11.0231C20.1975 10.5484 20.6798 9.60887 20.8758 9.42549C20.8883 9.41293 20.9034 9.41796 20.916 9.42549L21.2978 9.74201C21.3255 9.76211 21.3606 9.73699 21.3481 9.70684L21.0742 9.01603C21.0717 9.0085 21.0717 8.99594 21.0793 8.9884C21.4109 8.50609 22.1947 7.5465 22.7876 7.42592C22.8001 7.42089 22.8152 7.42843 22.8228 7.44099L23.0338 7.81026C23.0489 7.8404 23.0966 7.82533 23.0916 7.79016L23.0363 7.20988C23.0363 7.19984 23.0388 7.18728 23.0514 7.17974C23.383 7.00641 24.2924 6.70245 25.4505 6.75772C25.4732 6.75269 25.4857 6.77279 25.4807 6.79289L24.7019 9.16675C24.6994 9.18183 24.6843 9.18936 24.6718 9.18936L24.0914 9.14163C24.0563 9.13661 24.0437 9.18434 24.0713 9.19941L24.5813 9.5109C24.5989 9.51844 24.6014 9.53853 24.5939 9.55361L24.0939 10.4077C24.0914 10.4152 24.0789 10.4228 24.0713 10.4228L23.3704 10.4856C23.3352 10.4906 23.3327 10.5333 23.3629 10.5484L23.8729 10.7594C23.893 10.7669 23.9005 10.787 23.8879 10.8071L23.3654 11.719C23.3629 11.7265 23.3503 11.734 23.3428 11.734L22.466 11.8119C22.4334 11.8144 22.4258 11.8546 22.4535 11.8697L22.9132 12.1184C22.9283 12.1259 22.9333 12.146 22.9283 12.1611C22.7474 12.5178 22.3379 13.2639 21.9912 13.3417L21.4259 13.49C21.3958 13.4975 21.3958 13.5452 21.4259 13.5528L21.8932 13.6708C21.9108 13.6733 21.9234 13.6985 21.9158 13.7135C21.6445 14.3064 21.0868 15.0474 20.1698 14.8866C20.7351 12.5329 21.9887 10.2871 23.4307 8.4659L23.4779 8.40581C23.4729 8.36059 23.4659 8.31015 23.3579 8.30764C23.3352 8.30764 23.3101 8.3202 23.2951 8.34281L23.2724 8.37295ZM23.8865 31.7852C23.8865 31.2903 24.2885 30.8909 24.7809 30.8909C25.2733 30.8909 25.6727 31.2903 25.6753 31.7852C25.6753 32.28 25.2733 32.6794 24.7809 32.6794C24.286 32.6794 23.8865 32.2775 23.8865 31.7852ZM22.2961 26.2134H17.5932V27.1102H22.2961V26.2134ZM11.8066 25.1282V15.497C11.8066 15.2609 11.9975 15.07 12.2337 15.07H27.7694C28.0055 15.07 28.1964 15.2609 28.1964 15.497V25.1282C28.1964 25.3643 28.0055 25.5552 27.7694 25.5552H12.2337C11.9975 25.5552 11.8066 25.3643 11.8066 25.1282ZM14.2812 20.3729C14.2812 21.1365 14.8992 21.7545 15.6629 21.7545C16.4266 21.7545 17.0446 21.134 17.0446 20.3729C17.0446 19.6092 16.4266 18.9913 15.6629 18.9913C14.8992 18.9913 14.2812 19.6092 14.2812 20.3729ZM22.9609 20.3729C22.9609 21.1365 23.5789 21.7545 24.3427 21.7545C25.1064 21.7545 25.7244 21.134 25.7244 20.3729C25.7244 19.6092 25.1064 18.9913 24.3427 18.9913C23.5789 18.9913 22.9609 19.6092 22.9609 20.3729ZM9.93359 31.5992C10.4662 32.0614 11.0289 32.4885 11.6218 32.8728V30.21C11.137 30.21 10.3783 30.6496 9.93359 31.5992ZM20.0026 35.3623C17.1889 35.3623 14.5561 34.6011 12.2875 33.2823V30.8909H21.2311V35.3095C20.8266 35.3422 20.4171 35.3623 20.0026 35.3623ZM14.1943 31.647H13.5864C13.4105 31.647 13.2673 31.7877 13.2673 31.966C13.2673 32.1419 13.4105 32.285 13.5864 32.285H19.9323C20.1081 32.285 20.2513 32.1419 20.2513 31.966C20.2513 31.7902 20.1081 31.647 19.9323 31.647H14.1943ZM27.2884 27.781H12.7174C12.4813 27.781 12.2904 27.9719 12.2904 28.2081V29.8183V30.2252H21.6911H21.8972V30.4312V35.2417C23.9974 34.983 25.9645 34.3022 27.7155 33.2824V29.8183V28.2081C27.7155 27.9719 27.5246 27.781 27.2884 27.781ZM24.7812 33.3401C23.9195 33.3401 23.2236 32.6418 23.2236 31.7827C23.2236 30.9211 23.922 30.2252 24.7812 30.2252C25.6429 30.2252 26.3388 30.9236 26.3388 31.7827C26.3388 32.6443 25.6404 33.3401 24.7812 33.3401ZM28.3804 30.21C28.8653 30.21 29.624 30.6496 30.0687 31.5992C29.5361 32.0614 28.9733 32.4859 28.3804 32.8753V30.21Z" fill="white"/>
<path d="M49.688 26.565C50.5274 26.7855 51.3997 27.0831 52.3047 27.4578C54.1952 28.2368 55.5601 28.6262 56.3995 28.6262C56.6841 28.6262 57.1148 28.5527 57.6914 28.4058V28.9789C56.8739 29.4051 56.2681 29.8093 55.8739 30.1914C55.2389 30.1106 54.666 30.0003 54.155 29.8607C53.6441 29.7285 52.8668 29.4676 51.823 29.0781C50.1004 28.4462 48.9435 28.1302 48.3523 28.1302C48.1845 28.1302 48.0056 28.167 47.8159 28.2404C47.6334 28.3139 47.1699 28.5601 46.4254 28.9789V28.2515C47.6735 27.4064 48.5677 26.8443 49.1078 26.565C47.4582 26.565 46.0495 26.238 44.8817 25.584C43.7138 24.9227 42.8015 23.9821 42.1445 22.7623C41.4876 21.5425 41.1592 20.1133 41.1592 18.4746C41.1592 16.0791 41.9329 14.1428 43.4803 12.6658C45.0276 11.1888 47.0896 10.4503 49.6661 10.4503C52.1916 10.4503 54.1696 11.1374 55.6002 12.5115C57.0381 13.8783 57.7571 15.7006 57.7571 17.9786C57.7571 19.7275 57.3337 21.2633 56.4871 22.586C55.6477 23.9013 54.5455 24.9117 53.1806 25.6171C52.2025 26.1241 51.0384 26.4401 49.688 26.565ZM43.4693 17.5818C43.4693 19.2351 43.7503 20.6754 44.3123 21.9026C44.8744 23.1297 45.6262 24.0519 46.5677 24.6692C47.5093 25.2791 48.5859 25.584 49.7975 25.584C50.9216 25.584 51.9033 25.3232 52.7427 24.8015C53.5821 24.2797 54.2426 23.5045 54.7243 22.4757C55.2061 21.447 55.4469 20.1904 55.4469 18.7061C55.4469 17.1482 55.1805 15.8182 54.6477 14.716C54.1149 13.6137 53.385 12.7871 52.458 12.2359C51.531 11.6775 50.4325 11.3982 49.1625 11.3982C48.002 11.3982 47.002 11.6444 46.1626 12.1367C45.3233 12.6291 44.6627 13.3492 44.181 14.2971C43.7065 15.245 43.4693 16.3399 43.4693 17.5818Z" fill="#66AA4C"/>
<path d="M67.0199 26.3556L67.1513 24.3716L66.5054 25.077C66.0017 25.6281 65.4871 26.0176 64.9616 26.2454C64.4434 26.4658 63.8011 26.5761 63.0347 26.5761C62.3778 26.5761 61.8121 26.4364 61.3377 26.1572C60.8632 25.878 60.5165 25.5179 60.2976 25.077C60.0859 24.6288 59.9801 23.9233 59.9801 22.9607C59.9801 22.461 59.991 21.8805 60.0129 21.2192L60.0457 19.4446C60.0457 18.2027 60.0093 17.512 59.9363 17.3724C59.8706 17.2328 59.6407 17.1629 59.2465 17.1629H58.2721V16.5567C59.2648 16.4685 60.1808 16.2848 61.0202 16.0056L61.9289 15.6639C62.053 15.6639 62.115 15.7558 62.115 15.9395L62.0384 17.0637C61.9362 18.6216 61.8851 20.0692 61.8851 21.4066C61.8851 22.7439 61.9398 23.6 62.0493 23.9748C62.1588 24.3422 62.3887 24.6508 62.7391 24.9007C63.0894 25.1431 63.5164 25.2644 64.02 25.2644C64.6989 25.2644 65.3193 25.0439 65.8813 24.6031C66.4506 24.1622 66.8229 23.7176 66.998 23.2693C67.0929 23.0122 67.1404 22.2369 67.1404 20.9436C67.1404 18.7685 67.1002 17.5855 67.0199 17.3944C66.9469 17.2401 66.6185 17.1629 66.0346 17.1629H65.1696V16.5567C65.9214 16.4685 66.5601 16.3657 67.0856 16.2481C67.6111 16.1305 68.1659 15.9542 68.7498 15.719C68.8228 15.6823 68.8885 15.6639 68.9469 15.6639C69.0709 15.6639 69.133 15.7337 69.133 15.8733L69.0892 16.8984C68.9797 19.4115 68.925 21.6233 68.925 23.5339C68.925 24.6067 68.9797 25.2203 69.0892 25.3746C69.2498 25.6024 69.5965 25.7163 70.1293 25.7163H70.7643V26.3556C69.8519 26.3042 69.0782 26.2785 68.4432 26.2785C67.9688 26.2785 67.4944 26.3042 67.0199 26.3556Z" fill="#66AA4C"/>
<path d="M74.1807 10.77C74.5164 10.77 74.8047 10.8949 75.0456 11.1447C75.2865 11.3872 75.4069 11.6811 75.4069 12.0265C75.4069 12.3719 75.2865 12.6658 75.0456 12.9083C74.8047 13.1508 74.5164 13.272 74.1807 13.272C73.8376 13.272 73.5457 13.1508 73.3048 12.9083C73.0639 12.6658 72.9435 12.3719 72.9435 12.0265C72.9435 11.6811 73.0639 11.3872 73.3048 11.1447C73.5457 10.8949 73.8376 10.77 74.1807 10.77ZM75.0566 15.6529L75.3193 15.8182C75.2682 16.3693 75.2354 16.9756 75.2208 17.6369C75.1697 19.7826 75.1441 21.3661 75.1441 22.3876C75.1441 23.3428 75.177 24.1585 75.2427 24.8345C75.2719 25.0991 75.3412 25.2828 75.4507 25.3856C75.5602 25.4885 75.8229 25.5657 76.239 25.6171L76.9835 25.7163V26.3556C75.9178 26.3042 74.9471 26.2785 74.0712 26.2785C73.2099 26.2785 72.3413 26.3042 71.4655 26.3556V25.7163L72.407 25.6171C72.772 25.5877 72.9946 25.5216 73.0749 25.4187C73.1625 25.3085 73.2172 24.9521 73.2391 24.3495C73.2756 23.4163 73.2939 22.1304 73.2939 20.4917C73.2939 19.3527 73.2756 18.4746 73.2391 17.8574C73.2245 17.6296 73.1588 17.4679 73.042 17.3724C72.9326 17.2768 72.6807 17.2291 72.2866 17.2291H71.4655V16.5788C72.3559 16.4465 73.0092 16.3252 73.4252 16.215C73.8486 16.1048 74.3923 15.9174 75.0566 15.6529Z" fill="#66AA4C"/>
<path d="M81.3414 9.98737C81.2173 12.1404 81.1553 14.0877 81.1553 15.8292V21.4947C81.1553 23.7433 81.2027 25.0182 81.2976 25.3195C81.3487 25.4738 81.5896 25.573 82.0202 25.6171L82.9508 25.7163V26.3556C82.1553 26.3042 81.3962 26.2785 80.6736 26.2785C79.8707 26.2785 78.8196 26.3042 77.5204 26.3556V25.7163L78.462 25.6392C78.878 25.6024 79.1152 25.4959 79.1736 25.3195C79.2685 25.0329 79.316 23.7286 79.316 21.4066V15.7741L79.305 13.6578L79.2722 12.2139C79.2722 11.8538 79.232 11.6334 79.1517 11.5525C79.0349 11.435 78.7904 11.3762 78.4182 11.3762H77.5204V10.7148C79.0386 10.5752 80.2502 10.2886 81.1553 9.8551L81.3414 9.98737Z" fill="#66AA4C"/>
<path d="M87.4183 9.98737C87.2942 12.1404 87.2321 14.0877 87.2321 15.8292V21.4947C87.2321 23.7433 87.2796 25.0182 87.3745 25.3195C87.4256 25.4738 87.6664 25.573 88.0971 25.6171L89.0277 25.7163V26.3556C88.2321 26.3042 87.473 26.2785 86.7504 26.2785C85.9475 26.2785 84.8965 26.3042 83.5972 26.3556V25.7163L84.5388 25.6392C84.9549 25.6024 85.1921 25.4959 85.2505 25.3195C85.3454 25.0329 85.3928 23.7286 85.3928 21.4066V15.7741L85.3818 13.6578L85.349 12.2139C85.349 11.8538 85.3089 11.6334 85.2286 11.5525C85.1118 11.435 84.8673 11.3762 84.495 11.3762H83.5972V10.7148C85.1154 10.5752 86.3271 10.2886 87.2321 9.8551L87.4183 9.98737Z" fill="#66AA4C"/>
<path d="M91.3252 10.6742H96.8629C97.5532 10.6742 98.1911 10.7555 98.7763 10.918C99.3766 11.0805 99.8869 11.3243 100.307 11.6493C100.742 11.9596 101.08 12.3658 101.32 12.8682C101.575 13.3557 101.703 13.9319 101.703 14.5968C101.703 15.498 101.448 16.2367 100.937 16.8129C100.427 17.3743 99.7668 17.788 98.9564 18.0539V18.0982C99.4367 18.1278 99.8869 18.2534 100.307 18.475C100.727 18.6818 101.087 18.9625 101.388 19.3171C101.703 19.6569 101.95 20.0558 102.13 20.5138C102.311 20.9718 102.401 21.4668 102.401 21.9986C102.401 22.7078 102.251 23.3357 101.95 23.8824C101.665 24.4142 101.268 24.8648 100.757 25.2342C100.247 25.6036 99.6543 25.8843 98.9789 26.0763C98.3036 26.2684 97.5758 26.3644 96.7954 26.3644H91.3252V10.6742ZM93.4863 17.1896H96.4352C96.8404 17.1896 97.2231 17.1527 97.5833 17.0788C97.9434 16.9902 98.2586 16.8498 98.5287 16.6578C98.7988 16.4657 99.009 16.2219 99.159 15.9264C99.3241 15.6309 99.4066 15.269 99.4066 14.8405C99.4066 14.22 99.204 13.6807 98.7988 13.2227C98.3937 12.7647 97.7558 12.5357 96.8854 12.5357H93.4863V17.1896ZM93.4863 24.5029H96.6603C96.9905 24.5029 97.3506 24.4733 97.7408 24.4142C98.146 24.3404 98.5212 24.2074 98.8664 24.0153C99.2116 23.8085 99.5042 23.5352 99.7443 23.1954C99.9844 22.8555 100.104 22.4049 100.104 21.8435C100.104 20.9127 99.7968 20.2183 99.1815 19.7603C98.5662 19.2876 97.7333 19.0512 96.6828 19.0512H93.4863V24.5029Z" fill="#479455"/>
<path d="M106.18 21.1122C106.18 21.6441 106.262 22.139 106.427 22.597C106.593 23.0402 106.825 23.4244 107.125 23.7494C107.425 24.0596 107.793 24.3108 108.228 24.5029C108.664 24.6802 109.151 24.7688 109.692 24.7688C110.232 24.7688 110.72 24.6802 111.155 24.5029C111.59 24.3108 111.958 24.0596 112.258 23.7494C112.558 23.4244 112.791 23.0402 112.956 22.597C113.121 22.139 113.203 21.6441 113.203 21.1122C113.203 20.5803 113.121 20.0928 112.956 19.6495C112.791 19.1915 112.558 18.8074 112.258 18.4971C111.958 18.1721 111.59 17.921 111.155 17.7437C110.72 17.5516 110.232 17.4556 109.692 17.4556C109.151 17.4556 108.664 17.5516 108.228 17.7437C107.793 17.921 107.425 18.1721 107.125 18.4971C106.825 18.8074 106.593 19.1915 106.427 19.6495C106.262 20.0928 106.18 20.5803 106.18 21.1122ZM104.019 21.1122C104.019 20.3439 104.161 19.6274 104.446 18.9625C104.747 18.2977 105.152 17.7141 105.662 17.2118C106.172 16.7095 106.773 16.318 107.463 16.0372C108.153 15.7418 108.896 15.594 109.692 15.594C110.487 15.594 111.23 15.7418 111.92 16.0372C112.61 16.318 113.211 16.7095 113.721 17.2118C114.231 17.7141 114.629 18.2977 114.914 18.9625C115.214 19.6274 115.364 20.3439 115.364 21.1122C115.364 21.8804 115.214 22.6044 114.914 23.284C114.629 23.9488 114.231 24.5324 113.721 25.0347C113.211 25.5223 112.61 25.9138 111.92 26.2093C111.23 26.49 110.487 26.6304 109.692 26.6304C108.896 26.6304 108.153 26.49 107.463 26.2093C106.773 25.9138 106.172 25.5223 105.662 25.0347C105.152 24.5324 104.747 23.9488 104.446 23.284C104.161 22.6044 104.019 21.8804 104.019 21.1122Z" fill="#479455"/>
<path d="M123.17 17.5885H120.266V22.3532C120.266 22.6487 120.274 22.9442 120.289 23.2397C120.304 23.5204 120.356 23.7789 120.446 24.0153C120.551 24.2369 120.701 24.4216 120.896 24.5694C121.106 24.7023 121.407 24.7688 121.797 24.7688C122.037 24.7688 122.285 24.7466 122.54 24.7023C122.795 24.658 123.027 24.5767 123.238 24.4586V26.2758C122.997 26.4088 122.682 26.4974 122.292 26.5417C121.917 26.6008 121.624 26.6304 121.414 26.6304C120.634 26.6304 120.026 26.5269 119.591 26.3201C119.171 26.0985 118.855 25.8178 118.645 25.478C118.45 25.1382 118.33 24.7614 118.285 24.3477C118.255 23.9193 118.24 23.4908 118.24 23.0624V17.5885H115.899V15.8599H118.24V12.9125H120.266V15.8599H123.17V17.5885Z" fill="#479455"/>
</svg>
