<svg width="24" height="24" viewBox="0 0 24 24" fill="none" xmlns="http://www.w3.org/2000/svg">
<path d="M12 24C18.627 24 24 18.6274 24 12.001C24.002 5.37258 18.6289 0 12 0C5.37302 0 0 5.37258 0 11.999C0 18.6274 5.37302 24 12 24Z" fill="#008847"/>
<path fill-rule="evenodd" clip-rule="evenodd" d="M12.9207 5.78864C12.4123 6.33711 11.5598 7.76792 11.2313 8.94436C11.0905 8.84897 10.9262 8.59461 11.0357 8.10177C11.0357 8.09382 11.1296 7.56919 11.372 6.99687C11.5684 6.52923 11.6733 6.40396 11.7131 6.35633C11.7241 6.34324 11.7301 6.33602 11.7318 6.32916L11.7475 6.31327H11.7709L11.9586 6.47224C11.9743 6.48019 11.9821 6.45635 11.9821 6.45635L11.8491 6.11454V6.09864C11.9743 5.90787 12.2402 5.55812 12.7017 5.30375C13.2492 5.00169 13.7654 4.99375 13.9922 5.00169H14V5.01759C13.914 5.43888 13.7966 5.78864 13.695 6.05095C13.6912 6.05949 13.6859 6.072 13.6791 6.08816C13.6286 6.20736 13.494 6.52539 13.2804 6.91738C13.1844 7.09305 13.0884 7.24209 13.0095 7.36451C12.992 7.39165 12.9754 7.41749 12.9598 7.44201H12.9519L12.5218 7.48176C12.514 7.48971 12.5218 7.51355 12.5218 7.51355L12.7486 7.63279V7.65663L12.7329 7.68843C12.721 7.69756 12.6935 7.75009 12.6521 7.82929C12.4773 8.16384 12.0537 8.97429 11.4972 9H18.1669C18.3504 9 18.5 9.14786 18.5 9.3291V16.7292C18.5 16.9105 18.3504 17.0584 18.1669 17.0584H5.83309C5.64965 17.0584 5.5 16.9105 5.5 16.7292V9.3291C5.5 9.14547 5.64723 9 5.83309 9H11.3955C11.6771 7.83946 12.2871 6.73456 12.9989 5.83633L13.0302 5.82043C13.0296 5.81859 13.029 5.81666 13.0283 5.81466C13.0209 5.79069 13.0103 5.75684 12.9598 5.75684C12.9519 5.75684 12.9207 5.77274 12.9207 5.77274V5.78864ZM8.50024 14.137C7.90647 14.137 7.42614 13.6624 7.42614 13.0757C7.42614 12.4891 7.90647 12.0144 8.50024 12.0144C9.09402 12.0144 9.57434 12.4891 9.57434 13.0757C9.57434 13.66 9.09402 14.137 8.50024 14.137ZM15.4259 14.137C14.8321 14.137 14.3518 13.6624 14.3518 13.0757C14.3518 12.4891 14.8321 12.0144 15.4259 12.0144C16.0197 12.0144 16.5 12.4891 16.5 13.0757C16.5 13.66 16.0197 14.137 15.4259 14.137ZM14.0866 17.506H9.53241V18.2348H14.0866V17.506Z" fill="white"/>
</svg>
