<svg width="940" height="118" viewBox="0 0 940 118" fill="none" xmlns="http://www.w3.org/2000/svg">
<g filter="url(#filter0_dd_13767_73531)">
<g clip-path="url(#clip0_13767_73531)">
<path d="M2 10C2 5.58172 5.58172 2 10 2H930C934.418 2 938 5.58172 938 10V106C938 110.418 934.418 114 930 114H10C5.58172 114 2 110.418 2 106V10Z" fill="#008847"/>
<path opacity="0.16" fill-rule="evenodd" clip-rule="evenodd" d="M631.749 85.1378C631.885 83.3975 632.87 81.836 634.382 80.9633L710.155 37.2157C711.705 36.3206 713.602 36.2691 715.199 37.0786L749.996 54.7222C751.925 55.7006 753.066 57.7542 752.877 59.9094L743.141 170.924C742.992 172.623 742.034 174.146 740.568 175.016C739.102 175.887 737.306 175.998 735.744 175.316L631.82 129.922C629.752 129.019 628.483 126.905 628.659 124.655L631.749 85.1378ZM641.71 93.6558L661.436 103.077L640.006 115.45L641.71 93.6558ZM645.671 124.412L715.686 154.994L671.85 109.297L645.671 124.412ZM678.864 93.0151L680.568 71.2211L700.294 80.6422L678.864 93.0151ZM708.454 88.1644L726.768 151.242L681.298 103.842L708.454 88.1644ZM735.06 141.805L717.902 82.7096L741.434 69.1232L735.06 141.805ZM736.483 59.7487L717.235 70.8614L717.849 50.3006L736.483 59.7487ZM707.225 51.1402L687.251 62.6724L706.605 71.9156L707.225 51.1402ZM669.823 72.7344L648.393 85.1071L668.119 94.5283L669.823 72.7344Z" fill="#E5FAF0"/>
<path opacity="0.16" fill-rule="evenodd" clip-rule="evenodd" d="M905.243 11.46C905.658 11.2616 906.144 11.2806 906.543 11.5107L926.524 23.0468C926.933 23.2828 927.195 23.7093 927.22 24.1806L927.779 34.4532C927.81 35.0229 927.491 35.5541 926.974 35.7951L900.339 48.2088C899.931 48.3987 899.457 48.3809 899.065 48.1608C898.673 47.9407 898.411 47.5454 898.36 47.0985L895.025 17.3809C894.958 16.7895 895.274 16.2211 895.811 15.9646L905.243 11.46ZM904.611 14.8577L905.06 20.6046L899.409 17.342L904.611 14.8577ZM898.109 19.8175L900.357 39.8387L905.013 23.8031L898.109 19.8175ZM909.656 23.2579L914.857 20.7736L915.307 26.5206L909.656 23.2579ZM914.665 29.3757L902.674 41.8748L907.504 25.2415L914.665 29.3757ZM905.923 42.5241L917.156 30.8141L923.361 34.3968L905.923 42.5241ZM924.849 32.0301L919.774 29.0997L924.55 26.5291L924.849 32.0301ZM922.958 24.2136L917.691 21.1726L918.132 26.8111L922.958 24.2136ZM913.095 18.5194L907.444 15.2567L907.893 21.0037L913.095 18.5194Z" fill="#E5FAF0"/>
</g>
</g>
<defs>
<filter id="filter0_dd_13767_73531" x="0" y="0" width="940" height="118" filterUnits="userSpaceOnUse" color-interpolation-filters="sRGB">
<feFlood flood-opacity="0" result="BackgroundImageFix"/>
<feColorMatrix in="SourceAlpha" type="matrix" values="0 0 0 0 0 0 0 0 0 0 0 0 0 0 0 0 0 0 127 0" result="hardAlpha"/>
<feOffset dy="2"/>
<feGaussianBlur stdDeviation="1"/>
<feColorMatrix type="matrix" values="0 0 0 0 0 0 0 0 0 0 0 0 0 0 0 0 0 0 0.12 0"/>
<feBlend mode="normal" in2="BackgroundImageFix" result="effect1_dropShadow_13767_73531"/>
<feColorMatrix in="SourceAlpha" type="matrix" values="0 0 0 0 0 0 0 0 0 0 0 0 0 0 0 0 0 0 127 0" result="hardAlpha"/>
<feOffset/>
<feGaussianBlur stdDeviation="1"/>
<feColorMatrix type="matrix" values="0 0 0 0 0 0 0 0 0 0 0 0 0 0 0 0 0 0 0.2 0"/>
<feBlend mode="normal" in2="effect1_dropShadow_13767_73531" result="effect2_dropShadow_13767_73531"/>
<feBlend mode="normal" in="SourceGraphic" in2="effect2_dropShadow_13767_73531" result="shape"/>
</filter>
<clipPath id="clip0_13767_73531">
<path d="M2 10C2 5.58172 5.58172 2 10 2H930C934.418 2 938 5.58172 938 10V106C938 110.418 934.418 114 930 114H10C5.58172 114 2 110.418 2 106V10Z" fill="white"/>
</clipPath>
</defs>
</svg>
