<svg width="126" height="36" viewBox="0 0 126 36" fill="none" xmlns="http://www.w3.org/2000/svg">
<path d="M120.615 36H5.23062C2.69331 36 0.615234 33.9739 0.615234 31.5V4.5C0.615234 2.02612 2.69331 -4.59506e-07 5.23062 -4.59506e-07H120.615C123.153 -4.59506e-07 125.231 2.02612 125.231 4.5V31.5C125.231 33.9739 123.153 36 120.615 36Z" fill="black"/>
<path d="M120.615 0.721122C122.752 0.721122 124.491 2.4165 124.491 4.5V31.5C124.491 33.5835 122.752 35.2789 120.615 35.2789H5.23062C3.0937 35.2789 1.35485 33.5835 1.35485 31.5V4.5C1.35485 2.4165 3.0937 0.721122 5.23062 0.721122H120.615ZM120.615 -4.59506e-07H5.23062C2.69331 -4.59506e-07 0.615234 2.02612 0.615234 4.5V31.5C0.615234 33.9739 2.69331 36 5.23062 36H120.615C123.153 36 125.231 33.9739 125.231 31.5V4.5C125.231 2.02612 123.153 -4.59506e-07 120.615 -4.59506e-07Z" fill="#434343"/>
<path d="M10.2474 6.78477C9.97626 7.06152 9.81934 7.49239 9.81934 8.05039V27.9539C9.81934 28.5119 9.97626 28.9428 10.2474 29.2195L10.3143 29.2803L21.7536 18.1315V17.8683L10.3143 6.71952L10.2474 6.78477Z" fill="url(#paint0_linear_3859_1236)"/>
<path d="M25.5628 21.8496L21.7539 18.1315V17.8682L25.5674 14.1501L25.6528 14.1985L30.1689 16.7039C31.4578 17.4149 31.4578 18.5849 30.1689 19.3004L25.6528 21.8012L25.5628 21.8496Z" fill="url(#paint1_linear_3859_1236)"/>
<path d="M25.6521 21.8012L21.7532 17.9999L10.2471 29.2195C10.6751 29.6582 11.3732 29.7111 12.1671 29.2724L25.6521 21.8012Z" fill="url(#paint2_linear_3859_1236)"/>
<path d="M25.6521 14.1986L12.1671 6.7275C11.3732 6.29325 10.6751 6.34613 10.2471 6.78488L21.7532 18L25.6521 14.1986Z" fill="url(#paint3_linear_3859_1236)"/>
<path d="M44.3856 9.21959C44.3856 9.97109 44.1548 10.573 43.7002 11.0218C43.1775 11.554 42.4967 11.8217 41.6625 11.8217C40.8652 11.8217 40.1844 11.5495 39.626 11.0128C39.0663 10.4683 38.7871 9.80009 38.7871 9.00021C38.7871 8.20034 39.0663 7.53209 39.626 6.99209C40.1844 6.45096 40.8652 6.17871 41.6625 6.17871C42.0594 6.17871 42.4379 6.25859 42.799 6.40709C43.159 6.55671 43.4521 6.75921 43.6644 7.00896L43.1821 7.48371C42.8117 7.05734 42.3075 6.84696 41.6625 6.84696C41.081 6.84696 40.5767 7.04496 40.1486 7.44434C39.7252 7.84484 39.5129 8.36346 39.5129 9.00021C39.5129 9.63696 39.7252 10.1601 40.1486 10.5606C40.5767 10.9555 41.081 11.158 41.6625 11.158C42.2798 11.158 42.799 10.9555 43.2086 10.5561C43.4786 10.2917 43.6321 9.92721 43.6725 9.46146H41.6625V8.81121H44.344C44.3763 8.95184 44.3856 9.08796 44.3856 9.21959Z" fill="white" stroke="white" stroke-width="0.110769" stroke-miterlimit="10"/>
<path d="M48.6392 6.96487H46.1203V8.67487H48.3911V9.32512H46.1203V11.0351H48.6392V11.6977H45.4072V6.30225H48.6392V6.96487Z" fill="white" stroke="white" stroke-width="0.110769" stroke-miterlimit="10"/>
<path d="M51.6419 11.6977H50.9288V6.96487H49.3838V6.30225H53.188V6.96487H51.6419V11.6977Z" fill="white" stroke="white" stroke-width="0.110769" stroke-miterlimit="10"/>
<path d="M55.9414 11.6977V6.30225H56.6533V11.6977H55.9414Z" fill="white" stroke="white" stroke-width="0.110769" stroke-miterlimit="10"/>
<path d="M59.8088 11.6977H59.1015V6.96487H57.5508V6.30225H61.3596V6.96487H59.8088V11.6977Z" fill="white" stroke="white" stroke-width="0.110769" stroke-miterlimit="10"/>
<path d="M68.5619 11.0038C68.0161 11.5495 67.34 11.8217 66.5334 11.8217C65.7223 11.8217 65.0461 11.5495 64.5003 11.0038C63.9557 10.4593 63.6846 9.79109 63.6846 9.00021C63.6846 8.20934 63.9557 7.54109 64.5003 6.99659C65.0461 6.45096 65.7223 6.17871 66.5334 6.17871C67.3353 6.17871 68.0115 6.45096 68.5573 7.00109C69.1065 7.55009 69.3777 8.21384 69.3777 9.00021C69.3777 9.79109 69.1065 10.4593 68.5619 11.0038ZM65.0276 10.5516C65.4384 10.9555 65.938 11.158 66.5334 11.158C67.1242 11.158 67.6284 10.9555 68.0346 10.5516C68.4442 10.1477 68.6519 9.62909 68.6519 9.00021C68.6519 8.37134 68.4442 7.85271 68.0346 7.44884C67.6284 7.04496 67.1242 6.84246 66.5334 6.84246C65.938 6.84246 65.4384 7.04496 65.0276 7.44884C64.618 7.85271 64.4103 8.37134 64.4103 9.00021C64.4103 9.62909 64.618 10.1477 65.0276 10.5516Z" fill="white" stroke="white" stroke-width="0.110769" stroke-miterlimit="10"/>
<path d="M70.3779 11.6977V6.30225H71.2433L73.9341 10.4985H73.9652L73.9341 9.46124V6.30225H74.646V11.6977H73.9029L71.0852 7.2945H71.0541L71.0852 8.33625V11.6977H70.3779Z" fill="white" stroke="white" stroke-width="0.110769" stroke-miterlimit="10"/>
<path d="M63.5088 19.5774C61.3407 19.5774 59.5696 21.1862 59.5696 23.4058C59.5696 25.6074 61.3407 27.233 63.5088 27.233C65.6815 27.233 67.4527 25.6074 67.4527 23.4058C67.4527 21.1862 65.6815 19.5774 63.5088 19.5774ZM63.5088 25.7255C62.3192 25.7255 61.2957 24.7682 61.2957 23.4058C61.2957 22.0254 62.3192 21.0849 63.5088 21.0849C64.6984 21.0849 65.7265 22.0254 65.7265 23.4058C65.7265 24.7682 64.6984 25.7255 63.5088 25.7255ZM54.9138 19.5774C52.7411 19.5774 50.9746 21.1862 50.9746 23.4058C50.9746 25.6074 52.7411 27.233 54.9138 27.233C57.0853 27.233 58.853 25.6074 58.853 23.4058C58.853 21.1862 57.0853 19.5774 54.9138 19.5774ZM54.9138 25.7255C53.723 25.7255 52.6961 24.7682 52.6961 23.4058C52.6961 22.0254 53.723 21.0849 54.9138 21.0849C56.1034 21.0849 57.1269 22.0254 57.1269 23.4058C57.1269 24.7682 56.1034 25.7255 54.9138 25.7255ZM44.6861 20.7508V22.3775H48.6703C48.5538 23.2865 48.2423 23.9548 47.7646 24.4205C47.183 24.983 46.2773 25.6074 44.6861 25.6074C42.2342 25.6074 40.3142 23.678 40.3142 21.2874C40.3142 18.8968 42.2342 16.9674 44.6861 16.9674C46.0119 16.9674 46.9765 17.4726 47.6884 18.1273L48.8642 16.9809C47.8684 16.0539 46.5438 15.3418 44.6861 15.3418C41.3238 15.3418 38.498 18.0092 38.498 21.2874C38.498 24.5657 41.3238 27.233 44.6861 27.233C46.5034 27.233 47.8684 26.6525 48.9415 25.5635C50.0411 24.4914 50.3838 22.9839 50.3838 21.7667C50.3838 21.3887 50.3515 21.041 50.2938 20.7508H44.6861ZM86.5084 22.0119C86.1842 21.1558 85.1838 19.5774 83.1461 19.5774C81.1269 19.5774 79.4457 21.1288 79.4457 23.4058C79.4457 25.55 81.1096 27.233 83.34 27.233C85.1434 27.233 86.1842 26.1609 86.6123 25.5365L85.2738 24.6669C84.8273 25.3037 84.2192 25.7255 83.34 25.7255C82.4665 25.7255 81.8399 25.3352 81.4384 24.5657L86.6896 22.4473L86.5084 22.0119ZM81.1546 23.2865C81.1096 21.8105 82.3303 21.0545 83.205 21.0545C83.8903 21.0545 84.4719 21.3887 84.6657 21.8668L81.1546 23.2865ZM76.8865 27.0002H78.6126V15.7502H76.8865V27.0002ZM74.0596 20.4302H74.0019C73.6142 19.9824 72.8746 19.5774 71.9377 19.5774C69.9715 19.5774 68.1738 21.2604 68.1738 23.4182C68.1738 25.5635 69.9715 27.233 71.9377 27.233C72.8746 27.233 73.6142 26.8247 74.0019 26.3634H74.0596V26.9124C74.0596 28.376 73.2576 29.1624 71.9642 29.1624C70.9096 29.1624 70.2553 28.4199 69.9853 27.7955L68.4842 28.4064C68.9169 29.4212 70.0626 30.6699 71.9642 30.6699C73.988 30.6699 75.6957 29.5089 75.6957 26.684V19.8103H74.0596V20.4302ZM72.0853 25.7255C70.8957 25.7255 69.9 24.7547 69.9 23.4182C69.9 22.0693 70.8957 21.0849 72.0853 21.0849C73.2577 21.0849 74.1819 22.0693 74.1819 23.4182C74.1819 24.7547 73.2577 25.7255 72.0853 25.7255ZM94.5899 15.7502H90.4615V27.0002H92.183V22.7375H94.5899C96.5019 22.7375 98.3769 21.3887 98.3769 19.2433C98.3769 17.099 96.4973 15.7502 94.5899 15.7502ZM94.6349 21.1727H92.183V17.3151H94.6349C95.9203 17.3151 96.6542 18.3557 96.6542 19.2433C96.6542 20.114 95.9203 21.1727 94.6349 21.1727ZM105.277 19.556C104.033 19.556 102.74 20.0915 102.208 21.2784L103.735 21.9028C104.064 21.2784 104.669 21.0759 105.308 21.0759C106.201 21.0759 107.107 21.599 107.121 22.5227V22.6408C106.809 22.4653 106.142 22.2054 105.322 22.2054C103.676 22.2054 102 23.0885 102 24.7367C102 26.2442 103.348 27.215 104.863 27.215C106.021 27.215 106.66 26.7054 107.062 26.1125H107.121V26.9822H108.783V22.6667C108.783 20.672 107.256 19.556 105.277 19.556ZM105.069 25.721C104.506 25.721 103.721 25.4488 103.721 24.7682C103.721 23.8974 104.7 23.5633 105.547 23.5633C106.305 23.5633 106.66 23.7264 107.121 23.9413C106.986 24.983 106.066 25.721 105.069 25.721ZM114.841 19.8024L112.862 24.6793H112.803L110.758 19.8024H108.901L111.975 26.6177L110.221 30.41H112.02L116.756 19.8024H114.841ZM99.323 27.0002H101.049V15.7502H99.323V27.0002Z" fill="white"/>
<defs>
<linearGradient id="paint0_linear_3859_1236" x1="20.7379" y1="28.1612" x2="5.63858" y2="12.6747" gradientUnits="userSpaceOnUse">
<stop stop-color="#00A0FF"/>
<stop offset="0.0066" stop-color="#00A1FF"/>
<stop offset="0.2601" stop-color="#00BEFF"/>
<stop offset="0.5122" stop-color="#00D2FF"/>
<stop offset="0.7604" stop-color="#00DFFF"/>
<stop offset="1" stop-color="#00E3FF"/>
</linearGradient>
<linearGradient id="paint1_linear_3859_1236" x1="31.8472" y1="17.9986" x2="9.5116" y2="17.9986" gradientUnits="userSpaceOnUse">
<stop stop-color="#FFE000"/>
<stop offset="0.4087" stop-color="#FFBD00"/>
<stop offset="0.7754" stop-color="#FFA500"/>
<stop offset="1" stop-color="#FF9C00"/>
</linearGradient>
<linearGradient id="paint2_linear_3859_1236" x1="23.532" y1="15.9334" x2="3.05609" y2="-5.06756" gradientUnits="userSpaceOnUse">
<stop stop-color="#FF3A44"/>
<stop offset="1" stop-color="#C31162"/>
</linearGradient>
<linearGradient id="paint3_linear_3859_1236" x1="7.35073" y1="35.8414" x2="16.4941" y2="26.4637" gradientUnits="userSpaceOnUse">
<stop stop-color="#32A071"/>
<stop offset="0.0685" stop-color="#2DA771"/>
<stop offset="0.4762" stop-color="#15CF74"/>
<stop offset="0.8009" stop-color="#06E775"/>
<stop offset="1" stop-color="#00F076"/>
</linearGradient>
</defs>
</svg>
