<svg width="330" height="55" viewBox="0 0 330 55" fill="none" xmlns="http://www.w3.org/2000/svg">
<g opacity="0.3" filter="url(#filter0_f_4384_87280)">
<path d="M11.3125 21V11.0059H12.9531V21H11.3125ZM16.7129 11.0059L16.8154 11.1562C16.7334 11.4889 16.6263 11.8444 16.4941 12.2227C16.3665 12.6009 16.2275 12.9792 16.0771 13.3574C15.9268 13.7357 15.7741 14.0934 15.6191 14.4307H14.457C14.5208 14.1618 14.5869 13.8792 14.6553 13.583C14.7236 13.2822 14.7897 12.9814 14.8535 12.6807C14.9173 12.3753 14.9743 12.0814 15.0244 11.7988C15.0745 11.5117 15.1178 11.2474 15.1543 11.0059H16.7129ZM19.8643 21L16.9863 13.4326H18.6885L20.2471 17.876C20.3473 18.1585 20.4385 18.4639 20.5205 18.792C20.6025 19.1201 20.6595 19.3958 20.6914 19.6191H20.7461C20.778 19.3867 20.8395 19.1087 20.9307 18.7852C21.0218 18.457 21.1152 18.154 21.2109 17.876L22.7695 13.4326H24.4648L21.5869 21H19.8643ZM28.6279 13.2891C29.3024 13.2891 29.8812 13.4281 30.3643 13.7061C30.8473 13.984 31.2188 14.3783 31.4785 14.8887C31.7383 15.3991 31.8682 16.0098 31.8682 16.7207V17.582H26.8164C26.8346 18.3158 27.0306 18.8809 27.4043 19.2773C27.7826 19.6738 28.3112 19.8721 28.9902 19.8721C29.4733 19.8721 29.9062 19.8265 30.2891 19.7354C30.6764 19.6396 31.0752 19.5007 31.4854 19.3184V20.624C31.1071 20.8018 30.722 20.9316 30.3301 21.0137C29.9382 21.0957 29.4688 21.1367 28.9219 21.1367C28.179 21.1367 27.5251 20.9932 26.96 20.7061C26.3994 20.4144 25.9596 19.9814 25.6406 19.4072C25.3262 18.833 25.1689 18.1198 25.1689 17.2676C25.1689 16.4199 25.3125 15.6999 25.5996 15.1074C25.8867 14.515 26.29 14.0638 26.8096 13.7539C27.3291 13.444 27.9352 13.2891 28.6279 13.2891ZM28.6279 14.499C28.1221 14.499 27.7119 14.6631 27.3975 14.9912C27.0876 15.3193 26.9053 15.8001 26.8506 16.4336H30.2959C30.2913 16.0553 30.2275 15.7204 30.1045 15.4287C29.986 15.137 29.8037 14.9092 29.5576 14.7451C29.3161 14.5811 29.0062 14.499 28.6279 14.499ZM109.47 13.2891C110.317 13.2891 110.955 13.5078 111.384 13.9453C111.817 14.3828 112.033 15.0846 112.033 16.0508V21H110.427V16.3379C110.427 15.7637 110.315 15.3307 110.092 15.0391C109.868 14.7474 109.529 14.6016 109.073 14.6016C108.435 14.6016 107.975 14.8066 107.692 15.2168C107.414 15.6224 107.275 16.2126 107.275 16.9873V21H105.669V16.3379C105.669 15.9551 105.619 15.6361 105.519 15.3809C105.423 15.1211 105.275 14.9274 105.074 14.7998C104.874 14.6676 104.621 14.6016 104.315 14.6016C103.873 14.6016 103.52 14.7018 103.256 14.9023C102.996 15.1029 102.809 15.3991 102.695 15.791C102.581 16.1784 102.524 16.6546 102.524 17.2197V21H100.918V13.4326H102.169L102.395 14.4512H102.483C102.638 14.1868 102.83 13.9704 103.058 13.8018C103.29 13.6286 103.548 13.501 103.83 13.4189C104.113 13.3324 104.407 13.2891 104.712 13.2891C105.277 13.2891 105.753 13.3893 106.141 13.5898C106.528 13.7858 106.817 14.0866 107.009 14.4922H107.132C107.369 14.082 107.699 13.779 108.123 13.583C108.547 13.387 108.996 13.2891 109.47 13.2891ZM113.134 13.4326H114.884L116.436 17.7529C116.504 17.9489 116.565 18.1426 116.62 18.334C116.679 18.5208 116.729 18.7054 116.771 18.8877C116.816 19.07 116.853 19.2523 116.88 19.4346H116.921C116.966 19.1976 117.03 18.9333 117.112 18.6416C117.199 18.3454 117.295 18.0492 117.399 17.7529L118.89 13.4326H120.619L117.372 22.0391C117.185 22.5312 116.955 22.9505 116.682 23.2969C116.413 23.6478 116.094 23.9121 115.725 24.0898C115.355 24.2721 114.934 24.3633 114.46 24.3633C114.232 24.3633 114.034 24.3496 113.865 24.3223C113.697 24.2995 113.553 24.2744 113.435 24.2471V22.9619C113.53 22.9847 113.651 23.0052 113.797 23.0234C113.943 23.0417 114.093 23.0508 114.248 23.0508C114.535 23.0508 114.784 22.9938 114.993 22.8799C115.203 22.766 115.381 22.6042 115.526 22.3945C115.672 22.1895 115.793 21.9548 115.889 21.6904L116.155 20.9795L113.134 13.4326ZM129.239 13.2891C129.367 13.2891 129.506 13.2959 129.656 13.3096C129.807 13.3232 129.937 13.3415 130.046 13.3643L129.896 14.8682C129.8 14.8408 129.681 14.8203 129.54 14.8066C129.403 14.793 129.28 14.7861 129.171 14.7861C128.884 14.7861 128.61 14.834 128.351 14.9297C128.091 15.0208 127.861 15.1621 127.66 15.3535C127.46 15.5404 127.302 15.7751 127.188 16.0576C127.075 16.3402 127.018 16.6683 127.018 17.042V21H125.404V13.4326H126.662L126.881 14.7656H126.956C127.106 14.4967 127.293 14.2507 127.517 14.0273C127.74 13.804 127.995 13.6263 128.282 13.4941C128.574 13.3574 128.893 13.2891 129.239 13.2891ZM134.462 13.2891C135.136 13.2891 135.715 13.4281 136.198 13.7061C136.681 13.984 137.053 14.3783 137.312 14.8887C137.572 15.3991 137.702 16.0098 137.702 16.7207V17.582H132.65C132.669 18.3158 132.865 18.8809 133.238 19.2773C133.617 19.6738 134.145 19.8721 134.824 19.8721C135.307 19.8721 135.74 19.8265 136.123 19.7354C136.51 19.6396 136.909 19.5007 137.319 19.3184V20.624C136.941 20.8018 136.556 20.9316 136.164 21.0137C135.772 21.0957 135.303 21.1367 134.756 21.1367C134.013 21.1367 133.359 20.9932 132.794 20.7061C132.233 20.4144 131.794 19.9814 131.475 19.4072C131.16 18.833 131.003 18.1198 131.003 17.2676C131.003 16.4199 131.146 15.6999 131.434 15.1074C131.721 14.515 132.124 14.0638 132.644 13.7539C133.163 13.444 133.769 13.2891 134.462 13.2891ZM134.462 14.499C133.956 14.499 133.546 14.6631 133.231 14.9912C132.922 15.3193 132.739 15.8001 132.685 16.4336H136.13C136.125 16.0553 136.062 15.7204 135.938 15.4287C135.82 15.137 135.638 14.9092 135.392 14.7451C135.15 14.5811 134.84 14.499 134.462 14.499ZM144.6 18.8398C144.6 19.3366 144.479 19.7559 144.237 20.0977C143.996 20.4395 143.643 20.6992 143.178 20.877C142.717 21.0501 142.152 21.1367 141.482 21.1367C140.954 21.1367 140.498 21.098 140.115 21.0205C139.737 20.9476 139.379 20.8337 139.042 20.6787V19.291C139.402 19.4596 139.805 19.6055 140.252 19.7285C140.703 19.8516 141.129 19.9131 141.53 19.9131C142.059 19.9131 142.439 19.8311 142.672 19.667C142.904 19.4984 143.021 19.2751 143.021 18.9971C143.021 18.833 142.973 18.6872 142.877 18.5596C142.786 18.4274 142.613 18.293 142.357 18.1562C142.107 18.015 141.738 17.8464 141.25 17.6504C140.771 17.459 140.368 17.2676 140.04 17.0762C139.712 16.8848 139.464 16.6546 139.295 16.3857C139.126 16.1123 139.042 15.7637 139.042 15.3398C139.042 14.6699 139.306 14.1618 139.835 13.8154C140.368 13.4645 141.072 13.2891 141.947 13.2891C142.412 13.2891 142.85 13.3369 143.26 13.4326C143.674 13.5238 144.08 13.6582 144.477 13.8359L143.971 15.0459C143.629 14.8955 143.285 14.7725 142.938 14.6768C142.597 14.5765 142.248 14.5264 141.893 14.5264C141.478 14.5264 141.161 14.5902 140.942 14.7178C140.728 14.8454 140.621 15.0277 140.621 15.2646C140.621 15.4424 140.674 15.5928 140.778 15.7158C140.883 15.8389 141.063 15.9619 141.318 16.085C141.578 16.208 141.938 16.3607 142.398 16.543C142.85 16.7161 143.239 16.8984 143.567 17.0898C143.9 17.2767 144.155 17.5068 144.333 17.7803C144.511 18.0537 144.6 18.4069 144.6 18.8398ZM152.933 13.4326V21H151.668L151.449 19.9814H151.36C151.201 20.2412 150.998 20.4577 150.752 20.6309C150.506 20.7995 150.232 20.9248 149.932 21.0068C149.631 21.0934 149.314 21.1367 148.981 21.1367C148.412 21.1367 147.924 21.041 147.519 20.8496C147.118 20.6536 146.81 20.3529 146.596 19.9473C146.382 19.5417 146.274 19.0176 146.274 18.375V13.4326H147.888V18.0742C147.888 18.6621 148.006 19.1019 148.243 19.3936C148.485 19.6852 148.858 19.8311 149.364 19.8311C149.852 19.8311 150.239 19.7308 150.526 19.5303C150.813 19.3298 151.016 19.0335 151.135 18.6416C151.258 18.2497 151.319 17.7689 151.319 17.1992V13.4326H152.933ZM163.788 13.2891C164.636 13.2891 165.274 13.5078 165.702 13.9453C166.135 14.3828 166.352 15.0846 166.352 16.0508V21H164.745V16.3379C164.745 15.7637 164.633 15.3307 164.41 15.0391C164.187 14.7474 163.847 14.6016 163.392 14.6016C162.754 14.6016 162.293 14.8066 162.011 15.2168C161.733 15.6224 161.594 16.2126 161.594 16.9873V21H159.987V16.3379C159.987 15.9551 159.937 15.6361 159.837 15.3809C159.741 15.1211 159.593 14.9274 159.393 14.7998C159.192 14.6676 158.939 14.6016 158.634 14.6016C158.192 14.6016 157.839 14.7018 157.574 14.9023C157.314 15.1029 157.128 15.3991 157.014 15.791C156.9 16.1784 156.843 16.6546 156.843 17.2197V21H155.236V13.4326H156.487L156.713 14.4512H156.802C156.957 14.1868 157.148 13.9704 157.376 13.8018C157.608 13.6286 157.866 13.501 158.148 13.4189C158.431 13.3324 158.725 13.2891 159.03 13.2891C159.595 13.2891 160.072 13.3893 160.459 13.5898C160.846 13.7858 161.136 14.0866 161.327 14.4922H161.45C161.687 14.082 162.018 13.779 162.441 13.583C162.865 13.387 163.314 13.2891 163.788 13.2891ZM171.608 13.2891C172.283 13.2891 172.862 13.4281 173.345 13.7061C173.828 13.984 174.199 14.3783 174.459 14.8887C174.719 15.3991 174.849 16.0098 174.849 16.7207V17.582H169.797C169.815 18.3158 170.011 18.8809 170.385 19.2773C170.763 19.6738 171.292 19.8721 171.971 19.8721C172.454 19.8721 172.887 19.8265 173.27 19.7354C173.657 19.6396 174.056 19.5007 174.466 19.3184V20.624C174.088 20.8018 173.702 20.9316 173.311 21.0137C172.919 21.0957 172.449 21.1367 171.902 21.1367C171.16 21.1367 170.506 20.9932 169.94 20.7061C169.38 20.4144 168.94 19.9814 168.621 19.4072C168.307 18.833 168.149 18.1198 168.149 17.2676C168.149 16.4199 168.293 15.6999 168.58 15.1074C168.867 14.515 169.271 14.0638 169.79 13.7539C170.31 13.444 170.916 13.2891 171.608 13.2891ZM171.608 14.499C171.103 14.499 170.692 14.6631 170.378 14.9912C170.068 15.3193 169.886 15.8001 169.831 16.4336H173.276C173.272 16.0553 173.208 15.7204 173.085 15.4287C172.966 15.137 172.784 14.9092 172.538 14.7451C172.297 14.5811 171.987 14.499 171.608 14.499ZM184.077 14.6562H182.238V21H180.632V14.6562H179.395V13.8838L180.632 13.4121V12.8857C180.632 12.2432 180.732 11.7327 180.933 11.3545C181.138 10.9762 181.429 10.7051 181.808 10.541C182.19 10.3724 182.646 10.2881 183.175 10.2881C183.521 10.2881 183.838 10.3177 184.125 10.377C184.412 10.4316 184.654 10.4954 184.85 10.5684L184.433 11.7852C184.278 11.735 184.104 11.6895 183.913 11.6484C183.722 11.6029 183.517 11.5801 183.298 11.5801C182.933 11.5801 182.664 11.694 182.491 11.9219C182.323 12.1497 182.238 12.4824 182.238 12.9199V13.4326H184.077V14.6562ZM192.068 17.1992C192.068 17.8281 191.986 18.3864 191.822 18.874C191.658 19.3617 191.419 19.7741 191.104 20.1113C190.79 20.444 190.412 20.6992 189.97 20.877C189.528 21.0501 189.029 21.1367 188.473 21.1367C187.953 21.1367 187.477 21.0501 187.044 20.877C186.611 20.6992 186.235 20.444 185.916 20.1113C185.602 19.7741 185.358 19.3617 185.185 18.874C185.011 18.3864 184.925 17.8281 184.925 17.1992C184.925 16.3652 185.068 15.6589 185.355 15.0801C185.647 14.4967 186.062 14.0524 186.6 13.7471C187.137 13.4417 187.778 13.2891 188.521 13.2891C189.218 13.2891 189.833 13.4417 190.366 13.7471C190.899 14.0524 191.316 14.4967 191.617 15.0801C191.918 15.6634 192.068 16.3698 192.068 17.1992ZM186.579 17.1992C186.579 17.7507 186.645 18.2223 186.777 18.6143C186.914 19.0062 187.124 19.307 187.406 19.5166C187.689 19.7217 188.053 19.8242 188.5 19.8242C188.947 19.8242 189.311 19.7217 189.594 19.5166C189.876 19.307 190.084 19.0062 190.216 18.6143C190.348 18.2223 190.414 17.7507 190.414 17.1992C190.414 16.6478 190.348 16.1807 190.216 15.7979C190.084 15.4105 189.876 15.1165 189.594 14.916C189.311 14.7109 188.944 14.6084 188.493 14.6084C187.828 14.6084 187.342 14.8317 187.037 15.2783C186.732 15.7249 186.579 16.3652 186.579 17.1992ZM197.749 13.2891C197.877 13.2891 198.016 13.2959 198.166 13.3096C198.316 13.3232 198.446 13.3415 198.556 13.3643L198.405 14.8682C198.31 14.8408 198.191 14.8203 198.05 14.8066C197.913 14.793 197.79 14.7861 197.681 14.7861C197.394 14.7861 197.12 14.834 196.86 14.9297C196.601 15.0208 196.37 15.1621 196.17 15.3535C195.969 15.5404 195.812 15.7751 195.698 16.0576C195.584 16.3402 195.527 16.6683 195.527 17.042V21H193.914V13.4326H195.172L195.391 14.7656H195.466C195.616 14.4967 195.803 14.2507 196.026 14.0273C196.25 13.804 196.505 13.6263 196.792 13.4941C197.084 13.3574 197.403 13.2891 197.749 13.2891ZM202.452 13.4326H204.202L205.754 17.7529C205.822 17.9489 205.884 18.1426 205.938 18.334C205.998 18.5208 206.048 18.7054 206.089 18.8877C206.134 19.07 206.171 19.2523 206.198 19.4346H206.239C206.285 19.1976 206.349 18.9333 206.431 18.6416C206.517 18.3454 206.613 18.0492 206.718 17.7529L208.208 13.4326H209.938L206.69 22.0391C206.504 22.5312 206.273 22.9505 206 23.2969C205.731 23.6478 205.412 23.9121 205.043 24.0898C204.674 24.2721 204.252 24.3633 203.778 24.3633C203.55 24.3633 203.352 24.3496 203.184 24.3223C203.015 24.2995 202.871 24.2744 202.753 24.2471V22.9619C202.849 22.9847 202.969 23.0052 203.115 23.0234C203.261 23.0417 203.411 23.0508 203.566 23.0508C203.854 23.0508 204.102 22.9938 204.312 22.8799C204.521 22.766 204.699 22.6042 204.845 22.3945C204.991 22.1895 205.111 21.9548 205.207 21.6904L205.474 20.9795L202.452 13.4326ZM217.785 17.1992C217.785 17.8281 217.703 18.3864 217.539 18.874C217.375 19.3617 217.136 19.7741 216.821 20.1113C216.507 20.444 216.129 20.6992 215.687 20.877C215.244 21.0501 214.745 21.1367 214.189 21.1367C213.67 21.1367 213.194 21.0501 212.761 20.877C212.328 20.6992 211.952 20.444 211.633 20.1113C211.318 19.7741 211.075 19.3617 210.901 18.874C210.728 18.3864 210.642 17.8281 210.642 17.1992C210.642 16.3652 210.785 15.6589 211.072 15.0801C211.364 14.4967 211.779 14.0524 212.316 13.7471C212.854 13.4417 213.494 13.2891 214.237 13.2891C214.935 13.2891 215.55 13.4417 216.083 13.7471C216.616 14.0524 217.033 14.4967 217.334 15.0801C217.635 15.6634 217.785 16.3698 217.785 17.1992ZM212.296 17.1992C212.296 17.7507 212.362 18.2223 212.494 18.6143C212.631 19.0062 212.84 19.307 213.123 19.5166C213.406 19.7217 213.77 19.8242 214.217 19.8242C214.663 19.8242 215.028 19.7217 215.311 19.5166C215.593 19.307 215.8 19.0062 215.933 18.6143C216.065 18.2223 216.131 17.7507 216.131 17.1992C216.131 16.6478 216.065 16.1807 215.933 15.7979C215.8 15.4105 215.593 15.1165 215.311 14.916C215.028 14.7109 214.661 14.6084 214.21 14.6084C213.545 14.6084 213.059 14.8317 212.754 15.2783C212.449 15.7249 212.296 16.3652 212.296 17.1992ZM226.228 13.4326V21H224.963L224.744 19.9814H224.655C224.496 20.2412 224.293 20.4577 224.047 20.6309C223.801 20.7995 223.527 20.9248 223.227 21.0068C222.926 21.0934 222.609 21.1367 222.276 21.1367C221.707 21.1367 221.219 21.041 220.813 20.8496C220.412 20.6536 220.105 20.3529 219.891 19.9473C219.676 19.5417 219.569 19.0176 219.569 18.375V13.4326H221.183V18.0742C221.183 18.6621 221.301 19.1019 221.538 19.3936C221.78 19.6852 222.153 19.8311 222.659 19.8311C223.147 19.8311 223.534 19.7308 223.821 19.5303C224.108 19.3298 224.311 19.0335 224.43 18.6416C224.553 18.2497 224.614 17.7689 224.614 17.1992V13.4326H226.228ZM234.984 19.8379C235.194 19.8379 235.401 19.8197 235.606 19.7832C235.812 19.7422 235.998 19.6943 236.167 19.6396V20.8564C235.989 20.9339 235.759 21 235.477 21.0547C235.194 21.1094 234.9 21.1367 234.595 21.1367C234.166 21.1367 233.781 21.0661 233.439 20.9248C233.098 20.779 232.826 20.5306 232.626 20.1797C232.425 19.8288 232.325 19.3434 232.325 18.7236V14.6562H231.293V13.9385L232.4 13.3711L232.927 11.751H233.938V13.4326H236.105V14.6562H233.938V18.7031C233.938 19.0859 234.034 19.3708 234.226 19.5576C234.417 19.7445 234.67 19.8379 234.984 19.8379ZM244.404 17.1992C244.404 17.8281 244.322 18.3864 244.158 18.874C243.994 19.3617 243.755 19.7741 243.44 20.1113C243.126 20.444 242.748 20.6992 242.306 20.877C241.864 21.0501 241.365 21.1367 240.809 21.1367C240.289 21.1367 239.813 21.0501 239.38 20.877C238.947 20.6992 238.571 20.444 238.252 20.1113C237.938 19.7741 237.694 19.3617 237.521 18.874C237.347 18.3864 237.261 17.8281 237.261 17.1992C237.261 16.3652 237.404 15.6589 237.691 15.0801C237.983 14.4967 238.398 14.0524 238.936 13.7471C239.473 13.4417 240.114 13.2891 240.856 13.2891C241.554 13.2891 242.169 13.4417 242.702 13.7471C243.235 14.0524 243.652 14.4967 243.953 15.0801C244.254 15.6634 244.404 16.3698 244.404 17.1992ZM238.915 17.1992C238.915 17.7507 238.981 18.2223 239.113 18.6143C239.25 19.0062 239.46 19.307 239.742 19.5166C240.025 19.7217 240.389 19.8242 240.836 19.8242C241.283 19.8242 241.647 19.7217 241.93 19.5166C242.212 19.307 242.42 19.0062 242.552 18.6143C242.684 18.2223 242.75 17.7507 242.75 17.1992C242.75 16.6478 242.684 16.1807 242.552 15.7979C242.42 15.4105 242.212 15.1165 241.93 14.916C241.647 14.7109 241.28 14.6084 240.829 14.6084C240.164 14.6084 239.678 14.8317 239.373 15.2783C239.068 15.7249 238.915 16.3652 238.915 17.1992ZM251.5 21H249.887V10.3633H251.5V21ZM260.496 17.1992C260.496 17.8281 260.414 18.3864 260.25 18.874C260.086 19.3617 259.847 19.7741 259.532 20.1113C259.218 20.444 258.84 20.6992 258.397 20.877C257.955 21.0501 257.456 21.1367 256.9 21.1367C256.381 21.1367 255.905 21.0501 255.472 20.877C255.039 20.6992 254.663 20.444 254.344 20.1113C254.029 19.7741 253.785 19.3617 253.612 18.874C253.439 18.3864 253.353 17.8281 253.353 17.1992C253.353 16.3652 253.496 15.6589 253.783 15.0801C254.075 14.4967 254.49 14.0524 255.027 13.7471C255.565 13.4417 256.205 13.2891 256.948 13.2891C257.646 13.2891 258.261 13.4417 258.794 13.7471C259.327 14.0524 259.744 14.4967 260.045 15.0801C260.346 15.6634 260.496 16.3698 260.496 17.1992ZM255.007 17.1992C255.007 17.7507 255.073 18.2223 255.205 18.6143C255.342 19.0062 255.551 19.307 255.834 19.5166C256.117 19.7217 256.481 19.8242 256.928 19.8242C257.374 19.8242 257.739 19.7217 258.021 19.5166C258.304 19.307 258.511 19.0062 258.644 18.6143C258.776 18.2223 258.842 17.7507 258.842 17.1992C258.842 16.6478 258.776 16.1807 258.644 15.7979C258.511 15.4105 258.304 15.1165 258.021 14.916C257.739 14.7109 257.372 14.6084 256.921 14.6084C256.256 14.6084 255.77 14.8317 255.465 15.2783C255.16 15.7249 255.007 16.3652 255.007 17.1992ZM269.041 17.1992C269.041 17.8281 268.959 18.3864 268.795 18.874C268.631 19.3617 268.392 19.7741 268.077 20.1113C267.763 20.444 267.384 20.6992 266.942 20.877C266.5 21.0501 266.001 21.1367 265.445 21.1367C264.926 21.1367 264.45 21.0501 264.017 20.877C263.584 20.6992 263.208 20.444 262.889 20.1113C262.574 19.7741 262.33 19.3617 262.157 18.874C261.984 18.3864 261.897 17.8281 261.897 17.1992C261.897 16.3652 262.041 15.6589 262.328 15.0801C262.62 14.4967 263.035 14.0524 263.572 13.7471C264.11 13.4417 264.75 13.2891 265.493 13.2891C266.19 13.2891 266.806 13.4417 267.339 13.7471C267.872 14.0524 268.289 14.4967 268.59 15.0801C268.891 15.6634 269.041 16.3698 269.041 17.1992ZM263.552 17.1992C263.552 17.7507 263.618 18.2223 263.75 18.6143C263.887 19.0062 264.096 19.307 264.379 19.5166C264.661 19.7217 265.026 19.8242 265.473 19.8242C265.919 19.8242 266.284 19.7217 266.566 19.5166C266.849 19.307 267.056 19.0062 267.188 18.6143C267.321 18.2223 267.387 17.7507 267.387 17.1992C267.387 16.6478 267.321 16.1807 267.188 15.7979C267.056 15.4105 266.849 15.1165 266.566 14.916C266.284 14.7109 265.917 14.6084 265.466 14.6084C264.8 14.6084 264.315 14.8317 264.01 15.2783C263.704 15.7249 263.552 16.3652 263.552 17.1992ZM272.493 10.3633V15.5039C272.493 15.7363 272.484 15.9915 272.466 16.2695C272.448 16.543 272.429 16.8005 272.411 17.042H272.445C272.564 16.8825 272.705 16.6956 272.869 16.4814C273.038 16.2673 273.197 16.0804 273.348 15.9209L275.658 13.4326H277.504L274.476 16.6865L277.702 21H275.815L273.396 17.6777L272.493 18.4502V21H270.887V10.3633H272.493ZM41.4453 41V31.0059H43.0859V41H41.4453ZM46.8457 31.0059L46.9482 31.1562C46.8662 31.4889 46.7591 31.8444 46.627 32.2227C46.4993 32.6009 46.3604 32.9792 46.21 33.3574C46.0596 33.7357 45.9069 34.0934 45.752 34.4307H44.5898C44.6536 34.1618 44.7197 33.8792 44.7881 33.583C44.8564 33.2822 44.9225 32.9814 44.9863 32.6807C45.0501 32.3753 45.1071 32.0814 45.1572 31.7988C45.2074 31.5117 45.2507 31.2474 45.2871 31.0059H46.8457ZM49.9971 41L47.1191 33.4326H48.8213L50.3799 37.876C50.4801 38.1585 50.5713 38.4639 50.6533 38.792C50.7354 39.1201 50.7923 39.3958 50.8242 39.6191H50.8789C50.9108 39.3867 50.9723 39.1087 51.0635 38.7852C51.1546 38.457 51.248 38.154 51.3438 37.876L52.9023 33.4326H54.5977L51.7197 41H49.9971ZM58.7607 33.2891C59.4352 33.2891 60.014 33.4281 60.4971 33.7061C60.9801 33.984 61.3516 34.3783 61.6113 34.8887C61.8711 35.3991 62.001 36.0098 62.001 36.7207V37.582H56.9492C56.9674 38.3158 57.1634 38.8809 57.5371 39.2773C57.9154 39.6738 58.444 39.8721 59.123 39.8721C59.6061 39.8721 60.0391 39.8265 60.4219 39.7354C60.8092 39.6396 61.208 39.5007 61.6182 39.3184V40.624C61.2399 40.8018 60.8548 40.9316 60.4629 41.0137C60.071 41.0957 59.6016 41.1367 59.0547 41.1367C58.3118 41.1367 57.6579 40.9932 57.0928 40.7061C56.5322 40.4144 56.0924 39.9814 55.7734 39.4072C55.459 38.833 55.3018 38.1198 55.3018 37.2676C55.3018 36.4199 55.4453 35.6999 55.7324 35.1074C56.0195 34.515 56.4229 34.0638 56.9424 33.7539C57.4619 33.444 58.068 33.2891 58.7607 33.2891ZM58.7607 34.499C58.2549 34.499 57.8447 34.6631 57.5303 34.9912C57.2204 35.3193 57.0381 35.8001 56.9834 36.4336H60.4287C60.4242 36.0553 60.3604 35.7204 60.2373 35.4287C60.1188 35.137 59.9365 34.9092 59.6904 34.7451C59.4489 34.5811 59.139 34.499 58.7607 34.499ZM139.603 33.2891C140.45 33.2891 141.088 33.5078 141.517 33.9453C141.95 34.3828 142.166 35.0846 142.166 36.0508V41H140.56V36.3379C140.56 35.7637 140.448 35.3307 140.225 35.0391C140.001 34.7474 139.662 34.6016 139.206 34.6016C138.568 34.6016 138.108 34.8066 137.825 35.2168C137.547 35.6224 137.408 36.2126 137.408 36.9873V41H135.802V36.3379C135.802 35.9551 135.752 35.6361 135.651 35.3809C135.556 35.1211 135.408 34.9274 135.207 34.7998C135.007 34.6676 134.754 34.6016 134.448 34.6016C134.006 34.6016 133.653 34.7018 133.389 34.9023C133.129 35.1029 132.942 35.3991 132.828 35.791C132.714 36.1784 132.657 36.6546 132.657 37.2197V41H131.051V33.4326H132.302L132.527 34.4512H132.616C132.771 34.1868 132.963 33.9704 133.19 33.8018C133.423 33.6286 133.68 33.501 133.963 33.4189C134.245 33.3324 134.539 33.2891 134.845 33.2891C135.41 33.2891 135.886 33.3893 136.273 33.5898C136.661 33.7858 136.95 34.0866 137.142 34.4922H137.265C137.502 34.082 137.832 33.779 138.256 33.583C138.68 33.387 139.129 33.2891 139.603 33.2891ZM143.267 33.4326H145.017L146.568 37.7529C146.637 37.9489 146.698 38.1426 146.753 38.334C146.812 38.5208 146.862 38.7054 146.903 38.8877C146.949 39.07 146.985 39.2523 147.013 39.4346H147.054C147.099 39.1976 147.163 38.9333 147.245 38.6416C147.332 38.3454 147.427 38.0492 147.532 37.7529L149.022 33.4326H150.752L147.505 42.0391C147.318 42.5312 147.088 42.9505 146.814 43.2969C146.546 43.6478 146.227 43.9121 145.857 44.0898C145.488 44.2721 145.067 44.3633 144.593 44.3633C144.365 44.3633 144.167 44.3496 143.998 44.3223C143.829 44.2995 143.686 44.2744 143.567 44.2471V42.9619C143.663 42.9847 143.784 43.0052 143.93 43.0234C144.076 43.0417 144.226 43.0508 144.381 43.0508C144.668 43.0508 144.916 42.9938 145.126 42.8799C145.336 42.766 145.513 42.6042 145.659 42.3945C145.805 42.1895 145.926 41.9548 146.021 41.6904L146.288 40.9795L143.267 33.4326ZM159.372 33.2891C159.5 33.2891 159.639 33.2959 159.789 33.3096C159.939 33.3232 160.069 33.3415 160.179 33.3643L160.028 34.8682C159.933 34.8408 159.814 34.8203 159.673 34.8066C159.536 34.793 159.413 34.7861 159.304 34.7861C159.017 34.7861 158.743 34.834 158.483 34.9297C158.224 35.0208 157.993 35.1621 157.793 35.3535C157.592 35.5404 157.435 35.7751 157.321 36.0576C157.207 36.3402 157.15 36.6683 157.15 37.042V41H155.537V33.4326H156.795L157.014 34.7656H157.089C157.239 34.4967 157.426 34.2507 157.649 34.0273C157.873 33.804 158.128 33.6263 158.415 33.4941C158.707 33.3574 159.026 33.2891 159.372 33.2891ZM164.595 33.2891C165.269 33.2891 165.848 33.4281 166.331 33.7061C166.814 33.984 167.186 34.3783 167.445 34.8887C167.705 35.3991 167.835 36.0098 167.835 36.7207V37.582H162.783C162.801 38.3158 162.997 38.8809 163.371 39.2773C163.749 39.6738 164.278 39.8721 164.957 39.8721C165.44 39.8721 165.873 39.8265 166.256 39.7354C166.643 39.6396 167.042 39.5007 167.452 39.3184V40.624C167.074 40.8018 166.689 40.9316 166.297 41.0137C165.905 41.0957 165.436 41.1367 164.889 41.1367C164.146 41.1367 163.492 40.9932 162.927 40.7061C162.366 40.4144 161.926 39.9814 161.607 39.4072C161.293 38.833 161.136 38.1198 161.136 37.2676C161.136 36.4199 161.279 35.6999 161.566 35.1074C161.854 34.515 162.257 34.0638 162.776 33.7539C163.296 33.444 163.902 33.2891 164.595 33.2891ZM164.595 34.499C164.089 34.499 163.679 34.6631 163.364 34.9912C163.054 35.3193 162.872 35.8001 162.817 36.4336H166.263C166.258 36.0553 166.194 35.7204 166.071 35.4287C165.953 35.137 165.771 34.9092 165.524 34.7451C165.283 34.5811 164.973 34.499 164.595 34.499ZM174.732 38.8398C174.732 39.3366 174.612 39.7559 174.37 40.0977C174.129 40.4395 173.775 40.6992 173.311 40.877C172.85 41.0501 172.285 41.1367 171.615 41.1367C171.087 41.1367 170.631 41.098 170.248 41.0205C169.87 40.9476 169.512 40.8337 169.175 40.6787V39.291C169.535 39.4596 169.938 39.6055 170.385 39.7285C170.836 39.8516 171.262 39.9131 171.663 39.9131C172.192 39.9131 172.572 39.8311 172.805 39.667C173.037 39.4984 173.153 39.2751 173.153 38.9971C173.153 38.833 173.105 38.6872 173.01 38.5596C172.919 38.4274 172.745 38.293 172.49 38.1562C172.24 38.015 171.87 37.8464 171.383 37.6504C170.904 37.459 170.501 37.2676 170.173 37.0762C169.845 36.8848 169.596 36.6546 169.428 36.3857C169.259 36.1123 169.175 35.7637 169.175 35.3398C169.175 34.6699 169.439 34.1618 169.968 33.8154C170.501 33.4645 171.205 33.2891 172.08 33.2891C172.545 33.2891 172.982 33.3369 173.393 33.4326C173.807 33.5238 174.213 33.6582 174.609 33.8359L174.104 35.0459C173.762 34.8955 173.418 34.7725 173.071 34.6768C172.729 34.5765 172.381 34.5264 172.025 34.5264C171.611 34.5264 171.294 34.5902 171.075 34.7178C170.861 34.8454 170.754 35.0277 170.754 35.2646C170.754 35.4424 170.806 35.5928 170.911 35.7158C171.016 35.8389 171.196 35.9619 171.451 36.085C171.711 36.208 172.071 36.3607 172.531 36.543C172.982 36.7161 173.372 36.8984 173.7 37.0898C174.033 37.2767 174.288 37.5068 174.466 37.7803C174.644 38.0537 174.732 38.4069 174.732 38.8398ZM183.065 33.4326V41H181.801L181.582 39.9814H181.493C181.334 40.2412 181.131 40.4577 180.885 40.6309C180.639 40.7995 180.365 40.9248 180.064 41.0068C179.764 41.0934 179.447 41.1367 179.114 41.1367C178.545 41.1367 178.057 41.041 177.651 40.8496C177.25 40.6536 176.943 40.3529 176.729 39.9473C176.514 39.5417 176.407 39.0176 176.407 38.375V33.4326H178.021V38.0742C178.021 38.6621 178.139 39.1019 178.376 39.3936C178.618 39.6852 178.991 39.8311 179.497 39.8311C179.985 39.8311 180.372 39.7308 180.659 39.5303C180.946 39.3298 181.149 39.0335 181.268 38.6416C181.391 38.2497 181.452 37.7689 181.452 37.1992V33.4326H183.065ZM193.921 33.2891C194.769 33.2891 195.407 33.5078 195.835 33.9453C196.268 34.3828 196.484 35.0846 196.484 36.0508V41H194.878V36.3379C194.878 35.7637 194.766 35.3307 194.543 35.0391C194.32 34.7474 193.98 34.6016 193.524 34.6016C192.886 34.6016 192.426 34.8066 192.144 35.2168C191.866 35.6224 191.727 36.2126 191.727 36.9873V41H190.12V36.3379C190.12 35.9551 190.07 35.6361 189.97 35.3809C189.874 35.1211 189.726 34.9274 189.525 34.7998C189.325 34.6676 189.072 34.6016 188.767 34.6016C188.325 34.6016 187.971 34.7018 187.707 34.9023C187.447 35.1029 187.26 35.3991 187.146 35.791C187.033 36.1784 186.976 36.6546 186.976 37.2197V41H185.369V33.4326H186.62L186.846 34.4512H186.935C187.09 34.1868 187.281 33.9704 187.509 33.8018C187.741 33.6286 187.999 33.501 188.281 33.4189C188.564 33.3324 188.858 33.2891 189.163 33.2891C189.728 33.2891 190.204 33.3893 190.592 33.5898C190.979 33.7858 191.269 34.0866 191.46 34.4922H191.583C191.82 34.082 192.15 33.779 192.574 33.583C192.998 33.387 193.447 33.2891 193.921 33.2891ZM201.741 33.2891C202.416 33.2891 202.994 33.4281 203.478 33.7061C203.961 33.984 204.332 34.3783 204.592 34.8887C204.852 35.3991 204.981 36.0098 204.981 36.7207V37.582H199.93C199.948 38.3158 200.144 38.8809 200.518 39.2773C200.896 39.6738 201.424 39.8721 202.104 39.8721C202.587 39.8721 203.02 39.8265 203.402 39.7354C203.79 39.6396 204.188 39.5007 204.599 39.3184V40.624C204.22 40.8018 203.835 40.9316 203.443 41.0137C203.051 41.0957 202.582 41.1367 202.035 41.1367C201.292 41.1367 200.638 40.9932 200.073 40.7061C199.513 40.4144 199.073 39.9814 198.754 39.4072C198.439 38.833 198.282 38.1198 198.282 37.2676C198.282 36.4199 198.426 35.6999 198.713 35.1074C199 34.515 199.403 34.0638 199.923 33.7539C200.442 33.444 201.049 33.2891 201.741 33.2891ZM201.741 34.499C201.235 34.499 200.825 34.6631 200.511 34.9912C200.201 35.3193 200.019 35.8001 199.964 36.4336H203.409C203.405 36.0553 203.341 35.7204 203.218 35.4287C203.099 35.137 202.917 34.9092 202.671 34.7451C202.429 34.5811 202.119 34.499 201.741 34.499ZM214.21 34.6562H212.371V41H210.765V34.6562H209.527V33.8838L210.765 33.4121V32.8857C210.765 32.2432 210.865 31.7327 211.065 31.3545C211.271 30.9762 211.562 30.7051 211.94 30.541C212.323 30.3724 212.779 30.2881 213.308 30.2881C213.654 30.2881 213.971 30.3177 214.258 30.377C214.545 30.4316 214.786 30.4954 214.982 30.5684L214.565 31.7852C214.41 31.735 214.237 31.6895 214.046 31.6484C213.854 31.6029 213.649 31.5801 213.431 31.5801C213.066 31.5801 212.797 31.694 212.624 31.9219C212.455 32.1497 212.371 32.4824 212.371 32.9199V33.4326H214.21V34.6562ZM222.201 37.1992C222.201 37.8281 222.119 38.3864 221.955 38.874C221.791 39.3617 221.552 39.7741 221.237 40.1113C220.923 40.444 220.545 40.6992 220.103 40.877C219.66 41.0501 219.161 41.1367 218.605 41.1367C218.086 41.1367 217.61 41.0501 217.177 40.877C216.744 40.6992 216.368 40.444 216.049 40.1113C215.734 39.7741 215.491 39.3617 215.317 38.874C215.144 38.3864 215.058 37.8281 215.058 37.1992C215.058 36.3652 215.201 35.6589 215.488 35.0801C215.78 34.4967 216.195 34.0524 216.732 33.7471C217.27 33.4417 217.91 33.2891 218.653 33.2891C219.351 33.2891 219.966 33.4417 220.499 33.7471C221.032 34.0524 221.449 34.4967 221.75 35.0801C222.051 35.6634 222.201 36.3698 222.201 37.1992ZM216.712 37.1992C216.712 37.7507 216.778 38.2223 216.91 38.6143C217.047 39.0062 217.257 39.307 217.539 39.5166C217.822 39.7217 218.186 39.8242 218.633 39.8242C219.079 39.8242 219.444 39.7217 219.727 39.5166C220.009 39.307 220.216 39.0062 220.349 38.6143C220.481 38.2223 220.547 37.7507 220.547 37.1992C220.547 36.6478 220.481 36.1807 220.349 35.7979C220.216 35.4105 220.009 35.1165 219.727 34.916C219.444 34.7109 219.077 34.6084 218.626 34.6084C217.961 34.6084 217.475 34.8317 217.17 35.2783C216.865 35.7249 216.712 36.3652 216.712 37.1992ZM227.882 33.2891C228.009 33.2891 228.148 33.2959 228.299 33.3096C228.449 33.3232 228.579 33.3415 228.688 33.3643L228.538 34.8682C228.442 34.8408 228.324 34.8203 228.183 34.8066C228.046 34.793 227.923 34.7861 227.813 34.7861C227.526 34.7861 227.253 34.834 226.993 34.9297C226.733 35.0208 226.503 35.1621 226.303 35.3535C226.102 35.5404 225.945 35.7751 225.831 36.0576C225.717 36.3402 225.66 36.6683 225.66 37.042V41H224.047V33.4326H225.305L225.523 34.7656H225.599C225.749 34.4967 225.936 34.2507 226.159 34.0273C226.382 33.804 226.638 33.6263 226.925 33.4941C227.216 33.3574 227.535 33.2891 227.882 33.2891ZM232.585 33.4326H234.335L235.887 37.7529C235.955 37.9489 236.017 38.1426 236.071 38.334C236.131 38.5208 236.181 38.7054 236.222 38.8877C236.267 39.07 236.304 39.2523 236.331 39.4346H236.372C236.418 39.1976 236.481 38.9333 236.563 38.6416C236.65 38.3454 236.746 38.0492 236.851 37.7529L238.341 33.4326H240.07L236.823 42.0391C236.636 42.5312 236.406 42.9505 236.133 43.2969C235.864 43.6478 235.545 43.9121 235.176 44.0898C234.807 44.2721 234.385 44.3633 233.911 44.3633C233.683 44.3633 233.485 44.3496 233.316 44.3223C233.148 44.2995 233.004 44.2744 232.886 44.2471V42.9619C232.981 42.9847 233.102 43.0052 233.248 43.0234C233.394 43.0417 233.544 43.0508 233.699 43.0508C233.986 43.0508 234.235 42.9938 234.444 42.8799C234.654 42.766 234.832 42.6042 234.978 42.3945C235.123 42.1895 235.244 41.9548 235.34 41.6904L235.606 40.9795L232.585 33.4326ZM247.918 37.1992C247.918 37.8281 247.836 38.3864 247.672 38.874C247.508 39.3617 247.269 39.7741 246.954 40.1113C246.64 40.444 246.261 40.6992 245.819 40.877C245.377 41.0501 244.878 41.1367 244.322 41.1367C243.803 41.1367 243.326 41.0501 242.894 40.877C242.461 40.6992 242.085 40.444 241.766 40.1113C241.451 39.7741 241.207 39.3617 241.034 38.874C240.861 38.3864 240.774 37.8281 240.774 37.1992C240.774 36.3652 240.918 35.6589 241.205 35.0801C241.497 34.4967 241.911 34.0524 242.449 33.7471C242.987 33.4417 243.627 33.2891 244.37 33.2891C245.067 33.2891 245.683 33.4417 246.216 33.7471C246.749 34.0524 247.166 34.4967 247.467 35.0801C247.768 35.6634 247.918 36.3698 247.918 37.1992ZM242.429 37.1992C242.429 37.7507 242.495 38.2223 242.627 38.6143C242.764 39.0062 242.973 39.307 243.256 39.5166C243.538 39.7217 243.903 39.8242 244.35 39.8242C244.796 39.8242 245.161 39.7217 245.443 39.5166C245.726 39.307 245.933 39.0062 246.065 38.6143C246.198 38.2223 246.264 37.7507 246.264 37.1992C246.264 36.6478 246.198 36.1807 246.065 35.7979C245.933 35.4105 245.726 35.1165 245.443 34.916C245.161 34.7109 244.794 34.6084 244.343 34.6084C243.677 34.6084 243.192 34.8317 242.887 35.2783C242.581 35.7249 242.429 36.3652 242.429 37.1992ZM256.36 33.4326V41H255.096L254.877 39.9814H254.788C254.629 40.2412 254.426 40.4577 254.18 40.6309C253.934 40.7995 253.66 40.9248 253.359 41.0068C253.059 41.0934 252.742 41.1367 252.409 41.1367C251.84 41.1367 251.352 41.041 250.946 40.8496C250.545 40.6536 250.238 40.3529 250.023 39.9473C249.809 39.5417 249.702 39.0176 249.702 38.375V33.4326H251.315V38.0742C251.315 38.6621 251.434 39.1019 251.671 39.3936C251.912 39.6852 252.286 39.8311 252.792 39.8311C253.28 39.8311 253.667 39.7308 253.954 39.5303C254.241 39.3298 254.444 39.0335 254.562 38.6416C254.686 38.2497 254.747 37.7689 254.747 37.1992V33.4326H256.36ZM265.117 39.8379C265.327 39.8379 265.534 39.8197 265.739 39.7832C265.944 39.7422 266.131 39.6943 266.3 39.6396V40.8564C266.122 40.9339 265.892 41 265.609 41.0547C265.327 41.1094 265.033 41.1367 264.728 41.1367C264.299 41.1367 263.914 41.0661 263.572 40.9248C263.23 40.779 262.959 40.5306 262.759 40.1797C262.558 39.8288 262.458 39.3434 262.458 38.7236V34.6562H261.426V33.9385L262.533 33.3711L263.06 31.751H264.071V33.4326H266.238V34.6562H264.071V38.7031C264.071 39.0859 264.167 39.3708 264.358 39.5576C264.55 39.7445 264.803 39.8379 265.117 39.8379ZM274.537 37.1992C274.537 37.8281 274.455 38.3864 274.291 38.874C274.127 39.3617 273.888 39.7741 273.573 40.1113C273.259 40.444 272.881 40.6992 272.438 40.877C271.996 41.0501 271.497 41.1367 270.941 41.1367C270.422 41.1367 269.946 41.0501 269.513 40.877C269.08 40.6992 268.704 40.444 268.385 40.1113C268.07 39.7741 267.826 39.3617 267.653 38.874C267.48 38.3864 267.394 37.8281 267.394 37.1992C267.394 36.3652 267.537 35.6589 267.824 35.0801C268.116 34.4967 268.531 34.0524 269.068 33.7471C269.606 33.4417 270.246 33.2891 270.989 33.2891C271.687 33.2891 272.302 33.4417 272.835 33.7471C273.368 34.0524 273.785 34.4967 274.086 35.0801C274.387 35.6634 274.537 36.3698 274.537 37.1992ZM269.048 37.1992C269.048 37.7507 269.114 38.2223 269.246 38.6143C269.383 39.0062 269.592 39.307 269.875 39.5166C270.158 39.7217 270.522 39.8242 270.969 39.8242C271.415 39.8242 271.78 39.7217 272.062 39.5166C272.345 39.307 272.552 39.0062 272.685 38.6143C272.817 38.2223 272.883 37.7507 272.883 37.1992C272.883 36.6478 272.817 36.1807 272.685 35.7979C272.552 35.4105 272.345 35.1165 272.062 34.916C271.78 34.7109 271.413 34.6084 270.962 34.6084C270.297 34.6084 269.811 34.8317 269.506 35.2783C269.201 35.7249 269.048 36.3652 269.048 37.1992ZM281.633 41H280.02V30.3633H281.633V41ZM290.629 37.1992C290.629 37.8281 290.547 38.3864 290.383 38.874C290.219 39.3617 289.979 39.7741 289.665 40.1113C289.351 40.444 288.972 40.6992 288.53 40.877C288.088 41.0501 287.589 41.1367 287.033 41.1367C286.514 41.1367 286.037 41.0501 285.604 40.877C285.172 40.6992 284.796 40.444 284.477 40.1113C284.162 39.7741 283.918 39.3617 283.745 38.874C283.572 38.3864 283.485 37.8281 283.485 37.1992C283.485 36.3652 283.629 35.6589 283.916 35.0801C284.208 34.4967 284.622 34.0524 285.16 33.7471C285.698 33.4417 286.338 33.2891 287.081 33.2891C287.778 33.2891 288.394 33.4417 288.927 33.7471C289.46 34.0524 289.877 34.4967 290.178 35.0801C290.479 35.6634 290.629 36.3698 290.629 37.1992ZM285.14 37.1992C285.14 37.7507 285.206 38.2223 285.338 38.6143C285.475 39.0062 285.684 39.307 285.967 39.5166C286.249 39.7217 286.614 39.8242 287.061 39.8242C287.507 39.8242 287.872 39.7217 288.154 39.5166C288.437 39.307 288.644 39.0062 288.776 38.6143C288.909 38.2223 288.975 37.7507 288.975 37.1992C288.975 36.6478 288.909 36.1807 288.776 35.7979C288.644 35.4105 288.437 35.1165 288.154 34.916C287.872 34.7109 287.505 34.6084 287.054 34.6084C286.388 34.6084 285.903 34.8317 285.598 35.2783C285.292 35.7249 285.14 36.3652 285.14 37.1992ZM299.174 37.1992C299.174 37.8281 299.092 38.3864 298.928 38.874C298.764 39.3617 298.524 39.7741 298.21 40.1113C297.896 40.444 297.517 40.6992 297.075 40.877C296.633 41.0501 296.134 41.1367 295.578 41.1367C295.059 41.1367 294.582 41.0501 294.149 40.877C293.716 40.6992 293.34 40.444 293.021 40.1113C292.707 39.7741 292.463 39.3617 292.29 38.874C292.117 38.3864 292.03 37.8281 292.03 37.1992C292.03 36.3652 292.174 35.6589 292.461 35.0801C292.753 34.4967 293.167 34.0524 293.705 33.7471C294.243 33.4417 294.883 33.2891 295.626 33.2891C296.323 33.2891 296.938 33.4417 297.472 33.7471C298.005 34.0524 298.422 34.4967 298.723 35.0801C299.023 35.6634 299.174 36.3698 299.174 37.1992ZM293.685 37.1992C293.685 37.7507 293.751 38.2223 293.883 38.6143C294.02 39.0062 294.229 39.307 294.512 39.5166C294.794 39.7217 295.159 39.8242 295.605 39.8242C296.052 39.8242 296.417 39.7217 296.699 39.5166C296.982 39.307 297.189 39.0062 297.321 38.6143C297.453 38.2223 297.52 37.7507 297.52 37.1992C297.52 36.6478 297.453 36.1807 297.321 35.7979C297.189 35.4105 296.982 35.1165 296.699 34.916C296.417 34.7109 296.05 34.6084 295.599 34.6084C294.933 34.6084 294.448 34.8317 294.143 35.2783C293.837 35.7249 293.685 36.3652 293.685 37.1992ZM302.626 30.3633V35.5039C302.626 35.7363 302.617 35.9915 302.599 36.2695C302.58 36.543 302.562 36.8005 302.544 37.042H302.578C302.697 36.8825 302.838 36.6956 303.002 36.4814C303.171 36.2673 303.33 36.0804 303.48 35.9209L305.791 33.4326H307.637L304.608 36.6865L307.835 41H305.948L303.528 37.6777L302.626 38.4502V41H301.02V30.3633H302.626Z" fill="#2C3E5D"/>
<path d="M40.2832 13.2891C41.2402 13.2891 41.9626 13.501 42.4502 13.9248C42.9424 14.3486 43.1885 15.0094 43.1885 15.9072V21H42.0469L41.7393 19.9268H41.6846C41.4704 20.2002 41.2493 20.4258 41.0215 20.6035C40.7936 20.7812 40.5293 20.9134 40.2285 21C39.9323 21.0911 39.57 21.1367 39.1416 21.1367C38.6904 21.1367 38.2871 21.0547 37.9316 20.8906C37.5762 20.722 37.2959 20.4668 37.0908 20.125C36.8857 19.7832 36.7832 19.3503 36.7832 18.8262C36.7832 18.0469 37.0726 17.4613 37.6514 17.0693C38.2347 16.6774 39.1143 16.4609 40.29 16.4199L41.6025 16.3721V15.9756C41.6025 15.4515 41.4795 15.0778 41.2334 14.8545C40.9919 14.6312 40.6501 14.5195 40.208 14.5195C39.8298 14.5195 39.4629 14.5742 39.1074 14.6836C38.752 14.793 38.4056 14.9274 38.0684 15.0869L37.5488 13.9521C37.918 13.7562 38.3372 13.5967 38.8066 13.4736C39.2806 13.3506 39.7728 13.2891 40.2832 13.2891ZM41.5957 17.3838L40.6182 17.418C39.8161 17.4453 39.2533 17.582 38.9297 17.8281C38.6061 18.0742 38.4443 18.4115 38.4443 18.8398C38.4443 19.2135 38.556 19.487 38.7793 19.6602C39.0026 19.8288 39.2965 19.9131 39.6611 19.9131C40.2171 19.9131 40.6774 19.7559 41.042 19.4414C41.4111 19.1224 41.5957 18.6553 41.5957 18.04V17.3838ZM48.2539 19.8379C48.4635 19.8379 48.6709 19.8197 48.876 19.7832C49.0811 19.7422 49.2679 19.6943 49.4365 19.6396V20.8564C49.2588 20.9339 49.0286 21 48.7461 21.0547C48.4635 21.1094 48.1696 21.1367 47.8643 21.1367C47.4359 21.1367 47.0508 21.0661 46.709 20.9248C46.3672 20.779 46.096 20.5306 45.8955 20.1797C45.695 19.8288 45.5947 19.3434 45.5947 18.7236V14.6562H44.5625V13.9385L45.6699 13.3711L46.1963 11.751H47.208V13.4326H49.375V14.6562H47.208V18.7031C47.208 19.0859 47.3037 19.3708 47.4951 19.5576C47.6865 19.7445 47.9395 19.8379 48.2539 19.8379ZM53.791 19.8379C54.0007 19.8379 54.208 19.8197 54.4131 19.7832C54.6182 19.7422 54.805 19.6943 54.9736 19.6396V20.8564C54.7959 20.9339 54.5658 21 54.2832 21.0547C54.0007 21.1094 53.7067 21.1367 53.4014 21.1367C52.973 21.1367 52.5879 21.0661 52.2461 20.9248C51.9043 20.779 51.6331 20.5306 51.4326 20.1797C51.2321 19.8288 51.1318 19.3434 51.1318 18.7236V14.6562H50.0996V13.9385L51.207 13.3711L51.7334 11.751H52.7451V13.4326H54.9121V14.6562H52.7451V18.7031C52.7451 19.0859 52.8408 19.3708 53.0322 19.5576C53.2236 19.7445 53.4766 19.8379 53.791 19.8379ZM59.4785 13.2891C60.4355 13.2891 61.1579 13.501 61.6455 13.9248C62.1377 14.3486 62.3838 15.0094 62.3838 15.9072V21H61.2422L60.9346 19.9268H60.8799C60.6657 20.2002 60.4447 20.4258 60.2168 20.6035C59.9889 20.7812 59.7246 20.9134 59.4238 21C59.1276 21.0911 58.7653 21.1367 58.3369 21.1367C57.8857 21.1367 57.4824 21.0547 57.127 20.8906C56.7715 20.722 56.4912 20.4668 56.2861 20.125C56.0811 19.7832 55.9785 19.3503 55.9785 18.8262C55.9785 18.0469 56.2679 17.4613 56.8467 17.0693C57.43 16.6774 58.3096 16.4609 59.4854 16.4199L60.7979 16.3721V15.9756C60.7979 15.4515 60.6748 15.0778 60.4287 14.8545C60.1872 14.6312 59.8454 14.5195 59.4033 14.5195C59.0251 14.5195 58.6582 14.5742 58.3027 14.6836C57.9473 14.793 57.6009 14.9274 57.2637 15.0869L56.7441 13.9521C57.1133 13.7562 57.5326 13.5967 58.002 13.4736C58.4759 13.3506 58.9681 13.2891 59.4785 13.2891ZM60.791 17.3838L59.8135 17.418C59.0114 17.4453 58.4486 17.582 58.125 17.8281C57.8014 18.0742 57.6396 18.4115 57.6396 18.8398C57.6396 19.2135 57.7513 19.487 57.9746 19.6602C58.1979 19.8288 58.4919 19.9131 58.8564 19.9131C59.4124 19.9131 59.8727 19.7559 60.2373 19.4414C60.6064 19.1224 60.791 18.6553 60.791 18.04V17.3838ZM67.6816 21.1367C66.9661 21.1367 66.3464 20.9977 65.8223 20.7197C65.2982 20.4417 64.8949 20.0156 64.6123 19.4414C64.3298 18.8672 64.1885 18.138 64.1885 17.2539C64.1885 16.3333 64.3434 15.5814 64.6533 14.998C64.9632 14.4147 65.3916 13.984 65.9385 13.7061C66.4899 13.4281 67.1211 13.2891 67.832 13.2891C68.2832 13.2891 68.6911 13.3346 69.0557 13.4258C69.4248 13.5124 69.737 13.6195 69.9922 13.7471L69.5137 15.0322C69.2357 14.9183 68.9508 14.8226 68.6592 14.7451C68.3675 14.6676 68.0872 14.6289 67.8184 14.6289C67.3763 14.6289 67.0072 14.7269 66.7109 14.9229C66.4193 15.1188 66.2005 15.4105 66.0547 15.7979C65.9134 16.1852 65.8428 16.666 65.8428 17.2402C65.8428 17.7962 65.9157 18.2656 66.0615 18.6484C66.2074 19.0267 66.4238 19.3138 66.7109 19.5098C66.998 19.7012 67.3512 19.7969 67.7705 19.7969C68.1852 19.7969 68.5566 19.7467 68.8848 19.6465C69.2129 19.5462 69.5228 19.4163 69.8145 19.2568V20.6514C69.5273 20.8154 69.2197 20.9362 68.8916 21.0137C68.5635 21.0957 68.1602 21.1367 67.6816 21.1367ZM73.1982 10.3633V13.0361C73.1982 13.3141 73.1891 13.5853 73.1709 13.8496C73.1572 14.1139 73.1413 14.319 73.123 14.4648H73.2119C73.3714 14.2005 73.5674 13.984 73.7998 13.8154C74.0322 13.6423 74.292 13.5124 74.5791 13.4258C74.8708 13.3392 75.1807 13.2959 75.5088 13.2959C76.0876 13.2959 76.5798 13.3939 76.9854 13.5898C77.391 13.7812 77.7008 14.0798 77.915 14.4854C78.1338 14.891 78.2432 15.4173 78.2432 16.0645V21H76.6367V16.3652C76.6367 15.7773 76.516 15.3376 76.2744 15.0459C76.0329 14.7497 75.6592 14.6016 75.1533 14.6016C74.6657 14.6016 74.2783 14.7041 73.9912 14.9092C73.7087 15.1097 73.5059 15.4082 73.3828 15.8047C73.2598 16.1966 73.1982 16.6751 73.1982 17.2402V21H71.5918V10.3633H73.1982ZM83.5068 13.2891C84.1813 13.2891 84.7601 13.4281 85.2432 13.7061C85.7262 13.984 86.0977 14.3783 86.3574 14.8887C86.6172 15.3991 86.7471 16.0098 86.7471 16.7207V17.582H81.6953C81.7135 18.3158 81.9095 18.8809 82.2832 19.2773C82.6615 19.6738 83.1901 19.8721 83.8691 19.8721C84.3522 19.8721 84.7852 19.8265 85.168 19.7354C85.5553 19.6396 85.9541 19.5007 86.3643 19.3184V20.624C85.986 20.8018 85.6009 20.9316 85.209 21.0137C84.8171 21.0957 84.3477 21.1367 83.8008 21.1367C83.0579 21.1367 82.404 20.9932 81.8389 20.7061C81.2783 20.4144 80.8385 19.9814 80.5195 19.4072C80.2051 18.833 80.0479 18.1198 80.0479 17.2676C80.0479 16.4199 80.1914 15.6999 80.4785 15.1074C80.7656 14.515 81.1689 14.0638 81.6885 13.7539C82.208 13.444 82.8141 13.2891 83.5068 13.2891ZM83.5068 14.499C83.001 14.499 82.5908 14.6631 82.2764 14.9912C81.9665 15.3193 81.7842 15.8001 81.7295 16.4336H85.1748C85.1702 16.0553 85.1064 15.7204 84.9834 15.4287C84.8649 15.137 84.6826 14.9092 84.4365 14.7451C84.195 14.5811 83.8851 14.499 83.5068 14.499ZM91.1016 21.1367C90.1992 21.1367 89.4746 20.8086 88.9277 20.1523C88.3854 19.4915 88.1143 18.5186 88.1143 17.2334C88.1143 15.9346 88.39 14.9525 88.9414 14.2871C89.4974 13.6217 90.2288 13.2891 91.1357 13.2891C91.5186 13.2891 91.8535 13.3415 92.1406 13.4463C92.4277 13.5465 92.6738 13.6833 92.8789 13.8564C93.0885 14.0296 93.2663 14.2233 93.4121 14.4375H93.4873C93.4645 14.2962 93.4372 14.0934 93.4053 13.8291C93.3779 13.5602 93.3643 13.3118 93.3643 13.084V10.3633H94.9775V21H93.7197L93.4326 19.9678H93.3643C93.2275 20.1865 93.0544 20.3848 92.8447 20.5625C92.6396 20.7357 92.3936 20.8747 92.1064 20.9795C91.8239 21.0843 91.4889 21.1367 91.1016 21.1367ZM91.5527 19.8311C92.2409 19.8311 92.7262 19.6328 93.0088 19.2363C93.2913 18.8398 93.4372 18.2451 93.4463 17.4521V17.2402C93.4463 16.3926 93.3096 15.7432 93.0361 15.292C92.7627 14.8363 92.2637 14.6084 91.5391 14.6084C90.9603 14.6084 90.5182 14.8431 90.2129 15.3125C89.9121 15.7773 89.7617 16.4268 89.7617 17.2607C89.7617 18.0947 89.9121 18.7327 90.2129 19.1748C90.5182 19.6123 90.9648 19.8311 91.5527 19.8311ZM17.8477 37.1992C17.8477 37.8281 17.7656 38.3864 17.6016 38.874C17.4375 39.3617 17.1982 39.7741 16.8838 40.1113C16.5693 40.444 16.1911 40.6992 15.749 40.877C15.307 41.0501 14.8079 41.1367 14.252 41.1367C13.7324 41.1367 13.2562 41.0501 12.8232 40.877C12.3903 40.6992 12.0143 40.444 11.6953 40.1113C11.3809 39.7741 11.137 39.3617 10.9639 38.874C10.7907 38.3864 10.7041 37.8281 10.7041 37.1992C10.7041 36.3652 10.8477 35.6589 11.1348 35.0801C11.4264 34.4967 11.8411 34.0524 12.3789 33.7471C12.9167 33.4417 13.557 33.2891 14.2998 33.2891C14.9971 33.2891 15.6123 33.4417 16.1455 33.7471C16.6787 34.0524 17.0957 34.4967 17.3965 35.0801C17.6973 35.6634 17.8477 36.3698 17.8477 37.1992ZM12.3584 37.1992C12.3584 37.7507 12.4245 38.2223 12.5566 38.6143C12.6934 39.0062 12.903 39.307 13.1855 39.5166C13.4681 39.7217 13.8327 39.8242 14.2793 39.8242C14.7259 39.8242 15.0905 39.7217 15.373 39.5166C15.6556 39.307 15.863 39.0062 15.9951 38.6143C16.1273 38.2223 16.1934 37.7507 16.1934 37.1992C16.1934 36.6478 16.1273 36.1807 15.9951 35.7979C15.863 35.4105 15.6556 35.1165 15.373 34.916C15.0905 34.7109 14.7236 34.6084 14.2725 34.6084C13.6071 34.6084 13.1217 34.8317 12.8164 35.2783C12.5111 35.7249 12.3584 36.3652 12.3584 37.1992ZM21.4229 41L18.5449 33.4326H20.2471L21.8057 37.876C21.9059 38.1585 21.9971 38.4639 22.0791 38.792C22.1611 39.1201 22.2181 39.3958 22.25 39.6191H22.3047C22.3366 39.3867 22.3981 39.1087 22.4893 38.7852C22.5804 38.457 22.6738 38.154 22.7695 37.876L24.3281 33.4326H26.0234L23.1455 41H21.4229ZM30.1865 33.2891C30.861 33.2891 31.4398 33.4281 31.9229 33.7061C32.4059 33.984 32.7773 34.3783 33.0371 34.8887C33.2969 35.3991 33.4268 36.0098 33.4268 36.7207V37.582H28.375C28.3932 38.3158 28.5892 38.8809 28.9629 39.2773C29.3411 39.6738 29.8698 39.8721 30.5488 39.8721C31.0319 39.8721 31.4648 39.8265 31.8477 39.7354C32.235 39.6396 32.6338 39.5007 33.0439 39.3184V40.624C32.6657 40.8018 32.2806 40.9316 31.8887 41.0137C31.4967 41.0957 31.0273 41.1367 30.4805 41.1367C29.7376 41.1367 29.0837 40.9932 28.5186 40.7061C27.958 40.4144 27.5182 39.9814 27.1992 39.4072C26.8848 38.833 26.7275 38.1198 26.7275 37.2676C26.7275 36.4199 26.8711 35.6999 27.1582 35.1074C27.4453 34.515 27.8486 34.0638 28.3682 33.7539C28.8877 33.444 29.4938 33.2891 30.1865 33.2891ZM30.1865 34.499C29.6807 34.499 29.2705 34.6631 28.9561 34.9912C28.6462 35.3193 28.4639 35.8001 28.4092 36.4336H31.8545C31.8499 36.0553 31.7861 35.7204 31.6631 35.4287C31.5446 35.137 31.3623 34.9092 31.1162 34.7451C30.8747 34.5811 30.5648 34.499 30.1865 34.499ZM39.0732 33.2891C39.2008 33.2891 39.3398 33.2959 39.4902 33.3096C39.6406 33.3232 39.7705 33.3415 39.8799 33.3643L39.7295 34.8682C39.6338 34.8408 39.5153 34.8203 39.374 34.8066C39.2373 34.793 39.1143 34.7861 39.0049 34.7861C38.7178 34.7861 38.4443 34.834 38.1846 34.9297C37.9248 35.0208 37.6947 35.1621 37.4941 35.3535C37.2936 35.5404 37.1364 35.7751 37.0225 36.0576C36.9085 36.3402 36.8516 36.6683 36.8516 37.042V41H35.2383V33.4326H36.4961L36.7148 34.7656H36.79C36.9404 34.4967 37.1273 34.2507 37.3506 34.0273C37.5739 33.804 37.8291 33.6263 38.1162 33.4941C38.4079 33.3574 38.7269 33.2891 39.0732 33.2891ZM70.416 33.2891C71.373 33.2891 72.0954 33.501 72.583 33.9248C73.0752 34.3486 73.3213 35.0094 73.3213 35.9072V41H72.1797L71.8721 39.9268H71.8174C71.6032 40.2002 71.3822 40.4258 71.1543 40.6035C70.9264 40.7812 70.6621 40.9134 70.3613 41C70.0651 41.0911 69.7028 41.1367 69.2744 41.1367C68.8232 41.1367 68.4199 41.0547 68.0645 40.8906C67.709 40.722 67.4287 40.4668 67.2236 40.125C67.0186 39.7832 66.916 39.3503 66.916 38.8262C66.916 38.0469 67.2054 37.4613 67.7842 37.0693C68.3675 36.6774 69.2471 36.4609 70.4229 36.4199L71.7354 36.3721V35.9756C71.7354 35.4515 71.6123 35.0778 71.3662 34.8545C71.1247 34.6312 70.7829 34.5195 70.3408 34.5195C69.9626 34.5195 69.5957 34.5742 69.2402 34.6836C68.8848 34.793 68.5384 34.9274 68.2012 35.0869L67.6816 33.9521C68.0508 33.7562 68.4701 33.5967 68.9395 33.4736C69.4134 33.3506 69.9056 33.2891 70.416 33.2891ZM71.7285 37.3838L70.751 37.418C69.9489 37.4453 69.3861 37.582 69.0625 37.8281C68.7389 38.0742 68.5771 38.4115 68.5771 38.8398C68.5771 39.2135 68.6888 39.487 68.9121 39.6602C69.1354 39.8288 69.4294 39.9131 69.7939 39.9131C70.3499 39.9131 70.8102 39.7559 71.1748 39.4414C71.5439 39.1224 71.7285 38.6553 71.7285 38.04V37.3838ZM78.3867 39.8379C78.5964 39.8379 78.8037 39.8197 79.0088 39.7832C79.2139 39.7422 79.4007 39.6943 79.5693 39.6396V40.8564C79.3916 40.9339 79.1615 41 78.8789 41.0547C78.5964 41.1094 78.3024 41.1367 77.9971 41.1367C77.5687 41.1367 77.1836 41.0661 76.8418 40.9248C76.5 40.779 76.2288 40.5306 76.0283 40.1797C75.8278 39.8288 75.7275 39.3434 75.7275 38.7236V34.6562H74.6953V33.9385L75.8027 33.3711L76.3291 31.751H77.3408V33.4326H79.5078V34.6562H77.3408V38.7031C77.3408 39.0859 77.4365 39.3708 77.6279 39.5576C77.8193 39.7445 78.0723 39.8379 78.3867 39.8379ZM83.9238 39.8379C84.1335 39.8379 84.3408 39.8197 84.5459 39.7832C84.751 39.7422 84.9378 39.6943 85.1064 39.6396V40.8564C84.9287 40.9339 84.6986 41 84.416 41.0547C84.1335 41.1094 83.8395 41.1367 83.5342 41.1367C83.1058 41.1367 82.7207 41.0661 82.3789 40.9248C82.0371 40.779 81.766 40.5306 81.5654 40.1797C81.3649 39.8288 81.2646 39.3434 81.2646 38.7236V34.6562H80.2324V33.9385L81.3398 33.3711L81.8662 31.751H82.8779V33.4326H85.0449V34.6562H82.8779V38.7031C82.8779 39.0859 82.9736 39.3708 83.165 39.5576C83.3564 39.7445 83.6094 39.8379 83.9238 39.8379ZM89.6113 33.2891C90.5684 33.2891 91.2907 33.501 91.7783 33.9248C92.2705 34.3486 92.5166 35.0094 92.5166 35.9072V41H91.375L91.0674 39.9268H91.0127C90.7985 40.2002 90.5775 40.4258 90.3496 40.6035C90.1217 40.7812 89.8574 40.9134 89.5566 41C89.2604 41.0911 88.8981 41.1367 88.4697 41.1367C88.0186 41.1367 87.6152 41.0547 87.2598 40.8906C86.9043 40.722 86.624 40.4668 86.4189 40.125C86.2139 39.7832 86.1113 39.3503 86.1113 38.8262C86.1113 38.0469 86.4007 37.4613 86.9795 37.0693C87.5628 36.6774 88.4424 36.4609 89.6182 36.4199L90.9307 36.3721V35.9756C90.9307 35.4515 90.8076 35.0778 90.5615 34.8545C90.32 34.6312 89.9782 34.5195 89.5361 34.5195C89.1579 34.5195 88.791 34.5742 88.4355 34.6836C88.0801 34.793 87.7337 34.9274 87.3965 35.0869L86.877 33.9521C87.2461 33.7562 87.6654 33.5967 88.1348 33.4736C88.6087 33.3506 89.1009 33.2891 89.6113 33.2891ZM90.9238 37.3838L89.9463 37.418C89.1442 37.4453 88.5814 37.582 88.2578 37.8281C87.9342 38.0742 87.7725 38.4115 87.7725 38.8398C87.7725 39.2135 87.8841 39.487 88.1074 39.6602C88.3307 39.8288 88.6247 39.9131 88.9893 39.9131C89.5452 39.9131 90.0055 39.7559 90.3701 39.4414C90.7393 39.1224 90.9238 38.6553 90.9238 38.04V37.3838ZM97.8145 41.1367C97.099 41.1367 96.4792 40.9977 95.9551 40.7197C95.431 40.4417 95.0277 40.0156 94.7451 39.4414C94.4626 38.8672 94.3213 38.138 94.3213 37.2539C94.3213 36.3333 94.4762 35.5814 94.7861 34.998C95.096 34.4147 95.5244 33.984 96.0713 33.7061C96.6227 33.4281 97.2539 33.2891 97.9648 33.2891C98.416 33.2891 98.8239 33.3346 99.1885 33.4258C99.5576 33.5124 99.8698 33.6195 100.125 33.7471L99.6465 35.0322C99.3685 34.9183 99.0837 34.8226 98.792 34.7451C98.5003 34.6676 98.2201 34.6289 97.9512 34.6289C97.5091 34.6289 97.14 34.7269 96.8438 34.9229C96.5521 35.1188 96.3333 35.4105 96.1875 35.7979C96.0462 36.1852 95.9756 36.666 95.9756 37.2402C95.9756 37.7962 96.0485 38.2656 96.1943 38.6484C96.3402 39.0267 96.5566 39.3138 96.8438 39.5098C97.1309 39.7012 97.484 39.7969 97.9033 39.7969C98.318 39.7969 98.6895 39.7467 99.0176 39.6465C99.3457 39.5462 99.6556 39.4163 99.9473 39.2568V40.6514C99.6602 40.8154 99.3525 40.9362 99.0244 41.0137C98.6963 41.0957 98.293 41.1367 97.8145 41.1367ZM103.331 30.3633V33.0361C103.331 33.3141 103.322 33.5853 103.304 33.8496C103.29 34.1139 103.274 34.319 103.256 34.4648H103.345C103.504 34.2005 103.7 33.984 103.933 33.8154C104.165 33.6423 104.425 33.5124 104.712 33.4258C105.004 33.3392 105.313 33.2959 105.642 33.2959C106.22 33.2959 106.713 33.3939 107.118 33.5898C107.524 33.7812 107.834 34.0798 108.048 34.4854C108.267 34.891 108.376 35.4173 108.376 36.0645V41H106.77V36.3652C106.77 35.7773 106.649 35.3376 106.407 35.0459C106.166 34.7497 105.792 34.6016 105.286 34.6016C104.799 34.6016 104.411 34.7041 104.124 34.9092C103.841 35.1097 103.639 35.4082 103.516 35.8047C103.393 36.1966 103.331 36.6751 103.331 37.2402V41H101.725V30.3633H103.331ZM113.64 33.2891C114.314 33.2891 114.893 33.4281 115.376 33.7061C115.859 33.984 116.23 34.3783 116.49 34.8887C116.75 35.3991 116.88 36.0098 116.88 36.7207V37.582H111.828C111.846 38.3158 112.042 38.8809 112.416 39.2773C112.794 39.6738 113.323 39.8721 114.002 39.8721C114.485 39.8721 114.918 39.8265 115.301 39.7354C115.688 39.6396 116.087 39.5007 116.497 39.3184V40.624C116.119 40.8018 115.734 40.9316 115.342 41.0137C114.95 41.0957 114.48 41.1367 113.934 41.1367C113.191 41.1367 112.537 40.9932 111.972 40.7061C111.411 40.4144 110.971 39.9814 110.652 39.4072C110.338 38.833 110.181 38.1198 110.181 37.2676C110.181 36.4199 110.324 35.6999 110.611 35.1074C110.898 34.515 111.302 34.0638 111.821 33.7539C112.341 33.444 112.947 33.2891 113.64 33.2891ZM113.64 34.499C113.134 34.499 112.724 34.6631 112.409 34.9912C112.099 35.3193 111.917 35.8001 111.862 36.4336H115.308C115.303 36.0553 115.239 35.7204 115.116 35.4287C114.998 35.137 114.815 34.9092 114.569 34.7451C114.328 34.5811 114.018 34.499 113.64 34.499ZM121.234 41.1367C120.332 41.1367 119.607 40.8086 119.061 40.1523C118.518 39.4915 118.247 38.5186 118.247 37.2334C118.247 35.9346 118.523 34.9525 119.074 34.2871C119.63 33.6217 120.362 33.2891 121.269 33.2891C121.651 33.2891 121.986 33.3415 122.273 33.4463C122.561 33.5465 122.807 33.6833 123.012 33.8564C123.221 34.0296 123.399 34.2233 123.545 34.4375H123.62C123.597 34.2962 123.57 34.0934 123.538 33.8291C123.511 33.5602 123.497 33.3118 123.497 33.084V30.3633H125.11V41H123.853L123.565 39.9678H123.497C123.36 40.1865 123.187 40.3848 122.978 40.5625C122.772 40.7357 122.526 40.8747 122.239 40.9795C121.957 41.0843 121.622 41.1367 121.234 41.1367ZM121.686 39.8311C122.374 39.8311 122.859 39.6328 123.142 39.2363C123.424 38.8398 123.57 38.2451 123.579 37.4521V37.2402C123.579 36.3926 123.442 35.7432 123.169 35.292C122.896 34.8363 122.396 34.6084 121.672 34.6084C121.093 34.6084 120.651 34.8431 120.346 35.3125C120.045 35.7773 119.895 36.4268 119.895 37.2607C119.895 38.0947 120.045 38.7327 120.346 39.1748C120.651 39.6123 121.098 39.8311 121.686 39.8311Z" fill="#008847"/>
</g>
<defs>
<filter id="filter0_f_4384_87280" x="0" y="-4" width="340" height="60" filterUnits="userSpaceOnUse" color-interpolation-filters="sRGB">
<feFlood flood-opacity="0" result="BackgroundImageFix"/>
<feBlend mode="normal" in="SourceGraphic" in2="BackgroundImageFix" result="shape"/>
<feGaussianBlur stdDeviation="5" result="effect1_foregroundBlur_4384_87280"/>
</filter>
</defs>
</svg>
