<svg width="16" height="17" viewBox="0 0 16 17" fill="none" xmlns="http://www.w3.org/2000/svg">
<path d="M8 16.3164C12.418 16.3164 16 12.7347 16 8.31706C16.0013 3.89812 12.4193 0.316406 8 0.316406C3.58201 0.316406 0 3.89813 0 8.31575C0 12.7347 3.58201 16.3164 8 16.3164Z" fill="#008847"/>
<path d="M9.60547 12.8157H6.10156V12.265H9.60547V12.8157ZM12.7441 5.83821C12.8851 5.83842 13 5.95041 13 6.08723V11.6781C13 11.8149 12.8851 11.9269 12.7441 11.9271H3.25586C3.11492 11.9269 3 11.8149 3 11.6781V6.08723C3 5.9486 3.11306 5.83839 3.25586 5.83821H7.53516C7.75177 4.96139 8.2211 4.12622 8.76855 3.44758L8.79199 3.43586C8.786 3.41783 8.78024 3.38802 8.73828 3.38801C8.73226 3.38801 8.70801 3.39973 8.70801 3.39973V3.41145C8.31694 3.82587 7.66089 4.90731 7.4082 5.79622C7.29999 5.72396 7.17368 5.53146 7.25781 5.1595C7.25868 5.14888 7.33121 4.75438 7.5166 4.32454C7.70849 3.8756 7.7875 3.84462 7.79395 3.82063L7.80566 3.80793H7.82422L7.96777 3.92805C7.97981 3.93406 7.98633 3.91633 7.98633 3.91633L7.88379 3.65852V3.64583C7.98009 3.50165 8.1852 3.23737 8.54004 3.04524C8.9609 2.81729 9.3577 2.81171 9.53223 2.8177H9.53809V2.82942C9.47195 3.14749 9.38188 3.41156 9.30371 3.60969C9.27965 3.66375 9.17185 3.92864 8.98535 4.26497C8.89511 4.42713 8.80446 4.55935 8.73828 4.66145H8.73242L8.40137 4.69075C8.39555 4.69655 8.401 4.71402 8.40137 4.71516L8.57617 4.805V4.82356C8.57058 4.83473 8.56422 4.84551 8.56348 4.847C8.51524 4.88335 8.14258 5.8141 7.61328 5.83821H12.7441ZM5.30762 8.11555C4.85099 8.11569 4.48145 8.47514 4.48145 8.91829C4.48169 9.3613 4.85114 9.71991 5.30762 9.72004C5.76421 9.72004 6.13354 9.3596 6.13379 8.91829C6.13379 8.47506 5.76437 8.11555 5.30762 8.11555ZM10.6357 8.11555C10.179 8.11555 9.80957 8.47506 9.80957 8.91829C9.80982 9.36138 10.1791 9.72004 10.6357 9.72004C11.0922 9.71983 11.4617 9.35947 11.4619 8.91829C11.4619 8.47519 11.0923 8.11577 10.6357 8.11555Z" fill="white"/>
</svg>
