<svg width="48" height="48" viewBox="0 0 48 48" fill="none" xmlns="http://www.w3.org/2000/svg">
    <g opacity="0.5">
        <path fill-rule="evenodd" clip-rule="evenodd" d="M24 3.6923C12.7844 3.6923 3.69231 12.7844 3.6923 24C3.6923 35.2156 12.7844 44.3077 24 44.3077C35.2156 44.3077 44.3077 35.2156 44.3077 24C44.3077 12.7844 35.2156 3.6923 24 3.6923ZM24 -5.91284e-06C10.7452 -7.07162e-06 -5.57776e-07 10.7452 -1.71655e-06 24C-2.87532e-06 37.2548 10.7452 48 24 48C37.2548 48 48 37.2548 48 24C48 10.7452 37.2548 -4.75407e-06 24 -5.91284e-06Z" fill="#878787"/>
        <path d="M16.4117 25.0533C16.6818 25.3309 17.1195 25.3309 17.3896 25.0533L21.5948 20.731L21.5948 35.2891C21.5948 35.6815 21.9046 36 22.2864 36L25.7136 36C26.0954 36 26.4052 35.6815 26.4052 35.2891L26.4052 20.7306L30.6104 25.0529C30.8805 25.3302 31.3182 25.3302 31.5883 25.0529L33.7974 22.7823C33.927 22.649 34 22.4684 34 22.2797C34 22.0917 33.927 21.9107 33.7974 21.7774L24.4889 12.2083C24.3537 12.069 24.177 12 24 12C23.823 12 23.6463 12.069 23.5107 12.2083L14.2026 21.7774C14.073 21.9107 14 22.0917 14 22.2797C14 22.4684 14.073 22.649 14.2026 22.7823L16.4117 25.0533Z" fill="#878787"/>
    </g>
</svg>
