<svg width="48" height="191" viewBox="0 0 48 191" fill="none" xmlns="http://www.w3.org/2000/svg">
<path d="M24.4476 178.936C16.7944 178.536 8.29255 179.167 5.6352 180C-4.99419 183 1.67641 190.806 7.2296 189.5C11.4814 188.5 13.521 191 15.2017 191C22.1107 191 29.5513 189 39.1178 189.5C48.6842 190 48.3828 184.902 47.7105 184.034C46.4194 182.368 43.901 182 38.0548 180.5L37.9917 180.484C36.4474 180.087 33.8842 179.429 24.4476 178.936Z" fill="black"/>
<path d="M16.4228 47.9427C18.2434 47.4723 20.025 45.8029 20.025 43.9605C20.025 41.0247 17.9834 36.8076 16.1383 33.6597C15.8476 33.1639 15.132 33.1638 14.8413 33.6596C12.9938 36.8103 10.9481 41.0309 10.9481 43.9605C10.9481 45.7647 12.6732 47.4263 14.4887 47.9252C15.1289 48.0183 15.7797 48.0249 16.4228 47.9427Z" fill="black"/>
<path d="M44.2759 5.99728C43.8269 3.82963 42.136 2.13881 39.9679 1.68969C29.0795 -0.563308 18.9328 -0.563402 8.03309 1.69044C5.86394 2.13824 4.17227 3.82926 3.72324 5.99859C1.47156 16.8807 1.47109 27.0392 3.72418 37.9336C4.03978 39.4581 4.96946 40.7462 6.24733 41.5331C6.68161 41.8005 7.25016 41.5523 7.36359 41.0551C8.35112 36.7241 11.5162 31.1542 13.8898 27.8561C14.677 26.763 16.3053 26.765 17.0907 27.8568C17.1229 27.9016 17.4957 28.4218 18.0521 29.273C18.1627 29.4422 18.3833 29.5021 18.5634 29.4104C23.07 27.1149 28.7158 27.859 32.4765 31.6205C33.2464 32.3906 33.2463 33.6391 32.4761 34.409C31.7061 35.1788 30.4577 35.179 29.6875 34.4087C27.2531 31.9737 23.6434 31.3993 20.6536 32.7769C20.4466 32.8722 20.3663 33.1253 20.4749 33.3256C22.0438 36.218 23.7149 39.9419 23.9424 43.223C23.9702 43.6237 24.3009 43.9341 24.7025 43.9298C29.8025 43.8752 35.0074 43.2671 39.9673 42.2417C42.1364 41.7938 43.828 40.1028 44.277 37.9335C46.5237 27.0757 46.5336 16.917 44.2759 5.99728V5.99728ZM10.0681 9.4548C9.80401 8.39826 10.4464 7.32772 11.5029 7.06359L15.5092 6.06207C16.5659 5.79793 17.6363 6.44029 17.9004 7.49683C18.1645 8.55338 17.5222 9.62391 16.4656 9.88805L12.4593 10.8897C11.4051 11.153 10.3328 10.5138 10.0681 9.4548ZM15.4866 22.9674C13.0186 22.9674 11.0108 20.9596 11.0108 18.4916C11.0108 16.0236 13.0186 14.0157 15.4866 14.0157C17.9546 14.0157 19.9625 16.0236 19.9625 18.4916C19.9625 20.9596 17.9546 22.9674 15.4866 22.9674ZM32.5136 22.9674C30.0457 22.9674 28.0378 20.9596 28.0378 18.4916C28.0378 16.0236 30.0457 14.0157 32.5136 14.0157C34.9815 14.0157 36.9894 16.0236 36.9894 18.4916C36.9894 20.9596 34.9815 22.9674 32.5136 22.9674ZM37.9321 9.4548C37.6668 10.5161 36.5927 11.1523 35.5409 10.8896L31.5345 9.88796C30.478 9.62382 29.8356 8.55328 30.0998 7.49674C30.3639 6.44029 31.4341 5.79802 32.491 6.06197L36.4973 7.06359C37.5538 7.32772 38.1962 8.39826 37.9321 9.4548Z" fill="black"/>
<path d="M33.7589 79.4028C35.2143 79.0268 36.6386 77.6922 36.6386 76.2193C36.6386 73.8724 35.0065 70.5011 33.5315 67.9847C33.2991 67.5883 32.7271 67.5883 32.4947 67.9846C31.0177 70.5033 29.3823 73.8774 29.3823 76.2193C29.3823 77.6617 30.7614 78.99 32.2128 79.3888C32.7246 79.4632 33.2448 79.4686 33.7589 79.4028Z" fill="black"/>
<path d="M17.5266 140.778C18.7893 140.452 20.025 139.294 20.025 138.017C20.025 135.98 18.609 133.055 17.3292 130.872C17.1277 130.528 16.6314 130.528 16.4297 130.872C15.1483 133.057 13.7295 135.985 13.7295 138.017C13.7295 139.268 14.926 140.42 16.1852 140.766C16.6292 140.831 17.0805 140.836 17.5266 140.778Z" fill="black"/>
<path d="M37.3478 167.838C38.7271 167.482 40.0769 166.217 40.0769 164.821C40.0769 162.597 38.5302 159.402 37.1323 157.018C36.9121 156.642 36.37 156.642 36.1497 157.018C34.75 159.404 33.2002 162.602 33.2002 164.821C33.2002 166.188 34.5071 167.447 35.8826 167.825C36.3676 167.896 36.8606 167.901 37.3478 167.838Z" fill="black"/>
</svg>
