<svg width="28" height="20" viewBox="0 0 28 20" fill="none" xmlns="http://www.w3.org/2000/svg">
    <path fill-rule="evenodd" clip-rule="evenodd" d="M14 18C8.72077 18 3.99244 14.7893 2.08303 10C3.99244 5.21074 8.72077 2 14 2C19.2792 2 24.0075 5.21074 25.917 10C24.0076 14.7893 19.2792 18 14 18ZM14 0C7.74245 0 2.1352 3.91031 0.0467918 9.73064C-0.0155973 9.9056 -0.0155973 10.0944 0.0467918 10.2694C2.1352 16.0897 7.74245 20 14 20C20.2576 20 25.8648 16.0897 27.9532 10.2694C28.0156 10.0944 28.0156 9.9056 27.9532 9.73064C25.8647 3.91031 20.2575 0 14 0ZM10 10C10 7.79428 11.7943 6 14 6C16.2057 6 18 7.79425 18 10C18 12.2058 16.2057 14 14 14C11.7943 14 10 12.2057 10 10Z" fill="#F3F3F3"/>
</svg>
