<svg width="28" height="28" viewBox="0 0 28 28" fill="none" xmlns="http://www.w3.org/2000/svg">
    <g clip-path="url(#clip0)">
        <path d="M14 10C11.7943 10 10 11.7943 10 14C10 16.2057 11.7943 18 14 18C16.2057 18 18 16.2058 18 14C18 11.7942 16.2057 10 14 10Z" fill="#979A9B" fill-opacity="0.5"/>
        <path fill-rule="evenodd" clip-rule="evenodd" d="M2.08303 14C3.99244 18.7893 8.72077 22 14 22C19.2792 22 24.0076 18.7893 25.917 14C24.0075 9.21074 19.2792 6 14 6C8.72077 6 3.99244 9.21074 2.08303 14ZM0.0467918 13.7306C2.1352 7.91031 7.74245 4 14 4C20.2575 4 25.8647 7.91031 27.9532 13.7306C28.0156 13.9056 28.0156 14.0944 27.9532 14.2694C25.8648 20.0897 20.2576 24 14 24C7.74245 24 2.1352 20.0897 0.0467918 14.2694C-0.0155973 14.0944 -0.0155973 13.9056 0.0467918 13.7306Z" fill="#979A9B" fill-opacity="0.5"/>
    </g>
    <defs>
        <clipPath id="clip0">
            <path d="M0 0H28V28H0V0Z" fill="white"/>
        </clipPath>
    </defs>
</svg>
