<?xml version="1.0" encoding="utf-8"?>
<!-- Generator: Adobe Illustrator 24.2.3, SVG Export Plug-In . SVG Version: 6.00 Build 0)  -->
<svg version="1.1" id="Capa_1" xmlns="http://www.w3.org/2000/svg" xmlns:xlink="http://www.w3.org/1999/xlink" x="0px" y="0px"
	 viewBox="0 0 40 40" style="enable-background:new 0 0 40 40;" xml:space="preserve">
<style type="text/css">
	.st0{fill:#6D436F;}
	.st1{fill:url(#SVGID_1_);}
</style>
<g>
	<g>
		<g>
			<path class="st0" d="M30.7,14.5L30.7,14.5c-1.8,0.8-3.6,1.4-5.5,1.8c0.5,2.5,0.5,5.1,0,7.6c1.9,0.4,3.7,0.9,5.4,1.7l0.1,0
				C31.5,23.9,32,22,32,20S31.5,16.1,30.7,14.5z"/>
		</g>
		<g>
			<path class="st0" d="M16.7,25c0.7,2.1,1.8,4.1,3.3,5.9c1.5-1.8,2.6-3.8,3.3-5.9C21.1,24.7,18.9,24.7,16.7,25z"/>
		</g>
		<g>
			<path class="st0" d="M16.3,16.5c-0.5,2.3-0.5,4.8,0,7.1c2.4-0.3,4.9-0.3,7.3,0c0.5-2.3,0.5-4.8,0-7.1c-1.2,0.2-2.4,0.3-3.7,0.3
				C18.8,16.7,17.5,16.6,16.3,16.5z"/>
		</g>
		<g>
			<path class="st0" d="M23.3,15c-0.7-2.1-1.8-4.1-3.3-5.9c-1.5,1.8-2.6,3.8-3.3,5.9C18.9,15.3,21.1,15.3,23.3,15z"/>
		</g>
		<g>
			<path class="st0" d="M29.9,13.2c-2-2.9-5.2-4.8-8.8-5.2c1.8,2,3,4.3,3.7,6.7C26.5,14.4,28.2,13.9,29.9,13.2z"/>
		</g>
		<g>
			<path class="st0" d="M19,8c-3.7,0.3-6.9,2.3-8.8,5.2c1.6,0.7,3.3,1.2,5.1,1.6C15.9,12.3,17.2,10,19,8z"/>
		</g>
		<g>
			<path class="st0" d="M14.9,16.2c-1.9-0.4-3.7-0.9-5.4-1.7l-0.1,0C8.5,16.1,8,18,8,20s0.5,3.9,1.3,5.5l0.1,0
				c1.7-0.8,3.6-1.3,5.4-1.7C14.3,21.3,14.3,18.7,14.9,16.2z"/>
		</g>
		<g>
			<path class="st0" d="M10.1,26.8c2,2.9,5.2,4.8,8.8,5.2c-1.8-2-3-4.3-3.7-6.7C13.5,25.6,11.8,26.1,10.1,26.8z"/>
		</g>
		<g>
			<path class="st0" d="M21,32c3.7-0.3,6.9-2.3,8.8-5.2c-1.6-0.7-3.3-1.2-5.1-1.6C24.1,27.7,22.8,30,21,32z"/>
		</g>
	</g>
</g>
<g>
	<linearGradient id="SVGID_1_" gradientUnits="userSpaceOnUse" x1="34.4006" y1="34.4006" x2="6.1163" y2="6.1163">
		<stop  offset="0" style="stop-color:#99517E"/>
		<stop  offset="1" style="stop-color:#533A67"/>
	</linearGradient>
	<path class="st1" d="M20,0C9,0,0,9,0,20s9,20,20,20s20-9,20-20S31,0,20,0z M20,36c-8.8,0-16-7.2-16-16S11.2,4,20,4s16,7.2,16,16
		S28.8,36,20,36z"/>
</g>
</svg>
