<svg width="16" height="16" viewBox="0 0 16 16" fill="none" xmlns="http://www.w3.org/2000/svg">
    <path d="M3.075 16C2.925 16 2.8 15.9501 2.7 15.8502C2.6 15.7504 2.55833 15.6256 2.575 15.4758L3.025 12.4555H0.55C0.383333 12.4555 0.25 12.4056 0.15 12.3058C0.0500001 12.2059 0 12.0728 0 11.9064V11.0577C0 10.8913 0.0500001 10.7582 0.15 10.6583C0.25 10.5585 0.383333 10.5086 0.55 10.5086H3.325L3.975 6.11544H1.2C1.03333 6.11544 0.9 6.06552 0.8 5.96568C0.7 5.86583 0.65 5.73271 0.65 5.5663V4.71763C0.65 4.55122 0.7 4.41809 0.8 4.31825C0.9 4.21841 1.03333 4.16849 1.2 4.16849H4.275L4.725 1.1482C4.75833 0.998439 4.81667 0.873634 4.9 0.773789C5 0.673945 5.125 0.624023 5.275 0.624023H6.2C6.35 0.624023 6.475 0.673945 6.575 0.773789C6.675 0.873634 6.71667 0.998439 6.7 1.1482L6.25 4.16849H9.95L10.4 1.1482C10.4333 0.998439 10.4917 0.873634 10.575 0.773789C10.675 0.673945 10.8 0.624023 10.95 0.624023H11.875C12.025 0.624023 12.15 0.673945 12.25 0.773789C12.35 0.873634 12.3917 0.998439 12.375 1.1482L11.925 4.16849H14.35C14.5167 4.16849 14.65 4.21841 14.75 4.31825C14.8667 4.41809 14.925 4.55122 14.925 4.71763V5.5663C14.925 5.73271 14.8667 5.86583 14.75 5.96568C14.65 6.06552 14.5167 6.11544 14.35 6.11544H11.65L11 10.5086H13.7C13.8667 10.5086 14 10.5585 14.1 10.6583C14.2167 10.7582 14.275 10.8913 14.275 11.0577V11.9064C14.275 12.0728 14.2167 12.2059 14.1 12.3058C14 12.4056 13.8667 12.4555 13.7 12.4555H10.7L10.25 15.4758C10.2167 15.6256 10.15 15.7504 10.05 15.8502C9.95 15.9501 9.825 16 9.675 16H8.75C8.6 16 8.475 15.9501 8.375 15.8502C8.275 15.7504 8.23333 15.6256 8.25 15.4758L8.7 12.4555H5.025L4.575 15.4758C4.54167 15.6256 4.475 15.7504 4.375 15.8502C4.275 15.9501 4.15 16 4 16H3.075ZM9 10.5086L9.65 6.11544H5.975L5.325 10.5086H9Z" fill="#F3F3F3"/>
</svg>
