<svg width="16" height="16" viewBox="0 0 16 16" fill="none" xmlns="http://www.w3.org/2000/svg">
    <path d="M4.28065 9.19456C4.28065 8.36568 4.55419 7.60033 5.01441 6.98163C4.53247 6.54847 3.89741 6.28271 3.19866 6.28271C1.69614 6.28271 0.478027 7.50099 0.478027 9.00334C0.478027 9.00334 1.11812 14.7198 3.19866 14.7198C4.00274 14.7198 4.59097 13.8651 5.011 12.8175C4.52081 11.2046 4.32262 9.59466 4.28373 9.2482L4.28065 9.19456Z" fill="white"/>
    <path d="M3.19843 6.08549C4.10865 6.08549 4.90042 5.57909 5.3083 4.83302C4.90107 4.27995 4.65913 3.59837 4.65913 2.86041C4.65913 2.52561 4.70985 2.20249 4.80206 1.89735C4.37668 1.51524 3.81551 1.28027 3.19843 1.28027C1.87158 1.28027 0.795898 2.35611 0.795898 3.68296C0.795898 5.00965 1.87158 6.08549 3.19843 6.08549Z" fill="white"/>
    <path d="M12.8011 6.28271C12.1024 6.28271 11.4674 6.54847 10.9854 6.98163C11.4459 7.60033 11.7191 8.36568 11.7191 9.19456L11.716 9.24804C11.6771 9.59482 11.4789 11.2044 10.9888 12.8173C11.4088 13.865 11.997 14.7196 12.8011 14.7196C14.8816 14.7196 15.5217 9.00318 15.5217 9.00318C15.5217 7.50099 14.3036 6.28271 12.8011 6.28271Z" fill="white"/>
    <path d="M10.6914 4.83302C11.0993 5.57909 11.8907 6.08549 12.8013 6.08549C14.1281 6.08549 15.2038 5.00965 15.2038 3.68296C15.2038 2.35611 14.128 1.28027 12.8013 1.28027C12.184 1.28027 11.623 1.51508 11.1976 1.89735C11.2897 2.20265 11.3407 2.52561 11.3407 2.86041C11.3404 3.59837 11.0985 4.27995 10.6914 4.83302Z" fill="white"/>
    <path d="M7.99976 5.95532C6.21091 5.95532 4.76074 7.40549 4.76074 9.19434C4.76074 9.19434 5.52302 15.9999 7.99976 15.9999C10.4765 15.9999 11.2386 9.19434 11.2386 9.19434C11.2386 7.40549 9.78861 5.95532 7.99976 5.95532Z" fill="white"/>
    <path d="M7.99996 5.72063C9.57967 5.72063 10.8603 4.44002 10.8603 2.86031C10.8603 1.28061 9.57967 0 7.99996 0C6.42026 0 5.13965 1.28061 5.13965 2.86031C5.13965 4.44002 6.42026 5.72063 7.99996 5.72063Z" fill="white"/>
</svg>
