<svg width="20" height="20" viewBox="0 0 20 20" fill="none" xmlns="http://www.w3.org/2000/svg">
    <g opacity="0.5">
        <path fill-rule="evenodd" clip-rule="evenodd" d="M15.25 8.125C15.25 11.5077 12.5077 14.25 9.125 14.25C5.74226 14.25 3 11.5077 3 8.125C3 4.74226 5.74226 2 9.125 2C12.5077 2 15.25 4.74226 15.25 8.125ZM13.783 14.783C12.4641 15.7075 10.8579 16.25 9.125 16.25C4.63769 16.25 1 12.6123 1 8.125C1 3.63769 4.63769 0 9.125 0C13.6123 0 17.25 3.63769 17.25 8.125C17.25 10.1578 16.5035 12.0163 15.2696 13.4412L19.6624 17.834L18.2482 19.2482L13.783 14.783Z" fill="#303030"/>
    </g>
</svg>
