<svg width="26" height="26" viewBox="0 0 26 26" fill="none" xmlns="http://www.w3.org/2000/svg">
    <path fill-rule="evenodd" clip-rule="evenodd" d="M4 4.58813C1.79086 4.58813 0 6.379 0 8.58814V17.4117C0 19.6208 1.79086 21.4117 4 21.4117H22C24.2091 21.4117 26 19.6208 26 17.4117V8.58813C26 6.379 24.2091 4.58813 22 4.58813H4ZM3.70778 10.0538V16.0587H7.64258V14.7485H5.33017V10.0538H3.70778ZM9.02428 10.0538V16.0587H10.6549V10.0538H9.02428ZM15.7496 10.0538H17.565L15.5976 16.0587H13.6877L11.7285 10.0538H13.5522L14.3695 13.0974C14.5393 13.7737 14.6324 14.2447 14.6488 14.5103C14.668 14.3186 14.7063 14.079 14.7638 13.7915C14.8213 13.504 14.872 13.2781 14.9158 13.1138L15.7496 10.0538ZM18.6387 16.0587H22.2038V14.7362H20.2611V13.6026H22.0601V12.3005H20.2611V11.3559H22.2038V10.0538H18.6387V16.0587Z" fill="#ffffff"/>
</svg>
