<svg width="12" height="16" viewBox="0 0 12 16" fill="none" xmlns="http://www.w3.org/2000/svg">
    <path d="M5.99985 0C2.75213 0 0.109619 2.64251 0.109619 5.89056C0.109619 6.73777 0.283025 7.54667 0.62476 8.29499C2.09748 11.5176 4.9211 14.9201 5.75161 15.886C5.81384 15.9582 5.90455 15.9998 6.00001 15.9998C6.09548 15.9998 6.18619 15.9582 6.24841 15.886C7.0786 14.9203 9.90222 11.518 11.3754 8.29499C11.7173 7.54667 11.8906 6.73777 11.8906 5.89056C11.8902 2.64251 9.24773 0 5.99985 0ZM5.99985 8.95013C4.31279 8.95013 2.94011 7.57746 2.94011 5.89039C2.94011 4.20317 4.31279 2.83049 5.99985 2.83049C7.68691 2.83049 9.05959 4.20317 9.05959 5.89039C9.05975 7.57746 7.68708 8.95013 5.99985 8.95013Z" fill="#F3F3F3"/>
</svg>
