<svg width="16" height="16" viewBox="0 0 16 16" fill="none" xmlns="http://www.w3.org/2000/svg">
    <path fill-rule="evenodd" clip-rule="evenodd" d="M11.0416 6.5C11.0416 8.97926 9.02359 11 6.5208 11C4.018 11 2 8.97926 2 6.5C2 4.02074 4.018 2 6.5208 2C9.02359 2 11.0416 4.02074 11.0416 6.5ZM10.4342 11.6998C9.34419 12.5162 7.98917 13 6.5208 13C2.91946 13 0 10.0899 0 6.5C0 2.91015 2.91946 0 6.5208 0C10.1221 0 13.0416 2.91015 13.0416 6.5C13.0416 7.90562 12.594 9.20703 11.8331 10.2703L15.3007 13.7379C15.496 13.9332 15.496 14.2498 15.3007 14.4451L14.5936 15.1522C14.3984 15.3474 14.0818 15.3474 13.8865 15.1522L10.4342 11.6998Z" fill="white"/>
</svg>
