<svg width="26" height="26" viewBox="0 0 26 26" fill="none" xmlns="http://www.w3.org/2000/svg">
    <path fill-rule="evenodd" clip-rule="evenodd" d="M22.9412 13C22.9412 16.3786 20.2022 19.1176 16.8235 19.1176C16.0383 19.1176 15.2876 18.9697 14.5978 18.7001C14.5456 18.6797 14.4937 18.6586 14.4423 18.6368C13.5241 18.2485 12.7205 17.6424 12.0961 16.8832C11.2274 15.8269 10.7059 14.4743 10.7059 13C10.7059 11.5256 11.2274 10.173 12.0961 9.11672C12.0984 9.114 12.1006 9.11128 12.1029 9.10856C12.7613 8.31071 13.6181 7.68263 14.5978 7.29981C15.2876 7.03026 16.0383 6.88231 16.8235 6.88231C20.2022 6.88231 22.9412 9.62127 22.9412 13ZM26 13C26 18.068 21.8916 22.1764 16.8235 22.1764C11.7555 22.1764 7.64706 18.068 7.64706 13C7.64706 7.93193 11.7555 3.82349 16.8235 3.82349C21.8916 3.82349 26 7.93193 26 13ZM13.0699 15.6392C13.6682 16.4886 14.5476 17.1258 15.5727 17.4156C16.3658 16.1322 16.8235 14.6195 16.8235 13C16.8235 11.3804 16.3658 9.86775 15.5727 8.58429C14.5476 8.87411 13.6682 9.51131 13.0699 10.3607C13.5122 11.1396 13.7647 12.0403 13.7647 13C13.7647 13.9596 13.5122 14.8603 13.0699 15.6392ZM7.5062 7.7233C4.98111 8.15354 3.05882 10.3523 3.05882 13C3.05882 15.6476 4.98111 17.8464 7.5062 18.2766C8.15414 19.4183 9.00585 20.4291 10.0119 21.2597C9.49385 21.3595 8.95891 21.4117 8.41177 21.4117C3.76608 21.4117 0 17.6456 0 13C0 8.35427 3.76608 4.58819 8.41177 4.58819C8.95891 4.58819 9.49385 4.64043 10.0119 4.74019C9.00585 5.5708 8.15414 6.58165 7.5062 7.7233Z" fill="#ffffff"/>
</svg>
