<svg width="16" height="16" viewBox="0 0 16 16" fill="none" xmlns="http://www.w3.org/2000/svg">
    <path d="M0.341624 16L15.6582 16C15.8469 16 16 15.8582 16 15.6834L16 6.31662C16 6.14185 15.8469 6 15.6582 6L14.3418 6C14.1531 6 14 6.14185 14 6.31662L14 14L2 14L2 6.31662C2 6.14184 1.84688 6 1.6582 6L0.341796 6C0.153124 6 8.61827e-07 6.14184 8.46548e-07 6.31662L2.76794e-08 15.6834C-0.000171649 15.8582 0.152781 16 0.341624 16Z" fill="white"/>
    <path d="M4.37765 6.0609C4.50655 6.1898 4.71551 6.1898 4.84441 6.0609L6.85173 4.05391L6.85173 11.7424C6.85173 11.9246 6.99962 12.0725 7.18183 12.0725L8.8178 12.0725C9.00001 12.0725 9.14789 11.9246 9.14789 11.7424L9.14789 4.05374L11.1552 6.06074C11.2841 6.18947 11.4931 6.18947 11.622 6.06074L12.6765 5.0064C12.7384 4.94451 12.7732 4.86067 12.7732 4.77303C12.7732 4.68571 12.7384 4.60171 12.6765 4.53981L8.23319 0.0965296C8.16866 0.0318304 8.08432 -0.000189237 7.99981 -0.000189245C7.91531 -0.000189252 7.83097 0.0318304 7.76627 0.0965295L3.32315 4.53981C3.26126 4.6017 3.22644 4.68571 3.22644 4.77302C3.22644 4.86067 3.26126 4.94451 3.32315 5.0064L4.37765 6.0609Z" fill="white"/>
</svg>
