<svg width="250" height="26" viewBox="0 0 250 26" fill="none" xmlns="http://www.w3.org/2000/svg">
<path d="M117.047 10.343H116.48V12.9875H117.047C117.614 12.9875 118.181 12.7986 118.369 12.6097C118.747 12.4208 118.747 12.043 118.747 11.6653C118.747 11.2875 118.558 10.9097 118.369 10.7208C118.181 10.5319 117.803 10.343 117.047 10.343Z" fill="white"/>
<path d="M106.47 10.343C105.715 10.343 105.148 10.5319 104.581 11.0986C104.204 11.6653 104.015 12.4208 104.015 13.5542C104.015 14.6875 104.204 15.4431 104.581 16.0098C104.959 16.5765 105.526 16.7653 106.281 16.7653C107.792 16.7653 108.737 15.632 108.737 13.5542C108.737 11.2875 107.981 10.343 106.47 10.343Z" fill="white"/>
<path d="M117.992 4.10938H97.2141C91.9252 4.10938 87.7695 8.45389 87.7695 13.554C87.7695 18.843 92.1141 22.9986 97.2141 22.9986H117.992C123.281 22.9986 127.437 18.6541 127.437 13.554C127.437 8.265 123.281 4.10938 117.992 4.10938ZM98.9142 10.3428H95.5141V12.7984H98.7253V14.4984H95.5141V18.2763H93.6252V8.83168H99.1031V10.3428H98.9142ZM109.681 17.1429C108.925 17.8985 107.792 18.4652 106.281 18.4652C104.77 18.4652 103.636 18.0874 102.881 17.1429C102.125 16.3874 101.748 15.0651 101.748 13.554C101.748 12.0428 102.125 10.7206 102.881 9.96503C103.636 9.20946 104.77 8.64279 106.281 8.64279C107.792 8.64279 108.925 9.02057 109.681 9.96503C110.437 10.7206 110.814 12.0428 110.814 13.554C110.814 15.0651 110.437 16.1985 109.681 17.1429ZM119.881 18.2763L117.614 14.6873H116.481V18.2763H114.403V8.83168H117.237C118.559 8.83168 119.503 9.02057 120.07 9.58725C120.637 9.96503 121.015 10.7206 121.015 11.6651C121.015 12.2317 120.826 12.7984 120.637 13.1762C120.259 13.554 119.881 13.9318 119.315 14.1207C120.826 16.1985 121.581 17.5207 122.148 18.2763H119.881Z" fill="white"/>
<path d="M13.5143 16.2811C13.5143 17.7718 12.9685 18.9414 11.877 19.79C10.7855 20.6386 9.2798 21.0628 7.35996 21.0628C5.44011 21.0628 3.86863 20.7685 2.64551 20.1799V17.5883C3.41964 17.9476 4.24022 18.2305 5.10724 18.4369C5.98201 18.6433 6.79484 18.7465 7.54575 18.7465C8.64501 18.7465 9.45398 18.5401 9.97265 18.1273C10.4991 17.7144 10.7623 17.1602 10.7623 16.4645C10.7623 15.8377 10.5223 15.3063 10.0423 14.8706C9.56236 14.4348 8.57147 13.9188 7.06966 13.3225C5.5214 12.7033 4.42988 11.9962 3.79509 11.2011C3.1603 10.4061 2.84291 9.45048 2.84291 8.33435C2.84291 6.93536 3.34609 5.83452 4.35246 5.03182C5.35883 4.22912 6.70969 3.82777 8.40503 3.82777C10.0307 3.82777 11.6486 4.17943 13.2588 4.88275L12.3763 7.11883C10.8668 6.49196 9.51978 6.17853 8.33536 6.17853C7.43737 6.17853 6.75614 6.37347 6.29166 6.76335C5.82718 7.14559 5.59494 7.65396 5.59494 8.28848C5.59494 8.72423 5.68784 9.09882 5.87363 9.41225C6.05942 9.71804 6.3652 10.0085 6.79097 10.2838C7.21674 10.559 7.98313 10.9221 9.09014 11.3731C10.3365 11.8853 11.25 12.3631 11.8306 12.8065C12.4112 13.2499 12.8369 13.7506 13.1079 14.3087C13.3788 14.8668 13.5143 15.5242 13.5143 16.2811Z" fill="white"/>
<path d="M21.2943 18.8841C21.96 18.8841 22.6258 18.7809 23.2915 18.5745V20.6042C22.9896 20.7341 22.5987 20.8411 22.1187 20.9252C21.6465 21.017 21.1549 21.0628 20.644 21.0628C18.0584 21.0628 16.7656 19.7174 16.7656 17.0264V10.192H15.0122V8.99944L16.8934 8.01327L17.8223 5.32996H19.5061V8.15087H23.1638V10.192H19.5061V16.9805C19.5061 17.6303 19.6686 18.112 19.9938 18.4254C20.3266 18.7312 20.7601 18.8841 21.2943 18.8841Z" fill="white"/>
<path d="M37.2607 14.4692C37.2607 16.541 36.7227 18.1578 35.6467 19.3198C34.5706 20.4818 33.0727 21.0628 31.1528 21.0628C29.9529 21.0628 28.8924 20.7953 27.9712 20.2601C27.0499 19.725 26.3416 18.9567 25.8462 17.9553C25.3507 16.9538 25.103 15.7918 25.103 14.4692C25.103 12.4128 25.6372 10.8074 26.7055 9.65306C27.7738 8.49871 29.2794 7.92153 31.2225 7.92153C33.0804 7.92153 34.5513 8.514 35.635 9.69893C36.7188 10.8762 37.2607 12.4663 37.2607 14.4692ZM27.9131 14.4692C27.9131 17.3972 29.0085 18.8612 31.1993 18.8612C33.3668 18.8612 34.4506 17.3972 34.4506 14.4692C34.4506 11.5719 33.3591 10.1232 31.1761 10.1232C30.0303 10.1232 29.1982 10.4978 28.6795 11.247C28.1686 11.9962 27.9131 13.0703 27.9131 14.4692Z" fill="white"/>
<path d="M46.9219 7.92153C47.4715 7.92153 47.9244 7.95975 48.2805 8.0362L48.0134 10.5475C47.6263 10.4558 47.2238 10.4099 46.8057 10.4099C45.7142 10.4099 44.8278 10.7616 44.1466 11.4649C43.4731 12.1682 43.1364 13.0817 43.1364 14.2055V20.8335H40.4076V8.15087H42.5442L42.9041 10.387H43.0435C43.4692 9.63013 44.0227 9.03002 44.704 8.58662C45.3929 8.14323 46.1322 7.92153 46.9219 7.92153Z" fill="white"/>
<path d="M53.4013 20.8335H50.6725V8.15087H53.4013V20.8335ZM50.5099 4.79101C50.5099 4.30939 50.6416 3.93862 50.9048 3.6787C51.1757 3.41878 51.5589 3.28882 52.0543 3.28882C52.5343 3.28882 52.9059 3.41878 53.1691 3.6787C53.44 3.93862 53.5755 4.30939 53.5755 4.79101C53.5755 5.24969 53.44 5.61282 53.1691 5.88038C52.9059 6.14031 52.5343 6.27027 52.0543 6.27027C51.5589 6.27027 51.1757 6.14031 50.9048 5.88038C50.6416 5.61282 50.5099 5.24969 50.5099 4.79101Z" fill="white"/>
<path d="M62.9231 21.0628C60.9259 21.0628 59.3621 20.4895 58.2319 19.3428C57.1094 18.1884 56.5482 16.6021 56.5482 14.5839C56.5482 12.5122 57.0707 10.8839 58.1158 9.69893C59.1609 8.514 60.5969 7.92153 62.4238 7.92153C64.1191 7.92153 65.4584 8.42991 66.4415 9.44666C67.4247 10.4634 67.9163 11.8624 67.9163 13.6436V15.0999H59.3583C59.397 16.3307 59.7337 17.2787 60.3685 17.9438C61.0033 18.6012 61.8974 18.93 63.0508 18.93C63.8095 18.93 64.514 18.8612 65.1642 18.7235C65.8222 18.5783 66.5267 18.3413 67.2776 18.0126V20.2028C66.6118 20.5162 65.9384 20.7379 65.2571 20.8679C64.5759 20.9979 63.7979 21.0628 62.9231 21.0628ZM62.4238 9.96268C61.5568 9.96268 60.8601 10.2341 60.3337 10.7768C59.815 11.3196 59.5053 12.1108 59.4047 13.1505H65.2339C65.2184 12.1032 64.9629 11.312 64.4675 10.7768C63.9721 10.2341 63.2908 9.96268 62.4238 9.96268Z" fill="white"/>
<path d="M79.6443 17.2214C79.6443 18.4598 79.1876 19.4116 78.2741 20.0767C77.3606 20.7341 76.0524 21.0628 74.3493 21.0628C72.6384 21.0628 71.2644 20.8067 70.227 20.2945V17.9667C71.7366 18.6547 73.1416 18.9988 74.4422 18.9988C76.122 18.9988 76.962 18.498 76.962 17.4966C76.962 17.1755 76.8691 16.9079 76.6833 16.6939C76.4975 16.4798 76.1917 16.2581 75.7659 16.0288C75.3402 15.7994 74.748 15.5395 73.9893 15.249C72.5107 14.6833 71.5082 14.1176 70.9818 13.5519C70.4631 12.9862 70.2038 12.2523 70.2038 11.3502C70.2038 10.2646 70.6451 9.42372 71.5276 8.82743C72.4178 8.2235 73.6255 7.92153 75.1505 7.92153C76.6601 7.92153 78.0883 8.2235 79.4353 8.82743L78.5528 10.8571C77.1671 10.2914 76.002 10.0085 75.0576 10.0085C73.6177 10.0085 72.8978 10.4137 72.8978 11.2241C72.8978 11.6216 73.0836 11.958 73.4552 12.2332C73.8345 12.5084 74.6551 12.8868 75.9169 13.3684C76.9774 13.7736 77.7477 14.1443 78.2277 14.4807C78.7076 14.8171 79.0637 15.207 79.296 15.6504C79.5282 16.0861 79.6443 16.6098 79.6443 17.2214Z" fill="white"/>
<path d="M134.941 20.2816V3.28882H137.705V20.2816H134.941Z" fill="white"/>
<path d="M153.142 20.2816H150.413V12.378C150.413 11.3861 150.213 10.6461 149.812 10.158C149.419 9.66982 148.79 9.42574 147.927 9.42574C146.778 9.42574 145.938 9.76668 145.406 10.4486C144.874 11.1304 144.608 12.2734 144.608 13.8773V20.2816H141.891V7.42659H144.019L144.4 9.11192H144.539C144.924 8.49977 145.472 8.02711 146.181 7.69392C146.89 7.36073 147.676 7.19413 148.54 7.19413C151.608 7.19413 153.142 8.76323 153.142 11.9014V20.2816Z" fill="white"/>
<path d="M165.515 16.6203C165.515 17.8756 165.06 18.8403 164.15 19.5145C163.241 20.1808 161.938 20.514 160.242 20.514C158.538 20.514 157.17 20.2545 156.137 19.7353V17.3758C157.64 18.0732 159.039 18.4219 160.334 18.4219C162.007 18.4219 162.844 17.9144 162.844 16.8993C162.844 16.5739 162.751 16.3026 162.566 16.0857C162.381 15.8687 162.077 15.644 161.653 15.4116C161.229 15.1791 160.639 14.9156 159.883 14.6212C158.411 14.0478 157.413 13.4744 156.889 12.901C156.372 12.3276 156.114 11.5837 156.114 10.6694C156.114 9.56909 156.553 8.71674 157.432 8.11234C158.319 7.5002 159.521 7.19413 161.04 7.19413C162.543 7.19413 163.965 7.5002 165.307 8.11234L164.428 10.1696C163.048 9.59621 161.888 9.30951 160.947 9.30951C159.513 9.30951 158.797 9.72018 158.797 10.5415C158.797 10.9445 158.982 11.2854 159.352 11.5644C159.729 11.8433 160.546 12.2269 161.803 12.715C162.859 13.1257 163.626 13.5015 164.104 13.8425C164.582 14.1834 164.937 14.5786 165.168 15.028C165.399 15.4697 165.515 16.0005 165.515 16.6203Z" fill="white"/>
<path d="M173.228 18.3057C173.89 18.3057 174.553 18.2011 175.216 17.9919V20.0491C174.916 20.1808 174.526 20.2893 174.049 20.3746C173.578 20.4675 173.089 20.514 172.58 20.514C170.005 20.514 168.718 19.1503 168.718 16.4228V9.49547H166.972V8.28669L168.845 7.28711L169.77 4.56734H171.447V7.42659H175.089V9.49547H171.447V16.3763C171.447 17.0349 171.609 17.5231 171.932 17.8408C172.264 18.1507 172.696 18.3057 173.228 18.3057Z" fill="white"/>
<path d="M185.785 20.2816L185.242 18.4916H185.149C184.533 19.2743 183.912 19.8089 183.288 20.0956C182.663 20.3746 181.861 20.514 180.882 20.514C179.626 20.514 178.643 20.1731 177.934 19.4912C177.232 18.8093 176.882 17.8446 176.882 16.5971C176.882 15.2721 177.371 14.2725 178.35 13.5984C179.329 12.9242 180.821 12.5562 182.825 12.4942L185.034 12.4245V11.7387C185.034 10.9173 184.841 10.3052 184.455 9.90228C184.078 9.4916 183.488 9.28626 182.686 9.28626C182.031 9.28626 181.403 9.38312 180.801 9.57683C180.2 9.77055 179.622 9.99914 179.067 10.2626L178.188 8.30993C178.882 7.94575 179.641 7.67067 180.466 7.4847C181.291 7.29099 182.07 7.19413 182.802 7.19413C184.428 7.19413 185.654 7.55057 186.479 8.26344C187.312 8.97632 187.728 10.096 187.728 11.6225V20.2816H185.785ZM181.738 18.4219C182.725 18.4219 183.515 18.1468 184.109 17.5967C184.71 17.0388 185.011 16.26 185.011 15.2605V14.1447L183.369 14.2144C182.089 14.2609 181.156 14.4778 180.57 14.8653C179.992 15.245 179.703 15.83 179.703 16.6203C179.703 17.1937 179.873 17.6393 180.212 17.957C180.551 18.2669 181.06 18.4219 181.738 18.4219Z" fill="white"/>
<path d="M202.321 7.42659V8.92595L200.135 9.33275C200.336 9.60396 200.501 9.93715 200.633 10.3323C200.764 10.7275 200.829 11.1459 200.829 11.5876C200.829 12.9126 200.374 13.9548 199.465 14.7142C198.555 15.4735 197.302 15.8532 195.707 15.8532C195.298 15.8532 194.928 15.8222 194.596 15.7602C194.011 16.1244 193.718 16.5506 193.718 17.0388C193.718 17.3332 193.853 17.5541 194.122 17.7013C194.4 17.8485 194.905 17.9221 195.637 17.9221H197.869C199.28 17.9221 200.351 18.2243 201.084 18.8287C201.816 19.4331 202.182 20.3048 202.182 21.4439C202.182 22.9006 201.585 24.0242 200.39 24.8145C199.195 25.6049 197.468 26.0001 195.209 26.0001C193.467 26.0001 192.137 25.6901 191.22 25.0702C190.303 24.4503 189.844 23.567 189.844 22.4202C189.844 21.6298 190.091 20.9635 190.584 20.421C191.085 19.8864 191.783 19.5145 192.677 19.3052C192.315 19.1503 192.014 18.9023 191.775 18.5614C191.544 18.2127 191.428 17.8485 191.428 17.4688C191.428 16.9884 191.563 16.5816 191.833 16.2484C192.103 15.9152 192.504 15.5859 193.035 15.2605C192.372 14.9738 191.833 14.5088 191.417 13.8657C191.008 13.2148 190.804 12.4555 190.804 11.5876C190.804 10.1929 191.239 9.11192 192.11 8.3448C192.989 7.57769 194.238 7.19413 195.857 7.19413C196.219 7.19413 196.597 7.22125 196.99 7.27549C197.391 7.32198 197.692 7.37235 197.892 7.42659H202.321ZM192.272 22.2807C192.272 22.8696 192.534 23.3229 193.059 23.6406C193.59 23.9583 194.334 24.1171 195.29 24.1171C196.77 24.1171 197.873 23.9041 198.597 23.4779C199.322 23.0517 199.684 22.4861 199.684 21.7809C199.684 21.223 199.484 20.824 199.083 20.5838C198.69 20.3513 197.954 20.2351 196.874 20.2351H194.816C194.038 20.2351 193.417 20.4172 192.955 20.7814C192.5 21.1533 192.272 21.6531 192.272 22.2807ZM193.44 11.5876C193.44 12.3935 193.644 13.0134 194.053 13.4473C194.469 13.8812 195.063 14.0982 195.834 14.0982C197.406 14.0982 198.193 13.2536 198.193 11.5644C198.193 10.7275 197.996 10.0844 197.603 9.63495C197.218 9.17778 196.628 8.9492 195.834 8.9492C195.047 8.9492 194.45 9.17391 194.041 9.62333C193.641 10.0727 193.44 10.7275 193.44 11.5876Z" fill="white"/>
<path d="M211.19 7.19413C211.737 7.19413 212.188 7.23287 212.543 7.31036L212.277 9.85579C211.891 9.7628 211.49 9.71631 211.074 9.71631C209.987 9.71631 209.105 10.0727 208.426 10.7856C207.756 11.4985 207.42 12.4245 207.42 13.5635V20.2816H204.703V7.42659H206.83L207.189 9.69306H207.328C207.752 8.92595 208.303 8.31768 208.981 7.86826C209.667 7.41884 210.404 7.19413 211.19 7.19413Z" fill="white"/>
<path d="M222.927 20.2816L222.383 18.4916H222.291C221.674 19.2743 221.053 19.8089 220.429 20.0956C219.805 20.3746 219.003 20.514 218.024 20.514C216.767 20.514 215.784 20.1731 215.075 19.4912C214.374 18.8093 214.023 17.8446 214.023 16.5971C214.023 15.2721 214.512 14.2725 215.491 13.5984C216.47 12.9242 217.962 12.5562 219.966 12.4942L222.175 12.4245V11.7387C222.175 10.9173 221.982 10.3052 221.597 9.90228C221.219 9.4916 220.629 9.28626 219.828 9.28626C219.172 9.28626 218.544 9.38312 217.943 9.57683C217.342 9.77055 216.763 9.99914 216.208 10.2626L215.33 8.30993C216.023 7.94575 216.783 7.67067 217.607 7.4847C218.432 7.29099 219.211 7.19413 219.943 7.19413C221.57 7.19413 222.796 7.55057 223.62 8.26344C224.453 8.97632 224.869 10.096 224.869 11.6225V20.2816H222.927ZM218.879 18.4219C219.866 18.4219 220.656 18.1468 221.25 17.5967C221.851 17.0388 222.152 16.26 222.152 15.2605V14.1447L220.51 14.2144C219.23 14.2609 218.297 14.4778 217.712 14.8653C217.133 15.245 216.844 15.83 216.844 16.6203C216.844 17.1937 217.014 17.6393 217.353 17.957C217.692 18.2669 218.201 18.4219 218.879 18.4219Z" fill="white"/>
<path d="M239.439 20.2816H236.71V12.3547C236.71 11.3706 236.525 10.6384 236.155 10.158C235.785 9.66982 235.207 9.42574 234.421 9.42574C233.372 9.42574 232.601 9.77055 232.108 10.4602C231.622 11.1421 231.379 12.2811 231.379 13.8773V20.2816H228.662V7.42659H230.79L231.171 9.11192H231.31C231.665 8.49977 232.177 8.02711 232.848 7.69392C233.526 7.36073 234.27 7.19413 235.08 7.19413C237.045 7.19413 238.348 7.86826 238.988 9.21652H239.173C239.551 8.58114 240.083 8.08522 240.769 7.72879C241.455 7.37235 242.241 7.19413 243.128 7.19413C244.654 7.19413 245.764 7.58156 246.458 8.35642C247.159 9.13129 247.51 10.313 247.51 11.9014V20.2816H244.793V12.3547C244.793 11.3706 244.604 10.6384 244.226 10.158C243.856 9.66982 243.278 9.42574 242.492 9.42574C241.436 9.42574 240.661 9.75893 240.167 10.4253C239.682 11.0839 239.439 12.099 239.439 13.4705V20.2816Z" fill="white"/>
</svg>
