<svg width="16" height="16" viewBox="0 0 16 16" fill="none" xmlns="http://www.w3.org/2000/svg">
    <path d="M8.00005 2.54224C4.99051 2.54224 2.54199 4.99071 2.54199 8.00027C2.54199 11.0098 4.99047 13.4583 8.00005 13.4583C11.0096 13.4583 13.4581 11.0098 13.4581 8.00027C13.4581 4.99067 11.0096 2.54224 8.00005 2.54224Z" fill="white"/>
    <path d="M7.16846 3.06606H8.83151C8.96306 3.06606 9.07611 3.01113 9.14165 2.91539C9.20722 2.81966 9.21747 2.6944 9.16986 2.57171L8.25486 0.215843C8.18194 0.0280261 8.06388 0 7.99998 0C7.93609 0 7.81802 0.0280522 7.74511 0.215817L6.83008 2.57173C6.78247 2.6944 6.79277 2.81963 6.85829 2.91539C6.92383 3.01116 7.0369 3.06606 7.16846 3.06606Z" fill="white"/>
    <path d="M8.83148 12.9336H7.16843C7.03688 12.9336 6.92381 12.9885 6.85829 13.0843C6.79277 13.1801 6.78247 13.3053 6.83008 13.428L7.74508 15.7839C7.818 15.9717 7.93606 15.9997 7.99996 15.9997C8.06385 15.9997 8.18192 15.9717 8.25483 15.7839L9.16983 13.4279C9.21744 13.3053 9.20719 13.1801 9.14163 13.0843C9.07608 12.9885 8.96304 12.9336 8.83148 12.9336Z" fill="white"/>
    <path d="M3.33447 4.98894C3.39753 5.13213 3.51821 5.21759 3.6573 5.21759C3.75256 5.21759 3.84702 5.17555 3.92328 5.09926L5.09926 3.92331C5.19227 3.83029 5.23337 3.7115 5.21199 3.59741C5.19058 3.48337 5.10929 3.38752 4.98893 3.3345L2.67607 2.3156C2.61769 2.2899 2.56271 2.27686 2.51267 2.27686C2.42898 2.27686 2.35688 2.31385 2.31482 2.37835C2.27934 2.43275 2.25066 2.52859 2.31563 2.6761L3.33447 4.98894Z" fill="white"/>
    <path d="M12.6658 11.0109C12.6028 10.8677 12.4821 10.7822 12.343 10.7822C12.2477 10.7822 12.1533 10.8243 12.077 10.9006L10.901 12.0765C10.808 12.1696 10.7669 12.2884 10.7883 12.4024C10.8096 12.5165 10.891 12.6123 11.0113 12.6653L13.3242 13.6842C13.3825 13.7099 13.4375 13.723 13.4876 13.723C13.5713 13.723 13.6434 13.6859 13.6854 13.6215C13.7209 13.567 13.7496 13.4712 13.6846 13.3237L12.6658 11.0109Z" fill="white"/>
    <path d="M12.0767 5.09923C12.1529 5.17552 12.2474 5.21756 12.3427 5.21756C12.4818 5.21756 12.6024 5.13209 12.6655 4.9889L13.6844 2.6761C13.7494 2.52857 13.7207 2.43275 13.6852 2.37835C13.6432 2.31385 13.5711 2.27686 13.4874 2.27686C13.4373 2.27686 13.3823 2.2899 13.3239 2.31563L11.0111 3.33445C10.8907 3.38749 10.8094 3.48331 10.788 3.59738C10.7666 3.71144 10.8077 3.83026 10.9007 3.92328L12.0767 5.09923Z" fill="white"/>
    <path d="M3.92335 10.9006C3.84706 10.8243 3.75258 10.7822 3.65729 10.7822C3.51823 10.7822 3.39757 10.8677 3.33452 11.0109L2.31564 13.3237C2.25065 13.4712 2.27933 13.567 2.31483 13.6215C2.3569 13.6859 2.42903 13.723 2.51269 13.723C2.56273 13.723 2.61771 13.7099 2.67611 13.6842L4.98894 12.6653C5.10931 12.6123 5.19064 12.5164 5.212 12.4024C5.23338 12.2883 5.19231 12.1695 5.09927 12.0765L3.92335 10.9006Z" fill="white"/>
    <path d="M15.7841 7.74496L13.4282 6.83002C13.3774 6.81028 13.3264 6.80029 13.2764 6.80029C13.0779 6.80029 12.9338 6.95509 12.9338 7.16835L12.9339 8.83145C12.9339 9.04471 13.0779 9.19951 13.2765 9.19951C13.3264 9.19951 13.3775 9.18952 13.4282 9.16981L15.7841 8.25479C15.9719 8.18185 15.9999 8.06378 15.9999 7.99986C15.9999 7.93599 15.9718 7.81787 15.7841 7.74496Z" fill="white"/>
    <path d="M2.72347 9.19948C2.92201 9.19948 3.06611 9.04468 3.06611 8.83143V7.16834C3.06611 6.95509 2.92203 6.80029 2.72347 6.80029C2.67349 6.80029 2.62245 6.81028 2.57171 6.82999L0.215817 7.74497C0.0280522 7.81789 0 7.93595 0 7.99987C0 8.06377 0.0280261 8.18183 0.215817 8.25483L2.57166 9.16975C2.62243 9.18947 2.67349 9.19948 2.72347 9.19948Z" fill="white"/>
</svg>
