<svg width="14" height="16" viewBox="0 0 14 16" fill="none" xmlns="http://www.w3.org/2000/svg">
    <path d="M13.6986 13.4914C10.7194 13.4429 8.29571 10.9796 8.29571 8C8.29571 5.02042 10.7196 2.55714 13.6988 2.50876C13.7491 2.50812 13.7942 2.47705 13.8128 2.43018C13.8314 2.38331 13.8204 2.32987 13.7843 2.29463C12.2786 0.814945 10.2875 0 8.17822 0C3.76696 0 0.178223 3.58874 0.178223 8C0.178223 12.4114 3.76696 16 8.17822 16C10.2875 16 12.2786 15.1851 13.7843 13.7052C13.8203 13.67 13.8314 13.6166 13.8128 13.5698C13.794 13.523 13.7491 13.492 13.6986 13.4914Z" fill="#F3F3F3"/>
</svg>
