<svg width="210" height="67" viewBox="0 0 210 67" fill="none" xmlns="http://www.w3.org/2000/svg">
<path d="M75.032 28.16H71.032L70.424 30H67.128L71.24 18.72H74.856L78.952 30H75.64L75.032 28.16ZM74.248 25.76L73.032 22.112L71.832 25.76H74.248ZM95.8621 18.72L93.0941 30H89.2381L87.6861 23.088L86.1021 30H82.2461L79.5101 18.72H82.9021L84.2141 26.432L85.9901 18.72H89.4301L91.1581 26.368L92.4701 18.72H95.8621ZM100.329 21.232V23.072H103.929V25.456H100.329V27.488H104.409V30H97.1929V18.72H104.409V21.232H100.329ZM110.215 30.112C108.903 30.112 107.825 29.8027 106.983 29.184C106.14 28.5547 105.687 27.6587 105.623 26.496H108.967C108.999 26.8907 109.116 27.1787 109.319 27.36C109.521 27.5413 109.783 27.632 110.103 27.632C110.391 27.632 110.625 27.5627 110.807 27.424C110.999 27.2747 111.095 27.072 111.095 26.816C111.095 26.4853 110.94 26.2293 110.631 26.048C110.321 25.8667 109.82 25.664 109.127 25.44C108.391 25.1947 107.793 24.96 107.335 24.736C106.887 24.5013 106.492 24.1653 106.151 23.728C105.82 23.28 105.655 22.6987 105.655 21.984C105.655 21.2587 105.836 20.64 106.199 20.128C106.561 19.6053 107.063 19.2107 107.703 18.944C108.343 18.6773 109.068 18.544 109.879 18.544C111.191 18.544 112.236 18.8533 113.015 19.472C113.804 20.08 114.225 20.9387 114.279 22.048H110.871C110.86 21.7067 110.753 21.4507 110.551 21.28C110.359 21.1093 110.108 21.024 109.799 21.024C109.564 21.024 109.372 21.0933 109.223 21.232C109.073 21.3707 108.999 21.568 108.999 21.824C108.999 22.0373 109.079 22.224 109.239 22.384C109.409 22.5333 109.617 22.6667 109.863 22.784C110.108 22.8907 110.471 23.0293 110.951 23.2C111.665 23.4453 112.252 23.6907 112.711 23.936C113.18 24.1707 113.58 24.5067 113.911 24.944C114.252 25.3707 114.423 25.9147 114.423 26.576C114.423 27.248 114.252 27.8507 113.911 28.384C113.58 28.9173 113.095 29.3387 112.455 29.648C111.825 29.9573 111.079 30.112 110.215 30.112ZM121.288 30.112C120.232 30.112 119.262 29.8667 118.376 29.376C117.491 28.8747 116.787 28.1867 116.264 27.312C115.752 26.4267 115.496 25.4293 115.496 24.32C115.496 23.2107 115.752 22.2187 116.264 21.344C116.787 20.4587 117.491 19.7707 118.376 19.28C119.262 18.7893 120.232 18.544 121.288 18.544C122.355 18.544 123.326 18.7893 124.2 19.28C125.086 19.7707 125.784 20.4587 126.296 21.344C126.808 22.2187 127.064 23.2107 127.064 24.32C127.064 25.4293 126.808 26.4267 126.296 27.312C125.784 28.1867 125.086 28.8747 124.2 29.376C123.315 29.8667 122.344 30.112 121.288 30.112ZM121.288 27.2C122.088 27.2 122.718 26.9387 123.176 26.416C123.646 25.8933 123.88 25.1947 123.88 24.32C123.88 23.424 123.646 22.72 123.176 22.208C122.718 21.6853 122.088 21.424 121.288 21.424C120.478 21.424 119.843 21.6853 119.384 22.208C118.926 22.72 118.696 23.424 118.696 24.32C118.696 25.2053 118.926 25.9093 119.384 26.432C119.843 26.944 120.478 27.2 121.288 27.2ZM141.642 18.72V30H138.506V23.776L136.378 30H133.754L131.61 23.728V30H128.474V18.72H132.266L135.098 26.048L137.866 18.72H141.642ZM146.563 21.232V23.072H150.163V25.456H146.563V27.488H150.643V30H143.427V18.72H150.643V21.232H146.563Z" fill="white"/>
<path d="M162.391 28.16H158.391L157.783 30H154.487L158.599 18.72H162.215L166.311 30H162.999L162.391 28.16ZM161.607 25.76L160.391 22.112L159.191 25.76H161.607ZM170.406 18.72V25.264C170.406 25.872 170.544 26.3413 170.822 26.672C171.11 27.0027 171.542 27.168 172.118 27.168C172.694 27.168 173.126 27.0027 173.414 26.672C173.712 26.3307 173.862 25.8613 173.862 25.264V18.72H176.998V25.264C176.998 26.2987 176.779 27.184 176.342 27.92C175.904 28.6453 175.307 29.1947 174.55 29.568C173.803 29.9307 172.971 30.112 172.054 30.112C171.136 30.112 170.315 29.9307 169.59 29.568C168.875 29.1947 168.31 28.6453 167.894 27.92C167.488 27.1947 167.286 26.3093 167.286 25.264V18.72H170.406ZM187.22 18.72V21.216H184.212V30H181.076V21.216H178.1V18.72H187.22ZM193.788 30.112C192.732 30.112 191.762 29.8667 190.876 29.376C189.991 28.8747 189.287 28.1867 188.764 27.312C188.252 26.4267 187.996 25.4293 187.996 24.32C187.996 23.2107 188.252 22.2187 188.764 21.344C189.287 20.4587 189.991 19.7707 190.876 19.28C191.762 18.7893 192.732 18.544 193.788 18.544C194.855 18.544 195.826 18.7893 196.7 19.28C197.586 19.7707 198.284 20.4587 198.796 21.344C199.308 22.2187 199.564 23.2107 199.564 24.32C199.564 25.4293 199.308 26.4267 198.796 27.312C198.284 28.1867 197.586 28.8747 196.7 29.376C195.815 29.8667 194.844 30.112 193.788 30.112ZM193.788 27.2C194.588 27.2 195.218 26.9387 195.676 26.416C196.146 25.8933 196.38 25.1947 196.38 24.32C196.38 23.424 196.146 22.72 195.676 22.208C195.218 21.6853 194.588 21.424 193.788 21.424C192.978 21.424 192.343 21.6853 191.884 22.208C191.426 22.72 191.196 23.424 191.196 24.32C191.196 25.2053 191.426 25.9093 191.884 26.432C192.343 26.944 192.978 27.2 193.788 27.2ZM73.608 48L71.368 43.84H71.032V48H67.896V36.72H72.84C73.7467 36.72 74.5147 36.88 75.144 37.2C75.7733 37.5093 76.248 37.9413 76.568 38.496C76.888 39.04 77.048 39.6533 77.048 40.336C77.048 41.104 76.8347 41.7813 76.408 42.368C75.992 42.944 75.3787 43.3547 74.568 43.6L77.112 48H73.608ZM71.032 41.696H72.584C73.0107 41.696 73.3307 41.5947 73.544 41.392C73.7573 41.1893 73.864 40.896 73.864 40.512C73.864 40.1493 73.752 39.8667 73.528 39.664C73.3147 39.4507 73 39.344 72.584 39.344H71.032V41.696ZM81.6101 39.232V41.072H85.2101V43.456H81.6101V45.488H85.6901V48H78.4741V36.72H85.6901V39.232H81.6101ZM94.8878 36.72V39.216H90.3758V41.2H93.7038V43.584H90.3758V48H87.2398V36.72H94.8878ZM101.921 48L99.6805 43.84H99.3445V48H96.2085V36.72H101.153C102.059 36.72 102.827 36.88 103.457 37.2C104.086 37.5093 104.561 37.9413 104.881 38.496C105.201 39.04 105.361 39.6533 105.361 40.336C105.361 41.104 105.147 41.7813 104.72 42.368C104.305 42.944 103.691 43.3547 102.881 43.6L105.425 48H101.921ZM99.3445 41.696H100.897C101.323 41.696 101.643 41.5947 101.857 41.392C102.07 41.1893 102.177 40.896 102.177 40.512C102.177 40.1493 102.065 39.8667 101.841 39.664C101.627 39.4507 101.313 39.344 100.897 39.344H99.3445V41.696ZM109.923 39.232V41.072H113.523V43.456H109.923V45.488H114.003V48H106.787V36.72H114.003V39.232H109.923ZM119.808 48.112C118.496 48.112 117.419 47.8027 116.576 47.184C115.734 46.5547 115.28 45.6587 115.216 44.496H118.56C118.592 44.8907 118.71 45.1787 118.912 45.36C119.115 45.5413 119.376 45.632 119.696 45.632C119.984 45.632 120.219 45.5627 120.4 45.424C120.592 45.2747 120.688 45.072 120.688 44.816C120.688 44.4853 120.534 44.2293 120.224 44.048C119.915 43.8667 119.414 43.664 118.72 43.44C117.984 43.1947 117.387 42.96 116.928 42.736C116.48 42.5013 116.086 42.1653 115.744 41.728C115.414 41.28 115.248 40.6987 115.248 39.984C115.248 39.2587 115.43 38.64 115.792 38.128C116.155 37.6053 116.656 37.2107 117.296 36.944C117.936 36.6773 118.662 36.544 119.472 36.544C120.784 36.544 121.83 36.8533 122.608 37.472C123.398 38.08 123.819 38.9387 123.872 40.048H120.464C120.454 39.7067 120.347 39.4507 120.144 39.28C119.952 39.1093 119.702 39.024 119.392 39.024C119.158 39.024 118.966 39.0933 118.816 39.232C118.667 39.3707 118.592 39.568 118.592 39.824C118.592 40.0373 118.672 40.224 118.832 40.384C119.003 40.5333 119.211 40.6667 119.456 40.784C119.702 40.8907 120.064 41.0293 120.544 41.2C121.259 41.4453 121.846 41.6907 122.304 41.936C122.774 42.1707 123.174 42.5067 123.504 42.944C123.846 43.3707 124.016 43.9147 124.016 44.576C124.016 45.248 123.846 45.8507 123.504 46.384C123.174 46.9173 122.688 47.3387 122.048 47.648C121.419 47.9573 120.672 48.112 119.808 48.112ZM135.57 36.72V48H132.434V43.472H128.61V48H125.474V36.72H128.61V40.96H132.434V36.72H135.57Z" fill="#FFD64B"/>
<g filter="url(#filter0_d_410_30318)">
<path fill-rule="evenodd" clip-rule="evenodd" d="M55.373 48.3183C54.5029 47.4004 53.9596 46.8627 53.0174 45.9491C54.2363 44.3827 57.4983 39.7513 58.1996 35.0272C60.152 21.8694 47.7278 15.432 37.9436 17.325L37.356 22.4995C40.3285 21.9498 42.6863 21.771 45.5774 23.0071C52.6192 26.019 54.944 35.0046 49.1526 42.2838C48.1296 41.3451 48.0095 41.1928 46.8577 40.1112C46.5117 43.3483 45.9891 46.9714 45.7639 49.6766C47.81 49.3971 52.4111 48.8009 55.373 48.3183Z" fill="url(#paint0_linear_410_30318)"/>
<path fill-rule="evenodd" clip-rule="evenodd" d="M24.2655 19.005C25.1784 19.8808 25.7467 20.3912 26.7312 21.2598C25.588 22.882 22.5709 27.0711 22.0954 31.8231C20.7729 45.0588 33.4699 51.4896 43.1525 49.1325L43.4935 43.9359C40.5496 44.6265 38.2032 44.9175 35.2571 43.8201C28.0795 41.1478 25.3292 32.2837 30.7661 24.7364C31.8327 25.6251 31.9607 25.7716 33.1624 26.7975C33.354 23.5475 33.7029 19.903 33.7987 17.1906C31.7684 17.5674 27.2009 18.3824 24.2655 19.005Z" fill="url(#paint1_linear_410_30318)"/>
<path fill-rule="evenodd" clip-rule="evenodd" d="M55.3581 48.3211C54.488 47.4032 53.9447 46.8656 53.0025 45.9519C63.4522 32.5282 55.6641 15.1424 37.3411 22.5024C40.3144 21.9526 42.6714 21.7739 45.5625 23.0099C52.6043 26.0218 54.9291 35.0075 49.1377 42.2859C48.1147 41.3479 47.9946 41.1957 46.8429 40.1133C46.4968 43.3511 45.9742 46.9742 45.7491 49.6794C47.7958 49.3999 52.3969 48.803 55.3581 48.3211V48.3211Z" fill="white"/>
<path fill-rule="evenodd" clip-rule="evenodd" d="M24.2498 18.9915C25.1628 19.8672 25.7311 20.3784 26.7155 21.2463C16.7548 33.8272 26.105 52.9945 43.4772 43.9223C40.5339 44.6137 38.1876 44.9039 35.2408 43.8073C28.0638 41.1349 25.3129 32.2701 30.7505 24.7236C31.8171 25.6115 31.9443 25.7581 33.1461 26.7839C33.3377 23.534 33.6873 19.8901 33.7831 17.1771C31.752 17.5538 27.1852 18.3688 24.2498 18.9915V18.9915Z" fill="white"/>
</g>
<defs>
<filter id="filter0_d_410_30318" x="12" y="8" width="56.4043" height="52.6794" filterUnits="userSpaceOnUse" color-interpolation-filters="sRGB">
<feFlood flood-opacity="0" result="BackgroundImageFix"/>
<feColorMatrix in="SourceAlpha" type="matrix" values="0 0 0 0 0 0 0 0 0 0 0 0 0 0 0 0 0 0 127 0" result="hardAlpha"/>
<feOffset dy="1"/>
<feGaussianBlur stdDeviation="5"/>
<feComposite in2="hardAlpha" operator="out"/>
<feColorMatrix type="matrix" values="0 0 0 0 0 0 0 0 0 0 0 0 0 0 0 0 0 0 0.25 0"/>
<feBlend mode="normal" in2="BackgroundImageFix" result="effect1_dropShadow_410_30318"/>
<feBlend mode="normal" in="SourceGraphic" in2="effect1_dropShadow_410_30318" result="shape"/>
</filter>
<linearGradient id="paint0_linear_410_30318" x1="42.9904" y1="10.9257" x2="59.7858" y2="23.3395" gradientUnits="userSpaceOnUse">
<stop stop-color="#EFA71A"/>
<stop offset="1" stop-color="#F1EB52"/>
</linearGradient>
<linearGradient id="paint1_linear_410_30318" x1="43.5042" y1="49.5586" x2="23.8296" y2="40.3514" gradientUnits="userSpaceOnUse">
<stop stop-color="#EFA71A"/>
<stop offset="1" stop-color="#F1EB52"/>
</linearGradient>
</defs>
</svg>
