<?xml version="1.0" encoding="UTF-8"?>
<svg width="48px" height="48px" viewBox="0 0 48 48" version="1.1" xmlns="http://www.w3.org/2000/svg" xmlns:xlink="http://www.w3.org/1999/xlink">
    <!-- Generator: Sketch 51.2 (57519) - http://www.bohemiancoding.com/sketch -->
    <title>Group</title>
    <desc>Created with Sketch.</desc>
    <defs></defs>
    <g id="Page-1" stroke="none" stroke-width="1" fill="none" fill-rule="evenodd">
        <g id="Group" fill="#4A5568" fill-rule="nonzero">
            <g id="7122423_vertical_3-dots_dots_icon-(1)">
                <path d="M6,12 C2.68629,12 0,9.31371 0,6 C0,2.68629 2.68629,0 6,0 C9.3138,0 12,2.68629 12,6 C12,9.31371 9.3138,12 6,12 Z" id="Shape"></path>
                <path d="M6,30 C2.68629,30 0,27.3138 0,24 C0,20.68629 2.68629,18 6,18 C9.3138,18 12,20.68629 12,24 C12,27.3138 9.3138,30 6,30 Z" id="Shape"></path>
                <path d="M6,48 C2.68629,48 0,45.3138 0,42 C0,38.6862 2.68629,36 6,36 C9.3138,36 12,38.6862 12,42 C12,45.3138 9.3138,48 6,48 Z" id="Shape"></path>
            </g>
            <g id="7122423_vertical_3-dots_dots_icon-(1)-copy" transform="translate(18.000000, 0.000000)">
                <path d="M6,12 C2.68629,12 0,9.31371 0,6 C0,2.68629 2.68629,0 6,0 C9.3138,0 12,2.68629 12,6 C12,9.31371 9.3138,12 6,12 Z" id="Shape"></path>
                <path d="M6,30 C2.68629,30 0,27.3138 0,24 C0,20.68629 2.68629,18 6,18 C9.3138,18 12,20.68629 12,24 C12,27.3138 9.3138,30 6,30 Z" id="Shape"></path>
                <path d="M6,48 C2.68629,48 0,45.3138 0,42 C0,38.6862 2.68629,36 6,36 C9.3138,36 12,38.6862 12,42 C12,45.3138 9.3138,48 6,48 Z" id="Shape"></path>
            </g>
            <g id="7122423_vertical_3-dots_dots_icon-(1)-copy-2" transform="translate(36.000000, 0.000000)">
                <path d="M6,12 C2.68629,12 0,9.31371 0,6 C0,2.68629 2.68629,0 6,0 C9.3138,0 12,2.68629 12,6 C12,9.31371 9.3138,12 6,12 Z" id="Shape"></path>
                <path d="M6,30 C2.68629,30 0,27.3138 0,24 C0,20.68629 2.68629,18 6,18 C9.3138,18 12,20.68629 12,24 C12,27.3138 9.3138,30 6,30 Z" id="Shape"></path>
                <path d="M6,48 C2.68629,48 0,45.3138 0,42 C0,38.6862 2.68629,36 6,36 C9.3138,36 12,38.6862 12,42 C12,45.3138 9.3138,48 6,48 Z" id="Shape"></path>
            </g>
        </g>
    </g>
</svg>