<?xml version="1.0" encoding="UTF-8"?>
<svg width="25px" height="24px" viewBox="0 0 25 24" version="1.1" xmlns="http://www.w3.org/2000/svg" xmlns:xlink="http://www.w3.org/1999/xlink">
    <!-- Generator: Sketch 51.2 (57519) - http://www.bohemiancoding.com/sketch -->
    <title>eyedropper</title>
    <desc>Created with Sketch.</desc>
    <defs></defs>
    <g id="Page-1" stroke="none" stroke-width="1" fill="none" fill-rule="evenodd" stroke-linecap="round" stroke-linejoin="round">
        <g id="eyedropper" transform="translate(1.000000, 0.000000)" stroke="#000000" stroke-width="2">
            <path d="M17.7050167,10.03835 L18.2904944,10.6238278 C18.4684889,10.8018222 18.6096833,11.0131667 18.7060278,11.2455944 C18.8023722,11.47815 18.85195,11.7274444 18.85195,11.9791667 C18.85195,12.2308889 18.8023722,12.4800556 18.7060278,12.7126111 C18.6096833,12.9451667 18.4684889,13.1563833 18.2904944,13.3343778 L17.4484389,14.1764333 C17.2687833,14.3562167 17.0249833,14.4571611 16.7708333,14.4571611 C16.5166833,14.4571611 16.2728833,14.3562167 16.0931,14.1764333 L8.82345167,6.90677222 C8.64373222,6.72705278 8.54276222,6.48329111 8.54276222,6.22912833 C8.54276222,5.97496556 8.64373222,5.73120389 8.82345167,5.55148444 L9.66549444,4.70941611 C9.84348889,4.53143444 10.0548333,4.39026556 10.2873889,4.29393389 C10.5198167,4.197615 10.7691111,4.14803722 11.0208333,4.14803722 C11.2725556,4.14803722 11.5217222,4.197615 11.7542778,4.29393389 C11.9868333,4.39026556 12.1981778,4.53143444 12.3760444,4.70941611 L12.9615222,5.29488111 L16.2663667,1.99004944 C17.5587111,0.697705 19.6643611,0.618546667 20.9917167,1.87497278 C21.31755,2.18301944 21.5783444,2.55326833 21.7586389,2.96383111 C21.9389333,3.37440667 22.0350222,3.81695222 22.0412833,4.26532444 C22.0476722,4.71368389 21.9639778,5.15877222 21.7953111,5.57424167 C21.6265167,5.98971111 21.3763278,6.36714111 21.0591833,6.68422167 L17.7050167,10.03835 Z" id="Shape" fill="#000000"></path>
            <path d="M15.1688833,13.2522167 L8.46055,19.96055 C7.98487167,20.43665 7.39218722,20.7790944 6.74215611,20.9532556 C6.09211222,21.1275444 5.407645,21.1275444 4.75760111,20.9532556 L1.95420778,22.1771111 C1.77767,22.2541611 1.58199111,22.2762667 1.39271389,22.2404889 C1.20344944,22.2047111 1.02935222,22.1127111 0.893141111,21.9765 C0.79534,21.8786222 0.729291667,21.7536556 0.703595556,21.6178278 C0.677899444,21.4818722 0.693743889,21.3414444 0.749084444,21.2146889 L2.04666778,18.2423222 C1.87237889,17.5923167 1.87236611,16.9078111 2.04664222,16.2578056 C2.22090556,15.6078 2.56331167,15.0150389 3.03939889,14.53945 L9.74778333,7.83106556 L15.1688833,13.2522167 Z" id="Shape"></path>
        </g>
    </g>
</svg>