<?xml version="1.0" encoding="utf-8"?>
<!-- Generator: Adobe Illustrator 21.0.0, SVG Export Plug-In . SVG Version: 6.00 Build 0)  -->
<svg version="1.1" id="Layer_1" xmlns="http://www.w3.org/2000/svg" xmlns:xlink="http://www.w3.org/1999/xlink" x="0px" y="0px"
	 viewBox="0 0 128 128" style="enable-background:new 0 0 128 128;" xml:space="preserve">
<style type="text/css">
	.st0{opacity:0.55;fill:url(#SVGID_1_);fill-opacity:0.6;}
	.st1{fill:#FFFFFF;}
	.st2{display:none;}
	.st3{display:inline;fill:#404142;}
	.st4{display:inline;fill:#232323;}
	.st5{display:inline;fill:#F7F8E2;}
	.st6{display:inline;fill:#F2A919;}
	.st7{display:inline;fill:#FACE51;}
	.st8{fill:#404142;}
	.st9{fill:#232323;}
	.st10{fill:#EFA118;}
	.st11{fill:#F9C84E;}
	.st12{fill:#F7F8E2;}
</style>
<radialGradient id="SVGID_1_" cx="64" cy="66" r="60" gradientTransform="matrix(1 0 0 -1 0 130)" gradientUnits="userSpaceOnUse">
	<stop  offset="0.6596" style="stop-color:#3E4D73;stop-opacity:0.4"/>
	<stop  offset="1" style="stop-color:#FFFFFF;stop-opacity:0"/>
</radialGradient>
<circle class="st0" cx="64" cy="64" r="60"/>
<circle class="st1" cx="64" cy="64" r="49.5"/>
<g class="st2">
	<path class="st3" d="M77.5,72.4c-2.9-0.8-5.5-2.6-7.4-5.4l-5.5-8.3l-3.7,5.6L59,67c-3.4,5.1-9.5,6.9-14.9,5.4
		c-2.9-0.8-5.5-2.6-7.4-5.4l-5.5-8.1c0.2,0.3,0.3,0.6,0.5,0.8L40.7,73l12.6,18.8c1.9,2.8,4.5,4.6,7.4,5.4c2.9-0.8,5.5-2.6,7.4-5.4
		L80.6,73C79.5,72.9,78.5,72.7,77.5,72.4z"/>
	<path class="st4" d="M91.4,67.9L75.5,91.7c-3.4,5.1-9.5,6.9-14.9,5.4c2.9-0.8,5.5-2.6,7.4-5.4l13.3-19.9
		C84.9,71.9,88.6,70.6,91.4,67.9z"/>
	<path class="st5" d="M64.9,57.6l-3.1,4.6c0,0,4.3,6.4,5.8,8.4c1.8,2.4,5.6,5.8,11.3,5.8c6.9,0,12.5-8.5,12.5-8.5L64.9,57.6z"/>
	<path class="st6" d="M64.2,58.7l5.6,8.3c5.3,7.9,17,7.9,22.3,0l5.5-8.1l0,0c5-8.8-1.3-20-11.7-20h-8.3L64.2,58.7z"/>
	<path class="st5" d="M84.7,38.9h-5.2L58.3,66.4L36.7,67c0,0,3.4,6.4,8.9,8.3c2,0.7,5.5,0.7,7.9-0.4c3.9-1.7,7.8-5.9,7.8-5.9
		L84.7,38.9z"/>
	<path class="st7" d="M31.8,59.7L38,69c0,0,0,0,0,0c5.8,5.8,13.5,4.5,20.3-2.7l21.2-27.5H43C32.2,38.9,25.9,50.8,31.8,59.7z"/>
</g>
<path class="st8" d="M70.4,90.8l24.4-37.4c3.3-5.1-0.3-11.8-6.4-11.8H39.6c-6,0-9.7,6.7-6.4,11.8l24.4,37.4
	C60.6,95.4,67.4,95.4,70.4,90.8z"/>
<path class="st9" d="M85.7,67.4L70.4,90.8c-2.1,3.3-6.2,4.2-9.4,2.8c1.3-0.6,2.5-1.5,3.4-2.8l13.2-20.2
	C80.5,71.3,83.8,70.2,85.7,67.4z"/>
<g>
	<path class="st10" d="M94.8,53.5l-9.1,13.9c0,0,0,0,0,0c-3,4.6-9.7,4.5-12.7,0L56.2,41.7h32.2C94.4,41.7,98,48.4,94.8,53.5z"/>
</g>
<path class="st11" d="M48.9,71.1c-2.4,0-4.9-1.2-6.4-3.5l-9.3-14.3c-3.2-5,0.4-11.7,6.4-11.7h32.6l-17,26
	C53.7,70,51.3,71.1,48.9,71.1z"/>
<path class="st12" d="M85.7,67.4l-5.5,8.4c-0.3,0-0.6,0-0.9,0c-4.3,0-8.2-2.1-10.6-5.7l-4.6-7l3-4.6l5.8,8.8
	c1.5,2.3,3.9,3.5,6.4,3.5C81.8,70.8,84.2,69.7,85.7,67.4z"/>
<path class="st12" d="M78.2,41.7L59.4,70.4c-2.3,3.6-6.3,5.7-10.6,5.7c-0.3,0-0.6,0-0.9,0l-5.5-8.4c1.5,2.3,3.9,3.5,6.4,3.5
	c2.4,0,4.9-1.2,6.4-3.5l17-26H78.2z"/>
</svg>
