<?xml version="1.0" encoding="UTF-8"?>
<svg width="26px" height="25px" viewBox="0 0 26 25" version="1.1" xmlns="http://www.w3.org/2000/svg" xmlns:xlink="http://www.w3.org/1999/xlink">
    <!-- Generator: Sketch 51.2 (57519) - http://www.bohemiancoding.com/sketch -->
    <title>paint_bucket</title>
    <desc>Created with Sketch.</desc>
    <defs></defs>
    <g id="Page-1" stroke="none" stroke-width="1" fill="none" fill-rule="evenodd">
        <g id="paint_bucket">
            <path d="M23.7391304,13.8891099 L14.3467779,23.2814721 C14.0537227,23.5745276 13.656176,23.7391304 13.2417523,23.7391304 C12.8273287,23.7391304 12.4298862,23.5745276 12.1367893,23.2814721 L3.84900391,14.9936157 C3.70389313,14.8484943 3.58878586,14.6762865 3.51025581,14.4866807 C3.43172576,14.2970749 3.39130435,14.0939258 3.39130435,13.8886932 C3.39130435,13.6834606 3.43172576,13.4802073 3.51025581,13.2906015 C3.58878586,13.1010999 3.70389313,12.9287879 3.84900391,12.7836665 L13.2413356,3.39130435 L23.7391304,13.8891099 Z" id="Shape" stroke="#000000" stroke-width="2" stroke-linecap="round" stroke-linejoin="round"></path>
            <path d="M13.5652174,15.826087 C14.8138203,15.826087 15.826087,14.8138203 15.826087,13.5652174 C15.826087,12.3166145 14.8138203,11.3043478 13.5652174,11.3043478 C12.3166145,11.3043478 11.3043478,12.3166145 11.3043478,13.5652174 C11.3043478,14.8138203 12.3166145,15.826087 13.5652174,15.826087 Z" id="Shape" stroke="#000000" stroke-width="2" stroke-linecap="round" stroke-linejoin="round"></path>
            <path d="M23.7391304,18.0869565 C23.7391304,18.0869565 26,20.348429 26,22.6086957 C26,23.2083386 25.7618551,23.7833832 25.3377762,24.2073414 C24.913818,24.6314203 24.3387733,24.8695652 23.7391304,24.8695652 C23.1394875,24.8695652 22.5644429,24.6314203 22.1404846,24.2073414 C21.7164058,23.7833832 21.4782609,23.2083386 21.4782609,22.6086957 C21.4782609,20.348429 23.7391304,18.0869565 23.7391304,18.0869565 Z" id="Shape" fill="#000000"></path>
            <polygon id="Path" fill="#000000" points="-4.4408921e-16 -5.55111512e-16 8.66666667 1.73333333 1.73333333 8.66666667"></polygon>
            <rect id="Path" fill="#000000" transform="translate(9.249195, 9.249195) rotate(-45.000000) translate(-9.249195, -9.249195) " x="8.11876058" y="5.29267363" width="2.26086957" height="7.91304348"></rect>
        </g>
    </g>
</svg>