<svg width="80" height="80" viewBox="0 0 80 80" fill="none" xmlns="http://www.w3.org/2000/svg">
<g filter="url(#filter0_d)">
<circle cx="40" cy="36" r="30" fill="white"/>
<circle cx="40" cy="36" r="29" stroke="#E9ECEE" stroke-width="2"/>
</g>
<path d="M33 48H50C50.2652 48 50.5196 47.8946 50.7071 47.7071C50.8946 47.5196 51 47.2652 51 47V34C51 33.7348 50.8946 33.4804 50.7071 33.2929C50.5196 33.1054 50.2652 33 50 33H30C29.7348 33 29.4804 33.1054 29.2929 33.2929C29.1054 33.4804 29 33.7348 29 34V44C29 45.0609 29.4214 46.0783 30.1716 46.8284C30.9217 47.5786 31.9391 48 33 48V48Z" stroke="#2C465C" stroke-width="2" stroke-linecap="round" stroke-linejoin="round"/>
<path d="M38 33L37 26C37 25.2044 37.3161 24.4413 37.8787 23.8787C38.4413 23.3161 39.2044 23 40 23C40.7956 23 41.5587 23.3161 42.1213 23.8787C42.6839 24.4413 43 25.2044 43 26L42 33" stroke="#2C465C" stroke-width="2" stroke-linecap="round" stroke-linejoin="round"/>
<path d="M29 38H51" stroke="#2C465C" stroke-width="2" stroke-linecap="round" stroke-linejoin="round"/>
<path d="M45 48V43" stroke="#2C465C" stroke-width="2" stroke-linecap="round" stroke-linejoin="round"/>
<defs>
<filter id="filter0_d" x="0" y="0" width="80" height="80" filterUnits="userSpaceOnUse" color-interpolation-filters="sRGB">
<feFlood flood-opacity="0" result="BackgroundImageFix"/>
<feColorMatrix in="SourceAlpha" type="matrix" values="0 0 0 0 0 0 0 0 0 0 0 0 0 0 0 0 0 0 127 0"/>
<feOffset dy="4"/>
<feGaussianBlur stdDeviation="5"/>
<feColorMatrix type="matrix" values="0 0 0 0 0.172549 0 0 0 0 0.27451 0 0 0 0 0.360784 0 0 0 0.1 0"/>
<feBlend mode="normal" in2="BackgroundImageFix" result="effect1_dropShadow"/>
<feBlend mode="normal" in="SourceGraphic" in2="effect1_dropShadow" result="shape"/>
</filter>
</defs>
</svg>
