<?xml version="1.0" encoding="UTF-8"?>
<svg width="24px" height="24px" viewBox="0 0 24 24" version="1.1" xmlns="http://www.w3.org/2000/svg" xmlns:xlink="http://www.w3.org/1999/xlink">
    <!-- Generator: Sketch 51.2 (57519) - http://www.bohemiancoding.com/sketch -->
    <title>pensil</title>
    <desc>Created with Sketch.</desc>
    <defs></defs>
    <g id="Page-1" stroke="none" stroke-width="1" fill="none" fill-rule="evenodd">
        <g id="pensil" transform="translate(1.000000, 1.000000)">
            <path d="M6.95363778,21.0833333 L1.83333333,21.0833333 C1.59022111,21.0833333 1.35705778,20.9867778 1.18515222,20.8148111 C1.01324667,20.6429667 0.916666667,20.4097667 0.916666667,20.1666667 L0.916666667,15.0464111 C0.916666667,14.9260222 0.940377778,14.8068556 0.986443333,14.6956333 C1.03250889,14.5844111 1.10003667,14.4833333 1.18515222,14.3981444 L14.9351889,0.648193333 C15.1070333,0.476287778 15.3402333,0.379707778 15.5833333,0.379707778 C15.8264333,0.379707778 16.0596333,0.476287778 16.2314778,0.648193333 L21.3518556,5.76849778 C21.5237,5.94040333 21.6202556,6.17356667 21.6202556,6.41667889 C21.6202556,6.65979111 21.5237,6.89295444 21.3518556,7.06486 L7.60181889,20.8148111 C7.51670333,20.9 7.41565,20.9674667 7.30442778,21.0135444 C7.19321778,21.0596222 7.07401444,21.0833333 6.95363778,21.0833333 Z" id="Shape" stroke="#000000" stroke-width="2" stroke-linecap="round" stroke-linejoin="round"></path>
            <path d="M11.9166667,3.66666667 L18.3333333,10.0833333" id="Shape" stroke="#000000" stroke-width="2" stroke-linecap="round" stroke-linejoin="round"></path>
            <path d="M7.27476444,21.0247889 L0.974966667,14.7249667" id="Shape" stroke="#000000" stroke-width="2" stroke-linecap="round" stroke-linejoin="round"></path>
            <polygon id="Path-2" fill="#000000" fill-rule="nonzero" points="0.774539263 15.1283053 6.64620059 20.9999666 0.774539263 20.9999666"></polygon>
        </g>
    </g>
</svg>