<svg width="407" height="137" viewBox="0 0 407 137" fill="none" xmlns="http://www.w3.org/2000/svg">
<g clip-path="url(#clip0_104_1375)">
<path d="M-266 76.782L-260.576 84.7038C-255.153 92.6256 -244.306 108.469 -233.458 119.042C-222.611 129.486 -211.764 134.983 -200.917 113.74C-190.069 92.6256 -179.222 45.0949 -168.375 21.3295C-157.528 -2.43593 -146.681 -2.43593 -135.833 2.83449C-124.986 8.23424 -114.139 18.5811 -103.292 39.8244C-92.4444 60.9384 -81.5972 92.6256 -70.75 97.8961C-59.9028 103.296 -49.0555 81.9554 -38.2083 82.0525C-27.3611 81.9554 -16.5139 103.296 -5.66663 103.199C5.18059 103.296 16.0278 81.9554 26.875 79.4334C37.7222 76.782 48.5694 92.6256 59.4167 87.3552C70.2639 81.9555 81.1111 55.765 91.9584 55.668C102.806 55.765 113.653 81.9554 124.5 79.4334C135.347 76.782 146.194 45.0948 157.042 45.0948C167.889 45.0948 178.736 76.782 189.583 79.4334C200.431 81.9554 211.278 55.765 222.125 39.8244C232.972 24.0778 243.82 18.5811 254.667 13.4077C265.514 8.23424 276.361 2.73749 287.208 10.7563C298.056 18.5811 308.903 39.9214 319.75 53.0166C330.597 66.1119 341.445 71.6086 352.292 82.0525C363.139 92.6256 373.986 108.469 384.833 97.8961C395.681 87.4522 406.528 50.2683 417.375 39.8244C428.222 29.2513 439.069 45.0948 449.917 42.4435C460.764 39.9214 471.611 18.5811 482.458 13.4077C493.306 8.23424 504.153 18.5811 509.576 23.9808L515 29.2513V156H509.576C504.153 156 493.306 156 482.458 156C471.611 156 460.764 156 449.917 156C439.069 156 428.222 156 417.375 156C406.528 156 395.681 156 384.833 156C373.986 156 363.139 156 352.292 156C341.445 156 330.597 156 319.75 156C308.903 156 298.056 156 287.208 156C276.361 156 265.514 156 254.667 156C243.82 156 232.972 156 222.125 156C211.278 156 200.431 156 189.583 156C178.736 156 167.889 156 157.042 156C146.194 156 135.347 156 124.5 156C113.653 156 102.806 156 91.9584 156C81.1111 156 70.2639 156 59.4167 156C48.5694 156 37.7222 156 26.875 156C16.0278 156 5.18059 156 -5.66663 156C-16.5139 156 -27.3611 156 -38.2083 156C-49.0555 156 -59.9028 156 -70.75 156C-81.5972 156 -92.4444 156 -103.292 156C-114.139 156 -124.986 156 -135.833 156C-146.681 156 -157.528 156 -168.375 156C-179.222 156 -190.069 156 -200.917 156C-211.764 156 -222.611 156 -233.458 156C-244.306 156 -255.153 156 -260.576 156H-266V76.782Z" fill="url(#paint0_linear_104_1375)" fill-opacity="0.6"/>
</g>
<defs>
<linearGradient id="paint0_linear_104_1375" x1="-266" y1="156" x2="-266" y2="0" gradientUnits="userSpaceOnUse">
<stop stop-color="#495562"/>
<stop offset="1" stop-color="#4D5865"/>
</linearGradient>
<clipPath id="clip0_104_1375">
<rect width="407" height="137" fill="white"/>
</clipPath>
</defs>
</svg>
