<svg width="27" height="27" viewBox="0 0 27 27" fill="none" xmlns="http://www.w3.org/2000/svg">
<rect width="27" height="27" rx="3" fill="#FF1D3E"/>
<path d="M12.4167 6.904C13.9527 6.904 15.0987 7.042 15.8547 7.318C16.6227 7.594 17.1747 8.152 17.5107 8.992C17.8467 9.82 18.0147 11.098 18.0147 12.826C18.0147 14.386 17.8827 15.592 17.6187 16.444C17.3667 17.296 16.8387 17.938 16.0347 18.37C15.2427 18.79 14.0367 19 12.4167 19H8.51069V6.904H12.4167ZM12.3987 16.21C13.0827 16.21 13.5867 16.078 13.9107 15.814C14.2347 15.538 14.4447 15.148 14.5407 14.644C14.6367 14.14 14.6847 13.426 14.6847 12.502C14.6847 11.758 14.6307 11.194 14.5227 10.81C14.4147 10.414 14.1987 10.132 13.8747 9.964C13.5507 9.784 13.0587 9.694 12.3987 9.694H11.7147V16.21H12.3987Z" fill="#FFE817"/>
</svg>
