<svg width="27" height="27" viewBox="0 0 27 27" fill="none" xmlns="http://www.w3.org/2000/svg">
<rect width="27" height="27" rx="3" fill="#6B6B6B"/>
<path d="M8.59858 6.904H13.4406C14.9526 6.904 16.0866 7.258 16.8426 7.966C17.6106 8.674 17.9946 9.718 17.9946 11.098C17.9946 12.478 17.5026 13.636 16.5186 14.572L17.8326 19H14.3226L13.4406 15.346H11.8026V19H8.59858V6.904ZM13.4946 12.61C13.8786 12.61 14.1726 12.466 14.3766 12.178C14.5926 11.878 14.7006 11.518 14.7006 11.098C14.7006 10.69 14.5806 10.342 14.3406 10.054C14.1126 9.766 13.8126 9.622 13.4406 9.622H11.8026V12.61H13.4946Z" fill="white"/>
</svg>
