<svg width="27" height="27" viewBox="0 0 27 27" fill="none" xmlns="http://www.w3.org/2000/svg">
<rect width="27" height="27" rx="3" fill="#6B6B6B"/>
<path d="M12.9737 19.252C11.9417 19.252 10.7657 19.078 9.4457 18.73L8.7977 18.586L9.1217 16.138C10.7057 16.354 11.9297 16.462 12.7937 16.462C13.7297 16.462 14.1977 16.138 14.1977 15.49C14.1977 15.262 14.0897 15.082 13.8737 14.95C13.6697 14.818 13.3637 14.674 12.9557 14.518C12.6917 14.422 12.4997 14.344 12.3797 14.284C11.0237 13.828 10.0577 13.306 9.4817 12.718C8.9177 12.13 8.6357 11.392 8.6357 10.504C8.6357 9.244 9.0197 8.29 9.7877 7.642C10.5557 6.994 11.5997 6.67 12.9197 6.67C13.4597 6.67 13.9697 6.706 14.4497 6.778C14.9417 6.85 15.8357 7.006 17.1317 7.246L16.8797 9.73C15.3197 9.55 14.1197 9.46 13.2797 9.46C12.2957 9.46 11.8037 9.73 11.8037 10.27C11.8037 10.45 11.9237 10.606 12.1637 10.738C12.4037 10.858 12.7817 11.014 13.2977 11.206C13.8257 11.398 14.1677 11.53 14.3237 11.602C15.1157 11.926 15.7277 12.244 16.1597 12.556C16.5917 12.856 16.9037 13.222 17.0957 13.654C17.2877 14.086 17.3837 14.632 17.3837 15.292C17.3837 16.132 17.1857 16.852 16.7897 17.452C16.4057 18.04 15.8777 18.49 15.2057 18.802C14.5457 19.102 13.8017 19.252 12.9737 19.252Z" fill="white"/>
</svg>
