<svg width="176" height="92" viewBox="0 0 176 92" fill="none" xmlns="http://www.w3.org/2000/svg">
<path d="M88.168 27.176C87.72 27.176 87.2613 27.1387 86.792 27.064C86.3333 27 85.8907 26.904 85.464 26.776C85.048 26.648 84.6747 26.488 84.344 26.296C84.1093 26.168 83.944 26.0027 83.848 25.8C83.752 25.5867 83.7147 25.3733 83.736 25.16C83.768 24.9467 83.848 24.76 83.976 24.6C84.1147 24.4293 84.2853 24.3227 84.488 24.28C84.7013 24.2267 84.936 24.264 85.192 24.392C85.6293 24.6373 86.104 24.8187 86.616 24.936C87.1387 25.0533 87.656 25.112 88.168 25.112C88.9467 25.112 89.5013 24.9947 89.832 24.76C90.1627 24.5147 90.328 24.2107 90.328 23.848C90.328 23.5387 90.2107 23.2933 89.976 23.112C89.7413 22.9307 89.3307 22.776 88.744 22.648L86.936 22.264C85.912 22.0507 85.1493 21.688 84.648 21.176C84.1573 20.6533 83.912 19.9707 83.912 19.128C83.912 18.5947 84.024 18.1093 84.248 17.672C84.472 17.2347 84.7867 16.856 85.192 16.536C85.5973 16.216 86.0773 15.9707 86.632 15.8C87.1973 15.6293 87.816 15.544 88.488 15.544C89.0853 15.544 89.672 15.6187 90.248 15.768C90.824 15.9067 91.3307 16.1147 91.768 16.392C91.9813 16.52 92.1253 16.6853 92.2 16.888C92.2853 17.08 92.312 17.2773 92.28 17.48C92.2587 17.672 92.1787 17.8427 92.04 17.992C91.912 18.1413 91.7467 18.2373 91.544 18.28C91.3413 18.3227 91.096 18.2747 90.808 18.136C90.456 17.9547 90.0827 17.8213 89.688 17.736C89.2933 17.6507 88.888 17.608 88.472 17.608C88.024 17.608 87.64 17.6667 87.32 17.784C87.0107 17.9013 86.7707 18.0667 86.6 18.28C86.44 18.4933 86.36 18.7387 86.36 19.016C86.36 19.3253 86.472 19.576 86.696 19.768C86.92 19.96 87.3093 20.1147 87.864 20.232L89.672 20.616C90.7173 20.84 91.496 21.2027 92.008 21.704C92.52 22.1947 92.776 22.8453 92.776 23.656C92.776 24.1893 92.6693 24.6747 92.456 25.112C92.2427 25.5387 91.9333 25.9067 91.528 26.216C91.1227 26.5253 90.6373 26.7653 90.072 26.936C89.5067 27.096 88.872 27.176 88.168 27.176ZM97.954 27.176C97.1113 27.176 96.3753 27.0107 95.746 26.68C95.1273 26.3493 94.6473 25.8747 94.306 25.256C93.9647 24.6373 93.794 23.9067 93.794 23.064C93.794 22.4347 93.89 21.8693 94.082 21.368C94.274 20.8667 94.5513 20.44 94.914 20.088C95.2873 19.7253 95.73 19.4533 96.242 19.272C96.754 19.08 97.3247 18.984 97.954 18.984C98.7967 18.984 99.5273 19.1493 100.146 19.48C100.775 19.8107 101.261 20.28 101.602 20.888C101.954 21.496 102.13 22.2213 102.13 23.064C102.13 23.704 102.029 24.2747 101.826 24.776C101.634 25.2773 101.357 25.7093 100.994 26.072C100.631 26.4347 100.189 26.712 99.666 26.904C99.154 27.0853 98.5833 27.176 97.954 27.176ZM97.954 25.368C98.306 25.368 98.61 25.2827 98.866 25.112C99.122 24.9413 99.3247 24.6907 99.474 24.36C99.6233 24.0187 99.698 23.5867 99.698 23.064C99.698 22.2853 99.538 21.7147 99.218 21.352C98.898 20.9787 98.4767 20.792 97.954 20.792C97.6127 20.792 97.3087 20.872 97.042 21.032C96.786 21.192 96.5833 21.4427 96.434 21.784C96.2953 22.1147 96.226 22.5413 96.226 23.064C96.226 23.8427 96.386 24.424 96.706 24.808C97.026 25.1813 97.442 25.368 97.954 25.368ZM106.496 27.176C105.835 27.176 105.285 27.0533 104.848 26.808C104.411 26.5627 104.085 26.1947 103.872 25.704C103.669 25.2027 103.568 24.584 103.568 23.848V20.232C103.568 19.8267 103.669 19.5227 103.872 19.32C104.085 19.1173 104.384 19.016 104.768 19.016C105.152 19.016 105.451 19.1173 105.664 19.32C105.877 19.5227 105.984 19.8267 105.984 20.232V23.912C105.984 24.3813 106.08 24.7333 106.272 24.968C106.464 25.192 106.768 25.304 107.184 25.304C107.643 25.304 108.016 25.144 108.304 24.824C108.603 24.4933 108.752 24.0613 108.752 23.528V20.232C108.752 19.8267 108.853 19.5227 109.056 19.32C109.269 19.1173 109.568 19.016 109.952 19.016C110.347 19.016 110.645 19.1173 110.848 19.32C111.061 19.5227 111.168 19.8267 111.168 20.232V25.912C111.168 26.7333 110.779 27.144 110 27.144C109.616 27.144 109.323 27.0373 109.12 26.824C108.917 26.6107 108.816 26.3067 108.816 25.912V24.84L109.056 25.464C108.821 26.008 108.485 26.4293 108.048 26.728C107.611 27.0267 107.093 27.176 106.496 27.176ZM114.253 27.144C113.859 27.144 113.555 27.0373 113.341 26.824C113.139 26.6107 113.037 26.3067 113.037 25.912V20.232C113.037 19.8373 113.139 19.5387 113.341 19.336C113.555 19.1227 113.848 19.016 114.221 19.016C114.605 19.016 114.899 19.1227 115.101 19.336C115.304 19.5387 115.405 19.8373 115.405 20.232V21.144L115.229 20.616C115.475 20.0933 115.837 19.6933 116.317 19.416C116.808 19.128 117.363 18.984 117.981 18.984C118.611 18.984 119.128 19.1067 119.533 19.352C119.939 19.5867 120.243 19.9493 120.445 20.44C120.648 20.92 120.749 21.5333 120.749 22.28V25.912C120.749 26.3067 120.643 26.6107 120.429 26.824C120.227 27.0373 119.928 27.144 119.533 27.144C119.149 27.144 118.851 27.0373 118.637 26.824C118.435 26.6107 118.333 26.3067 118.333 25.912V22.392C118.333 21.848 118.232 21.4587 118.029 21.224C117.837 20.9787 117.539 20.856 117.133 20.856C116.621 20.856 116.211 21.016 115.901 21.336C115.603 21.656 115.453 22.0827 115.453 22.616V25.912C115.453 26.7333 115.053 27.144 114.253 27.144ZM125.609 27.176C124.926 27.176 124.324 27.0107 123.801 26.68C123.289 26.3493 122.889 25.8747 122.601 25.256C122.313 24.6373 122.169 23.9067 122.169 23.064C122.169 22.2213 122.313 21.496 122.601 20.888C122.889 20.28 123.289 19.8107 123.801 19.48C124.324 19.1493 124.926 18.984 125.609 18.984C126.228 18.984 126.772 19.1333 127.241 19.432C127.721 19.7307 128.046 20.12 128.217 20.6H128.041V16.808C128.041 16.4027 128.142 16.0987 128.345 15.896C128.548 15.6827 128.846 15.576 129.241 15.576C129.625 15.576 129.924 15.6827 130.137 15.896C130.35 16.0987 130.457 16.4027 130.457 16.808V25.912C130.457 26.3067 130.35 26.6107 130.137 26.824C129.934 27.0373 129.641 27.144 129.257 27.144C128.873 27.144 128.574 27.0373 128.361 26.824C128.158 26.6107 128.057 26.3067 128.057 25.912V24.824L128.233 25.448C128.084 25.9707 127.764 26.392 127.273 26.712C126.793 27.0213 126.238 27.176 125.609 27.176ZM126.329 25.368C126.681 25.368 126.985 25.2827 127.241 25.112C127.497 24.9413 127.7 24.6907 127.849 24.36C127.998 24.0187 128.073 23.5867 128.073 23.064C128.073 22.2853 127.913 21.7147 127.593 21.352C127.273 20.9787 126.852 20.792 126.329 20.792C125.988 20.792 125.684 20.872 125.417 21.032C125.161 21.192 124.958 21.4427 124.809 21.784C124.67 22.1147 124.601 22.5413 124.601 23.064C124.601 23.8427 124.761 24.424 125.081 24.808C125.401 25.1813 125.817 25.368 126.329 25.368ZM133.823 27C133.407 27 133.087 26.888 132.863 26.664C132.639 26.44 132.527 26.12 132.527 25.704V17.016C132.527 16.6 132.639 16.28 132.863 16.056C133.087 15.832 133.407 15.72 133.823 15.72H137.695C138.495 15.72 139.177 15.8373 139.743 16.072C140.308 16.3067 140.735 16.6427 141.023 17.08C141.321 17.5173 141.471 18.04 141.471 18.648C141.471 19.32 141.279 19.8907 140.895 20.36C140.511 20.8293 139.983 21.144 139.311 21.304V21.048C140.089 21.1867 140.692 21.496 141.119 21.976C141.556 22.4453 141.775 23.0587 141.775 23.816C141.775 24.8187 141.428 25.6027 140.735 26.168C140.041 26.7227 139.087 27 137.871 27H133.823ZM134.895 25.16H137.535C138.175 25.16 138.644 25.0373 138.943 24.792C139.241 24.536 139.391 24.1627 139.391 23.672C139.391 23.1813 139.241 22.8133 138.943 22.568C138.644 22.3227 138.175 22.2 137.535 22.2H134.895V25.16ZM134.895 20.36H137.263C137.881 20.36 138.34 20.2427 138.639 20.008C138.937 19.7733 139.087 19.4213 139.087 18.952C139.087 18.4933 138.937 18.1467 138.639 17.912C138.34 17.6773 137.881 17.56 137.263 17.56H134.895V20.36ZM147.22 27.176C146.377 27.176 145.641 27.0107 145.012 26.68C144.393 26.3493 143.913 25.8747 143.572 25.256C143.23 24.6373 143.06 23.9067 143.06 23.064C143.06 22.4347 143.156 21.8693 143.348 21.368C143.54 20.8667 143.817 20.44 144.18 20.088C144.553 19.7253 144.996 19.4533 145.508 19.272C146.02 19.08 146.59 18.984 147.22 18.984C148.062 18.984 148.793 19.1493 149.412 19.48C150.041 19.8107 150.526 20.28 150.868 20.888C151.22 21.496 151.396 22.2213 151.396 23.064C151.396 23.704 151.294 24.2747 151.092 24.776C150.9 25.2773 150.622 25.7093 150.26 26.072C149.897 26.4347 149.454 26.712 148.932 26.904C148.42 27.0853 147.849 27.176 147.22 27.176ZM147.22 25.368C147.572 25.368 147.876 25.2827 148.132 25.112C148.388 24.9413 148.59 24.6907 148.74 24.36C148.889 24.0187 148.964 23.5867 148.964 23.064C148.964 22.2853 148.804 21.7147 148.484 21.352C148.164 20.9787 147.742 20.792 147.22 20.792C146.878 20.792 146.574 20.872 146.308 21.032C146.052 21.192 145.849 21.4427 145.7 21.784C145.561 22.1147 145.492 22.5413 145.492 23.064C145.492 23.8427 145.652 24.424 145.972 24.808C146.292 25.1813 146.708 25.368 147.22 25.368ZM156.641 27.176C155.799 27.176 155.063 27.0107 154.434 26.68C153.815 26.3493 153.335 25.8747 152.993 25.256C152.652 24.6373 152.482 23.9067 152.482 23.064C152.482 22.4347 152.578 21.8693 152.77 21.368C152.962 20.8667 153.239 20.44 153.602 20.088C153.975 19.7253 154.418 19.4533 154.93 19.272C155.442 19.08 156.012 18.984 156.641 18.984C157.484 18.984 158.215 19.1493 158.834 19.48C159.463 19.8107 159.948 20.28 160.29 20.888C160.642 21.496 160.818 22.2213 160.818 23.064C160.818 23.704 160.716 24.2747 160.514 24.776C160.322 25.2773 160.044 25.7093 159.682 26.072C159.319 26.4347 158.876 26.712 158.354 26.904C157.842 27.0853 157.271 27.176 156.641 27.176ZM156.641 25.368C156.994 25.368 157.298 25.2827 157.554 25.112C157.81 24.9413 158.012 24.6907 158.162 24.36C158.311 24.0187 158.386 23.5867 158.386 23.064C158.386 22.2853 158.226 21.7147 157.906 21.352C157.586 20.9787 157.164 20.792 156.641 20.792C156.3 20.792 155.996 20.872 155.73 21.032C155.474 21.192 155.271 21.4427 155.122 21.784C154.983 22.1147 154.914 22.5413 154.914 23.064C154.914 23.8427 155.074 24.424 155.394 24.808C155.714 25.1813 156.13 25.368 156.641 25.368ZM165.295 27.176C164.826 27.176 164.341 27.1333 163.839 27.048C163.349 26.9627 162.901 26.8187 162.495 26.616C162.282 26.5093 162.127 26.376 162.031 26.216C161.946 26.0453 161.909 25.8747 161.919 25.704C161.93 25.5333 161.983 25.3787 162.079 25.24C162.186 25.1013 162.319 25.0107 162.479 24.968C162.65 24.9147 162.837 24.9307 163.039 25.016C163.477 25.1973 163.877 25.3253 164.239 25.4C164.602 25.4747 164.959 25.512 165.311 25.512C165.77 25.512 166.101 25.4427 166.303 25.304C166.517 25.1547 166.623 24.9627 166.623 24.728C166.623 24.5147 166.554 24.3547 166.415 24.248C166.277 24.1413 166.074 24.0667 165.807 24.024L164.127 23.72C163.466 23.6027 162.954 23.3627 162.591 23C162.239 22.6267 162.063 22.152 162.063 21.576C162.063 21.0427 162.213 20.584 162.511 20.2C162.81 19.8053 163.221 19.5067 163.743 19.304C164.277 19.0907 164.879 18.984 165.551 18.984C166.031 18.984 166.474 19.0267 166.879 19.112C167.285 19.1973 167.674 19.336 168.047 19.528C168.239 19.624 168.373 19.752 168.447 19.912C168.533 20.072 168.559 20.2373 168.527 20.408C168.506 20.5787 168.442 20.7333 168.335 20.872C168.229 21.0107 168.09 21.1013 167.919 21.144C167.759 21.1867 167.573 21.1653 167.359 21.08C167.018 20.92 166.703 20.808 166.415 20.744C166.127 20.6693 165.85 20.632 165.583 20.632C165.103 20.632 164.757 20.712 164.543 20.872C164.33 21.0213 164.223 21.2133 164.223 21.448C164.223 21.6293 164.282 21.784 164.399 21.912C164.527 22.0293 164.719 22.1093 164.975 22.152L166.655 22.456C167.349 22.5733 167.877 22.808 168.239 23.16C168.602 23.5013 168.783 23.9707 168.783 24.568C168.783 25.3787 168.463 26.0187 167.823 26.488C167.194 26.9467 166.351 27.176 165.295 27.176ZM173.94 27.176C173.204 27.176 172.586 27.0533 172.084 26.808C171.594 26.5627 171.226 26.2053 170.98 25.736C170.746 25.2667 170.628 24.6747 170.628 23.96V20.952H169.956C169.658 20.952 169.423 20.872 169.252 20.712C169.092 20.552 169.012 20.3333 169.012 20.056C169.012 19.7573 169.092 19.5333 169.252 19.384C169.423 19.224 169.658 19.144 169.956 19.144H170.628V17.928C170.628 17.5227 170.735 17.2187 170.948 17.016C171.162 16.8027 171.46 16.696 171.844 16.696C172.239 16.696 172.538 16.8027 172.74 17.016C172.943 17.2187 173.044 17.5227 173.044 17.928V19.144H174.564C174.863 19.144 175.092 19.224 175.252 19.384C175.412 19.5333 175.492 19.7573 175.492 20.056C175.492 20.3333 175.412 20.552 175.252 20.712C175.092 20.872 174.863 20.952 174.564 20.952H173.044V23.864C173.044 24.312 173.146 24.648 173.348 24.872C173.562 25.096 173.898 25.208 174.356 25.208C174.516 25.208 174.666 25.192 174.804 25.16C174.943 25.128 175.071 25.1067 175.188 25.096C175.338 25.0853 175.46 25.1333 175.556 25.24C175.652 25.336 175.7 25.5547 175.7 25.896C175.7 26.152 175.658 26.376 175.572 26.568C175.487 26.76 175.338 26.8987 175.124 26.984C174.986 27.0373 174.794 27.08 174.548 27.112C174.314 27.1547 174.111 27.176 173.94 27.176Z" fill="white"/>
<g filter="url(#filter0_ddii_101_3)">
<path fill-rule="evenodd" clip-rule="evenodd" d="M45.6896 6C46.68 6 47.4828 6.8094 47.4828 7.80786V36.0197C47.4828 37.0182 46.68 37.8276 45.6896 37.8276C44.6993 37.8276 43.8965 37.0182 43.8965 36.0197V7.80786C43.8965 6.8094 44.6993 6 45.6896 6Z" fill="white"/>
<path fill-rule="evenodd" clip-rule="evenodd" d="M38.9655 12.7241C39.9558 12.7241 40.7586 13.5255 40.7586 14.5141V31.5548C40.7586 32.5434 39.9558 33.3448 38.9655 33.3448C37.9752 33.3448 37.1724 32.5434 37.1724 31.5548V14.5141C37.1724 13.5255 37.9752 12.7241 38.9655 12.7241Z" fill="white"/>
<path fill-rule="evenodd" clip-rule="evenodd" d="M53.3104 16.3104C54.3007 16.3104 55.1035 17.0949 55.1035 18.0626V26.6615C55.1035 27.6293 54.3007 28.4138 53.3104 28.4138C52.3201 28.4138 51.5173 27.6293 51.5173 26.6615V18.0626C51.5173 17.0949 52.3201 16.3104 53.3104 16.3104Z" fill="white"/>
<path fill-rule="evenodd" clip-rule="evenodd" d="M60.0345 8.6897C61.0248 8.6897 61.8276 9.49664 61.8276 10.4921V31.5425C61.8276 32.5379 61.0248 33.3449 60.0345 33.3449C59.0442 33.3449 58.2414 32.5379 58.2414 31.5425V10.4921C58.2414 9.49664 59.0442 8.6897 60.0345 8.6897Z" fill="white"/>
<path fill-rule="evenodd" clip-rule="evenodd" d="M31.7931 18.1035C32.7834 18.1035 33.5862 18.8843 33.5862 19.8475V25.3249C33.5862 26.2881 32.7834 27.069 31.7931 27.069C30.8028 27.069 30 26.2881 30 25.3249V19.8475C30 18.8843 30.8028 18.1035 31.7931 18.1035Z" fill="white"/>
<path fill-rule="evenodd" clip-rule="evenodd" d="M67.2069 18.1035C68.1972 18.1035 69 18.8843 69 19.8475V25.3249C69 26.2881 68.1972 27.069 67.2069 27.069C66.2166 27.069 65.4138 26.2881 65.4138 25.3249V19.8475C65.4138 18.8843 66.2166 18.1035 67.2069 18.1035Z" fill="white"/>
</g>
<defs>
<filter id="filter0_ddii_101_3" x="0" y="0" width="99" height="91.8276" filterUnits="userSpaceOnUse" color-interpolation-filters="sRGB">
<feFlood flood-opacity="0" result="BackgroundImageFix"/>
<feColorMatrix in="SourceAlpha" type="matrix" values="0 0 0 0 0 0 0 0 0 0 0 0 0 0 0 0 0 0 127 0" result="hardAlpha"/>
<feOffset dy="4"/>
<feGaussianBlur stdDeviation="5"/>
<feComposite in2="hardAlpha" operator="out"/>
<feColorMatrix type="matrix" values="0 0 0 0 0 0 0 0 0 0 0 0 0 0 0 0 0 0 0.25 0"/>
<feBlend mode="normal" in2="BackgroundImageFix" result="effect1_dropShadow_101_3"/>
<feColorMatrix in="SourceAlpha" type="matrix" values="0 0 0 0 0 0 0 0 0 0 0 0 0 0 0 0 0 0 127 0" result="hardAlpha"/>
<feOffset dy="24"/>
<feGaussianBlur stdDeviation="15"/>
<feComposite in2="hardAlpha" operator="out"/>
<feColorMatrix type="matrix" values="0 0 0 0 0 0 0 0 0 0 0 0 0 0 0 0 0 0 0.35 0"/>
<feBlend mode="normal" in2="effect1_dropShadow_101_3" result="effect2_dropShadow_101_3"/>
<feBlend mode="normal" in="SourceGraphic" in2="effect2_dropShadow_101_3" result="shape"/>
<feColorMatrix in="SourceAlpha" type="matrix" values="0 0 0 0 0 0 0 0 0 0 0 0 0 0 0 0 0 0 127 0" result="hardAlpha"/>
<feOffset dy="-5"/>
<feGaussianBlur stdDeviation="16.5"/>
<feComposite in2="hardAlpha" operator="arithmetic" k2="-1" k3="1"/>
<feColorMatrix type="matrix" values="0 0 0 0 0 0 0 0 0 0 0 0 0 0 0 0 0 0 0.13 0"/>
<feBlend mode="normal" in2="shape" result="effect3_innerShadow_101_3"/>
<feColorMatrix in="SourceAlpha" type="matrix" values="0 0 0 0 0 0 0 0 0 0 0 0 0 0 0 0 0 0 127 0" result="hardAlpha"/>
<feOffset dy="-2"/>
<feGaussianBlur stdDeviation="2"/>
<feComposite in2="hardAlpha" operator="arithmetic" k2="-1" k3="1"/>
<feColorMatrix type="matrix" values="0 0 0 0 0 0 0 0 0 0 0 0 0 0 0 0 0 0 0.1 0"/>
<feBlend mode="normal" in2="effect3_innerShadow_101_3" result="effect4_innerShadow_101_3"/>
</filter>
</defs>
</svg>
