<svg width="194" height="44" viewBox="0 0 194 44" fill="none" xmlns="http://www.w3.org/2000/svg">
<path d="M61.718 9.76V19H59.59V14.758L59.66 11.916H59.632L57.35 19H55.404L53.122 11.916H53.094L53.164 14.758V19H51.022V9.76H54.452L55.908 14.464L56.426 16.424H56.454L56.986 14.478L58.428 9.76H61.718ZM67.4748 14.562C67.4748 14.2353 67.3815 13.9787 67.1948 13.792C67.0175 13.596 66.7748 13.498 66.4668 13.498C66.1588 13.498 65.8928 13.5773 65.6688 13.736C65.4542 13.8853 65.3048 14.156 65.2208 14.548L63.2048 14.072C63.3355 13.4 63.6808 12.8633 64.2408 12.462C64.8008 12.0607 65.5895 11.86 66.6068 11.86C67.6335 11.86 68.4268 12.0887 68.9868 12.546C69.5562 12.994 69.8408 13.652 69.8408 14.52V17.082C69.8408 17.446 70.0042 17.628 70.3308 17.628C70.4988 17.628 70.6342 17.6093 70.7368 17.572L70.5968 18.93C70.3168 19.0607 69.9762 19.126 69.5748 19.126C69.1362 19.126 68.7582 19.042 68.4408 18.874C68.1235 18.6967 67.9088 18.4307 67.7968 18.076C67.6008 18.44 67.2882 18.7107 66.8588 18.888C66.4388 19.056 65.9908 19.14 65.5148 19.14C64.7962 19.14 64.2222 18.9767 63.7928 18.65C63.3728 18.314 63.1628 17.8333 63.1628 17.208C63.1628 16.704 63.3122 16.2887 63.6108 15.962C63.9188 15.626 64.3995 15.3927 65.0528 15.262L67.4748 14.758V14.562ZM65.5148 16.984C65.5148 17.1893 65.5895 17.3433 65.7388 17.446C65.8882 17.5487 66.0655 17.6 66.2708 17.6C66.5882 17.6 66.8682 17.5067 67.1108 17.32C67.3535 17.124 67.4748 16.8207 67.4748 16.41V16.018L66.3408 16.256C66.0608 16.312 65.8508 16.396 65.7108 16.508C65.5802 16.6107 65.5148 16.7693 65.5148 16.984ZM73.7343 12L74.9803 14.31L76.2543 12H78.9283L76.4923 15.472L78.9843 19H76.2543L74.9243 16.592L73.5663 19H70.8923L73.4123 15.458L70.9903 12H73.7343ZM81.1104 11.188C80.6251 11.188 80.2704 11.0993 80.0464 10.922C79.8317 10.7353 79.7244 10.446 79.7244 10.054C79.7244 9.65267 79.8317 9.36333 80.0464 9.186C80.2704 8.99933 80.6251 8.906 81.1104 8.906C81.5864 8.906 81.9364 8.99933 82.1604 9.186C82.3844 9.36333 82.4964 9.65267 82.4964 10.054C82.4964 10.446 82.3844 10.7353 82.1604 10.922C81.9364 11.0993 81.5864 11.188 81.1104 11.188ZM82.3004 12V19H79.9204V12H82.3004ZM83.9946 19V12H86.1226L86.1926 13.358C86.4166 12.8633 86.7293 12.49 87.1306 12.238C87.5413 11.986 88.0126 11.86 88.5446 11.86C89.058 11.86 89.506 11.9767 89.8886 12.21C90.2806 12.4433 90.57 12.7887 90.7566 13.246C90.9713 12.7887 91.2886 12.4433 91.7086 12.21C92.138 11.9767 92.6046 11.86 93.1086 11.86C93.7993 11.86 94.3686 12.07 94.8166 12.49C95.274 12.9007 95.5026 13.5167 95.5026 14.338V19H93.1226V14.884C93.1226 14.436 93.034 14.1233 92.8566 13.946C92.6793 13.7687 92.4506 13.68 92.1706 13.68C91.816 13.68 91.522 13.8153 91.2886 14.086C91.0553 14.3473 90.9386 14.7393 90.9386 15.262V19H88.5586V14.884C88.5586 14.436 88.47 14.1233 88.2926 13.946C88.1153 13.7687 87.8866 13.68 87.6066 13.68C87.28 13.68 86.9906 13.806 86.7386 14.058C86.496 14.31 86.3746 14.7253 86.3746 15.304V19H83.9946ZM99.5403 19.14C98.831 19.14 98.2523 18.9487 97.8043 18.566C97.3563 18.1833 97.1323 17.5533 97.1323 16.676V12H99.5123V16.116C99.5123 16.564 99.601 16.8767 99.7783 17.054C99.9556 17.2313 100.208 17.32 100.534 17.32C100.87 17.32 101.155 17.1987 101.388 16.956C101.631 16.704 101.752 16.3027 101.752 15.752V12H104.132V19H102.004L101.934 17.684C101.71 18.1787 101.398 18.5473 100.996 18.79C100.595 19.0233 100.11 19.14 99.5403 19.14ZM105.842 19V12H107.97L108.04 13.358C108.264 12.8633 108.577 12.49 108.978 12.238C109.389 11.986 109.86 11.86 110.392 11.86C110.906 11.86 111.354 11.9767 111.736 12.21C112.128 12.4433 112.418 12.7887 112.604 13.246C112.819 12.7887 113.136 12.4433 113.556 12.21C113.986 11.9767 114.452 11.86 114.956 11.86C115.647 11.86 116.216 12.07 116.664 12.49C117.122 12.9007 117.35 13.5167 117.35 14.338V19H114.97V14.884C114.97 14.436 114.882 14.1233 114.704 13.946C114.527 13.7687 114.298 13.68 114.018 13.68C113.664 13.68 113.37 13.8153 113.136 14.086C112.903 14.3473 112.786 14.7393 112.786 15.262V19H110.406V14.884C110.406 14.436 110.318 14.1233 110.14 13.946C109.963 13.7687 109.734 13.68 109.454 13.68C109.128 13.68 108.838 13.806 108.586 14.058C108.344 14.31 108.222 14.7253 108.222 15.304V19H105.842ZM131.386 16.354C131.115 17.3247 130.616 18.034 129.888 18.482C129.169 18.9207 128.32 19.14 127.34 19.14C126.397 19.14 125.585 18.9533 124.904 18.58C124.232 18.1973 123.714 17.6513 123.35 16.942C122.986 16.2327 122.804 15.3787 122.804 14.38C122.804 13.3813 122.986 12.5273 123.35 11.818C123.714 11.1087 124.232 10.5673 124.904 10.194C125.585 9.81133 126.392 9.62 127.326 9.62C128.287 9.62 129.127 9.82533 129.846 10.236C130.564 10.6467 131.04 11.2907 131.274 12.168L129.16 13.022C129.029 12.4527 128.814 12.0607 128.516 11.846C128.226 11.622 127.858 11.51 127.41 11.51C126.738 11.51 126.21 11.7527 125.828 12.238C125.454 12.7233 125.268 13.4373 125.268 14.38C125.268 15.3227 125.445 16.0367 125.8 16.522C126.164 17.0073 126.705 17.25 127.424 17.25C127.872 17.25 128.25 17.1287 128.558 16.886C128.875 16.634 129.09 16.2513 129.202 15.738L131.386 16.354ZM135.889 11.86C136.626 11.86 137.27 12.0047 137.821 12.294C138.381 12.5833 138.815 12.9987 139.123 13.54C139.44 14.0813 139.599 14.7347 139.599 15.5C139.599 16.2653 139.44 16.9187 139.123 17.46C138.815 18.0013 138.381 18.4167 137.821 18.706C137.27 18.9953 136.626 19.14 135.889 19.14C135.161 19.14 134.517 18.9953 133.957 18.706C133.406 18.4167 132.972 18.0013 132.655 17.46C132.347 16.9187 132.193 16.2653 132.193 15.5C132.193 14.7347 132.347 14.0813 132.655 13.54C132.972 12.9987 133.406 12.5833 133.957 12.294C134.517 12.0047 135.161 11.86 135.889 11.86ZM135.889 13.554C135.478 13.554 135.156 13.708 134.923 14.016C134.699 14.3147 134.587 14.8093 134.587 15.5C134.587 16.1813 134.699 16.676 134.923 16.984C135.156 17.292 135.478 17.446 135.889 17.446C136.309 17.446 136.631 17.292 136.855 16.984C137.088 16.676 137.205 16.1813 137.205 15.5C137.205 14.8093 137.088 14.3147 136.855 14.016C136.631 13.708 136.309 13.554 135.889 13.554ZM143.29 9.032V16.62C143.29 16.928 143.341 17.1473 143.444 17.278C143.547 17.4087 143.719 17.474 143.962 17.474C144.102 17.474 144.219 17.4647 144.312 17.446C144.405 17.4273 144.517 17.3993 144.648 17.362L144.494 18.79C144.326 18.8927 144.107 18.9767 143.836 19.042C143.565 19.1073 143.299 19.14 143.038 19.14C142.291 19.14 141.75 18.9673 141.414 18.622C141.078 18.2767 140.91 17.712 140.91 16.928V9.032H143.29ZM148.85 11.86C149.587 11.86 150.231 12.0047 150.782 12.294C151.342 12.5833 151.776 12.9987 152.084 13.54C152.401 14.0813 152.56 14.7347 152.56 15.5C152.56 16.2653 152.401 16.9187 152.084 17.46C151.776 18.0013 151.342 18.4167 150.782 18.706C150.231 18.9953 149.587 19.14 148.85 19.14C148.122 19.14 147.478 18.9953 146.918 18.706C146.367 18.4167 145.933 18.0013 145.616 17.46C145.308 16.9187 145.154 16.2653 145.154 15.5C145.154 14.7347 145.308 14.0813 145.616 13.54C145.933 12.9987 146.367 12.5833 146.918 12.294C147.478 12.0047 148.122 11.86 148.85 11.86ZM148.85 13.554C148.439 13.554 148.117 13.708 147.884 14.016C147.66 14.3147 147.548 14.8093 147.548 15.5C147.548 16.1813 147.66 16.676 147.884 16.984C148.117 17.292 148.439 17.446 148.85 17.446C149.27 17.446 149.592 17.292 149.816 16.984C150.049 16.676 150.166 16.1813 150.166 15.5C150.166 14.8093 150.049 14.3147 149.816 14.016C149.592 13.708 149.27 13.554 148.85 13.554ZM153.899 19V12H155.999L156.097 13.512C156.265 12.9987 156.522 12.5973 156.867 12.308C157.222 12.0093 157.674 11.86 158.225 11.86C158.402 11.86 158.552 11.8787 158.673 11.916C158.804 11.944 158.906 11.9767 158.981 12.014L158.743 13.974C158.65 13.946 158.528 13.918 158.379 13.89C158.239 13.862 158.066 13.848 157.861 13.848C157.432 13.848 157.058 13.9833 156.741 14.254C156.433 14.5247 156.279 14.9307 156.279 15.472V19H153.899ZM59.212 31.354C58.9413 32.3247 58.442 33.034 57.714 33.482C56.9953 33.9207 56.146 34.14 55.166 34.14C54.2233 34.14 53.4113 33.9533 52.73 33.58C52.058 33.1973 51.54 32.6513 51.176 31.942C50.812 31.2327 50.63 30.3787 50.63 29.38C50.63 28.3813 50.812 27.5273 51.176 26.818C51.54 26.1087 52.058 25.5673 52.73 25.194C53.4113 24.8113 54.2187 24.62 55.152 24.62C56.1133 24.62 56.9533 24.8253 57.672 25.236C58.3907 25.6467 58.8667 26.2907 59.1 27.168L56.986 28.022C56.8553 27.4527 56.6407 27.0607 56.342 26.846C56.0527 26.622 55.684 26.51 55.236 26.51C54.564 26.51 54.0367 26.7527 53.654 27.238C53.2807 27.7233 53.094 28.4373 53.094 29.38C53.094 30.3227 53.2713 31.0367 53.626 31.522C53.99 32.0073 54.5313 32.25 55.25 32.25C55.698 32.25 56.076 32.1287 56.384 31.886C56.7013 31.634 56.916 31.2513 57.028 30.738L59.212 31.354ZM60.3833 34V24.032H62.7633V28.274C62.9686 27.8073 63.2626 27.4573 63.6453 27.224C64.028 26.9813 64.4713 26.86 64.9753 26.86C65.694 26.86 66.2773 27.07 66.7253 27.49C67.1733 27.91 67.3973 28.526 67.3973 29.338V34H65.0173V29.996C65.0173 29.492 64.924 29.1467 64.7373 28.96C64.56 28.764 64.322 28.666 64.0233 28.666C63.6873 28.666 63.3933 28.7967 63.1413 29.058C62.8893 29.31 62.7633 29.73 62.7633 30.318V34H60.3833ZM72.9709 29.562C72.9709 29.2353 72.8776 28.9787 72.6909 28.792C72.5136 28.596 72.2709 28.498 71.9629 28.498C71.6549 28.498 71.3889 28.5773 71.1649 28.736C70.9503 28.8853 70.8009 29.156 70.7169 29.548L68.7009 29.072C68.8316 28.4 69.1769 27.8633 69.7369 27.462C70.2969 27.0607 71.0856 26.86 72.1029 26.86C73.1296 26.86 73.9229 27.0887 74.4829 27.546C75.0523 27.994 75.3369 28.652 75.3369 29.52V32.082C75.3369 32.446 75.5003 32.628 75.8269 32.628C75.9949 32.628 76.1303 32.6093 76.2329 32.572L76.0929 33.93C75.8129 34.0607 75.4723 34.126 75.0709 34.126C74.6323 34.126 74.2543 34.042 73.9369 33.874C73.6196 33.6967 73.4049 33.4307 73.2929 33.076C73.0969 33.44 72.7843 33.7107 72.3549 33.888C71.9349 34.056 71.4869 34.14 71.0109 34.14C70.2923 34.14 69.7183 33.9767 69.2889 33.65C68.8689 33.314 68.6589 32.8333 68.6589 32.208C68.6589 31.704 68.8083 31.2887 69.1069 30.962C69.4149 30.626 69.8956 30.3927 70.5489 30.262L72.9709 29.758V29.562ZM71.0109 31.984C71.0109 32.1893 71.0856 32.3433 71.2349 32.446C71.3843 32.5487 71.5616 32.6 71.7669 32.6C72.0843 32.6 72.3643 32.5067 72.6069 32.32C72.8496 32.124 72.9709 31.8207 72.9709 31.41V31.018L71.8369 31.256C71.5569 31.312 71.3469 31.396 71.2069 31.508C71.0763 31.6107 71.0109 31.7693 71.0109 31.984ZM77.1724 34V27H79.3004L79.3704 28.414C79.585 27.9007 79.8977 27.5133 80.3084 27.252C80.719 26.9907 81.2044 26.86 81.7644 26.86C82.483 26.86 83.0664 27.07 83.5144 27.49C83.9624 27.91 84.1864 28.526 84.1864 29.338V34H81.8064V29.968C81.8064 29.4827 81.713 29.1467 81.5264 28.96C81.3397 28.7733 81.1017 28.68 80.8124 28.68C80.467 28.68 80.1684 28.8013 79.9164 29.044C79.6737 29.2867 79.5524 29.702 79.5524 30.29V34H77.1724ZM90.222 32.446C91.034 32.446 91.6547 32.6187 92.084 32.964C92.5227 33.3 92.742 33.7853 92.742 34.42C92.742 35.2973 92.392 35.946 91.692 36.366C91.0013 36.7953 90.068 37.01 88.892 37.01C87.6227 37.01 86.708 36.8513 86.148 36.534C85.588 36.2167 85.308 35.7873 85.308 35.246C85.308 34.9287 85.4107 34.658 85.616 34.434C85.8307 34.21 86.1713 34.056 86.638 33.972C85.9567 33.72 85.616 33.2487 85.616 32.558C85.616 32.2313 85.714 31.9467 85.91 31.704C86.106 31.452 86.3767 31.27 86.722 31.158C85.9753 30.7473 85.602 30.108 85.602 29.24C85.602 28.484 85.896 27.9007 86.484 27.49C87.0813 27.07 87.9167 26.86 88.99 26.86C89.5313 26.86 90.0213 26.916 90.46 27.028C90.4973 26.692 90.5907 26.3793 90.74 26.09C90.8987 25.8007 91.1133 25.5673 91.384 25.39C91.664 25.2033 92.0047 25.11 92.406 25.11C92.434 25.11 92.4667 25.1147 92.504 25.124C92.5413 25.124 92.5833 25.124 92.63 25.124L92.826 26.72C92.7233 26.692 92.6113 26.678 92.49 26.678C92.1633 26.678 91.902 26.7433 91.706 26.874C91.51 27.0047 91.3793 27.1727 91.314 27.378C92.014 27.7887 92.364 28.4093 92.364 29.24C92.364 29.996 92.0653 30.5793 91.468 30.99C90.88 31.4007 90.054 31.606 88.99 31.606C88.5047 31.606 88.066 31.564 87.674 31.48C87.366 31.5733 87.212 31.7367 87.212 31.97C87.212 32.2873 87.4733 32.446 87.996 32.446H90.222ZM88.99 28.218C88.682 28.218 88.43 28.3067 88.234 28.484C88.0473 28.6613 87.954 28.9133 87.954 29.24C87.954 29.5573 88.0473 29.8047 88.234 29.982C88.43 30.1593 88.682 30.248 88.99 30.248C89.2887 30.248 89.536 30.1593 89.732 29.982C89.928 29.8047 90.026 29.5573 90.026 29.24C90.026 28.9133 89.928 28.6613 89.732 28.484C89.536 28.3067 89.2887 28.218 88.99 28.218ZM88.906 35.47C89.578 35.47 90.0773 35.4 90.404 35.26C90.74 35.1293 90.908 34.9613 90.908 34.756C90.908 34.616 90.852 34.504 90.74 34.42C90.6373 34.3453 90.4553 34.308 90.194 34.308H87.688C87.5107 34.308 87.366 34.3547 87.254 34.448C87.1513 34.5413 87.1 34.658 87.1 34.798C87.1 35.0127 87.2587 35.176 87.576 35.288C87.8933 35.4093 88.3367 35.47 88.906 35.47ZM97.104 34.14C95.9373 34.14 95.0133 33.8227 94.332 33.188C93.66 32.5533 93.324 31.6573 93.324 30.5C93.324 29.7347 93.478 29.0813 93.786 28.54C94.1033 27.9893 94.5327 27.574 95.074 27.294C95.6247 27.0047 96.264 26.86 96.992 26.86C97.7293 26.86 98.3547 27.0047 98.868 27.294C99.3907 27.574 99.7873 27.966 100.058 28.47C100.329 28.9647 100.464 29.534 100.464 30.178C100.464 30.3553 100.455 30.528 100.436 30.696C100.427 30.8547 100.417 30.99 100.408 31.102H95.634C95.6993 31.5873 95.858 31.9373 96.11 32.152C96.362 32.3573 96.6933 32.46 97.104 32.46C97.4587 32.46 97.7387 32.39 97.944 32.25C98.1587 32.11 98.3173 31.914 98.42 31.662L100.324 32.292C100.193 32.6933 99.9647 33.034 99.638 33.314C99.3207 33.5847 98.938 33.79 98.49 33.93C98.0513 34.07 97.5893 34.14 97.104 34.14ZM96.992 28.526C96.236 28.526 95.788 28.96 95.648 29.828H98.21C98.1073 28.96 97.7013 28.526 96.992 28.526ZM101.795 34V27H103.895L103.993 28.512C104.161 27.9987 104.418 27.5973 104.763 27.308C105.118 27.0093 105.571 26.86 106.121 26.86C106.299 26.86 106.448 26.8787 106.569 26.916C106.7 26.944 106.803 26.9767 106.877 27.014L106.639 28.974C106.546 28.946 106.425 28.918 106.275 28.89C106.135 28.862 105.963 28.848 105.757 28.848C105.328 28.848 104.955 28.9833 104.637 29.254C104.329 29.5247 104.175 29.9307 104.175 30.472V34H101.795ZM116.346 27V28.694H114.358V34H111.978V28.694H110.858V27H111.978V26.356C111.978 25.7587 112.104 25.278 112.356 24.914C112.618 24.5407 112.958 24.27 113.378 24.102C113.808 23.9247 114.27 23.836 114.764 23.836C115.147 23.836 115.483 23.878 115.772 23.962C116.062 24.0367 116.276 24.1253 116.416 24.228L116.178 25.712C116.076 25.656 115.959 25.6093 115.828 25.572C115.698 25.5253 115.534 25.502 115.338 25.502C115.002 25.502 114.732 25.5767 114.526 25.726C114.321 25.8753 114.218 26.1367 114.218 26.51V27H116.346ZM120.563 26.86C121.3 26.86 121.944 27.0047 122.495 27.294C123.055 27.5833 123.489 27.9987 123.797 28.54C124.114 29.0813 124.273 29.7347 124.273 30.5C124.273 31.2653 124.114 31.9187 123.797 32.46C123.489 33.0013 123.055 33.4167 122.495 33.706C121.944 33.9953 121.3 34.14 120.563 34.14C119.835 34.14 119.191 33.9953 118.631 33.706C118.08 33.4167 117.646 33.0013 117.329 32.46C117.021 31.9187 116.867 31.2653 116.867 30.5C116.867 29.7347 117.021 29.0813 117.329 28.54C117.646 27.9987 118.08 27.5833 118.631 27.294C119.191 27.0047 119.835 26.86 120.563 26.86ZM120.563 28.554C120.152 28.554 119.83 28.708 119.597 29.016C119.373 29.3147 119.261 29.8093 119.261 30.5C119.261 31.1813 119.373 31.676 119.597 31.984C119.83 32.292 120.152 32.446 120.563 32.446C120.983 32.446 121.305 32.292 121.529 31.984C121.762 31.676 121.879 31.1813 121.879 30.5C121.879 29.8093 121.762 29.3147 121.529 29.016C121.305 28.708 120.983 28.554 120.563 28.554ZM125.612 34V27H127.712L127.81 28.512C127.978 27.9987 128.234 27.5973 128.58 27.308C128.934 27.0093 129.387 26.86 129.938 26.86C130.115 26.86 130.264 26.8787 130.386 26.916C130.516 26.944 130.619 26.9767 130.694 27.014L130.456 28.974C130.362 28.946 130.241 28.918 130.092 28.89C129.952 28.862 129.779 28.848 129.574 28.848C129.144 28.848 128.771 28.9833 128.454 29.254C128.146 29.5247 127.992 29.9307 127.992 30.472V34H125.612ZM143.222 24.76L139.96 30.626V34H137.552V30.626L134.29 24.76H136.782L138.084 27.294L138.77 28.834L139.47 27.294L140.772 24.76H143.222ZM146.02 26.86C146.757 26.86 147.401 27.0047 147.952 27.294C148.512 27.5833 148.946 27.9987 149.254 28.54C149.571 29.0813 149.73 29.7347 149.73 30.5C149.73 31.2653 149.571 31.9187 149.254 32.46C148.946 33.0013 148.512 33.4167 147.952 33.706C147.401 33.9953 146.757 34.14 146.02 34.14C145.292 34.14 144.648 33.9953 144.088 33.706C143.537 33.4167 143.103 33.0013 142.786 32.46C142.478 31.9187 142.324 31.2653 142.324 30.5C142.324 29.7347 142.478 29.0813 142.786 28.54C143.103 27.9987 143.537 27.5833 144.088 27.294C144.648 27.0047 145.292 26.86 146.02 26.86ZM146.02 28.554C145.609 28.554 145.287 28.708 145.054 29.016C144.83 29.3147 144.718 29.8093 144.718 30.5C144.718 31.1813 144.83 31.676 145.054 31.984C145.287 32.292 145.609 32.446 146.02 32.446C146.44 32.446 146.762 32.292 146.986 31.984C147.219 31.676 147.336 31.1813 147.336 30.5C147.336 29.8093 147.219 29.3147 146.986 29.016C146.762 28.708 146.44 28.554 146.02 28.554ZM153.435 34.14C152.726 34.14 152.147 33.9487 151.699 33.566C151.251 33.1833 151.027 32.5533 151.027 31.676V27H153.407V31.116C153.407 31.564 153.496 31.8767 153.673 32.054C153.85 32.2313 154.102 32.32 154.429 32.32C154.765 32.32 155.05 32.1987 155.283 31.956C155.526 31.704 155.647 31.3027 155.647 30.752V27H158.027V34H155.899L155.829 32.684C155.605 33.1787 155.292 33.5473 154.891 33.79C154.49 34.0233 154.004 34.14 153.435 34.14ZM164.749 27V28.694H162.663V31.508C162.663 31.844 162.742 32.0867 162.901 32.236C163.069 32.376 163.297 32.446 163.587 32.446C163.811 32.446 164.002 32.4227 164.161 32.376C164.319 32.32 164.469 32.2407 164.609 32.138L164.861 33.608C164.627 33.7667 164.329 33.8973 163.965 34C163.61 34.0933 163.251 34.14 162.887 34.14C162.084 34.14 161.449 33.972 160.983 33.636C160.525 33.2907 160.292 32.712 160.283 31.9V28.694H159.079V27H160.283V25.432L162.663 24.774V27H164.749ZM168.214 34.14C167.505 34.14 166.926 33.9487 166.478 33.566C166.03 33.1833 165.806 32.5533 165.806 31.676V27H168.186V31.116C168.186 31.564 168.275 31.8767 168.452 32.054C168.629 32.2313 168.881 32.32 169.208 32.32C169.544 32.32 169.829 32.1987 170.062 31.956C170.305 31.704 170.426 31.3027 170.426 30.752V27H172.806V34H170.678L170.608 32.684C170.384 33.1787 170.071 33.5473 169.67 33.79C169.269 34.0233 168.783 34.14 168.214 34.14ZM179.01 34.14C178.441 34.14 177.955 33.986 177.554 33.678C177.153 33.37 176.863 32.964 176.686 32.46L176.602 34H174.516V24.032H176.896V28.204C177.083 27.8027 177.358 27.4807 177.722 27.238C178.095 26.986 178.553 26.86 179.094 26.86C179.635 26.86 180.116 27.0047 180.536 27.294C180.956 27.5833 181.287 28.0033 181.53 28.554C181.773 29.0953 181.894 29.7533 181.894 30.528C181.894 31.6667 181.628 32.5533 181.096 33.188C180.564 33.8227 179.869 34.14 179.01 34.14ZM178.184 32.39C178.595 32.39 178.917 32.2407 179.15 31.942C179.383 31.634 179.5 31.1533 179.5 30.5C179.5 29.8467 179.383 29.3707 179.15 29.072C178.917 28.764 178.595 28.61 178.184 28.61C177.783 28.61 177.465 28.778 177.232 29.114C177.008 29.45 176.896 29.9167 176.896 30.514C176.896 31.1207 177.013 31.5873 177.246 31.914C177.479 32.2313 177.792 32.39 178.184 32.39ZM186.709 34.14C185.543 34.14 184.619 33.8227 183.937 33.188C183.265 32.5533 182.929 31.6573 182.929 30.5C182.929 29.7347 183.083 29.0813 183.391 28.54C183.709 27.9893 184.138 27.574 184.679 27.294C185.23 27.0047 185.869 26.86 186.597 26.86C187.335 26.86 187.96 27.0047 188.473 27.294C188.996 27.574 189.393 27.966 189.663 28.47C189.934 28.9647 190.069 29.534 190.069 30.178C190.069 30.3553 190.06 30.528 190.041 30.696C190.032 30.8547 190.023 30.99 190.013 31.102H185.239C185.305 31.5873 185.463 31.9373 185.715 32.152C185.967 32.3573 186.299 32.46 186.709 32.46C187.064 32.46 187.344 32.39 187.549 32.25C187.764 32.11 187.923 31.914 188.025 31.662L189.929 32.292C189.799 32.6933 189.57 33.034 189.243 33.314C188.926 33.5847 188.543 33.79 188.095 33.93C187.657 34.07 187.195 34.14 186.709 34.14ZM186.597 28.526C185.841 28.526 185.393 28.96 185.253 29.828H187.815C187.713 28.96 187.307 28.526 186.597 28.526Z" fill="#4D5061"/>
<g clip-path="url(#clip0)">
<g filter="url(#filter0_di)">
<mask id="mask0" style="mask-type:alpha" maskUnits="userSpaceOnUse" x="5" y="3" width="34" height="38">
<path d="M36.7279 18.3543C39.4921 19.9392 39.4921 23.9263 36.7279 25.5112L11.6769 39.8753C8.9269 41.4521 5.5 39.4668 5.5 36.2969L5.5 7.56862C5.5 4.39863 8.92689 2.41332 11.6769 3.99015L36.7279 18.3543Z" fill="#C4C4C4"/>
</mask>
<g mask="url(#mask0)">
<path d="M4.8125 24.2575C16.8438 19.3546 32.5952 28.0826 37.8125 33.2765V44.8825H4.8125V24.2575Z" fill="#45D2FF"/>
<path d="M28.3466 4.36017C28.436 21.0951 10.5816 29.6958 0.155961 30.4123L-9.96875 25.8887L11.0602 -6.77039L28.3466 4.36017Z" fill="#AE47FF"/>
<path d="M17.5313 43.9328C14.1155 29.3459 20.1094 11.2765 28.4364 5.98224L39.9452 7.16363L39.1875 30.0109L17.5313 43.9328Z" fill="#FFE766"/>
<mask id="mask1" style="mask-type:alpha" maskUnits="userSpaceOnUse" x="16" y="5" width="24" height="39">
<path opacity="0.9" d="M17.5313 43.9328C14.1155 29.3459 20.1094 11.2765 28.4364 5.98224L39.9452 7.16363L39.1875 30.0109L17.5313 43.9328Z" fill="#FFC266"/>
</mask>
<g mask="url(#mask1)">
<path d="M4.8125 24.2575C16.8438 19.3546 32.5952 28.0827 37.8125 33.2765V44.8825H4.8125V24.2575Z" fill="#FFB13D"/>
</g>
</g>
</g>
</g>
<defs>
<filter id="filter0_di" x="1.5" y="0.4375" width="41.301" height="45.9905" filterUnits="userSpaceOnUse" color-interpolation-filters="sRGB">
<feFlood flood-opacity="0" result="BackgroundImageFix"/>
<feColorMatrix in="SourceAlpha" type="matrix" values="0 0 0 0 0 0 0 0 0 0 0 0 0 0 0 0 0 0 127 0" result="hardAlpha"/>
<feOffset dy="2"/>
<feGaussianBlur stdDeviation="2"/>
<feComposite in2="hardAlpha" operator="out"/>
<feColorMatrix type="matrix" values="0 0 0 0 0.238627 0 0 0 0 0.0730869 0 0 0 0 0.404167 0 0 0 0.2 0"/>
<feBlend mode="normal" in2="BackgroundImageFix" result="effect1_dropShadow"/>
<feBlend mode="normal" in="SourceGraphic" in2="effect1_dropShadow" result="shape"/>
<feColorMatrix in="SourceAlpha" type="matrix" values="0 0 0 0 0 0 0 0 0 0 0 0 0 0 0 0 0 0 127 0" result="hardAlpha"/>
<feOffset dy="-3"/>
<feGaussianBlur stdDeviation="4"/>
<feComposite in2="hardAlpha" operator="arithmetic" k2="-1" k3="1"/>
<feColorMatrix type="matrix" values="0 0 0 0 0 0 0 0 0 0 0 0 0 0 0 0 0 0 0.2 0"/>
<feBlend mode="normal" in2="shape" result="effect2_innerShadow"/>
</filter>
<clipPath id="clip0">
<rect width="44" height="44" fill="white"/>
</clipPath>
</defs>
</svg>
