<svg xmlns="http://www.w3.org/2000/svg" width="5" height="8" viewBox="0 0 5 8" fill="none">
  <path d="M0.646476 0.818024C0.552741 0.911788 0.500083 1.03894 0.500083 1.17152C0.500083 1.30411 0.552741 1.43126 0.646476 1.52502L3.12148 4.00002L0.646476 6.47502C0.555397 6.56933 0.505 6.69563 0.506139 6.82672C0.507278 6.95782 0.559862 7.08323 0.652566 7.17593C0.74527 7.26864 0.870677 7.32122 1.00178 7.32236C1.13287 7.3235 1.25917 7.2731 1.35348 7.18202L4.18198 4.35352C4.27571 4.25976 4.32837 4.13261 4.32837 4.00002C4.32837 3.86744 4.27571 3.74029 4.18198 3.64652L1.35348 0.818024C1.25971 0.724288 1.13256 0.671631 0.999976 0.671631C0.867394 0.671631 0.74024 0.724288 0.646476 0.818024Z" fill="black" fill-opacity="0.85"/>
</svg>