<svg width="11" height="15" viewBox="0 0 11 15" fill="none" xmlns="http://www.w3.org/2000/svg">
<path d="M6.68157 1.71388H4.31841V2.11151H3.46499V1.65821C3.46489 1.21829 3.82261 0.860352 4.26231 0.860352H6.73767C7.17737 0.860352 7.5351 1.21829 7.5351 1.65821V2.11151H6.68157V1.71388Z" fill="#E63850"/>
<path d="M1.49416 5.49301H9.50599C9.72552 5.49301 9.89834 5.68029 9.88065 5.89917L9.21084 14.1816C9.17351 14.6439 8.78785 15 8.32452 15H2.67574C2.21241 15 1.82675 14.6439 1.78942 14.1814L1.11961 5.89917C1.10182 5.68029 1.27463 5.49301 1.49416 5.49301ZM7.56604 14.1166C7.57499 14.1172 7.58394 14.1175 7.59279 14.1175C7.81653 14.1175 8.00434 13.9433 8.01826 13.7169L8.43801 6.91753C8.45246 6.68225 8.27349 6.47976 8.03832 6.46531C7.80391 6.45107 7.60056 6.62961 7.5861 6.86499L7.16646 13.6644C7.1519 13.8997 7.33086 14.102 7.56604 14.1166ZM5.06857 13.6907C5.06857 13.9263 5.25962 14.1174 5.49533 14.1174C5.73104 14.1174 5.92209 13.9263 5.92209 13.6907V6.89121C5.92209 6.6555 5.73104 6.46445 5.49533 6.46445C5.25973 6.46445 5.06857 6.6555 5.06857 6.89121V13.6907ZM2.56215 6.91634L2.96291 13.7157C2.97618 13.9425 3.16432 14.1174 3.38849 14.1174C3.3969 14.1174 3.40543 14.1172 3.41395 14.1167C3.64923 14.1028 3.82874 13.9009 3.81482 13.6656L3.41416 6.86607C3.40036 6.63079 3.19906 6.45129 2.96313 6.4652C2.72785 6.47901 2.54834 6.68106 2.56215 6.91634Z" fill="#E63850"/>
<path d="M0.0183249 4.17603L0.29859 3.33588C0.372486 3.11441 0.579826 2.965 0.81338 2.965H10.1867C10.4202 2.965 10.6276 3.11441 10.7014 3.33588L10.9817 4.17603C11.0357 4.33806 10.9654 4.50333 10.8341 4.58574C10.7806 4.61929 10.7173 4.63947 10.6477 4.63947H0.352313C0.282732 4.63947 0.2193 4.61929 0.165901 4.58564C0.0346146 4.50322 -0.0357218 4.33795 0.0183249 4.17603Z" fill="#E63850"/>
</svg>
