<svg width="185" height="42" viewBox="0 0 185 42" fill="none" xmlns="http://www.w3.org/2000/svg">
<path d="M54.648 31C54.296 31 54 30.88 53.76 30.64C53.52 30.4 53.4 30.104 53.4 29.752V13.504C53.4 13.136 53.52 12.84 53.76 12.616C54 12.376 54.296 12.256 54.648 12.256H59.448C60.648 12.256 61.712 12.52 62.64 13.048C63.568 13.576 64.288 14.312 64.8 15.256C65.328 16.184 65.592 17.256 65.592 18.472C65.592 19.64 65.328 20.68 64.8 21.592C64.288 22.504 63.568 23.216 62.64 23.728C61.712 24.24 60.648 24.496 59.448 24.496H55.896V29.752C55.896 30.104 55.776 30.4 55.536 30.64C55.312 30.88 55.016 31 54.648 31ZM55.896 22.192H59.448C60.184 22.192 60.832 22.032 61.392 21.712C61.952 21.392 62.392 20.952 62.712 20.392C63.032 19.832 63.192 19.192 63.192 18.472C63.192 17.704 63.032 17.032 62.712 16.456C62.392 15.864 61.952 15.4 61.392 15.064C60.832 14.728 60.184 14.56 59.448 14.56H55.896V22.192ZM73.1164 31.096C71.9484 31.096 70.9004 30.808 69.9724 30.232C69.0444 29.64 68.3084 28.848 67.7644 27.856C67.2364 26.848 66.9724 25.712 66.9724 24.448C66.9724 23.184 67.2604 22.048 67.8364 21.04C68.4284 20.032 69.2204 19.24 70.2124 18.664C71.2204 18.072 72.3484 17.776 73.5964 17.776C74.8444 17.776 75.9644 18.072 76.9564 18.664C77.9484 19.24 78.7324 20.032 79.3084 21.04C79.9004 22.048 80.1964 23.184 80.1964 24.448H79.2604C79.2604 25.712 78.9884 26.848 78.4444 27.856C77.9164 28.848 77.1884 29.64 76.2604 30.232C75.3324 30.808 74.2844 31.096 73.1164 31.096ZM73.5964 28.936C74.4124 28.936 75.1404 28.744 75.7804 28.36C76.4204 27.96 76.9244 27.424 77.2924 26.752C77.6604 26.064 77.8444 25.296 77.8444 24.448C77.8444 23.584 77.6604 22.816 77.2924 22.144C76.9244 21.456 76.4204 20.92 75.7804 20.536C75.1404 20.136 74.4124 19.936 73.5964 19.936C72.7964 19.936 72.0684 20.136 71.4124 20.536C70.7724 20.92 70.2604 21.456 69.8764 22.144C69.5084 22.816 69.3244 23.584 69.3244 24.448C69.3244 25.296 69.5084 26.064 69.8764 26.752C70.2604 27.424 70.7724 27.96 71.4124 28.36C72.0684 28.744 72.7964 28.936 73.5964 28.936ZM78.9724 31.024C78.6204 31.024 78.3244 30.912 78.0844 30.688C77.8604 30.448 77.7484 30.152 77.7484 29.8V26.128L78.2044 23.584L80.1964 24.448V29.8C80.1964 30.152 80.0764 30.448 79.8364 30.688C79.6124 30.912 79.3244 31.024 78.9724 31.024ZM86.9597 31C86.2557 31 85.6317 30.808 85.0877 30.424C84.5437 30.04 84.1197 29.52 83.8157 28.864C83.5117 28.192 83.3597 27.424 83.3597 26.56V13.456C83.3597 13.104 83.4717 12.816 83.6957 12.592C83.9197 12.368 84.2077 12.256 84.5597 12.256C84.9117 12.256 85.1997 12.368 85.4237 12.592C85.6477 12.816 85.7597 13.104 85.7597 13.456V26.56C85.7597 27.152 85.8717 27.64 86.0957 28.024C86.3197 28.408 86.6077 28.6 86.9597 28.6H87.5597C87.8797 28.6 88.1357 28.712 88.3277 28.936C88.5357 29.16 88.6397 29.448 88.6397 29.8C88.6397 30.152 88.4877 30.44 88.1837 30.664C87.8797 30.888 87.4877 31 87.0077 31H86.9597ZM96.4764 31.096C95.1484 31.096 93.9644 30.816 92.9244 30.256C91.9004 29.68 91.0924 28.896 90.5004 27.904C89.9244 26.896 89.6364 25.744 89.6364 24.448C89.6364 23.136 89.9084 21.984 90.4524 20.992C91.0124 19.984 91.7804 19.2 92.7564 18.64C93.7324 18.064 94.8524 17.776 96.1164 17.776C97.3644 17.776 98.4364 18.056 99.3324 18.616C100.228 19.16 100.908 19.92 101.372 20.896C101.852 21.856 102.092 22.968 102.092 24.232C102.092 24.536 101.988 24.792 101.78 25C101.572 25.192 101.308 25.288 100.988 25.288H91.3164V23.368H100.916L99.9324 24.04C99.9164 23.24 99.7564 22.528 99.4524 21.904C99.1484 21.264 98.7164 20.76 98.1564 20.392C97.5964 20.024 96.9164 19.84 96.1164 19.84C95.2044 19.84 94.4204 20.04 93.7644 20.44C93.1244 20.84 92.6364 21.392 92.3004 22.096C91.9644 22.784 91.7964 23.568 91.7964 24.448C91.7964 25.328 91.9964 26.112 92.3964 26.8C92.7964 27.488 93.3484 28.032 94.0524 28.432C94.7564 28.832 95.5644 29.032 96.4764 29.032C96.9724 29.032 97.4764 28.944 97.9884 28.768C98.5164 28.576 98.9404 28.36 99.2604 28.12C99.5004 27.944 99.7564 27.856 100.028 27.856C100.316 27.84 100.564 27.92 100.772 28.096C101.044 28.336 101.188 28.6 101.204 28.888C101.22 29.176 101.092 29.424 100.82 29.632C100.276 30.064 99.5964 30.416 98.7804 30.688C97.9804 30.96 97.2124 31.096 96.4764 31.096ZM116.303 31.024C115.951 31.024 115.655 30.912 115.415 30.688C115.191 30.448 115.079 30.152 115.079 29.8V23.896C115.079 22.984 114.911 22.24 114.575 21.664C114.239 21.088 113.783 20.664 113.207 20.392C112.647 20.104 111.999 19.96 111.263 19.96C110.591 19.96 109.983 20.096 109.439 20.368C108.895 20.64 108.463 21.008 108.143 21.472C107.823 21.92 107.663 22.44 107.663 23.032H106.151C106.151 22.024 106.391 21.128 106.871 20.344C107.367 19.544 108.039 18.912 108.887 18.448C109.735 17.984 110.687 17.752 111.743 17.752C112.847 17.752 113.831 17.992 114.695 18.472C115.575 18.936 116.263 19.624 116.759 20.536C117.271 21.448 117.527 22.568 117.527 23.896V29.8C117.527 30.152 117.407 30.448 117.167 30.688C116.943 30.912 116.655 31.024 116.303 31.024ZM106.439 31.024C106.087 31.024 105.791 30.912 105.551 30.688C105.327 30.448 105.215 30.152 105.215 29.8V19.096C105.215 18.728 105.327 18.432 105.551 18.208C105.791 17.984 106.087 17.872 106.439 17.872C106.807 17.872 107.103 17.984 107.327 18.208C107.551 18.432 107.663 18.728 107.663 19.096V29.8C107.663 30.152 107.551 30.448 107.327 30.688C107.103 30.912 106.807 31.024 106.439 31.024ZM123.038 31C122.686 31 122.39 30.888 122.15 30.664C121.926 30.424 121.814 30.128 121.814 29.776V19.096C121.814 18.728 121.926 18.432 122.15 18.208C122.39 17.984 122.686 17.872 123.038 17.872C123.406 17.872 123.702 17.984 123.926 18.208C124.15 18.432 124.262 18.728 124.262 19.096V29.776C124.262 30.128 124.15 30.424 123.926 30.664C123.702 30.888 123.406 31 123.038 31ZM123.038 15.736C122.606 15.736 122.23 15.584 121.91 15.28C121.606 14.96 121.454 14.584 121.454 14.152C121.454 13.72 121.606 13.352 121.91 13.048C122.23 12.728 122.606 12.568 123.038 12.568C123.47 12.568 123.838 12.728 124.142 13.048C124.462 13.352 124.622 13.72 124.622 14.152C124.622 14.584 124.462 14.96 124.142 15.28C123.838 15.584 123.47 15.736 123.038 15.736ZM134.288 31.096C133.088 31.096 132.024 30.816 131.096 30.256C130.184 29.68 129.464 28.896 128.936 27.904C128.408 26.896 128.144 25.744 128.144 24.448C128.144 23.136 128.424 21.984 128.984 20.992C129.56 19.984 130.344 19.2 131.336 18.64C132.328 18.064 133.472 17.776 134.768 17.776C136.048 17.776 137.184 18.064 138.176 18.64C139.168 19.2 139.944 19.984 140.504 20.992C141.08 21.984 141.368 23.136 141.368 24.448H139.952C139.952 25.744 139.704 26.896 139.208 27.904C138.728 28.896 138.064 29.68 137.216 30.256C136.368 30.816 135.392 31.096 134.288 31.096ZM134.72 36.448C133.584 36.448 132.52 36.224 131.528 35.776C130.536 35.328 129.696 34.672 129.008 33.808C128.8 33.536 128.72 33.256 128.768 32.968C128.832 32.68 128.992 32.448 129.248 32.272C129.536 32.08 129.832 32.016 130.136 32.08C130.456 32.144 130.712 32.304 130.904 32.56C131.336 33.104 131.88 33.528 132.536 33.832C133.192 34.136 133.936 34.288 134.768 34.288C135.536 34.288 136.24 34.104 136.88 33.736C137.536 33.368 138.056 32.824 138.44 32.104C138.824 31.384 139.016 30.504 139.016 29.464V26.056L139.808 23.944L141.368 24.448V29.632C141.368 30.896 141.088 32.04 140.528 33.064C139.968 34.104 139.184 34.928 138.176 35.536C137.184 36.144 136.032 36.448 134.72 36.448ZM134.768 28.936C135.6 28.936 136.336 28.744 136.976 28.36C137.616 27.976 138.112 27.448 138.464 26.776C138.832 26.104 139.016 25.328 139.016 24.448C139.016 23.568 138.832 22.792 138.464 22.12C138.112 21.432 137.616 20.896 136.976 20.512C136.336 20.128 135.6 19.936 134.768 19.936C133.936 19.936 133.2 20.128 132.56 20.512C131.92 20.896 131.416 21.432 131.048 22.12C130.68 22.792 130.496 23.568 130.496 24.448C130.496 25.328 130.68 26.104 131.048 26.776C131.416 27.448 131.92 27.976 132.56 28.36C133.2 28.744 133.936 28.936 134.768 28.936ZM156.1 31.024C155.748 31.024 155.452 30.912 155.212 30.688C154.988 30.448 154.876 30.152 154.876 29.8V23.896C154.876 22.984 154.708 22.24 154.372 21.664C154.036 21.088 153.58 20.664 153.004 20.392C152.444 20.104 151.796 19.96 151.06 19.96C150.388 19.96 149.78 20.096 149.236 20.368C148.692 20.64 148.26 21.008 147.94 21.472C147.62 21.92 147.46 22.44 147.46 23.032H145.948C145.948 22.024 146.188 21.128 146.668 20.344C147.164 19.544 147.836 18.912 148.684 18.448C149.532 17.984 150.484 17.752 151.54 17.752C152.644 17.752 153.628 17.992 154.492 18.472C155.372 18.936 156.06 19.624 156.556 20.536C157.068 21.448 157.324 22.568 157.324 23.896V29.8C157.324 30.152 157.204 30.448 156.964 30.688C156.74 30.912 156.452 31.024 156.1 31.024ZM146.236 31.024C145.884 31.024 145.588 30.912 145.348 30.688C145.124 30.448 145.012 30.152 145.012 29.8V19.096C145.012 18.728 145.124 18.432 145.348 18.208C145.588 17.984 145.884 17.872 146.236 17.872C146.604 17.872 146.9 17.984 147.124 18.208C147.348 18.432 147.46 18.728 147.46 19.096V29.8C147.46 30.152 147.348 30.448 147.124 30.688C146.9 30.912 146.604 31.024 146.236 31.024ZM146.236 26.224C145.884 26.224 145.588 26.112 145.348 25.888C145.124 25.648 145.012 25.352 145.012 25V13.48C145.012 13.112 145.124 12.816 145.348 12.592C145.588 12.368 145.884 12.256 146.236 12.256C146.604 12.256 146.9 12.368 147.124 12.592C147.348 12.816 147.46 13.112 147.46 13.48V25C147.46 25.352 147.348 25.648 147.124 25.888C146.9 26.112 146.604 26.224 146.236 26.224ZM166.17 31C165.37 31 164.65 30.8 164.01 30.4C163.37 29.984 162.866 29.424 162.498 28.72C162.13 28.016 161.946 27.224 161.946 26.344V14.896C161.946 14.544 162.058 14.256 162.282 14.032C162.506 13.808 162.794 13.696 163.146 13.696C163.498 13.696 163.786 13.808 164.01 14.032C164.234 14.256 164.346 14.544 164.346 14.896V26.344C164.346 26.984 164.522 27.52 164.874 27.952C165.226 28.384 165.658 28.6 166.17 28.6H166.986C167.274 28.6 167.514 28.712 167.706 28.936C167.914 29.16 168.018 29.448 168.018 29.8C168.018 30.152 167.882 30.44 167.61 30.664C167.354 30.888 167.018 31 166.602 31H166.17ZM160.842 20.416C160.506 20.416 160.234 20.32 160.026 20.128C159.818 19.936 159.714 19.696 159.714 19.408C159.714 19.088 159.818 18.832 160.026 18.64C160.234 18.448 160.506 18.352 160.842 18.352H166.386C166.722 18.352 166.994 18.448 167.202 18.64C167.41 18.832 167.514 19.088 167.514 19.408C167.514 19.696 167.41 19.936 167.202 20.128C166.994 20.32 166.722 20.416 166.386 20.416H160.842Z" fill="#404451"/>
<circle cx="19" cy="21" r="13" fill="url(#paint0_linear)"/>
<path d="M19 1L19 4" stroke="#4B515D" stroke-width="2" stroke-linecap="round"/>
<path d="M19 38V41" stroke="#4B515D" stroke-width="2" stroke-linecap="round"/>
<path d="M36.3205 11L33.7224 12.5" stroke="#4B515D" stroke-width="2" stroke-linecap="round"/>
<path d="M4.27757 29.5L1.6795 31" stroke="#4B515D" stroke-width="2" stroke-linecap="round"/>
<path d="M1.67949 11L4.27757 12.5" stroke="#4B515D" stroke-width="2" stroke-linecap="round"/>
<path d="M33.7224 29.5L36.3205 31" stroke="#4B515D" stroke-width="2" stroke-linecap="round"/>
<path d="M28 5.41154L27.5 6.27757" stroke="#4B515D" stroke-width="2" stroke-linecap="round"/>
<path d="M10.5 35.7224L10 36.5885" stroke="#4B515D" stroke-width="2" stroke-linecap="round"/>
<path d="M37 21L36 21" stroke="#4B515D" stroke-width="2" stroke-linecap="round"/>
<path d="M2 21L1 21" stroke="#4B515D" stroke-width="2" stroke-linecap="round"/>
<path d="M10 5.41154L10.5 6.27757" stroke="#4B515D" stroke-width="2" stroke-linecap="round"/>
<path d="M27.5 35.7224L28 36.5885" stroke="#4B515D" stroke-width="2" stroke-linecap="round"/>
<defs>
<linearGradient id="paint0_linear" x1="9.61111" y1="11.6111" x2="28.0278" y2="30.75" gradientUnits="userSpaceOnUse">
<stop stop-color="#5A616F"/>
<stop offset="1" stop-color="#434954"/>
</linearGradient>
</defs>
</svg>
