<svg width="184" height="36" viewBox="0 0 184 36" fill="none" xmlns="http://www.w3.org/2000/svg">
<path d="M9.27558 26.9018C19.0582 26.9018 26.9886 18.9714 26.9886 9.1888C26.9886 6.71234 26.4804 4.35458 25.5626 2.21413C30.625 5.33193 34 10.9255 34 17.3073C34 27.0899 26.0696 35.0203 16.287 35.0203C8.98081 35.0203 2.7078 30.5968 0 24.2819C2.69777 25.9434 5.87475 26.9018 9.27558 26.9018Z" fill="url(#paint0_linear)"/>
<path d="M12.2616 3.83214L13.3183 0L14.3751 3.83214L18.4511 5.05843L14.526 5.97814L13.4693 9.96357L12.7145 6.13143L8.48749 4.59857L12.2616 3.83214Z" fill="url(#paint1_linear)"/>
<path d="M2.37627 12.0074L3.04163 9.59455L3.70699 12.0074L6.27336 12.7795L3.80204 13.3586L3.13668 15.8679L2.66143 13.4551L0 12.4899L2.37627 12.0074Z" fill="url(#paint2_linear)"/>
<path d="M13.4357 17.5143L13.788 16.2369L14.1402 17.5143L15.4989 17.9231L14.1905 18.2296L13.8383 19.5581L13.5867 18.2807L12.1777 17.7698L13.4357 17.5143Z" fill="url(#paint3_linear)"/>
<path d="M53.648 30C53.296 30 53 29.88 52.76 29.64C52.52 29.4 52.4 29.104 52.4 28.752V12.504C52.4 12.136 52.52 11.84 52.76 11.616C53 11.376 53.296 11.256 53.648 11.256H58.448C59.648 11.256 60.712 11.52 61.64 12.048C62.568 12.576 63.288 13.312 63.8 14.256C64.328 15.184 64.592 16.256 64.592 17.472C64.592 18.64 64.328 19.68 63.8 20.592C63.288 21.504 62.568 22.216 61.64 22.728C60.712 23.24 59.648 23.496 58.448 23.496H54.896V28.752C54.896 29.104 54.776 29.4 54.536 29.64C54.312 29.88 54.016 30 53.648 30ZM54.896 21.192H58.448C59.536 21.192 60.432 20.848 61.136 20.16C61.84 19.456 62.192 18.56 62.192 17.472C62.192 16.704 62.032 16.032 61.712 15.456C61.392 14.864 60.952 14.4 60.392 14.064C59.832 13.728 59.184 13.56 58.448 13.56H54.896V21.192ZM72.1164 30.096C70.9484 30.096 69.9004 29.808 68.9724 29.232C68.0444 28.64 67.3084 27.848 66.7644 26.856C66.2364 25.848 65.9724 24.712 65.9724 23.448C65.9724 22.184 66.2604 21.048 66.8364 20.04C67.4284 19.032 68.2204 18.24 69.2124 17.664C70.2204 17.072 71.3484 16.776 72.5964 16.776C73.8444 16.776 74.9644 17.072 75.9564 17.664C76.9484 18.24 77.7324 19.032 78.3084 20.04C78.9004 21.048 79.1964 22.184 79.1964 23.448V28.8C79.1964 29.152 79.0764 29.448 78.8364 29.688C78.6124 29.912 78.3244 30.024 77.9724 30.024C77.6204 30.024 77.3244 29.912 77.0844 29.688C76.8604 29.448 76.7484 29.152 76.7484 28.8V27.912C76.1884 28.584 75.5084 29.12 74.7084 29.52C73.9244 29.904 73.0604 30.096 72.1164 30.096ZM72.5964 27.936C73.4124 27.936 74.1404 27.744 74.7804 27.36C75.4204 26.96 75.9244 26.424 76.2924 25.752C76.6604 25.064 76.8444 24.296 76.8444 23.448C76.8444 22.584 76.6604 21.816 76.2924 21.144C75.9244 20.456 75.4204 19.92 74.7804 19.536C74.1404 19.136 73.4124 18.936 72.5964 18.936C71.7964 18.936 71.0684 19.136 70.4124 19.536C69.7724 19.92 69.2604 20.456 68.8764 21.144C68.5084 21.816 68.3244 22.584 68.3244 23.448C68.3244 24.296 68.5084 25.064 68.8764 25.752C69.2604 26.424 69.7724 26.96 70.4124 27.36C71.0684 27.744 71.7964 27.936 72.5964 27.936ZM85.9597 30C85.2557 30 84.6317 29.808 84.0877 29.424C83.5437 29.04 83.1197 28.52 82.8157 27.864C82.5117 27.192 82.3597 26.424 82.3597 25.56V12.456C82.3597 12.104 82.4717 11.816 82.6957 11.592C82.9197 11.368 83.2077 11.256 83.5597 11.256C83.9117 11.256 84.1997 11.368 84.4237 11.592C84.6477 11.816 84.7597 12.104 84.7597 12.456V25.56C84.7597 26.152 84.8717 26.64 85.0957 27.024C85.3197 27.408 85.6077 27.6 85.9597 27.6H86.5597C86.8797 27.6 87.1357 27.712 87.3277 27.936C87.5357 28.16 87.6397 28.448 87.6397 28.8C87.6397 29.152 87.4877 29.44 87.1837 29.664C86.8797 29.888 86.4877 30 86.0077 30H85.9597ZM95.4764 30.096C94.1484 30.096 92.9644 29.816 91.9244 29.256C90.9004 28.68 90.0924 27.896 89.5004 26.904C88.9244 25.896 88.6364 24.744 88.6364 23.448C88.6364 22.136 88.9084 20.984 89.4524 19.992C90.0124 18.984 90.7804 18.2 91.7564 17.64C92.7324 17.064 93.8524 16.776 95.1164 16.776C96.3644 16.776 97.4364 17.056 98.3324 17.616C99.2284 18.16 99.9084 18.92 100.372 19.896C100.852 20.856 101.092 21.968 101.092 23.232C101.092 23.536 100.988 23.792 100.78 24C100.572 24.192 100.308 24.288 99.9884 24.288H90.8684C91.0444 25.392 91.5484 26.296 92.3804 27C93.2284 27.688 94.2604 28.032 95.4764 28.032C95.9724 28.032 96.4764 27.944 96.9884 27.768C97.5164 27.576 97.9404 27.36 98.2604 27.12C98.5004 26.944 98.7564 26.856 99.0284 26.856C99.3164 26.84 99.5644 26.92 99.7724 27.096C100.044 27.336 100.188 27.6 100.204 27.888C100.22 28.176 100.092 28.424 99.8204 28.632C99.2764 29.064 98.5964 29.416 97.7804 29.688C96.9804 29.96 96.2124 30.096 95.4764 30.096ZM95.1164 18.84C93.9324 18.84 92.9804 19.168 92.2604 19.824C91.5404 20.48 91.0844 21.328 90.8924 22.368H98.8844C98.7404 21.344 98.3484 20.504 97.7084 19.848C97.0684 19.176 96.2044 18.84 95.1164 18.84ZM105.439 30.024C105.087 30.024 104.791 29.912 104.551 29.688C104.327 29.448 104.215 29.152 104.215 28.8V18.096C104.215 17.728 104.327 17.432 104.551 17.208C104.791 16.984 105.087 16.872 105.439 16.872C105.807 16.872 106.103 16.984 106.327 17.208C106.551 17.432 106.663 17.728 106.663 18.096V18.36C107.159 17.864 107.759 17.472 108.463 17.184C109.167 16.896 109.927 16.752 110.743 16.752C111.847 16.752 112.831 16.992 113.695 17.472C114.575 17.936 115.263 18.624 115.759 19.536C116.271 20.448 116.527 21.568 116.527 22.896V28.8C116.527 29.152 116.407 29.448 116.167 29.688C115.943 29.912 115.655 30.024 115.303 30.024C114.951 30.024 114.655 29.912 114.415 29.688C114.191 29.448 114.079 29.152 114.079 28.8V22.896C114.079 21.536 113.711 20.544 112.975 19.92C112.255 19.28 111.351 18.96 110.263 18.96C109.591 18.96 108.983 19.096 108.439 19.368C107.895 19.64 107.463 20.008 107.143 20.472C106.823 20.92 106.663 21.44 106.663 22.032V28.8C106.663 29.152 106.551 29.448 106.327 29.688C106.103 29.912 105.807 30.024 105.439 30.024ZM122.038 30C121.686 30 121.39 29.888 121.15 29.664C120.926 29.424 120.814 29.128 120.814 28.776V18.096C120.814 17.728 120.926 17.432 121.15 17.208C121.39 16.984 121.686 16.872 122.038 16.872C122.406 16.872 122.702 16.984 122.926 17.208C123.15 17.432 123.262 17.728 123.262 18.096V28.776C123.262 29.128 123.15 29.424 122.926 29.664C122.702 29.888 122.406 30 122.038 30ZM122.038 14.736C121.606 14.736 121.23 14.584 120.91 14.28C120.606 13.96 120.454 13.584 120.454 13.152C120.454 12.72 120.606 12.352 120.91 12.048C121.23 11.728 121.606 11.568 122.038 11.568C122.47 11.568 122.838 11.728 123.142 12.048C123.462 12.352 123.622 12.72 123.622 13.152C123.622 13.584 123.462 13.96 123.142 14.28C122.838 14.584 122.47 14.736 122.038 14.736ZM133.288 30.096C132.088 30.096 131.024 29.816 130.096 29.256C129.184 28.68 128.464 27.896 127.936 26.904C127.408 25.896 127.144 24.744 127.144 23.448C127.144 22.136 127.424 20.984 127.984 19.992C128.56 18.984 129.344 18.2 130.336 17.64C131.328 17.064 132.472 16.776 133.768 16.776C135.048 16.776 136.184 17.064 137.176 17.64C138.168 18.2 138.944 18.984 139.504 19.992C140.08 20.984 140.368 22.136 140.368 23.448V28.632C140.368 29.896 140.088 31.04 139.528 32.064C138.968 33.104 138.184 33.928 137.176 34.536C136.184 35.144 135.032 35.448 133.72 35.448C132.584 35.448 131.52 35.224 130.528 34.776C129.536 34.328 128.696 33.672 128.008 32.808C127.8 32.536 127.72 32.256 127.768 31.968C127.832 31.68 127.992 31.448 128.248 31.272C128.536 31.08 128.832 31.016 129.136 31.08C129.456 31.144 129.712 31.304 129.904 31.56C130.336 32.104 130.88 32.528 131.536 32.832C132.192 33.136 132.936 33.288 133.768 33.288C134.536 33.288 135.24 33.104 135.88 32.736C136.536 32.368 137.056 31.824 137.44 31.104C137.824 30.384 138.016 29.504 138.016 28.464V27.288C137.52 28.152 136.864 28.84 136.048 29.352C135.232 29.848 134.312 30.096 133.288 30.096ZM133.768 27.936C134.6 27.936 135.336 27.744 135.976 27.36C136.616 26.976 137.112 26.448 137.464 25.776C137.832 25.104 138.016 24.328 138.016 23.448C138.016 22.568 137.832 21.792 137.464 21.12C137.112 20.432 136.616 19.896 135.976 19.512C135.336 19.128 134.6 18.936 133.768 18.936C132.936 18.936 132.2 19.128 131.56 19.512C130.92 19.896 130.416 20.432 130.048 21.12C129.68 21.792 129.496 22.568 129.496 23.448C129.496 24.328 129.68 25.104 130.048 25.776C130.416 26.448 130.92 26.976 131.56 27.36C132.2 27.744 132.936 27.936 133.768 27.936ZM145.236 30.024C144.884 30.024 144.588 29.912 144.348 29.688C144.124 29.448 144.012 29.152 144.012 28.8V18.096C144.012 17.728 144.124 17.432 144.348 17.208C144.588 16.984 144.884 16.872 145.236 16.872C145.604 16.872 145.9 16.984 146.124 17.208C146.348 17.432 146.46 17.728 146.46 18.096V18.36C146.956 17.864 147.556 17.472 148.26 17.184C148.964 16.896 149.724 16.752 150.54 16.752C151.644 16.752 152.628 16.992 153.492 17.472C154.372 17.936 155.06 18.624 155.556 19.536C156.068 20.448 156.324 21.568 156.324 22.896V28.8C156.324 29.152 156.204 29.448 155.964 29.688C155.74 29.912 155.452 30.024 155.1 30.024C154.748 30.024 154.452 29.912 154.212 29.688C153.988 29.448 153.876 29.152 153.876 28.8V22.896C153.876 21.536 153.508 20.544 152.772 19.92C152.052 19.28 151.148 18.96 150.06 18.96C149.388 18.96 148.78 19.096 148.236 19.368C147.692 19.64 147.26 20.008 146.94 20.472C146.62 20.92 146.46 21.44 146.46 22.032V28.8C146.46 29.152 146.348 29.448 146.124 29.688C145.9 29.912 145.604 30.024 145.236 30.024ZM145.236 25.224C144.884 25.224 144.588 25.112 144.348 24.888C144.124 24.648 144.012 24.352 144.012 24V12.48C144.012 12.112 144.124 11.816 144.348 11.592C144.588 11.368 144.884 11.256 145.236 11.256C145.604 11.256 145.9 11.368 146.124 11.592C146.348 11.816 146.46 12.112 146.46 12.48V24C146.46 24.352 146.348 24.648 146.124 24.888C145.9 25.112 145.604 25.224 145.236 25.224ZM165.17 30C164.37 30 163.65 29.8 163.01 29.4C162.37 28.984 161.866 28.424 161.498 27.72C161.13 27.016 160.946 26.224 160.946 25.344V19.416H159.842C159.506 19.416 159.234 19.32 159.026 19.128C158.818 18.936 158.714 18.696 158.714 18.408C158.714 18.088 158.818 17.832 159.026 17.64C159.234 17.448 159.506 17.352 159.842 17.352H160.946V13.896C160.946 13.544 161.058 13.256 161.282 13.032C161.506 12.808 161.794 12.696 162.146 12.696C162.498 12.696 162.786 12.808 163.01 13.032C163.234 13.256 163.346 13.544 163.346 13.896V17.352H165.386C165.722 17.352 165.994 17.448 166.202 17.64C166.41 17.832 166.514 18.088 166.514 18.408C166.514 18.696 166.41 18.936 166.202 19.128C165.994 19.32 165.722 19.416 165.386 19.416H163.346V25.344C163.346 25.984 163.522 26.52 163.874 26.952C164.226 27.384 164.658 27.6 165.17 27.6H165.986C166.274 27.6 166.514 27.712 166.706 27.936C166.914 28.16 167.018 28.448 167.018 28.8C167.018 29.152 166.882 29.44 166.61 29.664C166.354 29.888 166.018 30 165.602 30H165.17Z" fill="#C1DFEC"/>
<defs>
<linearGradient id="paint0_linear" x1="16.287" y1="-0.405757" x2="16.287" y2="35.0203" gradientUnits="userSpaceOnUse">
<stop stop-color="#DDF6FE"/>
<stop offset="1" stop-color="#AACBDD"/>
</linearGradient>
<linearGradient id="paint1_linear" x1="13.2603" y1="-0.795686" x2="13.2603" y2="9.96357" gradientUnits="userSpaceOnUse">
<stop stop-color="#DDF6FE"/>
<stop offset="1" stop-color="#AACBDD"/>
</linearGradient>
<linearGradient id="paint2_linear" x1="3.00512" y1="9.09356" x2="3.00512" y2="15.8679" gradientUnits="userSpaceOnUse">
<stop stop-color="#DDF6FE"/>
<stop offset="1" stop-color="#AACBDD"/>
</linearGradient>
<linearGradient id="paint3_linear" x1="13.7687" y1="15.9717" x2="13.7687" y2="19.5581" gradientUnits="userSpaceOnUse">
<stop stop-color="#DDF6FE"/>
<stop offset="1" stop-color="#AACBDD"/>
</linearGradient>
</defs>
</svg>
