<svg width="48" height="48" viewBox="0 0 48 48" fill="none" xmlns="http://www.w3.org/2000/svg">
<path fill-rule="evenodd" clip-rule="evenodd" d="M24 3.6923C12.7844 3.6923 3.69231 12.7844 3.6923 24C3.6923 35.2156 12.7844 44.3077 24 44.3077C35.2156 44.3077 44.3077 35.2156 44.3077 24C44.3077 12.7844 35.2156 3.6923 24 3.6923ZM24 -5.91284e-06C10.7452 -7.07162e-06 -5.57776e-07 10.7452 -1.71655e-06 24C-2.87532e-06 37.2548 10.7452 48 24 48C37.2548 48 48 37.2548 48 24C48 10.7452 37.2548 -4.75407e-06 24 -5.91284e-06Z" fill="white"/>
<path d="M21.5 20.5L21.5 36L26.5 36L26.5 20.5L31 25L34 21.9999L24.0002 11.9999L14.0001 21.9999L17.0001 25L21.5 20.5Z" fill="white"/>
</svg>
