<svg width="16" height="16" viewBox="0 0 16 16" fill="none" xmlns="http://www.w3.org/2000/svg">
<path fill-rule="evenodd" clip-rule="evenodd" d="M9.43441 3.90682C9.08309 3.5555 9.08309 2.9859 9.43441 2.63458C9.78573 2.28326 10.3553 2.28326 10.7066 2.63458L15.4346 7.36254C15.6468 7.57477 15.7309 7.86666 15.6867 8.14196C15.6579 8.3232 15.5737 8.49735 15.434 8.63704L10.7078 13.3632C10.356 13.715 9.78561 13.715 9.4338 13.3632C9.082 13.0114 9.082 12.4411 9.4338 12.0893L12.5228 9.00025L2 9.00024C1.44772 9.00024 1 8.55253 1 8.00024C1 7.44796 1.44772 7.00024 2 7.00024L12.5278 7.00024L9.43441 3.90682Z" fill="#3858FF"/>
</svg>
