<svg width="28" height="28" viewBox="0 0 28 28" fill="none" xmlns="http://www.w3.org/2000/svg">
<g clip-path="url(#clip0)">
<path d="M14 3.5C7.53099 3.5 2.04256 7.88686 0 14C2.04256 20.1132 7.53099 24.5 14 24.5C20.469 24.5 25.9574 20.1131 28 14C25.9574 7.88686 20.469 3.5 14 3.5ZM14 21C10.134 21 7 17.866 7 14C7 10.134 10.134 7.00003 14 7.00003C17.866 7.00003 21 10.134 21 14C21 17.8659 17.866 21 14 21Z" fill="black"/>
<path d="M16.4748 11.5251C17.8417 12.8919 17.8417 15.108 16.4748 16.4748C15.108 17.8417 12.8919 17.8417 11.5251 16.4748C10.1583 15.108 10.1583 12.8919 11.5251 11.5251C12.8919 10.1583 15.108 10.1583 16.4748 11.5251Z" fill="black"/>
</g>
<defs>
<clipPath id="clip0">
<rect width="28" height="28" fill="white"/>
</clipPath>
</defs>
</svg>
