<svg width="12" height="16" viewBox="0 0 12 16" fill="none" xmlns="http://www.w3.org/2000/svg">
<path d="M5.9996 0C2.75189 0 0.109375 2.64251 0.109375 5.89056C0.109375 6.73777 0.282781 7.54667 0.624516 8.29499C2.09724 11.5176 4.92085 14.9201 5.75137 15.886C5.81359 15.9582 5.90431 15.9998 5.99977 15.9998C6.09523 15.9998 6.18595 15.9582 6.24817 15.886C7.07836 14.9203 9.90197 11.518 11.3752 8.29499C11.7171 7.54667 11.8903 6.73777 11.8903 5.89056C11.89 2.64251 9.24748 0 5.9996 0ZM5.9996 8.95013C4.31254 8.95013 2.93987 7.57746 2.93987 5.89039C2.93987 4.20317 4.31254 2.83049 5.9996 2.83049C7.68667 2.83049 9.05934 4.20317 9.05934 5.89039C9.05951 7.57746 7.68683 8.95013 5.9996 8.95013Z" fill="black"/>
</svg>
