<svg width="285" height="285" viewBox="0 0 285 285" fill="none" xmlns="http://www.w3.org/2000/svg">
<g clip-path="url(#clip0)">
<path fill-rule="evenodd" clip-rule="evenodd" d="M0 142.5C0 261.2 23.7 285 142.5 285C261.2 285 285 261.2 285 142.5C285 23.8 261.2 0 142.5 0C23.7 0 0 23.8 0 142.5ZM143 232C192.2 232 232 192.2 232 143C232 93.8 192.2 54 143 54C93.8 54 54 93.8 54 143C54 192.2 93.8 232 143 232Z" fill="#313542"/>
<path d="M115.6 72.7998H169.4V142.2H196.3L142.5 209L88.7 142.2H115.6V72.7998Z" fill="#282B34"/>
<path fill-rule="evenodd" clip-rule="evenodd" d="M223.8 105.6C224 106 224.2 106.4 224.4 106.9C224.5 107.2 224.6 107.5 224.8 107.7C225 108.1 225.2 108.5 225.3 109C225.4 109.3 225.5 109.6 225.7 109.9C225.9 110.3 226 110.8 226.2 111.2C226.3 111.5 226.4 111.8 226.5 112.1C226.7 112.5 226.8 113 227 113.4C227.1 113.7 227.2 114 227.3 114.2C227.5 114.7 227.6 115.2 227.8 115.6C227.9 115.9 228 116.1 228 116.4C228.2 117 228.4 117.5 228.5 118.1C228.5 118.3 228.6 118.4 228.6 118.6C228.8 119.3 229 120.1 229.2 120.9C229.2 121 229.3 121.2 229.3 121.3C229.5 121.9 229.6 122.5 229.8 123.2C229.9 123.5 229.9 123.7 230 124C230.1 124.5 230.2 125 230.3 125.5C230.4 125.8 230.4 126.1 230.5 126.4C230.6 126.9 230.7 127.3 230.8 127.8C230.9 128.1 230.9 128.4 231 128.8C231.1 129.3 231.1 129.7 231.2 130.2C231.2 130.5 231.3 130.9 231.3 131.2C231.4 131.7 231.4 132.1 231.5 132.6C231.5 132.9 231.6 133.3 231.6 133.6C231.7 134.1 231.7 134.5 231.7 135C231.7 135.3 231.8 135.7 231.8 136C231.8 136.5 231.9 137 231.9 137.5C231.9 137.8 231.9 138.1 232 138.4C232 138.9 232 139.5 232.1 140C232.1 140.3 232.1 140.5 232.1 140.8C232.1 141.6 232.1 142.4 232.1 143.2H285.1C285.1 143 285.1 142.9 285.1 142.7C285.1 129 284.8 116.5 284 105.2H223.6C223.6 105.2 223.7 105.4 223.8 105.6Z" fill="#FEDD67"/>
<path fill-rule="evenodd" clip-rule="evenodd" d="M54 143C54 142.2 54 141.4 54 140.6C54 140.4 54 140.1 54 139.9C54 139.3 54 138.8 54.1 138.2C54.1 137.9 54.1 137.6 54.2 137.3C54.2 136.8 54.3 136.3 54.3 135.8C54.3 135.5 54.4 135.2 54.4 134.8C54.4 134.3 54.5 133.8 54.5 133.4C54.5 133.1 54.6 132.8 54.6 132.4C54.7 131.9 54.7 131.5 54.8 131C54.8 130.7 54.9 130.4 54.9 130C55 129.5 55 129.1 55.1 128.6C55.2 128.3 55.2 128 55.3 127.7C55.4 127.2 55.5 126.7 55.6 126.3C55.7 126 55.7 125.7 55.8 125.4C55.9 124.9 56 124.4 56.1 123.9C56.2 123.6 56.2 123.4 56.3 123.1C56.4 122.5 56.6 121.9 56.8 121.2C56.8 121.1 56.9 120.9 56.9 120.8C57.1 120 57.3 119.3 57.5 118.5C57.5 118.3 57.6 118.2 57.6 118C57.8 117.4 57.9 116.9 58.1 116.3C58.2 116 58.3 115.8 58.4 115.5C58.6 115 58.7 114.6 58.9 114.1C59 113.8 59.1 113.5 59.2 113.2C59.4 112.8 59.5 112.3 59.7 111.9C59.8 111.6 59.9 111.3 60 111C60.2 110.6 60.3 110.1 60.5 109.7C60.6 109.4 60.7 109.1 60.9 108.8C61.1 108.4 61.3 108 61.4 107.5C61.5 107.2 61.6 106.9 61.8 106.6C62 106.2 62.2 105.8 62.4 105.3C62.5 105.1 62.6 104.9 62.7 104.7H1.1C0.3 116.3 0 128.8 0 142.5C0 142.7 0 142.8 0 143H54Z" fill="#FEDD67"/>
<path fill-rule="evenodd" clip-rule="evenodd" d="M1.1001 105H62.5001C62.5001 104.9 62.6001 104.9 62.6001 104.8C63.0001 103.9 63.4001 103.1 63.9001 102.2C64.0001 102 64.1001 101.9 64.1001 101.7C64.5001 101 64.9001 100.2 65.3001 99.4999C65.4001 99.2999 65.5001 99.1999 65.6001 98.9999C66.1001 98.1999 66.6001 97.2999 67.1001 96.4999C67.2001 96.2999 67.3001 96.1999 67.4001 95.9999C67.8001 95.2999 68.3001 94.5999 68.7001 93.8999C68.8001 93.6999 68.9001 93.5999 69.0001 93.3999C69.5001 92.5999 70.1001 91.7999 70.6001 91.0999C70.7001 90.8999 70.8001 90.7999 70.9001 90.5999C71.4001 89.8999 71.9001 89.2999 72.4001 88.5999C72.5001 88.4999 72.6001 88.2999 72.7001 88.1999C73.3001 87.4999 73.9001 86.6999 74.5001 85.9999C74.6001 85.7999 74.8001 85.6999 74.9001 85.4999C75.4001 84.8999 76.0001 84.1999 76.5001 83.5999C76.6001 83.4999 76.7001 83.2999 76.8001 83.1999C77.4001 82.4999 78.1001 81.7999 78.7001 81.0999C78.8001 80.8999 79.0001 80.7999 79.1001 80.5999C79.7001 79.9999 80.3001 79.3999 80.9001 78.7999C81.0001 78.6999 81.1001 78.5999 81.2001 78.4999C81.9001 77.7999 82.6001 77.1999 83.3001 76.5999C83.5001 76.4999 83.6001 76.2999 83.8001 76.1999C84.4001 75.5999 85.1001 75.0999 85.7001 74.5999C85.8001 74.4999 85.9001 74.3999 86.0001 74.2999C86.7001 73.6999 87.5001 73.0999 88.2001 72.4999C88.4001 72.3999 88.6001 72.1999 88.7001 72.0999C89.4001 71.5999 90.0001 71.0999 90.7001 70.5999C90.8001 70.4999 90.9001 70.3999 91.0001 70.3999C91.8001 69.7999 92.6001 69.2999 93.3001 68.7999C93.5001 68.6999 93.7001 68.5999 93.9001 68.3999C94.6001 67.8999 95.3001 67.4999 96.1001 66.9999C96.2001 66.9999 96.3001 66.8999 96.3001 66.8999H6.3001C3.7001 77.8999 2.0001 90.4999 1.1001 105Z" fill="#FF4975"/>
<path fill-rule="evenodd" clip-rule="evenodd" d="M278.7 67H189.3C189.4 67.1 189.5 67.1 189.6 67.2C190.3 67.6 191 68.1 191.7 68.6C191.9 68.7 192.1 68.9 192.3 69C193.1 69.5 193.9 70.1 194.6 70.6C194.7 70.7 194.8 70.8 195 70.9C195.7 71.4 196.3 71.9 197 72.4C197.2 72.5 197.4 72.7 197.5 72.8C198.2 73.4 199 74 199.7 74.6C199.8 74.7 199.9 74.8 200.1 74.9C200.7 75.4 201.3 76 202 76.5C202.2 76.7 202.3 76.8 202.5 77C203.2 77.6 203.9 78.3 204.6 78.9C204.7 79 204.9 79.1 205 79.3C205.6 79.9 206.2 80.4 206.7 81C206.9 81.2 207 81.3 207.2 81.5C207.8 82.2 208.5 82.9 209.1 83.6C209.2 83.7 209.3 83.9 209.5 84C210 84.6 210.6 85.2 211.1 85.8C211.2 86 211.4 86.1 211.5 86.3C212.1 87 212.7 87.8 213.3 88.5C213.4 88.7 213.5 88.8 213.7 89C214.2 89.6 214.7 90.3 215.2 90.9C215.3 91.1 215.4 91.2 215.6 91.4C216.1 92.2 216.7 92.9 217.2 93.7C217.3 93.9 217.4 94 217.5 94.2C218 94.9 218.4 95.6 218.8 96.3C218.9 96.5 219 96.6 219.1 96.8C219.6 97.6 220.1 98.4 220.5 99.2C220.6 99.4 220.7 99.6 220.8 99.7C221.2 100.4 221.6 101.2 222 101.9C222.1 102.1 222.2 102.2 222.3 102.4C222.7 103.2 223.2 104.1 223.6 105C223.6 105.1 223.7 105.1 223.7 105.2H284.1C283 90.5 281.3 77.9 278.7 67Z" fill="#FF4975"/>
<path fill-rule="evenodd" clip-rule="evenodd" d="M93.7001 217.1C92.9001 216.6 92.1001 216 91.4001 215.5C91.3001 215.4 91.2001 215.3 91.1001 215.3C90.4001 214.8 89.7001 214.3 89.1001 213.8C88.9001 213.7 88.7001 213.5 88.6001 213.4C87.9001 212.8 87.1001 212.2 86.4001 211.6C86.3001 211.5 86.2001 211.4 86.1001 211.3C85.5001 210.8 84.8001 210.2 84.2001 209.7C84.0001 209.6 83.9001 209.4 83.7001 209.3C83.0001 208.7 82.3001 208 81.6001 207.4C81.5001 207.3 81.4001 207.2 81.3001 207.1C80.7001 206.5 80.1001 205.9 79.5001 205.3C79.4001 205.1 79.2001 205 79.1001 204.8C78.4001 204.1 77.8001 203.4 77.2001 202.7C77.1001 202.6 77.0001 202.4 76.8001 202.3C76.3001 201.7 75.7001 201.1 75.2001 200.4C75.1001 200.2 74.9001 200.1 74.8001 199.9C74.2001 199.2 73.6001 198.4 73.0001 197.7C72.9001 197.6 72.8001 197.4 72.7001 197.3C72.2001 196.7 71.7001 196 71.2001 195.3C71.1001 195.1 71.0001 195 70.8001 194.8C70.2001 194 69.7001 193.3 69.2001 192.5C69.1001 192.3 69.0001 192.2 68.9001 192C68.4001 191.3 68.0001 190.6 67.6001 189.9C67.5001 189.7 67.4001 189.6 67.3001 189.4C66.8001 188.6 66.3001 187.8 65.9001 186.9C65.8001 186.7 65.7001 186.5 65.6001 186.4C65.2001 185.7 64.8001 185 64.4001 184.2C64.3001 184 64.2001 183.9 64.1001 183.7C63.7001 182.9 63.2001 182 62.8001 181.1C62.8001 181 62.7001 181 62.7001 180.9H1.1001C2.1001 195.4 3.8001 208 6.5001 218.9H96.6001C96.5001 218.9 96.4001 218.8 96.4001 218.7C95.7001 218.3 95.0001 217.8 94.2001 217.3C94.1001 217.3 93.9001 217.2 93.7001 217.1Z" fill="#589CFF"/>
<path fill-rule="evenodd" clip-rule="evenodd" d="M283.9 181H223.5C223.5 181.1 223.4 181.2 223.4 181.2C223 182.1 222.6 182.9 222.1 183.7C222 183.9 221.9 184.1 221.8 184.2C221.4 184.9 221 185.6 220.7 186.3C220.6 186.5 220.5 186.7 220.4 186.9C219.9 187.7 219.5 188.5 219 189.3C218.9 189.5 218.8 189.7 218.7 189.8C218.3 190.5 217.8 191.2 217.4 191.8C217.3 192 217.2 192.2 217 192.3C216.5 193.1 215.9 193.8 215.4 194.6C215.3 194.8 215.1 194.9 215 195.1C214.5 195.7 214.1 196.4 213.6 197C213.5 197.2 213.4 197.3 213.2 197.5C212.6 198.2 212 199 211.4 199.7C211.3 199.9 211.1 200 211 200.2C210.5 200.8 210 201.4 209.4 202C209.3 202.1 209.2 202.3 209 202.4C208.4 203.1 207.7 203.8 207.1 204.5C206.9 204.7 206.8 204.8 206.6 205C206 205.6 205.5 206.2 204.9 206.7C204.8 206.8 204.7 206.9 204.5 207.1C203.8 207.7 203.1 208.4 202.4 209C202.2 209.2 202.1 209.3 201.9 209.4C201.3 209.9 200.7 210.5 200 211C199.9 211.1 199.8 211.2 199.6 211.3C198.9 211.9 198.1 212.5 197.4 213.1C197.2 213.2 197 213.4 196.8 213.5C196.1 214 195.5 214.5 194.8 215C194.7 215.1 194.6 215.2 194.4 215.3C193.6 215.8 192.9 216.4 192.1 216.9C191.9 217 191.7 217.2 191.5 217.3C190.8 217.8 190.1 218.2 189.4 218.6C189.3 218.7 189.2 218.7 189.1 218.8H278.2C281.1 208.1 282.9 195.5 283.9 181Z" fill="#589CFF"/>
<path fill-rule="evenodd" clip-rule="evenodd" d="M1.1 181H62.5C62.4 180.8 62.3 180.6 62.2 180.4C62 180 61.8 179.6 61.6 179.2C61.5 178.9 61.3 178.6 61.2 178.3C61 177.9 60.8 177.5 60.7 177.1C60.6 176.8 60.5 176.5 60.3 176.2C60.1 175.8 60 175.4 59.8 174.9C59.7 174.6 59.6 174.3 59.5 174C59.3 173.6 59.2 173.1 59 172.7C58.9 172.4 58.8 172.1 58.7 171.8C58.5 171.3 58.4 170.9 58.2 170.4C58.1 170.1 58 169.9 57.9 169.6C57.7 169.1 57.6 168.5 57.4 167.9C57.3 167.7 57.3 167.5 57.2 167.3C57 166.6 56.8 165.8 56.6 165.1C56.6 164.9 56.5 164.8 56.5 164.6C56.3 164 56.2 163.4 56.1 162.8C56 162.5 56 162.3 55.9 162C55.8 161.5 55.7 161 55.6 160.5C55.5 160.2 55.5 159.9 55.4 159.6C55.3 159.1 55.2 158.7 55.1 158.2C55 157.9 55 157.6 54.9 157.2C54.8 156.7 54.8 156.3 54.7 155.8C54.7 155.5 54.6 155.1 54.6 154.8C54.5 154.3 54.5 153.9 54.4 153.4C54.4 153.1 54.3 152.8 54.3 152.4C54.2 151.9 54.2 151.5 54.2 151C54.2 150.7 54.1 150.4 54.1 150C54.1 149.5 54 149 54 148.5C54 148.2 54 147.9 53.9 147.6C53.9 147 53.8 146.5 53.8 145.9C53.8 145.7 53.8 145.4 53.8 145.2C53.8 144.4 53.8 143.6 53.8 142.8H0C0 156.9 0.4 169.6 1.1 181Z" fill="#78CEAB"/>
<path fill-rule="evenodd" clip-rule="evenodd" d="M285 143H232C232 143.8 232 144.6 232 145.4C232 145.7 232 145.9 232 146.2C232 146.7 232 147.3 231.9 147.8C231.9 148.1 231.9 148.4 231.8 148.7C231.8 149.2 231.7 149.7 231.7 150.1C231.7 150.4 231.6 150.8 231.6 151.1C231.6 151.6 231.5 152 231.5 152.5C231.5 152.8 231.4 153.2 231.4 153.5C231.3 154 231.3 154.4 231.2 154.9C231.2 155.2 231.1 155.6 231.1 155.9C231 156.3 231 156.8 230.9 157.2C230.8 157.5 230.8 157.9 230.7 158.2C230.6 158.7 230.5 159.1 230.4 159.6C230.3 159.9 230.3 160.2 230.2 160.5C230.1 161 230 161.5 229.9 161.9C229.8 162.2 229.8 162.5 229.7 162.8C229.6 163.4 229.4 163.9 229.3 164.5C229.3 164.7 229.2 164.9 229.2 165.1C229 165.8 228.8 166.6 228.6 167.3C228.5 167.5 228.5 167.7 228.4 168C228.2 168.5 228.1 169 227.9 169.6C227.8 169.9 227.7 170.2 227.6 170.5C227.5 170.9 227.3 171.4 227.2 171.8C227.1 172.1 227 172.4 226.9 172.7C226.8 173.1 226.6 173.5 226.4 174C226.3 174.3 226.2 174.6 226 174.9C225.8 175.3 225.7 175.7 225.5 176.1C225.4 176.4 225.2 176.7 225.1 177C224.9 177.4 224.8 177.8 224.6 178.2C224.5 178.5 224.3 178.8 224.2 179.1C224 179.5 223.8 179.9 223.7 180.3C223.6 180.5 223.5 180.7 223.4 180.9H283.8C284.6 169.6 285 156.9 285 143Z" fill="#78CEAB"/>
<path opacity="0.5" fill-rule="evenodd" clip-rule="evenodd" d="M143 248C201 248 248 201 248 143C248 85 201 38 143 38C85 38 38 85 38 143C38 201 85 248 143 248ZM143 232C192.2 232 232 192.2 232 143C232 93.8 192.2 54 143 54C93.8 54 54 93.8 54 143C54 192.2 93.8 232 143 232Z" fill="#1E2026"/>
</g>
<defs>
<clipPath id="clip0">
<rect width="285" height="285" fill="white"/>
</clipPath>
</defs>
</svg>
