<svg width="194" height="12" viewBox="0 0 194 12" fill="none" xmlns="http://www.w3.org/2000/svg">
<path d="M0 0.652719H4.55407C5.58368 0.652719 6.49009 0.832636 7.27331 1.19247C8.06532 1.54393 8.67693 2.05021 9.10813 2.7113C9.54814 3.37238 9.76814 4.15063 9.76814 5.04602C9.76814 5.94142 9.54814 6.71966 9.10813 7.38075C8.67693 8.04184 8.06532 8.5523 7.27331 8.91213C6.49009 9.2636 5.58368 9.43933 4.55407 9.43933H0V0.652719ZM4.42206 7.12971C5.09087 7.12971 5.62328 6.94979 6.01929 6.58996C6.42409 6.22176 6.6265 5.70711 6.6265 5.04602C6.6265 4.38494 6.42409 3.87448 6.01929 3.51464C5.62328 3.14644 5.09087 2.96234 4.42206 2.96234H3.11525V7.12971H4.42206Z" fill="black"/>
<path d="M14.8921 9.56485C14.0913 9.56485 13.3697 9.41422 12.7273 9.11297C12.0936 8.80335 11.5964 8.38075 11.2356 7.84519C10.8748 7.30125 10.6944 6.68619 10.6944 6C10.6944 5.31381 10.8748 4.70293 11.2356 4.16736C11.5964 3.62343 12.0936 3.20084 12.7273 2.89958C13.3697 2.59833 14.0913 2.4477 14.8921 2.4477C15.7017 2.4477 16.4233 2.59833 17.0569 2.89958C17.6993 3.20084 18.1965 3.62343 18.5485 4.16736C18.9093 4.70293 19.0897 5.31381 19.0897 6C19.0897 6.68619 18.9093 7.30125 18.5485 7.84519C18.1965 8.38075 17.6993 8.80335 17.0569 9.11297C16.4233 9.41422 15.7017 9.56485 14.8921 9.56485ZM14.8921 7.35565C15.2353 7.35565 15.5169 7.23849 15.7369 7.00418C15.9569 6.76151 16.0669 6.42678 16.0669 6C16.0669 5.57322 15.9569 5.24268 15.7369 5.00837C15.5169 4.77406 15.2353 4.6569 14.8921 4.6569C14.5489 4.6569 14.2673 4.77406 14.0473 5.00837C13.8273 5.24268 13.7173 5.57322 13.7173 6C13.7173 6.42678 13.8273 6.76151 14.0473 7.00418C14.2673 7.23849 14.5489 7.35565 14.8921 7.35565Z" fill="black"/>
<path d="M32.4099 2.57322L29.9018 9.43933H26.9978L25.9022 6.2636L24.767 9.43933H21.8629L19.3549 2.57322H22.1797L23.4205 6.20084L24.7142 2.57322H27.2486L28.5026 6.23849L29.7962 2.57322H32.4099Z" fill="black"/>
<path d="M38.265 2.4477C39.1538 2.4477 39.8666 2.70293 40.4034 3.21339C40.949 3.72385 41.2218 4.49372 41.2218 5.52301V9.43933H38.2386V6.01255C38.2386 5.22594 37.9438 4.83264 37.3542 4.83264C37.0198 4.83264 36.747 4.94561 36.5358 5.17155C36.3334 5.38912 36.2322 5.7364 36.2322 6.21339V9.43933H33.2489V2.57322H36.087V3.25105C36.3686 2.98326 36.6942 2.78243 37.0638 2.64854C37.4334 2.51464 37.8338 2.4477 38.265 2.4477Z" fill="black"/>
<path d="M42.7814 0.125523H45.7646V9.43933H42.7814V0.125523Z" fill="black"/>
<path d="M51.1658 9.56485C50.365 9.56485 49.6434 9.41422 49.001 9.11297C48.3674 8.80335 47.8701 8.38075 47.5093 7.84519C47.1485 7.30125 46.9681 6.68619 46.9681 6C46.9681 5.31381 47.1485 4.70293 47.5093 4.16736C47.8701 3.62343 48.3674 3.20084 49.001 2.89958C49.6434 2.59833 50.365 2.4477 51.1658 2.4477C51.9754 2.4477 52.697 2.59833 53.3306 2.89958C53.973 3.20084 54.4702 3.62343 54.8223 4.16736C55.1831 4.70293 55.3635 5.31381 55.3635 6C55.3635 6.68619 55.1831 7.30125 54.8223 7.84519C54.4702 8.38075 53.973 8.80335 53.3306 9.11297C52.697 9.41422 51.9754 9.56485 51.1658 9.56485ZM51.1658 7.35565C51.509 7.35565 51.7906 7.23849 52.0106 7.00418C52.2306 6.76151 52.3406 6.42678 52.3406 6C52.3406 5.57322 52.2306 5.24268 52.0106 5.00837C51.7906 4.77406 51.509 4.6569 51.1658 4.6569C50.8226 4.6569 50.541 4.77406 50.321 5.00837C50.101 5.24268 49.991 5.57322 49.991 6C49.991 6.42678 50.101 6.76151 50.321 7.00418C50.541 7.23849 50.8226 7.35565 51.1658 7.35565Z" fill="black"/>
<path d="M59.6147 2.4477C60.882 2.4477 61.85 2.71966 62.5188 3.2636C63.1876 3.79916 63.522 4.62761 63.522 5.74895V9.43933H60.75V8.53556C60.4068 9.22176 59.7248 9.56485 58.7039 9.56485C58.1319 9.56485 57.6435 9.4728 57.2387 9.2887C56.8427 9.09623 56.5391 8.841 56.3279 8.52301C56.1255 8.19665 56.0243 7.83263 56.0243 7.43096C56.0243 6.75314 56.2971 6.23849 56.8427 5.88703C57.3883 5.53556 58.2155 5.35983 59.3243 5.35983H60.5256C60.4288 4.82427 59.9756 4.55649 59.1659 4.55649C58.8403 4.55649 58.5103 4.60669 58.1759 4.70711C57.8415 4.79916 57.5555 4.92887 57.3179 5.09623L56.3675 3.22594C56.7811 2.98326 57.2783 2.79498 57.8591 2.66109C58.4487 2.51883 59.0339 2.4477 59.6147 2.4477ZM59.6015 7.85774C59.8128 7.85774 60.002 7.80335 60.1692 7.69456C60.3364 7.58577 60.4596 7.42259 60.5388 7.20502V6.72803H59.7995C59.1923 6.72803 58.8887 6.9205 58.8887 7.30544C58.8887 7.46443 58.9503 7.59833 59.0735 7.70711C59.2055 7.80753 59.3815 7.85774 59.6015 7.85774Z" fill="black"/>
<path d="M73.1903 0.125523V9.43933H70.3523V8.87448C69.9211 9.33473 69.2611 9.56485 68.3722 9.56485C67.7386 9.56485 67.1534 9.42259 66.6166 9.13807C66.0886 8.84519 65.6662 8.42678 65.3494 7.88284C65.0414 7.33891 64.8874 6.7113 64.8874 6C64.8874 5.2887 65.0414 4.66527 65.3494 4.12971C65.6662 3.58577 66.0886 3.17155 66.6166 2.88703C67.1534 2.59414 67.7386 2.4477 68.3722 2.4477C69.1731 2.4477 69.7847 2.64435 70.2071 3.03766V0.125523H73.1903ZM69.0851 7.35565C69.4283 7.35565 69.7099 7.23849 69.9299 7.00418C70.1499 6.76151 70.2599 6.42678 70.2599 6C70.2599 5.57322 70.1499 5.24268 69.9299 5.00837C69.7099 4.77406 69.4283 4.6569 69.0851 4.6569C68.7419 4.6569 68.4602 4.77406 68.2402 5.00837C68.0202 5.24268 67.9102 5.57322 67.9102 6C67.9102 6.42678 68.0202 6.76151 68.2402 7.00418C68.4602 7.23849 68.7419 7.35565 69.0851 7.35565Z" fill="black"/>
<path d="M82.4579 6C82.4579 6.04184 82.4447 6.2636 82.4183 6.66527H77.4022C77.5078 6.92469 77.6838 7.12552 77.9302 7.26778C78.1766 7.40167 78.4846 7.46862 78.8542 7.46862C79.171 7.46862 79.435 7.43096 79.6462 7.35565C79.8662 7.28033 80.1038 7.15063 80.359 6.96653L81.9167 8.46025C81.2127 9.19665 80.161 9.56485 78.7618 9.56485C77.8906 9.56485 77.125 9.41422 76.465 9.11297C75.805 8.80335 75.2946 8.37657 74.9338 7.83263C74.573 7.2887 74.3926 6.67782 74.3926 6C74.3926 5.31381 74.5686 4.70293 74.9206 4.16736C75.2814 3.62343 75.7698 3.20084 76.3858 2.89958C77.0106 2.59833 77.7102 2.4477 78.4846 2.4477C79.215 2.4477 79.8794 2.58577 80.4779 2.86192C81.0851 3.13807 81.5647 3.54393 81.9167 4.0795C82.2775 4.61506 82.4579 5.25523 82.4579 6ZM78.511 4.38075C78.203 4.38075 77.9478 4.46025 77.7454 4.61925C77.543 4.77824 77.411 5.00418 77.3494 5.29707H79.6726C79.611 5.01255 79.479 4.79079 79.2766 4.6318C79.0742 4.46443 78.819 4.38075 78.511 4.38075Z" fill="black"/>
<path d="M86.5014 3.31381C87.0294 2.7364 87.8082 2.4477 88.8378 2.4477V4.95816C88.6002 4.92469 88.3802 4.90795 88.1778 4.90795C87.157 4.90795 86.6466 5.40167 86.6466 6.38912V9.43933H83.6633V2.57322H86.5014V3.31381Z" fill="black"/>
<path d="M97.3897 2.94979H98.9605V5.02092H97.4821V9.43933H94.4988V5.02092H93.5088V2.94979H94.4988V2.91213C94.4988 2.01674 94.7804 1.30962 95.3436 0.790795C95.9069 0.263598 96.6989 0 97.7197 0C98.0541 0 98.3797 0.0292886 98.6965 0.0878657C99.0133 0.146443 99.2773 0.230126 99.4885 0.338912L98.7757 2.30962C98.5293 2.20084 98.3049 2.14644 98.1025 2.14644C97.8825 2.14644 97.7065 2.21339 97.5745 2.34728C97.4513 2.4728 97.3897 2.66946 97.3897 2.93724V2.94979Z" fill="black"/>
<path d="M103.804 9.56485C103.003 9.56485 102.281 9.41422 101.639 9.11297C101.005 8.80335 100.508 8.38075 100.147 7.84519C99.7864 7.30125 99.606 6.68619 99.606 6C99.606 5.31381 99.7864 4.70293 100.147 4.16736C100.508 3.62343 101.005 3.20084 101.639 2.89958C102.281 2.59833 103.003 2.4477 103.804 2.4477C104.613 2.4477 105.335 2.59833 105.968 2.89958C106.611 3.20084 107.108 3.62343 107.46 4.16736C107.821 4.70293 108.001 5.31381 108.001 6C108.001 6.68619 107.821 7.30125 107.46 7.84519C107.108 8.38075 106.611 8.80335 105.968 9.11297C105.335 9.41422 104.613 9.56485 103.804 9.56485ZM103.804 7.35565C104.147 7.35565 104.428 7.23849 104.648 7.00418C104.868 6.76151 104.978 6.42678 104.978 6C104.978 5.57322 104.868 5.24268 104.648 5.00837C104.428 4.77406 104.147 4.6569 103.804 4.6569C103.46 4.6569 103.179 4.77406 102.959 5.00837C102.739 5.24268 102.629 5.57322 102.629 6C102.629 6.42678 102.739 6.76151 102.959 7.00418C103.179 7.23849 103.46 7.35565 103.804 7.35565Z" fill="black"/>
<path d="M112.037 3.31381C112.565 2.7364 113.344 2.4477 114.373 2.4477V4.95816C114.136 4.92469 113.916 4.90795 113.713 4.90795C112.693 4.90795 112.182 5.40167 112.182 6.38912V9.43933H109.199V2.57322H112.037V3.31381Z" fill="black"/>
<path d="M119.797 0.652719H122.912V9.43933H119.797V0.652719Z" fill="black"/>
<path d="M129.599 2.4477C130.488 2.4477 131.201 2.70293 131.738 3.21339C132.284 3.72385 132.556 4.49372 132.556 5.52301V9.43933H129.573V6.01255C129.573 5.22594 129.278 4.83264 128.689 4.83264C128.354 4.83264 128.081 4.94561 127.87 5.17155C127.668 5.38912 127.567 5.7364 127.567 6.21339V9.43933H124.583V2.57322H127.421V3.25105C127.703 2.98326 128.029 2.78243 128.398 2.64854C128.768 2.51464 129.168 2.4477 129.599 2.4477Z" fill="black"/>
<path d="M136.941 9.56485C136.325 9.56485 135.718 9.50209 135.119 9.37657C134.521 9.25104 134.037 9.08786 133.667 8.88703L134.486 7.01674C134.82 7.2092 135.216 7.35983 135.674 7.46862C136.131 7.5774 136.576 7.6318 137.007 7.6318C137.35 7.6318 137.588 7.60669 137.72 7.55648C137.86 7.49791 137.931 7.41422 137.931 7.30544C137.931 7.19665 137.843 7.12134 137.667 7.0795C137.5 7.03766 137.222 6.99581 136.835 6.95397C136.246 6.88703 135.744 6.80335 135.33 6.70293C134.917 6.59414 134.551 6.38912 134.235 6.08786C133.927 5.78661 133.773 5.35565 133.773 4.79498C133.773 4.35146 133.913 3.95397 134.195 3.60251C134.477 3.25105 134.895 2.97071 135.449 2.76151C136.012 2.5523 136.686 2.4477 137.469 2.4477C138.014 2.4477 138.547 2.49791 139.066 2.59833C139.594 2.69038 140.043 2.82845 140.412 3.01255L139.594 4.88284C138.96 4.54812 138.265 4.38075 137.508 4.38075C136.857 4.38075 136.532 4.48954 136.532 4.70711C136.532 4.8159 136.62 4.8954 136.796 4.94561C136.972 4.98745 137.249 5.02929 137.627 5.07113C138.217 5.13807 138.714 5.22594 139.119 5.33473C139.532 5.44351 139.893 5.64853 140.201 5.94979C140.518 6.25104 140.676 6.68201 140.676 7.24268C140.676 7.66945 140.536 8.05858 140.254 8.41004C139.972 8.76151 139.55 9.04184 138.987 9.25104C138.424 9.46025 137.742 9.56485 136.941 9.56485Z" fill="black"/>
<path d="M147.163 9.20084C146.715 9.44351 146.103 9.56485 145.329 9.56485C144.317 9.56485 143.538 9.33473 142.992 8.87448C142.446 8.40586 142.174 7.70711 142.174 6.77824V5.02092H141.184V2.94979H142.174V1.02929H145.157V2.94979H146.635V5.02092H145.157V6.75314C145.157 6.96234 145.214 7.12552 145.329 7.24268C145.443 7.35983 145.593 7.41841 145.777 7.41841C146.033 7.41841 146.257 7.35565 146.451 7.23012L147.163 9.20084Z" fill="black"/>
<path d="M151.413 2.4477C152.681 2.4477 153.649 2.71966 154.317 3.2636C154.986 3.79916 155.321 4.62761 155.321 5.74895V9.43933H152.549V8.53556C152.205 9.22176 151.523 9.56485 150.502 9.56485C149.93 9.56485 149.442 9.4728 149.037 9.2887C148.641 9.09623 148.338 8.841 148.126 8.52301C147.924 8.19665 147.823 7.83263 147.823 7.43096C147.823 6.75314 148.096 6.23849 148.641 5.88703C149.187 5.53556 150.014 5.35983 151.123 5.35983H152.324C152.227 4.82427 151.774 4.55649 150.964 4.55649C150.639 4.55649 150.309 4.60669 149.974 4.70711C149.64 4.79916 149.354 4.92887 149.116 5.09623L148.166 3.22594C148.58 2.98326 149.077 2.79498 149.658 2.66109C150.247 2.51883 150.832 2.4477 151.413 2.4477ZM151.4 7.85774C151.611 7.85774 151.801 7.80335 151.968 7.69456C152.135 7.58577 152.258 7.42259 152.337 7.20502V6.72803H151.598C150.991 6.72803 150.687 6.9205 150.687 7.30544C150.687 7.46443 150.749 7.59833 150.872 7.70711C151.004 7.80753 151.18 7.85774 151.4 7.85774Z" fill="black"/>
<path d="M165.068 2.57322V8.07113C165.068 9.37657 164.685 10.3556 163.92 11.0084C163.163 11.6695 162.08 12 160.672 12C159.951 12 159.278 11.9247 158.653 11.7741C158.028 11.6318 157.496 11.4226 157.056 11.1464L158.059 9.21339C158.34 9.41422 158.697 9.5774 159.128 9.70293C159.559 9.82845 159.973 9.89121 160.369 9.89121C160.967 9.89121 161.403 9.76987 161.676 9.5272C161.948 9.28452 162.085 8.92887 162.085 8.46025V8.33473C161.636 8.82008 160.972 9.06276 160.092 9.06276C159.476 9.06276 158.899 8.92887 158.362 8.66109C157.834 8.38494 157.412 7.99581 157.095 7.49372C156.778 6.98326 156.62 6.40167 156.62 5.74895C156.62 5.09623 156.778 4.51883 157.095 4.01674C157.412 3.51464 157.834 3.12971 158.362 2.86192C158.899 2.58577 159.476 2.4477 160.092 2.4477C161.077 2.4477 161.79 2.74895 162.23 3.35146V2.57322H165.068ZM160.884 6.85356C161.236 6.85356 161.526 6.75314 161.755 6.5523C161.992 6.34309 162.111 6.07531 162.111 5.74895C162.111 5.42259 161.992 5.159 161.755 4.95816C161.526 4.75732 161.236 4.6569 160.884 4.6569C160.523 4.6569 160.224 4.75732 159.986 4.95816C159.757 5.159 159.643 5.42259 159.643 5.74895C159.643 6.07531 159.762 6.34309 159.999 6.5523C160.237 6.75314 160.532 6.85356 160.884 6.85356Z" fill="black"/>
<path d="M169.489 3.31381C170.017 2.7364 170.796 2.4477 171.826 2.4477V4.95816C171.588 4.92469 171.368 4.90795 171.166 4.90795C170.145 4.90795 169.635 5.40167 169.635 6.38912V9.43933H166.651V2.57322H169.489V3.31381Z" fill="black"/>
<path d="M176.105 2.4477C177.372 2.4477 178.34 2.71966 179.009 3.2636C179.678 3.79916 180.012 4.62761 180.012 5.74895V9.43933H177.24V8.53556C176.897 9.22176 176.215 9.56485 175.194 9.56485C174.622 9.56485 174.134 9.4728 173.729 9.2887C173.333 9.09623 173.029 8.841 172.818 8.52301C172.616 8.19665 172.514 7.83263 172.514 7.43096C172.514 6.75314 172.787 6.23849 173.333 5.88703C173.878 5.53556 174.706 5.35983 175.814 5.35983H177.016C176.919 4.82427 176.466 4.55649 175.656 4.55649C175.33 4.55649 175 4.60669 174.666 4.70711C174.332 4.79916 174.046 4.92887 173.808 5.09623L172.858 3.22594C173.271 2.98326 173.768 2.79498 174.349 2.66109C174.939 2.51883 175.524 2.4477 176.105 2.4477ZM176.092 7.85774C176.303 7.85774 176.492 7.80335 176.659 7.69456C176.826 7.58577 176.95 7.42259 177.029 7.20502V6.72803H176.29C175.682 6.72803 175.379 6.9205 175.379 7.30544C175.379 7.46443 175.44 7.59833 175.564 7.70711C175.696 7.80753 175.872 7.85774 176.092 7.85774Z" fill="black"/>
<path d="M191.122 2.4477C191.994 2.4477 192.689 2.70293 193.208 3.21339C193.736 3.72385 194 4.49372 194 5.52301V9.43933H191.017V6.01255C191.017 5.22594 190.748 4.83264 190.212 4.83264C189.93 4.83264 189.701 4.93305 189.525 5.13389C189.358 5.33473 189.274 5.65272 189.274 6.08786V9.43933H186.291V6.01255C186.291 5.22594 186.023 4.83264 185.486 4.83264C185.204 4.83264 184.975 4.93305 184.799 5.13389C184.632 5.33473 184.549 5.65272 184.549 6.08786V9.43933H181.565V2.57322H184.403V3.21339C184.94 2.70293 185.622 2.4477 186.45 2.4477C186.934 2.4477 187.369 2.53556 187.756 2.7113C188.144 2.87866 188.46 3.13808 188.707 3.48954C188.997 3.15481 189.349 2.89958 189.763 2.72385C190.176 2.53975 190.63 2.4477 191.122 2.4477Z" fill="black"/>
</svg>
