<svg width="22" height="22" viewBox="0 0 22 22" fill="none" xmlns="http://www.w3.org/2000/svg">
<path fill-rule="evenodd" clip-rule="evenodd" d="M16 1.5H6C5.17157 1.5 4.5 2.17157 4.5 3V19C4.5 19.8284 5.17157 20.5 6 20.5H16C16.8284 20.5 17.5 19.8284 17.5 19V3C17.5 2.17157 16.8284 1.5 16 1.5ZM6 0C4.34315 0 3 1.34315 3 3V19C3 20.6569 4.34315 22 6 22H16C17.6569 22 19 20.6569 19 19V3C19 1.34315 17.6569 0 16 0H6Z" fill="#363948"/>
<rect x="6" y="16" width="10" height="3" rx="1" fill="#3858FF"/>
</svg>
