<svg width="38" height="37" viewBox="0 0 38 37" fill="none" xmlns="http://www.w3.org/2000/svg">
<path d="M15.3332 30.8608C19.8596 32.2379 24.8325 31.0217 28.2066 27.6476C31.7777 24.0765 32.9351 18.7143 31.1555 13.9861C30.9712 13.496 30.4242 13.2483 29.9334 13.4326C29.4443 13.6175 29.1953 14.1638 29.3799 14.6547C30.8977 18.687 29.9107 23.2601 26.8649 26.3059C24.0161 29.1547 19.831 30.2013 16.0018 29.083L16.656 27.3455L11.0571 28.2695L14.6566 32.6567L15.3332 30.8608ZM8.06977 23.2266C8.56719 23.0613 8.83466 22.5228 8.66922 22.0262C7.33925 18.0449 8.35555 13.7285 11.3218 10.7622C14.0918 7.99229 18.0384 6.92446 21.7908 7.87798L21.2022 9.63913L26.7627 8.50667L23.0017 4.25678L22.3935 6.07561C17.9526 4.89565 13.2622 6.1389 9.98033 9.42074C6.5024 12.8987 5.31056 17.9593 6.86992 22.6271C7.0358 23.1247 7.5731 23.3927 8.06977 23.2266Z" fill="black"/>
</svg>
