<svg width="22" height="22" viewBox="0 0 22 22" fill="none" xmlns="http://www.w3.org/2000/svg">
<path fill-rule="evenodd" clip-rule="evenodd" d="M0.614258 2.64317L1.386 1.35693L11.0001 7.12541L20.6143 1.35693L21.386 2.64317L11.0001 8.8747L0.614258 2.64317Z" fill="#363948"/>
<path fill-rule="evenodd" clip-rule="evenodd" d="M20.5 13V3C20.5 2.17157 19.8284 1.5 19 1.5L3 1.5C2.17157 1.5 1.5 2.17157 1.5 3L1.5 14C1.5 14.8284 2.17157 15.5 3 15.5L11 15.5V17H3C1.34314 17 0 15.6569 0 14V3C0 1.34314 1.34315 0 3 0H19C20.6569 0 22 1.34315 22 3V13H20.5Z" fill="#363948"/>
<path d="M16.3571 12.4929C16.6 11.9287 17.4 11.9287 17.6429 12.4929L18.4579 14.3854C18.5592 14.6207 18.781 14.7818 19.0362 14.8055L21.0878 14.9958C21.6995 15.0525 21.9466 15.8133 21.4852 16.2187L19.9372 17.5786C19.7447 17.7477 19.66 18.0084 19.7163 18.2584L20.1693 20.2684C20.3044 20.8676 19.6572 21.3378 19.1291 21.0242L17.3574 19.9722C17.1371 19.8414 16.8629 19.8414 16.6426 19.9722L14.8709 21.0242C14.3428 21.3378 13.6956 20.8676 13.8307 20.2684L14.2837 18.2584C14.34 18.0084 14.2553 17.7477 14.0628 17.5786L12.5148 16.2187C12.0534 15.8133 12.3005 15.0525 12.9122 14.9958L14.9638 14.8055C15.219 14.7818 15.4408 14.6207 15.5421 14.3854L16.3571 12.4929Z" fill="#F6A300"/>
</svg>
