<svg width="16" height="17" viewBox="0 0 16 17" fill="none" xmlns="http://www.w3.org/2000/svg">
<g opacity="0.5">
<path fill-rule="evenodd" clip-rule="evenodd" d="M12.1998 6.71387C12.1998 9.42006 10.006 11.6139 7.2998 11.6139C4.59361 11.6139 2.3998 9.42006 2.3998 6.71387C2.3998 4.00767 4.59361 1.81387 7.2998 1.81387C10.006 1.81387 12.1998 4.00767 12.1998 6.71387ZM11.0262 12.0403C9.9711 12.7799 8.68614 13.2139 7.2998 13.2139C3.70995 13.2139 0.799805 10.3037 0.799805 6.71387C0.799805 3.12402 3.70995 0.213867 7.2998 0.213867C10.8897 0.213867 13.7998 3.12402 13.7998 6.71387C13.7998 8.34012 13.2026 9.82689 12.2155 10.9668L15.7298 14.4811L14.5984 15.6124L11.0262 12.0403Z" fill="black"/>
</g>
</svg>
