<svg width="22" height="22" viewBox="0 0 22 22" fill="none" xmlns="http://www.w3.org/2000/svg">
<path fill-rule="evenodd" clip-rule="evenodd" d="M18.5736 7.26592L18.618 7.1636C19.8559 4.29776 19.7708 4.21168 19.5655 4.00396L17.9138 2.35918C17.8463 2.2908 17.7277 2.2427 17.6255 2.2427C17.5326 2.2427 17.2511 2.2427 14.8119 3.37043L14.7141 3.41525L13.7077 3.00157L13.6673 2.8993C12.5202 0 12.4027 0 12.1173 0H9.78486C9.50049 0 9.37097 0 8.30731 2.90434L8.26727 3.01007L7.26613 3.42667L7.1704 3.38604C5.51936 2.67552 4.55535 2.31521 4.30405 2.31521C4.20208 2.31521 4.08309 2.36191 4.01527 2.43011L2.36215 4.0795C2.15244 4.29065 2.06546 4.37907 3.36847 7.1857L3.41636 7.28979L3.00699 8.28459L2.90681 8.32412C0 9.47079 0 9.5826 0 9.88126V12.2143C0 12.5138 0 12.6382 2.91258 13.7036L3.01669 13.7412L3.42612 14.733L3.38215 14.8344C2.14463 17.7007 2.22244 17.7797 2.43298 17.9935L4.08238 19.6407C4.15151 19.7085 4.27115 19.757 4.37318 19.757C4.46551 19.757 4.74632 19.757 7.18718 18.6298L7.28493 18.5831L8.29196 18.9989L8.3311 19.1017C9.47889 22 9.59681 22 9.88243 22H12.2156C12.5085 22 12.63 22 13.6945 19.0937L13.7342 18.9879L14.7369 18.5741L14.8323 18.6138C16.482 19.3264 17.4455 19.6859 17.6952 19.6859C17.7963 19.6859 17.9164 19.6407 17.9853 19.571L19.6411 17.918C19.8492 17.706 19.9357 17.6179 18.6309 14.815L18.5823 14.7097L18.991 13.7192L19.0886 13.6802C22 12.5275 22 12.4152 22 12.1161V9.78446C21.9999 9.48507 21.9999 9.36142 19.087 8.29989L18.9824 8.26181L18.5736 7.26592ZM20.5 9.78446C20.5 9.78436 20.5 9.78456 20.5 9.78446C20.5 9.75876 20.4979 9.76882 20.5 9.80418V9.78446ZM20.5 10.4487C20.1351 10.293 19.5396 10.0613 18.5734 9.70922L17.8464 9.44469L16.9458 7.25021L17.2409 6.56879C17.2411 6.56833 17.2413 6.56786 17.2415 6.5674C17.6634 5.5907 17.9094 4.98589 18.048 4.60969L17.3348 3.89947C16.9631 4.04779 16.3724 4.30151 15.4413 4.73196L15.4367 4.73409L14.7465 5.05037L12.5471 4.14627L12.2725 3.45114C11.8829 2.4665 11.6305 1.86525 11.4631 1.5H10.4574C10.3008 1.86445 10.068 2.45845 9.71582 3.42019L9.71299 3.42789L9.44091 4.14638L7.26039 5.05374L6.57745 4.76389C5.76037 4.41226 5.13243 4.15561 4.68733 3.98931C4.65933 3.97885 4.63234 3.96885 4.60634 3.95931L3.89332 4.67071C4.04063 5.03863 4.29674 5.623 4.729 6.55406L4.73116 6.55873L5.05215 7.25639L4.15126 9.44562L3.45739 9.71942C2.46847 10.1095 1.86569 10.3613 1.5 10.5281V11.552C1.86421 11.7081 2.45896 11.9404 3.42454 12.2937L4.14991 12.5552L5.05487 14.7475L4.75928 15.429C4.7591 15.4294 4.75893 15.4298 4.75875 15.4302C4.33676 16.4076 4.08982 17.0122 3.95011 17.3887L4.66289 18.1005C5.03361 17.9527 5.62223 17.7002 6.5494 17.2721L7.24046 16.942L9.46324 17.8596L9.72937 18.5586C10.1172 19.5377 10.3688 20.1361 10.5358 20.5H11.5453C11.7013 20.1348 11.9335 19.5403 12.286 18.5778L12.29 18.5669L12.5589 17.8502L14.7394 16.9504L15.4179 17.2328L15.4271 17.2368C16.243 17.5892 16.8702 17.846 17.3144 18.0122C17.3419 18.0225 17.3685 18.0323 17.394 18.0417L18.1081 17.3289C17.9604 16.9613 17.7038 16.3777 17.271 15.4481L17.2687 15.443L16.9459 14.743L17.8458 12.5619L18.5364 12.2855C19.5296 11.8923 20.1339 11.6389 20.5 11.4712V10.4487ZM20.5 12.1161C20.5 12.1404 20.4981 12.1309 20.5 12.0973V12.1161ZM20.9216 11.2577C20.9321 11.2499 20.9382 11.246 20.9386 11.2461C20.939 11.2461 20.9338 11.25 20.9216 11.2577ZM18.2759 17.8086C18.2756 17.8083 18.2738 17.8012 18.2716 17.788C18.2752 17.8023 18.2763 17.8089 18.2759 17.8086ZM18.5599 16.8779C18.5793 16.8559 18.5867 16.8505 18.5739 16.8639L18.5599 16.8779ZM11.3229 20.9609C11.3229 20.9604 11.3268 20.954 11.3348 20.9428C11.327 20.9558 11.323 20.9614 11.3229 20.9609ZM12.195 20.5C12.2296 20.4981 12.2397 20.5 12.2156 20.5H12.195ZM9.88243 20.5C9.86247 20.5 9.87182 20.4984 9.90259 20.5H9.88243ZM10.751 20.9242C10.7588 20.9346 10.7626 20.9406 10.7626 20.941C10.7625 20.9415 10.7586 20.9363 10.751 20.9242ZM3.49922 16.9384C3.48558 16.9243 3.49291 16.9295 3.51265 16.9518L3.49922 16.9384ZM3.80333 17.8371C3.8015 17.8499 3.79994 17.8569 3.79961 17.8571C3.79929 17.8574 3.8002 17.851 3.80333 17.8371ZM1.0446 11.3315C1.04505 11.3314 1.05142 11.3353 1.06236 11.3432C1.04961 11.3355 1.04414 11.3315 1.0446 11.3315ZM1.5 12.195C1.50206 12.2303 1.5 12.2403 1.5 12.2143V12.195ZM1.5 9.88126C1.5 9.85684 1.50191 9.86642 1.5 9.90026V9.88126ZM1.07662 10.7416C1.06608 10.7495 1.05993 10.7534 1.05949 10.7533C1.05905 10.7533 1.06432 10.7494 1.07662 10.7416ZM3.7265 4.19143C3.72685 4.19171 3.72864 4.19889 3.73079 4.21211C3.72722 4.19776 3.72615 4.19114 3.7265 4.19143ZM3.43901 5.124C3.41762 5.14803 3.40966 5.15359 3.42487 5.13811L3.43901 5.124ZM10.6799 1.04123C10.6799 1.04168 10.6761 1.04802 10.6682 1.05892C10.6759 1.04622 10.6798 1.04078 10.6799 1.04123ZM9.80589 1.5C9.77374 1.5017 9.76392 1.5 9.78486 1.5H9.80589ZM12.1173 1.5C12.1372 1.5 12.1278 1.50159 12.097 1.5H12.1173ZM11.2478 1.07502C11.24 1.06465 11.2362 1.05861 11.2362 1.05818C11.2362 1.05775 11.2401 1.06294 11.2478 1.07502ZM18.5011 5.06084C18.5124 5.07253 18.5055 5.06741 18.4875 5.04736L18.5011 5.06084ZM18.1929 4.16252C18.1947 4.15004 18.1962 4.14326 18.1965 4.14301C18.1968 4.14275 18.1959 4.14899 18.1929 4.16252ZM20.9394 10.6575C20.9522 10.6652 20.9578 10.6692 20.9573 10.6692C20.9568 10.6693 20.9504 10.6654 20.9394 10.6575Z" fill="#363948"/>
<path fill-rule="evenodd" clip-rule="evenodd" d="M11 13C12.1046 13 13 12.1046 13 11C13 9.89543 12.1046 9 11 9C9.89543 9 9 9.89543 9 11C9 12.1046 9.89543 13 11 13ZM11 16C13.7614 16 16 13.7614 16 11C16 8.23858 13.7614 6 11 6C8.23858 6 6 8.23858 6 11C6 13.7614 8.23858 16 11 16Z" fill="#00BA6C"/>
</svg>
