<?xml version="1.0" encoding="utf-8"?>
<!-- Generator: Adobe Illustrator 24.3.0, SVG Export Plug-In . SVG Version: 6.00 Build 0)  -->
<svg version="1.1" id="Layer_1" xmlns="http://www.w3.org/2000/svg" xmlns:xlink="http://www.w3.org/1999/xlink" x="0px" y="0px"
	 viewBox="0 0 1440 983" style="enable-background:new 0 0 1440 983;" xml:space="preserve">
<style type="text/css">
	.st0{opacity:0.2;}
	.st1{fill:#8A78A0;}
	.st2{fill:#9B8DB2;}
	.st3{fill:#655E83;}
	.st4{fill:#BFA8D1;}
	.st5{fill:#D8B8F2;}
</style>
<g>
	<g class="st0">
		<path class="st1" d="M0,0v983h1440V0H0z"/>
		<path class="st2" d="M147.3,0c1.6,16.9,4.9,33.6,9.8,49.9c20.4,67.9,68.1,125.7,130.9,158.8c30.2,15.8,63.3,25.8,95.4,35.4
			c19.2,5.8,39,11.7,58,18.9c43.3,16.3,99.2,47.2,119,101.4c10.4,28.5,9.5,59.8,8.7,90.1c-0.9,31-1.7,63,9.2,92.1
			c12.2,32.4,45.6,76.8,135.2,104.6c71.2,22.1,146.7,28.9,219.9,35.5c33.3,3,67.7,6.1,101.2,10.6c135,18.1,229.4,60.5,288.4,129.7
			c37.3,43.7,59.2,99.1,63.8,155.8h2.7c-4.6-57.4-26.7-113.4-64.4-157.6c-59.6-69.7-154.4-112.4-290.1-130.7
			c-33.6-4.5-68.1-7.6-101.4-10.6c-73-6.6-148.4-13.4-219.3-35.4c-48.8-15.2-111.7-45.3-133.4-103c-10.8-28.7-9.9-60.4-9.1-91.1
			c0.8-30.6,1.7-62.2-8.8-91.1c-20.2-55.2-76.8-86.6-120.6-103.1c-19-7.2-38.9-13.2-58.1-18.9c-32-9.6-65-19.5-94.9-35.2
			C227.2,173.8,180,116.5,159.8,49.3c-4.8-16.3-8-32.7-9.7-49.3H147.3z"/>
		<path class="st2" d="M91.9,0c0.3,0.8,0.6,1.6,0.9,2.4C106.7,42,107.1,85,107.5,126.7c0.1,13.6,0.3,27.7,0.8,41.5
			c3.1,72,23.7,123,60.9,151.6c15,11.5,32.7,19.3,49.9,26.9c21.1,9.3,42.9,18.9,59.1,35.4c34.6,35.2,33.9,88.1,33.2,139.2
			c-0.2,15.6-0.4,31.7,0.4,47c5.3,100.6,66.7,195.8,156.4,242.4c19.9,10.3,41.5,18.7,62.4,26.8c42.2,16.3,85.8,33.1,115.7,66.9
			c19.2,21.8,30.2,49.7,32.8,78.5h2.7c-2.7-29.5-13.8-58.1-33.5-80.3c-30.3-34.2-74.2-51.2-116.7-67.6c-20.9-8-42.4-16.4-62.1-26.6
			C380.7,762.3,319.9,668,314.6,568.3c-0.8-15.2-0.6-31.2-0.4-46.9c0.7-51.7,1.5-105.1-34-141.2c-16.5-16.8-38.6-26.5-59.9-35.9
			c-17-7.5-34.6-15.3-49.3-26.6c-36.6-28.2-56.7-78.5-59.9-149.6c-0.6-13.7-0.7-27.8-0.8-41.4c-0.4-41.9-0.8-85.2-14.9-125.1
			C95.1,1,94.9,0.5,94.8,0H91.9z"/>
		<path class="st3" d="M164.8,633c-31.6-37.6-72.8-66.1-105.9-102.4C34,503.4,14.2,471.7,0,437.7V983h164.5
			c22-26.9,39.1-57.7,49.3-87.3C244,807.6,224.7,704.5,164.8,633z"/>
		<path class="st4" d="M270.8,0c1.4,10.8,3.6,21.6,6.9,32.2c24.8,79.8,101,136,182.3,156c81.2,19.9,166.9,8.9,248.3-10.1
			c84.2-19.6,171.8-47.6,255.3-24.8c74.5,20.4,132.5,78.1,202.4,111.2c89.1,42.3,185.4,33.6,274,0.5V0H270.8z"/>
		<path class="st5" d="M964.5,131.9c-15.3,41.4-7.3,89.4-26.4,129.2c-22.5,46.8-75.1,69.1-121.1,93.2c-46,24.2-94,63.2-92.2,115.1
			c1.2,33.1,23.9,62.6,52.4,79.6c28.5,16.9,62,23.2,95,26.4c89.3,9,179.8-1.1,269,8.3c84.9,8.9,174.4,39.1,228.2,109.1
			c28.2,36.7,42.2,83.4,70.6,114.5V99.2c-55.7-22.2-116.5-35.3-175.4-47.5C1209,40.2,1152.1,28.8,1096,37.3
			C1040,45.8,984.2,78.8,964.5,131.9z"/>
	</g>
</g>
</svg>
