<svg width="30" height="24" viewBox="0 0 30 24" fill="none" xmlns="http://www.w3.org/2000/svg">
<path fill-rule="evenodd" clip-rule="evenodd" d="M26 2H4C2.89543 2 2 2.89543 2 4V20C2 21.1046 2.89543 22 4 22H26C27.1046 22 28 21.1046 28 20V4C28 2.89543 27.1046 2 26 2ZM4 0C1.79086 0 0 1.79086 0 4V20C0 22.2091 1.79086 24 4 24H26C28.2091 24 30 22.2091 30 20V4C30 1.79086 28.2091 0 26 0H4Z" fill="#262626"/>
<rect x="17" y="6" width="2" height="12" rx="1" fill="#262626"/>
<rect x="24" y="11" width="2" height="12" rx="1" transform="rotate(90 24 11)" fill="#262626"/>
<path d="M4 6C4 4.89543 4.89543 4 6 4V4C7.10457 4 8 4.89543 8 6V8H4V6Z" fill="#FF4975"/>
<rect x="4" y="8" width="4" height="4" fill="#FFC700"/>
<rect x="4" y="12" width="4" height="4" fill="#00BA6C"/>
<path d="M4 16H8V18C8 19.1046 7.10457 20 6 20V20C4.89543 20 4 19.1046 4 18V16Z" fill="#3858FF"/>
</svg>
