<svg width="136" height="43" viewBox="0 0 136 43" fill="none" xmlns="http://www.w3.org/2000/svg">
<g filter="url(#filter0_d_8507_78935)">
<path d="M5.75 22.766C7.12587 22.0532 10.5463 20.7925 13.7037 23.7163C15.1566 25.0617 15.8239 26.6631 16.463 28.1971C17.6182 30.9695 18.6816 33.5216 24.125 33.9444C23.1224 34.144 22.0859 34.2491 21.025 34.25H20.9979C13.7662 34.244 7.66554 29.3957 5.75 22.766Z" fill="url(#paint0_radial_8507_78935)"/>
<path d="M22.1452 34.2231H20.2658C20.5768 34.241 20.8901 34.25 21.2055 34.25C21.5209 34.25 21.8342 34.241 22.1452 34.2231Z" fill="url(#paint1_radial_8507_78935)"/>
<path d="M33.125 7.25268C30.1736 4.02486 25.9263 2 21.2055 2C13.3735 2 6.84447 7.57335 5.375 14.9669C6.89335 12.4813 13.7743 2.22408 20.9903 7.53625C27.0355 11.9865 32.9019 10.0519 33.125 7.25268Z" fill="url(#paint2_radial_8507_78935)"/>
<path d="M37.1952 19.5593C37.2315 19.1186 37.25 18.6728 37.25 18.2227C37.25 15.7634 36.6971 13.4329 35.7086 11.3483C30.2481 16.8215 23.9757 14.42 19.7275 10.7403C13.8083 5.61333 6.59491 14.0786 5.05227 16.9177C5.01764 17.3481 5 17.7834 5 18.2227C5 18.6411 5.016 19.0557 5.04742 19.466C9.48043 12.8775 15.9219 11.719 18.8944 15.4068C19.0237 15.5671 19.1539 15.7305 19.2859 15.896C22.1936 19.5429 25.8998 24.1912 37.1952 19.5593Z" fill="url(#paint3_radial_8507_78935)"/>
<path d="M5 20.4081C9.76512 15.7185 13.7844 15.1469 16.8739 17.9332C17.4193 18.4251 17.9755 19.0898 18.5916 19.8261C21.4668 23.262 25.6465 28.2569 36.125 24.5272C35.092 26.9324 33.4971 29.039 31.5056 30.682C28.9926 31.7883 25.5969 32.686 22.8242 31.2771C20.0374 29.861 18.9999 27.9953 17.9317 26.0745C17.0523 24.4933 16.1522 22.8748 14.2384 21.4391C10.7307 18.8077 6.59046 20.9968 5.26679 21.8301C5.15751 21.3635 5.06826 20.8892 5 20.4081Z" fill="url(#paint4_radial_8507_78935)"/>
</g>
<path d="M48.4403 5.81818H45.3182L48.679 16H52.4574L55.8182 5.81818H52.696L50.608 12.9972H50.5284L48.4403 5.81818ZM56.7988 16H64.117V13.7727H59.563V12.0227H63.7591V9.79545H59.563V8.04545H64.1369V5.81818H56.7988V16ZM74.3175 5.81818H71.5533V11.1477H71.4737L67.8544 5.81818H65.5078V16H68.272V10.6506H68.3317L72.0107 16H74.3175V5.81818ZM81.6506 5.81818V12.1023C81.6506 13.0518 80.9695 13.733 80.0199 13.733C79.0703 13.733 78.3892 13.0518 78.3892 12.1023V5.81818H75.625V12.3409C75.625 14.6676 77.3849 16.1193 80.0199 16.1193C82.6349 16.1193 84.4148 14.6676 84.4148 12.3409V5.81818H81.6506ZM91.2172 9H93.862C93.8521 7.00142 92.3109 5.67898 89.845 5.67898C87.4238 5.67898 85.7136 6.98153 85.7285 8.92045C85.7235 10.5114 86.8272 11.3963 88.6319 11.7841L89.6461 12.0028C90.7797 12.2514 91.1674 12.5348 91.1774 12.9972C91.1674 13.4993 90.71 13.8523 89.8251 13.8523C88.7662 13.8523 88.1397 13.3551 88.095 12.4205H85.47C85.4799 14.9759 87.21 16.1193 89.8649 16.1193C92.4451 16.1193 93.9913 15.0057 94.0012 12.9972C93.9913 11.446 93.0666 10.3572 90.8194 9.875L89.9842 9.69602C89.0197 9.49219 88.5872 9.20881 88.612 8.72159C88.617 8.27415 88.9899 7.94602 89.845 7.94602C90.7399 7.94602 91.1625 8.33878 91.2172 9Z" fill="#EDE3C8"/>
<path d="M48.3011 31L48.8878 29.0511H52.2486L52.8352 31H55.8182L52.4574 20.8182H48.679L45.3182 31H48.3011ZM49.5142 26.983L50.5284 23.6222H50.608L51.6222 26.983H49.5142ZM60.7164 31C63.8187 31 65.7875 29.0909 65.7875 25.9091C65.7875 22.7273 63.8187 20.8182 60.6767 20.8182H56.7988V31H60.7164ZM59.563 28.6534V23.1648H60.5375C62.1284 23.1648 63.0034 23.7812 63.0034 25.9091C63.0034 28.0369 62.1284 28.6534 60.617 28.6534H59.563ZM67.0664 31H71.859C74.0714 31 75.4386 29.7919 75.4386 28.1165C75.4386 26.6797 74.3796 25.7401 73.0721 25.6903V25.5909C74.2504 25.3572 75.0408 24.4872 75.0408 23.3636C75.0408 21.8125 73.8079 20.8182 71.4812 20.8182H67.0664V31ZM69.8306 28.7926V26.6449H71.163C72.0032 26.6449 72.5153 27.0426 72.5153 27.7585C72.5153 28.4396 72.0529 28.7926 71.1232 28.7926H69.8306ZM69.8306 24.9347V22.9858H71.0039C71.69 22.9858 72.1971 23.3338 72.1971 23.9602C72.1971 24.5866 71.69 24.9347 70.9641 24.9347H69.8306ZM76.418 31H83.2987V28.7727H79.1822V20.8182H76.418V31ZM93.8832 25.9091C93.8832 22.5085 91.6957 20.679 88.9315 20.679C86.1474 20.679 83.9798 22.5085 83.9798 25.9091C83.9798 29.2898 86.1474 31.1392 88.9315 31.1392C91.6957 31.1392 93.8832 29.3097 93.8832 25.9091ZM91.0394 25.9091C91.0394 27.7386 90.3036 28.733 88.9315 28.733C87.5593 28.733 86.8235 27.7386 86.8235 25.9091C86.8235 24.0795 87.5593 23.0852 88.9315 23.0852C90.3036 23.0852 91.0394 24.0795 91.0394 25.9091ZM104.668 24.6364C104.449 22.1108 102.6 20.679 100.034 20.679C97.29 20.679 95.1223 22.5085 95.1223 25.9091C95.1223 29.2947 97.2303 31.1392 100.034 31.1392C103.017 31.1392 104.529 29.071 104.668 27.3409L101.864 27.321C101.725 28.1911 101.108 28.733 100.094 28.733C98.7466 28.733 97.9661 27.7784 97.9661 25.9091C97.9661 24.1392 98.7218 23.0852 100.114 23.0852C101.178 23.0852 101.784 23.7116 101.864 24.6364H104.668ZM105.922 31H108.686V28.375L109.601 27.1818L111.888 31H115.189L111.669 25.3523L115.109 20.8182H111.888L108.825 24.9347H108.686V20.8182H105.922V31Z" fill="white"/>
<defs>
<filter id="filter0_d_8507_78935" x="0" y="0" width="42.25" height="42.25" filterUnits="userSpaceOnUse" color-interpolation-filters="sRGB">
<feFlood flood-opacity="0" result="BackgroundImageFix"/>
<feColorMatrix in="SourceAlpha" type="matrix" values="0 0 0 0 0 0 0 0 0 0 0 0 0 0 0 0 0 0 127 0" result="hardAlpha"/>
<feOffset dy="3"/>
<feGaussianBlur stdDeviation="2.5"/>
<feComposite in2="hardAlpha" operator="out"/>
<feColorMatrix type="matrix" values="0 0 0 0 0 0 0 0 0 0 0 0 0 0 0 0 0 0 0.25 0"/>
<feBlend mode="normal" in2="BackgroundImageFix" result="effect1_dropShadow_8507_78935"/>
<feBlend mode="normal" in="SourceGraphic" in2="effect1_dropShadow_8507_78935" result="shape"/>
</filter>
<radialGradient id="paint0_radial_8507_78935" cx="0" cy="0" r="1" gradientUnits="userSpaceOnUse" gradientTransform="translate(12.6182 11.856) rotate(41.3177) scale(31.8688 30.5545)">
<stop stop-color="#F8F0DC"/>
<stop offset="1" stop-color="#B8AA81"/>
</radialGradient>
<radialGradient id="paint1_radial_8507_78935" cx="0" cy="0" r="1" gradientUnits="userSpaceOnUse" gradientTransform="translate(13.4843 10.9762) rotate(48.4539) scale(32.2462 33.0565)">
<stop stop-color="#FAF2E0"/>
<stop offset="1" stop-color="#B6A97D"/>
</radialGradient>
<radialGradient id="paint2_radial_8507_78935" cx="0" cy="0" r="1" gradientUnits="userSpaceOnUse" gradientTransform="translate(13.4843 10.9762) rotate(48.4539) scale(32.2462 33.0565)">
<stop stop-color="#FAF2E0"/>
<stop offset="1" stop-color="#B6A97D"/>
</radialGradient>
<radialGradient id="paint3_radial_8507_78935" cx="0" cy="0" r="1" gradientUnits="userSpaceOnUse" gradientTransform="translate(13.2775 11.4548) rotate(49.155) scale(29.0112 28.7638)">
<stop stop-color="#F7EFD7"/>
<stop offset="1" stop-color="#D8CCA9"/>
</radialGradient>
<radialGradient id="paint4_radial_8507_78935" cx="0" cy="0" r="1" gradientUnits="userSpaceOnUse" gradientTransform="translate(12.5266 11.3564) rotate(41.5572) scale(34.1674 28.1603)">
<stop stop-color="#F2E6C3"/>
<stop offset="1" stop-color="#BAAC81"/>
</radialGradient>
</defs>
</svg>
