<svg width="11" height="15" viewBox="0 0 11 15" fill="none" xmlns="http://www.w3.org/2000/svg">
<g opacity="0.3">
<path d="M6.68159 1.71388H4.31843V2.11151H3.46501V1.65821C3.4649 1.21829 3.82262 0.860352 4.26233 0.860352H6.73768C7.17739 0.860352 7.53511 1.21829 7.53511 1.65821V2.11151H6.68159V1.71388Z" fill="#37B7FF"/>
<path d="M1.49415 5.49301H9.50598C9.72551 5.49301 9.89833 5.68029 9.88063 5.89917L9.21082 14.1816C9.1735 14.6439 8.78784 15 8.32451 15H2.67573C2.2124 15 1.82673 14.6439 1.78941 14.1814L1.1196 5.89917C1.1018 5.68029 1.27462 5.49301 1.49415 5.49301ZM7.56602 14.1166C7.57497 14.1172 7.58393 14.1175 7.59277 14.1175C7.81651 14.1175 8.00433 13.9433 8.01824 13.7169L8.43799 6.91753C8.45245 6.68225 8.27348 6.47976 8.03831 6.46531C7.80389 6.45107 7.60054 6.62961 7.58609 6.86499L7.16644 13.6644C7.15188 13.8997 7.33085 14.102 7.56602 14.1166ZM5.06855 13.6907C5.06855 13.9263 5.2596 14.1174 5.49532 14.1174C5.73103 14.1174 5.92208 13.9263 5.92208 13.6907V6.89121C5.92208 6.6555 5.73103 6.46445 5.49532 6.46445C5.25971 6.46445 5.06855 6.6555 5.06855 6.89121V13.6907ZM2.56213 6.91634L2.9629 13.7157C2.97617 13.9425 3.16431 14.1174 3.38847 14.1174C3.39689 14.1174 3.40541 14.1172 3.41393 14.1167C3.64921 14.1028 3.82872 13.9009 3.81481 13.6656L3.41415 6.86607C3.40034 6.63079 3.19904 6.45129 2.96311 6.4652C2.72783 6.47901 2.54833 6.68106 2.56213 6.91634Z" fill="#37B7FF"/>
<path d="M0.0183249 4.17603L0.29859 3.33588C0.372486 3.11441 0.579826 2.965 0.81338 2.965H10.1867C10.4202 2.965 10.6276 3.11441 10.7014 3.33588L10.9817 4.17603C11.0357 4.33806 10.9654 4.50333 10.8341 4.58574C10.7806 4.61929 10.7173 4.63947 10.6477 4.63947H0.352313C0.282732 4.63947 0.2193 4.61929 0.165901 4.58564C0.0346146 4.50322 -0.0357218 4.33795 0.0183249 4.17603Z" fill="#37B7FF"/>
</g>
</svg>
