<svg width="26" height="26" viewBox="0 0 26 26" fill="none" xmlns="http://www.w3.org/2000/svg">
<path d="M16.5854 0H9.39203C4.21008 0.01242 0.01242 4.21008 0 9.39203V16.5855C0 21.7762 4.2013 25.9876 9.39203 26H16.5855C21.7806 26 25.9938 21.7918 26 16.5967V9.39203C25.9875 4.2013 21.7761 0 16.5854 0ZM20.4527 12.9436L17.8144 15.582C17.6034 15.7937 17.2607 15.7943 17.049 15.5833C17.0486 15.5829 17.0481 15.5824 17.0477 15.582L15.4128 13.9471V20.5204C15.4067 20.8211 15.1612 21.0616 14.8604 21.0616H11.1284C10.8295 21.0616 10.5872 20.8193 10.5872 20.5204V13.9471L8.95231 15.5819C8.73694 15.7954 8.38971 15.7954 8.17434 15.5819L5.52475 12.9436C5.41936 12.8398 5.36213 12.6968 5.36688 12.5489C5.36392 12.4048 5.42111 12.2659 5.52475 12.1656L12.6054 5.10754C12.8216 4.90702 13.1558 4.90702 13.3721 5.10754L20.4527 12.1882C20.5594 12.2873 20.6205 12.426 20.6219 12.5715C20.6163 12.7129 20.5555 12.8464 20.4527 12.9436Z" fill="#37B7FF"/>
</svg>
