<svg width="24" height="24" viewBox="0 0 24 24" fill="none" xmlns="http://www.w3.org/2000/svg">
<path d="M21.504 3.45703H2.51498C1.99702 3.45703 1.57748 3.87656 1.57748 4.39219V20.1609C1.57748 20.6578 1.98061 21.0609 2.47748 21.0609H21.504C22.022 21.0609 22.4415 20.6414 22.4415 20.1234V4.39453C22.4392 3.87656 22.022 3.45703 21.504 3.45703ZM16.1673 7.50234C17.0626 7.50234 17.7962 8.23594 17.7962 9.13125C17.7962 10.0266 17.0626 10.7602 16.1673 10.7602C15.272 10.7602 14.5384 10.0266 14.5384 9.13125C14.5384 8.23594 15.2697 7.50234 16.1673 7.50234ZM18.5439 18.3281C18.5439 18.825 18.1408 19.2281 17.6439 19.2281H4.12514C3.62827 19.2281 3.22514 18.825 3.22514 18.3281V16.0922C3.22514 15.825 3.34467 15.5695 3.55092 15.4008L8.32983 11.4445C8.65326 11.1773 9.11498 11.168 9.4478 11.4234L18.1408 17.2031C18.3915 17.3695 18.5415 17.6508 18.5415 17.9508V18.3281H18.5439Z" fill="#FB1C1C"/>
</svg>
