<svg width="24" height="24" viewBox="0 0 24 24" fill="none" xmlns="http://www.w3.org/2000/svg">
<path d="M22 8H16V2C15.9987 0.895979 15.104 0.00132245 14 0H2C0.895979 0.00132245 0.00132245 0.895979 0 2V14C0.00132245 15.104 0.895979 15.9987 2 16H8V22C8.00132 23.104 8.89598 23.9987 10 24H22C23.104 23.9987 23.9987 23.104 24 22V10C23.9987 8.89598 23.104 8.00132 22 8ZM2 15.2C1.33726 15.2 0.8 14.6627 0.8 14V2C0.8 1.33726 1.33726 0.8 2 0.8H14C14.6627 0.8 15.2 1.33726 15.2 2V8H10C8.89598 8.00132 8.00132 8.89598 8 10V15.2H2Z" fill="#393939"/>
<path d="M16 8H22C23.104 8.00132 23.9987 8.89598 24 10V22C23.9987 23.104 23.104 23.9987 22 24H10C8.89598 23.9987 8.00132 23.104 8 22V16V15.2V10C8.00132 8.89598 8.89598 8.00132 10 8H15.2H16Z" fill="#F91818"/>
<path d="M20.4 1.60004H17.6C17.3791 1.60004 17.2 1.77912 17.2 2.00004C17.2 2.22095 17.3791 2.40004 17.6 2.40004H20.4C20.6209 2.40004 20.8 2.57912 20.8 2.80004V5.43444L20.2828 4.91724C20.1259 4.76565 19.8764 4.76782 19.7221 4.92211C19.5678 5.0764 19.5656 5.32589 19.7172 5.48284L20.9172 6.68284C20.9922 6.75807 21.0941 6.80035 21.2004 6.80035C21.3067 6.80035 21.4086 6.75807 21.4836 6.68284L22.6836 5.48284C22.8352 5.32589 22.833 5.0764 22.6787 4.92211C22.5244 4.76782 22.275 4.76565 22.118 4.91724L21.6 5.43444V2.80004C21.6 2.13729 21.0627 1.60004 20.4 1.60004Z" fill="#393939"/>
<path d="M3.15514 17.4331C3.20395 17.4531 3.24829 17.4826 3.28554 17.5199L4.48554 18.7199C4.63713 18.8769 4.63497 19.1263 4.48067 19.2806C4.32638 19.4349 4.0769 19.4371 3.91994 19.2855L3.40234 18.7679L3.40234 21.4023C3.40234 21.6232 3.58143 21.8023 3.80234 21.8023L6.60235 21.8023C6.82326 21.8023 7.00235 21.9814 7.00235 22.2023C7.00235 22.4232 6.82326 22.6023 6.60235 22.6023L3.80234 22.6023C3.1396 22.6023 2.60234 22.0651 2.60234 21.4023L2.60234 18.7679L2.08514 19.2851C1.98471 19.3891 1.83599 19.4308 1.69614 19.3942C1.55628 19.3576 1.44707 19.2484 1.41046 19.1085C1.37385 18.9687 1.41556 18.8199 1.51954 18.7195L2.71954 17.5195C2.75679 17.4822 2.80113 17.4527 2.84994 17.4327C2.94773 17.3925 3.05746 17.3926 3.15514 17.4331Z" fill="#393939"/>
</svg>
