<svg width="24" height="24" viewBox="0 0 24 24" fill="none" xmlns="http://www.w3.org/2000/svg">
<g clip-path="url(#clip0)">
<path d="M12 14C11.808 14 11.616 13.927 11.47 13.78L6.21996 8.53C5.74896 8.059 6.08396 7.25 6.74996 7.25H9.49996V1.25C9.49996 0.561 10.061 0 10.75 0H13.25C13.939 0 14.5 0.561 14.5 1.25V7.25H17.25C17.916 7.25 18.251 8.059 17.78 8.53L12.53 13.78C12.384 13.927 12.192 14 12 14Z" fill="#FB1C1C"/>
<path d="M11 21.192L0 16.15V18.5C0 18.699 0.118 18.879 0.301 18.958L11 23.61V21.192Z" fill="#FB1C1C"/>
<path d="M13.0001 21.192V23.611L23.6991 18.959C23.8821 18.879 24.0001 18.699 24.0001 18.5V16.15L13.0001 21.192Z" fill="#FB1C1C"/>
<path d="M17.581 11.558L13.945 15.194C13.425 15.714 12.734 16 12 16C11.266 16 10.575 15.714 10.056 15.194L6.42 11.558L0 14.5L12 20L24 14.5L17.581 11.558Z" fill="#FB1C1C"/>
</g>
<defs>
<clipPath id="clip0">
<rect width="24" height="24" fill="white"/>
</clipPath>
</defs>
</svg>
