<svg width="24" height="24" viewBox="0 0 24 24" fill="none" xmlns="http://www.w3.org/2000/svg">
<path d="M21.1875 6.65625H17.3438V2.8125C17.3438 1.26169 16.0821 0 14.5312 0H2.8125C1.26169 0 0 1.26169 0 2.8125V14.5312C0 16.0821 1.26169 17.3438 2.8125 17.3438H6.65625V21.1875C6.65625 22.7383 7.91794 24 9.46875 24H21.1875C22.7383 24 24 22.7383 24 21.1875V9.46875C24 7.91794 22.7383 6.65625 21.1875 6.65625Z" fill="#FB1C1C"/>
<path d="M8.53125 11.7656H6.65625V13.6406H8.53125V11.7656Z" fill="white"/>
<path d="M9.46875 6.65625C7.91794 6.65625 6.65625 7.91794 6.65625 9.46875V9.9375H8.53125V9.46875C8.53125 8.95181 8.95181 8.53125 9.46875 8.53125H9.84375V6.65625H9.46875Z" fill="white"/>
<path d="M13.5938 6.65625H11.7188V8.53125H13.5938V6.65625Z" fill="white"/>
<path d="M15.4688 14.0625V14.5312C15.4688 15.0482 15.0482 15.4688 14.5312 15.4688H14.1562V17.3438H14.5312C16.0821 17.3438 17.3438 16.0821 17.3438 14.5312V14.0625H15.4688Z" fill="white"/>
<path d="M17.3438 10.3594H15.4688V12.2344H17.3438V10.3594Z" fill="white"/>
<path d="M12.2812 15.4688H10.4062V17.3438H12.2812V15.4688Z" fill="white"/>
</svg>
