<?xml version="1.0" encoding="utf-8"?>
<!-- Generator: Adobe Illustrator 27.0.1, SVG Export Plug-In . SVG Version: 6.00 Build 0)  -->
<svg version="1.1" id="Слой_1" xmlns="http://www.w3.org/2000/svg" xmlns:xlink="http://www.w3.org/1999/xlink" x="0px" y="0px"
	 viewBox="0 0 128 128" style="enable-background:new 0 0 128 128;" xml:space="preserve">
<style type="text/css">
	.st0{fill:#FFFFFF;}
	.st1{fill:#582CFD;}
</style>
<g>
	<path class="st0" d="M128,127.8H30c-16.6,0-30-13.4-30-30v-68c0-16.6,13.4-30,30-30h68c16.6,0,30,13.4,30,30V127.8z"/>
	<path class="st1" d="M125,63.8c0-11.9-8.8-21.8-20.2-23.5C109,29.5,104.9,17,94.5,11C84.2,5,71.2,7.7,64,16.7
		C56.8,7.7,43.8,5,33.5,11S19,29.5,23.2,40.3C11.8,42,3,51.9,3,63.8s8.8,21.8,20.2,23.5c-4.2,10.8-0.1,23.3,10.3,29.3
		c10.3,6,23.3,3.3,30.5-5.7c7.2,9,20.2,11.7,30.5,5.7s14.5-18.5,10.3-29.3C116.2,85.6,125,75.7,125,63.8z"/>
	<g>
		<path class="st0" d="M76.6,34.5H51.4c-3.2,0-6.2,1.7-7.9,4.4l-12.1,20c-1.8,2.9-1.8,6.6,0,9.6l12.2,20c1.7,2.8,4.7,4.4,7.9,4.4
			h25.1c3.2,0,6.2-1.7,7.9-4.4l12.1-20c1.8-2.9,1.8-6.6,0-9.6l-12.2-20C82.8,36.2,79.8,34.5,76.6,34.5z"/>
		<path class="st1" d="M48.5,70.8L48.5,70.8c-2.9,0-5.2-2.3-5.2-5.2V56c0-2.9,2.3-5.2,5.2-5.2l0,0c2.9,0,5.2,2.3,5.2,5.2v9.6
			C53.7,68.4,51.4,70.8,48.5,70.8z"/>
		<path class="st1" d="M79.9,70.8L79.9,70.8c-2.9,0-5.2-2.3-5.2-5.2V56c0-2.9,2.3-5.2,5.2-5.2l0,0c2.9,0,5.2,2.3,5.2,5.2v9.6
			C85.1,68.4,82.7,70.8,79.9,70.8z"/>
		<path class="st1" d="M57,74.7c-0.8,0-1.4,0.7-1.3,1.4c0.6,4.2,4.2,7.5,8.5,7.6c4.4,0.1,8.2-3.2,8.9-7.6c0.1-0.8-0.5-1.4-1.3-1.4
			H57z"/>
	</g>
	<path class="st0" d="M73.2,34.5l6.4,9.3c2.6,0.1,9.1,0,12.3-4.1c0.9-1.2,2.2-3.5,2.3-4.7c0-0.3-0.2-0.5-0.5-0.5H73.2z"/>
</g>
</svg>
