<?xml version="1.0" encoding="utf-8"?>
<!-- Generator: Adobe Illustrator 27.0.1, SVG Export Plug-In . SVG Version: 6.00 Build 0)  -->
<svg version="1.1" id="Слой_1" xmlns="http://www.w3.org/2000/svg" xmlns:xlink="http://www.w3.org/1999/xlink" x="0px" y="0px"
	 viewBox="0 0 128 128" style="enable-background:new 0 0 128 128;" xml:space="preserve">
<style type="text/css">
	.st0{fill:#FFFFFF;}
	.st1{fill:#582CFD;}
	.st2{fill:#008D36;}
</style>
<path class="st0" d="M128,128H30c-16.6,0-30-13.4-30-30V30C0,13.4,13.4,0,30,0h68c16.6,0,30,13.4,30,30V128z"/>
<path class="st1" d="M125,64c0-11.9-8.8-21.8-20.2-23.5c4.2-10.8,0.1-23.3-10.3-29.3c-10.3-6-23.3-3.3-30.5,5.7
	c-7.2-9-20.2-11.7-30.5-5.7S19,29.7,23.2,40.5C11.8,42.2,3,52.1,3,64s8.8,21.8,20.2,23.5c-4.2,10.8-0.1,23.3,10.3,29.3
	c10.3,6,23.3,3.3,30.5-5.7c7.2,9,20.2,11.7,30.5,5.7s14.5-18.5,10.3-29.3C116.2,85.8,125,75.9,125,64z"/>
<path class="st2" d="M73.5,73.6c0,5.2-4.2,9.5-9.5,9.5c-5.2,0-9.5-4.2-9.5-9.5"/>
<g>
	<path class="st0" d="M76.6,34.8H51.4c-3.2,0-6.2,1.7-7.9,4.4l-12.1,20c-1.8,2.9-1.8,6.6,0,9.6l12.2,20c1.7,2.8,4.7,4.4,7.9,4.4
		h25.1c3.2,0,6.2-1.7,7.9-4.4l12.1-20c1.8-2.9,1.8-6.6,0-9.6l-12.2-20C82.8,36.5,79.8,34.8,76.6,34.8z"/>
</g>
<path class="st1" d="M68.9,64l9.1-9.1c1-1,1-2.6,0-3.6L76.8,50c-1-1-2.6-1-3.7,0L64,59.1L54.9,50c-1-1-2.6-1-3.6,0L50,51.2
	c-1,1-1,2.6,0,3.7l9.1,9.1L50,73.1c-1,1-1,2.6,0,3.7l1.2,1.2c1,1,2.6,1,3.6,0l9.1-9.1l9.1,9.1c1,1,2.6,1,3.7,0l1.2-1.2
	c1-1,1-2.6,0-3.7L68.9,64z"/>
</svg>
