<svg width="56" height="56" viewBox="0 0 56 56" fill="none" xmlns="http://www.w3.org/2000/svg">
<path d="M56 21.032H46.3909V34.9681H56V21.032Z" fill="white"/>
<path d="M56 21.032H46.3909V34.9681H56V21.032Z" fill="#4F5365"/>
<path d="M54.2858 5.38171H46.3909V17.6034H56V7.09606C56 6.14974 55.232 5.38171 54.2858 5.38171Z" fill="#4F5365"/>
<path d="M46.3909 38.3965V50.6182H54.2858C55.2321 50.6182 56 49.8502 56 48.904V38.3965H46.3909Z" fill="#4F5365"/>
<path d="M13.0377 5.38171V50.6182H42.9623V5.38171H13.0377ZM35.5852 29.4823L24.5817 35.872C23.4388 36.5341 22.0068 35.711 22.0068 34.3897V21.6103C22.0068 20.2905 23.4393 19.4657 24.5817 20.1281L35.5852 26.5178C36.7214 27.1769 36.7227 28.8225 35.5852 29.4823Z" fill="#4F5365"/>
<path d="M9.60914 21.032H0V34.9681H9.60914V21.032Z" fill="#4F5365"/>
<path d="M1.71423 5.38171C0.768031 5.38171 0 6.14974 0 7.09606V17.6035H9.60914V5.38171H1.71423Z" fill="#4F5365"/>
<path d="M0 38.3965V48.904C0 49.8503 0.768031 50.6182 1.71423 50.6182H9.60914V38.3965H0Z" fill="#4F5365"/>
</svg>
