<svg width="15" height="15" viewBox="0 0 15 15" fill="none" xmlns="http://www.w3.org/2000/svg">
<path d="M14.7656 7.48626C14.773 11.4894 11.5084 14.7628 7.50527 14.7656C5.77632 14.7668 4.18819 14.1641 2.94018 13.1569C2.61565 12.895 2.5914 12.4086 2.8863 12.1137L3.21639 11.7836C3.4686 11.5314 3.87126 11.5038 4.15069 11.7255C5.07018 12.4551 6.23382 12.8906 7.5 12.8906C10.4796 12.8906 12.8906 10.4792 12.8906 7.5C12.8906 4.52036 10.4792 2.10938 7.5 2.10938C6.0699 2.10938 4.77103 2.66511 3.8066 3.57223L5.29354 5.05916C5.58885 5.35447 5.3797 5.85938 4.9621 5.85938H0.703125C0.444229 5.85938 0.234375 5.64952 0.234375 5.39062V1.13165C0.234375 0.714053 0.739277 0.504902 1.03459 0.800186L2.48103 2.24663C3.78542 1.00008 5.55328 0.234375 7.5 0.234375C11.5081 0.234375 14.7582 3.47988 14.7656 7.48626ZM9.46547 9.79438L9.75325 9.42437C9.99167 9.11783 9.93645 8.67606 9.62991 8.43768L8.4375 7.51022V4.45312C8.4375 4.0648 8.1227 3.75 7.73438 3.75H7.26562C6.8773 3.75 6.5625 4.0648 6.5625 4.45312V8.42728L8.47878 9.91772C8.78531 10.1561 9.22705 10.1009 9.46547 9.79438Z" fill="#471BA6"/>
</svg>
