<svg width="17" height="17" viewBox="0 0 17 17" fill="none" xmlns="http://www.w3.org/2000/svg">
<g clip-path="url(#clip0)">
<path d="M15.5833 14.1667H1.41667C0.634253 14.1667 0 13.5324 0 12.75V4.25C0 3.46759 0.634253 2.83334 1.41667 2.83334H15.5833C16.3657 2.83334 17 3.46759 17 4.25V12.75C17 13.5324 16.3657 14.1667 15.5833 14.1667ZM3.77778 6.25695V5.07639C3.77778 4.8808 3.6192 4.72222 3.42361 4.72222H2.24306C2.04747 4.72222 1.88889 4.8808 1.88889 5.07639V6.25695C1.88889 6.45254 2.04747 6.61111 2.24306 6.61111H3.42361C3.6192 6.61111 3.77778 6.45254 3.77778 6.25695ZM6.61111 6.25695V5.07639C6.61111 4.8808 6.45253 4.72222 6.25694 4.72222H5.07639C4.8808 4.72222 4.72222 4.8808 4.72222 5.07639V6.25695C4.72222 6.45254 4.8808 6.61111 5.07639 6.61111H6.25694C6.45253 6.61111 6.61111 6.45254 6.61111 6.25695ZM9.44444 6.25695V5.07639C9.44444 4.8808 9.28587 4.72222 9.09028 4.72222H7.90972C7.71413 4.72222 7.55556 4.8808 7.55556 5.07639V6.25695C7.55556 6.45254 7.71413 6.61111 7.90972 6.61111H9.09028C9.28587 6.61111 9.44444 6.45254 9.44444 6.25695ZM12.2778 6.25695V5.07639C12.2778 4.8808 12.1192 4.72222 11.9236 4.72222H10.7431C10.5475 4.72222 10.3889 4.8808 10.3889 5.07639V6.25695C10.3889 6.45254 10.5475 6.61111 10.7431 6.61111H11.9236C12.1192 6.61111 12.2778 6.45254 12.2778 6.25695ZM15.1111 6.25695V5.07639C15.1111 4.8808 14.9525 4.72222 14.7569 4.72222H13.5764C13.3808 4.72222 13.2222 4.8808 13.2222 5.07639V6.25695C13.2222 6.45254 13.3808 6.61111 13.5764 6.61111H14.7569C14.9525 6.61111 15.1111 6.45254 15.1111 6.25695ZM5.19444 9.09028V7.90972C5.19444 7.71414 5.03587 7.55556 4.84028 7.55556H3.65972C3.46413 7.55556 3.30556 7.71414 3.30556 7.90972V9.09028C3.30556 9.28587 3.46413 9.44445 3.65972 9.44445H4.84028C5.03587 9.44445 5.19444 9.28587 5.19444 9.09028ZM8.02778 9.09028V7.90972C8.02778 7.71414 7.8692 7.55556 7.67361 7.55556H6.49306C6.29747 7.55556 6.13889 7.71414 6.13889 7.90972V9.09028C6.13889 9.28587 6.29747 9.44445 6.49306 9.44445H7.67361C7.8692 9.44445 8.02778 9.28587 8.02778 9.09028ZM10.8611 9.09028V7.90972C10.8611 7.71414 10.7025 7.55556 10.5069 7.55556H9.32639C9.1308 7.55556 8.97222 7.71414 8.97222 7.90972V9.09028C8.97222 9.28587 9.1308 9.44445 9.32639 9.44445H10.5069C10.7025 9.44445 10.8611 9.28587 10.8611 9.09028ZM13.6944 9.09028V7.90972C13.6944 7.71414 13.5359 7.55556 13.3403 7.55556H12.1597C11.9641 7.55556 11.8056 7.71414 11.8056 7.90972V9.09028C11.8056 9.28587 11.9641 9.44445 12.1597 9.44445H13.3403C13.5359 9.44445 13.6944 9.28587 13.6944 9.09028ZM3.77778 11.9236V10.7431C3.77778 10.5475 3.6192 10.3889 3.42361 10.3889H2.24306C2.04747 10.3889 1.88889 10.5475 1.88889 10.7431V11.9236C1.88889 12.1192 2.04747 12.2778 2.24306 12.2778H3.42361C3.6192 12.2778 3.77778 12.1192 3.77778 11.9236ZM12.2778 11.9236V10.7431C12.2778 10.5475 12.1192 10.3889 11.9236 10.3889H5.07639C4.8808 10.3889 4.72222 10.5475 4.72222 10.7431V11.9236C4.72222 12.1192 4.8808 12.2778 5.07639 12.2778H11.9236C12.1192 12.2778 12.2778 12.1192 12.2778 11.9236ZM15.1111 11.9236V10.7431C15.1111 10.5475 14.9525 10.3889 14.7569 10.3889H13.5764C13.3808 10.3889 13.2222 10.5475 13.2222 10.7431V11.9236C13.2222 12.1192 13.3808 12.2778 13.5764 12.2778H14.7569C14.9525 12.2778 15.1111 12.1192 15.1111 11.9236Z" fill="#83829C"/>
</g>
<defs>
<clipPath id="clip0">
<rect width="17" height="17" fill="white"/>
</clipPath>
</defs>
</svg>
