<svg width="13" height="12" viewBox="0 0 13 12" fill="none" xmlns="http://www.w3.org/2000/svg">
<path d="M5.55129 0.0256657L0.0659466 3.72287C-0.0219822 3.78213 -0.0219822 3.91192 0.0659466 3.97119L5.55129 7.66839C5.65032 7.73514 5.78349 7.66393 5.78349 7.54423V5.81979C5.78349 5.73718 5.85014 5.67018 5.93247 5.67027C7.43428 5.6718 9.69879 5.7188 10.1059 7.16192C10.6259 9.00533 9.32513 10.1369 7.01421 11.7441C6.88256 11.8357 6.96419 12.0328 7.11995 11.9953C10.6421 11.1473 13.4795 8.56499 12.9321 5.83596C12.2797 2.58402 8.5075 2.04374 5.93168 2.02439C5.84935 2.02378 5.78349 1.95687 5.78349 1.87427V0.149827C5.78349 0.0301252 5.65032 -0.0410822 5.55129 0.0256657Z" fill="white"/>
</svg>
