<svg width="266" height="223" viewBox="0 0 266 223" fill="none" xmlns="http://www.w3.org/2000/svg">
<path d="M66.72 18.2C69.552 18.2 71.792 18.952 73.44 20.456C75.088 21.96 75.912 24.008 75.912 26.6C75.912 29.192 75.088 31.24 73.44 32.744C71.792 34.248 69.552 35 66.72 35H58.008V34.76H58.32C58.736 34.76 59.088 34.616 59.376 34.328C59.68 34.024 59.84 33.664 59.856 33.248V19.808C59.856 19.424 59.696 19.104 59.376 18.848C59.072 18.576 58.72 18.44 58.32 18.44H58.008V18.2H66.72ZM66.408 33.968C67.56 33.968 68.552 33.672 69.384 33.08C70.232 32.488 70.88 31.64 71.328 30.536C71.776 29.416 72 28.2 72 26.888C72 25.576 71.864 24.464 71.592 23.552C71.336 22.624 70.968 21.84 70.488 21.2C69.496 19.872 68.136 19.208 66.408 19.208H63.456V33.968H66.408ZM84.0383 19.256H83.0063C82.9743 19.256 82.9503 19.256 82.9343 19.256V33.248C82.9503 33.664 83.1023 34.024 83.3903 34.328C83.6943 34.616 84.0543 34.76 84.4703 34.76H84.7823V35H77.4863V34.76H77.7983C78.3743 34.76 78.8143 34.512 79.1183 34.016C79.2463 33.792 79.3183 33.544 79.3343 33.272V19.952C79.3183 19.536 79.1583 19.184 78.8543 18.896C78.5663 18.592 78.2143 18.44 77.7983 18.44H77.4863V18.2H85.7183C87.2703 18.2 88.5823 18.536 89.6543 19.208C90.1983 19.544 90.6303 20.016 90.9503 20.624C91.2703 21.216 91.4303 22 91.4303 22.976C91.4303 23.936 91.0943 24.864 90.4223 25.76C89.7503 26.656 88.7743 27.168 87.4943 27.296C88.4223 27.6 89.2383 28.304 89.9423 29.408C91.6703 32.176 92.9503 33.824 93.7823 34.352C94.1983 34.608 94.7183 34.744 95.3423 34.76V35H92.9903C91.5983 35 90.4383 34.816 89.5103 34.448C88.5983 34.08 87.8783 33.432 87.3503 32.504C87.0463 31.976 86.3823 30.608 85.3583 28.4C84.9103 27.424 84.3663 26.888 83.7263 26.792V26.552H84.4703C85.1903 26.552 85.8223 26.336 86.3663 25.904C86.9263 25.472 87.3023 24.768 87.4943 23.792C87.5583 23.456 87.5903 23.192 87.5903 23C87.5903 21.688 87.3263 20.744 86.7983 20.168C86.2703 19.576 85.5903 19.272 84.7583 19.256C84.5983 19.256 84.3583 19.256 84.0383 19.256ZM97.3294 20.216C99.0414 18.648 101.337 17.864 104.217 17.864C107.113 17.864 109.409 18.648 111.105 20.216C112.817 21.784 113.673 23.912 113.673 26.6C113.673 29.288 112.817 31.416 111.105 32.984C109.409 34.552 107.113 35.336 104.217 35.336C101.337 35.336 99.0414 34.552 97.3294 32.984C95.6334 31.416 94.7854 29.288 94.7854 26.6C94.7854 23.912 95.6334 21.784 97.3294 20.216ZM100.185 32.264C101.177 33.64 102.521 34.328 104.217 34.328C105.913 34.328 107.257 33.64 108.249 32.264C109.241 30.872 109.737 28.984 109.737 26.6C109.737 24.216 109.241 22.336 108.249 20.96C107.257 19.568 105.913 18.872 104.217 18.872C102.521 18.872 101.177 19.568 100.185 20.96C99.2094 22.336 98.7214 24.216 98.7214 26.6C98.7214 28.984 99.2094 30.872 100.185 32.264ZM138.094 18.44H137.878C137.478 18.44 137.07 18.56 136.654 18.8C136.254 19.04 135.966 19.384 135.79 19.832L131.758 32.768C131.486 33.648 131.35 34.464 131.35 35.216C131.35 35.296 131.35 35.368 131.35 35.432H131.11L125.878 23.84L122.086 32.768C121.718 33.696 121.526 34.584 121.51 35.432H121.27L115.534 19.832C115.326 19.368 115.03 19.024 114.646 18.8C114.262 18.56 113.87 18.44 113.47 18.44H113.278V18.2H120.598V18.44H120.382C120.046 18.44 119.79 18.552 119.614 18.776C119.454 18.984 119.374 19.184 119.374 19.376C119.374 19.568 119.406 19.752 119.47 19.928L122.422 28.28L126.766 17.816L126.982 17.84L131.758 28.376L134.158 19.928C134.206 19.752 134.23 19.568 134.23 19.376C134.23 19.184 134.15 18.984 133.99 18.776C133.846 18.552 133.598 18.44 133.246 18.44H133.03V18.2H138.094V18.44Z" fill="#1564F7"/>
<path d="M19.6074 45.4557C16.8636 47.7687 13.3196 49.1625 9.45 49.1625C8.27306 49.1625 7.12623 49.0336 6.02287 48.789C3.16147 51.7042 -0.823716 53.5125 -5.23125 53.5125C-13.9401 53.5125 -21 46.4526 -21 37.7438C-21 29.0349 -13.9401 21.975 -5.23125 21.975C-4.05431 21.975 -2.90748 22.1039 -1.80412 22.3485C1.05728 19.4333 5.04247 17.625 9.45 17.625C11.9809 17.625 14.3726 18.2213 16.4922 19.281C18.4732 18.2241 20.7354 17.625 23.1375 17.625C28.3985 17.625 32.9884 20.4987 35.4229 24.7621C35.6143 24.7541 35.8067 24.75 36 24.75C40.6813 24.75 44.806 27.1327 47.2277 30.7515C50.0378 28.6542 53.5239 27.4125 57.3 27.4125C66.6095 27.4125 74.1562 34.9593 74.1562 44.2688C74.1562 53.5782 66.6095 61.125 57.3 61.125C50.1988 61.125 44.1232 56.7339 41.6405 50.5188C39.9241 51.3092 38.0135 51.75 36 51.75C31.342 51.75 27.2349 49.3909 24.8085 45.8023C24.2605 45.8668 23.7029 45.9 23.1375 45.9C21.9186 45.9 20.7358 45.7458 19.6074 45.4557Z" fill="white"/>
<g filter="url(#filter0_d)">
<path d="M26.3798 48.4681C24.9751 49.13 23.4057 49.5 21.75 49.5C20.9383 49.5 20.1474 49.4111 19.3865 49.2424C17.4131 51.2529 14.6647 52.5 11.625 52.5C5.6189 52.5 0.75 47.6311 0.75 41.625C0.75 35.6189 5.6189 30.75 11.625 30.75C12.4367 30.75 13.2276 30.8389 13.9885 31.0076C15.9619 28.9971 18.7103 27.75 21.75 27.75C24.373 27.75 26.7791 28.6786 28.6575 30.2251C29.3316 30.0777 30.0317 30 30.75 30C32.2108 30 33.5965 30.3212 34.8405 30.897C36.8696 29.1683 39.5005 28.125 42.375 28.125C46.969 28.125 50.9407 30.7898 52.8284 34.6581C53.4535 34.5541 54.0954 34.5 54.75 34.5C61.1703 34.5 66.375 39.7047 66.375 46.125C66.375 52.5453 61.1703 57.75 54.75 57.75C50.156 57.75 46.1843 55.0852 44.2966 51.2169C43.6715 51.3209 43.0296 51.375 42.375 51.375C39.5005 51.375 36.8696 50.3317 34.8405 48.603C33.5965 49.1788 32.2108 49.5 30.75 49.5C29.1787 49.5 27.6943 49.1283 26.3798 48.4681Z" fill="white"/>
</g>
<g filter="url(#filter1_d)">
<path d="M36.161 56.3747C35.3832 56.5387 34.5767 56.625 33.75 56.625C31.4327 56.625 29.2737 55.947 27.4607 54.7784C25.8557 55.9402 23.8828 56.625 21.75 56.625C19.2733 56.625 17.0122 55.7015 15.2924 54.1801C14.2639 54.549 13.1554 54.75 12 54.75C6.61522 54.75 2.25 50.3848 2.25 45C2.25 39.6152 6.61522 35.25 12 35.25C14.4767 35.25 16.7378 36.1735 18.4576 37.6949C19.4861 37.326 20.5946 37.125 21.75 37.125C22.8078 37.125 23.8262 37.2934 24.7799 37.605C26.9121 35.0216 30.1388 33.375 33.75 33.375C38.9508 33.375 43.3539 36.7902 44.839 41.5003C45.6168 41.3363 46.4233 41.25 47.25 41.25C53.6703 41.25 58.875 46.4547 58.875 52.875C58.875 59.2953 53.6703 64.5 47.25 64.5C42.0492 64.5 37.6461 61.0848 36.161 56.3747Z" fill="white"/>
</g>
<circle opacity="0.1" cx="33" cy="28.875" r="21.75" fill="#1564F7"/>
<circle opacity="0.1" cx="33" cy="28.875" r="19.5" fill="#1564F7"/>
<circle opacity="0.1" cx="33" cy="28.875" r="17.25" fill="#1564F7"/>
<circle cx="33" cy="28.875" r="15" fill="#1564F7"/>
<path d="M0 43.2933C0 43.2933 6.19767 38.5 24.5 38.5C42.8023 38.5 73.5 45 117 43.2933V68H0L0 43.2933Z" fill="#D3DAEF"/>
<path d="M19.9283 213.173C17.9443 212.519 13.3809 213.369 11 222C18.4403 220.529 20.4244 215.625 19.9283 213.173Z" fill="#7E8DBB"/>
<path d="M256.072 213.173C258.056 212.519 262.619 213.369 265 222C257.56 220.529 255.576 215.625 256.072 213.173Z" fill="#7E8DBB"/>
<path d="M256.072 19.8273C258.056 20.4812 262.619 19.6311 265 11C257.56 12.4712 255.576 17.3753 256.072 19.8273Z" fill="#7E8DBB"/>
<path d="M12.5 187C12.5 187 16 191 13 198C10 205 12.5 209 12.5 209" stroke="white" stroke-linecap="round"/>
<path d="M263.715 187C263.715 187 260.215 191 263.215 198C266.215 205 263.715 209 263.715 209" stroke="white" stroke-linecap="round"/>
<path d="M24 219.977C24 219.977 28 223.477 35 220.477C42 217.477 46 219.977 46 219.977" stroke="white" stroke-linecap="round"/>
<path d="M230 220.715C230 220.715 234 217.215 241 220.215C248 223.215 252 220.715 252 220.715" stroke="white" stroke-linecap="round"/>
<circle cx="242" cy="199" r="2" fill="white"/>
<path d="M24 55C24 54.4477 24.4477 54 25 54V54C25.5523 54 26 54.4477 26 55V209H24V55Z" fill="white"/>
<rect x="250" y="24" width="2" height="185" fill="white"/>
<rect x="252" y="207" width="2.00001" height="228" transform="rotate(90 252 207)" fill="white"/>
<path d="M252 24L252 26L178 26C177.448 26 177 25.5523 177 25V25C177 24.4477 177.448 24 178 24L252 24Z" fill="white"/>
<circle cx="34" cy="199" r="2" fill="white"/>
<circle cx="242" cy="34" r="2" fill="white"/>
<path d="M137.934 70C140.228 68.9512 143.458 64.6828 138.022 56C132.83 63.0266 135.37 68.4577 137.934 70Z" fill="#7E8DBB"/>
<path d="M109.009 70.2201C109.009 70.2201 113.779 72.5656 119.764 67.8561C125.749 63.1466 130.259 64.5261 130.259 64.5261" stroke="white" stroke-linecap="round"/>
<path d="M166.052 70.2201C166.052 70.2201 161.283 72.5656 155.298 67.8561C149.313 63.1466 144.802 64.5261 144.802 64.5261" stroke="white" stroke-linecap="round"/>
<path d="M230 11.9766C230 11.9766 234 15.4766 241 12.4766C248 9.47657 252 11.9766 252 11.9766" stroke="white" stroke-linecap="round"/>
<path d="M263.715 46C263.715 46 260.215 42 263.215 35C266.215 28 263.715 24 263.715 24" stroke="white" stroke-linecap="round"/>
<defs>
<filter id="filter0_d" x="-2.25" y="22.75" width="71.625" height="36" filterUnits="userSpaceOnUse" color-interpolation-filters="sRGB">
<feFlood flood-opacity="0" result="BackgroundImageFix"/>
<feColorMatrix in="SourceAlpha" type="matrix" values="0 0 0 0 0 0 0 0 0 0 0 0 0 0 0 0 0 0 127 0" result="hardAlpha"/>
<feOffset dy="-2"/>
<feGaussianBlur stdDeviation="1.5"/>
<feComposite in2="hardAlpha" operator="out"/>
<feColorMatrix type="matrix" values="0 0 0 0 0.0117647 0 0 0 0 0.0588235 0 0 0 0 0.2 0 0 0 0.15 0"/>
<feBlend mode="normal" in2="BackgroundImageFix" result="effect1_dropShadow"/>
<feBlend mode="normal" in="SourceGraphic" in2="effect1_dropShadow" result="shape"/>
</filter>
<filter id="filter1_d" x="-0.75" y="28.375" width="62.625" height="37.125" filterUnits="userSpaceOnUse" color-interpolation-filters="sRGB">
<feFlood flood-opacity="0" result="BackgroundImageFix"/>
<feColorMatrix in="SourceAlpha" type="matrix" values="0 0 0 0 0 0 0 0 0 0 0 0 0 0 0 0 0 0 127 0" result="hardAlpha"/>
<feOffset dy="-2"/>
<feGaussianBlur stdDeviation="1.5"/>
<feComposite in2="hardAlpha" operator="out"/>
<feColorMatrix type="matrix" values="0 0 0 0 0.0117647 0 0 0 0 0.0588235 0 0 0 0 0.2 0 0 0 0.15 0"/>
<feBlend mode="normal" in2="BackgroundImageFix" result="effect1_dropShadow"/>
<feBlend mode="normal" in="SourceGraphic" in2="effect1_dropShadow" result="shape"/>
</filter>
</defs>
</svg>
