<svg width="268" height="225" viewBox="0 0 268 225" fill="none" xmlns="http://www.w3.org/2000/svg">
<ellipse cx="14.8125" cy="12.3677" rx="0.5625" ry="0.565022" fill="#1564F7"/>
<ellipse cx="11.4375" cy="17.2646" rx="0.5625" ry="0.565022" fill="#1564F7"/>
<ellipse cx="2.5625" cy="28.6906" rx="0.5625" ry="0.565022" fill="#1564F7"/>
<ellipse cx="64.5625" cy="35.722" rx="0.5625" ry="0.565022" fill="#1564F7"/>
<ellipse cx="59.5625" cy="19.6502" rx="0.5625" ry="0.565022" fill="#1564F7"/>
<ellipse cx="72.5625" cy="24.6727" rx="0.5625" ry="0.565022" fill="#1564F7"/>
<ellipse cx="62.5625" cy="25.6771" rx="0.5625" ry="0.565022" fill="#1564F7"/>
<ellipse cx="84.5625" cy="26.6816" rx="0.5625" ry="0.565022" fill="#1564F7"/>
<ellipse cx="80.5625" cy="36.7265" rx="0.5625" ry="0.565022" fill="#1564F7"/>
<ellipse cx="77.5625" cy="17.6413" rx="0.5625" ry="0.565022" fill="#1564F7"/>
<ellipse cx="98.5625" cy="32.7085" rx="0.5625" ry="0.565022" fill="#1564F7"/>
<ellipse cx="67.5625" cy="11.6143" rx="0.5625" ry="0.565022" fill="#1564F7"/>
<ellipse cx="61.5625" cy="4.58297" rx="0.5625" ry="0.565022" fill="#1564F7"/>
<ellipse cx="46.5625" cy="1.56951" rx="0.5625" ry="0.565022" fill="#1564F7"/>
<ellipse cx="14.5625" cy="1.56951" rx="0.5625" ry="0.565022" fill="#1564F7"/>
<ellipse cx="6.5625" cy="20.6547" rx="0.5625" ry="0.565022" fill="#1564F7"/>
<ellipse cx="71.5625" cy="7.59643" rx="0.5625" ry="0.565022" fill="#1564F7"/>
<ellipse cx="4.5625" cy="7.59643" rx="0.5625" ry="0.565022" fill="#1564F7"/>
<ellipse cx="25.6875" cy="6.71749" rx="0.5625" ry="0.565022" fill="#1564F7"/>
<ellipse cx="36.9375" cy="12.3677" rx="0.5625" ry="0.565022" fill="#1564F7"/>
<ellipse cx="49.3125" cy="8.2242" rx="0.5625" ry="0.565022" fill="#1564F7"/>
<ellipse cx="47.0625" cy="13.4978" rx="0.5625" ry="0.565022" fill="#1564F7"/>
<ellipse cx="53.0625" cy="16.1345" rx="0.5625" ry="0.565022" fill="#1564F7"/>
<ellipse cx="12.5625" cy="30.4484" rx="0.5625" ry="0.565022" fill="#1564F7"/>
<ellipse cx="19.3125" cy="34.9686" rx="0.5625" ry="0.565022" fill="#1564F7"/>
<ellipse cx="48.9375" cy="32.7085" rx="0.5625" ry="0.565022" fill="#1564F7"/>
<ellipse cx="55.3125" cy="37.2287" rx="0.5625" ry="0.565022" fill="#1564F7"/>
<ellipse cx="54.5625" cy="27.435" rx="0.5625" ry="0.565022" fill="#1564F7"/>
<ellipse opacity="0.6" cx="16.875" cy="17.8296" rx="0.375" ry="0.376682" fill="#1564F7"/>
<ellipse opacity="0.6" cx="10.5" cy="24.2332" rx="0.375" ry="0.376682" fill="#1564F7"/>
<ellipse opacity="0.6" cx="14.25" cy="37.0403" rx="0.375" ry="0.376682" fill="#1564F7"/>
<ellipse opacity="0.6" cx="51.375" cy="23.4798" rx="0.375" ry="0.376682" fill="#1564F7"/>
<ellipse opacity="0.6" cx="55.875" cy="13.6861" rx="0.375" ry="0.376682" fill="#1564F7"/>
<ellipse opacity="0.6" cx="1.375" cy="13.435" rx="0.375" ry="0.376682" fill="#1564F7"/>
<ellipse opacity="0.6" cx="34.375" cy="0.376682" rx="0.375" ry="0.376682" fill="#1564F7"/>
<ellipse opacity="0.6" cx="67.375" cy="18.4574" rx="0.375" ry="0.376682" fill="#1564F7"/>
<ellipse opacity="0.6" cx="72.375" cy="31.5157" rx="0.375" ry="0.376682" fill="#1564F7"/>
<ellipse opacity="0.6" cx="69.375" cy="26.4933" rx="0.375" ry="0.376682" fill="#1564F7"/>
<ellipse opacity="0.6" cx="65.375" cy="30.5112" rx="0.375" ry="0.376682" fill="#1564F7"/>
<ellipse opacity="0.6" cx="78.375" cy="38.5471" rx="0.375" ry="0.376682" fill="#1564F7"/>
<ellipse opacity="0.6" cx="82.375" cy="27.4977" rx="0.375" ry="0.376682" fill="#1564F7"/>
<ellipse opacity="0.6" cx="80.375" cy="18.4574" rx="0.375" ry="0.376682" fill="#1564F7"/>
<ellipse opacity="0.6" cx="87.375" cy="22.4753" rx="0.375" ry="0.376682" fill="#1564F7"/>
<ellipse opacity="0.6" cx="92.375" cy="34.5291" rx="0.375" ry="0.376682" fill="#1564F7"/>
<ellipse opacity="0.6" cx="96.375" cy="42.565" rx="0.375" ry="0.376682" fill="#1564F7"/>
<ellipse opacity="0.6" cx="42" cy="6.52915" rx="0.375" ry="0.376682" fill="#1564F7"/>
<ellipse opacity="0.6" cx="28.5" cy="12.9327" rx="0.375" ry="0.376682" fill="#1564F7"/>
<ellipse opacity="0.6" cx="47.625" cy="38.9238" rx="0.375" ry="0.376682" fill="#1564F7"/>
<ellipse opacity="0.6" cx="52.6875" cy="34.9686" rx="0.1875" ry="0.188341" fill="#1564F7"/>
<ellipse opacity="0.6" cx="55.6875" cy="28.9417" rx="0.1875" ry="0.188341" fill="#1564F7"/>
<ellipse opacity="0.6" cx="49.3125" cy="17.2646" rx="0.1875" ry="0.188341" fill="#1564F7"/>
<ellipse opacity="0.6" cx="53.0625" cy="9.35427" rx="0.1875" ry="0.188341" fill="#1564F7"/>
<ellipse opacity="0.6" cx="7.1875" cy="12.2421" rx="0.1875" ry="0.188341" fill="#1564F7"/>
<ellipse opacity="0.6" cx="3.1875" cy="21.2825" rx="0.1875" ry="0.188341" fill="#1564F7"/>
<ellipse opacity="0.6" cx="7.1875" cy="27.3094" rx="0.1875" ry="0.188341" fill="#1564F7"/>
<ellipse opacity="0.6" cx="5.1875" cy="32.3318" rx="0.1875" ry="0.188341" fill="#1564F7"/>
<ellipse opacity="0.6" cx="7.1875" cy="36.3498" rx="0.1875" ry="0.188341" fill="#1564F7"/>
<ellipse opacity="0.6" cx="3.1875" cy="2.19731" rx="0.1875" ry="0.188341" fill="#1564F7"/>
<ellipse opacity="0.6" cx="11.1875" cy="5.21077" rx="0.1875" ry="0.188341" fill="#1564F7"/>
<ellipse opacity="0.6" cx="25.1875" cy="0.188341" rx="0.1875" ry="0.188341" fill="#1564F7"/>
<ellipse opacity="0.6" cx="37.1875" cy="5.21077" rx="0.1875" ry="0.188341" fill="#1564F7"/>
<ellipse opacity="0.6" cx="60.1875" cy="2.19731" rx="0.1875" ry="0.188341" fill="#1564F7"/>
<ellipse opacity="0.6" cx="53.1875" cy="2.19731" rx="0.1875" ry="0.188341" fill="#1564F7"/>
<ellipse opacity="0.6" cx="58.1875" cy="6.21526" rx="0.1875" ry="0.188341" fill="#1564F7"/>
<ellipse opacity="0.6" cx="66.1875" cy="12.2421" rx="0.1875" ry="0.188341" fill="#1564F7"/>
<ellipse opacity="0.6" cx="61.1875" cy="14.2511" rx="0.1875" ry="0.188341" fill="#1564F7"/>
<ellipse opacity="0.6" cx="73.1875" cy="32.3318" rx="0.1875" ry="0.188341" fill="#1564F7"/>
<ellipse opacity="0.6" cx="80.1875" cy="22.287" rx="0.1875" ry="0.188341" fill="#1564F7"/>
<ellipse opacity="0.6" cx="92.1875" cy="25.3005" rx="0.1875" ry="0.188341" fill="#1564F7"/>
<ellipse opacity="0.6" cx="89.1875" cy="36.3498" rx="0.1875" ry="0.188341" fill="#1564F7"/>
<ellipse opacity="0.6" cx="70.1875" cy="38.3587" rx="0.1875" ry="0.188341" fill="#1564F7"/>
<ellipse opacity="0.6" cx="75.1875" cy="10.2332" rx="0.1875" ry="0.188341" fill="#1564F7"/>
<ellipse opacity="0.6" cx="68.1875" cy="6.21526" rx="0.1875" ry="0.188341" fill="#1564F7"/>
<ellipse opacity="0.6" cx="79.1875" cy="10.2332" rx="0.1875" ry="0.188341" fill="#1564F7"/>
<ellipse opacity="0.6" cx="78.1875" cy="14.2511" rx="0.1875" ry="0.188341" fill="#1564F7"/>
<ellipse opacity="0.6" cx="39.5625" cy="10.1076" rx="0.1875" ry="0.188341" fill="#1564F7"/>
<ellipse opacity="0.6" cx="32.8125" cy="5.58745" rx="0.1875" ry="0.188341" fill="#1564F7"/>
<ellipse opacity="0.6" cx="17.0625" cy="22.5381" rx="0.1875" ry="0.188341" fill="#1564F7"/>
<ellipse opacity="0.6" cx="13.6875" cy="22.1614" rx="0.1875" ry="0.188341" fill="#1564F7"/>
<ellipse opacity="0.6" cx="14.0625" cy="25.9282" rx="0.1875" ry="0.188341" fill="#1564F7"/>
<ellipse opacity="0.6" cx="16.6875" cy="26.6816" rx="0.1875" ry="0.188341" fill="#1564F7"/>
<ellipse opacity="0.6" cx="15.5625" cy="31.2018" rx="0.1875" ry="0.188341" fill="#1564F7"/>
<ellipse opacity="0.6" cx="14.8125" cy="15.3812" rx="0.1875" ry="0.188341" fill="#1564F7"/>
<ellipse opacity="0.6" cx="15.5625" cy="7.84752" rx="0.1875" ry="0.188341" fill="#1564F7"/>
<ellipse opacity="0.6" cx="18.5625" cy="10.4843" rx="0.1875" ry="0.188341" fill="#1564F7"/>
<ellipse opacity="0.6" cx="23.0625" cy="5.21077" rx="0.1875" ry="0.188341" fill="#1564F7"/>
<ellipse opacity="0.6" cx="21.9375" cy="12.3677" rx="0.1875" ry="0.188341" fill="#1564F7"/>
<ellipse opacity="0.6" cx="22.6875" cy="19.148" rx="0.1875" ry="0.188341" fill="#1564F7"/>
<ellipse opacity="0.6" cx="19.6875" cy="19.148" rx="0.1875" ry="0.188341" fill="#1564F7"/>
<ellipse opacity="0.6" cx="40.6875" cy="46.6457" rx="0.1875" ry="0.188341" fill="#1564F7"/>
<ellipse opacity="0.6" cx="46.3125" cy="30.4484" rx="0.1875" ry="0.188341" fill="#1564F7"/>
<path d="M19.6074 44.6551C16.8636 46.9784 13.3196 48.3785 9.45 48.3785C8.27306 48.3785 7.12623 48.249 6.02287 48.0033C3.16147 50.9316 -0.823716 52.748 -5.23125 52.748C-13.9401 52.748 -21 45.6564 -21 36.9085C-21 28.1606 -13.9401 21.0691 -5.23125 21.0691C-4.05431 21.0691 -2.90748 21.1986 -1.80412 21.4442C1.05728 18.516 5.04247 16.6996 9.45 16.6996C11.9809 16.6996 14.3726 17.2985 16.4922 18.363C18.4732 17.3013 20.7354 16.6996 23.1375 16.6996C28.3985 16.6996 32.9884 19.5862 35.4229 23.8687C35.6143 23.8606 35.8067 23.8565 36 23.8565C40.6813 23.8565 44.806 26.2499 47.2277 29.8849C50.0378 27.7782 53.5239 26.5309 57.3 26.5309C66.6095 26.5309 74.1562 34.1116 74.1562 43.4628C74.1562 52.814 66.6095 60.3946 57.3 60.3946C50.1988 60.3946 44.1232 55.9838 41.6405 49.7409C39.9241 50.5348 38.0135 50.9776 36 50.9776C31.342 50.9776 27.2349 48.6079 24.8085 45.0032C24.2605 45.068 23.7029 45.1013 23.1375 45.1013C21.9186 45.1013 20.7358 44.9464 19.6074 44.6551Z" fill="#013263"/>
<g filter="url(#filter0_d)">
<path d="M26.3798 47.681C24.9751 48.3458 23.4057 48.7175 21.75 48.7175C20.9383 48.7175 20.1474 48.6282 19.3865 48.4588C17.4131 50.4783 14.6647 51.731 11.625 51.731C5.6189 51.731 0.75 46.8402 0.75 40.8072C0.75 34.7742 5.6189 29.8834 11.625 29.8834C12.4367 29.8834 13.2276 29.9727 13.9885 30.1421C15.9619 28.1227 18.7103 26.87 21.75 26.87C24.373 26.87 26.7791 27.8028 28.6575 29.3561C29.3316 29.2081 30.0317 29.1301 30.75 29.1301C32.2108 29.1301 33.5965 29.4527 34.8405 30.031C36.8696 28.2946 39.5005 27.2466 42.375 27.2466C46.969 27.2466 50.9407 29.9234 52.8284 33.809C53.4535 33.7046 54.0954 33.6502 54.75 33.6502C61.1703 33.6502 66.375 38.8783 66.375 45.3274C66.375 51.7765 61.1703 57.0045 54.75 57.0045C50.156 57.0045 46.1843 54.3277 44.2966 50.4421C43.6715 50.5466 43.0296 50.6009 42.375 50.6009C39.5005 50.6009 36.8696 49.5529 34.8405 47.8165C33.5965 48.3948 32.2108 48.7175 30.75 48.7175C29.1787 48.7175 27.6943 48.3442 26.3798 47.681Z" fill="#013263"/>
</g>
<g filter="url(#filter1_d)">
<path d="M36.161 55.623C35.3832 55.7878 34.5767 55.8744 33.75 55.8744C31.4327 55.8744 29.2737 55.1933 27.4607 54.0196C25.8557 55.1865 23.8828 55.8744 21.75 55.8744C19.2733 55.8744 17.0122 54.9468 15.2924 53.4186C14.2639 53.7891 13.1554 53.991 12 53.991C6.61522 53.991 2.25 49.6062 2.25 44.1973C2.25 38.7884 6.61522 34.4036 12 34.4036C14.4767 34.4036 16.7378 35.3312 18.4576 36.8594C19.4861 36.4889 20.5946 36.287 21.75 36.287C22.8078 36.287 23.8262 36.4562 24.7799 36.7691C26.9121 34.1742 30.1388 32.5202 33.75 32.5202C38.9508 32.5202 43.3539 35.9507 44.839 40.682C45.6168 40.5172 46.4233 40.4305 47.25 40.4305C53.6703 40.4305 58.875 45.6585 58.875 52.1076C58.875 58.5567 53.6703 63.7847 47.25 63.7847C42.0492 63.7847 37.6461 60.3542 36.161 55.623Z" fill="#013263"/>
</g>
<ellipse opacity="0.1" cx="33" cy="28" rx="21.75" ry="21.8475" fill="white"/>
<ellipse opacity="0.1" cx="33" cy="28" rx="19.5" ry="19.5874" fill="white"/>
<ellipse opacity="0.1" cx="33" cy="28" rx="17.25" ry="17.3274" fill="white"/>
<ellipse cx="33" cy="28" rx="15" ry="15.0673" fill="white"/>
<path d="M0 42.483C0 42.483 6.19767 37.6682 24.5 37.6682C42.8023 37.6682 73.5 44.1973 117 42.483V67.3004H0L0 42.483Z" fill="#030F33"/>
<path fill-rule="evenodd" clip-rule="evenodd" d="M27.3927 34.3009C27.2929 34.5191 26.8081 36.0135 26.5781 36.7335C26.887 36.4496 27.3127 35.8822 27.4869 35.634C27.5531 35.5266 27.7551 35.2104 28.0332 34.8052C28.3376 34.3616 28.5828 33.8687 28.6695 33.6944C28.6818 33.6697 28.6909 33.6514 28.6966 33.6405C28.7292 33.5778 28.7549 33.5718 28.7839 33.565C28.7954 33.5623 28.8073 33.5595 28.8204 33.553C28.8574 33.5348 28.8358 33.5086 28.8204 33.4979C28.8173 33.4952 28.8129 33.471 28.8204 33.3957C28.8279 33.3203 28.9444 33.1696 29.0017 33.1037C29.0986 33.0346 29.3062 32.9818 29.3612 33.3235C29.43 33.7505 29.5519 34.1179 29.6113 34.2466C29.6588 34.3496 29.8185 34.9118 29.8924 35.1801C29.928 35.363 30.0247 35.7667 30.1268 35.9181C30.2363 36.0803 30.1186 36.3227 29.9846 36.599C29.9622 36.6451 29.9393 36.6922 29.917 36.74C29.7922 37.0072 29.7806 37.4387 29.7905 37.621C29.8032 37.8852 29.8423 38.4666 29.8964 38.6795C29.9506 38.8924 29.9831 39.0629 29.9925 39.1215H31.8999C31.8925 39.0909 31.8666 38.9684 31.8223 38.7234C31.7812 38.4966 31.8359 38.1981 31.8727 37.9974C31.8856 37.9271 31.8963 37.8687 31.8999 37.8297C31.9103 37.7162 31.8843 37.6042 31.84 37.4135C31.8256 37.3517 31.8094 37.2816 31.7918 37.2006C31.7219 36.8786 31.7992 36.6937 31.8585 36.5519C31.8602 36.5478 31.8619 36.5437 31.8636 36.5397C31.9234 36.3963 31.9949 36.1929 31.9949 35.9196V35.4078L32.1892 33.7971C32.1994 33.4802 32.2552 32.788 32.3967 32.5547C32.5556 32.2929 32.6473 32.7665 32.6954 33.0149C32.7009 33.0431 32.7058 33.0685 32.7102 33.0895C32.7445 33.254 33.0927 34.0096 33.2626 34.3667C33.4166 34.6554 33.7589 35.2862 33.896 35.5005C34.0503 35.7416 34.0444 35.8531 34.0416 35.9046C34.0413 35.9103 34.0411 35.9153 34.0411 35.9196C34.0411 35.9629 34.058 36.0293 34.1647 36.1722C34.233 36.2637 34.2685 36.3946 34.2969 36.4992C34.3129 36.5579 34.3265 36.6084 34.3425 36.6389C34.387 36.7237 34.636 37.2753 34.6471 37.3199C34.6505 37.3337 34.6541 37.3651 34.6586 37.4042C34.6686 37.4917 34.6831 37.6179 34.7101 37.6722C34.7474 37.7471 34.7639 37.8937 34.7795 38.032L34.7817 38.0513C34.7947 38.1663 35.0221 38.8107 35.1342 39.1184H37.2254C37.2506 38.9542 37.1717 38.4187 37.1291 38.1714C37.1464 38.1422 37.1485 38.0367 37.0182 37.8489C36.8878 37.6611 36.6727 37.3011 36.5814 37.1446C37.1128 36.1135 38.1822 34.0403 38.2079 33.9962C38.2534 34.0555 38.3455 34.0475 38.3859 34.0361C38.4212 34.007 38.5044 33.933 38.5544 33.8707C38.6041 33.8086 38.5506 33.779 38.5171 33.7719C38.5135 33.7624 38.4968 33.7227 38.4487 33.6113C38.3822 33.4576 38.3935 33.2949 38.4074 33.2328C38.4454 33.2363 38.5498 33.2189 38.6631 33.1218C38.7764 33.0246 38.7863 32.4634 38.7771 32.195C38.7921 32.1638 38.8131 32.0694 38.7771 31.9416C38.6699 31.5857 38.4853 31.3757 38.4142 31.2948C38.4028 31.2818 38.3943 31.2721 38.3895 31.2657C38.3549 31.2193 38.326 31.0803 38.3174 31.0194C38.3116 30.979 38.2983 30.9578 38.2815 30.9311C38.273 30.9176 38.2636 30.9027 38.2539 30.8832C38.2511 30.8775 38.2458 30.8676 38.2384 30.8537C38.1708 30.7268 37.9263 30.2674 37.7565 29.663C37.5954 29.089 37.6357 28.451 37.6554 28.1397C37.6587 28.0874 37.6615 28.0444 37.6626 28.0123C37.6686 27.8343 37.5818 27.7366 37.5376 27.7099V27.6491C37.5553 27.6351 37.5982 27.5966 37.6285 27.554C37.6572 27.5135 37.7057 27.5038 37.734 27.4981C37.7429 27.4963 37.7498 27.4949 37.7535 27.4931C37.7656 27.487 37.857 27.4297 37.9012 27.4018C37.8835 27.3859 37.8428 27.347 37.8216 27.3181C37.7951 27.282 37.7269 27.1222 37.7023 27.0461C37.6777 26.97 37.7326 26.9301 37.7535 26.9244C37.7606 26.9224 37.7872 26.9189 37.8209 26.9143C37.885 26.9058 37.9749 26.8937 38.0072 26.8825C38.0445 26.8696 38.0829 26.8621 38.1314 26.8526C38.1469 26.8495 38.1635 26.8463 38.1814 26.8426C38.2223 26.8027 38.2585 26.7725 38.2951 26.742C38.3142 26.7261 38.3335 26.71 38.3537 26.6923C38.3215 26.6562 38.2041 26.4679 38.1814 26.4279C38.1781 26.4222 38.1737 26.4153 38.1686 26.4074C38.1386 26.3609 38.0863 26.28 38.119 26.1884C38.1383 26.1344 38.1755 26.1169 38.2161 26.0978C38.256 26.079 38.2993 26.0586 38.3322 26.0006C38.3833 25.9102 38.297 25.8067 38.2244 25.7196C38.2028 25.6937 38.1825 25.6693 38.1673 25.6471C38.1009 25.5501 37.813 25.2079 37.6126 24.9754C37.4425 24.778 37.2724 24.4505 37.1339 24.184C37.1093 24.1366 37.0857 24.0911 37.0632 24.0486C36.9376 23.8109 36.592 23.3402 36.4573 23.1566C36.4326 23.1231 36.415 23.0991 36.4071 23.0879C36.356 23.0157 36.2575 22.9244 36.0814 22.7798C35.9406 22.6642 35.7297 22.519 35.6418 22.4609C35.6607 22.4514 35.6919 22.3722 35.6654 22.1312C35.6368 21.8705 35.4342 21.6572 35.3369 21.5548C35.3218 21.5389 35.3093 21.5257 35.3003 21.5154C35.2333 21.4385 35.0451 21.2175 34.9208 21.0125C34.7964 20.8074 34.4643 20.387 34.4246 20.3395C34.3912 20.2996 34.3965 20.2529 34.4013 20.2108C34.4022 20.2028 34.4031 20.1949 34.4038 20.1873C34.4051 20.1709 34.4171 20.1124 34.4331 20.0349C34.4636 19.8875 34.5081 19.6717 34.5193 19.5482C34.4147 19.6456 34.2005 19.8542 34.1064 19.9463C34.0439 19.8847 33.8661 19.612 33.6548 19.0134C33.3986 18.2879 33.1827 18.0237 33.0766 17.8939C33.0733 17.8898 33.07 17.8859 33.0669 17.882C32.9928 17.7911 32.872 17.8369 32.7548 17.8814C32.7103 17.8983 32.6664 17.915 32.6257 17.9239C32.5218 17.9466 32.4545 18.0098 32.4033 18.0579C32.3816 18.0782 32.3629 18.0958 32.3455 18.1065C32.3415 18.1089 32.3375 18.1113 32.3336 18.1138C32.2791 18.147 32.2275 18.1783 32.2205 18.251C32.2144 18.3134 32.3177 18.4787 32.3701 18.5535C32.3669 18.5763 32.3606 18.6269 32.3606 18.6467C32.3606 18.6714 32.3398 18.7817 32.3284 18.8198C32.3193 18.8502 32.3147 18.898 32.3135 18.9181C32.2769 18.9251 32.1344 18.9825 31.8574 19.1556C31.5112 19.3719 31.2811 20.0951 31.271 20.1598C31.2628 20.2115 31.2252 20.3544 31.2074 20.4194C31.1677 20.387 31.0817 20.314 31.0559 20.2805C31.0238 20.2387 30.7568 20.0218 30.6962 19.9838C30.6477 19.9534 30.6583 20.0079 30.6697 20.039C30.7145 20.0935 30.8075 20.2109 30.8211 20.2444C30.8382 20.2862 30.912 20.4327 30.9329 20.4593C30.9537 20.4859 31.1139 20.7944 31.1465 20.8926C31.1492 21.1464 31.1909 21.4525 31.257 21.6132C31.3027 21.7242 31.2986 21.7335 31.2608 21.821C31.2438 21.8603 31.2201 21.9152 31.1909 22.0021C31.1343 22.171 31.2134 22.3727 31.2731 22.5248C31.3127 22.6256 31.3437 22.7046 31.321 22.738C31.2756 22.8049 31.2781 22.8381 31.2851 22.8464C31.3194 22.8901 31.3984 22.9848 31.4401 23.0136C31.4817 23.0424 31.555 23.1454 31.5865 23.1934C31.5756 23.1945 31.5273 23.196 31.4205 23.1934C31.3013 23.1904 31.222 23.2811 31.1574 23.355C31.1498 23.3638 31.1423 23.3723 31.135 23.3805C31.0662 23.457 30.8155 23.6939 30.791 23.7137C30.7664 23.7334 30.3265 24.2247 30.3314 24.2592C30.3363 24.2938 30.363 24.6147 30.363 24.7035C30.363 24.7252 30.3647 24.761 30.3667 24.8065C30.3732 24.948 30.3839 25.1828 30.363 25.3745C30.2352 26.0896 29.774 26.7855 29.7589 26.7988C29.7437 26.8122 29.7002 26.873 29.6983 26.9377C29.6965 26.9966 29.5627 27.1124 29.453 27.2074C29.4423 27.2166 29.4319 27.2256 29.4218 27.2344C29.3309 27.3135 29.2034 27.3498 29.151 27.358C29.1447 27.3593 29.1321 27.3672 29.1321 27.3885C29.2256 27.4452 29.2215 27.5344 29.2205 27.5558C29.2204 27.5574 29.2204 27.5586 29.2204 27.5594C29.2204 27.6043 29.2503 27.6466 29.2761 27.683C29.2843 27.6946 29.292 27.7056 29.2983 27.7159C29.3762 27.659 29.4966 27.6637 29.5721 27.6732C29.6326 27.6808 29.6477 27.8376 29.6477 27.9151C29.6839 27.9151 29.7709 27.9189 29.8295 27.9341C29.787 27.9815 29.6642 28.2539 29.6888 28.2748C29.7134 28.2958 29.7191 28.3414 29.7115 28.3813C29.7048 28.4167 29.624 28.4922 29.5622 28.55C29.5541 28.5575 29.5464 28.5648 29.5392 28.5716C29.5019 28.6106 29.4646 28.7167 29.4487 28.7619C29.4461 28.7695 29.444 28.7753 29.4426 28.7789C29.4352 28.7984 29.4301 28.7954 29.4152 28.7867C29.4112 28.7844 29.4066 28.7817 29.401 28.7789C29.3677 28.7591 29.3341 28.7871 29.3215 28.8036C29.2747 28.8879 29.1722 29.0756 29.1359 29.1517C29.0957 29.2358 29.1281 29.2708 29.1479 29.2922C29.1505 29.295 29.1528 29.2976 29.1548 29.3C29.1685 29.3168 29.2135 29.345 29.2343 29.3571C29.211 29.3989 29.1624 29.4929 29.1548 29.534C29.1453 29.5853 29.1056 29.6842 29.0658 29.747C29.0173 29.7272 28.9711 29.7781 28.9541 29.806L28.8462 30.0228C28.8197 30.0761 28.8518 30.156 28.8954 30.1883C28.9325 30.2158 28.8843 30.2669 28.8318 30.3226C28.8227 30.3322 28.8135 30.342 28.8045 30.3519C28.756 30.4051 28.7338 30.5275 28.7288 30.582C28.7332 30.6492 28.7329 30.8399 28.6966 31.0651C28.6588 31.299 28.3831 31.6157 28.2758 31.739C28.2539 31.7641 28.239 31.7812 28.2345 31.7879C28.2578 31.8128 28.2532 32.0648 28.2507 32.1998C28.2501 32.2301 28.2497 32.2545 28.2497 32.2691C28.2497 32.333 28.1828 32.3604 28.1493 32.3661C28.0944 32.375 27.9759 32.3943 27.941 32.4004C27.8975 32.408 27.8123 32.4726 27.7763 32.5031C27.762 32.5152 27.7456 32.5267 27.731 32.5369C27.7087 32.5526 27.6903 32.5654 27.6892 32.5735C27.6877 32.5841 27.7012 32.6096 27.7081 32.621C27.7851 32.5817 27.9588 32.5194 28.0376 32.5849C28.1158 32.6498 28.0496 32.7602 28.0029 32.8382C27.9907 32.8585 27.9799 32.8766 27.9732 32.8911C27.941 32.9615 27.8691 33.0718 27.8502 33.0813C27.8312 33.0908 27.8123 33.1079 27.8123 33.1517C27.8517 33.176 27.8376 33.2694 27.8257 33.3131C27.7229 33.5514 27.4925 34.0827 27.3927 34.3009ZM36.375 36.4948C36.3222 36.1931 36.2135 35.5161 36.201 35.2218C36.1854 34.8538 36.1231 34.0865 36.1114 34.0239C36.108 34.0057 36.1046 33.9638 36.1004 33.9126C36.0903 33.7871 36.0755 33.6054 36.0451 33.5776C36.039 33.572 36.031 33.5658 36.0221 33.5589C35.9684 33.5173 35.8819 33.4501 35.9789 33.3427C36.032 33.2838 36.0791 33.2552 36.1186 33.2312C36.163 33.2042 36.1978 33.1832 36.2205 33.1313C36.2357 33.0965 36.2649 33.0557 36.2963 33.0117C36.3534 32.932 36.4178 32.8419 36.4193 32.7592C36.4195 32.752 36.4197 32.7439 36.4199 32.7351C36.4232 32.5879 36.4313 32.2303 36.3085 31.9632C36.1785 31.6802 36.0363 31.3294 36.001 31.2319C35.9977 31.2229 35.9944 31.2131 35.9908 31.2027C35.9551 31.0996 35.8984 30.9356 35.7567 30.9303C35.6007 30.9244 35.5506 30.8386 35.5477 30.7825C35.5453 30.7375 35.5036 30.5337 35.4831 30.4375C35.4698 30.4058 35.4236 30.3393 35.3448 30.3271C35.2464 30.3119 35.2161 30.2796 35.2009 30.1845C35.1888 30.1084 35.1593 29.9042 35.146 29.8117C35.1277 29.7749 35.1021 29.6964 35.146 29.6766C35.1536 29.6732 35.1617 29.6696 35.1703 29.6658C35.2242 29.6421 35.2963 29.6103 35.36 29.5644C35.4338 29.5112 35.5209 29.4427 35.5304 29.4027C35.5399 29.3628 35.5531 29.3152 35.5664 29.3C35.5606 29.2911 35.5527 29.2822 35.5439 29.2723C35.515 29.2399 35.4765 29.1968 35.4736 29.1079C35.4698 28.9919 35.4944 28.8264 35.5304 28.7846C35.5333 28.7812 35.5366 28.7772 35.5403 28.7727C35.5815 28.7225 35.6688 28.6161 35.7993 28.6895C35.9413 28.7694 35.9887 28.8702 35.9924 28.9367C35.9931 28.9492 35.9933 28.96 35.9934 28.9693C35.9938 29.0101 35.9939 29.0228 36.0417 29.0166C36.0886 29.0105 36.2077 29.0039 36.2613 29.0014C36.4008 29.2838 36.6852 29.8618 36.7073 29.9146C36.7349 29.9805 36.9526 30.463 36.9906 30.5046C37.0286 30.5463 37.1945 30.7684 37.2463 30.9524C37.2878 31.0996 37.2821 31.2289 37.274 31.2752C37.2886 31.2848 37.3193 31.3115 37.3252 31.3411C37.3326 31.3782 37.3178 31.7781 37.3031 31.8472C37.2935 31.8923 37.2964 31.9479 37.2996 32.0085C37.3013 32.0408 37.3031 32.0745 37.3031 32.1088C37.3031 32.1878 37.3178 32.3507 37.3252 32.4223C37.3514 32.503 37.4038 32.6751 37.4038 32.7185C37.4038 32.762 37.3203 32.7926 37.2785 32.8025C37.213 32.814 37.0854 32.8691 37.0991 32.9975C37.1129 33.1258 37.1294 33.2007 37.136 33.2221H37.3031L36.375 36.4948Z" fill="#030F33"/>
<path d="M66.72 17.2852C69.552 17.2852 71.792 18.0372 73.44 19.5412C75.088 21.0452 75.912 23.0932 75.912 25.6852C75.912 28.2772 75.088 30.3252 73.44 31.8292C71.792 33.3332 69.552 34.0852 66.72 34.0852H58.008V33.8452H58.32C58.736 33.8452 59.088 33.7012 59.376 33.4132C59.68 33.1092 59.84 32.7492 59.856 32.3332V18.8932C59.856 18.5092 59.696 18.1892 59.376 17.9332C59.072 17.6612 58.72 17.5252 58.32 17.5252H58.008V17.2852H66.72ZM66.408 33.0532C67.56 33.0532 68.552 32.7572 69.384 32.1652C70.232 31.5732 70.88 30.7252 71.328 29.6212C71.776 28.5012 72 27.2852 72 25.9732C72 24.6612 71.864 23.5492 71.592 22.6372C71.336 21.7092 70.968 20.9252 70.488 20.2852C69.496 18.9572 68.136 18.2932 66.408 18.2932H63.456V33.0532H66.408ZM84.0383 18.3412H83.0063C82.9743 18.3412 82.9503 18.3412 82.9343 18.3412V32.3332C82.9503 32.7492 83.1023 33.1092 83.3903 33.4132C83.6943 33.7012 84.0543 33.8452 84.4703 33.8452H84.7823V34.0852H77.4863V33.8452H77.7983C78.3743 33.8452 78.8143 33.5972 79.1183 33.1012C79.2463 32.8772 79.3183 32.6292 79.3343 32.3572V19.0372C79.3183 18.6212 79.1583 18.2692 78.8543 17.9812C78.5663 17.6772 78.2143 17.5252 77.7983 17.5252H77.4863V17.2852H85.7183C87.2703 17.2852 88.5823 17.6212 89.6543 18.2932C90.1983 18.6292 90.6303 19.1012 90.9503 19.7092C91.2703 20.3012 91.4303 21.0852 91.4303 22.0612C91.4303 23.0212 91.0943 23.9492 90.4223 24.8452C89.7503 25.7412 88.7743 26.2532 87.4943 26.3812C88.4223 26.6852 89.2383 27.3892 89.9423 28.4932C91.6703 31.2612 92.9503 32.9092 93.7823 33.4372C94.1983 33.6932 94.7183 33.8292 95.3423 33.8452V34.0852H92.9903C91.5983 34.0852 90.4383 33.9012 89.5103 33.5332C88.5983 33.1652 87.8783 32.5172 87.3503 31.5892C87.0463 31.0612 86.3823 29.6932 85.3583 27.4852C84.9103 26.5092 84.3663 25.9732 83.7263 25.8772V25.6372H84.4703C85.1903 25.6372 85.8223 25.4212 86.3663 24.9892C86.9263 24.5572 87.3023 23.8532 87.4943 22.8772C87.5583 22.5412 87.5903 22.2772 87.5903 22.0852C87.5903 20.7732 87.3263 19.8292 86.7983 19.2532C86.2703 18.6612 85.5903 18.3572 84.7583 18.3412C84.5983 18.3412 84.3583 18.3412 84.0383 18.3412ZM97.3294 19.3012C99.0414 17.7332 101.337 16.9492 104.217 16.9492C107.113 16.9492 109.409 17.7332 111.105 19.3012C112.817 20.8692 113.673 22.9972 113.673 25.6852C113.673 28.3732 112.817 30.5012 111.105 32.0692C109.409 33.6372 107.113 34.4212 104.217 34.4212C101.337 34.4212 99.0414 33.6372 97.3294 32.0692C95.6334 30.5012 94.7854 28.3732 94.7854 25.6852C94.7854 22.9972 95.6334 20.8692 97.3294 19.3012ZM100.185 31.3492C101.177 32.7252 102.521 33.4132 104.217 33.4132C105.913 33.4132 107.257 32.7252 108.249 31.3492C109.241 29.9572 109.737 28.0692 109.737 25.6852C109.737 23.3012 109.241 21.4212 108.249 20.0452C107.257 18.6532 105.913 17.9572 104.217 17.9572C102.521 17.9572 101.177 18.6532 100.185 20.0452C99.2094 21.4212 98.7214 23.3012 98.7214 25.6852C98.7214 28.0692 99.2094 29.9572 100.185 31.3492ZM138.094 17.5252H137.878C137.478 17.5252 137.07 17.6452 136.654 17.8852C136.254 18.1252 135.966 18.4692 135.79 18.9172L131.758 31.8532C131.486 32.7332 131.35 33.5492 131.35 34.3012C131.35 34.3812 131.35 34.4532 131.35 34.5172H131.11L125.878 22.9252L122.086 31.8532C121.718 32.7812 121.526 33.6692 121.51 34.5172H121.27L115.534 18.9172C115.326 18.4532 115.03 18.1092 114.646 17.8852C114.262 17.6452 113.87 17.5252 113.47 17.5252H113.278V17.2852H120.598V17.5252H120.382C120.046 17.5252 119.79 17.6372 119.614 17.8612C119.454 18.0692 119.374 18.2692 119.374 18.4612C119.374 18.6532 119.406 18.8372 119.47 19.0132L122.422 27.3652L126.766 16.9012L126.982 16.9252L131.758 27.4612L134.158 19.0132C134.206 18.8372 134.23 18.6532 134.23 18.4612C134.23 18.2692 134.15 18.0692 133.99 17.8612C133.846 17.6372 133.598 17.5252 133.246 17.5252H133.03V17.2852H138.094V17.5252Z" fill="white"/>
<path d="M137.934 69.3094C140.228 68.2559 143.458 63.9684 138.022 55.2466C132.83 62.3047 135.37 67.7602 137.934 69.3094Z" fill="#1564F7"/>
<path d="M109.009 69.5306C109.009 69.5306 113.779 71.8865 119.764 67.1559C125.749 62.4253 130.259 63.811 130.259 63.811" stroke="white" stroke-linecap="round"/>
<path d="M166.052 69.5306C166.052 69.5306 161.283 71.8865 155.298 67.1559C149.313 62.4253 144.802 63.811 144.802 63.811" stroke="white" stroke-linecap="round"/>
<path d="M24 54.2377C24 53.6854 24.4477 53.2377 25 53.2377V53.2377C25.5523 53.2377 26 53.6854 26 54.2377V208.933H24V54.2377Z" fill="white"/>
<ellipse cx="36" cy="200.897" rx="2" ry="2.00897" fill="white"/>
<path d="M19.9283 215.29C17.9443 214.633 13.3809 215.487 11 224.157C18.4403 222.679 20.4244 217.753 19.9283 215.29Z" fill="#1564F7"/>
<path d="M12.5 189C12.5 189 16 193.018 13 200.049C10 207.081 12.5 211.099 12.5 211.099" stroke="white" stroke-linecap="round"/>
<path d="M24 222.124C24 222.124 28 225.64 35 222.627C42 219.613 46 222.124 46 222.124" stroke="white" stroke-linecap="round"/>
<rect x="254" y="208.933" width="2.00898" height="228" transform="rotate(90 254 208.933)" fill="white"/>
<ellipse cx="244" cy="200.897" rx="2" ry="2.00897" fill="white"/>
<path d="M258.072 215.133C260.056 214.476 264.619 215.33 267 224C259.56 222.522 257.576 217.596 258.072 215.133Z" fill="#1564F7"/>
<path d="M265.715 188.843C265.715 188.843 262.215 192.861 265.215 199.892C268.215 206.924 265.715 210.942 265.715 210.942" stroke="white" stroke-linecap="round"/>
<path d="M232 222.709C232 222.709 236 219.194 243 222.207C250 225.22 254 222.709 254 222.709" stroke="white" stroke-linecap="round"/>
<rect x="252" y="25.1121" width="2" height="185.83" fill="white"/>
<path d="M254 25.1121L254 27.1211L180.004 27.1211C179.45 27.1211 179 26.6714 179 26.1166V26.1166C179 25.5618 179.45 25.1121 180.004 25.1121L254 25.1121Z" fill="white"/>
<ellipse cx="244" cy="35.1569" rx="2" ry="2.00897" fill="white"/>
<path d="M258.072 20.9207C260.056 21.5775 264.619 20.7237 267 12.0538C259.56 13.5316 257.576 18.4577 258.072 20.9207Z" fill="#1564F7"/>
<path d="M232 13.0348C232 13.0348 236 16.5504 243 13.537C250 10.5236 254 13.0348 254 13.0348" stroke="white" stroke-linecap="round"/>
<path d="M265.715 47.2108C265.715 47.2108 262.215 43.1928 265.215 36.1614C268.215 29.13 265.715 25.1121 265.715 25.1121" stroke="white" stroke-linecap="round"/>
<defs>
<filter id="filter0_d" x="-2.25" y="21.87" width="71.625" height="36.1345" filterUnits="userSpaceOnUse" color-interpolation-filters="sRGB">
<feFlood flood-opacity="0" result="BackgroundImageFix"/>
<feColorMatrix in="SourceAlpha" type="matrix" values="0 0 0 0 0 0 0 0 0 0 0 0 0 0 0 0 0 0 127 0" result="hardAlpha"/>
<feOffset dy="-2"/>
<feGaussianBlur stdDeviation="1.5"/>
<feComposite in2="hardAlpha" operator="out"/>
<feColorMatrix type="matrix" values="0 0 0 0 0.0117647 0 0 0 0 0.0588235 0 0 0 0 0.2 0 0 0 0.38 0"/>
<feBlend mode="normal" in2="BackgroundImageFix" result="effect1_dropShadow"/>
<feBlend mode="normal" in="SourceGraphic" in2="effect1_dropShadow" result="shape"/>
</filter>
<filter id="filter1_d" x="-0.75" y="27.5202" width="62.625" height="37.2646" filterUnits="userSpaceOnUse" color-interpolation-filters="sRGB">
<feFlood flood-opacity="0" result="BackgroundImageFix"/>
<feColorMatrix in="SourceAlpha" type="matrix" values="0 0 0 0 0 0 0 0 0 0 0 0 0 0 0 0 0 0 127 0" result="hardAlpha"/>
<feOffset dy="-2"/>
<feGaussianBlur stdDeviation="1.5"/>
<feComposite in2="hardAlpha" operator="out"/>
<feColorMatrix type="matrix" values="0 0 0 0 0.0117647 0 0 0 0 0.0588235 0 0 0 0 0.2 0 0 0 0.38 0"/>
<feBlend mode="normal" in2="BackgroundImageFix" result="effect1_dropShadow"/>
<feBlend mode="normal" in="SourceGraphic" in2="effect1_dropShadow" result="shape"/>
</filter>
</defs>
</svg>
