<svg width="56" height="56" viewBox="0 0 56 56" fill="none" xmlns="http://www.w3.org/2000/svg">
<path d="M56 21.032H46.3909V34.9681H56V21.032Z" fill="white"/>
<path d="M56 21.032H46.3909V34.9681H56V21.032Z" fill="white"/>
<path d="M54.2858 5.38168H46.3909V17.6034H56V7.09603C56 6.14971 55.232 5.38168 54.2858 5.38168Z" fill="white"/>
<path d="M46.3909 38.3965V50.6182H54.2858C55.2321 50.6182 56 49.8502 56 48.904V38.3965H46.3909Z" fill="white"/>
<path d="M13.0378 5.38168V50.6182H42.9624V5.38168H13.0378ZM35.5853 29.4823L24.5818 35.8719C23.439 36.5341 22.0069 35.7109 22.0069 34.3897V21.6103C22.0069 20.2905 23.4394 19.4657 24.5818 20.1281L35.5853 26.5177C36.7215 27.1768 36.7228 28.8225 35.5853 29.4823Z" fill="white"/>
<path d="M9.60914 21.032H0V34.9681H9.60914V21.032Z" fill="white"/>
<path d="M1.71423 5.38168C0.768031 5.38168 0 6.14971 0 7.09603V17.6035H9.60914V5.38168H1.71423Z" fill="white"/>
<path d="M0 38.3965V48.904C0 49.8503 0.768031 50.6182 1.71423 50.6182H9.60914V38.3965H0Z" fill="white"/>
</svg>
