<svg width="18" height="18" viewBox="0 0 18 18" fill="none" xmlns="http://www.w3.org/2000/svg">
<path d="M8.60475 4.47391C8.89635 3.84221 9.78715 3.84221 10.0787 4.47391L11.3583 7.32421L14.193 8.60421C14.8247 8.89571 14.8247 9.78651 14.193 10.078L11.3583 11.358L10.0787 14.1927C9.78715 14.8244 8.88065 14.8244 8.58905 14.1927L7.30905 11.3424L4.47435 10.0624C3.84265 9.77081 3.84265 8.88001 4.47435 8.58851L7.32475 7.30851L8.60475 4.47391Z" fill="#2C3E5D"/>
<path fill-rule="evenodd" clip-rule="evenodd" d="M9.33335 0C10.6245 0 11.8385 0.24437 12.974 0.73437C14.1094 1.22436 15.0963 1.89054 15.9362 2.73047C16.7762 3.5704 17.4423 4.55733 17.9323 5.69277C18.4223 6.82833 18.6667 8.04227 18.6667 9.33331C18.6667 10.6244 18.4223 11.8384 17.9323 12.9739C17.4423 14.1094 16.7762 15.0963 15.9362 15.9362C15.0963 16.7761 14.1094 17.4423 12.974 17.9323C11.8385 18.4223 10.6245 18.6667 9.33335 18.6667H1.86727C1.35393 18.6667 0.913811 18.484 0.54826 18.1185C0.182704 17.7529 0 17.3128 0 16.7995V9.33331C0 8.04227 0.244371 6.82833 0.734371 5.69277C1.22437 4.55733 1.89054 3.5704 2.73048 2.73047C3.57041 1.89054 4.55734 1.22436 5.69278 0.73437C6.82834 0.24437 8.04228 0 9.33335 0ZM9.33335 1.86718C7.24894 1.86718 5.48321 2.58979 4.03649 4.03644C2.58983 5.48309 1.86727 7.24888 1.86727 9.33331V16.7995H9.33335C11.4178 16.7995 13.1835 16.0769 14.6302 14.6303C16.0769 13.1836 16.7995 11.4178 16.7995 9.33331C16.7995 7.24888 16.0769 5.48309 14.6302 4.03644C13.1835 2.58979 11.4178 1.86718 9.33335 1.86718Z" fill="#2C3E5D"/>
</svg>