<svg width="16" height="16" viewBox="0 0 16 16" fill="none" xmlns="http://www.w3.org/2000/svg">
<path d="M8.80601 2.45526C9.54979 2.18055 10.0901 2.05803 10.818 2C11.0454 1.99439 11.2729 2.00366 11.4991 2.02773C11.9938 2.09028 12.4099 2.27922 12.7178 2.58165C13.1465 3.00209 13.3307 3.5141 13.3334 4.29114C13.3347 4.74125 13.2885 5.08495 13.1544 5.62469C12.9985 6.25083 12.5804 7.30839 12.3128 7.75075C11.7589 8.66667 10.818 9 7.96139 10C9.33342 10 11.3334 9.33333 10.3028 10.6629C10.2407 10.7693 9.7572 11.2407 9.48704 11.4567C8.56029 12.2008 7.57608 12.6329 6.51326 12.7606C6.28406 12.7883 5.81573 12.7896 5.39166 12.7638C5.32957 12.7599 5.31702 12.7728 4.88106 13.2893C4.37268 13.893 3.98976 14.3418 3.7621 14.6074C3.67013 14.7146 3.49219 14.6639 3.47335 14.5252V13.6651C3.44653 13.4677 3.47609 12.9024 3.61934 12.7606C3.85718 12.5227 7.50717 7.74557 7.96139 7.29135C8.15961 7.09313 8.37672 6.73758 7.96139 6.48586C7.54921 6.23606 7.11493 6.80927 7.11493 6.80927C7.11493 6.80927 4.41946 10.3299 3.74519 11.0041C3.12918 11.0041 2.79497 9.53999 2.70192 9.01078C2.65502 8.73285 2.65502 8.09188 2.70192 7.79976C2.74816 7.5128 2.80497 7.27808 2.85583 7.16523C2.91712 7.04007 3.01385 6.93467 3.13458 6.86151C3.24555 6.80347 3.45626 6.80927 3.67821 6.87634C3.90015 6.9434 4.33341 7.66667 4.33341 7.66667C4.33341 6.09454 4.78938 5.37412 5.60237 4.4962C6.36398 3.67338 7.54041 2.92406 8.80601 2.45526Z" fill="#2C3E5D"/>
</svg>
