<svg width="14" height="20" viewBox="0 0 14 20" fill="none" xmlns="http://www.w3.org/2000/svg">
<path d="M9.11033 2.40531e-09H4.68274C4.52063 2.40531e-09 4.3601 0.0319309 4.21033 0.0939695C4.06055 0.156008 3.92446 0.246939 3.80983 0.361572C3.6952 0.476204 3.60427 0.612292 3.54223 0.762067C3.48019 0.911841 3.44826 1.07237 3.44826 1.23448V6.51034C3.44827 6.56346 3.4377 6.61604 3.41717 6.66503C3.39663 6.71401 3.36655 6.75842 3.32868 6.79565C3.2908 6.83289 3.24589 6.86221 3.19656 6.8819C3.14723 6.90159 3.09447 6.91126 3.04136 6.91035H1.3793C1.26415 6.91197 1.15203 6.94747 1.05694 7.01242C0.961848 7.07737 0.887991 7.16889 0.84459 7.27556C0.801188 7.38222 0.790164 7.49931 0.812894 7.6122C0.835624 7.72509 0.8911 7.82879 0.972399 7.91035L5.93792 15.8828C6.1858 16.1279 6.52034 16.2653 6.86895 16.2653C7.21756 16.2653 7.5521 16.1279 7.79998 15.8828L12.7655 7.91035C12.8404 7.83177 12.892 7.73393 12.9146 7.62774C12.9372 7.52155 12.9298 7.41118 12.8934 7.30892C12.8569 7.20666 12.7927 7.11654 12.7081 7.0486C12.6234 6.98066 12.5215 6.93758 12.4138 6.92414H10.7517C10.6986 6.92505 10.6458 6.91538 10.5965 6.89569C10.5472 6.876 10.5023 6.84668 10.4644 6.80945C10.4265 6.77221 10.3964 6.72781 10.3759 6.67882C10.3554 6.62984 10.3448 6.57725 10.3448 6.52414V1.24828C10.3466 1.085 10.3161 0.922993 10.2548 0.771623C10.1936 0.620253 10.103 0.482532 9.98815 0.366435C9.87334 0.250337 9.73663 0.158171 9.58595 0.0952712C9.43527 0.0323719 9.27361 -1.019e-05 9.11033 2.40531e-09Z" fill="#F55959"/>
<path d="M0 19.3104C0 19.4933 0.07266 19.6687 0.201995 19.798C0.331331 19.9273 0.506747 20 0.689655 20H13.1034C13.2864 20 13.4618 19.9273 13.5911 19.798C13.7204 19.6687 13.7931 19.4933 13.7931 19.3104C13.7931 19.1274 13.7204 18.952 13.5911 18.8227C13.4618 18.6934 13.2864 18.6207 13.1034 18.6207H0.689655C0.506747 18.6207 0.331331 18.6934 0.201995 18.8227C0.07266 18.952 0 19.1274 0 19.3104Z" fill="#F55959"/>
</svg>
