<svg width="100" height="24" viewBox="0 0 100 24" fill="none" xmlns="http://www.w3.org/2000/svg">
<path d="M4.48798 15.08C5.72798 15.08 6.66398 15.424 7.29598 16.112C7.92798 16.8 8.24398 17.776 8.24398 19.04C8.24398 20.296 7.92798 21.272 7.29598 21.968C6.66398 22.656 5.72798 23 4.48798 23H0.599976V15.08H4.48798ZM4.09198 21.008C4.61198 21.008 4.95598 20.852 5.12398 20.54C5.29998 20.22 5.38798 19.72 5.38798 19.04C5.38798 18.36 5.29998 17.864 5.12398 17.552C4.95598 17.232 4.61198 17.072 4.09198 17.072H3.39598V21.008H4.09198Z" fill="#3F3B3B"/>
<path d="M12.9698 14.96C14.2338 14.96 15.2178 15.316 15.9218 16.028C16.6338 16.74 16.9898 17.744 16.9898 19.04C16.9898 20.336 16.6338 21.34 15.9218 22.052C15.2178 22.764 14.2338 23.12 12.9698 23.12C12.1378 23.12 11.4178 22.96 10.8098 22.64C10.2098 22.32 9.74582 21.856 9.41782 21.248C9.09782 20.64 8.93782 19.904 8.93782 19.04C8.93782 18.176 9.09782 17.44 9.41782 16.832C9.74582 16.224 10.2098 15.76 10.8098 15.44C11.4178 15.12 12.1378 14.96 12.9698 14.96ZM12.9698 17.06C12.5618 17.06 12.2618 17.22 12.0698 17.54C11.8858 17.852 11.7938 18.352 11.7938 19.04C11.7938 19.728 11.8858 20.232 12.0698 20.552C12.2618 20.864 12.5618 21.02 12.9698 21.02C13.3778 21.02 13.6738 20.864 13.8578 20.552C14.0418 20.232 14.1338 19.728 14.1338 19.04C14.1338 18.352 14.0418 17.852 13.8578 17.54C13.6738 17.22 13.3778 17.06 12.9698 17.06Z" fill="#3F3B3B"/>
<path d="M19.2456 23L17.0016 15.08H20.0136L20.9376 20.804L22.0536 15.08H24.4536L25.6296 20.768L26.5296 15.08H29.4336L27.1776 23H24.2136L23.5896 20.024L23.2776 17.996H23.2416L22.9296 20.024L22.3176 23H19.2456Z" fill="#3F3B3B"/>
<path d="M37.7074 15.08V23H34.6834L32.7874 19.4L32.3554 18.428H32.3314L32.3794 20.06V23H29.9554V15.08H32.9794L34.8754 18.692L35.3074 19.652H35.3314L35.2834 18.02V15.08H37.7074Z" fill="#3F3B3B"/>
<path d="M41.7046 20.948H45.2926V23H38.9086V15.08H41.7046V20.948Z" fill="#3F3B3B"/>
<path d="M49.7198 14.96C50.9838 14.96 51.9678 15.316 52.6718 16.028C53.3838 16.74 53.7398 17.744 53.7398 19.04C53.7398 20.336 53.3838 21.34 52.6718 22.052C51.9678 22.764 50.9838 23.12 49.7198 23.12C48.8878 23.12 48.1678 22.96 47.5598 22.64C46.9598 22.32 46.4958 21.856 46.1678 21.248C45.8478 20.64 45.6878 19.904 45.6878 19.04C45.6878 18.176 45.8478 17.44 46.1678 16.832C46.4958 16.224 46.9598 15.76 47.5598 15.44C48.1678 15.12 48.8878 14.96 49.7198 14.96ZM49.7198 17.06C49.3118 17.06 49.0118 17.22 48.8198 17.54C48.6358 17.852 48.5438 18.352 48.5438 19.04C48.5438 19.728 48.6358 20.232 48.8198 20.552C49.0118 20.864 49.3118 21.02 49.7198 21.02C50.1278 21.02 50.4238 20.864 50.6078 20.552C50.7918 20.232 50.8838 19.728 50.8838 19.04C50.8838 18.352 50.7918 17.852 50.6078 17.54C50.4238 17.22 50.1278 17.06 49.7198 17.06Z" fill="#3F3B3B"/>
<path d="M53.6456 23L56.2136 15.08H59.5736L62.1536 23H59.2976L58.9376 21.488H56.8016L56.4296 23H53.6456ZM57.5456 18.452L57.2216 19.748H58.5296L57.8936 17.108H57.8576L57.5456 18.452Z" fill="#3F3B3B"/>
<path d="M66.527 15.08C67.767 15.08 68.703 15.424 69.335 16.112C69.967 16.8 70.283 17.776 70.283 19.04C70.283 20.296 69.967 21.272 69.335 21.968C68.703 22.656 67.767 23 66.527 23H62.639V15.08H66.527ZM66.131 21.008C66.651 21.008 66.995 20.852 67.163 20.54C67.339 20.22 67.427 19.72 67.427 19.04C67.427 18.36 67.339 17.864 67.163 17.552C66.995 17.232 66.651 17.072 66.131 17.072H65.435V21.008H66.131Z" fill="#3F3B3B"/>
<path d="M71.2289 23V15.08H77.8049V17.132H74.0249V18.116H77.0729V20.012H74.0249V20.948H77.9489V23H71.2289Z" fill="#3F3B3B"/>
<path d="M83.0366 15.08C84.0686 15.08 84.8606 15.312 85.4126 15.776C85.9646 16.232 86.2406 16.84 86.2406 17.6C86.2406 18.792 85.7446 19.58 84.7526 19.964L86.6846 23H83.6486L82.2446 20.372H81.4766V23H78.7406V15.08H83.0366ZM82.5566 18.536C82.8526 18.536 83.0726 18.484 83.2166 18.38C83.3686 18.268 83.4446 18.076 83.4446 17.804C83.4446 17.54 83.3686 17.352 83.2166 17.24C83.0726 17.128 82.8526 17.072 82.5566 17.072H81.4766V18.536H82.5566Z" fill="#3F3B3B"/>
<path d="M0.800049 11V0.439999H6.84805C8.18138 0.450665 9.17338 0.690665 9.82405 1.16C10.4747 1.61867 10.8 2.31733 10.8 3.256C10.8 3.88533 10.608 4.41867 10.224 4.856C9.84005 5.29333 9.23738 5.57067 8.41605 5.688V5.704C9.33338 5.8 10.0054 6.072 10.432 6.52C10.8587 6.968 11.072 7.53333 11.072 8.216C11.072 9.144 10.7574 9.84267 10.128 10.312C9.50938 10.7707 8.55472 11 7.26405 11H0.800049ZM4.36805 4.536H6.03205C6.67205 4.536 6.99205 4.28 6.99205 3.768C6.99205 3.256 6.67205 3 6.03205 3H4.36805V4.536ZM4.36805 8.568H6.27205C6.93338 8.568 7.26405 8.30667 7.26405 7.784C7.26405 7.28267 6.93338 7.032 6.27205 7.032H4.36805V8.568Z" fill="#DB3737"/>
<path d="M11.1057 11L14.5297 0.439999H19.0097L22.4497 11H18.6417L18.1617 8.984H15.3137L14.8177 11H11.1057ZM16.3057 4.936L15.8737 6.664H17.6177L16.7697 3.144H16.7217L16.3057 4.936Z" fill="#DB3737"/>
<path d="M27.7209 0.279999C29.7156 0.279999 31.3369 0.781332 32.5849 1.784L31.0809 4.184C30.5796 3.832 30.0516 3.54933 29.4969 3.336C28.9529 3.12267 28.3609 3.016 27.7209 3.016C27.3049 3.016 27.0116 3.064 26.8409 3.16C26.6809 3.24533 26.6009 3.36267 26.6009 3.512C26.6009 3.64 26.6969 3.736 26.8889 3.8C27.0916 3.864 27.3423 3.93333 27.6409 4.008L29.0969 4.344C30.1743 4.58933 30.9849 4.952 31.5289 5.432C32.0836 5.912 32.3609 6.57867 32.3609 7.432C32.3609 8.28533 32.1529 8.98933 31.7369 9.544C31.3209 10.088 30.7556 10.4933 30.0409 10.76C29.3369 11.0267 28.5369 11.16 27.6409 11.16C26.9689 11.16 26.2969 11.1013 25.6249 10.984C24.9529 10.856 24.3289 10.6747 23.7529 10.44C23.1769 10.1947 22.6809 9.90133 22.2649 9.56L23.7369 7.112C24.0463 7.35733 24.4196 7.58133 24.8569 7.784C25.2943 7.976 25.7476 8.13067 26.2169 8.248C26.6863 8.36533 27.1236 8.424 27.5289 8.424C27.9129 8.424 28.1743 8.38133 28.3129 8.296C28.4623 8.2 28.5369 8.08267 28.5369 7.944C28.5369 7.79467 28.4729 7.68267 28.3449 7.608C28.2276 7.53333 28.0089 7.45867 27.6889 7.384L26.0889 7.032C25.5236 6.904 24.9849 6.73333 24.4729 6.52C23.9609 6.30667 23.5449 5.99733 23.2249 5.592C22.9049 5.176 22.7449 4.616 22.7449 3.912C22.7449 3.18667 22.9369 2.552 23.3209 2.008C23.7156 1.464 24.2809 1.04267 25.0169 0.743999C25.7636 0.434665 26.6649 0.279999 27.7209 0.279999Z" fill="#DB3737"/>
<path d="M33.4719 11V0.439999H42.2399V3.176H37.1999V4.488H41.2639V7.016H37.1999V8.264H42.4319V11H33.4719Z" fill="#DB3737"/>
<path d="M51.2155 0.439999V11H47.4875V0.439999H51.2155Z" fill="#DB3737"/>
<path d="M66.3837 0.439999V11H63.1357V7.336L63.1837 3.784H63.1357L61.0877 11H58.1117L56.0957 3.784H56.0317L56.0797 7.336V11H52.8157V0.439999H58.0317L59.2477 5.128L59.7117 7.096H59.7437L60.2077 5.128L61.4237 0.439999H66.3837Z" fill="#DB3737"/>
<path d="M67.0275 11L70.4516 0.439999H74.9315L78.3716 11H74.5636L74.0835 8.984H71.2355L70.7396 11H67.0275ZM72.2276 4.936L71.7956 6.664H73.5396L72.6916 3.144H72.6436L72.2276 4.936Z" fill="#DB3737"/>
<path d="M83.0449 11.16C82.1383 11.16 81.3223 10.9627 80.5969 10.568C79.8716 10.1627 79.3009 9.56 78.8849 8.76C78.4689 7.94933 78.2609 6.94667 78.2609 5.752C78.2609 4.024 78.7409 2.68 79.7009 1.72C80.6716 0.759999 82.0156 0.279999 83.7329 0.279999C85.0343 0.279999 86.0743 0.509332 86.8529 0.967999C87.6423 1.42666 88.2449 2.16267 88.6609 3.176L85.1889 4.424C85.1143 3.92267 84.9489 3.576 84.6929 3.384C84.4476 3.18133 84.1383 3.08 83.7649 3.08C83.1569 3.08 82.7196 3.29867 82.4529 3.736C82.1969 4.16267 82.0689 4.824 82.0689 5.72C82.0689 6.72267 82.2289 7.432 82.5489 7.848C82.8689 8.25333 83.3703 8.456 84.0529 8.456C84.4796 8.456 84.8263 8.36533 85.0929 8.184C85.3703 8.00267 85.5089 7.72533 85.5089 7.352V7.336H83.7329V5.048H88.6289V11H86.1649L86.0369 9.768C85.4503 10.696 84.4529 11.16 83.0449 11.16Z" fill="#DB3737"/>
<path d="M90.1438 11V0.439999H98.9118V3.176H93.8718V4.488H97.9358V7.016H93.8718V8.264H99.1038V11H90.1438Z" fill="#DB3737"/>
</svg>
