<svg xmlns="http://www.w3.org/2000/svg" width="11.529" height="14" viewBox="0 0 11.529 14"><defs><style>.a{fill:#fff;}</style></defs><path class="a" d="M16.529,15.765v.824a.412.412,0,0,1-.412.412H5.412A.412.412,0,0,1,5,16.588v-.824a.412.412,0,0,1,.412-.412H16.118A.412.412,0,0,1,16.529,15.765Zm-6.053-2.182a.4.4,0,0,0,.576,0l4.768-4.768a.412.412,0,0,0,0-.585l-.165-.165a.4.4,0,0,0-.3-.124H13.235V3.412A.412.412,0,0,0,12.824,3H8.706a.412.412,0,0,0-.412.412V7.941H6.169a.4.4,0,0,0-.3.124l-.165.165a.412.412,0,0,0,0,.585Z" transform="translate(-5 -3)"/></svg>